<?xml version="1.0" encoding="UTF-8" standalone="no"?>
<!-- Created with Inkscape (http://www.inkscape.org/) -->

<svg
   xmlns:dc="http://purl.org/dc/elements/1.1/"
   xmlns:cc="http://creativecommons.org/ns#"
   xmlns:rdf="http://www.w3.org/1999/02/22-rdf-syntax-ns#"
   xmlns:svg="http://www.w3.org/2000/svg"
   xmlns="http://www.w3.org/2000/svg"
   xmlns:sodipodi="http://sodipodi.sourceforge.net/DTD/sodipodi-0.dtd"
   xmlns:inkscape="http://www.inkscape.org/namespaces/inkscape"
   width="188.23215mm"
   height="188.23215mm"
   viewBox="0 0 188.23215 188.23215"
   version="1.1"
   id="svg878"
   inkscape:version="0.92.3 (2405546, 2018-03-11)"
   sodipodi:docname="ant.svg">
  <defs
     id="defs872" />
  <sodipodi:namedview
     id="base"
     pagecolor="#ffffff"
     bordercolor="#666666"
     borderopacity="1.0"
     inkscape:pageopacity="0.0"
     inkscape:pageshadow="2"
     inkscape:zoom="0.35"
     inkscape:cx="-450"
     inkscape:cy="98.571436"
     inkscape:document-units="mm"
     inkscape:current-layer="layer1"
     showgrid="false"
     fit-margin-top="0"
     fit-margin-left="0"
     fit-margin-right="0"
     fit-margin-bottom="0"
     inkscape:window-width="1920"
     inkscape:window-height="1016"
     inkscape:window-x="0"
     inkscape:window-y="32"
     inkscape:window-maximized="1" />
  <metadata
     id="metadata875">
    <rdf:RDF>
      <cc:Work
         rdf:about="">
        <dc:format>image/svg+xml</dc:format>
        <dc:type
           rdf:resource="http://purl.org/dc/dcmitype/StillImage" />
        <dc:title></dc:title>
      </cc:Work>
    </rdf:RDF>
  </metadata>
  <g
     inkscape:label="Layer 1"
     inkscape:groupmode="layer"
     id="layer1"
     transform="translate(2.2678583,13.318455)">
    <g
       transform="matrix(0.35277777,0,0,-0.35277777,39.107061,133.18395)"
       inkscape:label="johnny-automatic-ant"
       id="g1448">
      <g
         id="g1450">
        <path
           inkscape:connector-curvature="0"
           id="path1452"
           style="fill:#000000;fill-opacity:1;fill-rule:evenodd;stroke:none"
           d="m 148.066,220.859 c -1.378,-0.074 -2.691,-0.086 -3.351,0.559 v 1.676 c 1.308,1.144 4.133,0.41 3.351,-2.235 z" />
        <path
           inkscape:connector-curvature="0"
           id="path1454"
           style="fill:#000000;fill-opacity:1;fill-rule:evenodd;stroke:none"
           d="m 145.273,201.859 c 2.844,-5.375 0.336,-15.531 1.122,-21.793 1.863,-0.918 1.621,-2.277 3.351,-2.234 -0.508,-1.352 -2.246,-1.477 -3.91,-1.676 2.234,1.703 0.125,3.219 -1.121,4.473 2.43,1.344 -0.856,3.457 -1.117,6.144 -0.16,1.657 0.308,5.352 0.562,7.266 0.035,0.281 1.117,1.356 1.117,1.676 -0.007,1.023 -2.664,3.285 0.559,2.793 -0.176,1.312 -2.648,0.332 -2.234,2.234 0.449,-0.297 0.906,-0.582 1.675,-0.558 -0.011,0.562 -0.011,1.121 -0.011,1.679 z" />
        <path
           inkscape:connector-curvature="0"
           id="path1456"
           style="fill:#000000;fill-opacity:1;fill-rule:evenodd;stroke:none"
           d="m 142.484,177.281 h 2.793 c 0.262,-1.195 -0.797,-1.066 -1.675,-1.121 0.293,-0.449 0.582,-0.906 0.558,-1.676 -1.168,-0.234 -1.48,0.383 -2.234,0.559 -0.082,1 0.668,1.184 0.551,2.242 z" />
        <path
           inkscape:connector-curvature="0"
           id="path1458"
           style="fill:#000000;fill-opacity:1;fill-rule:evenodd;stroke:none"
           d="m 155.891,209.684 c -2.563,-0.047 -2.133,-3.082 -5.028,-2.793 5.391,-2.098 10.016,-8.692 11.176,-16.766 10,3.293 16.512,11.516 26.82,14.527 1.852,0.543 3.75,-0.105 5.028,1.676 0.679,7.168 3.468,14.727 5.027,21.793 1.184,5.359 0.449,11.535 4.473,15.086 0.074,-2.414 -2.071,-6.937 0,-7.824 -3.664,-4.715 -4.571,-12.192 -6.149,-18.996 3.551,5.578 4.399,13.855 7.824,19.558 -4.261,0.496 6.215,10.922 8.379,13.965 0.86,1.207 1.098,5.324 3.352,5.031 0.094,1.766 -1.481,1.868 -1.113,3.911 0.73,-0.196 0.879,-0.985 1.675,-1.118 0.758,1.395 1.692,4.239 0,5.028 3.223,4.504 2.106,7.785 2.235,12.293 0.648,-0.09 0.992,0.125 1.117,0.558 1.91,0.239 1.68,-1.672 2.793,-2.234 -2.34,-3.098 0.281,-4.977 -2.234,-8.379 -0.172,-1.746 1.613,1.418 1.675,-0.559 -0.566,-3.066 -4.601,-5.757 -2.234,-8.382 -1.281,-0.954 -2.246,-2.223 -3.352,-3.352 0.407,-0.523 1.016,-0.848 1.676,-1.117 -13.418,-8.563 -16.117,-27.84 -21.793,-44.145 -0.144,-1.633 1.266,-1.715 1.117,-3.351 -6.726,-4.891 -13.312,-10.477 -22.347,-13.41 -4.297,-1.395 -9.125,-1.547 -12.852,-4.469 0.34,-5.211 2.203,-11.336 1.676,-19 0.949,-0.91 2.805,-0.922 3.352,-2.235 -0.196,-1.851 -3.219,-0.875 -5.028,-1.117 1.266,-3.785 -2.101,-8.777 2.793,-8.937 0.535,-2.028 -2.41,-0.571 -2.793,-1.676 1.156,-2.055 -0.148,-3.094 -0.558,-5.031 5.73,-5.328 14.554,2.648 21.789,5.586 1.109,0.453 2.383,0.093 3.355,0.558 2.531,1.219 7.457,3.633 10.613,5.032 6.27,0.261 8.727,3.804 15.649,2.234 2.926,-0.664 7.445,-3.707 11.176,-5.027 3.058,-1.09 5.484,-1.36 8.379,-2.797 5.25,-2.602 16.726,-11.184 21.234,-11.735 2.719,-0.328 5.73,0.789 9.496,1.118 8.512,0.742 16.149,5.777 24.027,8.382 0.524,0.41 0.848,1.016 1.118,1.676 3.418,0.883 7.785,2.047 9.5,-1.117 0.382,-1.875 -0.938,-2.043 -2.235,-2.234 0.137,-1.497 2.356,-2.125 1.117,-3.352 -3.461,4.508 -7.574,2.746 -12.851,1.117 0.242,-0.691 0.715,-1.148 1.676,-1.117 -1.043,-2.68 -3.063,1.191 -5.028,-0.563 -1.675,-0.367 0.532,-1.191 0,-2.234 -2.379,0.332 -3.695,-0.398 -5.59,-0.558 -1.316,-2.887 -9.668,-3.188 -15.644,-3.911 -6.707,-0.808 -7.555,-0.769 -13.969,1.676 -11.91,4.543 -24.09,10.969 -34.64,17.32 -5.801,-1.144 -9.036,-5.574 -13.973,-8.378 -1.488,-0.848 -3.844,-1.375 -5.586,-2.235 -1.609,-0.793 -3.082,-2.332 -4.469,-2.793 -4.652,-1.547 -9.277,-0.129 -15.086,-2.234 -1.043,0.074 -1.867,0.367 -2.234,1.117 -1.961,-2.695 -7.027,-2.289 -9.5,-4.473 -2.121,-8.687 -1.438,-18.297 5.586,-20.113 0.887,-0.23 1.969,0.539 2.797,0.559 12.906,0.273 35.031,6.074 46.933,0 2.438,-3.934 4.215,-7.723 6.149,-11.735 3.23,-6.718 6.105,-13.554 9.496,-21.793 0.969,-2.343 2.719,-4.507 3.355,-6.703 1.309,-4.539 0.887,-9.664 2.793,-13.969 2.524,-5.707 8.856,-10.601 12.852,-15.644 1.031,-1.309 1.148,-3.117 2.234,-4.473 0.602,-0.75 2.004,-1.426 2.793,-2.234 5.117,-5.227 11.563,-12.094 17.32,-17.32 0.571,0.363 0.579,1.285 1.676,1.117 4.348,-7.946 14.406,-10.18 21.235,-15.645 -0.438,-2.762 -4.032,1.086 -4.469,-1.679 -1.59,1.019 -1.949,3.269 -3.356,4.472 -0.882,-0.047 -2.128,0.27 -2.234,-0.558 -4.223,3.039 -8.672,5.851 -12.289,9.496 -8.176,2.633 -11.074,10.531 -17.883,14.531 -0.578,3.164 -3.765,4.547 -5.586,6.703 -2.89,3.426 -4.801,7.816 -7.824,11.176 -0.414,0.461 -1.797,0.582 -2.234,1.117 -3.27,3.98 -6.618,9.422 -8.938,14.527 -3.234,7.114 -6.129,13.594 -8.941,21.235 -2.723,7.394 -3.879,17.203 -9.5,24.023 -9.492,-2.879 -22.18,-3.902 -35.203,-2.793 -2.508,0.215 -5.645,1.43 -7.821,1.68 -0.629,0.066 -1.863,-0.512 -1.675,-0.563 -3.754,0.989 -5.168,4.301 -8.383,3.356 -0.289,0.824 -0.825,1.406 -1.117,2.234 -3.059,-0.078 -5.563,0.395 -7.821,1.117 -1.644,-2.781 0.406,-6.656 1.676,-8.382 0.098,-1.961 -1.887,-1.836 -2.234,-3.352 0.644,-1.402 2.226,-1.871 2.234,-3.91 2.719,0.34 2.871,0.34 5.586,0 0.695,-1.848 2.644,-1.316 3.91,-2.238 7.801,-5.661 9.848,-17.438 14.531,-26.262 0.965,-9.301 3.625,-17.172 2.235,-27.375 -0.192,-1.41 -0.61,-2.91 -1.117,-5.59 -0.129,-0.668 -1.047,-1.758 -1.118,-2.234 -2.832,-18.934 -13.746,-32.91 -26.82,-41.907 -16.809,8.707 -28.008,23.028 -30.176,46.379 -0.09,0.653 -1.015,0.469 -1.676,0.559 -1.05,24.891 4.696,42.984 15.086,56.434 2.731,0.636 5.672,2.722 8.942,1.117 0.726,1.32 0.933,3.164 1.676,4.468 0.097,1.399 -1.25,1.356 -1.676,2.235 0.636,3.465 2.633,5.562 2.793,9.5 -7.149,3.851 -8.801,-6.887 -13.41,-3.91 -1.028,-0.836 -1.957,-1.766 -2.793,-2.797 C 114.98,110.602 96.883,112.621 80.465,113.574 75.68,108.117 75.742,97.809 72.082,91.227 V 87.312 C 67.422,78.324 66.691,68.309 61.469,60.492 60.262,58.691 58.418,56.906 56.996,54.906 53.418,49.855 49.859,45.215 45.82,39.82 42.945,35.977 40.527,32.043 36.883,29.762 36.207,27.457 34.027,26.656 32.969,24.734 H 31.293 C 23.617,19.375 17.324,12.629 8.387,8.531 8.105,6.707 11.164,7.344 9.504,5.734 7.125,6.637 5.875,6.496 3.914,6.855 3.84,9.996 8.012,10.297 6.707,13 c 4.164,-0.062 6.18,2.02 9.5,2.793 -0.367,0.75 -1.191,1.043 -2.234,1.117 5.804,2.024 10.371,5.274 13.41,10.059 1.758,-0.266 2.183,0.797 3.351,1.117 8.707,9.281 16.766,19.555 24.586,30.172 1.012,1.379 2.715,3.207 3.352,4.472 2.453,4.856 2.637,11.231 4.473,16.762 0.316,0.957 1.312,1.266 1.675,2.235 1.539,4.105 1.778,8.894 3.352,12.851 0.547,1.371 1.683,2.465 2.238,3.91 2.535,6.664 5.16,12.989 8.379,19 14.211,7.34 38.188,-0.8 50.848,2.231 4.367,4.812 6.929,11.836 3.351,19 -6.968,4.093 -23.203,3.301 -31.289,6.703 -2.246,0.945 -4.941,2.492 -7.265,3.914 -2.036,1.238 -3.801,3.836 -6.145,5.027 -1.242,0.629 -3.656,-0.668 -3.914,1.676 -10.098,-4.047 -19.012,-8.965 -28.496,-14.527 -8.75,-5.133 -15.629,-7.821 -29.055,-4.473 -1.754,-0.262 -1.476,1.504 -2.793,1.676 -7.074,-0.926 -9.156,3.14 -15.086,3.355 3.246,2.203 -3.082,1.793 -3.91,3.352 -1.289,0.172 -0.621,-1.613 -1.676,-1.676 -1.691,0.547 -2.808,1.664 -3.355,3.356 6.754,1.976 10.074,-1.075 15.644,-3.356 7.719,-3.16 14.161,-4.469 24.028,-6.144 8.113,4.179 15.426,9.16 23.469,13.41 1.289,0.168 0.621,-1.617 1.675,-1.676 2.145,1.953 5.567,2.629 7.821,4.469 -1.258,1.043 -3.926,-1.262 -5.586,-1.676 2.418,3.207 7.09,4.019 12.293,5.586 1.172,0.351 2.382,1.523 3.355,1.676 18.297,2.871 30.363,-12.606 45.258,-14.528 1.73,0.133 2.168,1.555 3.351,2.235 -0.414,2.566 -1.679,4.281 -3.91,5.027 -0.019,2.07 3.473,0.625 3.352,2.793 -1.316,2.039 -1.563,5.141 -1.676,8.383 -0.183,1.855 -2.437,-1.473 -2.793,0.558 -0.543,2.215 1.617,1.735 2.793,2.235 -1.867,5.109 -1.601,15.051 0.559,19.554 -3.004,4.133 -10.211,3.051 -16.203,5.032 -7.676,2.535 -12.383,7.73 -18.438,11.734 -3.41,8.988 -3.308,18.094 -7.824,27.379 -2.668,5.484 -6.656,9.918 -9.5,14.527 -4.031,6.539 -8.481,11.899 -9.496,20.672 -0.238,2.055 -0.293,5.973 2.234,6.707 1.289,-3.433 1.074,-5.687 1.117,-9.5 0.078,-7.07 7.293,-14.761 10.618,-21.23 1.812,-3.531 4.312,-5.739 6.703,-7.824 2.011,3.148 -1.321,5.742 -1.676,8.382 4.988,-3.961 4.668,-11.949 6.148,-19 1.149,-5.476 2.68,-11.019 3.352,-16.203 4.363,-5.402 13.496,-5.883 20.672,-9.496 1.281,-0.644 2.117,-2.109 3.355,-2.797 2.91,-1.613 6.117,-3.215 9.496,-4.469 1.59,6.61 2.996,13.399 9.5,15.086 0.082,1.387 0.106,2.711 -1.117,2.793 0.168,1.512 2.352,1.004 2.793,2.239 -1.195,1.129 -1.824,-1.461 -3.91,-1.118 1.375,-0.664 -1.145,-2.113 0.559,-2.796 -1.215,-0.778 -5.911,0.355 -1.676,1.117 -0.235,1.258 -2.965,0.015 -3.356,1.121 -0.406,1.523 1.114,1.125 1.121,2.234 -0.793,-0.047 -1.586,-0.093 -1.679,0.559 -0.828,-0.246 0.222,-0.715 0,-1.676 -1.793,-0.492 -1.157,1.449 -2.235,1.676 -1.375,-1.235 1.364,-3.074 2.793,-3.356 -6.113,-0.148 -6.808,8.071 -8.937,15.649 -0.52,1.848 -1.68,3.426 -1.676,4.469 0.016,6.562 5.879,7.629 8.379,11.734 -5.863,3.187 -17.434,-0.152 -24.027,3.352 0.691,6.949 1.8,13.476 3.914,18.996 -1.539,1.593 0.117,1.851 0,2.793 -0.457,3.644 -3.938,7.699 -3.356,11.175 -0.34,1.137 -2.152,1.059 -2.793,1.676 -0.285,0.277 0.258,1.367 0,1.676 -1.801,2.156 -6.492,4.781 -8.379,7.266 -1.605,2.113 -2.519,5.328 -3.355,8.378 5.601,1.254 7.351,-6.007 11.734,-7.82 1.625,-6.449 6.336,-9.914 8.383,-16.762 0.414,-1.394 -0.426,-4.14 1.676,-5.031 -1.008,-5.711 -3.395,-11.851 -5.031,-18.437 5.648,-3.293 15.5,-2.379 21.792,-5.028 5.614,4.61 7.934,14.926 18.438,12.852 0.438,-0.5 0.602,-1.262 0.562,-2.234 5.661,-0.856 5.672,-7.368 8.938,-10.618 -1.086,-0.468 -5.883,-3.398 -5.586,0 -0.859,-0.629 -1.375,-1.605 -2.234,-2.234 -0.18,-1.481 3.129,0.523 2.234,-1.676 -2.258,-0.535 -3.059,-2.531 -6.703,-1.676 2.711,0.454 0.355,5.977 4.469,5.028 0.261,1.937 -3.032,0.32 -3.352,1.676 -0.172,2.281 1.164,0.3 2.234,0.558 1.071,0.719 -1.32,1.156 0,2.793 2.661,-0.844 1.387,0.449 3.911,0.559 -0.621,1.242 -2.211,1.515 -2.793,2.793 -1.883,-0.899 1.754,-1.766 0,-2.793 -1.508,1.562 -5.278,2.265 -7.825,1.117 -0.07,-1 0.684,-1.176 0.559,-2.234 -0.687,0.246 -1.144,0.714 -1.117,1.675 -1.906,-1.551 -1.637,-2.199 -4.469,-2.234 0.633,-1.801 3.828,-2.789 0.559,-3.91 0.953,-1.098 3.922,-0.18 4.468,-1.676 -0.847,-3.707 -6.691,-5.113 -8.937,-5.59 -0.199,-2.027 1.437,-3.578 0.559,-5.586 0.449,0.297 0.906,0.582 1.675,0.559 1.356,0.683 -1.144,2.156 -1.117,3.351 2.406,0.735 0.692,-2.66 2.793,-2.234 -1.558,-2.949 -3.023,-2.82 -5.027,-5.586 -0.254,-0.914 3.043,-0.914 2.793,0 0.929,-1.488 -0.379,-2.484 2.234,-2.793 -0.965,-1.496 0.395,-2.125 -1.117,-3.355 0.164,-1.7 2.953,-0.77 3.351,-2.235 1.52,-0.398 -0.398,2.637 1.118,2.235 3.218,0.425 2.273,-3.313 5.59,-2.793 0.156,-0.903 -0.532,-0.961 -0.559,-1.676 2.519,0.269 4.332,2.316 5.586,2.234 -0.293,3.399 -2.988,-1.754 -3.91,0.559 -1.668,1.949 1.316,2.82 2.793,3.355 -0.801,0.817 -0.821,2.164 1.117,1.676 0.426,2.445 -0.399,3.242 1.676,4.469 -1.161,1.844 -2.782,-2.235 -4.469,0 -0.824,-2.125 2.496,-0.11 1.676,-2.235 -1.7,0.161 -3.813,-0.089 -3.91,1.676 2.418,-0.234 0.73,3.754 3.351,2.793 -0.105,2.918 -4.691,2.653 -6.144,1.117 0.476,-1.754 3.226,-1.242 3.351,-3.351 -1.316,-0.016 -1.644,0.961 -3.351,0.558 0.363,-0.57 1.281,-0.578 1.117,-1.675 -0.821,-0.801 -1.774,-0.43 -1.676,1.117 -2.477,-0.789 0.707,-3.953 -1.676,-5.028 -2.531,-0.417 0.852,1.532 -1.68,1.118 -1.21,0.093 -0.25,-1.981 -0.558,-2.793 -2.258,1.386 0.121,2.273 0,4.468 -0.949,0.207 -1.055,-0.437 -1.117,-1.117 -2.102,4.922 3.14,6.836 2.234,12.289 0.649,-0.465 1.5,-0.734 2.793,-0.554 0.043,-1.34 -4.098,-3.219 -1.117,-3.914 -0.164,-1.883 -2.477,-1.618 -2.793,-3.352 0.875,-1.676 1.961,2.586 3.351,0.559 1.301,2.191 -0.683,2.078 -0.558,4.468 3.25,-0.925 8.5,0.883 11.176,-1.675 -1.934,3.406 0.429,6.359 0.558,8.382 4.149,1.813 9.629,2.289 14.528,3.352 -2.45,1.316 -5.821,-1.242 -8.938,-1.117 6.574,2.547 13.172,5.078 21.231,6.144 -0.219,4.141 -4.641,9.153 -2.235,12.293 0.305,1.981 -1.976,1.375 -1.676,3.356 0.602,2.715 1.18,2.465 0,5.027 1.993,1.527 3.446,5.367 2.793,7.824 0.45,0.293 0.907,0.582 1.676,0.559 -1.09,2.387 1.211,2.516 1.68,3.91 0.566,1.707 0.5,3.027 1.676,5.027 0.406,0.7 1.925,1.512 2.234,2.239 0.25,0.586 -0.332,1.691 0,2.234 2.309,3.758 6.668,7.344 10.059,7.262 -0.84,-5.867 -3.829,-9.578 -7.825,-12.293 0.379,-2.797 -1.492,-3.352 -2.793,-4.469 -2.253,-5.977 -5.8,-11.133 -5.589,-18.437 0.175,-5.993 3.242,-12.883 2.238,-18.442 -7.348,-1.406 -15.024,-2.484 -22.352,-3.91 0.364,-4.109 5.117,-3.82 6.703,-6.703 -0.281,-5.778 -1.742,-11.094 -3.351,-16.766 -1.356,-4.781 -4.125,-8.16 -9.5,-9.496 1.07,0.875 -0.789,2.184 0.57,3.36 z M 45.816,139.277 c 6.102,1.453 10.395,5.637 15.086,8.383 0.68,0.395 2.09,-0.336 1.676,1.117 -7.262,-1.492 -11.316,-6.195 -16.762,-9.507 z m 44.141,85.493 c 1.328,-4.004 0.891,-8.93 3.914,-11.735 -2.394,4.465 -1.586,16.516 -7.266,20.676 0.047,-3.199 2.34,-5.887 3.352,-8.941 z m 98.344,60.343 c 4.949,0.266 3.453,6.973 7.261,8.383 -1.054,-0.125 -1.23,0.629 -2.234,0.559 -1.308,-3.356 -5.422,-3.891 -5.031,-8.942 z m -85.492,-1.675 c -1.77,3.628 -3.7,7.101 -7.821,8.382 1.203,-4.199 3.969,-6.832 7.821,-8.382 z m 35.761,-36.317 c 2.672,0.492 4.711,1.621 6.703,2.793 v 2.793 c -0.832,-0.094 -2.062,0.199 -2.234,-0.559 2.242,-1.921 -2.328,-1.734 -2.793,-2.793 1.492,-0.652 -1.461,-1.46 -1.68,-2.234 z m 31.289,-4.473 c 3.934,0.997 9.27,0.598 11.172,2.793 -3.281,0.852 -8.383,-1.289 -11.176,-2.793 z m -56.996,1.676 c -1.418,0.031 -3.551,0.5 -3.91,-1.117 3.586,-0.141 6.633,-0.746 11.176,-1.117 -0.68,1.195 -4.953,2.187 -7.266,2.234 z m 20.114,-24.586 c 0.175,-1.312 2.648,-0.332 2.234,-2.234 -0.973,-0.043 -1.738,0.125 -2.234,0.558 -0.575,-1.874 1.738,-0.867 2.793,-1.117 -0.442,1.934 0.621,2.36 1.117,3.356 -3.125,-0.387 0.343,2.351 -2.235,2.234 0.782,-4.43 -1.511,-0.648 -1.679,-2.797 z m -3.34,-7.261 c -1.196,2.07 -0.625,5.949 -2.235,6.144 -0.761,-1.598 -0.062,-5.797 2.231,-6.144 z m 7.254,-12.293 c -0.438,-0.125 -1.106,-0.016 -1.121,-0.559 0.984,-0.32 3.285,0.676 3.355,-0.559 h -1.117 c -0.336,-0.996 1.637,-2.32 0,-2.793 -0.344,0.774 -2.153,0.082 -2.235,1.118 -1.144,1.8 3.172,0.785 1.118,1.675 h -1.118 c -0.949,-3.05 -4.711,-5.504 0,-2.793 -0.539,-2.355 2.743,0.907 2.793,-1.675 -0.625,-0.121 -0.871,-0.621 -1.117,-1.118 0.813,-0.308 2.887,0.653 2.793,-0.562 -0.515,-0.973 -1.746,-1.23 -3.351,-1.117 -0.5,-1.961 0.105,-1.836 -1.121,-3.352 2.121,0.41 4.906,-1.387 3.914,-2.234 -1.872,1.051 -4.141,0.84 -5.59,3.351 -0.461,-1.578 0.789,-1.445 0.558,-2.793 -0.679,-0.062 -1.32,-0.168 -1.117,-1.117 1.387,-1.437 1.992,0.379 2.793,1.117 0.344,-0.773 2.152,-0.085 2.238,-1.117 -0.121,-0.629 -0.621,-0.871 -1.117,-1.117 -1.586,0.684 -3.695,0.453 -4.472,-1.117 2.168,-0.281 1.488,-6.453 -0.559,-6.149 0.34,-0.031 0.66,-0.082 0.559,-0.558 0.031,-0.34 0.082,-0.664 0.558,-0.559 -0.488,1.961 1.449,0.582 1.676,0 -0.063,-2.211 0.773,-4.351 0,-6.148 -1.055,2.09 -0.41,2.238 -2.793,1.117 -0.801,2.664 2.336,1.391 1.676,3.914 -1.91,-1.566 -1.746,-0.172 -3.352,1.117 0.836,-2.57 -0.012,-2.308 -1.676,-3.355 1.844,-0.246 1.903,-0.477 0.559,-2.235 1.563,-0.64 2.902,-0.64 4.469,0 0.031,-0.714 0.718,-0.773 0.558,-1.675 -2.976,0.593 -0.136,-1.176 -1.675,-1.676 -1.063,0.242 -1.403,1.203 -2.793,1.117 -0.067,-2.484 2.39,-2.453 3.91,-3.352 -0.258,3.52 3.168,0.079 5.59,1.118 -0.618,6.093 -3.832,12.554 -4.473,16.765 1.379,-1.558 1.621,-1.316 1.117,1.117 0.551,-0.484 3.52,-0.234 4.473,0.559 -0.684,0.063 -1.324,0.164 -1.117,1.117 1.57,-0.48 2.144,-1.949 2.793,-3.355 -1.457,-0.18 -5.207,1.406 -4.473,-1.676 0.504,1.512 1.351,-1.176 1.68,-1.676 -1.508,1.321 -2.688,-1.074 -1.68,0 4.094,-0.586 3.527,-2.703 2.238,-5.586 2.004,-0.785 2.043,-4.609 1.117,-6.707 4.68,-1.16 6.172,0.617 10.618,-0.558 -0.739,3.363 2.582,5.59 1.117,7.824 0.14,-2.41 -2.383,-1.754 -1.117,-3.91 -2.157,-1.668 -4.551,0.375 -5.032,-2.797 -0.468,0.648 -0.734,1.5 -0.558,2.797 1.914,0.117 1.679,1.84 2.793,0 0.164,1.136 1.511,1.093 1.679,2.234 -2.875,-0.773 -4.664,-0.363 -6.148,2.234 0.769,-0.023 1.227,0.262 1.676,0.559 0.074,-1.789 1.269,-2.461 3.355,-2.234 0.86,2.351 -2.894,0.086 -2.797,1.675 0.739,0.004 0.512,0.981 1.121,1.118 2.903,-1.211 2.434,1.781 5.586,1.675 0.317,1.809 -0.172,2.813 -1.117,3.352 0.086,1.965 3.418,0.68 3.352,2.797 -1.782,0.332 -1.727,-1.051 -2.793,0 0.156,-1.633 -0.137,-1.922 -1.117,-1.121 -0.325,-1.813 0.378,-2.598 0.558,-3.91 -2.781,0.011 -4.176,1.414 -5.586,2.793 h 3.352 c 0.094,-0.836 -0.199,-2.063 0.558,-2.235 1.055,0.867 -0.8,2.176 0.559,3.352 -0.836,0.097 -2.063,-0.199 -2.234,0.562 1.761,1.215 0.367,5.59 3.91,5.028 0.976,3.211 -3.129,1.336 -3.352,3.351 1.879,-0.574 0.871,1.738 1.117,2.793 1.121,-1.367 2.598,-1.09 2.793,1.117 -1.843,0.426 -1.375,2.762 -1.675,3.356 -0.008,-0.735 -1.551,-0.711 -1.676,0 3.019,1.058 -2.246,0.961 0,2.793 -2.606,0.562 -4.832,1.5 -5.586,3.91 1.254,-2.824 -3.922,-3.922 -5.031,-2.234 v -1.118 c -0.34,-0.031 -0.661,-0.082 -0.559,-0.558 0.879,-0.055 1.937,0.074 1.676,-1.117 -3.399,-1.325 -2.258,3.082 -2.793,1.675 -0.918,-0.023 -0.309,-1.566 -1.121,-1.691 z m -31.852,-2.793 c 2.93,-1.715 7.195,-2.7 9.5,-4.473 v 2.238 c -3.812,1.344 -6.312,3.649 -8.941,3.91 0.609,-0.132 1.343,-0.921 0.558,-1.117 -2.297,1.985 -4.41,4.156 -7.82,5.028 2.148,-2.75 3.699,-3.825 6.703,-5.582 z m 67.063,-3.911 c 4.421,0.418 6.433,3.25 11.171,3.352 1.176,1.75 3.231,3.871 5.59,2.793 -1.836,2.027 2.395,1.797 0.559,3.352 -4.832,-4.114 -12.809,-5.075 -17.32,-9.497 z m -12.301,-26.816 c 1.39,-0.086 1.73,0.875 2.797,1.117 0.011,1.317 -0.965,1.645 -0.563,3.352 0.77,0.023 1.231,-0.262 1.68,-0.559 -0.93,1.121 0.047,4.145 -1.117,5.028 -1.602,-3.54 -0.571,-6.274 -2.793,-8.946 z m -6.703,0 c 1.769,0.09 1.867,-1.484 3.914,-1.117 -1.637,1.812 -0.52,6.414 -2.797,6.144 0.773,-0.629 -1.18,-3.261 -1.121,-5.023 z m -13.969,-8.945 c 2.383,1.715 5.168,3.027 6.707,5.586 -1.484,3.742 -6.703,1.554 -10.059,1.117 0.325,-0.981 -0.675,-3.281 0.559,-3.352 0.93,1.25 3.121,-0.941 2.793,-2.793 -0.309,0 -0.641,-0.453 0,-0.562 z m 8.375,3.91 c 1.797,-0.094 3.449,-3.219 5.031,-1.676 -2.113,1.27 1.926,0.992 2.235,1.676 -0.407,1.707 0.57,2.039 0.558,3.355 h -7.266 c 0.09,-1.382 0.102,-2.691 -0.55,-3.351 z m -7.262,-5.582 c -0.012,-2.164 3.531,-2.766 1.676,-5.027 0.875,-0.055 1.937,0.074 1.676,-1.122 2.043,-0.312 3.008,0.481 4.468,2.235 -0.195,-0.235 -0.691,0.711 -0.558,1.121 0.351,1.07 2.168,1.383 2.234,1.676 -0.019,-0.09 -1.828,0.281 -1.117,1.117 2.723,0.859 1.676,-2.051 2.793,-2.793 -0.141,2 1.68,2.047 1.676,3.91 -2.781,1.313 -4.199,3.992 -8.379,3.91 -0.582,-2.582 -4.293,-2.031 -4.461,-5.031 z m -9.496,1.672 c 1.602,-0.11 3.254,-3.035 4.469,-1.676 -1.559,1.422 -3.192,2.769 -4.469,4.469 v -2.801 z m 69.852,1.121 c -5.575,-2.371 -13.106,-5.969 -17.879,-8.383 -1.114,-0.562 -3.692,-0.508 -3.914,-2.234 4.633,-0.911 5.972,1.078 8.383,2.234 -0.083,-0.039 0.558,-0.805 1.117,-0.559 0.172,0.075 0.226,0.934 0.558,1.118 0.977,0.535 2.949,0.961 4.473,1.675 1.43,0.676 2.937,1.926 3.91,2.235 0.027,0.012 0.473,-0.852 1.117,-0.559 0.852,0.395 1.004,1.278 1.676,1.676 2.32,1.395 5.387,1.836 7.262,3.914 -2.489,-0.133 -3.52,-1.703 -6.723,-1.102 z M 96.105,156.598 c -3.785,-0.137 -5.933,1.015 -9.5,2.234 -0.238,-1.066 -1.597,-1.012 -1.117,-2.793 3.657,2.008 8.832,-1.703 10.617,-5.031 -0.062,3.394 1.532,0.808 2.793,0.558 1.774,-0.347 5.567,0.18 6.149,-1.675 0.98,4.062 -6.863,3.875 -8.938,6.714 z m 134.661,-5.024 c -1.512,0.93 -5.45,2.352 -6.707,1.676 1.382,-1.051 5.152,-2.641 6.703,-1.672 z m -87.723,-12.859 c 1.102,0.39 -0.137,3.121 1.117,3.355 1.567,-2.367 3.344,-0.492 6.149,-0.558 0.304,-0.813 -0.653,-2.891 0.558,-2.797 1.457,2.113 0.539,3.156 1.117,6.148 -3.23,-0.695 -0.132,1.86 -1.675,2.235 -0.903,-0.774 -2.2,-1.153 -2.797,-2.235 1.273,0.157 2.101,-0.133 2.234,-1.117 -4.34,-1.156 -8.883,-0.226 -11.172,2.234 0.156,-1.273 -0.136,-2.101 -1.117,-2.234 -0.125,0.434 -0.019,1.102 -0.562,1.117 1.281,-2.812 5.554,-2.64 6.156,-6.14 z m 14.527,-2.231 c 0.035,0.172 1.094,-0.277 1.118,-0.558 0.011,-0.133 -1.254,-2.215 -0.559,-3.352 -2.067,0.391 -2.469,-0.883 -2.234,-2.793 -0.829,0.645 -1.407,0.645 -2.235,0 0.938,-1.933 -0.82,-3.668 1.676,-4.472 2.516,2.984 5.754,12.343 3.91,15.086 0.852,-2.379 -1.449,-2.719 -1.691,-3.911 z m -11.734,-1.668 v -1.679 c 1.98,0.23 1.102,2.445 3.352,1.117 -1.461,2.039 -0.864,1.848 1.117,2.793 -2.95,2.105 -3.586,-2.168 -7.266,-1.117 -0.859,-2.118 -1.402,-4.551 -2.234,-6.703 2.039,-0.344 0.445,3.773 2.797,4.468 0.757,-1.48 -0.641,2.051 2.23,1.121 z m -13.969,-14.531 c 3.426,-0.086 5.817,4.953 3.352,7.266 0.082,-3.621 -2.551,-4.531 -3.352,-7.266 z m 6.703,5.586 c 1.231,-1.605 2.618,0.418 2.235,-2.797 0.812,0.309 2.886,-0.652 2.793,0.563 -0.961,1.644 -2.852,2.363 -3.91,3.91 -0.129,-0.801 -0.911,-0.953 -1.11,-1.68 z m 22.352,-6.707 c 0.93,0.992 0.812,4.094 -1.117,3.914 -0.77,-1.672 -0.66,-3.422 1.121,-3.914 z m 21.785,-0.559 c -3.996,-0.339 -8.5,1.2 -10.617,-1.117 0.379,-1.633 6.574,0.707 4.469,-1.679 1.808,-0.688 0.429,1.812 2.234,1.121 8.324,-1.059 18.414,0.043 28.496,3.351 -7.832,2.473 -16.387,-0.98 -24.582,-1.672 z m -65.93,-1.121 c -2.718,0.157 -5.433,-0.218 -7.824,0 -8.133,0.743 -17.043,2.868 -23.465,-0.558 11.254,-0.364 24.45,-1.492 36.875,-1.117 -0.359,2.832 -3.992,1.589 -5.582,1.679 z m 27.938,-5.582 c 1.492,0.602 5.113,1.676 5.586,0 -0.024,2.207 -1.231,3.239 -1.676,5.028 -1.578,-0.461 -1.449,0.785 -2.793,0.558 -0.543,-1.332 -2.363,-4.3 -1.113,-5.582 z m -0.563,-5.035 c 1.778,-2.64 4.254,-0.461 6.149,-1.117 -0.309,0.996 -0.289,2.32 -1.117,2.797 -0.172,-0.801 -4.223,0.078 -5.024,-1.672 z m 12.86,-6.703 c 0.304,0.813 -0.653,2.891 0.558,2.793 0.356,-0.469 2.614,-1.75 2.793,-0.559 -2.144,0.649 -3.5,2.086 -6.703,1.676 1.281,-1.129 2.371,-2.469 3.352,-3.91 z M 66.492,82.285 c 2.453,6.938 6.383,14.805 6.703,20.672 -2.633,-6.125 -6.047,-14.43 -6.703,-20.672 z m 88.278,15.086 c -1.465,0.359 -4.625,-1.156 -6.149,1.117 0.238,1.067 1.598,1.012 1.117,2.797 -3.804,-1.23 -8.48,0.586 -12.289,1.117 -0.453,-1.039 -0.722,-2.257 -1.679,-2.797 2.011,0.204 2.66,0.891 2.796,1.68 0.625,-0.121 0.872,-0.621 1.118,-1.117 -0.778,-1.191 -1.934,-3.07 -2.793,-1.117 -1.313,-2.805 -0.11,-4.989 -3.356,-6.149 -0.711,-4.316 -0.531,-9.523 -3.351,-11.734 0.808,-2.477 0.543,-4.301 -1.676,-5.027 1.25,-0.243 0.226,-2.754 0.558,-3.911 -1.347,-0.519 -2.089,-1.636 -2.793,-2.796 -1,0 -3.25,1.507 -3.91,0 2.817,-0.848 3.957,-0.004 5.586,-1.676 0.715,-3.844 -2.519,-5.34 0,-6.703 0.121,0.433 0.469,0.648 1.117,0.558 1.403,5.891 7.528,14.254 7.262,21.789 2.477,2.676 0.215,6.856 2.797,8.942 0.227,1.347 -1.023,1.215 -0.563,2.793 0.801,0.136 0.946,0.922 1.676,1.117 1.27,-0.832 -1.328,-4.254 0,-5.027 1.727,2.351 1.164,5.898 1.121,7.824 1.461,-1.278 1.903,-0.11 3.352,-1.117 -0.152,-1.153 -2.477,-0.137 -2.234,-1.68 0.835,-0.094 2.062,0.199 2.234,-0.559 -0.953,-0.226 0.117,-0.718 0,-1.675 h -1.676 c 0.063,-1.391 1.047,-1.731 0,-2.793 2.199,-0.895 0.195,2.414 1.676,2.234 0.195,-1.668 1.687,-2.035 2.793,-2.793 0.344,-1.871 -3.578,-2.332 -1.676,-3.914 1.184,0.844 1.84,4.398 3.352,1.68 -0.137,1.722 -0.567,3.156 -1.118,4.468 1.102,-0.168 1.11,0.754 1.676,1.118 0.539,-0.954 1.758,-1.227 2.797,-1.676 0.594,1.082 1.891,1.461 2.793,2.234 -2.672,0.496 -4.453,-0.254 -5.59,0.559 0.321,3.051 5.055,-0.11 5.024,2.23 z m 10.617,-5.019 c 0.097,2.578 1.285,-1.582 2.793,-1.122 0.406,1.711 -0.965,1.645 -0.559,3.356 -1.637,-0.504 -1.719,-0.504 -3.351,0 -0.153,-1.274 0.14,-2.102 1.121,-2.231 z m 66.496,-16.211 c -0.317,4.644 -2.703,7.941 -3.91,10.613 -0.868,1.93 -0.52,4.754 -2.793,5.59 2.121,-5.524 4.132,-11.149 6.703,-16.211 z m -70.41,11.175 c -0.809,-0.867 -1.856,-1.496 -2.235,-2.793 1.524,0.407 1.125,-1.109 2.235,-1.117 0.203,1.465 0.488,3.27 0.558,6.149 h -2.793 c -0.41,-1.903 2.063,-0.922 2.231,-2.235 z m 4.472,0 c 0.09,0.657 -0.093,1.586 0.559,1.676 0.965,-1.269 2.312,-2.156 2.234,-4.469 3,0.653 3.133,-1.562 2.235,-3.351 0.996,0.332 2.32,-1.641 2.797,0 -1.879,2.219 -3.61,4.586 -4.473,7.82 -1.707,-0.402 -2.035,0.57 -3.352,0.559 -0.75,-0.059 -0.75,-4.02 0.012,-2.239 z m -25.703,-6.144 c -0.031,0.961 0.43,1.433 1.117,1.68 0.774,-0.344 0.082,-2.153 1.118,-2.239 0.238,1.067 1.597,1.012 1.117,2.797 -1.461,-0.156 -2.797,-0.191 -2.235,1.676 0.52,-0.344 2.063,-1.301 1.676,0.559 -0.387,1.394 -1.492,-1.036 -2.793,-0.559 1.61,-1.43 -1.73,-4.473 -0.012,-3.922 z m 4.473,-1.121 c -0.172,0.679 1.613,1.929 1.676,0.562 -0.696,-1.539 -2.856,-1.617 -3.914,-2.797 1.492,-2.437 -1.395,-3.812 0,-5.586 1.164,1.633 1.058,6.879 3.914,5.028 -0.036,2.086 0.562,3.535 1.117,5.031 -2.496,-1.148 -1.781,3.746 -3.352,1.676 2.051,-0.692 -1.351,-3.363 0.559,-3.914 z m 27.387,-4.473 c 0.812,0.309 2.886,-0.652 2.793,0.563 -2.247,-0.2 0.289,4.386 -2.793,3.351 -0.43,-1.254 2.578,-1.781 0.558,-2.793 -0.805,-0.301 -1.363,2.176 -1.68,0.559 0.782,-0.153 0.641,-1.231 1.122,-1.684 z m -34.653,1.121 c -0.125,0.434 -0.015,1.102 -0.558,1.117 1.351,-2.886 0.504,-3.832 -0.559,-6.703 1.961,0.328 1.836,-2.644 3.352,-1.117 -1.204,2.078 -0.661,1.031 0.558,2.793 -0.812,0.305 -2.887,-0.652 -2.793,0.559 1.067,0.238 1.012,1.597 2.793,1.117 -0.375,1.484 -0.879,2.847 -1.676,3.91 0.039,-0.969 -0.418,-1.437 -1.109,-1.68 z m 96.668,-7.261 c 0.235,2.308 -0.453,6.593 -2.234,5.027 1.238,-1.18 0.238,-4.594 2.23,-5.024 z m -99.461,-2.243 c 1.364,-2.398 0.539,-1.836 -0.558,-3.91 0.769,0.024 1.23,-0.265 1.679,-0.558 0.422,1.449 1.727,3.695 0.555,5.027 0.438,0.125 1.106,0.016 1.121,0.558 -1.793,0.481 -1.734,-0.878 -2.805,-1.121 z m 15.653,-6.703 c -1.407,-0.832 -3.079,-1.394 -3.914,-2.797 2.976,-1.445 4.335,1.95 6.148,3.356 -1.637,1.508 -0.481,2.168 0,3.91 -1.109,0.008 -0.711,1.523 -2.234,1.117 1.929,-4.082 -2.321,-3.672 0,-5.594 z m 10.054,-2.793 c -0.156,-1.461 0.203,-2.402 1.676,-2.234 0.098,0.836 -0.199,2.062 0.559,2.234 0.98,-2.726 0.656,-0.051 2.793,-1.117 0.511,1.43 0.906,3.168 -0.559,3.91 -1.551,-0.836 0.973,-2.285 -0.559,-2.793 -1.488,0.719 -0.41,3.137 -1.117,3.352 -1.199,-0.828 -0.879,-3.199 -2.781,-3.352 z m -27.386,1.68 c -0.125,-0.434 -0.016,-1.102 -0.559,-1.117 -0.106,0.828 -1.352,0.511 -2.234,0.558 0.168,-1.097 -0.754,-1.105 -1.118,-1.675 0.661,-0.27 1.266,-0.594 1.676,-1.118 -0.972,0.043 -1.738,-0.125 -2.234,-0.558 0.355,2.406 -2.07,2.027 -3.914,2.234 0.726,0.742 0.738,2.078 -0.559,2.235 -1.109,-2.106 0.653,-4.336 0.559,-5.586 -0.02,-0.266 -1.262,0.132 -1.117,-0.559 0.082,-0.391 2.949,-1.387 1.117,-2.234 3.676,-0.735 6.722,1.109 10.617,1.675 -0.34,0.032 -0.66,0.082 -0.559,0.559 -0.031,0.34 -0.082,0.66 -0.558,0.559 -0.473,-1.317 -2.883,0.035 -3.352,0.558 1.93,-0.039 3.969,2.692 2.238,4.465 z M 56.434,57.148 C 48.242,47.645 40.773,37.422 32.965,27.535 c 9.394,7.582 18.242,22.133 23.469,29.617 z m 69.289,-8.945 c 0.839,1.563 2.41,1 3.351,0 -0.074,1.942 2.832,0.895 2.797,2.793 -3.086,0.664 -3.062,-1.777 -6.148,-1.117 0.218,-0.957 -0.832,-1.43 0,-1.668 z m 8.933,1.121 c 0.946,-1.894 2.266,-1.254 0,-2.793 1.582,0.461 1.449,-0.789 2.797,-0.558 -0.641,1.757 0.875,1.355 1.117,2.234 -1.004,-0.074 -1.308,0.555 -1.117,1.676 -1.344,0.219 -1.211,-1.031 -2.793,-0.559 z m 30.731,-6.703 c 0.508,2.027 1.648,0.34 3.351,0.559 0.168,1.097 -0.754,1.109 -1.117,1.675 0.031,0.715 0.715,0.774 0.559,1.676 -1.871,-0.027 -3.981,-2.699 -2.789,-3.922 z m -39.664,-5.594 c 1.836,0.875 2.465,0.828 3.91,1.118 0.137,2.964 -2.074,0.121 -3.352,1.675 0.461,-1.59 -0.789,-1.449 -0.558,-2.8 z m 45.257,-4.472 c 0.946,0.543 1.434,1.543 1.118,3.351 -2.414,-0.008 -3.684,-1.156 -5.59,-1.676 1.715,-0.546 -0.641,-1.488 -0.559,-2.234 1.668,0.149 3.403,-1.562 3.914,0.559 -1.453,-0.332 -2.011,0.226 -1.679,1.679 1.058,-0.25 3.367,0.758 2.793,-1.121 -0.309,-0.008 -0.641,-0.457 0,-0.57 z M 130.746,22.5 c 1.098,-0.168 1.106,0.754 1.676,1.117 0.359,2.223 -1.481,2.246 -1.117,4.469 h -1.68 c 0.102,-2.871 2.332,-2.719 1.133,-5.594 z" />
        <path
           inkscape:connector-curvature="0"
           id="path1460"
           style="fill:#000000;fill-opacity:1;fill-rule:evenodd;stroke:none"
           d="m 145.836,244.883 c 0.102,0.476 -0.219,0.527 -0.559,0.558 1.973,1.957 -0.089,-1.636 1.118,-1.675 -0.364,-0.567 -1.286,-0.578 -1.118,-1.676 -0.812,1.051 -3.656,0.07 -4.468,1.117 1.488,3.023 3.062,-0.527 5.031,1.676 z" />
      </g>
    </g>
  </g>
</svg>
