<?xml version="1.0" encoding="UTF-8" standalone="no"?>
<svg
   xmlns:dc="http://purl.org/dc/elements/1.1/"
   xmlns:cc="http://creativecommons.org/ns#"
   xmlns:rdf="http://www.w3.org/1999/02/22-rdf-syntax-ns#"
   xmlns:svg="http://www.w3.org/2000/svg"
   xmlns="http://www.w3.org/2000/svg"
   xmlns:sodipodi="http://sodipodi.sourceforge.net/DTD/sodipodi-0.dtd"
   xmlns:inkscape="http://www.inkscape.org/namespaces/inkscape"
   sodipodi:docname="bee.svg"
   inkscape:version="1.0 (4035a4f, 2020-05-01)"
   id="svg3057"
   version="1.1"
   viewBox="0 0 210 297"
   height="297mm"
   width="210mm">
  <defs
     id="defs3051" />
  <sodipodi:namedview
     inkscape:document-rotation="0"
     inkscape:window-maximized="0"
     inkscape:window-y="241"
     inkscape:window-x="1602"
     inkscape:window-height="1429"
     inkscape:window-width="1079"
     showgrid="false"
     inkscape:current-layer="layer1"
     inkscape:document-units="mm"
     inkscape:cy="1115.6579"
     inkscape:cx="615.80392"
     inkscape:zoom="0.49497475"
     inkscape:pageshadow="2"
     inkscape:pageopacity="0.0"
     borderopacity="1.0"
     bordercolor="#666666"
     pagecolor="#ffffff"
     id="base" />
  <metadata
     id="metadata3054">
    <rdf:RDF>
      <cc:Work
         rdf:about="">
        <dc:format>image/svg+xml</dc:format>
        <dc:type
           rdf:resource="http://purl.org/dc/dcmitype/StillImage" />
        <dc:title />
      </cc:Work>
    </rdf:RDF>
  </metadata>
  <g
     id="layer1"
     inkscape:groupmode="layer"
     inkscape:label="Layer 1">
    <path
       d="m 138.93392,74.066993 c -4.10074,2.61483 -6.11168,8.391227 -8.59027,12.174404 -3.16149,2.981742 -2.91222,8.935727 -4.03879,12.198373 -3.8819,-0.0343 -5.62964,11.53909 -8.03178,3.52511 -1.76592,-2.264456 3.31334,-10.331429 -3.57633,-11.335453 -5.3879,0.06696 2.99757,-5.9012 5.87982,-4.497035 1.51383,0.301821 6.42676,3.137427 3.83969,-0.83187 -6.2986,-3.569886 -11.44683,2.795064 -15.81273,4.159785 -1.78809,-1.372721 -2.11756,-1.742852 -3.65829,0.985013 -1.95287,-2.175479 -5.721129,-6.026417 -10.25219,-6.533781 -3.216859,-1.681616 -12.94428,3.773212 -5.656639,2.422759 3.798483,-2.001397 12.283289,1.050102 11.423719,3.671962 -7.561607,-0.728465 -6.328475,10.61334 -4.016294,12.30746 -1.744788,2.63961 -5.001511,1.44218 -6.136855,-2.05851 -3.564096,0.7866 -5.196481,-6.61921 -4.96053,-10.31362 -2.697852,-1.000787 -0.759849,-5.846831 -3.528447,-6.524169 -1.145269,-2.915065 -3.45076,-8.98054 -6.142724,-8.937217 2.614001,3.022611 -3.417587,2.151748 -0.30464,4.13176 4.270133,-0.0031 6.379309,5.918653 4.692416,7.754 -0.523624,3.525349 0.438167,9.522155 2.538305,11.299376 1.693049,2.60708 2.104628,5.81137 4.83292,8.24959 -9.2401,-4.03769 -16.777207,-11.628366 -26.3767,-15.187538 -5.630532,-1.246309 -10.469574,-5.02953 -16.495451,-4.245976 -7.920644,-1.058628 -6.520507,8.50513 -3.573258,12.866881 4.515496,6.121773 7.149251,14.614663 14.710387,17.721863 5.811309,0.99492 11.854951,-1.73084 17.115209,2.0863 6.599082,2.29832 -7.913051,2.00722 -9.58517,6.01035 -5.452278,6.21791 3.140378,14.0087 9.954551,11.02874 3.010875,-0.0213 -2.741125,3.61311 0.225834,4.1064 -0.828741,2.61377 -0.140265,7.60357 -4.860189,8.90151 -2.582538,3.33204 -0.08637,3.0905 2.177759,2.60487 1.391061,5.84576 0.957125,-3.38273 2.471914,-5.14189 2.118191,-4.16013 5.884072,-2.5259 6.420247,-8.11674 -0.15454,-5.08889 8.927377,-2.06169 9.430309,-8.4255 1.614478,-3.33119 4.500986,-6.91196 5.850348,-3.23626 -0.322219,1.41632 4.179375,4.92872 0.246781,6.42995 -0.762229,1.39303 -0.123357,3.28544 -2.549586,4.17977 -0.04054,1.73408 -5.298535,-0.78383 -5.535638,3.65923 -2.031403,3.03603 -6.914906,5.20628 -6.959116,9.5042 -1.013154,3.03189 3.28247,6.11603 -0.736356,8.47327 -2.066775,2.56931 -0.307791,3.94531 -2.477257,6.26641 0.901904,3.27178 -1.445654,6.97822 1.678599,9.28575 1.619856,3.71371 1.303143,9.44369 1.794796,12.75022 2.966465,2.09435 0.238952,-5.10513 3.636555,-1.50875 5.950745,-1.37536 -7.492159,-6.57902 -2.030819,-9.2093 1.632428,-1.82356 2.442625,-5.90312 3.744636,-7.98425 2.352509,-2.0623 -1.473383,-9.12862 -0.643431,-9.83133 3.732432,-1.4103 2.346879,-7.77764 3.355127,-12.22705 4.390157,-3.30059 1.644495,5.37893 2.357356,8.65367 -2.11978,5.50345 5.664343,10.89241 7.756702,6.28825 0.886968,-1.71889 0.742706,-6.3182 -3.366509,-6.05626 3.474668,-1.18416 3.674686,-2.46987 2.709033,-5.15126 1.898771,-0.003 1.034385,-4.83588 2.669856,-1.17047 2.73665,-2.83844 0.57512,0.14558 2.08181,1.60422 -0.83348,3.09052 0.59146,6.706 5.08105,5.91949 -3.72525,-0.33955 -6.79242,1.36884 -4.86443,3.5993 -0.30779,6.88241 8.06294,2.67482 12.50826,2.93478 2.60481,-1.69815 6.7601,-2.00936 3.24028,0.39824 -4.86507,2.08665 -10.72518,2.53776 -15.71552,0.97964 -1.55164,2.42283 3.48858,5.72309 -0.39106,5.15324 0.40665,5.78484 10.41055,3.91727 14.69063,1.52018 4.97816,-3.30834 3.70925,-11.76085 4.75145,-17.34805 -0.50411,-2.07427 -2.41272,-3.29576 0.24152,-3.60597 -0.67913,-3.7293 -0.43787,-3.13225 1.79692,-4.49634 1.18261,-4.94322 0.92204,5.00411 0.80291,7.36876 0.20628,3.66159 4.02804,2.80903 3.92542,7.32422 -2.8902,5.27801 -0.84522,8.77342 0.59518,13.8862 1.73724,4.45241 2.9994,8.64093 -0.84585,12.02786 -1.38815,3.78383 0.75585,3.28144 1.98632,0.55614 1.47728,-0.51537 1.71715,6.53526 2.69851,1.51949 -1.19925,-3.58956 -0.97232,-7.94877 1.40695,-9.44976 -0.2827,-3.90087 2.37028,-7.04641 1.42018,-10.17759 3.44726,-3.3763 -4.70095,-9.23597 -2.94558,-13.02889 2.83193,-1.69177 -3.29963,-7.38491 -2.71323,-10.82761 -2.6934,-2.49508 -5.45222,-4.84747 -6.6678,-7.53959 -1.96917,-2.15048 -4.42175,3.77385 -4.42906,-0.91902 -2.43698,-1.7074 -0.64807,-4.28039 -2.75748,-6.50585 1.5514,-2.43656 1.78127,-2.85908 3.96959,-5.99638 3.93788,5.55461 8.77892,11.71151 13.44673,15.56497 0.66398,4.94848 6.59929,5.23512 6.08184,11.31781 -2.01126,4.07331 1.52627,6.03427 1.38063,0.60782 4.787,3.9417 1.43973,-2.87432 -0.67112,-3.70419 -1.86239,-3.70632 -0.53257,-6.84463 -0.37039,-9.17914 4.32702,-1.64824 11.13131,-2.53297 11.87546,-7.87682 0.53391,-6.84784 -7.92768,-10.17878 -12.7575,-10.42857 -0.005,-1.40732 7.07249,-0.88748 8.21884,-4.29293 3.04303,1.19528 10.26986,4.45966 14.28297,-0.6191 3.61574,-4.22346 5.92984,-9.46599 8.9524,-14.08418 4.92463,-6.070886 1.30629,-16.051969 -7.42877,-12.799782 -6.39366,1.26439 -12.38326,4.218977 -18.08023,7.251331 -6.19093,4.581101 -13.41583,7.251751 -19.91626,11.306861 -6.97136,3.96723 0.61545,-2.44338 2.67412,-3.37768 1.73235,-4.926612 5.21425,-8.384018 5.86861,-13.594127 0.33793,-4.445583 -1.5569,-9.654208 4.39396,-11.473424 2.22547,1.007337 3.40044,-1.761592 0.50978,-1.593954 -1.04185,-1.096625 2.76544,-2.731796 0.0551,-3.094602 z M 47.581729,88.060077 c 3.299891,1.718091 5.999538,3.304269 8.380542,3.093819 7.036706,2.200669 13.160209,6.080138 19.032482,10.506054 4.676648,4.38257 9.979252,7.69713 16.220748,9.24564 -0.31131,4.39361 -7.501234,-2.18515 -11.088235,-1.26614 -3.301898,0.18 -7.165926,-1.94303 -8.36712,-2.33822 -4.430579,2.73556 -10.11355,-0.89213 -11.641252,-5.53553 -3.239767,-4.164832 0.638747,4.99784 2.891792,5.55628 4.12617,2.30974 1.186549,6.38635 -1.671082,1.83476 -1.628993,-1.90307 -8.204318,-5.2001 -3.220271,-1.55889 2.190821,2.36457 11.544062,7.82265 3.60657,7.77034 -6.026331,1.87979 -11.216325,-2.57751 -13.898347,-7.59806 -2.401627,-5.60393 -11.023766,-12.691834 -6.332458,-18.552837 1.482447,-1.324485 5.511191,0.554567 6.086631,-1.157216 z m -2.332833,1.362353 c -1.234112,0.912517 1.569686,0.534228 0,0 z m -3.0613,0.10692 c -1.362796,1.943165 1.763709,0.320132 0,0 z m 125.350924,0.39859 c 6.43036,-0.154306 4.53017,9.380667 1.30746,10.57542 -0.66849,4.96343 -4.78706,9.98882 -7.98029,14.07644 -4.24869,4.61907 -16.68224,0.97283 -8.88416,-4.81601 2.6243,-1.75575 9.36338,-7.0927 2.70011,-3.30857 -4.52642,2.43261 -9.05742,12.57182 -13.03598,10.38125 -2.54336,-5.421 1.22248,-8.12679 5.89783,-8.80299 4.68758,-0.46126 6.4532,-7.81084 9.70707,-5.25261 -1.82235,-4.601835 -9.64042,0.91208 -5.38411,-5.164734 4.26814,-0.796112 6.1339,-2.668071 12.35013,-3.374358 3.1952,-0.09947 7.30305,-1.429067 1.95639,-1.669193 -2.82101,-0.370282 -6.02198,2.291226 -10.35454,2.431134 -3.34473,0.168935 -7.38911,3.174344 -6.02142,5.896771 -3.62039,0.23574 1.13909,0.31619 -2.38525,0.76469 0.53868,-3.657566 -4.19737,2.89679 -3.00645,-1.884348 2.56509,-4.679473 9.17835,-5.288781 13.6809,-7.787785 3.1228,-1.639639 6.33526,-1.227658 9.45231,-2.065107 z m -117.869728,0.1068 c -0.784563,1.906581 1.445561,0.496295 0,0 z m 118.290378,0.81359 c -1.51324,1.295719 1.20637,0.945901 0,0 z m -122.077553,0 c -0.94541,1.556333 1.564773,0.79177 0,0 z m 7.055367,0.85627 c -1.245714,1.831849 1.537303,0.926895 0,0 z m -6.46747,0.35588 c -2.130085,1.565205 1.876217,0.591135 0,0 z m -5.643105,0 c -1.595361,0.38803 1.11146,1.136643 0,0 z m 9.511389,0.10681 c -1.05754,0.961458 1.187049,0.694991 0,0 z m 49.246993,0 c 1.066369,0.02504 0.06887,1.496113 0,0 z m -56.579384,0.17082 c 0.08948,2.109765 1.2034,-0.665801 0,0 z m 12.284382,0.17805 c 1.330024,-2.224732 0.579267,-1.049836 0,0 z m 59.710981,0 c 0.996,0.554192 -0.69621,1.374735 0,0 z m 55.79557,0 c -1.49199,-0.211222 0.15948,1.689509 0,0 z m -57.23253,0.17805 c -0.67099,2.318801 -1.33161,1.146576 0,0 z m 47.49916,0.17804 c -1.19102,0.66801 1.1547,1.267851 0,0 z m -60.69391,0.5125 c 1.30072,-0.19165 0.12965,1.971125 0,0 z m 13.87824,0.40571 c 1.3586,2.062671 -2.21795,1.367714 0,0 z m -62.74682,0.11389 c -1.192717,2.848428 1.512096,5.462556 0.787469,1.20355 2.630449,-0.04166 11.950497,4.149203 5.838857,0.409666 C 56.124631,93.77326 53.179634,95.171692 51.50048,93.90435 Z m 4.962662,0 c -0.569241,1.401426 0.914833,0.728145 0,0 z m 41.550369,0 c 1.153926,0.372938 -0.44822,1.404709 0,0 z m -50.565949,0.17804 c -0.58336,1.753508 1.397152,0.501886 0,0 z m 11.8924,0.17082 c 0.399097,3.145774 1.940275,0.04573 0,0 z m 110.151458,0 c -0.41327,1.924504 1.5728,-0.398336 0,0 z m -3.21285,0.22071 c -0.82754,0.917707 1.36812,0.309292 0,0 z m -49.57769,0.12832 c 0.60595,1.79307 -1.41083,0.0354 0,0 z m -73.009696,0 c -1.642569,0.684884 1.984289,1.460639 0,0 z m -0.976981,0.28471 c -1.904487,1.746006 1.587529,0.521737 0,0 z m 119.194327,0.18446 c -1.19509,1.13876 1.6873,1.250507 0,0 z m 2.356,0 c -0.59996,1.667571 1.37287,-0.04811 0,0 z M 63.126527,95.24985 c -0.926779,1.407529 1.864754,0.548936 0,0 z M 167.138,95.42028 c -0.53961,1.41965 1.10759,0.799152 0,0 z m -51.47036,0.27047 c 2.50675,0.9236 -1.74428,2.100047 0,0 z m 43.63088,0.10626 c -0.21859,1.95414 1.642,-0.259771 0,0 z m -61.543119,0.17042 c 1.553919,-0.397592 0.01833,1.374762 0,0 z m 67.553809,0 c -0.61224,1.621897 1.18953,0.563052 0,0 z m -7.67711,0 c -1.81125,0.615194 1.93599,1.606256 0,0 z m -40.93122,0.84551 c 1.08657,-0.163302 -0.37813,1.459297 0,0 z m 45.86629,0 c -0.48782,3.53867 1.86929,0.181383 0,0 z m -96.975778,0.35594 c -1.304685,0.725922 1.462442,1.111086 0,0 z m 103.376158,0 c -1.13655,0.893551 1.10987,0.500678 0,0 z m -19.86086,0.15038 c -0.34596,1.811381 1.42408,-0.502685 0,0 z m -0.45465,0.13433 c -1.51649,2.004591 2.12015,0.813296 0,0 z m 12.0993,0.42005 c -1.6538,1.029434 1.97315,0.816548 0,0 z M 46.267652,98.00797 c -4.054206,2.22926 6.767017,2.81518 8.464947,2.22974 4.508678,-2.164821 10.97466,0.83641 14.893792,3.835 0.25716,3.10219 1.59506,-0.42015 2.386428,2.52731 -1.049732,-2.14731 -1.055307,-9.418482 -1.94127,-6.12466 0.04402,4.69148 -4.54489,-1.8411 -7.018986,-1.19882 -3.289102,-1.367019 -10.053131,-1.127144 -11.619087,-0.04786 -1.503608,0.466407 -3.968602,0.112751 -5.165824,-1.22071 z m 16.463234,0 c -1.821404,1.180428 2.015299,1.351872 0,0 z m 95.647524,0.17845 c 0.0976,2.21285 1.09419,-0.425714 0,0 z m -90.679372,0.34166 c 0.205631,2.04943 1.522216,-0.511681 0,0 z m 85.641382,0 c -1.67088,1.134145 1.50863,1.024167 0,0 z m -7.2685,0.10625 c -1.20776,1.43479 1.57292,1.02073 0,0 z M 44.04627,98.90481 c -0.230667,1.45702 1.755281,-0.0809 0,0 z m 108.0618,0.34165 c -0.80363,1.77172 1.68312,0.351548 0,0 z m -8.6239,0.17844 c -0.56292,7.41832 -4.81796,12.64316 -12.57099,11.80358 -2.83686,0.46707 -8.33041,0.9521 -7.65438,0.74472 3.11189,-2.98052 9.29251,-3.59275 9.51287,-6.53289 3.76331,-1.63799 7.27155,-3.80028 10.7125,-6.01541 z m 14.89744,0 c -1.13077,1.3003 1.15682,1.19411 0,0 z m -2.35494,0.69052 c -0.14544,1.99719 1.22442,-0.160558 0,0 z m 8.23406,0 c -0.83207,0.97144 1.60188,0.92307 0,0 z m -2.22398,0.17845 c -0.18666,1.90123 1.73885,-0.518277 0,0 z m -55.21545,0 c 4.34456,0.5066 10.09098,2.21599 11.34177,5.36161 2.41307,1.96605 3.16925,5.62726 -1.72168,4.55032 0.17836,4.86005 -2.10361,9.02148 2.10829,12.25882 -0.28321,2.03145 -0.57748,1.74227 -1.84011,1.31233 1.62862,4.75396 -2.87188,-2.01498 -1.17564,2.74686 2.39638,0.37497 -2.7224,3.0253 -2.22242,3.77189 -4.20628,-0.95147 2.05536,1.52824 -1.86643,0.74921 -1.14219,1.4651 -0.39312,-4.45383 -3.03778,-2.44395 -1.80097,-0.81886 -3.34937,3.74703 -2.65693,-0.63797 -0.32674,-0.3639 -2.29703,3.4505 -2.21496,-0.75828 -1.01983,1.6368 -2.31126,2.72419 0.13585,4.64159 -2.35564,2.89916 -0.59045,1.90678 -1.43636,-0.33866 -2.20106,1.09588 -4.801661,-3.58122 -3.141499,-5.67376 -2.838585,3.65703 0.389739,-1.04276 -1.186625,-1.25104 -1.739906,4.79451 -1.872211,-0.18912 -2.68253,-1.1171 -1.398308,0.001 4.723058,-4.10405 2.550215,-6.91751 2.873819,-1.54027 1.693368,-4.28782 -0.31089,-0.59669 0.528726,-2.2933 -1.241379,-7.68208 -3.25869,-8.74407 2.270908,-3.51356 4.455608,-4.95682 8.776889,-6.58172 1.24439,-0.27806 2.66109,-0.41844 3.83953,-0.33188 z m -4.89011,28.81825 c 0.49605,-4.86981 -2.416891,-0.56288 0,0 z m 65.59544,-28.52428 c -1.4796,0.0179 0.46909,1.23443 0,0 z m -1.17671,0 c -1.13088,0.9002 1.10856,0.49526 0,0 z m -111.851413,0.15639 c -0.653664,2.11005 2.145456,-0.24453 0,0 z m -8.099431,0.1644 c -1.393413,-0.16859 0.197117,1.32701 0,0 z m 57.884324,0.51249 c -1.12673,2.73939 2.72967,0.97573 0,0 z m -46.50176,0.3202 c -1.806081,0.65625 1.372412,1.84963 0,0 z m -11.642819,0.18446 c -0.728945,1.85113 1.386376,0.56007 0,0 z m 17.507909,0 c -0.03933,2.19635 1.556755,-0.37447 0,0 z m 9.147156,0 c -0.119045,1.78079 1.707016,-0.44817 0,0 z m 34.161734,0 c -1.36154,3.24331 2.14273,1.25421 0,0 z m 46.32855,0 c -1.90202,3.77212 -6.92564,5.56768 -11.5186,6.50813 -0.41932,-0.29226 1.9715,-3.84579 1.71753,-5.98624 3.28046,0.17437 6.53368,-0.68424 9.80107,-0.52189 z M 62.585284,102.175 c -1.505592,1.10783 1.500986,0.68759 0,0 z m 12.732471,0.11428 c -1.785007,0.51145 1.252163,1.00668 0,0 z m 66.729445,0 c -1.13918,0.8916 1.11028,0.50272 0,0 z m -89.567147,0 c -0.99353,1.64458 4.407834,2.3047 -4.58e-4,0.007 z m -4.053375,0.12832 c -1.226934,0.92727 1.590281,0.64032 0,0 z m 118.757982,0.22778 c -1.73992,0.39836 1.11734,1.50973 0,0 z m -11.81069,0.12831 c -0.58466,3.44377 1.25233,-0.8292 0,0 z m -40.69962,0.15038 c -4.3197,0.53259 1.11688,2.37826 0,0 z m 48.60833,0.19849 c -1.2821,0.21144 0.77649,0.97188 0,0 z m -59.91452,0 c -2.28505,0.29496 1.02851,3.13324 0,0 z m -54.521447,0.17043 c -0.853898,1.11084 1.022666,0.66536 0,0 z m 17.152213,0 c -1.864661,-0.23653 0.752491,2.04585 0,0 z m 33.451085,0 c -0.279665,2.4667 3.438769,0.40672 0,0 z m 58.667989,0.17844 c -0.17595,2.18171 1.69251,-0.22117 0,0 z m -9.88919,0 c -1.65462,0.45231 1.07949,1.16675 0,0 z m -38.71899,0.15639 c -0.99166,1.88141 1.59515,0.25378 0,0 z m 29.27148,0 c -0.34385,2.11991 1.87607,-0.20664 0,0 z m -92.251259,0.16442 c -0.632191,1.86883 1.580998,0.72386 0,0 z m 100.807929,0.17844 c -1.6037,0.46214 1.94667,1.66732 0,0 z m -69.709642,0.15639 c -1.616857,0.49141 0.723259,1.73801 0,0 z m 59.974132,0 c -1.37164,1.68356 2.17513,1.53853 0,0 z m 7.97426,0 c -1.34054,1.65966 1.96145,1.05196 0,0 z m -30.68633,0.29173 c -4.61598,1.73624 3.52971,1.19814 0,0 z m -55.293833,0 c -1.584673,-0.36 0.119293,1.86575 0,0 z m -7.971668,0 c -0.60383,1.77457 1.250193,0.35162 0,0 z m 13.853376,0 c -0.421711,1.97246 1.81133,-0.10129 0,0 z m 70.037585,0 c -2.39428,2.62514 1.64171,1.15779 0,0 z m -37.570489,0.36311 c -1.487504,2.28724 2.717919,0.70136 0,0 z m 41.486499,0.14836 c -1.12074,3.60663 2.09241,0.56689 0,0 z m -71.340383,0.16442 c -1.61329,-0.2316 0.138901,1.76229 0,0 z m 4.702409,0.17844 c -0.699692,1.72137 1.677043,0.38312 0,0 z m 1.436961,0 c -0.154253,2.25556 1.979607,-0.62593 0,0 z m 79.969163,0 c -1.29376,1.37394 1.05815,1.48179 0,0 z m 10.06072,0 c 0.24166,2.02519 1.13989,-0.64247 0,0 z m -87.957456,0.15639 c -2.16197,0.96618 1.666548,0.90749 0,0 z m 39.494726,0.31319 c -3.62851,0.97062 2.94278,1.69297 0,0 z m -62.08056,0 c -0.846646,0.95408 1.645379,0.90753 0,0 z m 43.055021,0.11428 c -1.604502,2.27319 3.716249,1.07211 0,0 z m -45.931841,0.10625 c -1.161773,-0.41337 -0.01795,2.21419 0,0 z m 28.179235,0.15639 c -1.128884,1.46675 1.27891,0.50193 0,0 z m -18.957829,0 c -1.044089,0.57828 0.978322,1.199 0,0 z m 74.406564,0 c -3.16176,2.04058 -0.0531,2.3034 0,0 z m 24.89595,0.15639 c -1.14644,0.43152 0.58246,1.43309 0,0 z m -91.757437,0.20651 c -1.617758,1.18842 1.581837,0.49363 0,0 z m 10.413664,0.15038 c -1.969095,0.9006 1.712138,1.81825 0,0 z m 86.760623,0 c 0.15599,1.8847 1.23838,-0.38058 0,0 z m -12.7741,0.15639 c -1.76471,0.59699 2.06726,1.69485 0,0 z m 10.81373,0 c -0.58663,1.53173 1.52909,0.65792 0,0 z m -66.612509,0.61915 c -1.672772,1.89509 3.062372,1.01894 0,0 z m -15.70672,0.10626 c -1.424225,-0.20035 0.532451,2.06697 0,0 z m 35.733629,0 c -2.54469,2.48873 6.12404,0.59002 -0.004,0.015 z m 14.78812,0.12831 c -2.51266,2.72287 1.21801,1.81748 0,0 z m 5.31287,0 c -1.86476,0.52949 1.61114,1.49551 0,0 z m 11.58991,0.32742 c -1.24038,2.63772 0.72935,6.43915 0.63693,1.43832 0.79166,-0.76914 -0.002,-1.44 -0.63693,-1.43832 z m -9.14716,0.1644 c -1.54824,-0.14501 0.25344,1.79925 0,0 z m -38.15351,0.17845 c -0.57917,2.66727 1.82674,-0.0559 0,0 z m -17.900339,0.16442 c -0.157636,2.22308 1.351375,-0.22168 0,0 z m 48.572659,0.17042 c -0.84166,1.06366 0.99086,0.67486 0,0 z m 1.0802,0 c -0.21113,1.68665 1.67873,-0.17971 0,0 z m -3.79192,0.16441 c -2.2583,1.56982 1.8913,3.43389 0,0 z m 34.56546,0.17043 c -1.27395,0.24647 0.80241,0.9534 0,0 z m -111.787075,0 c -0.992314,1.50901 1.784724,0.21541 0,0 z m 104.885545,0 c -1.7648,0.68453 1.17022,1.4479 0,0 z m -83.976955,0.15641 c -0.09191,2.70015 -1.108304,8.01387 2.609401,5.84318 4.47039,2.02363 13.195557,0.37293 15.049991,0.54591 -3.721259,1.71408 -9.298825,2.35696 -12.309016,2.89415 -4.136588,-0.90693 -10.255797,-2.0911 -11.933175,-6.50006 -1.268105,-3.51876 4.63762,-2.4044 6.582799,-2.78318 z m 87.937325,0 c 0.24026,2.02298 1.14301,-0.64061 0,0 z m -74.678249,0.17844 c -1.915612,0.69713 2.006567,1.10597 0,0 z m -32.369673,0 c -0.993831,1.00882 1.448838,0.59185 0,0 z m 3.428888,0.15639 c -0.597424,1.81833 1.360372,-0.138 0,0 z m 16.726232,0 c 3.607765,-0.005 9.908118,2.15461 11.6897,2.10799 -1.247796,-1.28165 9.488719,2.81823 2.25533,2.75237 -3.696397,0.0902 -12.710775,1.5472 -13.162896,-2.29155 -0.73688,-0.83114 -0.950305,-1.23958 -0.782134,-2.56881 z m 56.052792,0.17043 c -1.22186,2.20124 1.89107,1.00865 0,0 z m -29.11186,0.20651 c -1.954318,2.01894 2.2148,1.9967 0,0 z m -45.973011,0 c -0.389793,1.85827 -0.107041,0.0454 0,0 z m 14.188947,0.13434 c -2.230304,0.9116 1.382109,1.33107 0,0 z m 20.782505,0.14236 c -1.164208,0.045 -0.06562,1.40621 0,0 z m 37.705419,0.10625 c -3.01155,0.275 1.37719,1.61669 -0.001,0 z m -39.404919,0.10626 c 0.213098,2.14495 0.972485,-0.34402 0,0 z m -28.381099,0.49825 c -2.114087,1.57433 1.893729,0.74459 0,0 z m 30.996439,0 c -1.69185,0.0954 0.520963,1.39736 0,0 z m 49.521439,0 c 1.61545,4.80571 -3.808,-0.14793 -4.43552,2.01542 -2.42448,0.6213 -10.37296,1.47032 -11.60364,0.62307 5.14012,-1.68838 10.82876,-1.28274 16.03916,-2.63849 z m 13.06636,0 c 0.0571,1.94367 1.24495,-0.53322 0,0 z m 4.18115,0 c -1.4424,-0.1456 0.44004,2.02331 0,0 z m -11.23362,0.1644 c -1.23819,0.36199 1.12957,1.47188 0,0 z m -73.623508,0 c -0.866169,0.83137 1.065589,0.58251 0,0 z m 87.926648,0 c -1.15896,0.90257 1.19902,1.00883 0,0 z m -16.20511,0.12832 c -1.43572,0.89432 1.78086,0.76125 0,0 z m -50.529819,0 c 3.241062,0.8763 0.678811,4.26329 -0.85153,1.05162 -0.08058,-0.51987 0.422185,-1.01228 0.85153,-1.05162 z m -24.008927,0 c -0.197634,2.24156 2.091929,-0.51274 0,0 z m 91.856076,0 c -1.18109,1.13201 1.66156,1.27024 0,0 z m -107.40621,0.16442 c -1.238207,0.36196 1.129552,1.47187 0,0 z m 22.034376,0.18446 c -2.169976,1.31626 2.05982,1.0737 0,0 z m -14.066062,0.15639 c -0.448617,2.13863 1.642316,-0.49017 0,0 z m 24.310947,0.28471 c -1.358634,2.67762 2.795661,1.11658 0,0 z m -7.855184,0.38436 c -1.684722,1.57064 1.459548,1.01733 0,0 z m -7.832012,0 c -1.560142,-0.13141 0.203839,1.79394 0,0 z m -10.813726,0 c -0.384317,2.2915 1.543391,1.84834 0,0 z m 7.943005,0.31318 c -0.826483,2.266 1.719708,0.23656 0,0 z m 85.621266,0 c -1.59493,1.40261 1.7299,0.26653 0,0 z m -71.978593,0 c -1.735372,0.99223 1.679985,1.37239 0,0 z m -25.535226,0.12831 c -1.604746,-0.17029 0.273887,1.833 0,0 z m 36.95469,0.24903 c 2.498544,0.22689 -1.342466,0.95629 0,0 z m -28.591193,0.10626 c -1.434813,0.0121 0.285559,1.37441 0,0 z m -1.915541,0.242 c -1.973924,0.60815 1.383843,1.65907 0,0 z m 94.597503,0.13433 c -1.65612,0.43892 1.07707,1.16138 0,0 z m -98.695246,0.15038 c -0.203391,2.15567 1.810252,-0.45803 0,0 z m 24.306072,0 c -0.595634,1.59679 1.489729,-0.20198 0,0 z m 72.647444,0 c -1.05924,1.33795 1.54879,1.0714 0,0 z m 3.92089,0 c -0.30823,2.29595 1.54948,-0.23519 0,0 z m -38.31801,0.15639 c 3.08387,0.0778 -1.39092,3.06635 2.36134,1.49976 -1.15921,3.53898 -7.9793,-0.74662 -2.36134,-1.49976 z m 15.68978,0.20652 c 3.64414,-1.01532 5.97503,2.23811 3.64091,3.63868 -4.85203,0.39 -14.33679,1.12523 -16.27065,-1.99306 2.22429,-0.92696 8.32573,-1.06367 12.62974,-1.64562 z m 8.25739,0.3202 c -1.4769,3.53404 1.99668,0.64799 0,0 z m -12.17004,0.66906 c -4.06843,1.95908 2.55776,0.49887 0,0 z m -2.38039,0.34186 c -1.11699,1.47355 1.28525,0.49072 0,0 z m -53.394606,0 c -1.036858,1.9351 1.75301,0.35166 0,0 z m 50.174126,0 c -0.7216,2.29756 1.56853,0.0121 0,0 z m -31.492859,0.85614 c 1.812748,3.8016 -3.624828,2.69721 -3.816003,6.03605 -2.908688,2.68309 -1.279814,3.10068 -1.437324,3.32389 -1.479773,6.63473 -6.988606,8.36315 -12.920699,8.67975 -5.402527,0.85659 -17.456183,0.4253 -13.203406,-7.95182 2.357002,-3.35125 12.68902,-5.57921 12.449873,-4.25475 -3.711463,2.89551 -2.935849,0.99388 -5.385837,5.33283 2.405894,-2.62299 5.992893,-3.23939 4.650123,0.36204 -3.211638,0.99303 -5.583969,8.05732 -1.769097,3.07988 1.706033,-3.42252 3.68435,0.55975 3.387175,-3.44612 5.032538,-0.68218 8.009169,-5.10594 13.024102,-6.79423 3.168237,-0.36744 2.263961,-3.56885 5.021093,-4.36752 z m 32.273779,0 c -0.30197,2.01798 1.82416,-0.39627 0,0 z m 9.5402,0 c -0.2599,2.42945 2.68924,-0.49741 0,0 z m -59.058285,0 c -1.728875,0.0201 0.473816,1.78876 0,0 z m 21.879626,0.85641 c -2.358461,1.65261 2.800089,0.60529 0,0 z m -10.38287,0.35589 c -3.088474,1.50606 -3.560638,0.45219 0,0 z m 2.35007,0.34165 c -0.968216,3.22866 -8.770735,3.75197 -8.62452,5.68218 -2.141788,3.52598 -10.526766,3.31843 -5.379957,-1.03334 3.348874,-3.69683 9.767641,-1.50452 14.003257,-4.63822 z m 26.470589,0.84571 c 2.35122,0.28657 -0.64677,1.25916 0,0 z m -16.40759,0 c -1.7063,0.0536 0.10075,2.27237 0,0 z m 18.16396,0.69032 c 4.33132,1.93266 13.40267,0.58876 15.01896,2.98019 2.92716,1.03046 1.99741,6.29117 -2.10708,3.41724 -4.09634,-2.38641 -9.55628,-3.03573 -12.91188,-6.39743 z m -16.72686,0.34166 c -2.64414,1.1904 1.39259,3.14351 0,0 z m 1.30602,0 c -1.67545,3.04132 1.72317,3.33062 0,0 z m 3.00441,0 c -3.18773,2.26718 1.2789,3.9391 0,0 z m 1.30829,0 c -1.93788,2.89944 1.77738,0.77837 0,0 z m -9.929289,0.51267 c -3.406311,2.1867 0.679167,2.7782 0,0 z m 14.634909,0.51249 c -0.57465,2.51177 1.86708,1.28143 0,0 z m 14.09579,0.33442 c -1.90851,1.10669 1.30521,1.20874 0,0 z m -27.688309,0 c -2.997781,1.99088 -0.593303,4.39722 0,0 z m 15.026279,0 c -1.29903,1.50384 2.2415,1.81326 0,0 z m 9.93142,0 c 0.063,1.49624 1.15626,-0.32238 0,0 z m 11.76372,0.34166 c 5.06872,0.60703 10.6754,1.27538 13.53983,5.49754 2.97769,9.0021 -11.10634,10.98326 -17.26611,9.04314 -5.22582,-3.04742 -7.73726,-9.3009 -12.08487,-13.51432 4.98106,0.79654 10.83721,2.9157 14.13619,6.49277 1.66478,2.73266 7.62016,3.09969 2.34715,0.92788 -0.0615,-5.53496 9.12787,5.91525 4.97408,-0.57523 -2.18738,-2.88047 -6.55816,-0.94316 -4.73865,-5.64844 -0.0469,-0.85868 -1.21768,-1.3223 -0.90762,-2.22334 z m 2.87347,9.10815 c 1.76978,1.2369 -0.3081,-2.27111 0,0 z m -8.8869,-8.93512 c -3.12599,1.23444 1.46061,1.23941 0,0 z m -40.844479,0.17844 c -1.128026,0.74354 1.052806,1.14566 0,0 z m 10.920759,0.16442 c -2.39633,0.84451 0.0277,4.09196 0,0 z m 11.013,0.22055 c -1.32612,1.3062 2.12653,2.03461 0,0 z m -14.900199,0.11428 c -2.33037,3.0238 1.400171,2.24677 0,0 z m 37.701469,0.34165 c -1.48192,1.0632 1.37692,1.20666 0,0 z m -12.38821,0 c 3.15145,4.42341 6.97599,6.48194 11.51761,8.82741 1.84717,1.92385 5.69428,4.10372 3.83537,1.04613 -3.01586,-1.00466 -6.58713,-4.25542 -10.14454,-5.84546 -1.39257,-2.1655 -2.85658,-2.41828 -5.20844,-4.02808 z m -41.469733,0 c -1.934636,0.20884 0.565745,1.78978 0,0 z m 20.569823,0.15038 c -1.20532,4.13028 3.84367,1.38036 0,0 z m 6.01116,0.17844 c 0.39829,3.83197 2.30784,-0.009 0,0 z m 2.31864,0.10626 c -0.71064,2.65806 2.22551,1.31965 0,0 z m -31.590133,0.10626 c -1.383555,1.58426 1.632141,1.127 0,0 z m 54.357403,0 c -0.35159,2.43409 1.82231,-0.39459 0,0 z m 6.52647,0.39858 c -1.76738,0.60934 1.28583,1.07112 0,0 z m 1.37811,0 c -1.46413,0.73489 1.36644,1.08679 0,0 z m -51.560929,0.10626 c -1.907404,1.10836 1.305523,1.20539 0,0 z m 42.553279,0.17844 c -1.32972,1.20256 1.55017,1.2082 0,0 z m 3.32232,0 c -0.4133,1.92451 1.57266,-0.39812 0,0 z m 8.20326,0.6763 c -1.4805,1.06376 1.37496,1.20374 0,0 z m 1.33572,0 c 0.1498,1.44383 1.10812,-0.30663 0,0 z m -57.960089,0.3202 c -1.209805,1.64887 1.359774,0.45842 0,0 z m -7.741456,0.27047 c -1.868748,0.71842 1.156597,1.50459 0,0 z m 65.049315,0.10626 c -0.74386,2.36001 2.1098,1.43245 0,0 z m -30.05026,0 c -0.27877,3.41326 2.70896,1.78245 0,0 z m -45.874528,0.10626 c -2.711638,1.65599 1.330475,1.37926 0,0 z m 0.666872,0.10625 c -0.938564,1.67381 2.159946,0.48084 0,0 z m 1.694623,0 c -0.1801,2.18044 1.704004,-0.22187 0,0 z m 15.681254,0 c -1.622047,-0.26039 0.217063,1.74435 0,0 z m 55.400399,0 c 0.30979,2.01018 1.4724,-0.51725 0,0 z m -5.75516,0.10626 c -1.26181,0.82486 1.51776,1.17399 0,0 z m -69.979046,0.10625 c -1.358482,1.04244 1.509474,1.19258 0,0 z m 46.337096,0 c -0.041,3.89915 2.53869,1.95596 0,0 z m -24.173889,0.69053 c -1.830179,0.49612 0.490895,1.84912 0,0 z m 22.341899,0 c -0.42937,2.97932 3.3144,1.83512 0,0 z m -39.721587,0.17844 c -0.02287,2.12505 1.795927,0.3721 0,0 z m 29.924328,0 c -1.923027,3.40904 1.958979,2.46526 0,0 z m 45.340149,0.17845 c -1.43894,-0.14603 0.4318,2.0241 0,0 z m -70.75478,0.22777 c -1.402568,1.08956 1.352383,0.68301 0,0 z m 74.80494,0.46275 c -1.53383,0.0261 0.45232,2.05596 0,0 z m -83.627351,0.16441 c -0.819018,1.54201 1.702269,0.64154 0,0 z m 22.344632,0 c -1.815757,0.50013 0.600807,2.59552 0,0 z m 44.166799,0 c -0.5107,1.26961 0.91472,1.02702 0,0 z m 14.242,0 c -0.18106,1.90375 1.73763,-0.51643 0,0 z m -11.89194,0.17042 c 1.78376,-0.27233 2.64592,2.82569 0,0 z m -51.613839,0.32745 c -3.522148,2.12278 3.972862,0.086 0,0 z m -18.160751,0 c -0.364307,2.06696 1.68367,-0.25937 0,0 z m 85.30262,0.10625 c -2.09593,0.93323 1.82051,1.53762 0,0 z m -82.812751,0.46977 c -2.315783,2.32596 1.837625,0.84866 0,0 z m 13.385165,0.13635 c -1.395273,0.90134 1.482351,1.29407 0,0 z m 67.620906,0.33443 c -0.6597,2.49519 1.59059,0.0406 0,0 z m -4.52327,0 c -1.33162,1.59295 3.018,0.2011 0,0 z m -58.719519,0.17043 c -1.268285,1.51555 1.752144,1.26927 0,0 z m -16.225696,0.82424 c -2.187572,2.67614 1.248133,1.735 0,0 z m 61.828535,0 c 0.0153,2.04474 1.33339,-0.43766 0,0 z m -59.845909,0.34165 c -2.468227,1.55357 2.230617,0.64548 0,0 z m -3.657734,0.17844 c -0.82784,2.12533 1.791364,0.15664 0,0 z m 16.594814,0 c -1.723724,-2.2e-4 0.504758,1.75402 0,0 z m -2.907012,0.16442 c -1.25906,1.88636 1.548835,0.34474 0,0 z m 48.767961,0.17844 c -1.55522,0.30752 0.25718,1.84647 0,0 z m 18.03497,0 c 0.19586,2.0534 1.52842,-0.51155 0,0 z m -82.38615,0 c -1.672789,1.12844 1.670732,1.1543 0,0 z m 15.354222,0.63359 c -2.004378,0.71786 1.110139,1.65359 0,0 z m -2.534695,0 c -2.015499,0.11699 0.936138,2.15916 0,0 z m -2.137376,0 c -0.941156,1.16422 1.739318,0.3796 0,0 z m -2.123349,0.13433 c -1.109648,1.32474 1.44146,0.92612 0,0 z m -7.839482,0.17844 c -0.770746,2.77242 1.878209,0.89215 0,0 z m 79.96947,0 c -0.79713,1.99887 1.48688,0.37995 0,0 z m -15.07704,0.65484 c -1.72216,0.65542 1.68336,1.50052 0,0 z m -61.324497,0.10626 c -1.617192,1.13748 1.532962,0.95621 0,0 z m 72.872637,0.28471 c -1.59609,-0.18124 0.31974,1.83533 0,0 z m -34.49836,0.51248 c 1.42085,1.063 -1.73009,2.10538 0,0 z m 5.75074,0 c 1.79678,-0.0292 0.4349,3.1131 0,0 z m -8.88462,0.51248 c 0.62016,0.81198 -1.49627,2.35067 0,0 z m 27.96061,0.17844 c -0.65865,1.55566 1.43239,0.8063 0,0 z m 3.03309,0.10626 c -1.67055,0.21733 1.27415,1.3639 0,0 z m -19.4515,1.79668 c 5.05116,1.99298 1.18033,5.62523 -0.0529,7.79776 -1.58868,-2.44364 -1.17584,2.24202 -2.9982,-0.0629 0.046,3.04029 -2.60068,-1.43297 -2.86759,1.02211 -1.30534,-0.0342 -0.51021,1.15007 -2.09873,-0.33096 -0.2179,3.90025 -2.9581,-1.64536 -5.10019,1.88207 -1.31524,-1.89308 -1.968,1.31129 -3.10104,-1.26824 -4.183771,-0.15987 -8.671899,-3.17734 -5.652299,-6.98153 0.402154,-2.61267 4.546873,-1.33002 5.121712,-0.11157 1.704997,-1.0706 4.626047,0.49058 6.117997,0.47507 2.7756,-1.88179 6.09432,-1.1328 8.58058,-2.40458 0.40716,0.96146 1.35884,-0.5203 2.05065,-0.0173 z m -22.910739,6.88498 c 2.55993,0.92981 -1.390598,2.58196 0,0 z m 4.12549,2.0401 c 2.100667,0.12753 -0.644563,2.26963 0,0 z m 22.529579,5.34475 c 2.44789,4.87685 -5.29157,1.68518 -7.88182,3.79381 -2.76356,0.92238 -8.74332,-0.0125 -2.70626,-0.45139 3.62382,-0.44687 8.17099,-0.37418 10.58808,-3.34242 z m -28.223609,0.17844 c 4.23241,3.79381 0.209494,3.70444 0,0 z m 7.74161,4.06215 c -2.755408,2.39574 6.559099,2.28687 1.117909,0.27426 -0.0736,-0.55256 -0.894313,-0.11454 -1.117909,-0.27426 z m -7.15325,0 c 4.16488,1.25951 -0.770067,0.50917 0,0 z m 19.143529,1.09132 c 3.6641,0.10193 -7.66261,1.31967 -0.86857,0.14376 l 0.86596,-0.14838 z m -12.620869,6.93851 c -1.896601,3.472 8.098819,1.29453 1.641099,0.10626 0.59912,0.26364 -2.20156,-0.10698 -1.641099,-0.10626 z m -4.69921,0.77293 c -2.896182,2.35913 0.65321,8.44618 1.156866,8.22529 2.08188,3.76555 7.862283,0.58548 4.671483,-2.35806 2.3119,-4.68916 -3.397725,-3.17794 -5.828349,-5.86723 z m -11.93463,8.25457 c 0.902829,1.63614 -0.6771,1.21978 0,0 z m 35.264789,0.69755 c -3.2556,3.32857 -12.10291,-0.0397 -13.19719,3.60466 1.07639,0.0135 -0.75559,2.33513 0.29705,3.48957 -1.49562,-0.20544 -4.976513,-4.97933 -1.63932,-4.77019 -1.15271,-1.96976 -8.72156,-1.13777 -4.398285,2.66853 2.667245,2.47967 6.092835,6.72779 9.006175,6.00667 4.08433,-2.58222 9.73129,-5.60696 9.93005,-10.99782 z"
       style="fill:#000000;fill-opacity:1;fill-rule:evenodd;stroke:none;stroke-width:0.0411758;stroke-opacity:1"
       id="path1159-7-8-6-6-1-8-2" />
  </g>
</svg>
