<?xml version="1.0" encoding="UTF-8" standalone="no"?>
<!-- Created with Inkscape (http://www.inkscape.org/) -->

<svg
   xmlns:dc="http://purl.org/dc/elements/1.1/"
   xmlns:cc="http://creativecommons.org/ns#"
   xmlns:rdf="http://www.w3.org/1999/02/22-rdf-syntax-ns#"
   xmlns:svg="http://www.w3.org/2000/svg"
   xmlns="http://www.w3.org/2000/svg"
   xmlns:sodipodi="http://sodipodi.sourceforge.net/DTD/sodipodi-0.dtd"
   xmlns:inkscape="http://www.inkscape.org/namespaces/inkscape"
   width="210mm"
   height="297mm"
   viewBox="0 0 210 297"
   version="1.1"
   id="svg3057"
   inkscape:version="0.92.3 (2405546, 2018-03-11)"
   sodipodi:docname="bee.svg">
  <defs
     id="defs3051" />
  <sodipodi:namedview
     id="base"
     pagecolor="#ffffff"
     bordercolor="#666666"
     borderopacity="1.0"
     inkscape:pageopacity="0.0"
     inkscape:pageshadow="2"
     inkscape:zoom="0.35"
     inkscape:cx="-458.57143"
     inkscape:cy="560"
     inkscape:document-units="mm"
     inkscape:current-layer="layer1"
     showgrid="false"
     inkscape:window-width="1920"
     inkscape:window-height="1016"
     inkscape:window-x="0"
     inkscape:window-y="32"
     inkscape:window-maximized="1" />
  <metadata
     id="metadata3054">
    <rdf:RDF>
      <cc:Work
         rdf:about="">
        <dc:format>image/svg+xml</dc:format>
        <dc:type
           rdf:resource="http://purl.org/dc/dcmitype/StillImage" />
        <dc:title></dc:title>
      </cc:Work>
    </rdf:RDF>
  </metadata>
  <g
     inkscape:label="Layer 1"
     inkscape:groupmode="layer"
     id="layer1">
    <path
       style="fill:#000000;fill-opacity:1;fill-rule:evenodd;stroke:none;stroke-width:0.04288356;stroke-opacity:1"
       d="m 149.91149,95.981062 c -1.95548,-0.226248 -2.74029,1.517837 -3.14435,3.033726 -2.52943,0.646423 -3.50434,2.845612 -4.52624,4.994992 -0.47199,-0.11636 -0.46542,0.26505 -0.93867,0.14877 0.0965,0.81578 -0.20686,1.25149 -0.31029,1.87335 -1.47584,0.0971 -1.31743,1.80421 -2.34078,2.34204 -0.36837,-0.22625 -0.2908,-0.32968 -0.77698,-0.1617 -0.2003,1.68266 -1.69618,3.29424 -1.40538,5.15079 -0.41371,6.9e-4 -0.89133,-0.0969 -1.09364,0.14877 0.0965,1.57594 0.34252,2.98788 0.46543,4.52636 -0.90062,0.10379 -1.1235,0.10379 -2.02667,0 0,0.88169 -0.70198,1.06979 -1.71621,0.9385 -0.73965,0.60782 -0.77771,1.93035 -2.03124,2.02995 -0.65406,1.53193 -1.15827,3.20953 -3.11957,3.4326 0.21979,-0.20049 0.14932,-0.68266 0.16206,-1.09455 -0.74932,-0.54937 -1.49788,-1.10275 -1.87335,-2.02722 -0.82489,0 -1.00716,-0.13475 -1.40538,-0.77698 0.80612,-1.269 1.70274,-2.64451 1.87336,-4.21468 0.44592,-4.12109 -3.58192,-5.57621 -7.8006,-5.62017 1.14226,-0.88174 2.66525,-1.3879 3.43203,-2.64908 1.29868,-0.20687 2.29726,-0.72013 3.27473,-1.25151 1.17066,0.48484 3.0881,0.15514 4.52641,0 0.8533,1.07374 2.60775,1.24439 4.21415,1.56243 0.48473,-1.09376 -0.34906,-1.55272 -0.77771,-2.18429 -4.13328,-1.06985 -8.51366,-0.82485 -12.01855,0.31029 -1.44416,1.62514 -3.91295,2.22373 -5.30594,3.90058 -1.17012,-0.18746 -2.00519,-0.75826 -2.96317,-0.62704 v -0.93863 h -1.40538 c 0,1.18234 -0.78681,1.60898 -1.56179,2.02722 -0.34272,-0.38785 -0.20048,-1.25084 -0.93868,-1.24761 -0.68267,-0.21979 -0.32959,0.60765 -0.93869,0.46544 -0.75823,-2.62131 -4.19792,-2.56313 -5.77265,-4.36862 -1.08143,-0.097 -1.807977,-0.48482 -3.120852,-0.31028 -2.005372,-1.00004 -3.751986,-0.3103 -6.399771,-0.46544 -1.989163,0.66388 -4.563927,0.73952 -5.77392,2.18496 0.73947,0.0969 0.938493,0.20686 1.558513,0.62703 1.533938,-1.05369 3.215362,-0.181 4.83725,-1.24827 0.491283,-0.0969 0.361997,0.48484 0.93868,0.3103 2.966439,-0.26505 7.27945,-0.38787 9.20579,2.34204 0.82487,0.38139 1.55596,0.83454 2.34078,1.24761 -3.31042,0.0969 -7.961565,0.64644 -8.271848,4.99436 -0.103792,1.44216 0.09651,3.75581 0.777707,4.83725 0.510767,0.78736 1.535943,0.73055 2.030502,1.56252 -0.627123,0.10379 -0.627123,-0.40734 -1.247691,-0.31028 -0.277869,0.24564 -0.206854,0.83452 -0.465423,1.09054 h -1.093824 c -0.142031,0.27787 0,0.84344 -0.465421,0.78663 -0.739473,0.0965 -0.862202,-1.13005 -1.715482,-0.46542 -0.310281,-0.85328 -0.730545,-1.55142 -1.716388,-0.93868 -0.491283,-0.65407 -0.881686,-1.40593 -1.251511,-2.18491 -0.594707,-0.12382 -0.471796,0.45249 -0.928847,0.46542 -0.09651,-0.75822 -1.020072,-0.99931 -1.562521,-0.46542 -0.682657,-1.70729 -2.33422,-2.44876 -2.495923,-4.67956 -0.239083,0 -0.575223,0.0965 -0.626937,-0.16206 0.09651,-1.62964 -0.491278,-2.87726 -0.310283,-4.52503 -0.872035,-0.0969 -0.691762,-0.75891 -1.093818,-1.55985 -0.682663,-0.34907 -0.692312,0.73953 -0.938681,0.3103 0.167524,-1.31098 0,-1.99748 0,-3.43192 -0.805935,-0.22627 -1.398094,-0.68264 -1.716205,-1.40536 -0.167524,0.0969 -0.50421,0.82485 -0.465427,0.16169 v 0 c -0.523691,-3.5321 -4.477252,-4.989816 -5.620783,-8.42691 -0.682659,0 -1.443435,-0.09705 -1.715661,0.310283 -0.219784,1.20302 0.76806,1.212708 0.938679,2.031097 -0.627121,0.682641 -1.809984,-0.155141 -2.653065,0.310283 0,2.126127 2.404875,1.115762 3.589741,1.562437 0.749304,0.28444 0.711065,1.10412 1.404649,1.24763 h 1.090547 c 0.446119,1.23598 1.844397,3.24316 1.094546,4.21152 0.626938,-0.10342 0.953971,0.0969 0.938497,0.62703 -0.323213,-0.10342 -0.692311,-0.40724 -0.938497,-0.15514 -0.446126,1.39954 -0.154777,2.26123 -0.93868,3.27484 0.465424,0.42019 0.701416,1.07244 1.093818,1.56245 -0.863107,1.13189 0.990939,1.82293 0.154778,2.96325 0.116538,0.34907 0.594712,0.34261 0.626942,0.77772 -0.633494,1.47257 1.802883,1.702 1.404646,2.96644 0.303914,0 0.310289,-0.21978 0.465427,-0.32321 0.36218,0.34907 -0.09651,0.60764 0,1.09382 0.749306,0.34251 1.363497,0.82469 2.184363,1.09437 0.407337,1.08726 0.290981,1.87918 0.310281,2.8062 1.184323,0.73947 2.634858,1.21855 3.27746,2.49774 -0.85328,0.122 -1.136433,-0.32321 -1.718942,-0.46542 -12.595049,-5.09254 -22.525561,-12.84658 -37.92044,-15.14014 -3.813349,-2.53143 -9.296472,-1.99102 -14.51447,-2.02722 -2.057628,0.43959 -3.576084,1.41634 -4.368544,3.12164 0.258569,4.89674 2.446756,7.85353 4.699585,10.77482 4.915546,4.55154 7.546396,11.3856 14.979895,13.41992 4.817216,2.84379 12.99838,-1.96258 17.009661,1.24776 1.753718,0.0965 2.47061,1.17576 4.372368,1.09437 0.76806,0.68265 2.362812,0.54955 3.431868,0.93867 -6.493909,1.46474 -14.001701,1.91469 -17.010208,6.86702 0,3.05439 1.937994,6.13865 3.744154,7.02163 3.177852,1.55267 7.658382,0.21978 11.861405,0.77696 -0.484726,1.3382 -2.409792,1.23276 -2.652883,2.81005 0.18027,0.53006 1.432509,0.16206 1.56234,0.31028 -0.09651,0.84435 -1.177036,0.70214 -1.251511,1.5625 0.18027,0 0.167524,0.24564 0.162061,0.47182 0.149315,0.362 0.853278,0.18755 1.09382,0.4654 -0.739471,2.06728 -2.169431,3.44881 -3.278729,5.14826 -2.359535,0.0965 -3.585189,1.30452 -4.214677,3.12161 0.342513,0.23926 0.361996,0.78679 0.938496,0.78679 0.729821,-0.41371 2.02467,-1.5676 3.121039,-0.62712 -0.361997,1.08473 0,2.25993 1.40465,2.02722 0.806116,-1.51318 0,-3.18696 0.310283,-4.52239 0.400782,-1.84424 3.150173,-4.11198 4.373096,-5.3085 0.758409,-0.0965 0.682659,0.66388 1.400826,0.62692 0.986568,-0.7298 2.003364,-1.43176 2.031224,-3.12084 1.003866,-0.70216 1.513904,-2.59481 1.247504,-4.05844 2.461141,-0.45252 5.086166,-0.73876 7.489584,-1.24752 3.337547,-2.53853 4.66863,-7.09081 8.740548,-8.89751 -0.239268,0.65407 0.806118,0 0.777712,0.46542 -0.206857,0.26494 -0.407337,0.52351 -0.310286,1.09309 0.200301,0.3813 1.229479,-0.0965 1.405199,0.31028 -0.626943,0 -0.594711,0.71107 -0.471799,1.09311 1.458914,0 2.445483,1.11566 3.121038,2.34131 -1.053031,0.2005 -0.909542,1.58838 -1.404828,2.34206 -0.701234,0.29098 -1.259162,-0.22616 -1.71621,0.31028 0,1.09183 0.758957,1.20109 0.310283,2.34152 -1.387896,0 -3.489411,0.83451 -2.184363,2.0272 -1.060678,0.59473 -1.681975,-0.4654 -2.499015,-0.6271 -0.446124,0.6271 -0.881868,0.26511 -1.716393,0.16206 -0.303724,0.16753 -0.219778,0.72017 -0.465421,0.93795 -1.89921,-0.27149 -2.717527,2.09387 -2.184184,2.80948 -0.834701,0.0965 -1.190147,0.58179 -1.559245,1.09109 -2.241174,0.67356 -4.312456,1.51409 -5.462361,3.27746 -0.09651,0.49128 0.413711,0.40734 0.465421,0.77771 -0.50421,0.27787 -0.971633,0.58815 -1.404101,0.93868 -0.09651,0.54299 0.09651,0.87203 0.154777,1.2475 -0.361997,0.42664 -1.025902,0.543 -1.090543,1.25151 0.18027,0.69231 0.777713,0.91993 1.247686,0.93868 -0.682656,0.32959 -1.004048,1.22493 -0.627122,2.18437 0.446127,0 0.796468,0 0.938681,0.31028 -0.239267,0.28442 -0.555924,0.4718 -0.465426,1.09054 0.277872,0.29736 0.959985,0.18737 1.093824,0.62694 -1.472023,1.49133 -4.093953,1.83457 -4.368728,4.52642 0.426639,0.34907 0.69231,0.40078 1.091269,0.46542 -0.863109,0.69231 -1.921968,1.19778 -2.496647,2.18416 0.09651,0.58836 0.901168,0.44615 0.938679,1.09457 -0.167524,0.4525 -0.663175,0.58814 -0.627121,1.24749 0.881866,1.46421 -0.949605,2.32987 -0.776983,4.057 0.245641,0.32338 0.786815,0.36218 1.404832,0.31047 -0.116538,0.99986 0.633495,1.13368 1.247505,1.40465 v 1.40536 c 0.206856,0.3103 0.824872,0.21978 0.938677,0.62695 -0.284424,2.38155 0.361997,3.79405 1.404107,5.45927 -0.646426,1.54812 -1.053032,3.02581 -0.93868,4.68264 1.118948,-0.2003 1.60695,0.93869 2.652336,0.31028 -0.116538,-0.96179 -0.206853,-1.84802 0.162061,-2.65541 1.528108,0.82469 3.013057,1.81124 4.523136,0.31028 0,-2.37449 -2.715157,-1.97623 -4.054434,-2.96717 -0.720901,-0.53007 -0.48491,-1.44362 -1.407927,-1.71566 -0.368552,-0.74933 -0.682661,-2.12284 -0.465424,-2.96392 h 1.247508 c 0.387849,-0.40076 -0.23909,-0.85328 0.310282,-1.0938 0.18027,0.18027 0.54955,0.18027 0.938675,0.16206 0.407159,-0.53007 0.720718,-1.15775 0.626939,-2.18746 2.168161,0.18736 0.872035,-3.07442 1.716393,-4.21212 0.691579,-0.16753 1.135701,0.38129 1.558513,0 0.265124,-0.77773 -0.09651,-2.18056 -0.310283,-2.96665 0.265126,-0.25855 0.633496,-0.40714 0.627123,-0.9385 -0.881865,-1.61749 -2.023395,-3.80113 -2.342056,-5.45926 0.400786,0.32976 0.672828,0.78681 1.405378,0.77772 0.303731,-0.38148 0.149315,-1.19599 1.089816,-0.93869 0.323213,-0.70196 -0.09651,-1.19452 0.162061,-1.87335 0.303908,-0.20684 0.890785,-0.15478 1.247686,-0.31029 0.09651,-1.77447 0.523515,-3.02906 -0.310283,-4.05824 1.255336,-0.9387 -0.09651,-4.45777 2.026492,-5.15081 0.67355,0.7207 1.477121,0.67299 2.34205,0.15478 -0.446121,1.8391 -1.55979,4.66278 -0.162061,6.39977 0,0.36835 -0.542997,0.2908 -0.465425,0.77698 0.154778,4.05315 0.349065,7.6143 3.277454,8.58393 1.25461,-0.72015 3.87271,0.4913 5.462906,-0.16206 -0.77752,-0.24564 1.22311,-0.16206 0.93868,-0.93866 -0.14203,-0.27789 -0.58178,-0.25859 -0.62712,-0.62696 0.51077,-0.0965 1.01043,-0.13474 1.09455,-0.6271 0.0965,-0.60764 -0.64642,-0.4008 -0.77771,-0.77753 0.22634,-0.12928 0.60764,-0.122 0.46542,-0.62712 -0.23908,-0.8817 -0.5042,-0.90046 -0.31027,-2.02795 -0.68266,-1.03609 -3.057672,0.0965 -4.215407,-1.09309 0.30391,-0.16206 0.407338,-0.53007 0.627123,-0.77753 1.446709,0.32957 2.859194,-0.36857 3.903664,-1.24768 -0.20686,-0.31029 -1.09182,0.0965 -1.09364,-0.46545 1.02463,-0.89151 -0.72982,-1.22891 -0.62712,-2.18762 h 1.56179 c 0.26513,-0.51058 0.0965,-0.99605 0,-1.55852 0.54956,-0.0965 0.85328,-1.2211 1.24769,-0.93869 -0.0965,0.61421 0,1.15263 0.31028,1.4041 1.47585,0.32979 1.60368,-1.51518 2.49775,-1.2475 0,0.15477 0.13475,0.18737 0.16206,0.31028 0,0.34251 -0.6639,0.0965 -0.93849,0.16206 -0.0965,0.54301 0.0965,0.8726 0.14931,1.2475 0.2908,0.22636 1.0361,0 1.25078,0.31031 -0.18755,0.4461 -0.18755,0.96379 0,1.40537 -0.45249,0 -0.54299,0.29097 -0.77771,0.46541 0.12929,1.16629 0.91027,1.69055 1.71639,2.18436 -0.29098,0.32961 -0.80612,0.44594 -0.62712,1.24771 1.65029,0.73945 3.75909,0.55592 5.61624,0.77751 -2.43001,0.32978 -3.40274,0.57542 -5.77393,0.16206 0.20686,1.29995 -1.16047,1.02208 -1.09,2.18436 0.29098,0.27787 1.02863,0.11654 1.5587,0.16206 -1.19014,0.93868 0,2.19201 -0.15478,3.58956 0.6335,0.34925 1.81837,0.16206 2.02723,0.93868 1.19706,0.15478 1.76792,-0.31028 2.49646,-0.62694 5.30923,0.2003 11.30876,0.0965 15.13886,-2.33823 0.22634,0.38786 0.73947,0.50421 0.62712,1.24769 -0.96908,-0.23927 -0.81522,0.63349 -1.09127,1.09054 -0.54937,-0.30391 -0.90116,0 -1.56179,0 -4.26512,1.79123 -10.66288,1.82801 -16.38455,1.24751 -0.49129,-0.18737 -0.77772,-0.58814 -1.56235,-0.47178 -0.75895,1.2211 0.67283,2.18034 0.16207,3.43567 0.47179,0.31028 1.35347,0.2005 1.55978,0.77773 -0.18027,0.28443 -0.40734,0.53007 -0.62712,0.77696 -0.45249,-0.16752 -0.80611,-0.44592 -1.56179,-0.31028 -0.0965,0.38148 -0.21978,0.71108 -0.15478,1.24769 0.29736,0.16752 0.73966,0.2003 1.09055,0.31028 -0.34252,0.362 0,0.88169 0.16206,1.24752 2.25029,-0.42665 4.02604,0.71123 5.9278,0.7777 2.37501,0.0965 4.59759,-1.05884 7.33644,-0.93866 1.39626,-0.58178 2.55474,-1.3981 4.52569,-1.40394 2.121,-1.38735 3.10028,-5.15025 2.65306,-8.11543 1.83057,-1.52101 1.94383,-5.51608 1.5618,-8.73782 -0.42664,-0.15478 -0.89152,-0.25855 -1.25097,-0.46541 -0.0965,-0.3103 -0.38785,-1.15848 0,-1.40464 0.25857,0.32319 0.78735,0.36199 1.40538,0.31028 0.98329,-1.2173 -0.73947,-2.90909 -0.14931,-4.21413 0.50421,0.22615 0.69229,0.76787 1.5585,0.62692 0.15477,-1.07634 1.04411,-0.543 1.2477,-1.40538 0.25857,-0.63349 -0.92884,-0.61401 -0.46542,-0.9385 0.40733,0.54939 1.53209,-0.32974 1.71948,0 0.0965,0.97166 0,1.78215 -0.62696,2.03106 0.25859,3.21282 -0.68264,6.85607 1.24753,8.89495 0.14203,-0.4332 0.60763,-0.54298 0.93868,-0.7777 -0.11654,0.47198 0.27785,0.46541 0.16206,0.93867 0.3813,0.0965 0.71106,0.22635 1.24768,0.15477 0.24565,0.69177 0.56886,1.3045 0.77699,2.0305 -0.36856,0.13475 0.31028,0.26494 0.62694,0.62694 -0.52352,2.28779 -2.04015,3.58009 -2.49902,5.93106 0.30373,0.54955 1.01934,0.54302 1.40538,0.62713 -0.13657,0.86294 -0.50421,1.47384 -0.77771,2.18492 0.84417,0.40079 1.19652,2.07311 1.7162,2.18437 -0.68265,0.92882 0.0965,1.89846 0.62713,2.49899 -0.56886,1.6665 1.53648,1.85078 1.09108,3.90059 0.26513,0.7014 1.37625,0.14932 1.56125,0.62712 -1.1093,0.97162 -0.47198,3.68461 -1.40483,4.83978 -0.36837,-0.0965 -0.58815,-0.24564 -1.09036,-0.16206 -1.06742,0.8533 -1.42104,2.42802 -1.87353,3.90059 0.20685,0.46542 0.61419,0.73963 1.40537,0.62712 0.362,-1.40866 0.88187,-2.65179 2.96335,-2.34133 0.13657,0.80539 0.20686,1.66905 0.16206,2.65216 0.3813,0.24564 0.66318,0.58196 1.4021,0.46542 0.82488,-1.05612 0.1038,-2.23079 0.16206,-3.74597 -1.52046,-0.96326 -0.62712,-4.39258 0.31029,-5.61623 0.42664,0.34907 0.54937,0.53006 1.2475,0.31028 0.40078,-1.52501 1.10293,-3.62397 0.31027,-4.99494 0.38787,0 0.48492,-0.29098 0.77773,0 v -0.77716 c 2.51467,-0.41371 0.91992,-3.50106 0.31028,-4.83725 0.43957,0.18027 0.81522,0.18027 1.25096,0 0.18738,-0.91009 -0.4849,-0.97091 -0.62712,-1.56179 0.44613,0 1.02008,0.0965 1.24769,-0.14932 0,-2.02721 -2.12682,-2.43182 -1.71639,-4.36854 -1.55852,-0.62712 -1.93599,-2.43583 -3.58956,-2.96717 -0.20048,-0.48473 -0.23927,-1.1093 -0.31028,-1.71566 0.38785,0 0.74912,0 0.9385,-0.16206 0.14203,-0.71107 -0.26495,-0.88169 -0.31029,-1.40465 0.64643,-0.12929 1.91995,0.36199 1.87279,-0.46543 -1.89154,-1.6969 -2.66142,-3.81389 -4.21411,-5.61623 0.24564,-0.22634 0.54299,-0.38785 0.62712,-0.77771 -0.31047,-0.56885 -0.97747,-0.79628 -1.40538,-1.25024 1.00004,-3.35557 -4.17789,-2.91345 -5.77265,-4.6801 v -1.40465 c -0.50423,-0.16752 -0.54957,-0.79646 -1.40538,-0.62712 0.31029,-0.2908 0.0965,-0.73947 0,-1.09436 -0.5042,-0.25857 -0.84362,-0.0965 -1.40483,0 0.16206,-0.57541 -0.32323,-0.50421 -0.46542,-0.77699 -1.58437,-0.18027 -1.58492,1.22566 -3.12486,1.08982 -0.0965,0.22634 0.18755,0.80611 -0.15478,0.78736 -0.64642,-0.51077 -0.3103,-0.77771 0,-1.40538 -0.98003,-0.99749 -2.53325,-1.42413 -3.278,-2.65689 0.53006,0 1.26371,0.122 1.55851,-0.14931 0.24564,-1.59476 -1.62117,-1.08071 -1.40137,-2.65289 -0.32321,-0.45249 -1.19852,-0.36199 -1.40539,-0.93867 0.62695,-0.15478 0.96255,-0.59471 0.77772,-1.56234 0.51059,0.25856 0.5947,0 1.24751,0 0.0965,-0.50421 -0.10379,-0.7209 -0.14932,-1.09055 0.20686,0.27785 0.90044,0.48473 1.24769,0.15478 0.122,-0.64642 -0.23927,-0.79647 -0.15478,-1.40155 1.14809,-0.14932 1.19707,-1.40593 2.18419,-1.71949 5.32543,4.40221 8.52458,10.93128 16.07426,13.11037 -0.18027,1.52683 0.36855,2.3304 0.62712,3.43185 1.1235,-0.18736 0.90044,0.97675 1.40465,1.40792 1.22948,-0.13656 1.50953,0.89154 2.49847,0.15478 0.91919,1.89031 1.91213,3.70411 2.96335,5.46184 -0.34907,1.10729 -0.56886,2.34205 -1.09,3.27873 0.34269,0.12382 0.61419,0.31028 0.62712,0.77698 -0.20686,-0.0965 -0.29098,-0.22636 -0.62712,-0.16206 0.0965,1.13133 1.37315,0.91009 2.18436,0.62694 0.24564,-0.86293 -0.54955,-2.31347 0.31028,-3.12086 0.68266,0.66318 1.80671,0.90044 2.65307,1.40465 -0.16206,-0.72982 0.72982,-0.41371 0.62694,-1.09382 -0.87276,-1.38134 -2.21204,-2.8927 -3.9044,-2.96389 -0.40733,-1.90759 -1.37114,-3.70719 -2.02721,-5.77648 2.36008,-0.0965 1.61077,-2.24645 0.46542,-3.12103 5.08489,-0.73948 9.19614,-2.45769 13.4212,-4.05827 0.25857,-0.78681 0.76806,-1.31105 1.40465,-1.71566 1.33436,-4.34598 -1.84167,-6.47535 -4.05754,-8.26913 -2.91163,-1.61496 -7.27109,-1.78558 -10.45675,-3.12432 -0.50421,-0.13474 -0.20686,0.51077 -0.62712,0.46543 0,-0.32321 -0.31029,-0.42008 -0.46545,-0.62694 2.7984,-0.0965 5.05978,-0.6639 7.48961,-1.09455 1.00332,-1.48484 2.70933,-2.02784 4.05844,-2.8101 0,0.53007 0.57522,0 0.16206,0.62712 1.7763,0.53007 2.67619,1.63543 4.52241,1.87343 5.12368,0.6639 9.89883,-1.16054 12.32938,-3.27881 1.67105,-1.45508 2.73391,-3.60849 4.36927,-5.3054 1.47202,-1.52738 3.06678,-3.65165 4.05772,-5.46163 0.34906,-0.64643 0.92884,-0.79647 1.24768,-1.24769 0.34252,-0.48473 0.40716,-1.214 0.77753,-1.87335 0.84363,-1.51518 1.94073,-2.82096 2.0305,-4.21541 0.13474,-2.12284 -1.18305,-3.41313 -1.56234,-4.36856 -3.22065,-2.10609 -8.24982,-1.53399 -12.63784,-0.77766 -5.65047,0.9716 -11.0806,3.47783 -15.76198,4.67954 -6.01646,2.56765 -11.19823,5.96911 -17.94634,7.80513 -4.33503,1.80416 -8.95505,4.15659 -13.26678,5.46164 0,-0.40079 0.28443,-0.54937 0.46543,-0.77771 1.09309,0.0965 0.89079,-0.2908 1.56234,-0.77699 0.90044,-0.65407 2.80365,-1.84294 3.58974,-2.34205 0.62694,-0.40078 1.00441,-0.10379 1.40465,0 0.27787,-0.97546 1.04465,-1.45309 1.40538,-2.34133 -0.38149,-2.77652 3.26889,-2.86174 3.89984,-5.14825 0.15477,-0.62694 -0.46543,-0.4718 -0.31029,-1.0931 0.65426,-1.42989 1.93417,-2.22825 2.49592,-3.74736 -0.74912,-1.80549 0.46543,-3.38926 0.14932,-5.61623 -0.22618,-0.0969 -0.80541,0.181 -0.777,-0.1617 0.0965,-2.2929 2.04015,-3.36664 3.43442,-4.52634 0.93868,-0.77766 1.88775,-1.133845 3.12178,-0.46543 0.0965,-0.748572 1.68653,0 2.02649,-0.46544 0.42027,-1.324546 -0.77698,-1.238563 -1.87335,-0.938623 -0.25857,-0.265033 -0.65425,-0.387854 -0.62694,-0.938624 0.18737,-0.901132 1.52611,-0.65418 1.24751,-2.027856 -0.32959,-0.122911 -0.6335,-0.187463 -0.91009,-0.226248 z M 40.806766,108.68934 c 0.588336,1.12931 2.847538,0.58824 3.904576,1.2502 0.09651,0.22624 -0.187553,0.80609 0.149315,0.77765 1.11822,-1.01942 2.616101,0.25859 4.054437,0.3103 -0.310283,0.11636 -0.446123,0.65418 -0.162061,0.92892 0.758227,0 0.381298,-0.54948 0.626939,-0.77702 3.885821,0.79641 7.288555,2.07118 10.921633,3.12099 0.465425,0.78663 1.8688,0.62712 2.341872,1.40465 7.127586,2.49592 12.686458,6.55946 18.726051,10.1432 1.225654,0.28442 2.26175,0.7584 3.123586,1.40483 2.775799,0.75822 5.733866,1.34 8.426807,2.18418 0.18027,0.46542 -0.116538,1.06869 0.310281,1.56179 -2.455676,0.42664 -5.01369,-1.26371 -7.803688,-1.87262 -2.427998,-0.53007 -5.175935,-0.40734 -7.643449,-1.40483 -2.122817,0.92903 -4.16697,-0.65407 -6.55746,-0.4718 -0.381298,-0.31028 0.265125,-0.73947 -0.149314,-1.09309 0,-0.46543 -1.157006,0.21978 -0.938679,-0.47198 -0.400782,0.7209 -1.747163,1.17467 -2.499016,0.62712 -1.344013,0.64642 -3.157275,1.05813 -4.680284,0.77771 -0.633494,-0.11654 -1.02062,-0.67374 -1.715479,-1.09054 -2.19547,-1.32071 -4.161142,-2.32403 -5.462546,-4.21541 v -1.09382 c -0.284426,-0.49128 -0.862201,-0.70214 -1.40465,-0.92957 -0.226157,0.13656 -0.491281,0.22615 -0.465424,0.62694 1.696177,3.24449 4.406783,5.47675 7.647273,7.1793 -0.129284,0.7584 0.142031,1.10547 0.310283,1.56124 -0.767877,-0.14203 -0.44594,0.79647 -0.777528,1.09182 -3.542579,-2.2257 -6.677093,-4.12618 -10.138824,-5.77392 -0.264942,1.04065 0.900622,1.13388 1.716389,1.56234 0.928846,0.49128 2.017568,1.32526 3.121039,2.02667 1.930893,1.22875 3.543126,2.33623 5.461636,3.43515 -0.187371,0.87203 1.027904,1.14735 0.777711,1.55851 -4.371822,0.31029 -9.792305,1.6574 -13.731661,-0.31028 -5.622058,-2.81003 -9.1457,-9.11092 -13.266054,-13.2635 -0.465425,-2.12355 -3.844304,-4.55282 -3.589741,-7.3358 0.310283,-3.37374 5.624061,-2.83526 9.051377,-2.81006 0.297354,0 0.09651,-0.53007 0.310283,-0.62703 z m -2.786174,1.23727 c -0.2003,0 -0.381298,0.16807 -0.342513,0.32321 0.103792,0.12291 0.928846,0.40726 0.776982,-0.1617 0,-0.16807 -0.24564,-0.20685 -0.44594,-0.16807 z m -3.656204,0.0971 c -0.445941,0.0969 -0.50421,0.7867 0.200482,0.90047 0.09651,-0.29735 0.342513,-0.38785 0.310283,-0.77765 -0.103792,-0.0969 -0.206855,-0.10343 -0.290981,-0.11636 -0.09651,0 -0.154777,0 -0.219784,0 z m 149.710452,0.36199 c 2.73119,7e-4 4.07447,1.16231 5.29575,3.03761 0.16207,3.17784 -1.62334,4.4055 -2.64978,6.39575 -0.38148,0.40078 -0.32977,-0.32321 -0.93868,-0.15478 -0.55593,0.5044 0.61419,0.68266 0.15478,1.09055 -1.00915,2.10551 -2.81586,4.26002 -4.52642,6.39977 -1.62061,2.02794 -3.27855,4.26129 -5.30522,5.6195 -0.88169,0.59471 -1.68598,0.68266 -3.12159,1.09109 -1.57144,0.4525 -3.88309,1.09382 -6.55236,0.77717 -2.13647,-0.25857 -4.48872,-1.5729 -4.52569,-2.49538 0,-0.82487 2.84754,-3.19005 3.58902,-3.7467 1.78103,-1.33746 3.64018,-1.79833 4.99384,-3.12104 0.91009,-0.13657 1.84422,-0.23908 2.18418,-0.9385 -0.0965,-0.22633 -0.23908,-0.38785 -0.31028,-0.62712 -6.98337,2.483 -10.96552,7.96666 -16.69483,11.70379 v 0 c -1.0594,-0.0965 -1.96458,0 -2.65233,0.30391 0.56247,-2.51147 -0.59471,-4.02556 -1.09055,-5.93059 1.58055,-1.8526 5.44689,-2.25156 8.1147,-2.49647 0.18027,0 0.13475,-0.28443 0.15478,-0.46542 3.52381,-0.95088 6.71133,-2.23936 7.96084,-5.4631 1.72857,-0.16752 2.51267,0.60764 3.43205,1.24769 1.1519,-1.67305 -2.99505,-1.67688 -3.74689,-2.96389 -0.64644,1.45381 -2.97682,0 -3.7427,0.93867 -0.77771,-0.0965 0.42664,-0.38148 0.31029,-0.78681 0,-0.48473 -0.40734,-0.6335 -0.62713,-0.93868 0.72016,-1.44853 3.74869,-2.91145 5.15207,-1.71621 0.14203,-0.53006 0.36857,-0.97801 0.777,-1.24768 0.32319,0.20048 0.28442,0.75895 0.93866,0.62712 0.60764,0 0,-0.78682 0.3103,-0.78682 3.43185,-0.72071 8.36815,-1.28957 12.17369,-1.87327 0.90042,-0.13584 1.70454,-0.63351 2.81003,0.1617 0.22615,-1.81326 -3.53075,-1.39631 -4.83725,-0.93862 -0.54299,0 -0.22634,-0.91924 -1.09382,-0.62705 -0.34251,0 -0.0965,0.66388 -0.15478,0.93862 -4.63822,0.87269 -9.66101,1.37044 -14.04576,2.4985 -0.96436,1.11767 -3.06915,1.09182 -3.4326,2.81003 0.26512,0.55592 0.54955,1.11184 1.09054,1.40537 -0.58815,0.50421 -2.06983,0.11654 -2.8093,0.46543 0.28443,0.3813 0.91993,-0.21979 1.5618,0 -0.30391,0.58178 -1.65029,0.11654 -2.18437,0.46542 0.1038,-0.40078 -0.0965,-1.20234 -0.62693,-1.40538 -0.12201,0 -0.15478,0.15478 -0.31029,0.15478 -0.62712,0.20048 0.46543,0.74931 0,0.78663 -0.87203,0.26513 -1.91742,0.36856 -3.12049,0.31029 0,-1.34383 0.88187,-1.82091 1.09054,-2.96699 3.333,-1.68216 7.59046,-3.29111 12.32956,-4.52639 2.20421,-0.5818 4.43319,-1.7234 7.1793,-2.18043 0.72072,-0.12291 1.78031,-0.27798 2.4952,-0.3103 0.24564,0 0.44612,0.3103 0.46542,0.3103 -0.21978,0 2.55674,-0.70203 3.278,-0.78736 0.44612,-0.097 0.86311,-0.097 1.25734,-0.097 z m -140.775431,0.097 c -0.136568,0.181 -0.206855,0.42018 -0.154777,0.78671 h 0.627121 c 0,-0.44605 0,-0.8533 -0.465425,-0.78671 z m 141.277821,0.73888 c -0.56885,0 -0.72982,0.89142 0,0.82485 0.22616,-0.13584 0.34252,-0.38787 0.31028,-0.77702 -0.0965,0 -0.18755,-0.097 -0.26512,0 z m -145.80096,0 c 0.116538,0.42663 -0.310283,0.31028 -0.310283,0.62703 0.200482,0.2198 0.929028,0.27798 0.938679,-0.14859 -0.206856,-0.15514 -0.303728,-0.42664 -0.626939,-0.47189 z m 8.426441,0.77765 c -0.187554,0.23918 -0.50421,0.60766 -0.162061,0.93863 0.290799,0 0.342513,-0.181 0.626939,-0.1617 0.09651,-0.4913 -0.187372,-0.63351 -0.465425,-0.77766 z m -7.724298,0.32321 c -0.142031,0 -0.284427,0.097 -0.387854,0.14877 0,0.29737 0.167523,0.3426 0.154777,0.62703 0.400782,0 0.607638,-0.22625 0.626939,-0.62703 -0.103792,-0.10343 -0.24564,-0.14877 -0.387853,-0.14877 z m -6.739733,0 c -0.18027,0 -0.400782,0 -0.523693,0.14222 0,0.46542 0.562479,0.54945 0.787361,0.31028 0.09651,-0.27796 -0.09651,-0.40727 -0.264942,-0.45252 z m 11.359744,0.097 c -0.219784,0 -0.387854,0.15514 -0.167524,0.67358 1.014975,-0.14222 0.530069,-0.65418 0.167524,-0.67358 z m 58.817196,0 c 0.52369,-0.10342 0.56886,0.25857 0.62712,0.62705 -0.52369,0.10343 -0.56885,-0.25857 -0.62712,-0.62705 z m -67.574496,0.15514 c -0.136568,0.50421 0.239268,0.4913 0.465425,0.62703 0.09651,-0.20685 0.226339,-0.30381 0.16206,-0.62703 z m 14.671614,0.1617 c 0,0.362 0,0.58826 0.310283,0.62703 0.09651,-0.20685 0.226157,-0.30382 0.162061,-0.62703 z m 71.314652,0 c 0.67301,0 0.44613,0.82486 -0.15477,0.77766 -0.13475,-0.44602 0.21978,-0.40723 0.15477,-0.77766 z m 66.63837,0 c -0.36199,-0.0969 -0.59471,0 -0.77771,0.1617 0,0.79643 0.89152,0.68264 0.77771,-0.1617 z m -68.35457,0.1617 c 0.122,0.23917 -0.5237,1.03107 -0.93868,1.24761 0,-0.73951 0.6639,-0.79641 0.93868,-1.24761 z m 56.7297,0.16169 c -0.14203,0 -0.28442,0.0969 -0.38785,0.15515 0,0.38787 0.34907,0.3814 0.46542,0.62704 0,-0.31028 0.42664,-0.20039 0.31029,-0.62704 -0.10379,-0.0969 -0.24564,-0.15515 -0.38786,-0.15515 z m -72.48859,0.46545 h 0.62712 c -0.13657,0.44603 0.21978,0.40724 0.16206,0.7867 -0.56248,0 -0.81522,-0.22624 -0.77771,-0.7867 z m 16.5752,0.36846 c 0.13657,-0.001 0.28443,0.0969 0.4332,0.25857 -0.14932,0.32316 -0.32322,0.61414 -0.46543,0.93863 -0.38785,0 -0.7493,0 -0.93868,-0.15478 0.23927,-0.34907 0.55593,-1.03235 0.96964,-1.03689 z m -74.94045,0.10343 c -0.69231,1.1138 -0.588336,3.42927 1.089814,3.43509 0.09651,-0.82487 -0.654253,-1.62443 -0.149315,-2.34205 3.431869,0.54955 6.748109,0.99167 10.142648,2.18436 -2.096413,-1.72913 -6.49664,-3.46099 -10.142648,-2.65233 -0.258569,-0.25857 -0.407155,-0.63347 -0.938678,-0.627 z m 5.92706,0 c -0.206855,0.20039 -0.239085,0.76801 0.162061,0.77766 0.206855,-0.20048 0.239268,-0.76796 -0.162061,-0.77766 z m 49.62488,0 c 0.58178,0 0.40078,0.22624 0.31029,0.62707 v 0 c -0.58179,0 -0.38786,-0.22634 -0.31029,-0.62707 z m -60.392464,0.16169 c -0.30391,0.30386 -0.162061,0.95484 0.465424,0.77767 0,-0.44613 0,-0.85329 -0.465424,-0.77767 z m 14.203458,0.15514 c 0.303728,0.58174 0.297355,1.47253 1.247505,1.40533 0.226339,-0.84417 -0.484726,-0.75895 -0.465424,-1.40533 z m 131.557266,0 v 0.62708 c 0.49128,0.0965 0.70141,-0.13657 0.62712,-0.62708 z m -3.83721,0.20044 c -0.0965,0 -0.16206,0.0965 -0.21978,0.11654 -0.16206,0.52351 0.48473,0.24564 0.77698,0.31028 0,-0.34907 -0.30391,-0.48491 -0.55592,-0.42664 z m -59.21215,0.11654 v 0.77771 c -0.34907,-0.0965 -0.55592,-0.27806 -0.62712,-0.62712 0.14203,-0.12201 0.34907,-0.16207 0.62712,-0.15478 z m -87.197721,0 c -0.103792,0 -0.226157,0.0965 -0.349068,0.11653 0,0.44595 0.200482,0.73948 0.776982,0.62694 0.09651,-0.56885 -0.116538,-0.77752 -0.426639,-0.73947 z m -1.166839,0.25857 c -0.349068,0 -0.633494,0.47179 -0.27787,0.79646 0.400782,0 0.607637,-0.22634 0.626939,-0.62712 -0.103792,-0.122 -0.226157,-0.16752 -0.349069,-0.16752 z m 142.35744,0.16752 c -0.0965,0.22616 -0.22634,0.40078 -0.31028,0.62694 0.18027,0.13475 0.42008,0.20685 0.78736,0.15478 0.0965,-0.49129 -0.20048,-0.6335 -0.47198,-0.77753 z m 2.81385,0 c 0,0.21978 -0.0965,0.34251 -0.16206,0.46542 0.20684,0 0.30389,0.22616 0.62712,0.16206 v -0.62712 z m -120.792225,0.16206 c 0,0.20686 -0.219784,0.2908 -0.154777,0.62694 h 0.77771 c 0.103792,-0.52351 -0.265124,-0.56885 -0.627121,-0.62694 z m 124.224095,0.15478 c -0.23909,0.22615 -0.14931,0.81504 0.31028,0.77771 0.18027,-0.45268 0.0965,-0.57541 -0.31028,-0.77771 z m -61.47263,0.24564 c 0.28443,-0.0965 0.61401,0 0.76788,0.3813 0,0.27149 -0.18737,0.32321 -0.15478,0.62712 -0.41371,-7.1e-4 -0.89133,0.0965 -1.09382,-0.15478 0,-0.44612 0.20046,-0.73947 0.48491,-0.84363 z m 52.1097,0.0965 c -0.2003,0.93868 0.81522,0.91009 0.77771,0.15477 -0.18027,-0.13656 -0.42027,-0.20685 -0.77771,-0.15477 z m -73.50284,0.15477 h 0.7777 c 0.15478,0.62694 -0.92902,0.62694 -0.7777,0 z m 80.68159,0 c -0.24564,0.23909 -0.23927,0.89079 0.31028,0.77699 0.23909,-0.22616 0.14932,-0.81523 -0.31028,-0.77699 z m -9.16901,0 c -0.10379,0 -0.22634,0 -0.34925,0.14203 -0.0965,0.49129 0.13475,0.69159 0.62712,0.62694 0.23927,-0.34906 0.0965,-0.75877 -0.27787,-0.76787 z m -48.88541,0.76788 h 0.46542 c 0,0.40734 -0.0965,0.67301 -0.46542,0.62712 z m 54.77951,0 c -0.0965,0.60764 0.27806,0.76806 0.15478,1.40483 1.0117,0 0.48491,-0.87203 0.46543,-1.40483 z M 62.316259,116.9618 c -0.219783,0 -0.420083,0.0965 -0.44594,0.30391 0.09651,0.3813 0.955431,0.80539 0.938497,0 -0.09651,-0.16206 -0.277871,-0.28442 -0.491282,-0.30391 z m 123.465321,0 c -0.18755,0 -0.38148,0.15478 -0.31028,0.4525 h 0.62694 c 0.0965,-0.30373 -0.122,-0.4525 -0.31029,-0.4525 z m -23.72044,0.13657 c 0,0.29098 0.18027,0.3427 0.16206,0.62712 0.40734,0 0.40078,-0.32321 0.46543,-0.62712 z m -0.543,0.122 c -0.50421,0.15478 -0.64642,1.22311 0.38786,0.97036 0.13657,-0.18027 0.20685,-0.42008 0.15478,-0.77771 -0.1038,-0.10379 -0.20686,-0.16206 -0.30373,-0.18737 -0.0965,0 -0.16206,0 -0.23927,0 z m 14.45056,0.38148 c -0.23927,0 -0.45268,0.18737 -0.49146,0.43301 0.12928,0.13657 1.22128,0.42683 1.09382,-0.15477 -0.11654,-0.23909 -0.36837,-0.32321 -0.59471,-0.28443 z m -136.731376,0.122 c 0,0.16753 -0.167524,0.24564 -0.310283,0.31029 -0.484908,0 -1.014246,-0.36856 -1.401554,0 0.381481,1.83256 3.29093,1.47329 5.148258,1.71894 0.796283,0.10379 1.464193,0.51058 2.18418,0.46542 1.351115,-0.0965 2.771425,-1.00259 3.900753,-0.93868 0.381298,0.0965 0.329584,0.60764 0.938497,0.47198 0.471979,-0.15478 0.491281,-0.75895 1.09382,-0.77771 6.439828,0.0965 12.933192,1.64974 17.163529,4.83597 -0.09651,0.36837 -0.673008,0.25857 -0.465425,0.93868 0.510583,0.25857 0.594709,0 1.248234,0 0,-0.27805 -0.162061,-0.78681 0.310283,-0.62712 0.530066,0.24564 0.491281,1.07434 0.93795,1.40538 -0.387854,-2.21277 -1.384619,-3.92716 -1.873352,-5.62006 0.103792,-0.31046 0.929575,0.0965 0.777711,-0.4656 0,-0.2003 -0.200482,-0.21979 -0.154777,-0.46543 -0.776983,0.52369 -0.691764,-0.16206 -1.247688,0 -0.167523,0.94833 0.491282,1.06414 0.465425,1.87281 -0.433012,0.18737 -0.588154,0.6639 -0.777711,1.09382 -1.767921,-1.04084 -4.132554,-1.48368 -5.459086,-2.96663 -0.575226,-0.16206 -0.245641,0.58834 -0.776982,0.46543 -4.203752,-1.71494 -10.204559,-1.74334 -15.137585,-0.77753 -0.361997,0 -0.167524,-0.44613 -0.465425,-0.46543 -0.368552,0.4525 0.290982,0.57523 0,0.77698 -2.5063,0.0965 -4.80101,-0.0965 -6.088757,-1.24768 z m 19.662545,0 c -0.18027,0 -0.361997,0.0965 -0.465424,0.16206 -0.142031,0.71107 0.323211,0.81523 0.928846,0.77771 v -0.77771 c -0.103792,-0.10379 -0.284427,-0.16206 -0.465425,-0.16206 z m 114.234771,0.16206 c 0,0.40734 0.0965,0.66391 0.47198,0.62713 0,-0.21979 0.0965,-0.3427 0.14931,-0.46561 -0.20704,-0.0965 -0.29098,-0.21978 -0.62712,-0.14932 z M 64.833485,118.1962 c -0.103792,0.5754 0.24564,0.69231 0.77771,0.62712 v -0.62712 z m 102.284135,0 c -0.29098,0 -0.60763,0.18755 -0.54299,0.61419 0.18737,0.18027 0.54955,0.16752 0.93868,0.14931 v 0 c 0.16206,-0.50421 -0.10379,-0.74857 -0.40079,-0.77716 z m -8.681,0.0965 c -0.2003,0 -0.34907,0.23908 -0.28443,0.71106 0.29098,0 0.3427,0.18027 0.62712,0.16206 0.40716,-0.48491 0,-0.91919 -0.34269,-0.87203 z m -121.852361,0.24564 c -0.09651,0.673 0.387854,0.60763 0.786815,0.46542 0.09651,-0.49128 -0.329767,-0.50421 -0.786815,-0.46542 z m 129.061521,0.31028 c -0.75841,0.78663 0.91009,1.4855 0.62694,0.16206 -0.2908,0 -0.34251,-0.18027 -0.62694,-0.16206 z m -10.29979,0.16206 c -1.00897,3.46556 -2.51267,6.43528 -4.2114,9.2098 -5.52773,1.36204 -11.64035,1.31997 -17.3245,2.33804 -0.61419,0 -0.47198,-0.66317 -1.09436,-0.62694 -0.23927,0.95871 -1.65812,0.73037 -2.58897,0.99349 2.80748,-1.34711 5.85531,-3.03181 8.82831,-3.64582 0.56885,-0.93868 1.90249,-1.1164 2.65944,-1.87408 0.34907,0.0965 -0.0965,0.91027 0.62694,0.62712 0.543,-0.29098 -0.27787,-0.92903 0.31028,-1.55852 4.57103,-1.5159 8.70559,-3.46501 12.79553,-5.46309 z m 17.79247,0 c -0.0965,0.30391 -0.44594,0.28443 -0.31028,0.78736 h 0.62712 c 0,-0.38785 -0.0965,-0.65425 -0.31028,-0.78736 z m -2.81258,0.62712 c 0,0.38786 0,0.74912 0.31029,0.77753 9.4e-4,-0.31028 0.42664,-0.2003 0.31028,-0.62694 -0.20686,0 -0.2908,-0.22634 -0.62694,-0.16206 z m 9.83419,0 c 0,0.0965 0,0.18027 -0.16206,0.16206 0,0.40716 0.21978,0.51059 0.62712,0.46543 0,-0.40734 -0.0965,-0.67301 -0.46542,-0.62712 z m -2.65616,0.16206 c 0,0.2908 0.18027,0.34252 0.16206,0.62694 0.48489,0.0965 0.69229,-0.13475 0.62712,-0.62694 z m -65.94551,0 c 3.12686,0.0965 6.20709,0.72982 8.36305,1.98315 1.62318,-0.73947 2.6509,1.1927 4.21142,1.09437 0.0965,0.362 0,0.59471 -0.15478,0.77717 0.10379,0.46542 0.61419,0.52351 1.24769,0.46542 -0.16206,0.44594 -0.16206,0.65407 0,1.09364 h 1.09435 c -0.50419,1.15209 0.4913,1.53211 1.40157,1.71639 -0.0965,0.85328 -0.52369,0.21978 -0.77771,0 0.29098,0.73947 0,1.19197 0.62712,1.7162 -1.19672,0.65426 -3.05002,0.50421 -4.05771,-0.15477 -0.20686,0.0965 -0.24564,0.27805 -0.46543,0.31028 0.4525,1.4895 -0.81522,2.10679 0.15478,3.27746 -0.93868,0.38785 -0.23927,1.73314 -0.31028,2.49519 -1.28848,-0.2003 -0.60764,1.57607 -0.77771,2.49599 1.02644,0.90044 2.64778,1.2049 3.58955,2.18819 0.0965,0.41371 -0.46542,0.97418 0,1.24769 -0.13474,0.22615 -0.50421,0.22615 -0.77752,0.31028 -0.0965,0.62694 -0.0965,0.4718 0,1.09364 -0.74933,0 -0.362,-1.09564 -1.0931,-1.09364 -0.34269,-0.0965 -0.22635,0.2908 -0.46542,0.31028 -0.0965,0.84363 0.63349,0.9192 0.62694,1.71566 -0.69158,-0.16752 -0.77698,0.26494 -1.24769,0.31029 -0.40715,-0.47198 -0.13475,-1.63809 -1.09364,-1.56253 -0.49128,0.65426 0.14203,1.51391 0.31029,2.03123 0.56885,0.14203 0.83377,-0.27806 1.09363,0 v 0.31028 c -0.28442,0.54939 -1.48804,0.18027 -1.09363,1.40465 -0.6335,0.28443 -0.91993,0.30375 -1.71639,0.15478 -0.52351,0.44596 -0.0965,0.91009 -0.14932,1.71948 -0.91009,-0.21978 -2.5307,-0.45248 -3.12158,-0.46542 0.26512,0.67302 1.17011,0.72019 1.71894,0.31028 0.0965,0.36855 0.21978,0.71107 0.15477,1.24771 -0.49128,-0.23927 -0.61419,-0.84365 -1.40537,-0.77773 -0.40734,0 -0.40734,0.32958 -0.47198,0.62694 -0.53007,-0.0965 -0.87204,0.0965 -1.24751,0.15477 0.12382,-0.60763 0.46542,-0.99348 0.9385,-1.24748 0.11654,-0.78738 -0.27787,-1.07434 -0.46543,-1.56254 -0.38785,0 -0.75822,0 -0.77698,0.3103 -0.31028,-0.15478 -0.24564,-0.69233 -0.77771,-0.62696 -0.48473,0.0965 -0.77753,0.36837 -0.9385,0.777 -0.26512,-0.2005 -0.20048,-0.73949 -0.62712,-0.777 -0.42664,0.0965 -0.87205,0.16206 -0.77773,0.777 -0.5752,0.16206 -0.24562,-0.58835 -0.77696,-0.47198 -0.76788,0.16752 -0.75896,1.11201 -0.93868,1.87352 -0.54299,-0.13657 -0.34253,-1.00986 -0.77755,-1.24769 0,-0.28441 0.52353,-0.0965 0.62696,-0.31027 -0.15478,-0.52369 0,-1.38735 -0.77698,-1.24768 -0.30373,0.11654 -0.22618,1.15189 0.16206,1.09052 -0.67284,0.10379 -1.07434,0.49128 -1.72021,0.62712 -0.30374,-0.87274 -0.38131,-1.07577 -0.46544,-2.03122 -1.31033,-0.32321 -0.50421,1.46037 -0.92958,2.02013 v 0 c 0,0 0,0 0,0 -0.27786,-0.14203 -0.40077,-0.43301 -0.93849,-0.30374 0.16753,1.34257 1.13188,1.88885 2.03032,2.49903 -0.72983,0.51075 -1.2883,1.20634 -1.71548,2.02722 -0.32977,-0.50423 0.74857,-0.91009 0.46542,-1.86936 0,-0.362 -0.4525,-0.16753 -0.46542,-0.46543 -0.40734,0.16753 -0.74931,0.38786 -0.93868,0.77753 -1.26572,-0.8061 -1.21018,-2.00136 -2.9679,-2.34205 -0.2003,-0.59471 0.25875,-1.28172 -0.9385,-1.0931 0.51058,-0.60761 1.62571,-1.35093 1.09309,-2.49519 -0.91027,0 -1.08926,0.78664 -1.25023,1.55854 -1.275372,-0.67285 1.27226,-1.61153 0.31028,-2.96392 -0.64643,0.18756 -1.35039,1.14354 -0.93868,1.87336 -0.720717,0.16752 -1.715478,0.69231 -1.873353,0.46542 0.92903,-0.40715 -0.484726,-1.26298 0.310281,-1.71876 -0.162061,-0.60763 -0.542992,0 -1.094363,-0.15477 0,-0.4525 0.594707,-0.3427 0.465426,-0.93868 0,-0.122 -0.162061,-0.14932 -0.162061,-0.31028 -0.663177,-0.0965 -0.633494,0.51076 -1.247506,0.46542 0.542997,-1.87281 3.965216,-2.37756 4.215406,-4.21413 0.15478,-1.08854 -1.03446,-1.36659 -0.31046,-2.49527 1.4325,-0.18027 1.9755,-1.25278 2.34205,-2.49919 -1.37752,-0.34907 -1.61278,2.49592 -3.274722,1.87335 0.187372,-0.38786 0.633492,-0.51059 0.776982,-0.9385 -0.24565,-1.1093 -1.142989,-2.83406 -0.776982,-3.90057 -0.806119,-1.22056 -1.828741,-2.2328 -3.746705,-2.34205 0.465424,-0.99167 1.372235,-1.53849 1.715477,-2.65234 0.853462,0.0965 1.395727,-0.16752 1.405377,-0.93868 0.881873,0.32321 1.771923,0.10379 1.558523,-1.09309 1.06286,-0.30391 1.7681,0.362 2.18818,-0.77771 2.34734,-1.08271 5.51991,-1.5902 8.64678,-1.51518 z m -5.8404,26.17224 c 0.16752,-1.02774 0.0965,-1.47641 -0.62712,-2.02724 -0.78663,0.36202 -0.54299,2.24575 0.62712,2.02724 z m 78.34264,-25.90526 c -0.362,0 -0.58815,0 -0.62694,0.31028 0.20686,0.0965 0.30373,0.22616 0.62694,0.16206 z m -1.40538,0 c -0.18737,0 -0.36837,0.15478 -0.31028,0.45249 h 0.62712 c 0.0965,-0.30391 -0.122,-0.45249 -0.31028,-0.45249 z m -133.587574,0.14203 v 0.77753 c 0.663722,0.14203 0.787179,-0.25857 0.938497,-0.62694 -0.18027,-0.18027 -0.549368,-0.16753 -0.938497,-0.14932 z m -9.673399,0.14931 c -0.387854,0 -0.758227,0 -0.776983,0.31029 0.25857,0.32321 0.843628,0.42664 0.776983,-0.31029 z m 69.133023,0.46543 c -0.4008,0.2908 -0.18737,0.76788 0,1.2475 0.41371,0 0.89152,0.0965 1.09435,-0.15477 -0.15478,-0.57523 -0.362,-1.09565 -1.09435,-1.09364 z m -55.538477,0.2908 c -0.09651,0 -0.187372,0 -0.329585,0 -0.258569,0.42026 -0.361997,0.58833 0,0.93868 0.361997,-0.0965 0.672826,-0.16207 0.786633,-0.47198 -0.206855,-0.1038 -0.219784,-0.40716 -0.452496,-0.48473 z m -13.905376,0.16752 c 0.09651,0.38148 -0.284426,0.3427 -0.162061,0.77771 h 0.626939 c 0,-0.40078 0,-0.80612 -0.465424,-0.77771 z m 20.910232,0 c -0.116538,0.6335 0.154778,0.89152 0.777529,0.77771 v -0.77771 z m 10.924729,0 c -0.245641,0.82487 1.029178,0.82487 0.777711,0 z m 40.800402,0 c -0.40734,0.13657 -0.42664,0.6639 -0.38785,1.25552 0.26494,0.20685 0.52351,0.40715 1.09054,0.31028 0.0965,-0.62712 -0.27805,-0.86238 -0.15478,-1.5587 -0.23927,-0.0965 -0.41371,-0.0965 -0.54955,0 z m 55.33161,0 c -0.27805,1.18377 -1.31233,1.60258 -2.03051,2.34205 -0.38784,0 -0.38128,-0.34906 -0.62711,-0.46542 -0.52351,0 -0.16206,0.88168 -0.46542,1.09054 -2.70587,1.31688 -6.88704,2.76669 -10.14247,2.4992 -0.73947,-0.11654 -0.20685,1.04193 -1.09309,0.77753 0.0965,-1.19834 1.71949,-1.01479 1.24751,-2.34187 0.42664,-0.543 0.79646,-0.16753 1.09327,-0.77771 0.11654,-0.53007 -0.63368,-0.20048 -0.46561,-0.77698 0.32977,-0.54956 0.56248,-1.21273 0.77772,-1.87336 v 0 c 4.04551,0.16206 7.31841,-0.60763 11.70498,-0.46542 z m -108.324458,0.22634 c -0.239085,0 -0.465424,0.16752 -0.445941,0.54937 0.588154,0 0.445941,0.16752 0.938497,0 0,-0.34907 -0.258569,-0.543 -0.491281,-0.54937 z m 15.20678,0.10379 c -0.18027,0 -0.400783,0 -0.523694,0.14203 0.09651,0.54937 0.407338,0.40716 0.786815,0.31029 0.09651,-0.27806 -0.09651,-0.40734 -0.265124,-0.4525 z m 79.697028,0 c -0.18755,0 -0.38148,0.14932 -0.31028,0.4525 h 0.62694 c 0.0965,-0.30391 -0.12382,-0.4525 -0.31028,-0.4525 z m -106.972796,0 c -0.264942,0 -0.510583,0 -0.711065,0.122 0.245641,0.69231 2.487544,0.69231 1.718938,1.40538 0.471798,-0.11654 0.452496,0.26494 0.938679,0.16206 0.09651,-0.22634 0.226157,-0.40078 0.310283,-0.62712 -0.484908,-0.50421 -1.464193,-1.00842 -2.257381,-1.05631 z m -4.84107,0.11654 c -0.206855,0 -0.387854,0.10379 -0.387854,0.32321 0.187372,0.16752 0.284426,0.44594 0.776982,0.31028 0,-0.21978 0.09651,-0.34269 0.162061,-0.46542 -0.103791,-0.10379 -0.342695,-0.18027 -0.54955,-0.16206 z m 141.836296,0.20686 c -0.0965,0 -0.13475,0 -0.20686,0 -0.10379,0 -0.20685,0.0965 -0.32321,0.10379 -0.18027,0.63349 0.4718,0.76787 0.77699,0.46542 0.0965,-0.40078 -0.0965,-0.54955 -0.24565,-0.57541 z m -14.10586,0.11653 c -0.13657,0.18027 -0.20685,0.42009 -0.14931,0.77771 h 0.62694 v -0.77771 z m -48.60881,0.13657 c -0.52351,-0.0965 -1.02445,0.40078 -1.95275,0.34251 -0.14203,0.4525 -0.14203,0.48491 0,0.93868 1.09945,0 2.08604,-0.2003 2.49847,-0.93868 -0.18757,-0.20685 -0.36855,-0.30372 -0.54956,-0.34251 z m 58.05442,0.18027 c -0.12383,0 -0.27787,0 -0.40079,0 -0.32958,0.56885 0.79647,0.70196 0.62713,0.15478 0,-0.11654 -0.11654,-0.15478 -0.22634,-0.16206 z m -71.55775,0 c -0.38148,0 -0.74931,0 -0.93868,0.15478 -0.0965,0.81522 0.22634,1.22747 0.77771,1.40538 0.31028,-0.362 0.42664,-1.02918 0.14932,-1.5618 z m -65.116635,0.15478 c -0.400783,0.0965 -0.329767,0.73947 0.2003,0.62694 0,-0.42664 0.258569,-0.31029 0,-0.62694 -0.09651,0 -0.142031,0 -0.2003,0 z m 20.485414,0 c -0.361997,-0.0965 -0.594709,0 -0.777529,0.16206 0.09651,0.58815 0.523512,0.63349 0.938497,0.46542 0,-0.29098 -0.18027,-0.34269 -0.162061,-0.62712 z m 39.951661,0 c -0.5947,1.11895 1.51973,1.60112 2.02977,0.78736 -0.45249,-0.47198 -1.28501,-0.58834 -2.02977,-0.78736 z m 70.06898,0.16206 c -0.0965,0.53007 0.0965,0.89079 0.62712,0.77698 0,-0.29098 0.16752,-0.34907 0.15477,-0.62712 -0.18027,-0.13657 -0.42026,-0.20685 -0.77771,-0.14931 z m -11.81097,0 c -0.18027,0 -0.40078,0 -0.52351,0.14203 -0.11654,0.543 0.54937,0.55592 0.77753,0.31028 0.0965,-0.26512 -0.0965,-0.40733 -0.25857,-0.45249 z m -46.24327,0.14203 c -0.13657,0.18027 -0.20686,0.41371 -0.14932,0.77698 0.88169,0.25857 1.00185,-0.91009 0.14932,-0.77698 z m 34.95982,0 c -0.20048,0.69158 0.40078,0.99039 0.77771,0.62694 0,-0.2908 -0.18027,-0.34251 -0.16206,-0.62694 z m -110.178507,0.14932 c -0.342513,0.36199 -0.09651,0.97546 0.471979,0.93867 0,-0.122 0,-0.30391 0.149315,-0.31028 0,-0.40096 -0.226339,-0.60782 -0.627121,-0.62712 z m 120.397997,0.16206 c -0.14203,0 -0.28442,0.0965 -0.38785,0.14931 0.0965,0.34907 0.2715,0.54937 0.62694,0.62694 0,-0.2908 0.18027,-0.34251 0.16206,-0.62694 -0.10379,-0.10379 -0.24566,-0.14931 -0.38787,-0.14931 z m -83.25636,0.14203 c -0.400782,0 -0.607638,0.22615 -0.627121,0.62694 0.207037,0.0965 0.30391,0.22634 0.627121,0.16206 0.116538,-0.48473 0.116538,-0.2908 0,-0.77753 z m 71.62895,0 c 0,0.122 -0.12929,0.18027 -0.31029,0.14931 -0.11654,0.4718 0.26494,0.46543 0.16206,0.93868 0.38786,0 0.74858,0 0.9385,-0.16206 -0.10379,-0.47198 -0.24564,-0.89152 -0.77753,-0.92903 z m 9.5239,0 c -0.0965,0.2908 -0.44612,0.28442 -0.31029,0.77698 0.20031,0.21978 0.73946,0.21978 0.93868,0 0,-0.50421 -0.18755,-0.74858 -0.62712,-0.77698 z m -36.64963,0.26494 c -0.72982,0 -1.47585,0.36855 -1.27411,1.13789 0.70125,0.23908 1.93601,-0.20704 2.34062,-0.77717 -0.20686,-0.23908 -0.6335,-0.362 -1.06651,-0.362 z m -66.039117,0 c -0.361996,-0.0965 -0.594709,0 -0.777164,0.16206 -0.122001,0.70141 1.040832,0.58834 0.777164,-0.16206 z m -9.520807,0 c -0.245641,0.22634 -0.226157,0.89152 0.310283,0.77771 0.245641,-0.23909 0.226339,-0.89134 -0.310283,-0.77771 z m 16.545512,0 c -0.36837,0.52369 0.310283,1.01042 0.776982,0.62712 v -0.46542 c -0.18027,-0.13657 -0.420084,-0.20686 -0.776982,-0.16206 z m 83.648042,0 c 0.10379,0.8347 -1.13898,0.32321 -0.9385,1.24769 h 0.9385 c -0.16206,-0.5237 0.21976,-0.51077 0.6271,-0.46543 0,-0.50421 -0.18753,-0.74857 -0.6271,-0.77698 z m -44.87159,0.32977 c -0.14932,0 -0.29098,0.0965 -0.38785,0.13474 -0.21979,1.09564 1.24185,1.40411 1.40537,0.46543 0,-0.46543 -0.56885,-0.65425 -1.01752,-0.59471 z m 49.54859,0.13474 c 0,0.49128 -0.36199,0.69177 -0.31028,1.24769 0.31028,0 0.2003,0.42664 0.62694,0.31028 0,-0.122 0.12929,-0.18027 0.31047,-0.16206 -0.13475,-0.62712 0.22615,-1.15063 0,-1.4021 h -0.62713 z m -85.204003,0.14932 c -0.361997,0 -0.607638,0 -0.787361,0.16206 -0.116539,0.70141 1.043927,0.58833 0.787361,-0.16206 z m 5.616231,0.16206 c -0.484908,0.42664 0.2003,1.11057 0.626939,0.62712 -0.09651,-0.362 -0.103792,-0.73055 -0.626939,-0.62712 z m 1.716207,0 v 0 c -0.136568,0.49128 0.142031,0.58833 0.310283,0.77698 0.433195,0 0.663358,-0.27787 0.627121,-0.78663 z m 95.509625,0 c 0,0.36855 -0.54318,0.29098 -0.4656,0.77698 0.24582,0 0.122,0.40078 0.4656,0.31028 0,-0.18737 0,-0.36837 0.31029,-0.31028 0,-0.38785 -0.0965,-0.64642 -0.31029,-0.77698 z m 12.01582,0 c 0,0.38785 0.23927,0.49128 0.46542,0.62712 0.0965,-0.20686 0.22634,-0.30391 0.16207,-0.62712 z m -105.050282,0.14203 c -0.09651,0 -0.167524,0 -0.2908,0 v 0 c -0.09651,0.22634 -0.226339,0.38785 -0.310283,0.61419 0.445941,0 1.071059,0.12929 1.089815,-0.31028 -0.219784,-0.0965 -0.264943,-0.27805 -0.484726,-0.32977 z m 47.169762,0.28443 c -0.56885,0 -1.19652,0.18027 -1.4214,0.36199 0.0965,1.19853 1.91213,0.76806 2.49519,0.31029 0,-0.50421 -0.50421,-0.67301 -1.07379,-0.67301 z m -74.144716,0 c 0,0.0965 0,0.18755 -0.162061,0.14931 0,0.40734 0.219784,0.51077 0.626939,0.46543 0,-0.40716 -0.09651,-0.66391 -0.471797,-0.62694 z m 51.421936,0.10379 c -0.134747,0 -0.265124,0.0965 -0.387853,0.20685 -0.09651,0.91028 0.787363,0.88169 1.405373,1.09382 0.14204,-0.27805 0.43302,-0.40078 0.31029,-0.93868 -0.51076,-0.11653 -0.929029,-0.42663 -1.324528,-0.36199 z m -54.85781,0.0965 c -0.277871,0 -0.484726,0 -0.626939,0.16206 0,0.21978 0.09651,0.34269 0.154777,0.46542 0.407157,0 0.510583,-0.21978 0.465427,-0.62694 z m 33.655324,0.14203 c -0.290799,0.0965 -0.400782,0.30391 -0.413711,0.63349 0.18027,0.13657 0.413711,0.20686 0.776984,0.16206 v -0.78736 c -0.142031,0 -0.264942,0 -0.361996,0 z m -22.641917,0 c -0.09651,0 -0.154777,0 -0.245641,0 v 0.62712 c 0.701961,0.18027 0.730367,-0.543 0.245641,-0.62712 z m 88.866043,0 c -0.86293,0.22634 -1.53139,0.65425 -1.71639,1.55851 h 0.6271 c 0.40735,-0.21978 0.27807,-0.96708 1.09056,-0.77698 z m 29.73399,0.14203 c 0,0 -0.122,0 -0.23908,0 -0.0965,0.20685 -0.22634,0.29098 -0.16207,0.62712 h 0.4718 c 0,-0.20686 0.0965,-0.543 -0.0965,-0.62712 z M 64.723684,125.4203 c -0.239268,0 -0.452496,0.25857 -0.361997,0.59471 0.433012,0.13657 0.407155,-0.21978 0.776982,-0.16206 0.09651,-0.34907 -0.187553,-0.48491 -0.41371,-0.43319 z m 12.437358,0.13657 c 0,0.27787 -0.523693,0.0965 -0.627121,0.31028 0,0.50421 0.349068,0.68248 0.929028,0.62694 0,-0.41371 0.09651,-0.91009 -0.310283,-0.92884 z m 103.620868,0 c 0.0965,0.362 0.10379,0.72982 0.62712,0.62694 v -0.62694 z m -15.25649,0.14203 c -0.11654,0 -0.23909,0 -0.34907,0.16752 -0.10379,0.52352 0.26513,0.58179 0.62712,0.62694 0.362,-0.32321 0.0965,-0.78663 -0.27805,-0.79646 z m 12.91516,0 c -0.36199,0.362 0,0.83452 0.47198,0.77753 0,-0.44594 0,-0.85328 -0.4656,-0.77753 z m -79.55736,0.5623 c -0.187552,0 -0.361997,0 -0.504208,0.0965 -0.329771,1.0543 1.466742,1.49387 1.872618,0.78681 -0.0965,-0.54318 -0.796284,-0.82487 -1.374967,-0.84363 z m -18.759014,0.0965 c -0.26494,0 -0.484726,0 -0.626937,0.15477 0,0.38786 0.239084,0.49128 0.471799,0.62712 0.134748,-0.18027 0.206854,-0.42026 0.162061,-0.77771 z m 42.677764,0 c -0.32321,0 -0.61421,0.0965 -0.85328,0.13656 -0.122,0.543 0.18027,0.66391 0.31026,0.93868 1.70457,-0.51076 2.8177,1.37552 3.27475,-0.77698 -0.60764,-0.20048 -1.78286,-0.34269 -2.73629,-0.28461 z m 17.66191,0.11653 c -0.0965,0 -0.14203,0 -0.25859,0 0.0965,0.85328 -0.94831,0.6142 -0.77769,1.56253 1.05813,0.0965 1.31488,-0.66391 1.55979,-1.40538 -0.28443,0 -0.32958,-0.12929 -0.52351,-0.18027 z m 6.34532,0 c -0.18737,0 -0.38785,7.3e-4 -0.51058,0.13657 v 0.46543 c 0.23908,0.23926 1.07033,0.27805 0.9385,-0.31029 -0.0965,-0.15477 -0.23909,-0.25857 -0.41372,-0.2908 z m 13.84219,0.29736 c -0.21978,0.91919 -0.81522,2.77124 -0.15478,3.90002 1.33418,-0.22634 0.6335,-2.48372 1.09182,-3.58901 -0.32321,-0.0965 -0.44612,-0.38785 -0.93868,-0.31028 z m -10.92473,0.14931 c -0.36199,-0.0965 -0.59471,0 -0.77771,0.16206 0.0965,0.30391 0.0965,0.67301 0.4718,0.62713 0.22634,-0.13657 0.3427,-0.40079 0.31028,-0.78737 z m -45.56791,0.16206 c -0.21977,0.20049 -0.21977,0.73948 0,0.93868 0.362,0.0965 0.59472,0 0.77699,-0.16206 0.13475,-0.44612 -0.21978,-0.40734 -0.16206,-0.77698 z m -21.378926,0.14932 c 0,0.44612 0,0.85328 0.471978,0.77771 0.09651,-0.20686 0.219786,-0.29736 0.149315,-0.62712 -0.206854,-0.0965 -0.290981,-0.22616 -0.627121,-0.15478 z m 58.011816,0.15478 c -0.40078,0.0965 -0.32976,0.73947 0.2003,0.62712 0.25857,-0.31029 0,-0.20048 0,-0.62712 -0.0965,0 -0.14203,0 -0.2003,0 z m 1.29012,0 c -0.16753,0.62712 0.47198,0.76806 0.77771,0.46542 0.0965,-0.49128 -0.32959,-0.50421 -0.77771,-0.46542 z m -4.52881,0.14931 c -0.40733,0.32321 -0.7582,0.69231 -0.77696,1.40538 0.61401,-0.14203 0.38785,0.54299 1.08981,0.31028 0.0965,-0.63349 0.0965,-1.24696 -0.31028,-1.71639 z m 41.28259,0.15478 c -0.12382,0 -0.26494,0 -0.38785,0 v 0 c -0.32959,0.58178 0.78663,0.70141 0.62712,0.15478 0,-0.11654 -0.11654,-0.15478 -0.22634,-0.16207 z m -133.510733,0 c -0.09651,0.20685 -0.226339,0.30391 -0.162061,0.62712 0.44594,0.13657 0.407155,-0.21978 0.786633,-0.16206 0,-0.40734 -0.219784,-0.51077 -0.627122,-0.46543 z m 125.268023,0 c -0.0965,0 -0.11654,0 -0.18027,0 -0.0965,0 -0.15478,0.0965 -0.2391,0.13657 0,0.29098 0.18027,0.34269 0.16206,0.62712 0.70198,0.0965 0.64642,-0.68266 0.26494,-0.76806 z M 70.296577,127.8332 c 0.445941,0.79646 0.284427,2.21277 0.310283,3.43587 h -1.09382 c 0,1.07361 0.446123,1.74152 0.938679,2.33805 1.02062,-0.27787 1.554692,-0.3813 2.184181,0.31028 0.575407,0.0965 0.284426,-0.74912 0.777164,-0.77752 3.805519,0.40715 8.163139,1.5068 12.642211,0.93849 2.06673,-0.26494 4.181898,-1.19907 6.240804,-0.62694 -4.820495,0.91009 -10.029569,3.06612 -15.447323,2.34067 -0.549368,0 0.329767,0.51077 -0.162061,0.47198 -0.426639,0 -1.155731,0.21979 -0.938679,-0.47198 -3.616144,0.26513 -6.950958,-1.04272 -9.673763,-2.1868 -0.290982,-0.29098 0,-0.38785 0,-0.77771 -3.077702,0.31028 -3.855412,-1.74225 -3.746158,-4.2083 2.375741,-0.59471 5.362215,-0.84363 7.960835,-0.78682 z m 105.026243,0 c 0,0.38785 0.23927,0.49128 0.46543,0.62712 0.0965,-0.20686 0.22634,-0.29098 0.16206,-0.62712 z m -89.190523,0.16206 c -0.142031,0 -0.284424,0.0965 -0.387848,0.15478 0,0.40733 0.219778,0.51076 0.626937,0.46542 0,-0.21978 0.09651,-0.34251 0.154778,-0.46542 -0.103792,-0.10379 -0.245641,-0.15478 -0.387854,-0.15478 z m -38.660092,0 c -0.103792,0 -0.200482,0.0965 -0.278053,0.14203 -0.09651,0.49128 0.329767,0.50421 0.777165,0.47198 0.136568,-0.47198 -0.200483,-0.67374 -0.50421,-0.61419 z m 4.095226,0.14203 c 0,0.20686 -0.09651,0.3427 -0.162061,0.47198 0.206855,0.0965 0.303727,0.21978 0.626939,0.14932 v -0.62713 z m 19.976652,0 c 5.13023,0.43957 10.043046,1.08672 14.357325,2.33951 0.303908,-0.362 -0.891336,-0.56248 -1.405378,-0.62713 2.982651,-0.36837 5.255691,1.3899 7.33262,2.02668 -4.290425,1.17193 -11.101175,1.23275 -16.541688,0.46542 -0.748576,-0.10379 -2.435102,-0.21978 -3.274177,-0.77771 -0.452496,-0.71106 0.484908,-0.42027 0.465424,-1.09382 0.136568,-0.65407 -0.691581,-0.34251 -0.928846,-0.62694 0,-0.58178 0,-1.14426 0,-1.71639 z m 66.945567,0.15478 c -0.0965,0.32321 -0.38787,0.44612 -0.31028,0.93868 0.18027,0.12928 0.42008,0.20685 0.77752,0.15477 0.3427,-0.38148 0.122,-1.15518 -0.46542,-1.09054 z m -34.76919,0.18755 c -0.16752,0 -0.34906,0.13475 -0.50421,0.43301 0,0.59471 0.21979,1.02536 0.77699,1.09128 0.65425,-0.48491 0.22633,-1.54177 -0.28443,-1.52556 z m -54.906973,0 c -0.136568,0 -0.284426,0 -0.523511,0.10379 0,0.44594 0.2003,0.73947 0.776982,0.62694 0,-0.21978 0.09651,-0.34251 0.154777,-0.46542 -0.162061,-0.13475 -0.278053,-0.22616 -0.407337,-0.25857 z m 16.946294,0.122 c -0.361996,0 -0.786632,0.18737 -0.776982,0.59471 0.400783,0.362 1.146081,0.3813 1.093821,-0.46542 -0.09651,-0.0965 -0.200482,-0.122 -0.323212,-0.12929 z m 24.821184,0.12929 c -0.407156,0 -0.67283,0.0965 -0.626939,0.46542 0.264942,0.28443 0.614007,0 0.626939,-0.46542 z m 45.032735,0.0965 c -0.42026,0 -0.91992,0.10379 -1.17794,0.0965 -0.13657,0.50421 0.24564,0.48473 0.31028,0.77699 0.61419,-0.0965 1.34329,0 1.24769,-0.77699 -0.11654,-0.0965 -0.23927,-0.0965 -0.38148,-0.0965 z m -47.062503,0.0965 c 0,0.40716 0.09651,0.66318 0.471978,0.62694 0.226157,-0.21978 0.09651,-0.73947 -0.465421,-0.62694 z m -33.896414,0.4525 c -0.349069,0 -0.646423,0.4718 -0.278053,0.79628 0.491281,0.0965 0.69231,-0.13656 0.627121,-0.62694 -0.103792,-0.122 -0.226339,-0.16752 -0.342695,-0.16752 z m 37.02,0 c -0.387853,0 -0.758223,0 -0.77698,0.31028 0.290799,0.0965 0.284426,0.44594 0.77698,0.31029 z m 59.144967,0 v 0 c 0.15478,0.73874 0.52352,1.24623 0.62694,2.02394 -1.07688,-0.22634 -2.45258,-0.14203 -3.7467,-0.15478 -0.59471,0.0965 -0.10379,-0.93868 -0.62694,-0.93868 -0.69249,-0.0965 -0.30391,0.86312 -0.46542,0.93868 -0.76806,0 -1.50171,0 -1.87354,-0.31028 -0.61401,-0.24564 -0.0965,0.67301 -0.46542,0.62694 -3.76419,0.8347 -9.10491,0 -13.26678,0.77771 1.40665,-1.8708 5.90976,-0.64642 7.96081,-1.87335 3.85926,0 7.33009,-0.4718 10.9222,-0.77771 0.32321,-0.0965 0.44612,-0.38786 0.93868,-0.31029 z m 15.60556,0 c 0,0.40715 0.0965,0.66317 0.46543,0.62694 0.0965,-0.20686 0.22615,-0.2908 0.16206,-0.62694 z m 4.99367,0 c -0.27788,0 -0.48473,0 -0.62694,0.14931 -0.13657,0.50421 0.23908,0.49129 0.47179,0.62694 0.13657,-0.18027 0.20686,-0.41371 0.15478,-0.77698 z m -13.41665,0.14931 c -0.0965,0 -0.18755,0 -0.31028,0 v 0.62694 h 0.62694 c 0.0965,-0.36837 -0.0965,-0.57522 -0.31028,-0.62694 z m -87.930817,0 c -0.663175,-0.11653 0.09651,1.32253 0.381481,0.16207 -0.162061,-0.0965 -0.284426,-0.14204 -0.381481,-0.16207 z m 105.013497,0 c -0.14203,0 -0.28442,0.0965 -0.38785,0.14932 0,0.40078 0.22616,0.59471 0.62694,0.62694 0,-0.20686 0.22634,-0.2908 0.15478,-0.62694 -0.1038,-0.10379 -0.24565,-0.14932 -0.38786,-0.14932 z m -19.35426,0.11654 c -0.26513,0 -0.49128,0.10379 -0.38786,0.34907 0.24564,0.28443 0.91975,0.4525 0.9385,-0.14931 0,-0.122 -0.29735,-0.20686 -0.54937,-0.20049 z m -60.349321,0 c 0.284426,0 0.614191,0 0.973456,0 v 0 0 c 0.226341,0.8622 0.691767,1.49315 1.089998,2.18418 -0.09651,0.0965 -0.142031,0.0965 -0.219784,0.0965 -0.09651,0 -0.167523,0 -0.265126,0 -0.381296,-0.13657 -0.872035,-0.51058 -1.48149,-0.67282 -0.303912,-0.0965 -0.633678,-0.1038 -0.997496,0 v 0 0 c -0.09651,-0.20049 -0.09651,-0.34907 -0.116538,-0.51077 0,0 0,-0.10379 0,-0.14203 -9.63e-4,-0.18737 0,-0.34907 0.122001,-0.4718 0.162061,-0.26512 0.484724,-0.40734 0.91009,-0.45249 z m -28.674593,0 c -0.361996,1.04848 1.293575,1.04848 0.929575,0 z m 109.706534,0 c -0.0965,0.22616 -0.22634,0.38786 -0.31029,0.62694 0.18027,0.13657 0.42009,0.20686 0.77771,0.16206 0.0965,-0.49128 -0.18755,-0.63349 -0.46542,-0.77771 z m -128.278536,0.14932 c -0.09651,0 -0.187553,0 -0.310283,0 v 0.62694 h 0.626939 c 0.09651,-0.36837 -0.09651,-0.57523 -0.310283,-0.62694 z m 26.316331,0.16752 c -0.187554,0 -0.387854,0.10379 -0.568853,0.14203 0.09651,0.3813 0.134748,0.80612 0.62694,0.77753 0.310465,-0.10379 0.413892,-0.41371 0.471979,-0.77753 -0.149314,-0.14931 -0.329766,-0.16752 -0.523693,-0.14203 z m -16.799529,0.14203 c -0.50421,0.72072 0.834522,1.12933 0.626939,0 z m 29.035314,0.25857 c -0.142031,0 -0.258569,0 -0.323213,0.0965 0.900441,0.24564 -0.162061,0.68266 0.310281,1.24878 h 0.465426 c 0.09651,-0.82469 0.342513,-0.89134 0.938497,-0.9385 -0.264941,-0.16752 -0.959802,-0.36199 -1.394269,-0.36855 z m -9.381692,0.34907 c -0.673736,0.0965 -0.76806,0.96763 0,0.9567 0.407155,-0.20685 0.484726,-0.51076 0.310283,-0.93867 v 0 c -0.122001,0 -0.226339,0 -0.323211,0 z m -9.354012,0 c -0.361997,-0.0965 -0.594709,0 -0.77771,0.15478 0,0.40715 0.09651,0.673 0.465424,0.62694 0.226339,-0.13657 0.342695,-0.40079 0.310283,-0.78718 z m -12.915165,0 c -0.09651,0 -0.116538,0.0965 -0.187371,0.122 0,0.84363 0.61401,0.44594 0.310283,1.40465 0.407155,0 0.672826,-0.0965 0.626939,-0.46542 -0.407156,-0.20049 -0.303728,-0.51077 -0.154778,-0.93868 v 0 c -0.297354,0 -0.420083,-0.16753 -0.588153,-0.122 z m 9.486575,0.28443 v 0 c -0.368553,0.42663 -0.349251,0.97873 0.465424,0.93849 0.219784,-0.2003 0.219784,-0.73947 0,-0.93849 z m 102.260104,0 c -0.14203,0 -0.28443,0.14203 -0.362,0.27787 0.122,0 0.18027,0.13656 0.16206,0.31028 0.40734,0 0.67301,-0.0965 0.62712,-0.46543 v 0 c -0.11653,-0.122 -0.27805,-0.14931 -0.41371,-0.11653 z m -85.966242,0 c -0.277873,0 -0.56885,0.18737 -0.530067,0.57522 0.18027,0 0.239268,0.18027 0.310283,0.31028 0.290981,0 0.342697,-0.18027 0.627121,-0.16206 0.122001,-0.48472 -0.134747,-0.72071 -0.40078,-0.73947 z m -30.497503,0.11653 c -0.361997,-0.0965 -0.594709,0 -0.776982,0.14932 -0.206855,0.92957 1.115125,0.75895 0.776982,-0.14932 z m 44.136115,0.22616 c 0.226159,0 0.323213,0.11654 0.80539,0.0965 0.09651,0.38148 -1.2211,0.56885 -1.093824,0 0.122001,-0.0965 0.206859,-0.0965 0.28443,-0.0965 z m -34.147334,0.0965 c -0.27787,0 -0.484726,0 -0.626939,0.16206 -0.162061,0.47198 0.349069,0.27805 0.626939,0.31028 v -0.46542 z m -2.28779,0.21978 c -0.136569,0 -0.284426,0 -0.523512,0.10379 -0.09651,0.362 0,0.59471 0.162061,0.77771 0.465425,0 0.654253,-0.27787 0.777711,-0.62693 v 0 c -0.162061,-0.13657 -0.284427,-0.22634 -0.413711,-0.25876 z m 112.980704,0.122 c -0.18027,0 -0.40078,0 -0.52351,0.13657 -0.11654,0.543 0.54937,0.55593 0.77753,0.31028 0.0965,-0.26494 -0.0965,-0.40715 -0.25857,-0.44594 z m -117.874763,0.13657 c -0.310283,1.01825 1.098919,1.01825 0.786633,0 z m 29.029487,0 c 0,0.21979 -0.09651,0.3427 -0.16206,0.46543 0.303724,0.30391 0.957252,0.16206 0.77698,-0.46543 z m 86.765076,0 c 0,0.31028 -0.42664,0.20048 -0.31029,0.62712 0.18027,0.13657 0.42027,0.20686 0.77771,0.16206 -0.14203,-0.27805 0,-0.83452 -0.46542,-0.77771 z m 4.68283,0 v 0.77717 h 0.62694 v -0.77717 z m -45.76437,0.14203 c 0.70141,0.0965 1.42413,0.18027 1.91341,0.16753 v 0 c 0,0.18755 -0.34907,0.27805 -0.58816,0.38148 -0.11653,0.0965 -0.21996,0.11653 -0.23926,0.20685 0,0.0965 0,0.2003 0.20685,0.34907 v 0 c -0.15477,0.13657 -0.40734,0.16206 -0.59471,0.25857 -0.18755,0.0965 -0.30391,0.26512 -0.18027,0.68266 0.13657,0 0.25857,0 0.362,0 0.10379,0 0.20028,0 0.27785,-0.0965 0.0965,0 0.0965,-0.0965 0.10379,-0.14203 0,0 0,0 0,-0.0965 0,-0.0965 0,-0.20685 0,-0.34907 v 0 h 1.55872 c 0,0.11654 0,0.20686 0,0.28443 0,0.0965 0,0.14203 -0.0965,0.20685 -0.0965,0.11654 -0.2005,0.18738 -0.32323,0.25857 -0.12928,0.0965 -0.27803,0.122 -0.40076,0.18737 -0.12382,0.0965 -0.22636,0.16207 -0.27807,0.30391 v 0 c -1.59093,-0.0965 -2.82624,-0.50421 -4.36855,-0.62712 v -0.93995 c 0.8622,0.41371 0.41373,-0.49128 0.77699,-0.77771 0.43301,-0.3427 1.12732,-0.38148 1.83256,-0.32977 z m 18.73879,0.18756 c 0.54298,0 1.07835,0 1.59931,0 1.39045,0 2.69768,0.21978 3.89019,0.60763 v 0 c -0.0965,0.36837 0.28443,0.34252 0.15478,0.77699 0.10379,0.56885 -0.73949,0.18755 -0.77753,0.62712 -0.20686,0.7776 0.90044,0.23908 0.62694,1.09061 -6.04615,1.21127 -13.12785,0.24564 -19.03743,-0.31028 -0.69233,-0.0965 -1.4041,0.16206 -2.02977,-0.15478 0,-0.38785 0.99804,-1.17084 0.16206,-1.40865 0.81504,-0.49128 2.19456,-0.62712 2.65287,0.16206 0.57541,0 0.30393,-0.50421 0.46542,-0.62712 4.21213,0.122 8.49928,-0.65407 12.30045,-0.75823 z m 9.86205,0.2908 c -0.0965,0.53006 -0.42664,0.82487 -0.46542,1.40483 h 0.93867 c -0.15477,-0.64643 0.38786,-1.00005 0,-1.40483 z m -14.53505,0.60763 c -0.38148,0.0965 -0.50421,0.43975 -1.07306,0.3234 0.10379,1.10074 1.51008,0.45249 1.56234,-0.31047 v 0 c -0.20685,-0.0965 -0.36199,0 -0.48472,0 z m -2.84298,0.31047 c -0.29098,0.0965 -0.40078,0.30373 -0.40734,0.63349 0.18027,0.13475 0.41371,0.20686 0.77771,0.16206 v -0.77698 c -0.14203,0 -0.26512,0 -0.36855,0 z m -63.770812,0 c -0.09651,0.22615 -0.226339,0.38785 -0.310465,0.62694 0.18027,0.18027 0.54955,0.18027 0.938679,0.15477 0.09651,-0.38129 -0.284426,-0.34251 -0.162061,-0.77771 z m 59.924502,0 v 0 c -0.13657,0.18027 -0.20685,0.42008 -0.16206,0.77753 h 0.78736 c 0.0965,-0.3813 -0.28442,-0.34252 -0.16206,-0.78664 z m -37.612894,0.77753 c 0,0.40733 0.329765,0.40733 0.627116,0.46542 -0.491278,0.53014 -0.426638,1.02088 -0.162061,1.71956 -1.140986,0.16206 -1.766831,0.8347 -2.495921,1.40155 -0.588338,0.16206 -0.245643,-0.58833 -0.786819,-0.46542 -0.701228,0 -0.626937,0.83452 -0.626937,1.56234 -1.511357,1.03628 -2.963891,2.1352 -3.746702,3.90075 0.938499,0.15478 0.776981,-0.78681 1.562339,-0.77771 -1.848223,1.7712 -2.592793,4.24838 -4.215402,5.77319 -0.575229,0.54955 -1.891382,1.43071 -2.652337,1.71566 -1.527564,0.58179 -3.41639,0.0965 -5.773197,0.31029 -1.162286,0.13657 -2.280143,0.69251 -3.435874,0.77771 -2.192011,0.16206 -4.402231,-0.13657 -6.706774,0 -1.599305,0.0965 -3.486131,0.14203 -4.997668,0 -2.641958,-0.24564 -6.276857,-3.15981 -5.148075,-5.93034 0.673554,-1.65612 4.885136,-3.7467 7.178025,-4.21158 3.500334,-0.71107 6.911626,-1.3167 9.989327,-1.71949 -1.590928,1.06269 -3.327894,1.98061 -4.841252,3.12104 -0.258569,0 0.245641,-0.73965 -0.149314,-0.93868 -0.226157,0.0965 -0.400783,0.23927 -0.62694,0.31029 0.09651,0.30391 0.09651,0.673 0.465425,0.62712 -0.786633,0.88168 -1.920513,1.40975 -2.495192,2.49903 2.161601,-0.43958 3.142343,-2.05764 5.148075,-2.6529 0.310283,0.9385 0.265124,2.2237 1.247687,2.49574 -1.267717,0.50439 -1.785402,1.75191 -3.589559,1.71566 -0.09651,1.46822 -2.14758,1.78431 -2.341507,3.58974 0.996219,-0.0965 1.014246,-1.17064 2.341507,-0.93866 0.646423,-1.64576 2.140297,-2.43965 3.904394,-2.96391 -0.303909,0.30391 -0.162061,0.95488 0.465425,0.77773 0.290981,-0.67303 0.149314,-1.27537 0.310283,-2.02722 2.936034,0.38785 3.629072,-1.46931 6.084933,-1.56254 0.342515,0 0.329583,-0.38786 0.310283,-0.77753 3.944452,-1.83074 8.070633,-3.47466 12.326829,-4.99439 -0.277867,-1.26244 1.212728,-2.48689 2.810029,-2.8101 z m 38.545564,0 v 0.62712 h 0.78682 v -0.62712 z m 11.39416,0 v 0 c -0.10379,0.4849 -0.10379,0.30391 0,0.77778 h 1.24769 v -0.78743 z m -70.535125,0 c -0.368552,-0.0965 -0.594709,0 -0.77771,0.15477 -0.116538,0.57541 0.24564,0.69184 0.77771,0.6272 z m 26.131505,0.77778 c -0.22633,0 -0.42663,0 -0.54299,0.16206 v 0.46542 c 0.54299,0.38149 1.40975,0.4332 1.2475,-0.62712 -0.22616,0 -0.48472,0 -0.70196,0 z m -12.400572,0.32321 v 0 c 0,0 0,0 0,0 v 0 c -0.452495,0.23927 -0.988392,0.40078 -1.568896,0.51077 -0.588332,0.11653 -1.216548,0.18737 -1.846947,0.25857 0,0 0,0 0,0 0,5.4e-4 0,0 0,0 0.426639,-0.2715 1.005321,-0.40079 1.615509,-0.48491 v 0 c 0.607638,-0.0965 1.253514,-0.14932 1.81654,-0.2908 z m 2.806751,0.31028 c 0.187554,0.81577 -0.329586,0.91993 -0.938497,0.93868 -2.3304,1.2069 -4.694486,2.38011 -7.489036,3.12159 -0.329587,0.29098 -0.796468,0.44612 -1.247691,0.62712 -0.530067,0.11654 -0.200296,-0.6335 -0.787358,-0.46543 -0.42664,0.41372 0.116539,0.54937 0.162061,0.9385 -2.443474,0.97291 -4.509482,3.03691 -7.958101,2.49519 -2.364086,-3.16292 2.912185,-3.05566 3.589015,-5.14807 5.519907,-0.20048 10.601515,-0.84363 14.668152,-2.49793 z m 31.614641,0.76806 c 0.27787,0 0.62694,0.31029 1.00332,0.18027 -0.25857,0.77771 -0.79647,0.24564 -1.25024,0 0.0965,-0.122 0.14932,-0.16752 0.24564,-0.18027 z m -19.59609,0 v 0 c -0.73947,-0.122 -0.9192,0.32322 -0.92885,0.92885 0.77753,0.15478 1.01352,-0.23909 0.9385,-0.9385 z m 21.69378,0.62694 c 3.53147,0.16206 5.83929,1.55033 9.9886,1.09328 2.32857,1.17576 6.4309,-0.22634 8.73672,1.09436 0,0.61401 -1.09,0.0965 -0.77717,0.92885 0.28443,0.34269 0.91938,0.32977 1.56253,0.31028 -0.16206,0.89152 0.68266,0.76806 0.77698,1.4021 -0.2003,0.58197 -0.3813,1.1896 -0.62694,1.71894 -3.76746,-0.16206 -7.55295,-1.90376 -11.23647,-3.12104 -3.11375,-1.02644 -6.72607,-1.5119 -8.4268,-3.43442 z m -19.9774,0.31029 c -0.72089,0 -0.90062,0.54955 -0.93867,1.24768 0.28442,0.38786 0.96453,0.38786 1.2475,0 -0.0965,-0.76733 -0.30372,-0.59471 -0.31028,-1.24768 z m 1.55981,0 c -0.27808,0.51076 -0.76806,1.44999 -0.31029,2.18509 1.28702,0.34251 1.0077,-1.93618 0.31029,-2.18509 z m 3.58826,0 c -0.86291,0.18027 -1.14988,0.92957 -1.24748,1.87353 0.18027,0 0.24564,0.16752 0.31028,0.31028 0.69158,0.0965 0.82487,-0.42664 1.2475,-0.62712 -0.16752,-0.45249 -0.44594,-0.80539 -0.3103,-1.55852 z m 1.56254,0 c -0.16752,0.45267 -0.6639,0.58833 -0.62712,1.24768 0.82486,0.15478 1.05831,-0.2908 1.24769,-0.77698 -0.40734,0 -0.122,-0.60764 -0.62712,-0.46542 z m -11.85886,0.4656 v 0 c -0.77771,0.2908 -1.83002,0.85328 -1.40538,1.8668 0.79647,-0.30373 1.47712,-0.70142 1.71621,-1.55852 0,-0.16752 -0.16753,-0.24564 -0.31029,-0.31028 z m 17.47892,0.46543 c -0.30373,0.45249 0,1.39882 0.62712,1.40465 0.40076,-0.54955 0,-1.40028 -0.62712,-1.40465 z m 16.83504,0.30372 c -0.0965,0 -0.18027,0 -0.2908,0 -0.13657,0.18027 -0.20686,0.41372 -0.15478,0.77771 0.79646,0.2908 1.0259,-0.68265 0.45249,-0.79646 z m -33.069,0 c -0.96509,0.30391 -2.14158,1.4571 -1.55852,2.34206 0.75823,-0.543 1.52883,-1.07434 1.56106,-2.34206 z m 17.94634,0 c -0.53006,0.38148 -0.2908,1.29358 0.62712,1.09437 0.13475,-0.71106 -0.16752,-0.97419 -0.62712,-1.09437 z m 11.86141,0 c 0,0.38786 0.23926,0.49129 0.47198,0.62713 0,-0.29099 0.16752,-0.34907 0.15477,-0.62713 z m 14.04977,0.31029 c 2.28706,0.72071 5.13842,0.31028 7.80114,0.77771 1.83967,0.32321 3.35885,1.49005 4.99439,1.56106 -0.11654,0.48491 0.543,0.18756 0.31028,0.77771 3.58574,0.15478 5.18049,5.36022 2.34188,7.48904 -6.08803,2.72845 -15.99924,5.02079 -22.47258,1.56234 -1.89993,-1.01625 -3.22574,-3.69299 -5.14825,-5.15081 -2.34788,-1.78285 -4.80484,-4.29497 -6.7106,-6.08493 1.30377,-0.42664 5.04537,0.74858 6.86392,1.4041 0.71104,0.25857 1.03682,0.47198 2.03102,0.77699 0.8817,0.27805 1.74152,0.51076 2.6529,0.77771 1.05121,0.31028 2.78235,0.7493 3.27418,1.56179 h 0.78734 c 1.46877,2.06475 3.90787,3.15784 6.70297,3.89731 0.38785,-0.15478 -0.2198,-0.59473 0,-1.08728 -1.1215,0.20685 -2.57222,-0.21979 -3.278,-1.25078 2.91673,-1.90631 6.3679,0.67355 7.80314,2.65233 0.43301,-1.57998 -2.25556,-3.72356 -4.21413,-4.21158 -0.95944,-0.23927 -2.07055,-0.0965 -3.12104,-0.15478 0.15478,-1.20489 0.73947,-2.09641 0.46543,-3.27873 -0.2198,-0.95543 -1.42159,-1.17448 -1.09056,-2.02649 z m 3.43187,8.27186 c 0.46542,0 0.53006,0.58178 0.93868,0.15478 0.22615,-0.27807 -0.14932,-0.89154 -0.62712,-0.9387 -0.54955,0.0965 -0.40079,0.40734 -0.31029,0.77773 z m -10.6139,-8.11472 v 0 c -0.32321,0.49128 -0.6335,0.0965 -1.09364,0.30373 0,1.18377 0.72982,0.20685 1.40465,0.31028 0,-0.36199 0,-0.58815 -0.31028,-0.62694 z m -48.781813,0.16206 c -0.116538,0 -0.24564,0 -0.381478,0.14932 0.09651,0.2908 0.09651,0.67355 0.465424,0.62694 0.446121,-0.16753 0.258569,-0.72982 -0.09651,-0.77699 z m 13.042993,0.14932 c -1.08727,-0.10379 -1.31871,1.14353 -1.09054,1.8739 1.07306,0.0965 0.92902,-1.04193 1.09054,-1.8739 z m 13.15317,0.2003 c -0.16206,0 -0.32977,0 -0.51077,0.11654 0.26494,0.56885 0.48491,1.18377 1.24769,1.24841 0.10379,-0.69249 -0.25857,-1.28593 -0.73965,-1.36204 z m -17.795763,0.10379 c -0.901164,0.18027 -1.090537,1.65812 -0.349064,2.0376 0.491283,-0.44594 0.672822,-1.1998 0.777527,-2.0285 -0.154776,0 -0.303729,0 -0.426642,0 z m 45.028013,0.31028 c -0.34907,0 -0.64645,0.47198 -0.2715,0.79647 0.49128,0.0965 0.69231,-0.13475 0.62712,-0.62694 -0.10379,-0.122 -0.22634,-0.16752 -0.3427,-0.16752 z m -14.79562,0 c 0,0.42664 -0.26494,0.31029 0,0.62712 2.25993,1.69309 4.9272,2.98065 7.33644,4.52498 -0.36855,0 -0.0965,0.68264 0,0.77769 0.72017,0.14932 0.9476,-0.20028 1.40411,-0.31028 3.11248,1.82874 7.08807,2.79584 9.52062,5.3054 0.67301,-0.20046 0.89152,-1.54376 0.62712,-2.18436 -0.79646,-0.27803 -0.362,0.67284 -0.93868,0.62694 -0.60763,-0.53007 -1.54049,-0.7491 -2.18436,-1.24751 0.0965,-0.24564 0.49128,-0.13656 0.31028,-0.62712 -2.18946,0.38148 -4.06918,-1.16811 -6.08748,-1.87335 0.2522,-0.42006 0.362,-0.59469 0,-0.93866 -0.69231,-0.16752 -0.77753,0.26512 -1.24823,0.31028 -1.23203,-1.17323 -4.13329,-1.28958 -4.05772,-3.27474 -1.885,0.83452 -2.85846,-1.49515 -4.68338,-1.71639 z m -49.528569,0 c -0.219784,-0.0965 -0.445942,0.0965 -0.720168,0.13657 0,0.29098 0.18027,0.3427 0.162061,0.62712 0.510762,0 0.749301,-0.18755 0.777707,-0.62712 -0.09651,-0.0965 -0.142031,-0.11654 -0.219784,-0.13657 z m 24.567169,0.13657 c -0.32977,0.49128 -0.44613,1.42158 0,1.87335 0.92884,-0.14203 0.87203,-0.34907 1.7162,0 0.0965,-0.36199 0.31029,-0.93849 0,-1.2475 -0.38785,0 -0.74912,0 -0.93849,0.15477 0,-0.54955 -0.22635,-0.81576 -0.77771,-0.77771 z m 7.17931,0.16206 c 0,0.76806 0.38148,1.17795 0.92884,1.40538 0.22634,0 0.26513,-0.25857 0.46561,-0.31028 -0.24582,-0.58816 -0.50439,-1.16684 -1.40283,-1.0931 z m 2.76923,0.0965 c -0.0965,0 -0.18027,0 -0.27787,0.0965 0.0965,0.74857 0.3427,1.3187 1.0931,1.40082 0.34906,-0.58815 -0.18738,-1.55469 -0.81523,-1.49442 z m -37.729068,0.0965 c -0.18027,0.22634 -0.446123,0.38148 -0.465424,0.77716 0.426639,-0.11654 0.310283,0.31029 0.626939,0.31029 0,-0.18756 0,-0.36856 0.310283,-0.31029 0,-0.44612 0,-0.85346 -0.465425,-0.77716 z m 64.920718,0 c -0.11654,0.48491 -0.11654,0.30391 0,0.77716 h 0.77771 v -0.77716 z m 7.79476,0.36199 c -0.28442,0 -0.49128,0.0965 -0.61403,0.41372 0.50423,0.21978 0.81579,0.45249 0.93852,-0.31029 v 0 c -0.11654,-0.0965 -0.21978,-0.0965 -0.32321,-0.10379 z m 1.64592,0 c -0.0965,0 -0.15477,0 -0.38785,0.0965 0.0965,0.30391 0.0965,0.66336 0.46542,0.62712 0.20686,-0.10379 0.2908,-0.32976 0.31029,-0.62712 -0.23927,-0.0965 -0.31029,-0.0965 -0.38786,-0.0965 z m -61.580796,0.0965 c -0.09651,0 -0.180271,0 -0.2908,0 v 0 c -0.136568,0.18027 -0.206857,0.41371 -0.154777,0.77717 0.79628,0.2908 1.025899,-0.68266 0.452496,-0.79647 z m 50.822686,0.16206 c -0.14203,0 -0.28443,0 -0.40078,0.16206 0,0.56248 0.22634,0.81595 0.77716,0.77772 v 0 c 0.40716,-0.40079 0,-0.9192 -0.38148,-0.93868 z m 3.96794,0 v 0.62713 c 0.49127,0.0965 0.70142,-0.13657 0.62694,-0.62713 z m 9.79741,0.6142 c -0.34907,0 -0.64643,0.47179 -0.2715,0.79646 0.49128,0.0965 0.70121,-0.14203 0.62694,-0.62712 -0.10379,-0.122 -0.22616,-0.16752 -0.34909,-0.16752 z m 1.59529,0 c 0,0.38785 0.34907,0.3813 0.46543,0.62694 0,-0.2908 0.18027,-0.34252 0.16206,-0.62694 z m -69.223517,0.2908 c -0.329586,0.0965 -0.465426,0.32321 -0.381302,0.79646 h 0.77753 v -0.77698 c -0.154777,0 -0.297353,0 -0.40078,0 z m -9.245852,0.24564 c -0.239267,0 -0.342695,0.0965 -0.646423,0.23926 -0.116538,0.42664 0.310283,0.31029 0.310283,0.62713 0.433012,0 0.663175,-0.27806 0.626939,-0.77717 -0.116538,0 -0.206855,-0.0965 -0.284426,-0.0965 z m 77.690389,0.0965 v 1.25152 c 0.48491,0.11653 0.30391,0.11653 0.77698,0 -0.16206,-0.362 -0.0965,-0.94761 -0.31028,-1.25152 z m -35.88994,0 c -0.70142,0.92958 1.03735,2.6873 1.55851,1.40229 -0.69176,-0.29098 -0.84363,-1.12496 -1.55851,-1.40229 z m -54.789361,0.0965 c -0.504209,0 -1.054306,0.56904 -1.241131,1.02281 0.18027,0.18027 0.54955,0.16752 0.938678,0.15478 -0.162061,-0.5237 0.219784,-0.51077 0.62694,-0.46543 0,-0.21978 0.09651,-0.34907 0.16206,-0.47198 v 0 c -0.14203,-0.16752 -0.303727,-0.23908 -0.471797,-0.23908 z m 0.796466,0.0965 c -0.09651,0.20686 -0.219783,0.30391 -0.162061,0.62712 0.2003,0.20686 0.729821,0.20686 0.928846,0 0,-0.43319 -0.264942,-0.6639 -0.777528,-0.62712 z m 2.023941,0 c -0.09651,0.53025 0.09651,0.89079 0.627121,0.77717 0,-0.27806 0,-0.48491 0.162061,-0.62713 -0.18027,-0.12928 -0.420266,-0.20685 -0.787361,-0.14931 z m 18.728602,0 c -0.361996,-0.0965 -0.594712,0 -0.777167,0.14932 0,0.40733 0.219783,0.51076 0.627121,0.47198 0,-0.29099 0.18027,-0.3427 0.162061,-0.62713 z m 66.166402,0 c 0,0.44612 0.20048,0.73965 0.78681,0.62712 v -0.62712 z m -6.87357,0.0965 c -0.0965,0 -0.18738,0 -0.30373,0.0965 -0.16753,0.63367 0.48472,0.77771 0.78663,0.47198 -0.0965,-0.40734 -0.20685,-0.57541 -0.48472,-0.56248 z m -83.578121,0.0965 c -0.103792,0 -0.226339,0.0965 -0.368552,0.18027 v 0.47198 c 0.989118,0.70141 1.113122,-0.79647 0.368552,-0.64643 z m 55.341821,0 v 0 c 0,1.15081 0.28461,2.11136 1.40538,2.18438 -0.27787,-0.92887 -0.43957,-1.95604 -1.40538,-2.18821 z m -28.871624,0.62712 c -0.439569,0.0965 -0.872764,0.16752 -0.777709,0.77771 0.568851,0.30375 1.087264,-0.20686 0.777709,-0.77771 z m 26.683614,0 v 0 c -0.0965,1.0627 0.61401,2.03814 1.55852,1.55852 -0.25859,-0.68265 -0.60764,-1.26372 -1.25025,-1.56235 z m -47.440708,0.16206 c -0.09651,0.63349 0.426639,1.21475 0.938679,0.77771 -0.09651,-0.47198 -0.342695,-0.79647 -0.938679,-0.77771 z m 35.739538,0 v 0 c -0.74931,0.38785 -0.84363,1.97805 0.15478,2.18109 0.362,-0.25856 0.67282,-2.19147 -0.15478,-2.18437 z m 54.15113,0.16206 c -0.26495,0 -0.48473,0 -0.62694,0.14932 -0.13657,0.50421 0.23908,0.49129 0.46542,0.62712 0.13657,-0.18027 0.20686,-0.41371 0.16206,-0.77717 z m -84.504599,0.20686 c -0.239086,0 -0.471798,0.18755 -0.387854,0.58178 h 0.77771 c 0.09651,-0.38786 -0.154777,-0.58178 -0.387853,-0.58178 z m 89.341839,0.42026 c -0.29735,0 -0.34251,0.16753 -0.62694,0.14932 -0.0965,0.4913 0.12929,0.69232 0.62694,0.62694 z m -99.878714,0.14932 c 0,0.29737 -0.167524,0.34251 -0.154778,0.62694 0.206856,0.2005 0.581781,0.2005 0.777711,0 0,-0.40077 -0.226339,-0.59471 -0.627121,-0.62694 z m 26.686883,0 c -0.368548,0.0965 -0.729818,0.20687 -0.77698,0.62694 0,0.2005 0.200302,0.21978 0.162061,0.47199 0.767874,0.0965 0.891335,-0.56249 0.626939,-1.09183 z m 52.749761,0 c -0.1038,0.38129 -0.31029,0.80613 0.31028,0.77752 0,-0.38785 -0.0965,-0.6464 -0.31028,-0.77752 z m 17.00966,0 c 0,0.29737 0.18027,0.34251 0.16206,0.62694 0.49128,0.0965 0.69158,-0.12929 0.62692,-0.62694 z m -14.20291,0.15477 c 0.27805,-0.0965 0.73947,0 1.17319,0.18738 0.2198,0.0965 0.42666,0.20048 0.60784,0.32321 0.18027,0.122 0.32321,0.26512 0.40715,0.41371 v 0 c -0.18737,0.0965 -0.3813,0.0965 -0.56885,0 -0.18755,-0.0965 -0.38148,-0.14203 -0.56248,-0.25855 v 0 c -0.36839,-0.22618 -0.72982,-0.52353 -1.0503,-0.6916 v 0 z m -61.64399,0.29738 c -0.323213,0 -0.627121,0.14931 -0.777712,0.49126 0.297356,0.62696 1.889561,0.36201 1.716205,-0.46541 -0.258567,0 -0.614007,-0.0965 -0.938493,0 z m -21.689947,0 c -0.09651,0.36199 0,0.59469 0.154777,0.77696 0.400782,0 0.607638,-0.22632 0.627121,-0.62712 -0.18027,-0.12929 -0.420265,-0.20686 -0.77771,-0.16206 z m 101.879537,0.0965 c -0.3427,0 -0.6335,0.16753 -0.59471,0.70197 0.38129,-0.0965 0.34251,0.28442 0.77698,0.16206 0.13475,-0.18027 0.20685,-0.41371 0.15478,-0.78664 -0.11654,0 -0.22616,-0.0965 -0.34252,-0.0965 z m -98.90581,0.42664 c -0.407337,0 -0.654253,0.48473 -0.633494,1.06014 0.122001,0 0.303728,0 0.310283,0.15477 0.523511,-0.0965 0.711065,-0.53006 0.777528,-1.09438 -0.167524,-0.0965 -0.323211,-0.13657 -0.452496,-0.122 z m 15.986313,0.12383 c -0.142031,0 -0.284426,0.0965 -0.387854,0.15477 0,0.44594 0.2003,0.73893 0.777528,0.62694 v -0.62694 c -0.103791,-0.10379 -0.24564,-0.15477 -0.387853,-0.15477 z m 80.761717,0.30372 v 0 c -0.13657,0.18027 -0.20686,0.42027 -0.16206,0.77771 0.2908,0 0.34251,0.16753 0.62694,0.14932 -0.0965,-0.3813 0.28442,-0.34251 0.16206,-0.77698 -0.2908,0 -0.34252,-0.18027 -0.62694,-0.16206 z m -5.40228,0 c -0.122,0 -0.24564,0.0965 -0.36855,0.15478 v 0.46543 c 0.61419,0 1.70929,0.56885 1.71566,-0.46543 -0.54937,0.122 -0.96381,-0.16752 -1.3451,-0.15478 z m -70.130513,0.15478 c 0,0.18755 0,0.36855 -0.310283,0.31028 0,0.87204 0.41371,0.74858 0.938675,0.46543 -0.09651,-0.36837 -0.206854,-0.72982 -0.627121,-0.77698 z m -19.37885,0.74856 c -0.692309,0 -0.682476,0.76808 -0.749122,1.43196 0.381299,-0.0965 0.342513,0.28445 0.777711,0.15478 -0.200482,-0.82485 0.452496,-0.79645 0.310283,-1.55997 -0.136569,0 -0.245641,0 -0.342695,0 z m 73.843713,0 c -0.122,0.54301 0.0965,0.74932 0.62693,0.62712 v -0.62712 z m -71.475802,0.31028 c -0.18027,0 -0.36837,0.0965 -0.465424,0.16206 0,0.29098 0.18027,0.3427 0.162061,0.62712 0.510765,0 0.749304,-0.18755 0.77771,-0.62712 -0.103792,-0.10379 -0.284426,-0.16206 -0.465424,-0.16206 z m -4.368544,0.16206 c -0.136568,0.18027 -0.206855,0.41371 -0.162061,0.77718 h 0.776982 c 0.09651,-0.53026 0,-0.8908 -0.626939,-0.77718 z m 19.819691,0 c -0.361996,-0.0965 -0.59471,0 -0.776983,0.14932 0,0.44614 0.187369,0.73967 0.776983,0.62712 z m -3.47193,0.14932 c -0.278051,0.0965 -0.323213,0.3815 -0.278051,0.77771 0.682658,0.2005 0.994944,-0.40077 0.627122,-0.77771 -0.142031,0 -0.258573,0 -0.349071,0 z m 58.245075,0.16206 c -0.65425,0 -0.84362,0.30393 -0.62714,0.77716 0.5818,0.11654 0.68268,-0.24564 0.62714,-0.77716 z m 21.53972,0 c -0.11653,0.57541 0.24564,0.69176 0.77771,0.62712 v -0.62712 z m -98.396311,0 c -0.239267,0 -0.484908,0.24564 -0.387853,0.72982 h 0.777528 c 0.09651,-0.49128 -0.154777,-0.72982 -0.387854,-0.72982 z m 18.338018,0.57541 c -0.446125,0 -0.739473,0.2003 -0.627122,0.77771 h 0.776981 c 0.09651,-0.362 0,-0.5947 -0.162061,-0.77771 z m -3.027264,0 c -0.219784,-0.0965 -0.446123,0.10379 -0.720716,0.13474 0,0.51077 0.187371,0.74858 0.626939,0.77698 0.09651,-0.29079 0.446123,-0.28442 0.310283,-0.77698 -0.09651,-0.0965 -0.142031,-0.122 -0.219784,-0.13474 z m -2.552733,0 c -0.09651,0 -0.123822,0.0965 -0.200482,0.122 -0.149315,0.62712 0.929574,0.62712 0.77771,0 -0.297354,0 -0.413711,-0.16753 -0.588336,-0.122 z m -2.535981,0.122 c 0,0.31028 -0.426639,0.2003 -0.310283,0.62712 0.206855,0.2003 0.581781,0.2003 0.777529,0 -0.09651,-0.30391 -0.09651,-0.66391 -0.465425,-0.62712 z m -9.362934,0.16206 c -0.09651,0.56248 -0.239268,0.74912 0,1.24823 h 0.626939 c 0.407337,-0.51058 0,-1.2211 -0.626939,-1.24823 z m 95.509995,0 v 0 c -0.21979,0.2003 -0.27788,0.92884 0.15477,0.92884 0.0965,-0.2003 0.20049,-0.32321 0.46543,-0.31028 0,-0.40078 -0.22616,-0.60764 -0.62694,-0.62694 z m -18.00698,0.59471 c -0.122,0 -0.25859,0 -0.40734,0 -0.42663,0.58178 0.4332,1.02134 0.93868,0.62712 0,-0.40734 -0.16752,-0.60764 -0.52369,-0.64643 z m -73.241723,0.0965 c -0.219784,0 -0.452496,0.28443 -0.510765,0.56886 0.200482,0.21978 0.72982,0.21978 0.929028,0 v 0 c 0,-0.4718 -0.200482,-0.61401 -0.413711,-0.56886 z m 87.034023,0.25857 c -0.362,-0.0965 -0.59471,0 -0.78736,0.15478 0.0965,0.30391 0.0965,0.67301 0.46542,0.62712 0.32977,0 0.3427,-0.38785 0.31028,-0.77771 z m -41.20245,0.46543 c 0.31028,0.10379 0.41371,0.41371 0.47178,0.77698 -0.49126,-0.0965 -0.63348,0.20048 -0.77696,0.46542 -0.50421,-0.41371 0.13474,-1.00004 0.31028,-1.2475 z m 6.86829,0 h 0.62712 c 0,0.53006 0.30373,0.83397 0.62694,1.09382 -0.51058,0.34251 -1.38644,-0.27805 -1.24752,-1.09382 z m -10.61117,0.46542 c 0.24564,0.14932 0,1.11895 -0.46542,1.09437 v 0 c 0.0965,-0.46543 0.25856,-0.79628 0.47179,-1.09437 z m 33.39421,0.16206 c -0.30391,0.30393 -0.16206,0.95871 0.46542,0.78684 0.12382,-0.54302 -0.14203,-0.69251 -0.46542,-0.78684 z m 3.62251,0.0965 c -0.0965,0 -0.12928,0 -0.20685,0 -0.0965,0 -0.2003,0 -0.2908,0.0965 -0.0965,0.49128 0.32958,0.50421 0.77771,0.46542 0,-0.38129 -0.0965,-0.52351 -0.28443,-0.54936 z m -23.23152,1.63172 c 1.71311,0.22616 2.79837,1.8863 3.37886,3.28257 v 0 c -0.0965,0.32957 -0.24562,-0.472 -0.77751,-0.15478 -0.84363,1.36714 -1.92252,2.70003 -2.18436,4.21539 -0.85328,-0.13475 -0.64643,-1.33291 -1.87336,-1.09455 -0.34269,0.28461 -0.32978,0.91994 -0.31028,1.55997 -0.69231,0 -1.035,-0.41371 -1.25024,-0.93867 -0.14203,0.122 -0.34906,0.16206 -0.62712,0.15477 -0.34907,0.0965 -0.0965,0.76808 -0.16206,1.0931 -1.16811,0.49128 -1.27008,-1.15701 -2.49901,-1.0931 -0.31029,0.14932 -0.32977,0.59473 -0.31029,1.0931 -0.40078,0 -0.54955,-0.28443 -0.77698,-0.46541 -0.6639,0 -0.56885,0.7868 -0.77771,1.24767 -0.51077,-0.38146 -0.28443,-1.4855 -1.40538,-1.24767 -0.54955,0.18027 -0.48491,0.97746 -0.47198,1.71637 -0.64642,0.122 -0.98384,-0.53007 -0.62694,-0.93868 -0.34907,0 -1.64319,-0.43319 -2.02722,0.3103 -0.38785,-0.13657 -0.34906,-0.69231 -0.93867,-0.62712 -1.0168,0.0965 -1.16229,1.02206 -2.0265,1.2484 -0.0965,-0.64641 -0.58179,-0.87204 -1.40538,-0.77715 -0.20686,0.51077 -0.56248,0.90061 -1.25151,0.93866 0.18027,-0.18027 0.18027,-0.54937 0.16206,-0.93866 -1.64192,-0.71108 -3.08098,-0.42665 -5.305221,-0.93849 0.134748,-0.65428 -0.426821,-0.61422 -0.627123,-0.9387 -1.186136,0.83399 -2.124817,-0.34251 -3.121037,-0.62712 -0.75823,-1.55196 0.239268,-1.40338 0.627121,-2.80675 0,-0.40714 -0.219785,-0.51059 -0.627121,-0.46543 0.323214,-0.34905 0.69231,-0.66388 1.093819,-0.93866 0,-0.64644 -0.206854,-0.60764 0,-1.09054 1.310326,-0.16752 2.265031,0.27803 2.963896,-0.46544 0.682656,0.58833 1.269536,0.42026 2.187456,0.16206 -0.32958,0.60764 -0.0965,1.21527 0.47198,1.4021 0.82487,0 0.86293,-0.69231 1.55852,-0.77751 -0.16206,0.58176 0.53007,0.31026 0.62712,0.62692 0.27787,-0.18737 0.82487,-0.11654 0.93849,-0.46543 0.79647,0.26513 1.21546,0.87206 1.86954,0.14932 0.47197,0.25857 0.56885,0.89152 1.25149,0.93868 0.46545,-0.0965 0.56888,-0.47198 0.77773,-0.77698 0.43957,0 0.44595,0.49128 0.77771,0.62694 0.57523,-0.15478 0.77699,-0.68266 1.24751,-0.9385 0.63349,0.36837 1.80871,0.5106 1.87335,-0.47198 0.50421,0.76806 2.88758,0.82487 2.65307,-0.16206 0.47179,-0.24562 2.18689,0.75822 2.18416,-0.62694 0.69178,0.22616 1.97498,1.25535 2.03051,0 0.48489,-0.11654 0.30391,0.42666 0.77771,0.31028 0.71107,-0.31028 1.35494,-0.40096 1.92633,-0.32319 z m -27.363004,6.25282 c 0.542999,0 0.594712,0.54955 1.090544,0.62712 -0.445939,0.12382 -0.711063,0.42666 -1.090544,0.62694 0,-0.61399 -0.633491,-0.86291 0,-1.24749 z m 4.927204,1.85278 c 0.13475,0 0.2908,0.0965 0.46542,0.12382 0.0965,0 0.16752,0.0965 0.26512,0.0965 0.0965,0 0.18027,0 0.27788,0 -0.0965,0.18738 -0.18027,0.3296 -0.32322,0.45251 -0.13474,0.122 -0.29079,0.22614 -0.45249,0.32319 -0.32321,-0.10379 -0.10379,-0.73053 -0.46543,-0.77769 0.0965,-0.122 0.14932,-0.16752 0.24564,-0.16752 z m 26.90777,4.85401 c 0.10379,0.0965 0.18027,0.11654 0.24582,0.18027 0.0965,0.0965 0.10379,0.14203 0.14203,0.22634 v 0 c 0.0965,0.16752 0.0965,0.3813 0.0965,0.61399 v 0 c 0,0.22636 0,0.4913 0,0.75898 0,0.27803 0,0.56248 0,0.85327 v 0 c -4.40498,-1.21019 -10.43035,2.05381 -17.00966,0.93867 v 0 0 c 0.10379,0 0.22616,0 0.32956,-0.0965 4.50368,-0.81522 10.18655,-0.4525 13.92561,-2.04397 0.88168,-0.36856 1.65737,-0.85346 2.28124,-1.49133 z m -33.708322,0.16206 c 0.796464,0.8631 1.511351,1.81853 2.653065,2.34149 -0.09651,0 -0.167524,0 -0.265125,0.0965 -0.271499,0 -0.575223,-0.11654 -0.900441,-0.24564 -0.426637,-0.18027 -0.881686,-0.40734 -1.328352,-0.42682 0.122001,-0.74912 -0.245641,-1.00514 -0.162061,-1.71621 z m 9.246032,3.68917 c -0.44612,0 -0.79647,0.2844 -0.97291,0.8347 1.09381,0.47178 3.44425,1.61913 4.67573,0.47178 -0.73965,-0.23907 -2.13466,-1.13516 -3.23102,-1.29157 -0.16206,0 -0.32322,0 -0.4718,0 z m -8.543342,0 c 0.329765,0 0.729817,0.18027 1.127322,0.34269 0.400964,0.16206 0.796467,0.32319 1.13388,0.32977 -0.162061,0 -0.361997,0 -0.58815,0 -0.381486,-0.0965 -0.83398,-0.18756 -1.278096,-0.30391 -0.09651,0 -0.129285,0 -0.200302,-0.0965 v 0 c -0.258573,-0.0965 -0.50421,-0.11654 -0.739655,-0.12382 0.136568,-0.16206 0.323395,-0.22634 0.543179,-0.20686 z m 22.863712,0.99112 h 1.40155 c -1.90758,0.45249 -3.39709,0.51058 -5.30139,0.77696 0.0965,-0.10379 0.18737,-0.20048 0.31028,-0.27803 v 0 c 0.61419,-0.362 1.62844,-0.32323 2.55219,-0.36837 0.36837,0 0.72982,-0.0965 1.03425,-0.13475 z m -15.0735,6.30144 c -0.21978,0 -0.44612,0 -0.69176,0.0965 0.47198,2.08221 4.08885,2.24883 5.61896,1.09109 -0.20048,-1.15773 -2.41453,-0.2908 -2.96718,-1.09109 -0.7493,0.22616 -1.3156,-0.0965 -1.96385,-0.0965 z m -5.612407,0.70196 c -0.167524,0 -0.329583,0 -0.484727,0 -0.40078,0.0965 -0.692311,0.34905 -0.834522,0.95342 -0.09651,0.25856 0.26494,2.90253 0.162061,2.34206 0.290799,1.50826 1.241133,3.00541 2.02722,4.21158 0,-0.3815 -0.682663,-0.75896 -0.154777,-1.09054 0.720716,1.35293 2.126095,3.1733 4.056982,2.33823 0.32959,0.14203 0.4525,0.47178 0.93868,0.47178 0.14203,-1.31414 2.59079,-0.3232 2.65543,-1.71947 -0.16752,-0.30393 -0.72016,-0.21978 -0.93849,-0.46542 -0.0965,-0.31029 0.30372,-0.59471 0.31028,-1.24769 -0.0965,-0.36837 -0.68266,-0.15478 -0.77716,-0.46543 0.56885,-0.59471 0.3039,-1.8262 0.77716,-2.81004 -1.23348,-0.85326 -2.81786,0.34271 -3.74688,-0.62694 0,-0.31027 0.42663,-0.20048 0.31028,-0.62712 v 0 c -1.317975,0.0965 -3.079525,-1.11567 -4.294802,-1.27153 z m -14.253896,7.49666 c 0,0 0.09651,0 0.103792,0.0965 0,0.0965 0.09651,0.14203 0.09651,0.25857 0,0.20686 -0.09651,0.48491 0,0.64642 v 0 0 c -0.09651,0 -0.167524,0 -0.21978,-0.0965 -0.142031,-0.16752 -0.09651,-0.52351 -0.09651,-0.84362 v 0 0 c 0.09651,0 0.122001,0 0.167523,0 z m 42.117823,0.6335 c -1.16028,0.14203 -1.92816,0.67357 -2.6516,1.24768 -4.80101,0.0965 -9.46436,0.72074 -13.42395,0.77773 -0.27785,1.3167 0.64644,1.43887 1.40412,1.71949 h -1.09054 c -0.48473,1.0064 -0.23909,2.06016 0.77771,2.33803 -0.42664,0.0965 -0.38785,0.65425 -0.93868,0.62714 -1.42596,-1.17524 -2.48427,-2.72028 -3.58829,-4.21543 0.60763,0.13475 1.45126,0.27807 2.02649,0 0.42664,-0.60763 -0.44594,-0.78661 0.16206,-1.08979 -1.82037,-0.16206 -2.95352,-0.41371 -4.36928,0.31028 -0.5235,-0.60764 -1.81708,-0.40734 -2.65233,-0.31028 0.58833,2.15193 0.52369,1.68197 1.08999,2.3413 v 0 c 1.49515,2.30329 4.75185,2.84426 6.24518,5.15465 1.46875,0.24564 2.29088,1.1417 3.74342,1.40538 0.43319,0 0.2005,-0.73949 0.77718,-0.62712 0.50421,-0.18737 0.122,0.50419 0.62694,0.31026 2.64068,-0.62692 4.20958,-2.83588 6.71058,-3.12031 1.47912,-1.48475 3.93682,-3.19458 4.99441,-5.15133 0.21978,-0.40734 0.62712,-1.22183 0.15477,-1.71639 z"
       id="path1159-7-8-6-6-1-8-2"
       inkscape:connector-curvature="0" />
  </g>
</svg>
