<?xml version="1.0" encoding="UTF-8" standalone="no"?>
<svg
   xmlns:dc="http://purl.org/dc/elements/1.1/"
   xmlns:cc="http://creativecommons.org/ns#"
   xmlns:rdf="http://www.w3.org/1999/02/22-rdf-syntax-ns#"
   xmlns:svg="http://www.w3.org/2000/svg"
   xmlns="http://www.w3.org/2000/svg"
   xmlns:sodipodi="http://sodipodi.sourceforge.net/DTD/sodipodi-0.dtd"
   xmlns:inkscape="http://www.inkscape.org/namespaces/inkscape"
   sodipodi:docname="bee2.svg"
   inkscape:version="1.0 (4035a4f, 2020-05-01)"
   id="svg8"
   version="1.1"
   viewBox="0 0 210 297"
   height="297mm"
   width="210mm">
  <defs
     id="defs2" />
  <sodipodi:namedview
     inkscape:document-rotation="0"
     inkscape:window-maximized="0"
     inkscape:window-y="23"
     inkscape:window-x="0"
     inkscape:window-height="943"
     inkscape:window-width="1252"
     showgrid="false"
     inkscape:current-layer="layer1"
     inkscape:document-units="mm"
     inkscape:cy="803.66645"
     inkscape:cx="-168.05639"
     inkscape:zoom="0.49497475"
     inkscape:pageshadow="2"
     inkscape:pageopacity="0.0"
     borderopacity="1.0"
     bordercolor="#666666"
     pagecolor="#ffffff"
     id="base" />
  <metadata
     id="metadata5">
    <rdf:RDF>
      <cc:Work
         rdf:about="">
        <dc:format>image/svg+xml</dc:format>
        <dc:type
           rdf:resource="http://purl.org/dc/dcmitype/StillImage" />
        <dc:title />
      </cc:Work>
    </rdf:RDF>
  </metadata>
  <g
     id="layer1"
     inkscape:groupmode="layer"
     inkscape:label="Layer 1">
    <path
       d="m 45.714476,221.35441 0.142995,-0.0371 z m 109.098594,-1.32556 c -3.71153,-0.21797 1.6408,-4.63093 -3.13888,-4.56251 -2.71393,-1.31931 -2.4886,-6.78425 -5.96124,-5.7507 0.91467,-7.48038 -7.06247,-10.53403 -9.37233,-18.04509 -1.07627,-5.70075 -2.94992,-14.29967 -5.61707,-21.25235 -3.46175,-3.18794 -7.76284,-5.71938 -8.06086,-11.78668 0.86801,-2.19137 8.62626,3.734 10.84166,5.65735 -0.49599,3.59864 9.07224,7.27489 8.91122,13.9109 2.56573,5.03588 -2.25964,9.27045 3.66623,12.08439 3.23761,3.72095 5.14231,11.13336 2.43005,13.21369 5.29394,2.06035 5.55498,5.43251 6.96848,8.91861 4.42607,4.49479 4.93505,-7.45077 6.69807,0.1616 1.95411,5.1529 -5.27385,2.39297 -4.48143,6.90824 l -1.03432,0.37219 z m 1.88291,-2.11746 c -2.24501,-3.50974 4.34972,-3.52589 2.89843,-3.41653 -5.736,-0.65735 -4.94142,-1.38653 -2.89843,3.41653 z m -3.44518,-4.17897 c 2.09946,-3.09533 -2.72232,-2.50003 0,0 z m -2.04689,-3.53816 c 2.0462,-2.32163 -2.7484,-1.56111 0,0 z m -2.99498,-3.20802 c 3.85281,-2.30325 -2.55754,-0.98303 0,0 z m -2.62745,-5.37325 c 4.32139,-1.5779 -1.3944,-0.9997 0,0 z m 0.1569,-3.4201 c -2.48598,-2.56389 -6.94776,-12.02298 -3.38844,-3.18044 0.79441,1.34927 1.94204,2.53382 3.38844,3.18044 z m 0.83727,-1.5271 c -0.83658,-4.90696 -5.77826,-6.84001 -1.61918,-1.19496 l 0.75322,0.67863 z m 0.52076,-1.98835 c 1.59016,-4.91118 -10.04205,-8.50392 -2.73266,-4.41081 1.21952,1.25937 1.88664,2.90541 2.73266,4.41081 z m -5.39694,-11.575 c 0.78393,-3.9594 -3.75125,-12.32918 -5.15893,-12.0014 2.71658,3.49902 3.90966,7.92299 5.15893,12.0014 z m -3.02986,-0.68645 c 2.2659,-3.33407 -4.49033,-10.50537 -1.37292,-2.63249 l 0.53426,1.43199 z m -10.1311,-15.67005 c 4.98644,-3.73871 -0.91922,-4.05381 0,0 z m -1.05272,-2.97007 c -1.00534,-4.36752 -4.8171,-3.18016 0,0 z m -22.47603,53.98058 c -6.44747,-2.3495 -8.95228,-9.84057 -12.637961,-14.9866 -0.996398,-7.30893 -6.398198,-13.29736 -4.828543,-21.18311 -0.71945,-8.61764 -1.419512,-17.14526 1.512894,-25.47873 2.813639,-5.6001 4.629366,-11.49125 2.171925,-10.31708 0.120168,-2.0325 0.465291,-2.26253 -2.622436,-1.72391 0.404078,-1.9768 3.344888,-3.34734 3.086527,-4.23029 -4.485773,3.21929 -3.042232,0.4415 0.619121,-2.07973 -5.588025,2.48459 -13.256661,10.18517 -22.738594,7.84835 -9.786169,3.46614 -21.498447,1.09694 -29.079423,-6.08307 -5.240236,-1.45039 -4.292263,-7.86868 -0.219041,-2.75079 5.987494,2.20284 16.835892,-2.23598 18.974759,-5.58436 9.193789,-1.69104 18.847938,1.93564 28.289556,1.04439 6.549482,-0.70733 -6.263832,-2.45378 -8.912774,-2.56965 -10.725861,-0.12441 -21.62068,-0.12205 -31.825964,3.63781 -10.434607,4.40763 -19.234788,-4.68297 -25.541138,-11.69436 -3.232651,-5.08856 -16.6614091,-13.87647 -4.958554,-18.75189 12.320866,-5.349546 25.366911,0.86119 36.788828,5.64378 8.71733,4.05454 18.089121,6.64687 26.382749,11.61385 3.186197,1.47252 15.319656,5.23235 6.520742,0.5393 -2.762698,-4.593 -8.919153,-9.1944 -8.887,-13.96079 -5.274693,0.7413 0.01702,-5.28394 -4.404972,-6.21362 0.795607,-4.770266 -5.122461,4.31542 -3.914918,-2.813403 2.055941,-2.249849 4.958233,-7.248336 8.521655,-3.411189 -5.266316,2.286989 2.394175,3.458748 2.31287,6.864682 4.015633,-2.321704 0.988751,6.86773 4.988941,5.834 2.410293,2.9762 4.320504,13.68786 9.114299,9.53054 4.497097,-0.95874 -8.076752,-4.94808 -4.58746,-10.18373 0.14589,-5.22317 15.885422,-6.529417 5.044195,-6.953627 -4.08359,0.236153 -4.392138,-6.165083 -8.103558,-8.137949 -3.830681,-2.249464 -6.905099,-5.579234 -11.257976,-6.025857 -0.309668,-6.294165 4.689582,-0.767078 6.902545,-0.77655 3.303289,1.653988 6.335182,4.264659 8.214485,6.923648 2.515729,2.114779 3.303899,6.83857 9.075478,4.617408 6.037753,6.022397 12.029933,-1.913689 18.631693,-0.426753 2.43884,-3.74576 4.61636,-7.316442 9.04461,-9.414399 1.6427,-3.054885 8.8613,-7.050312 6.30162,-0.688565 -4.00173,0.788093 -6.2005,6.198898 -10.60201,8.233055 -1.03392,5.128655 -6.50831,5.204667 -11.58709,6.572419 6.53663,0.34448 14.95461,5.76302 8.5,12.74058 -3.54458,1.34061 -8.74032,5.73169 -3.83492,4.6762 5.75943,1.95019 8.37597,-11.37892 12.42041,-12.1576 0.29238,-3.66305 -1.52916,-5.59172 3.36592,-5.508271 -0.0994,-3.254032 8.38774,-5.405436 1.17222,-6.218778 3.0106,-6.887441 12.78961,4.521858 8.09373,6.329739 0.11838,-5.430121 -9.31973,2.78608 -4.55579,4.00337 -5.23387,3.38027 -4.669,10.02267 -10.6633,13.40971 0.47232,2.58964 -10.21665,6.06105 -4.77333,5.81513 8.30606,-4.20272 17.18132,-7.20817 25.42493,-11.601 10.18602,-4.99316 21.03829,-9.22531 32.35787,-10.68182 6.59355,-0.63588 16.67617,-0.59736 18.69522,7.1757 -1.17093,7.18158 -7.31974,11.73028 -11.9718,16.77685 -6.39243,4.49713 -13.3259,10.31817 -22.21228,7.47656 -9.58122,-1.72899 -19.06282,-4.90572 -28.96847,-4.13054 -5.02411,-1.10823 -19.97146,3.65723 -7.85684,3.68535 8.25177,-0.96957 16.97533,-4.55968 25.10185,-1.34215 7.1592,3.83878 15.53419,4.69228 23.49321,4.37946 -0.27082,-6.49116 5.23689,-1.46619 1.20302,2.39304 -6.17579,4.94761 -12.87687,10.0492 -20.99816,10.40514 -9.16925,-0.0458 -18.65021,0.37553 -27.00281,-2.9511 -5.12873,-0.84173 -9.79854,-5.36564 -6.9598,-0.89936 -1.06428,1.41231 -1.22846,1.15582 -2.62525,1.31887 4.57246,3.62671 -3.77766,1.28472 1.86333,6.17413 3.61981,8.36137 4.09102,17.20855 4.73083,26.16201 -2.97802,6.16315 -0.55113,14.2906 -4.75219,19.93729 0.364,7.5851 -6.66802,12.26067 -9.77079,18.51822 -1.50653,1.12725 -3.41955,1.56405 -5.26689,1.65004 z m -1.92809,-2.63821 c 0.70313,-1.99308 7.34855,1.79332 8.85305,-2.67151 1.54671,-3.79964 -5.40608,-0.77349 -6.82676,-1.3991 -1.93749,1.57937 -5.846645,-1.1905 -3.78986,2.56242 l 0.78726,0.89323 0.97631,0.61483 z m 0.65579,-0.49807 -0.14879,-0.31948 z m 6.00646,0.0219 0.0862,-0.0696 z m -4.54479,-0.15217 0.006,-0.10076 z m 4.87619,-0.21304 0.10348,-0.0449 z m -0.37874,-0.44975 c 0.0636,-0.64283 0.99126,-0.14402 0,0 z m -7.14266,-1.0059 c -0.17323,-0.43833 0.30525,0.14995 0,0 z m 8.70493,-0.21499 0.28103,-0.28522 z m -8.84695,-0.35311 c -0.83336,-0.72273 0.56771,-0.57438 0,0 z m 2.21913,-2.63939 c 3.20351,0.38215 11.35326,-2.61711 3.77666,-1.31253 -0.59675,0.53021 -8.36958,0.93902 -3.77666,1.31253 z m -7.868844,-3.65544 c -1.099366,-3.69318 5.172004,0.23865 4.389034,-2.80685 0.43368,0.54685 3.40983,2.6443 4.51274,0.54736 1.47079,1.21661 1.16231,-4.01472 2.02057,0.22042 1.36499,-1.65237 2.71841,-0.36235 3.45583,-0.57216 2.17767,-1.40018 2.72473,0.76663 4.76064,-1.08181 -1.98327,5.33626 5.37909,-5.28338 1.21476,-3.72428 1.02889,2.03923 -5.12601,-2.38462 -5.40945,0.3021 -1.03696,-0.79837 -2.84305,0.22303 -4.5074,-0.11154 -0.84576,1.31751 -3.09639,-0.86654 -3.36695,0.85309 -0.83486,-1.0174 -2.68472,1.77936 -3.68669,-1.51532 0.78999,2.79857 -3.251122,0.29041 -2.686265,1.86781 -2.51883,0.0881 -3.167889,-2.0482 -3.720039,2.92254 1.877895,3.37433 -0.217342,-1.86241 2.819533,3.10913 l 0.202895,-0.0101 z m -0.960351,-1.31542 c -1.163002,-0.97341 -0.427817,-2.05851 0,0 z m 3.550612,-0.21305 -0.06678,-0.45042 z m 4.639473,-0.35505 c -1.62143,-0.98265 1.10178,-0.61121 0,0 z m -6.763929,-0.13079 c -0.657595,-2.54565 -0.04746,-2.33438 0,0 z m 7.734429,-0.10592 h 0.0413 z m -2.17179,-0.10642 -0.0306,-0.25314 z m -4.242989,-0.50902 -0.09653,-0.56594 z m 5.396939,-0.30772 c -0.74907,-2.42295 0.0862,-0.58675 0,0 z m 12.19045,0.0289 c 0.75884,-1.57305 0.96686,-0.2601 0,0 z m -7.2906,-0.50232 c 0.0535,-0.33206 0.0535,0.33209 0,0 z m -7.55098,-0.0474 -0.005,-0.20145 z m 6.98288,-0.47341 c -0.61908,-1.36423 0.47649,-0.25848 0,0 z m -14.368164,-0.89955 c 0.05353,-0.33206 0.05352,0.33209 0,0 z m 4.574381,0.0593 c -1.228095,-1.81966 0.107788,-0.55016 0,0 z m 6.811273,-0.24866 -0.0873,-0.31847 z m 2.03568,-0.1421 -0.0656,-0.78776 z m -10.977317,0.0119 0.109819,-0.30973 z m 10.172507,-0.15395 c -0.5419,-0.63826 0.40887,-0.0959 0,0 z m 1.46759,-0.17923 c -0.7971,-0.22592 -0.1358,-0.99984 0,0 z m -2.60378,-0.17584 c -0.81143,-0.0298 0.28857,-0.52645 0,0 z m 3.40859,0 c -0.61105,-0.41456 0.71444,-0.733 0,0 z m -10.912167,-1.77539 c -0.111634,-0.33846 -0.111664,0.33844 0,0 z m 3.692637,-1.08887 c 3.14911,0.0416 16.32351,-0.95985 13.01949,-1.74189 -2.91786,0.68439 -13.49877,1.17256 -13.01949,1.74189 z m -1.23088,-0.0947 c -0.430364,-0.49247 -0.869057,0.19852 0,0 z m 2.36708,-2.84049 c -0.65344,-5.03767 3.13843,0.79909 2.79277,-2.15386 2.64285,-0.4718 2.01174,-0.56996 3.49563,0.20555 2.45508,0.59855 1.25205,-0.88606 4.03391,-0.59193 0.9383,0.96131 3.81504,-0.64276 4.63549,-1.74494 -0.91182,3.52689 0.91841,-1.92723 0.98364,0.89284 1.46078,-3.75124 -0.48956,2.07217 2.13044,-0.84398 1.10905,0.66144 0.86856,-6.65302 -0.0911,-2.24722 -0.4264,-2.1062 -2.6363,0.86984 -4.27801,-2.11489 -2.92146,2.76213 -3.30517,0.22221 -5.88924,1.3872 -3.13154,1.44849 -3.99195,1.11924 -6.48137,0.83721 -3.3521,0.60239 -3.44603,-0.18725 -5.568851,0.0532 -1.173189,-0.87403 -4.655753,-0.60299 -4.851084,1.20542 1.409222,-3.72884 -3.322642,0.337 -3.422851,-1.25278 -3.10614,4.00593 4.44071,4.37677 4.27944,4.4179 1.093851,-1.91271 -0.480847,-1.26908 1.470167,0.16095 -0.32886,-2.10883 2.420157,1.24083 3.393529,-0.50559 0.501462,1.41028 1.77065,-0.70095 3.36752,2.2949 z m 2.15405,-1.24379 c 0.19218,-0.66051 0.14961,0.29723 0,0 z m -0.14204,-0.60252 c -0.1187,-2.47732 0.82033,-0.30983 0,0 z m -0.73379,-0.30773 -0.0264,-0.76603 z m -2.19547,-0.0354 -0.0829,-0.3444 z m -8.971222,-0.35576 0.03219,-0.17022 z m 15.971862,-0.29528 c 0.37883,-1.97014 0.0817,0.74947 0,0 z m -17.634733,-0.071 -0.192603,-0.78134 z m 14.557533,-0.0947 -0.0101,-0.54727 z m -13.77047,0.0593 -0.03463,-0.25218 z m 7.497715,-0.012 c -1.028404,-2.0528 0.312764,-0.87088 0,0 z m 8.687175,-0.4024 h 0.0412 z m -8.02442,-0.18929 0.11159,-0.0965 z m -5.29634,-0.32021 c -0.859529,-1.14397 0.562107,-0.66048 0,0 z m -4.882096,-0.0586 -0.0039,-0.29853 z m 29.943536,-0.54443 0.24204,-0.22874 z m -29.186062,-0.0947 0.006,-0.0339 z m 9.213845,-0.1301 c -0.627076,-1.11404 0.532277,-0.14685 0,0 z m -7.698923,-0.19116 c 0.09888,-0.73412 0.14382,0.45821 0,0 z m -0.520751,-0.12849 -0.0079,-0.19951 z m 26.961011,-0.37879 0.097,-0.14019 z m -23.978491,-0.0947 c -0.07835,-1.51147 0.869715,-0.0725 0,0 z m -1.674716,-0.0118 0.04546,-0.2705 z m 5.272669,-0.15396 c 0.0524,-0.66922 0.05239,0.66925 0,0 z m -8.142745,-0.14202 0.122255,-0.39935 z m 29.943533,-0.21297 0.21401,-0.57783 z m -19.14966,-0.0711 -0.002,-0.29565 z m 20.42788,-0.18936 0.0612,0.0291 z m -0.0947,-0.26039 c 0.0531,-0.416 0.0531,0.416 0,0 z m -2.13037,-0.99417 -0.17793,-0.54714 z m -15.50435,-1.3729 c 4.54049,-0.17945 12.86864,-0.30911 14.92201,-2.26682 -4.22231,0.4919 -14.09548,1.92635 -14.92201,2.26682 z m -1.37292,-0.0474 c -2.618087,-0.31624 -1.33357,0.005 0,0 z m 2.76949,-2.50911 c 2.17225,-1.7557 3.45227,-0.98275 5.96906,-1.44124 1.19513,0.41391 5.30143,-1.83507 5.90549,-0.87721 0.80135,-1.36316 3.19292,0.21503 4.54281,-1.31681 3.63456,-0.12059 0.89487,-6.68867 1.00351,-2.93162 -0.80403,-3.47604 -2.4701,0.84255 -2.68112,-0.98851 0.28208,1.79439 -2.35168,-1.43022 -2.30436,1.02149 -0.5989,-1.20473 -4.25728,-0.0275 -6.25289,0.7602 -0.87716,0.73146 -3.22157,-1.12149 -4.36818,0.36234 -0.14343,1.87104 -2.54364,-2.59335 -2.28573,1.96647 -0.15695,-4.5339 -1.21337,1.32421 -1.14977,-1.93964 -1.95726,1.11142 -1.85082,0.82668 -4.068345,0.0744 -1.103781,-1.49942 -3.334233,1.43866 -3.613396,-0.14792 -0.09211,0.22887 -3.482545,-2.04824 -3.571586,-0.29383 0.774016,-2.62563 -3.14633,1.64917 -1.890022,-1.58354 -4.563654,0.31561 0.08802,8.53274 0.375373,4.1399 -0.444621,-1.62779 2.225006,3.76465 1.830614,-0.11378 0.804833,1.78903 -0.221138,0.52573 1.73374,1.83856 -0.882049,-2.10651 2.932259,2.31497 2.091589,-0.0202 1.667179,1.51932 2.884475,-0.69094 2.885501,-1.91688 -0.506827,4.73578 3.152152,1.43972 5.221632,3.14823 l 0.42221,-0.40004 0.2043,0.66046 z m -3.82874,-0.67452 c -0.32554,-0.54883 0.5279,-0.67929 0,0 z m -5.568561,-0.13029 c -0.85298,-0.64934 0.393382,-0.59474 0,0 z m 1.284143,-0.41484 -0.192555,-0.69771 0.192621,0.69766 z m 6.337848,0.0124 0.19546,-0.30565 z m 1.01784,-0.0711 c -0.28256,-0.42106 0.58183,-0.26125 0,0 z m 1.42025,-0.2841 0.30817,-0.51363 z m -2.73989,-0.1064 0.17955,-0.6248 z m 5.29634,-0.0356 0.17607,-0.26728 z m -12.853236,-0.30768 -0.06025,-0.8091 z m 2.083032,0.0237 -0.01236,-0.0827 z m -5.112893,-0.0947 h 0.04127 z m 9.752357,-0.16569 c 0.0613,-0.83802 0.12572,0.52204 0,0 z m -5.32,0.0593 0.01945,-0.0672 z m 17.36843,-0.0593 c -0.0455,-0.95644 0.63855,-0.3377 0,0 z m -1.51493,-0.16569 0.30668,-0.44582 z m -12.56918,-0.47342 c 0.0651,-2.62668 0.22131,0.96393 0,0 z m 14.88892,0.16569 c 0.0758,-0.92006 0.30129,0.41874 0,0 z m 2.81781,-0.18271 c 0.0246,-0.74898 0.56964,-0.20385 0,0 z m -28.755068,-0.042 -0.03348,-0.63702 z m 17.936538,-0.0829 0.25951,-0.91852 z m -13.516016,-0.44975 c 0.09334,-1.61751 0.08222,1.66106 0,0 z m 20.143826,0.4024 0.0644,-0.0253 z m -19.522475,-0.0361 -0.02393,-0.4835 z m 25.534855,0.0465 c 1.02376,-2.22045 0.91343,-0.20328 0,0 z m -24.262547,-0.4837 c 0.05231,-0.75372 0.05232,0.75371 0,0 z m 3.219225,0.0947 0.08052,-0.21599 z m 16.119802,0.0474 0.11483,-0.20626 z m -16.54587,-0.4023 0.135839,-0.59053 z m 8.07174,0.0947 0.0965,-0.29386 z m 8.94756,-0.0474 c 0.0527,-0.50032 0.0527,0.50032 0,0 z m -23.315718,0.0237 h 0.04127 z m -0.946839,-0.0947 -0.03865,-0.36889 z m 9.515657,-0.28408 c 0.26026,-1.80968 0.14449,0.75096 0,0 z m 20.94864,0.0473 0.16526,-0.3043 z m -24.735999,-0.16535 0.181845,-0.53002 z m 24.593929,-0.0237 0.0826,-0.15318 z m -27.434426,-0.21305 c 0.405406,-2.62464 0.260736,0.59621 0,0 z m -3.029862,-0.14202 c 0.05239,-0.66925 0.0524,0.66922 0,0 z m 16.687898,-0.11835 0.0726,-0.375 z m 9.32629,0.21303 0.0672,-0.0273 z m -19.812442,0.0237 c -0.132754,-1.56694 0.958822,-1.14285 0,0 z m 0.473419,-0.0947 0.121991,-0.21034 z m -1.467589,-0.26038 0.174016,-0.32495 z m -1.088862,-0.14202 0.05408,-0.23474 z m 7.243254,0.0236 0.0645,-0.0253 z m 14.69956,-0.0474 h 0.0881 z m 5.99462,-0.0118 0.0676,-0.84831 z m -32.056148,-0.0829 h 0.04127 z m 26.440258,0 h 0.0412 z m -5.46203,-0.0118 c -0.55725,-0.88029 0.75993,-0.26585 0,0 z m -13.308892,-0.29063 0.214596,-0.2024 z m -4.686815,-0.0762 0.345297,-0.49793 z m 25.304067,-0.30771 c 0.0999,-1.13145 0.0736,1.12286 0,0 z m -1.86408,0.2013 c -0.44466,-0.71038 0.33998,-1.24291 0,0 z m 1.438,-0.48535 c 0.0521,-1.34427 0.0521,1.34425 0,0 z m -27.718485,0.26038 0.27157,-0.79269 z m 3.976691,-0.0474 0.288122,-0.31205 z m -5.91769,-0.0947 0.159547,-0.51515 z m 32.310604,-0.54443 c -0.31717,-1.61078 0.43995,-1.24483 0,0 z m -12.47449,-1.42024 c 3.77581,0.7311 14.49363,-4.69314 5.31451,-1.69764 -2.49404,1.29371 -14.089938,1.30697 -10.73521,1.48269 1.80727,0.0618 3.61837,0.0455 5.4207,0.21495 z m 11.95374,-0.1874 c 0.18162,-0.53431 -0.41149,0.0398 0,0 z m -19.52839,-0.15752 -0.76398,-0.10055 z m -1.18354,-0.0811 c -3.262863,-0.60806 -1.830403,0.23666 0,0 z m 11.51691,-3.84542 c 0.7948,-3.40985 3.12098,-1.08066 3.9654,-1.75084 2.66063,0.27096 4.77789,-3.90154 5.04186,-2.50312 2.27595,-5.14507 -2.5428,-4.25941 -4.35834,-3.17777 0.98136,2.71065 -3.27043,-3.25094 -2.61462,2.09941 -2.01979,-3.69274 -1.71885,0.39287 -6.14269,-0.95251 -0.99251,2.093 -1.85062,0.10559 -3.76661,0.29514 -1.3422,1.39924 -1.05639,-2.13228 -1.77632,1.33595 -0.15319,-2.10057 -2.917572,-2.71262 -3.42752,-0.72385 0.337452,-1.10114 -2.280065,0.0278 -1.502087,-1.26554 -1.316208,0.36248 -2.871873,1.23739 -3.77673,-0.11392 -0.32467,1.75256 -2.861334,-1.86244 -4.599114,0.80369 0.377207,-5.21036 -2.103163,6.95741 0.642128,3.42033 0.502013,1.45314 1.581975,-0.32355 2.117514,-0.11991 1.138823,2.50458 2.114911,-0.65952 3.355161,1.00764 0.294759,-2.11809 0.970988,1.38785 1.348917,-0.47936 1.758933,0.93978 3.048681,0.5972 3.015849,-0.30629 1.862382,2.81928 1.936222,-1.01962 3.274372,1.18304 1.68922,1.44757 0.68002,-2.53726 1.70883,0.80964 0.71984,-1.4385 1.92652,0.42126 3.76314,-0.46795 2.52253,1.22978 2.21257,-1.63107 3.73086,0.90643 z m -4.392,-1.16755 c 0.0484,-0.96341 0.67843,0.15552 0,0 z m 3.83466,-0.17093 0.17866,-0.26864 z m -12.427218,-0.23672 h 0.04127 z m -0.04734,-0.18942 0.04127,-1e-5 z m 8.781859,-0.0947 c 0.0368,-0.39736 0.14017,0.44409 0,0 z m -8.8292,-0.26032 -0.05041,-1.33308 z m -8.095404,-0.0947 -0.01045,-1.39041 z m 23.818724,-0.0355 c -0.19425,-0.8544 0.83134,-1.39391 0,0 z m -2.91743,-0.23849 0.0913,-0.0642 z m -8.63982,-0.15216 -0.1093,-0.48953 z M 89.742053,167.8582 c 0.05269,-0.50031 0.05269,0.50031 0,0 z m 24.073187,0.071 h 0.0412 z m -20.475224,-0.59176 c 0.217527,-4.92947 0.2228,1.69241 0,0 z m 2.367078,0.26037 c 0.08056,-0.72164 0.0937,0.72579 0,0 z m -6.012372,0 h 0.04127 z m 8.142736,-0.35505 0.02081,-1.46082 z m -2.083023,-0.0474 c 0.05352,-0.33206 0.05352,0.33206 0,0 z m 22.321545,-0.0185 0.28726,-0.65494 z m -25.588111,-0.12357 0.03637,-0.30381 z m 12.001091,-0.0947 -0.0581,-0.83536 z m 12.97158,0.0947 c 0.003,-2.61238 0.60738,-0.51504 0,0 z m -13.6107,-0.18938 -0.0196,-1.17931 z m 14.9836,0 0.33222,-0.62906 z m -25.70055,-0.0827 0.03854,-0.75997 z m 10.05417,-0.27231 c 0.0301,-0.4539 0.18573,0.4659 0,0 z m -0.99417,-0.35515 c 0.0535,-0.33206 0.0535,0.33209 0,0 z m -11.267293,-0.26037 c 0.09128,-1.27667 0.105713,0.74058 0,0 z m -3.077202,-0.0947 c 0.09463,-1.10057 0.0786,0.75773 0,0 z m 31.600485,-0.16569 0.11096,-0.29999 z m -27.813159,-0.071 h 0.04127 z m 3.739986,-0.0474 -0.06038,-0.9847 z m -5.207575,-0.11835 0.09816,-0.30154 z m 1.51493,-0.0947 0.173568,-0.70274 z m 26.961008,0.0474 0.12642,-0.1509 z m -27.765814,-0.33139 c 0.33468,-2.48354 0.46615,0.92108 0,0 z m -1.609613,-0.2367 0.01454,-0.15679 z m 31.032387,-0.40241 c 0.0735,-0.92404 0.10837,0.58701 0,0 z M 88.0851,164.23642 c 0.05231,-0.75372 0.05232,0.75369 0,0 z m 1.183543,0.071 c 0.09945,-0.80437 0.363679,0.18901 0,0 z m 2.603783,0.0711 0.0961,-0.093 z m 27.718474,-0.33138 c 0.0523,-0.75371 0.0523,0.75371 0,0 z m -5.25497,-8e-5 h 0.13607 z m 5.72832,-0.62897 0.0796,-0.0664 z m -2.17771,-0.29419 -0.004,-0.10096 z m -14.79426,-1.58595 c 3.54821,1.03394 17.81316,-3.46345 7.9287,-1.3063 -1.7256,0.59758 -8.81732,1.07356 -7.9287,1.3063 z m -0.2367,-2.76948 c 2.0319,-1.05372 4.48402,-1.15922 5.97064,-0.90018 1.84843,-1.14205 3.33062,0.19611 3.94618,-1.9171 1.64312,1.77748 1.41312,-0.3024 4.92663,-0.58504 3.78022,-1.79771 0.47521,-5.26998 -0.96105,-3.95223 -0.21204,0.58715 -3.01319,1.40898 -4.33326,-0.0214 -0.91931,0.79512 -0.47985,1.79583 -2.86695,0.4303 -0.42233,1.60929 -2.9622,-1.06096 -2.5173,2.0687 0.32597,-2.42946 -5.04363,-0.95254 -5.44374,-1.68053 -1.13849,0.17527 -5.484074,0.26575 -5.42097,-0.071 -0.879506,-1.54176 -2.639475,1.28467 -2.25744,-0.642 -1.236155,1.51391 -0.434105,-1.94749 -2.196852,2.43204 0.213427,3.63261 1.450931,1.7534 4.124634,3.6207 -0.633181,-1.54367 1.635737,-0.56871 1.015768,0.41192 2.63034,-4.13355 0.876679,0.41097 3.3135,-0.64948 -0.32986,-3.69192 1.63942,3.27674 2.35564,-0.11108 l 0.34464,1.56633 z m 1.99426,-0.50882 c -0.27332,-0.69813 0.51613,-0.65731 0,0 z m 3.47369,-0.84041 c -0.49531,-0.77606 0.53885,-0.41814 0,0 z m -2.22506,-0.0237 c -0.83457,-3.08692 0.50576,-1.05382 0,0 z m 4.7815,-0.36797 c -0.0644,-1.75809 0.31943,0.62165 0,0 z m -3.31391,-0.38949 c 0.15943,-1.10171 0.13802,1.09316 0,0 z m 4.2134,0.14202 1.5e-4,-0.33776 z m -13.98943,-0.0366 c -0.610835,-0.52472 0.400859,-0.57307 0,0 z m 3.07721,-0.34215 c 0.0521,-1.17565 0.0521,1.17565 0,0 z m 6.34968,0.20131 0.0159,-0.65811 z m -1.82856,-0.10663 0.0672,0.0273 z m -3.0062,-0.16569 h 0.0413 z m 7.83503,-0.1082 c 0.81983,-0.27944 -0.019,0.46119 0,0 z m -14.906673,-0.0455 0.06203,-0.33712 -0.06209,0.33709 z m -1.213122,-0.15396 c 0.05269,-0.50031 0.05269,0.50031 0,0 z m 9.326285,-0.18936 c 0.11638,-0.78463 0.125,0.56317 0,0 z m 11.69927,0.0593 0.0772,-0.10729 z m -12.7112,-0.0947 0.0874,-0.68475 z m -7.320147,-0.48529 c 0.05352,-0.33208 0.05353,0.33206 0,0 z m 2.207302,-0.13009 0.108699,-0.33975 z m 6.030125,-0.2723 h 0.0412 z m -2.08303,-0.40239 c -0.21189,-2.61645 0.35386,0.65893 0,0 z m -8.095406,-0.23677 c 0.05845,-1.54053 0.543899,-0.27111 0,0 z m 1.704294,0.16569 0.265682,-0.43314 z m 2.651134,-0.071 0.30952,-0.66771 z m 19.102318,-0.0237 c -0.286,-1.65497 0.62538,-0.27368 0,0 z m -15.07828,-0.21304 0.13812,-0.40463 z m -1.562278,-0.0421 c 0.380108,-2.27525 0.321368,0.0873 0,0 z m -1.46759,-0.17091 0.329792,-0.67308 z m -2.130363,-0.071 0.149757,-0.35865 z m 6.107061,0 0.1672,-0.16015 z m -0.18937,-0.0711 0.27141,-0.46245 z m 15.7411,-0.5444 c -1.30067,-1.83626 0.44986,-0.4593 0,0 z m -22.321549,-0.0711 0.179434,-0.30898 z m 3.171894,-0.11834 0.08191,-0.0992 z m 17.427605,-0.1301 c -0.47365,-0.37955 0.39888,-0.18014 0,0 z m -13.68762,-0.0356 c -0.44318,-0.62748 0.536,-0.34937 0,0 z m 12.59877,-0.0601 c -0.50335,-0.5763 0.35276,0.15139 0,0 z m 3.0772,-0.42501 0.008,-0.23558 z m -4.56086,-3.09928 c -0.54833,-2.55689 -0.73156,-0.791 0,0 z m 1.78546,-0.2739 c -0.60517,-2.91393 -1.70146,-1.66052 0,0 z m 1.37291,-0.0126 c -0.14983,-0.7607 -0.38913,0.30172 0,0 z m -17.753089,-0.0584 c 1.793449,-3.39332 0.0291,-3.27545 0,0 z m 0.984029,-0.0811 c 0.74498,-2.03675 -0.204914,-0.54399 0,0 z m 0.75746,0 -0.0148,-0.0819 z m 1.73812,-0.13188 h -0.0413 z m 4.01959,0.0315 -0.23364,-1.11455 z m -4.01959,-0.48123 c -0.0527,-0.50032 -0.0527,0.5003 0,0 z m -5.917699,0.0473 0.113094,-0.45312 z m 9.268809,-0.1285 -0.0399,-0.20548 z m -4.42644,-0.14202 c 1.00237,-2.93558 -0.52143,-1.34289 0,0 z m -0.48695,-0.0845 -0.0644,0.0253 z m -3.537091,-0.0102 c 1.048795,-2.61317 -0.159299,-1.23483 0,0 z m 6.485801,-0.0473 0.0252,-0.41529 z m 5.07569,-0.13188 c -0.85009,-4.51962 -1.38827,-1.1362 0,0 z m -7.03022,-0.11826 c -0.0573,-0.65488 -0.14295,0.66958 0,0 z m -6.23647,0.0599 c 1.552004,-2.62101 0.296717,-2.71281 0,0 z m 15.20769,-0.058 c -0.33773,-2.32449 -0.9451,-0.9625 0,0 z m 1.79898,-0.23868 c -0.30295,-1.29416 -1.05826,-0.43921 0,0 z m -10.72286,-0.14202 0.0192,-0.17807 z m 5.84668,0.0237 c 0.70912,-2.43407 -2.5097,-4.01106 0,0 z m -4.64962,-0.72026 c 1.16306,-3.1893 -0.46471,-1.3171 0,0 z m 10.86489,-0.0947 c -0.41085,-1.43398 -1.19352,-0.71576 0,0 z m -21.293557,-0.0845 c 1.853804,-1.63872 8.08e-4,-1.49103 0,0 z m 9.434497,-0.19951 c 0.91515,-1.06179 -0.20337,-1.20875 0,0 z m 39.44566,-0.13189 c 4.14739,-2.7526 -8.20955,-5.44703 -10.59259,-6.89179 -2.90746,-2.43085 -15.02421,-3.33336 -6.56842,0.36129 5.77806,2.21278 10.537,7.05528 17.16101,6.5305 z m -42.59449,-0.17645 c 1.82194,-3.89992 -0.891881,-2.96283 0,0 z m -1.537989,-0.0231 c 2.317111,-3.75532 0.175509,-5.01094 0,0 z m 55.967859,-0.0372 c 3.98107,-4.44037 -9.04603,-11.01127 -14.41557,-9.05882 -7.51628,1.62543 7.15456,7.74573 10.52185,8.64894 1.28625,0.22756 2.58873,0.3594 3.89372,0.40988 z m -46.77345,-0.16569 c -0.37077,-2.79299 -0.6937,-1.00233 0,0 z m 2.52263,-0.0338 c -0.61353,-3.50672 -1.51338,-2.05294 0,0 z m 6.6143,-0.0499 c -0.0899,-0.67046 -0.41085,0.18093 0,0 z m -11.81172,-0.2951 c -0.0574,-0.65487 -0.14294,0.6696 0,0 z m -43.696255,0.0237 c 5.399796,0.96685 13.702878,-3.46676 14.033435,-7.53238 -5.730824,-2.21813 -15.620954,2.83892 -15.306364,7.43167 z m 35.448059,-0.12912 c 2.507773,-2.99592 1.50474,-4.77534 0,0 z m 14.534486,-0.16508 c 0.0794,-2.65154 -3.33775,-3.55247 0,0 z m -56.989097,-0.22643 c 3.83552,-0.76227 13.625203,-8.58935 3.937638,-6.71044 -4.037679,0.402 -19.033559,-0.93518 -9.734422,4.4628 1.861743,0.86137 3.656419,2.23448 5.796784,2.24764 z m 20.120158,-0.0473 c 2.884564,-0.93197 12.810667,-2.77139 10.992047,-5.54604 -1.774543,-0.13284 -18.822265,4.17082 -10.992047,5.54604 z m 87.321499,-0.0473 c 3.90812,-1.37591 17.04556,-8.28479 6.16715,-8.63242 -4.09256,-0.59852 -14.38193,-0.87984 -14.74329,2.68538 2.7726,2.05929 4.64545,6.01983 8.57614,5.94704 z m -58.1591,-0.16568 c 0.40106,-0.97117 -0.37297,0.0573 0,0 z m -1.78635,-0.12941 c 0.85186,-2.0404 -0.56389,-0.0214 0,0 z m -8.179049,-0.20198 c 2.414763,-2.06858 0.896811,-2.36824 -0.02457,-0.35446 z m 19.944319,-0.4599 c -1.0269,-2.98144 -3.06057,-2.65861 0,0 z m 6.66164,-0.29756 c -0.77796,-1.70884 -1.82454,-0.51064 0,0 z m 7.95338,0.071 c 2.22141,-1.66537 -9.7247,-5.70885 -3.26583,-1.05447 l 1.63683,0.74315 z m -35.080099,-0.54444 c 1.781523,-1.07737 -0.961951,0.0622 0,0 z m 18.084479,-0.0237 c -0.0117,-1.06333 -0.91001,-0.76972 0,0 z m 3.92935,-0.0947 c -1.61592,-3.42102 -3.56958,-2.57539 0,0 z m -24.120522,-0.11835 -0.147774,8e-4 z m 4.605655,-0.0338 0.01978,-0.18204 z m 21.929287,-0.24502 c -0.86488,-1.31666 -0.83833,-0.20178 0,0 z m -25.966841,-0.0289 c 2.888656,-1.55967 -1.000281,-0.18131 0,0 z m 4.557127,-0.34272 c 1.937355,-1.21031 -0.146846,-0.84141 0,0 z m 5.445464,-0.23553 c -0.898145,-1.95124 -1.718063,-0.91613 0,0 z m 13.89474,-0.52076 c -1.8459,-2.85548 -2.79681,-1.10843 0,0 z m 4.67329,0.0102 c -0.26843,-1.0781 -0.85645,-0.0342 0,0 z m -3.30038,-0.0575 c -1.52865,-3.09954 -3.91233,-2.40747 0,0 z m -10.43943,-0.11896 c 2.58016,-2.88002 -0.75901,-1.39363 0,0 z m 12.03552,-0.1076 -0.27789,-0.20374 z m -9.08958,-0.47341 c 3.0169,-3.12785 -1.93028,-0.40461 0,0 z m -6.49594,-0.34154 c -0.52899,-2.97743 -1.27869,-0.65915 0,0 z m -13.185834,-1.3029 c 0.43734,-0.67304 -0.927251,0.61745 0,0 z m 30.949094,0.0607 c -0.51499,-0.96418 -1.27675,0.05 0,0 z m -40.879423,-0.12032 c 3.199819,0.97422 14.554409,-3.6543 5.887829,-2.59533 -0.944659,0.19441 -9.169754,1.77397 -5.887829,2.59533 z m 16.664228,-0.0947 c 0.965098,-0.41614 -0.61016,-0.22915 0,0 z m 19.244335,-0.0609 1.31554,1.28721 z m 2.79316,0.048 c -0.72844,-0.7575 -0.7524,0.0203 0,0 z m -28.428605,-0.0818 0.152373,-0.146 z m 27.565695,-0.12911 c -2.29166,-2.46699 -4.11531,-1.12801 0,0 z m -20.559152,-0.15494 0.532858,-0.28336 z m 37.352492,-0.0711 c -1.60438,-2.69972 -14.54011,-3.60799 -5.6811,-1.42014 1.94106,0.29299 3.70369,1.30367 5.6811,1.42014 z m -34.971883,-0.0811 c -0.393818,-3.08933 -1.831363,-1.66773 0,0 z m -10.049945,-0.0372 c 3.938431,-1.13262 7.033734,-3.21534 0,0 z M 102.7137,138.0333 c 0.0307,-2.76714 -1.32399,-1.93018 -0.34839,-0.16657 z m -2.21153,-0.0102 c -1.176305,-4.11057 -2.220618,-2.22598 0,0 z m 6.16455,-0.0845 c 3.18781,-3.97358 2.56664,-6.70822 0,0 z m -18.581562,-0.0473 c 3.780296,-1.15199 0.877385,-1.41179 0,0 z m 31.931882,-0.0609 c -0.36266,-0.6335 -0.63702,0.20814 0,0 z m -14.48652,-0.22319 c 2.19258,-2.04895 0.12517,-2.22616 0,0 z m 15.10196,-0.52076 c -0.70125,-1.10695 -2.87568,-0.44449 0,0 z m -63.082622,-0.0473 c 8.593226,-1.54495 17.519453,0.70142 25.831461,-2.06936 -3.803089,-2.36347 -16.270645,-2.7117 -23.179088,-1.40451 -1.944499,0.37903 -8.344962,3.49071 -2.652373,3.47387 z m 36.973751,-0.0473 c 3.216019,-1.00217 -0.833346,-0.47778 0,0 z m 14.699551,-0.18937 c 2.56002,-2.29322 -0.20497,-2.7698 0,0 z m 7.75325,-0.50784 c -1.82724,-2.19339 -3.614,-0.46534 0,0 z m -5.65787,-0.21362 c 2.31599,-3.98861 -1.01593,-0.70881 0,0 z m 9.12457,-0.10702 h -0.13859 z m -19.72852,-0.10545 c -0.33889,-3.43279 -1.649896,-2.12121 0,0 z m 33.22086,-0.0129 c 6.91604,-2.24478 14.98398,1.94861 21.16174,-1.58591 -6.42411,-5.34189 -14.6239,-2.92401 -21.96648,-1.59902 -4.55713,-0.13075 -9.23243,2.49923 -1.97003,2.94309 l 0.92846,0.0895 z m -43.199168,-0.18936 c 3.161244,-0.42456 0.439907,-0.98357 0,0 z m -2.083022,-0.0473 c 4.699885,-0.74999 -0.598792,-1.65617 0,0 z m 17.18498,-0.26039 c 1.75379,-1.76937 0.50529,-3.07698 0,0 z m -11.409313,-0.44975 c 2.820216,-0.41437 0.336376,-0.81679 0,0 z m 25.696313,-0.10483 -0.73951,-0.1926 z m -2.80668,-0.25022 c -2.59197,-2.37466 -3.04926,-0.52273 0,0 z m -28.996697,-0.30786 c 5.247758,-1.25827 -2.496346,-0.16921 0,0 z m 4.876189,-0.71013 c 3.207719,-0.31006 0.06295,-0.83453 0,0 z m 9.610328,-0.21303 c -0.5492,-3.47398 -1.39936,-1.26188 0,0 z m 15.18649,0.10821 c -2.09431,-1.88987 -7.09587,-1.70853 0,0 z m -7.5282,-0.0956 c 1.59578,-3.24162 -0.5815,-3.34086 0,0 z m -12.568281,-0.0938 c -0.03075,-2.40783 -1.85766,-2.10207 0,0 z m -9.29247,-0.0372 c 4.729764,-0.44467 -0.932821,-1.30795 0,0 z m 33.352121,-0.1076 c -1.96952,-0.85012 -3.16084,-0.044 0,0 z m -20.93511,-0.0919 c 0.15942,-2.75194 -1.700404,-1.41232 0,0 z m -1.623142,-0.22655 c -0.316382,-3.28081 -1.611845,-1.49192 0,0 z m -59.295291,0 c 5.283149,1.6217 16.525967,-6.28831 6.945667,-7.70693 -4.847212,-0.389 -15.58626,-2.11794 -15.630959,3.99199 2.486716,1.88572 5.685225,3.04138 8.685292,3.71494 z m -0.852148,-0.75747 c -3.946462,-4.46803 18.904453,-4.18923 7.048085,-1.73258 -2.571638,-0.17906 -4.782235,0.60805 -7.048085,1.73258 z m 68.374731,0.27389 c 2.84455,-2.58116 -1.86395,0.0159 0,0 z m -0.87643,-0.21365 c 0.77704,-1.16493 -0.62243,-1.05771 0,0 z m 1.98834,-0.14202 c 1.97879,-4.03216 -0.48672,-1.96609 0,0 z m 3.48022,-0.21242 c 1.02978,-2.71385 -0.68411,-0.54995 0,0 z m 4.85273,-0.11983 c -1.55717,-1.79567 -3.13816,0.52336 0,0 z m -23.921239,-0.53281 c 2.461888,0.38243 1.038838,-0.9428 -0.347834,-0.0839 z m 74.586619,-0.0473 c 5.67452,1.77934 16.74913,-5.44602 6.52955,-7.82106 -4.66923,-1.56966 -20.71255,1.10939 -12.73149,7.20567 2.04808,0.41743 4.17193,0.0684 6.20194,0.61539 z m 4.71048,-1.08886 c -3.77274,-1.78535 -10.57691,-0.14404 -12.50851,-2.59242 4.28963,-0.58213 12.7074,-0.30528 14.63875,2.45036 l -1.06553,0.10511 z m -83.936563,0.99417 c 3.500193,-0.50513 -1.582349,-0.5121 0,0 z m 21.434673,-0.10573 c 1.16489,-3.3484 0.22436,-6.80854 0,0 z m 7.90693,-0.23581 c -1.193,-1.0998 -3.77785,-0.14943 -0.90872,-0.0173 z M 107.6609,130.506 c 1.62193,-2.76857 -0.0894,-2.77135 0,0 z m -18.297516,-0.14203 c 3.710072,0.15214 -0.712044,-0.5592 0,0 z m 32.026556,-0.18936 c 0.63407,-0.0567 -0.52545,-0.18722 0,0 z m -33.494146,-0.0947 c 4.063015,0.41072 -1.454884,-1.03637 0,0 z m 11.693358,-0.26038 c -0.291743,-3.62318 -0.874638,0.30421 0,0 z m 11.753618,0.0366 c 1.43104,-2.6237 -0.54394,-3.6879 0,0 z m 9.70503,0 c -0.83505,-1.14541 -2.02661,0.7668 0,0 z m -34.33554,-0.48632 c 4.870825,-2.30746 -12.566672,-3.70235 -15.388846,-3.39008 -0.159815,4.61184 11.730765,1.26573 15.388846,3.39008 z m 14.1213,-0.38888 c -0.30147,-3.71833 -2.18843,-2.7207 0,0 z m -3.124545,-0.0473 c 0.440043,-3.0486 -1.553762,-2.81536 0,0 z m -40.916622,-0.0372 c 2.846375,-1.69977 14.577574,1.27971 12.086928,-3.38342 -4.594101,0.19876 -18.641031,-7.55504 -16.180493,1.42287 0.782098,1.43228 2.508229,2.1706 4.093565,1.96055 z m 60.999587,-0.28405 c -2.38063,-1.58654 -3.67152,0.51809 0,0 z m -16.01158,-0.0575 c 0.18592,-3.62598 -1.19085,-1.32525 0,0 z m 18.37866,0.0102 c 4.1169,-1.19762 -4.36968,1.63883 0,0 z m -26.250894,-0.39226 c -1.869686,-0.84042 -2.331766,0.21436 0,0 z m 18.926484,0.0507 c 0.92993,-1.48068 -0.77484,-1.92174 0,0 z m 41.03159,-0.41593 c 7.47126,0.6208 3.19059,-11.33655 -2.76626,-6.34364 -3.82138,0.0737 -14.7551,4.25689 -5.48756,5.46909 2.7385,0.4002 5.49522,0.66073 8.25382,0.87455 z m -29.73049,-0.28405 c 3.61072,-1.38262 18.92039,0.78626 14.01332,-3.50326 -1.46814,1.63028 -17.91204,0.0657 -14.01332,3.50326 z m -14.77056,-0.0473 c 1.17841,-1.38443 -0.20391,-4.58967 0,0 z m -19.575737,-0.0473 c -1.370606,-1.00044 -2.173212,0.2168 0,0 z M 107.4377,127.0874 c 0.54639,-1.55418 -0.61414,-1.38687 0,0 z m 13.05276,0.0102 c 2.09502,-0.0385 -0.91383,-0.4684 0,0 z m -28.760008,-0.14202 c -1.891575,-0.54076 -0.914225,0.149 0,0 z m -3.834658,-0.37874 c 3.298154,-0.0448 -2.200638,-0.72761 0,0 z m 28.428596,-0.33139 c 4.98655,-0.075 -1.26173,-1.02007 0,0 z m -7.68008,-0.31847 c 1.25204,-2.73264 -1.07248,-0.60775 0,0 z m -19.4703,-0.0129 c 0.393217,-1.11358 -3.19547,0.4352 0,0 z m 30.65365,0 c 3.39558,-0.7267 1.27474,-1.2084 0,0 z m -90.185642,-0.0474 c 9.155677,-0.33514 5.531504,-11.1849 -1.822239,-8.79362 -9.326467,-0.0893 -3.202567,7.47894 1.822239,8.79362 z m 70.846632,-0.0237 c -0.0977,-3.55895 -1.517258,-1.98678 0,0 z m 11.71703,0.005 c 1.14922,-2.88159 -0.85079,-2.62671 0,0 z m -18.899424,-0.0864 c -1.498674,-1.09406 -2.093665,0.20467 0,0 z m -7.682858,-0.0845 c 4.691088,-2.28137 -10.080031,-3.97861 -12.625666,-6.99609 -3.111188,-1.29206 -16.534815,-8.43049 -10.503859,-0.791 6.096626,7.37798 14.511648,6.24452 23.129525,7.78709 z m 25.919502,-0.0473 c 0.21685,-3.4606 -0.54573,-0.0695 0,0 z M 98.547641,125.1327 c -0.592284,-4.20514 -0.716841,0.86775 0,0 z m 18.344849,0.26036 c 4.41945,-1.36559 -3.33383,-0.47775 0,0 z m 2.60379,-0.3314 c 2.89257,-1.15121 -0.98572,0.12798 0,0 z m -28.002533,-0.20227 c -1.915899,-0.96366 -2.622016,0.13673 0,0 z m 33.257443,-0.12882 c 7.74653,-1.23388 15.99899,-1.61354 21.59194,-7.95408 5.2588,-5.76872 -7.8468,-0.29437 -9.8622,1.47991 -1.80734,1.5349 -15.58065,5.2548 -11.72974,6.47417 z m -23.50508,-0.63911 c -0.6296,-5.05189 -0.36166,2.29669 0,0 z m 80.14924,0.071 c 6.69797,-0.52535 7.39559,-9.26931 -0.49698,-9.07009 -6.70117,-2.73031 -7.06772,10.21873 0.49698,9.07009 z m -70.75194,-0.0473 c 1.52803,-2.20781 -0.19006,-3.68639 0,0 z m -3.50327,-0.0947 c 1.24584,-2.33106 -0.66706,-1.52997 0,0 z m 1.59839,-0.22425 c 1.58408,-1.75737 -0.70782,-4.94988 0,0 z m -16.889716,0.0112 c 4.635638,-0.16191 -4.70206,-1.61666 0,0 z M 46.755986,123.6415 c 8.621952,-0.86553 -0.242841,-9.03838 -5.290271,-6.99488 -11.158038,-2.43292 -3.086626,8.16302 5.290271,6.99488 z m 1.449836,-5.36133 0.08846,-0.0112 z m 65.948918,5.35541 c 4.05654,-0.12096 2.22188,-1.99635 0,0 z m -48.556818,-0.0888 c 0.0654,-5.44282 -15.580013,-8.09859 -12.687538,-2.69841 4.217644,0.96994 8.53773,1.61715 12.687538,2.69841 z m 51.483938,-0.23671 c 1.24915,-0.10849 -0.1014,-0.65569 0,0 z m 1.23088,-0.0473 0.0376,-0.083 z m -19.149657,-0.11836 c 0.27888,-2.79288 -1.553986,-2.94297 0,0 z m 18.818267,-0.26038 0.11911,-0.11131 z m 42.93879,0 c 4.2939,-0.88067 17.47282,-1.80469 13.04299,-8.30821 -4.23425,-9e-4 -21.98936,1.62468 -13.04299,8.30821 z m -70.136507,-0.52075 c 1.142559,-0.64934 -1.900976,0.0322 0,0 z m 3.37477,-0.10483 c -1.229126,-1.96652 -3.888964,-0.31697 0,0 z m 20.082967,0.0102 c 3.92232,-0.74397 0.0188,-1.56939 0,0 z m 2.60378,-0.0473 c 1.472,-0.24656 -0.12317,-0.71485 0,0 z m -24.73596,-0.15448 c -1.38307,-1.0832 -1.367393,-0.0452 0,0 z m 51.57862,-0.0349 c 4.07093,-2.50302 12.74818,-1.9452 13.64555,-6.20102 -3.91698,-0.79454 -13.49382,2.7148 -13.64555,6.20102 z m -35.45882,-0.18936 c 0.74652,-1.76978 -0.69857,-2.20716 0,0 z m -7.96353,-0.0575 c 0.25044,-2.86717 -1.028412,-2.4892 -0.280187,-0.32084 z m 9.98846,-0.35568 c 0.50532,-1.87057 -0.75332,-0.95456 0,0 z m 7.3487,-0.1076 c 1.5168,-0.51402 -0.8626,-0.3842 0,0 z m -25.663562,-0.34724 c -1.172226,-1.06268 -1.860991,-0.31989 0,0 z m 21.402822,-0.0315 c 2.50168,-1.39755 -1.13624,-0.40789 0,0 z m -18.189307,-0.10483 c -1.753028,-1.84508 -3.175266,-0.45905 0,0 z m 19.538537,-0.29757 c 3.02007,-1.37933 0.0559,-0.60114 0,0 z m -13.49234,-0.0237 c 0.63673,-1.96042 -1.237259,-1.80754 0,0 z m 6.16731,-0.0818 c 0.5091,-2.1081 -1.35641,-0.81138 0,0 z m -19.789055,-0.54472 c 1.338879,-4.01291 -2.427663,-0.87616 0,0 z m 24.581315,-0.17832 c 3.05019,-1.69843 0.23966,-1.89768 0,0 z m -18.852084,-0.15216 -0.139582,-0.0869 z m 3.300385,-0.22657 c -0.467725,-2.47879 -3.613781,-1.24373 0,0 z m 25.777469,-0.0473 c 3.62754,-1.5088 -2.82699,-4.94271 0.11778,-0.64805 -0.5804,-0.007 -0.94066,0.8017 -0.11778,0.64805 z m -8.45047,-0.071 c 2.85208,-1.56114 0.13345,-0.92578 0,0 z m -19.220667,-0.0894 -0.571809,-0.34704 z m 17.150557,-0.86814 c 2.07992,-1.12256 -0.17626,-1.03514 0,0 z m -13.126526,-0.0129 c -1.173935,-3.08482 -3.892121,-2.64339 0,0 z m 9.717936,-0.36582 c 1.54101,-1.9364 -0.53565,-0.48473 0,0 z m 1.5967,-0.1786 c 3.07028,-3.12862 -0.9346,-0.68388 0,0 z m -3.6453,-0.0947 c 1.1739,-1.66559 0.0148,-3.05661 0,0 z m -5.92845,-0.0581 c 0.2082,-2.77525 -2.082108,-2.80369 0,0 z m -4.628714,-0.0975 -0.142161,-0.0896 z m 6.107054,-0.10482 c -0.11253,-1.31444 -0.67691,-0.21312 0,0 z m -4.828838,-0.071 c -0.891296,-1.53339 -0.937842,-0.16249 0,0 z m -10.202098,-0.23671 c 1.54401,-1.67464 -1.515391,0.52454 0,0 z m 17.208646,-0.16569 c -0.0484,-1.76353 -0.45595,0.85436 0,0 z m -82.776694,0.14202 c 5.884479,-1.16284 12.78331,-4.88803 16.63057,-7.9421 -8.307561,0.12855 -17.425745,-8.17381 -24.395527,-2.2697 -0.849712,4.29235 3.692694,9.59478 7.764957,10.2118 z m 90.529664,-0.0584 c 2.49336,-2.88803 -1.01171,-0.26238 0,0 z m -53.958314,-0.22566 c 4.89026,-6.87636 -12.898667,-6.38383 -3.836968,-0.3047 1.323929,-0.28783 2.523468,0.50462 3.836968,0.3047 z m 44.974474,-0.0236 c -0.13426,-3.20231 -1.661,-6.71659 0,0 z m -3.597964,-0.28405 c -1.008448,-3.02828 -1.679622,-1.60791 0,0 z m 5.150084,0.0609 c 0.64551,-2.3693 -0.73491,-2.15623 0,0 z m 5.66747,-0.24501 c 2.08249,-2.60469 0.0947,-1.3413 0,0 z m 79.55746,-0.12358 c 6.8395,-1.49802 7.30659,-13.89089 -1.31774,-12.18281 -4.13006,2.21502 -13.79517,2.20791 -14.6856,4.67842 5.25061,2.73475 9.66783,7.30326 16.00334,7.50439 z m -140.699078,-0.0473 c 6.636548,-5.30641 -13.15531,-2.63158 -5.660853,-0.68909 1.934988,-0.13126 3.765275,0.63871 5.660853,0.68909 z m 64.313488,0 0.0966,-0.098 z m 0.42608,-0.2367 c 1.77948,-0.95725 -0.61434,-0.70938 0,0 z m -80.243927,-0.0473 c 4.033323,-0.34995 15.410334,-5.97558 5.337168,-4.72959 -1.209047,0.70695 -11.556919,4.02055 -5.337168,4.72959 z m 64.171469,-0.0236 -0.635301,-0.72385 z m 9.316138,-0.41255 c 0.86931,-1.98319 -0.29979,-2.58204 0,0 z m -6.38096,-0.0793 c -1.014237,-2.81982 -1.077342,-1.04311 0,0 z m 7.45629,-0.0289 c 1.19483,-2.35563 -0.4354,-0.5324 0,0 z m 42.89144,-0.071 c 4.77022,0.9944 8.8516,-6.6209 2.08353,-4.89977 -2.99271,-0.41803 -4.86676,3.76687 -2.08353,4.89977 z m -41.76599,-0.12911 c 1.39362,-1.794 -0.28183,-0.53872 0,0 z m 51.42367,-0.0602 c 4.50126,-0.22631 9.32615,-2.24501 2.36675,-3.52677 -2.63687,-0.6312 -7.48482,3.25419 -2.36675,3.52677 z m -54.76064,-0.34154 0.0879,-0.89309 z m -21.672282,-0.0372 c -1.189402,-5.44597 -5.118624,-4.99503 0,0 z m 1.751626,-0.18936 c -1.52443,-6.1019 -4.001375,-5.27787 0,0 z m 17.942456,-0.21107 c 0.32337,-1.4553 -0.7166,-0.99864 0,0 z m 1.34923,-0.0967 c 0.60569,-1.57313 -1.03257,-0.48313 0,0 z m -3.79747,-0.0811 c -0.1008,-1.66796 -1.14537,-0.75083 0,0 z m 25.62999,0.004 c 3.993,-3.88717 0.977,-4.82399 0,0 z m -2.65919,-0.0888 c 4.73813,-4.43866 1.25958,-5.99299 0,0 z m 51.19988,-1.08885 c 3.44143,-5.28161 -18.37174,-3.97826 -6.83662,-0.58717 2.22005,0.64157 4.55905,0.42548 6.83662,0.58717 z m -60.91565,-0.69722 c -2.82692,-3.14297 1.87268,-8.89597 1.24146,-8.96047 -2.74954,1.15969 -3.70567,7.28974 -1.24146,8.96047 z m 2.89859,-0.15494 c 0.19724,-1.67506 -5.58649,-6.1797 -1.32571,-0.10297 z m -24.877989,-0.52076 c -0.54999,-2.76822 -3.385674,-2.77431 0,0 z m 2.617305,-0.15217 c 1.025349,-5.63111 -2.469326,-4.74864 0,0 z m 1.395966,-0.11896 c 3.521718,-5.25002 -8.865066,-10.71775 -1.451687,-5.32103 1.201896,1.62434 1.368092,3.7271 1.451687,5.32103 z m -48.088256,-0.10759 c 4.252858,-3.28533 -8.257289,-5.57589 -11.534557,-6.71449 -3.090835,-2.02335 -18.55226,-1.51945 -8.662076,0.80316 7.239011,0.20991 13.575786,3.77678 20.196633,5.91133 z m 111.228974,-0.8995 c 6.35966,-3.25223 21.45898,-4.37639 23.29345,-7.59833 -8.26131,0.65186 -16.89288,2.05223 -24.23865,5.91866 -1.54966,0.67127 0.15016,1.85878 0.9452,1.67967 z m -79.699503,-0.56809 c 4.63396,-1.24627 0.495999,-2.77156 0,0 z m 39.601203,-0.11836 c 1.61584,-3.54687 -3.76709,-7.01352 0.0904,-2.08844 0.30506,0.36876 -0.49512,1.73522 -0.0904,2.08844 z m -9.13691,-0.35506 c 3.74988,-2.69468 -2.59599,0.50917 0,0 z m -10.864886,-0.18937 c 3.717996,-0.90429 -3.112984,-1.0224 0,0 z m 30.038206,-0.10731 c -0.837,-1.77404 -2.93037,-0.59943 0,0 z m -23.52874,-0.46079 c 3.95062,-0.63495 9.87772,-9.767613 3.25632,-3.3864 -1.01187,1.14999 -2.18072,2.73223 -3.25632,3.3864 z m -3.20632,-0.41316 c -0.83625,-3.58419 -10.155373,-7.42071 -3.694445,-2.54672 2.216115,-0.67858 1.732485,2.65768 3.694445,2.54672 z m 7.45629,-0.47342 c 0.8036,-1.7069 -1.62348,0.18393 0,0 z m -10.901468,-0.15493 c 1.828618,-1.71381 -2.09315,-1.5113 0,0 z m 31.174418,-0.42608 c 3.3025,-2.63206 -2.89992,-3.40985 0,0 z m -49.874328,-0.0473 c 1.830424,-4.20122 -5.007229,-0.60941 0,0 z m 11.504003,-0.23671 c 1.303051,-2.71656 -3.517553,-0.53225 0,0 z m 13.018925,-0.59177 c 2.41434,-1.73875 -3.23058,0.50729 0,0 z m -28.736323,-1.06518 c 5.207603,-4.45906 -1.814164,-1.55959 0,0 z m 28.144553,-0.37873 c 2.11732,-1.4781 -2.06425,-0.73636 0,0 z m 2.60378,-0.10821 c -0.0662,-0.45762 -0.1499,0.28703 0,0 z m -4.29562,-0.40009 c 0.0625,-2.53095 -0.9338,-0.48411 0,0 z m 5.05309,-0.13081 c -0.18827,-2.86941 -0.13617,0.8054 0,0 z m -5.89402,-0.0473 c 0.0408,-0.86567 -0.47703,-0.11726 0,0 z m 5.10274,0.0609 c 0.82273,-2.32933 -0.50352,-0.6911 0,0 z m 25.49281,-0.30833 c -2.07317,-2.72285 -4.30322,0.3071 0,0 z m -24.18077,-0.16847 -0.13295,-0.0757 z m -5.04188,-6.2e-4 c 0.24195,-1.51922 -1.03339,-0.9284 0,0 z m 2.97237,-0.18533 c 1.12688,-2.44123 -0.743,-1.04953 0,0 z m 2.68494,-0.28575 h -0.0408 z m -5.26506,-0.21135 c 0.52181,-0.90113 -0.81529,-0.91098 0,0 z m 2.23521,-0.43437 c 0.70913,-1.69006 -0.94425,-0.36216 0,0 z m -1.88014,-0.27575 c 0.39924,-0.71198 -0.61348,-0.40957 0,0 z m -27.211253,-0.36838 c 2.12724,-3.233576 -3.19551,0.30934 0,0 z m 56.502143,-0.71012 c 1.62956,-1.643608 -2.10743,-0.93539 0,0 z m -58.774529,-0.75749 c 2.379055,-0.842137 -1.257963,-1.438982 0,0 z M 135.19,99.402593 c 1.22267,-0.843101 -1.60937,-0.854332 0,0 z M 69.669294,98.905505 c 2.483376,-1.904082 0.429964,-2.320023 0,0 z m 30.571886,-0.129114 c -1.130124,-3.883502 -9.406492,-0.262013 -2.711691,-1.078093 l 1.392783,0.462408 z m 9.02933,-0.249619 c 2.7842,-0.97492 8.66391,-1.898791 2.44606,-1.644582 -0.65221,0.338424 -2.6464,0.547692 -2.44606,1.644582 z M 73.172575,97.911333 c 1.675928,-2.575082 -3.689834,-1.027089 0,0 z m 63.414005,-0.236708 c 1.43872,-0.06321 1.58649,-2.242433 0.31228,-0.362349 z m 4.49744,-0.258406 c -0.62596,-2.720056 -3.42606,-1.49566 0,0 z M 92.997917,96.930071 c 0.378266,-1.045971 -1.337249,0.03724 0,0 z m 24.002783,-0.02306 c 1.65611,-1.391227 -1.56017,-0.544801 0,0 z M 73.740677,95.686277 c 2.342693,-2.610245 -1.20774,-1.479878 0,0 z M 119.04653,95.47324 c 1.96774,-2.202721 -2.00381,0.06476 0,0 z M 91.223223,95.013353 c 0.374185,-1.066404 -1.673331,-0.782836 0,0 z m 45.873347,-0.639725 c 0.44884,-2.138518 -4.15284,-2.275169 0,0 z m -16.08536,-0.865059 c 0.27592,-1.223044 -1.72265,0.532401 0,0 z M 90.229053,93.167034 c 0.52168,-1.509625 -1.657264,-0.779267 0,0 z m 31.718227,-1.160483 c 3.28867,-2.234505 -1.98556,-1.499503 0,0 z M 88.453135,90.728329 c 0.308579,-1.552288 -2.22515,-0.308881 0,0 z m 35.387805,-0.804806 c 2.41137,-1.916279 -1.58234,-1.008439 0,0 z M 86.617568,89.105805 c 1.214541,-1.244627 -2.261169,-0.323947 0,0 z M 125.7346,88.692643 c 1.73466,-2.138993 -1.8373,-0.102184 0,0 z M 84.345172,87.827584 c 0.262076,-1.688919 -2.031777,-0.797044 0,0 z m 43.472458,-0.93392 c 2.15064,-2.734333 -1.67265,-0.30128 0,0 z M 81.730628,86.420249 c -0.621483,-1.168875 -1.734807,0.116042 0,0 z m -3.113782,-1.19645 c 0.484552,-1.544748 -1.887153,-0.542056 0,0 z m 51.483934,-0.142025 c 2.31543,-1.760425 -1.41883,-0.952423 0,0 z M 76.581165,84.229627 c 1.676541,-1.42252 -1.862341,-0.593816 0,0 z M 132.1128,84.063932 c 0.77513,-1.580861 -1.52472,0.300617 0,0 z M 53.431145,214.72659 c -2.678887,-2.42713 -3.37705,-4.58862 -7.376088,-5.16639 -2.381698,-4.79484 -0.322064,-3.58153 2.81736,-2.16934 5.01602,-1.87801 7.336141,-3.80924 8.023317,-6.78231 5.179107,0.35104 -2.464911,-4.39766 2.80034,-6.00613 0.485156,-5.28937 8.875657,-6.60682 8.861837,-8.27751 -2.705303,-8.69907 10.040639,-15.51443 10.899224,-20.20199 0.468051,-4.10676 11.628645,-8.6233 6.810951,-0.91848 0.06208,5.55587 -5.581967,3.64472 -4.662128,9.74347 -2.194171,6.4807 -5.364653,12.87238 -6.581419,17.13032 -4.249719,5.18853 -12.765775,10.77403 -13.263628,14.44407 -1.763703,-2.51859 -1.365557,3.16578 -3.333925,0.31474 -0.941058,1.88324 -7.096498,4.32301 -1.077262,6.15535 -0.855787,1.24812 -2.422864,1.92788 -3.918579,1.7342 z m 0.534282,-1.61976 c -0.770613,-3.28516 -3.579553,-2.17431 0,0 z m -2.617309,-3.39844 c 6.210767,-4.20218 -1.743176,1.11012 -4.686886,-1.46738 1.309097,1.11865 3.108517,1.07043 4.686886,1.46738 z m 5.254911,-3.21923 c 1.915642,-1.87 -3.398189,-1.53388 0,0 z m 2.759338,-1.47773 c 0.725462,-2.54233 -3.290132,-1.13622 0,0 z m 1.406717,-2.07289 c -0.934946,-1.98117 -3.452243,-0.81541 0,0 z m 4.118713,-7.17224 c 3.8829,-1.14108 4.774479,-4.7889 0.742185,-0.83883 l -0.901781,0.8274 0.159776,0.0118 z m -3.087953,-0.60253 c 1.404515,-5.8865 6.983781,-5.47632 11.467413,-4.81863 -5.515287,-2.03686 -10.266994,-1.5711 -11.467413,4.81863 z m 3.750737,-1.95392 c 4.846279,-2.14878 -2.788637,-3.02932 0,0 z m 4.92352,-9.08957 c 0.133065,-3.31105 5.564065,-12.96449 1.171456,-5.58816 -0.523946,1.56942 -1.783567,4.19431 -1.171456,5.58816 z m 2.545049,0.0123 c 1.050388,-3.28712 8.024442,-16.17354 2.220803,-8.06947 -0.999249,2.05311 -4.009147,6.50542 -2.220803,8.06947 z m 10.226419,-16.47421 c 0.02167,-3.49276 -4.459378,-2.09026 0,0 z m -0.08396,-2.90075 c 4.991534,-1.75023 -0.698954,-1.97411 0,0 z m 54.845181,38.03893 c -9.50446,-1.2922 -9.51093,-12.68861 -9.41254,-20.14331 -0.81277,-4.41247 3.55359,-13.62129 2.17968,-5.94161 -0.3351,3.19356 -0.77347,6.97256 -0.67377,9.18474 2.60274,-1.09425 -2.05938,5.75158 2.2828,4.61279 -3.78087,1.96586 1.43963,2.59579 -1.05702,4.56385 1.41462,2.78373 3.61013,4.31617 8.1236,5.82616 4.4973,-2.0121 2.16272,3.03839 -1.44275,1.89738 z m -2.98251,-2.60379 c 1.63945,-1.20252 -2.23727,-0.93459 0,0 z m -63.792742,2.22503 c -5.175727,-0.24521 -3.627719,-4.03213 0.01569,-2.05823 0.447746,-3.60498 5.139092,1.97563 5.15087,-2.99076 5.681414,-1.37122 -3.649183,-2.40334 1.853131,-3.23118 1.787541,-2.10302 0.246276,-3.96399 2.495891,-5.68337 -0.03596,-4.15257 0.701066,-9.24248 1.932297,-13.34787 1.757541,8.08413 -0.666595,16.94645 -4.650108,24.05215 -1.587317,2.09117 -4.120041,3.49857 -6.797776,3.25926 z m 66.443872,-2.69847 c -2.07589,-2.89161 3.36358,-0.95719 0,0 z m -67.106655,-0.61544 c -2.189249,-1.87483 2.901107,-1.36996 0,0 z m 2.887838,-1.18353 c -2.634282,-2.56252 3.231554,-1.94037 0,0 z m 77.048377,-0.49709 c -0.41613,-4.06911 4.63799,-6.70029 0.91317,-11.3467 -0.9954,-4.68936 -3.31703,-0.19222 -3.18453,-6.07165 -3.46686,-2.63883 -5.37872,-6.30427 -8.94829,-9.73242 7.81287,4.22006 16.0321,13.03505 15.33606,22.63238 -0.51677,2.06589 -1.9319,4.04157 -4.11641,4.51839 z m -75.107377,-0.0474 c -1.939273,-1.81691 2.73345,-0.86202 0,0 z m 59.768717,-0.75747 c -3.63888,-2.81238 3.77823,-2.11675 0,0 z m -60.100104,-1.98835 c -1.491724,-2.28704 3.091308,-0.83519 0,0 z m -16.616887,-0.61543 c -4.903869,-4.70085 0.333068,-12.33197 4.232227,-16.14448 3.010666,-2.5776 10.511158,-8.8682 12.147417,-6.95805 -3.33891,1.10026 -6.314636,5.70339 -8.372402,6.32012 -2.387539,1.63695 -4.293662,2.82357 -4.589542,6.03345 -3.485499,-1.88877 0.390374,3.15861 -3.260215,3.06046 -1.602447,3.26422 1.810994,4.84553 -0.157485,7.6885 z m 90.635401,-0.23671 c -2.79561,-2.6086 3.73737,-1.65929 0,0 z m -14.06044,-0.0947 c -1.87084,-1.77617 2.61648,-1.2444 0,0 z m -2.03569,-0.61545 c -2.21018,-2.57774 3.74127,-1.16735 0,0 z m -55.839352,-1.3729 c -1.078188,-1.78811 2.273839,-0.17871 0,0 z m 72.692942,-0.42607 c -1.66137,-1.9072 2.70796,-0.60171 0,0 z m -2.55644,-1.51492 c -1.94192,-2.66386 3.47175,-0.70394 0,0 z m 2.60379,-0.23672 c -2.48935,-2.88362 4.11751,-1.27282 0,0 z m -89.167815,-0.14202 c -1.983875,-2.95979 4.064807,-1.2639 0,0 z m 17.492704,-0.7338 c -1.626465,-2.58118 3.128864,-0.83672 0,0 z m 54.300751,-0.49709 c -2.01183,-1.75317 2.44601,-0.71978 0,0 z m 16.33284,-1.18353 c -2.40673,-2.12875 2.83802,-1.47249 0,0 z M 62.236645,186.866 c -3.533259,-3.12589 4.425608,-1.98774 0,0 z m 82.729365,-0.0947 c -2.10817,-1.54008 2.55827,-1.22487 0,0 z m -13.39767,-1.3729 c -2.31024,-2.28322 2.89445,-1.62323 0,0 z M 79.090237,185.351 c -1.738785,-2.61887 3.09329,-0.70712 0,0 z m -13.871071,-0.28406 c -2.568802,-2.36426 3.10936,-1.04883 0,0 z m 79.652154,-0.42607 c -2.43195,-2.43157 3.56854,-1.26951 0,0 z m -80.788348,-1.27822 c -2.944096,-1.89872 3.467943,-2.26381 0,0 z m 82.682008,-0.5681 c -2.6585,-1.70707 2.7288,-1.83352 0,0 z m -14.62854,-0.61542 c -2.1607,-1.75935 2.59756,-1.1938 0,0 z m -52.401172,-0.15517 c -0.673203,-2.28854 2.456442,0.54396 0,0 z M 66.876119,181.3271 c -3.659486,-1.49849 2.795534,-2.49107 0,0 z m 77.853181,-0.47342 c -1.83964,-2.41381 3.05136,-1.27819 0,0 z m -12.97158,-2.55645 c -1.34306,-1.4587 1.9368,-0.44691 0,0 z m 12.11943,-0.28404 c -2.90595,-0.93582 1.87911,-2.03164 0,0 z m 17.42169,-0.0474 c -4.90874,-0.33449 0.50059,-6.05468 -5.49713,-4.84825 -4.11734,-1.74565 -10.59837,0.36358 -14.44266,-5.57254 -1.62468,-2.55465 -3.26145,-4.31288 -4.0535,0.0296 -0.65802,-4.59302 -3.64701,-12.47092 -6.42265,-13.96631 -1.42269,1.27792 -5.67475,-0.25594 -8.658,0.88053 -8.96107,-7.75959 8.74536,-10.52005 10.73623,-4.83225 -1.33579,2.95183 7.48259,0.48822 7.93616,5.60808 1.77465,5.33725 2.30176,9.17518 8.84356,9.73943 1.5942,4.44413 7.63175,1.61058 8.42712,5.27634 2.4291,0.065 5.31715,1.52781 4.59499,-2.7837 5.79452,3.52368 0.5259,7.76084 -1.46412,10.46908 z m -0.87582,-1.49126 c 5.2246,-5.48735 -0.0229,-0.72075 0,0 z m 2.39075,-3.20783 c 4.60546,-3.60705 -3.02517,-0.59129 -1.25629,-0.23907 z m -2.44823,-0.99204 c -0.16324,-1.10181 -1.80574,-0.27154 0,0 z m -3.51681,-0.13189 c 1.30897,-1.72381 -2.31429,-0.74803 0,0 z m 2.33327,-0.1995 -0.18896,0.003 z m -4.9844,-0.27391 c 2.72359,-2.6439 -2.3614,-1.69271 0,0 z m -2.44913,-1.28928 c 1.33981,-2.60478 -3.3997,-0.24108 0,0 z m -2.60288,-1.46667 c 2.28471,-4.54531 -8.97665,-4.87134 -0.99489,-2.4402 1.88161,0.19695 0.10128,1.95639 0.99489,2.4402 z m -9.25589,-9.87133 c 0.35432,-3.8635 -7.71161,-8.0558 -1.97708,-2.74493 l 1.01485,1.43401 z m -10.21502,-7.6349 c 2.70674,-3.65257 -1.78674,-2.58106 0,0 z m -3.02986,-1.49126 c 1.57963,-2.58279 -5.11164,-0.44431 -1.04218,-0.0534 z m -57.448935,27.2925 c -2.006799,-2.41063 3.191918,-0.93347 0,0 z M 51.206093,174.4626 c -3.695218,-1.53758 -5.658999,-11.78916 1.23085,-10.55666 -2.18337,6.65278 5.201987,2.58492 6.50965,2.27355 -0.334041,-4.33281 12.261253,-1.36835 10.559218,-8.64005 2.916264,-5.92973 11.565366,-7.54926 12.925156,-11.00639 4.636544,0.2076 13.219122,-0.048 7.387355,6.42761 -1.079302,2.11503 -5.809728,-0.004 -6.747337,-0.50931 -2.072207,0.26597 -5.497281,12.68623 -7.974056,14.55887 -1.528932,-5.90692 -6.905748,3.92334 -10.875817,3.72692 -3.819636,3.4785 -5.88233,-0.0174 -9.723505,1.21815 -1.911573,-5.94816 -1.212222,4.44039 -3.291514,2.50731 z m 0.15555,-1.24102 c 0.550796,-3.78657 1.908067,-3.62369 -2.17993,-5.51837 -1.798925,-3.0151 2.160367,5.2752 2.17993,5.51837 z m 6.046193,-3.11439 c 1.822071,-1.27646 -1.324424,-1.5451 0,0 z m -1.585943,-0.0711 c 1.349996,-1.39869 -2.09228,-0.49398 0,0 z m 3.621624,0 c 2.298744,-2.50395 -1.856716,-2.3327 0,0 z m 3.255815,-1.1943 c -2.292696,-4.31206 10.413646,-6.2018 2.033019,-4.33098 -2.093246,1.04876 -3.847616,1.97003 -2.033019,4.33098 z m 4.034793,-1.24379 c 5.500975,-1.80254 -0.07279,-2.37393 -0.599875,-0.046 z m -16.218921,-0.53661 c 0.794177,-3.11637 -1.470371,-0.42702 0,0 z m 18.173442,-3.40289 -0.224752,-0.0863 z m 6.47227,-0.60529 0.462299,-0.48876 z m -0.601911,-0.34153 c 0.06535,-0.60626 -0.752641,0.13811 0,0 z m -3.469462,-0.98403 c -0.495563,-4.15113 10.545677,-13.3315 2.494022,-6.56813 -1.365422,1.51406 -3.858812,4.70998 -2.494022,6.56813 z m 3.065989,-2.78069 c 1.146632,-2.38623 5.518261,-7.4717 0.829107,-3.04231 -0.215105,-0.19777 -2.109392,3.59056 -0.829107,3.04231 z m 5.255369,-3.07675 c 1.227676,-2.37462 -0.509874,-0.6068 0,0 z m 4.899557,-5.32621 c -0.0068,-4.59759 -2.03597,-2.30829 0,0 z m 4.958244,-0.4387 c 1.191068,-3.28696 -6.707811,-0.50444 0,0 z m -5.018212,-5.30222 0.06437,0.0253 z"
       style="fill:#000000;stroke-width:1"
       id="path3072" />
  </g>
</svg>
