<?xml version="1.0" encoding="UTF-8" standalone="no"?>
<svg
   xmlns:dc="http://purl.org/dc/elements/1.1/"
   xmlns:cc="http://creativecommons.org/ns#"
   xmlns:rdf="http://www.w3.org/1999/02/22-rdf-syntax-ns#"
   xmlns:svg="http://www.w3.org/2000/svg"
   xmlns="http://www.w3.org/2000/svg"
   xmlns:sodipodi="http://sodipodi.sourceforge.net/DTD/sodipodi-0.dtd"
   xmlns:inkscape="http://www.inkscape.org/namespaces/inkscape"
   sodipodi:docname="bee_side.svg"
   inkscape:version="1.0 (4035a4f, 2020-05-01)"
   id="svg878"
   version="1.1"
   viewBox="0 0 188.23215 188.23215"
   height="188.23215mm"
   width="188.23215mm">
  <defs
     id="defs872" />
  <sodipodi:namedview
     inkscape:document-rotation="0"
     inkscape:window-maximized="0"
     inkscape:window-y="23"
     inkscape:window-x="0"
     inkscape:window-height="943"
     inkscape:window-width="1252"
     fit-margin-bottom="0"
     fit-margin-right="0"
     fit-margin-left="0"
     fit-margin-top="0"
     showgrid="false"
     inkscape:current-layer="layer1"
     inkscape:document-units="mm"
     inkscape:cy="98.571436"
     inkscape:cx="-450"
     inkscape:zoom="0.35"
     inkscape:pageshadow="2"
     inkscape:pageopacity="0.0"
     borderopacity="1.0"
     bordercolor="#666666"
     pagecolor="#ffffff"
     id="base" />
  <metadata
     id="metadata875">
    <rdf:RDF>
      <cc:Work
         rdf:about="">
        <dc:format>image/svg+xml</dc:format>
        <dc:type
           rdf:resource="http://purl.org/dc/dcmitype/StillImage" />
        <dc:title />
      </cc:Work>
    </rdf:RDF>
  </metadata>
  <g
     transform="translate(2.2678583,13.318455)"
     id="layer1"
     inkscape:groupmode="layer"
     inkscape:label="Layer 1">
    <g
       style="stroke-width:1.29552"
       id="g1431"
       inkscape:label="PeterM-Bee"
       transform="matrix(0.27230594,0,0,-0.21638987,14.514002,165.21222)">
      <g
         style="stroke-width:1.29552"
         id="g1433">
        <path
           d="m 342.66,0.969 c -16.47537,6.9449132 16.62719,14.722438 1.03763,30.73525 -1.63188,7.363536 -6.99415,36.407582 3.217,21.103875 C 336.53668,63.018287 322.12319,78.325968 321.633,94.902 c -11.39651,-17.358789 1.07809,17.38927 -5.883,23.821 1.99684,25.16047 6.82528,49.28372 12.33663,74.007 0.27207,16.39163 -10.61362,35.15674 -14.83106,8.7261 -5.65596,-23.31253 -15.50256,-48.68473 -13.00057,-69.84122 5.6092,-11.38679 -0.0551,-39.08408 -2.579,-11.96288 -11.25771,15.01731 13.50869,55.25115 -5.76687,55.43012 -3.37959,-16.78716 -1.02172,-17.48529 6.81573,-5.37356 -5.15652,-17.21497 -14.49011,-22.90952 -9.54086,-44.24356 10.23063,-14.15606 8.89673,-58.580013 -13.91173,-40.378047 32.11289,3.699459 -6.05866,32.760617 -0.99621,50.959107 -6.30163,21.43007 -2.87743,45.88617 -4.84218,59.22219 11.45917,5.33109 7.20547,20.14159 -3.97672,5.88058 2.94847,15.26476 -4.58885,18.99109 -11.16816,9.29617 -7.21698,-1.05854 -8.16941,4.07964 -13.63159,12.00769 -11.61515,-19.65319 -7.62153,-57.86962 -8.17702,-71.14486 -15.74115,-30.32282 -21.24223,16.74086 -25.37839,30.45817 -9.22487,23.712 -18.7995,48.50873 -21.85167,75.18599 -3.66506,7.75728 -3.86496,38.76079 -6.86041,34.07223 -4.70524,-19.7841 1.35035,-73.69964 -26.40214,-67.20864 -12.25938,18.03854 -35.75044,33.67678 -32.36678,58.19642 -7.46304,0.22733 -4.10444,27.82683 -3.96538,38.40739 4.0369,8.11107 -1.47649,34.08623 -19.05237,18.61698 C 68.044684,324.8237 35.313276,324.59349 3.801,324.316 c -4.36094676,23.43354 42.263733,6.6716 57.25,15.56462 12.084998,2.31453 51.55644,10.86414 44.265,17.71738 -30.776226,-2.8797 -61.621841,-2.70878 -92.263375,0.90587 -28.187289,7.22803 2.605622,20.4903 16.342703,10.58336 28.559691,-3.49415 57.766253,0.87629 86.084672,-2.44623 13.24822,-19.36529 11.40935,-21.45955 17.35927,0.43111 14.16154,14.61483 47.78538,16.39669 50.25473,-9.76311 5.63724,-8.21228 12.38182,7.12843 5.922,14.695 16.03593,-22.67258 -4.05583,16.4239 16.086,2.641 6.358,-10.42708 -2.57681,21.34251 6.921,-0.454 6.63434,12.92517 22.44379,28.55547 32.53234,50.03042 12.7731,17.65509 25.34354,41.01654 37.62253,61.29822 18.02592,30.29393 33.11155,62.30257 51.9955,92.16548 9.18362,11.7153 25.35397,40.99137 39.3675,35.62875 -29.26489,-10.29617 -7.24981,-29.28212 0.93685,-26.81248 -10.3768,1.68206 -22.92271,-10.48057 -9.01372,-9.28439 -17.25004,-3.35541 -18.94595,-18.706 0.77816,-8.20111 17.95727,3.93014 28.34681,3.4506 8.12672,-3.05864 -10.59133,-8.92416 -30.30121,-45.43677 -4.50988,-36.53525 -35.03759,-9.29062 15.59772,-10.03993 16.28187,-0.4235 -21.45842,-1.39069 -10.78689,3.88282 2.97613,4.6895 -1.64968,10.47744 9.20307,30.13741 -8.953,27.265 20.99844,-1.14625 11.66214,31.81724 1.67425,27.47025 29.40549,1.80026 -23.95145,45.01677 8.48389,25.27491 13.69036,-34.41152 3.73201,-72.26988 -2.26314,-107.30716 0.4269,-23.37947 -17.71442,-48.82852 -21.149,-65.985 27.43267,-4.0617 -26.36221,-52.71768 10.65628,-30.56228 52.33224,23.77746 106.95652,51.46643 165.98533,48.29666 43.58204,0.38214 15.51969,-50.64039 -4.02683,-65.44578 -26.78134,-25.20451 -54.72212,-53.89787 -91.73178,-62.22172 7.50059,-18.3901 -36.32209,-23.21721 -8.37462,-32.3214 -11.31112,-4.35941 12.22453,-6.86859 5.89762,-10.08148 9.22153,-1.87245 30.4422,-16.35773 23.45,-23.437 6.58362,-9.41569 14.12845,-23.46398 7.57438,-35.07225 9.28815,-8.85128 15.1678,-24.91048 9.93921,-25.71519 5.13606,-10.40635 -5.27496,-26.74501 1.55354,-38.62617 -3.09259,-2.2322 9.04085,-25.50925 -2.4845,-14.40689 9.01425,-10.37922 -2.12732,-6.84913 -0.56689,-7.74827 5.9809,-14.16379 -5.18225,-8.45323 -20.58674,-12.15023 -27.56793,-5.43224 -16.21779,13.57142 -12.824,13.527 -10.30896,4.28868 -0.66034,7.76546 -4.543,11.985 -16.44835,-9.41314 -11.34213,-2.36157 -29.76487,-4.73412 -1.67681,-14.43022 -12.17716,-33.32582 10.56428,-28.63743 20.17582,-5.13775 59.51556,22.80426 50.30259,-13.54645 -7.73719,-7.76897 -4.73507,-16.046047 -10.754,-19.098 -3.84207,-1.912015 1.95992,-9.046685 -6.42762,-3.079 C 453.38857,66.536844 444.88447,65.717807 427.33422,56.354141 428.41687,75.286405 414.3095,47.500897 410.504,67.504 c -11.80088,17.464016 -18.92788,18.545805 -15.996,-0.109 3.31555,-11.239139 10.95394,-43.961805 -0.227,-56.063 -0.32695,18.912313 -1.20663,50.547906 -13.886,72.406 -4.53967,9.410736 -12.12253,55.598 -12.34297,22.15694 C 364.72077,89.476875 367.65216,66.013521 349.76213,62.0785 346.98181,45.616358 366.75201,3.0994863 342.66,0.969 Z m 78.828,66.074 c 9.21292,14.617675 -4.71462,23.036469 -6.55122,2.16175 0.90406,-2.980952 4.0869,-3.020976 6.55122,-2.16175 z m 8.934,3.332 c -1.01285,9.181216 -3.78007,-10.838407 0,0 z m -88.492,2.59 c -0.0718,6.644275 -5.06555,-9.721047 0,0 z m 6.304,3.242 c -5.48199,25.67416 -0.22019,-15.843352 0,0 z m 10.801,-2.48 c 4.90669,21.670836 -15.13512,33.90468 -21.887,52.308 -7.47301,4.46739 -6.04755,45.99817 -11.68806,14.3852 -3.67468,-24.10119 12.44305,-28.76289 13.66906,-46.5182 -0.0795,23.37332 4.40817,-23.031198 4.851,7.254 4.52663,3.23188 -1.51995,-22.880472 4.60625,-7.45925 0.42434,-15.642637 0.91438,-12.267917 5.11675,-13.04875 9.07157,-9.747484 -12.75163,-1.547012 2.633,-9.683 z m -26.887,43.183 c 2.55494,3.58745 2.55494,-3.58745 0,0 z m 0,5.442 c 2.98251,11.61357 1.10947,-9.99508 0,0 z m 84,-36.122 c 4.8342,27.14634 -25.54076,-5.417744 -3.91113,-8.818085 1.39423,2.898019 2.6385,5.865829 3.91113,8.818085 z m 16.383,-6.8 c -4.38169,5.162497 -0.54171,-6.837999 0,0 z m -93.301,4.789 c -4.24334,-2.772887 3.52469,-9.773072 0,0 z m 54.489,1.75 c -4.66046,14.87152 -16.50677,-4.437791 0,0 z m 34.961,2.933 c -2.47061,3.563094 -1.20503,-3.659474 0,0 z m -93.133,1.828 c 5.32702,19.44379 -9.68762,-6.177975 0,0 z m 3.062,0.231 c -2.82941,3.337392 -0.58198,-5.234513 0,0 z m 43.946,1.523 c 2.51406,15.9822 -7.53661,-5.094924 0,0 z m 63.633,0.719 c -5.13108,18.27178 -8.5859,2.207486 0,0 z m -117.543,0.699 c -2.47061,3.563094 -1.20503,-3.659474 0,0 z m 68.855,0.422 c 1.08121,5.065277 -7.85607,20.79197 2.88488,3.023375 9.8369,0.331999 -6.41728,15.766855 8.51387,8.911875 14.93346,21.20099 -10.08492,12.77615 -16.9683,3.79903 -1.9898,3.07462 -10.55604,28.75343 -7.87682,24.89784 9.37537,-2.75506 3.06145,-17.42868 14.56681,-10.84242 -5.74822,9.8349 -9.51766,14.11349 1.82856,5.29542 15.39661,8.49712 6.89032,35.76348 -5.808,17.95388 5.01408,-10.54652 4.59645,-17.75589 -2.703,-3.441 -0.29796,-10.09165 -7.06105,1.03875 -8.641,-0.063 15.28563,10.3088 16.66459,39.90341 28.81089,44.97272 6.6626,-12.13561 10.88908,-29.74163 11.07211,-5.39772 1.5182,14.17435 10.26942,0.81263 14.93513,12.9065 3.93773,-10.14504 27.4382,-2.6125 10.95487,0.8785 -10.78179,9.85577 -20.77147,-2.67268 -34.55433,-4.43655 -10.19789,-5.21746 -48.55265,-2.67841 -18.20029,1.05543 21.39677,-4.57333 19.30642,19.26478 7.90762,21.61912 -10.29952,5.6537 -15.37541,39.50802 -6.3045,12.477 12.79104,-26.54361 -4.91128,23.191 6.73617,-2.3742 1.1463,-16.83263 22.27368,-9.01145 4.56246,-3.88792 -7.37022,13.30538 -14.75716,36.58182 0.40787,23.20312 -0.87909,16.62283 -21.00468,-1.35538 -24.461,0.094 -17.72187,-7.2294 10.41581,-39.2848 -7.352,-29.274 2.6668,-13.42172 3.70997,-14.13034 -3.27189,-15.73652 4.10798,-17.77384 -16.06524,27.74048 -11.34111,-3.54848 3.77304,-23.81435 -12.23184,-15.75727 -16.56575,-37.66462 17.50035,-1.2295 27.33167,-10.55215 19.02316,10.07859 0.97041,13.72759 -2.53707,42.89206 13.92597,16.20241 2.98848,-17.1152 1.51115,-32.09708 -4.87857,-37.75604 5.65882,-12.37906 0.51442,-18.73641 11.29764,-37.62707 C 382.95718,105.44555 392.00397,91.889571 397.5,94.324 Z m -3.66,2.238 c -3.08695,5.00753 3.95047,-1.011293 0,0 z m 3.832,13.348 c 1.20453,3.66107 2.47154,-3.56314 0,0 z m -12.895,9.461 c -3.68283,8.66065 6.44632,-7.68931 0,0 z m 13.512,24.211 c -3.3975,5.75501 2.04283,4.17994 0,0 z m -9.242,17.113 c -14.01076,15.5054 10.60599,-3.34389 0,0 z m -0.59,11.117 c -4.62633,18.35997 11.36841,-14.82842 0,0 z m 1.961,9.821 c -6.38641,11.16949 8.62135,0.34823 0,0 z m -1.871,18.758 c 0.25872,10.81862 11.75591,-7.20397 0,0 z m 7.871,-0.789 c -5.48591,10.83707 12.10348,-3.50075 0,0 z m 7.953,2.359 c -10.83464,29.48535 14.73377,-7.88476 0,0 z m -6.469,10.644 c -8.81122,13.16717 -11.0793,30.7527 -1.40725,6.68088 1.02387,-1.56095 8.42747,-19.05721 1.40725,-6.68088 z m -11.734,-2.66 c 2.55494,3.58745 2.55494,-3.58745 0,0 z m 4.168,5.11 c -7.34333,15.1877 8.8691,-12.13875 0,0 z m -5.09,12.304 c 1.04716,4.50282 0.55009,-3.69332 0,0 z m 1.922,9.145 c 1.51169,3.8548 2.58644,-5.04378 0,0 z m 9.98,1.012 c -4.40965,16.04975 8.93246,-9.69774 0,0 z M 438.715,98.863 c -4.4962,13.41638 7.57833,25.57711 -14.324,18.598 -3.37046,-13.66877 -15.24816,-21.945266 6.94014,-21.044219 3.05943,6.174209 10.90144,-9.751973 7.38386,2.446219 z m -8.254,5.793 c -6.83073,14.27318 8.4407,-2.13948 0,0 z m 13.805,8.574 c -4.23093,-2.7778 3.51649,-9.7715 0,0 z m -78.856,2.192 c 2.14104,32.63843 -7.7019,-9.64084 0,0 z m -5.902,3.019 c -2.57045,5.48497 -0.94668,-7.41855 0,0 z m -72.375,-0.48 c -2.86184,1.92882 -2.36411,-3.42425 0,0 z m 174.558,0.953 c -3.41047,6.8332 -3.23791,-6.81212 0,0 z m -86.609,1.75 c -2.57676,21.34571 -9.36631,-0.26727 -0.31987,-2.0595 z m -33.723,5.242 c -5.03499,8.51974 1.82008,-10.06645 0,0 z m 6.274,4.852 c -4.69324,-1.2943 -1.1439,-6.16487 0,0 z m -63.703,-0.582 c 2.26109,17.40218 -10.54666,-0.64374 0,0 z m 82.508,6.703 c -3.56388,12.85114 -7.05786,-8.5495 0,0 z m -12.364,1.289 c -3.20117,3.73036 -3.63779,-6.76965 0,0 z m 7.723,2.25 c 2.10236,19.16824 -22.66367,-0.89664 -2.66,-0.25 -0.2779,-1.70522 2.77374,-1.61245 2.66,0.25 z m 12.926,3.062 c -8.48959,4.44357 4.48255,-7.63723 0,0 z m 83.468,-0.058 c 4.05352,6.0004 1.33189,31.94122 -2.558,9.344 -1.52164,-1.56715 -4.04826,-14.29935 2.558,-9.344 z m 0,15.004 c 2.47933,5.26898 2.47933,-5.26898 0,0 z m 22.008,-16.567 c -2.73583,5.62387 -3.59636,-3.25498 0,0 z m -199.34,6.582 c -6.68204,10.06944 -0.91389,-12.37089 0,0 z m 111.559,-1.269 c 0.4294,11.60566 -6.10828,-4.54211 0,0 z m -39.723,2.812 c -8.24664,12.32918 -27.56158,-2.09788 0,0 z m 113.532,4.032 c 1.01942,17.34441 -6.90196,5.39838 -0.641,-2.793 z m -43.508,2.429 c 15.98686,2.95605 54.67858,11.11521 54.46297,22.45973 -16.3237,-5.21744 -44.75831,-25.4958 -51.00197,-7.04573 -0.0892,-7.47883 -17.15977,-6.41093 1,-8.57 -11.07057,-3.89084 -36.02397,-6.14986 -9.1895,-7.42555 z m -197.61,1.52 c 1.53921,23.4748 1.7189,58.13793 -13.023,79.539 -8.42442,0.58099 4.63727,-29.26922 2.9859,-40.30773 6.85151,-10.98098 3.32262,-32.3915 10.0371,-39.23127 z m 107.149,1.211 c 2.89245,8.00019 1.06313,5.91683 4.449,15.086 10.58927,-15.65951 0.92406,1.03327 -1.629,6.121 7.93951,24.86597 21.79661,49.21785 25.7546,76.34013 -0.73847,6.83427 14.47975,15.42754 2.9644,14.74187 -9.56165,-4.81596 -16.13597,-37.96489 -23.28265,-56.14267 -2.42942,-15.23412 -21.16223,-47.46518 -8.25635,-56.14633 z m 44.906,0.301 c -2.85744,1.93096 -2.36068,-3.42909 0,0 z m -4.133,1.699 c -1.19455,21.56439 3.8941,4.01588 4.6362,9.52422 -2.92573,14.93306 -5.08907,21.58722 -7.05633,6.12111 2.69804,-3.1986 -4.01125,-21.40407 2.42013,-15.64533 z m -92.902,-0.891 c 3.30726,12.36832 8.73382,58.0573 -0.531,28.934 0.3301,-7.53818 -10.9254,-26.70181 0.531,-28.934 z m 132.457,4.145 c 1.57166,18.77275 -7.78496,-10.50427 0,0 z m 22.598,7 c -2.47933,5.26898 -2.47933,-5.26898 0,0 z m -21.008,4.914 c -1.8681,16.65107 -5.19137,-7.72925 0,0 z m 17.508,2.59 c 11.70605,6.99053 -8.50632,5.27616 0,0 z m 13.504,5.55 c -5.72957,8.94772 -12.40843,5.78286 -4.512,-1.98 2.00148,5.41282 4.20706,-9.5519 4.512,1.98 z m 24.617,-0.117 c -10.69901,13.87403 2.14877,-14.25601 0,0 z m -255.59,1.848 c -3.9225,1.5675 2.98444,-6.99715 0,0 z m 88.371,0.473 c -1.0482,7.88512 -4.21084,-11.51309 0,0 z m -2.77,3 c 8.86069,8.34825 12.65981,39.79297 1.321,15.753 -0.94453,-0.88768 -7.6273,-28.41941 -1.321,-15.753 z m 54.559,2.519 c 10.42548,15.85907 -9.31174,8.29255 -0.871,-1.969 z m -142.789,2.481 c -1.5604,20.70635 -11.37605,0.0628 0.15555,-1.22723 z m 249.926,-0.348 c 1.00305,8.29198 -3.05041,23.63155 -9.5315,10.64863 7.97889,7.26252 3.46633,-16.57588 9.5315,-10.64863 z m -113.918,2.488 c -2.34445,5.16884 -5.29457,-3.72647 0,0 z m 74.386,2.914 c 13.15847,10.85603 -18.47015,-2.64772 0,0 z m -191.48,4.449 c 4.08597,28.97061 -7.28362,-14.6153 0,0 z m 223.691,-4.25 c -2.46795,3.56305 -1.20645,-3.65479 0,0 z m -162.457,2.719 c -4.59806,0.3459 2.60881,-5.4323 0,0 z M 446.648,202 c -2.82776,3.33771 -0.5817,-5.23401 0,0 z m -15.136,2.363 c -2.36527,9.79074 -9.36602,-5.22626 0,0 z m -101.227,4.071 c 9.46291,-1.54957 25.00116,61.18761 6.953,23.519 -5.99617,-1.04375 -14.68834,-38.51793 -6.953,-23.519 z m -0.058,4.921 c 1.04484,4.50258 0.54998,-3.6955 0,0 z m 21.925,-8.363 c -2.85945,1.93061 -2.3579,-3.42757 0,0 z m 21.36,3.934 c 0.0236,16.67673 -6.48332,-9.93116 0,0 z m 65.992,-0.383 c -6.38285,5.442 -5.72022,-8.05348 0,0 z m -153.953,-1 c 5.62177,22.01372 12.44776,46.72901 14.586,71.418 7.66598,13.72227 -4.13987,29.66224 -2,9.012 -5.34853,-5.26078 -5.16487,-30.71623 -11.645,-44.496 0.58206,-8.99314 -13.38097,-35.33836 -0.941,-35.934 z m -82.129,2.152 c -1.03651,14.64999 -6.88195,-3.79452 0,0 z m 66.703,0.16 c -1.21769,10.45092 -6.66543,-4.68948 0,0 z m 89.531,0.09 c -2.4657,3.56203 -1.21039,-3.6566 0,0 z m 85.34,2.75 c -5.31457,5.83161 -2.89193,-6.41487 0,0 z m 19.02,1.071 c -2.37503,9.02205 2.26522,25.28597 -10.012,6.69437 6.26635,3.25142 4.32052,-13.96751 10.012,-6.69437 z m -187.34,-1.059 c 11.63641,22.59562 -14.23185,0.11697 0,0 z m 151.504,2.621 c -5.30858,11.34172 -2.08775,-7.87077 0,0 z m 23.781,1.617 c -7.95432,6.52562 0.0631,-7.59597 0,0 z M 227.5,217.527 c 2.17637,8.94215 -5.84658,-5.79366 0,0 z m 147.781,5.582 c 1.05602,17.92132 -9.21351,-2.0834 -1.31812,-5.47238 z m -174.582,-2.441 c -1.72547,-1.83808 1.1311,-3.66563 0,0 z m 225.422,0.211 c 2.45586,8.41613 -8.50361,-2.71025 0,0 z m -6.504,1.969 c -0.45509,11.49828 -8.7789,-2.92094 0,0 z m -166.367,1.781 c 2.40391,5.15949 -7.79277,-5.12283 0,0 z m 60.891,0.32 c -2.55494,3.58745 -2.55494,-3.58745 0,0 z m 98.035,2 c -4.006,6.96003 -2.29922,-6.19941 0,0 z m -185.606,0.934 c 0.26111,5.24872 -6.35935,-4.50648 0,0 z m 79.567,1.57 c -2.59792,8.38262 -2.94996,-8.52192 0,0 z m 13.136,2.25 c 16.4645,8.2654 7.61016,24.46363 0.801,10.793 15.02103,5.32093 -25.19893,-22.67763 -0.801,-10.793 z m -45.148,-0.25 c -2.47933,5.26898 -2.47933,-5.26898 0,0 z m 143.051,-0.633 c -5.35083,17.21795 -11.83864,3.5726 0,0 z m 50.668,0.672 c -0.0212,7.1475 -5.78984,-5.60247 0,0 z m -267.742,1.461 c -4.42947,7.22602 -10.56902,44.50555 -12.51075,35.98225 3.97264,-8.03684 1.16207,-39.86675 12.51075,-35.98225 z m 175.621,2.09 c -2.71989,10.88736 -5.66126,-4.00765 0,0 z m 31.062,5.48 c -9.56053,6.19709 3.69584,-13.12618 0,0 z m 17.395,-3.019 c -1.51225,3.85461 -2.58602,-5.04382 0,0 z m -146.141,6.644 c 7.3068,24.60218 -11.35918,-20.69521 0,0 z m -21.527,-3.613 c 3.06532,10.70592 -7.44189,-7.28707 0,0 z m 214.683,-0.578 c -2.47865,3.56381 -1.19529,-3.6691 0,0 z m -205.332,2.949 c 1.81487,9.28721 -6.08265,-6.30907 0,0 z m 150.614,-0.32 c -1.39858,11.77216 -8.44121,-1.27678 0,0 z m 5.203,0.371 c -4.18408,3.46158 -0.99786,-3.52225 0,0 z m -276.16,4.75 c -1.9343,10.46768 -5.5942,0.19742 0.22637,-2.50538 z m 234.144,0.231 c 12.95223,1.21034 42.27498,35.35979 15.246,15.957 -6.90371,2.03533 -39.79266,-24.07319 -15.246,-15.957 z m 47.106,0.64 c -4.93964,3.97309 0.39694,-6.55178 0,0 z m -91.5,0.27 c 3.02406,8.31819 -9.77614,-4.77719 0,0 z m -174.153,6.843 c 17.18078,11.25482 -35.36574,-3.38075 -6.74038,-4.20912 2.39913,-7.43441 3.59709,3.09522 6.74038,4.20912 z m 103.485,-6.074 c 6.19265,8.20479 -17.44721,-3.63117 0,0 z m 149.234,1.774 c -6.21106,5.7187 0.27749,-9.02751 0,0 z m 31.352,-2.184 c -6.86374,5.87049 -4.49804,-4.90582 0,0 z m -199.43,3.441 c -4.7798,-0.70466 -2.30003,-7.75942 0,0 z m -23.649,-0.14 c -2.84364,1.94807 -2.39299,-3.43786 0,0 z m 21.008,1.453 c -3.90734,3.65017 -3.90734,-3.65017 0,0 z m 186.063,0.051 c -2.84935,1.93244 -2.37185,-3.43525 0,0 z m -163.465,4.691 c -4.29521,-0.09 -1.6009,-4.86145 0,0 z m 5.66,-1.23 c -3.64158,3.43308 -3.5552,-4.89576 0,0 z m 73.535,0.5 c -7.93006,12.76312 -4.42114,-7.62602 0,0 z m 65.766,-1.012 c -4.18408,3.46158 -0.99786,-3.52225 0,0 z m -173.094,2.941 c 2.62263,12.09019 -6.48045,-9.63348 0,0 z m -93.891,-0.191 c 5.41132,17.50809 -7.12178,-3.85817 0,0 z m 138.438,-0.75 c -2.46625,3.56227 -1.20941,-3.65614 0,0 z m 93.402,4.484 c -3.26139,29.16794 -6.18877,-17.84525 0,0 z m -235.453,0.317 c -4.00004,24.42058 -6.24242,-17.351 0,0 z m 88.512,3.875 c -1.59661,17.21548 -3.72022,-15.20983 0.30312,-5.34563 z m 203.023,-5.516 c 2.99247,12.05918 -7.30034,-9.71462 0,0 z m -236.914,0.563 c -1.72186,-1.8419 1.11943,-3.66595 0,0 z m 7.403,0.281 c -2.55494,3.58745 -2.55494,-3.58745 0,0 z m 56.449,-0.031 c 8.73037,7.01469 -11.25359,-1.66393 0,0 z m 122.113,1.031 c -1.23343,3.94596 -3.59515,-3.81146 0,0 z m 37.512,-0.063 c -2.73183,5.6257 -3.592,-3.25669 0,0 z m -152.051,2.461 c -4.82671,7.58733 -3.94137,-8.06674 0,0 z m 120.402,0.821 c -3.59036,0.8052 -1.34279,-6.26068 0,0 z m -191.429,1.39 c 5.64294,14.37433 -12.47931,49.30705 -3,19.508 0.29588,-2.37248 -0.0865,-28.80643 3,-19.508 z m 142.05,-2.308 c -6.67176,7.98084 15.41854,20.5387 -1,17.566 7.74282,-3.17596 -13.66634,-14.24537 1,-17.566 z m -182.062,0.699 c -2.55889,3.5838 -2.55889,-3.5838 0,0 z m 48.336,0.398 c -0.41849,7.1571 -6.29741,-5.2777 0,0 z m 105.719,-0.398 c -2.47318,3.56298 -1.21221,-3.65659 0,0 z m 32.007,2.601 c -4.0146,1.79576 -3.89494,-3.26988 0,0 z m 81.032,-0.601 c -2.30004,3.4693 -3.6503,-3.85061 0,0 z m -288.102,4.113 c -3.45898,1.75859 -1.68006,-4.67913 0,0 z m 280.949,0.758 c 15.50886,16.32753 -8.99074,2.08966 -3.84538,-2.72175 z m -104.226,2.391 c -1.43736,-2.42959 0.72146,-5.79354 0,0 z m 76.367,0.472 c 15.35264,15.41646 -11.69073,-8.88179 0,0 z m 39.012,-3.73 c -2.56489,3.59088 -2.54439,-3.59764 0,0 z m -181.063,1 c -3.65056,3.84961 -2.30052,-3.46852 0,0 z m 128.844,4.621 c -8.63002,4.0555 3.46439,-7.86646 0,0 z m 6.523,3.93 c -8.95368,5.41383 4.20703,-12.87137 1.23375,-1.64725 z m -227.402,-4.051 c -2.47933,5.26898 -2.47933,-5.26898 0,0 z m 97.984,-0.25 c -3.51872,16.97528 -5.41851,-4.45134 0,0 z m -9.132,3.07 c -3.36508,10.13883 -4.49391,-10.00355 0,0 z m 71.207,-0.891 c 3.39812,13.62963 -9.42103,-1.41183 0,0 z m -175.645,-0.679 c 11.03962,6.01845 -18.04467,1.3572 0,0 z m 21.59,1.25 c -2.55494,3.58745 -2.55494,-3.58745 0,0 z m 45.375,1.5 c -2.36984,5.26056 -0.86347,-5.28601 0,0 z m 121.465,0.34 c -2.38926,4.60707 -5.54375,-6.36325 0,0 z m -169.199,0.671 c -6.26945,16.88001 9.31017,28.36951 4.789,42.926 -2.30333,12.88395 1.81583,5.6581 -1.43,19.586 -7.62227,25.88681 -21.51173,-39.52311 -11.395,-7.871 9.4663,21.69794 -6.16228,-25.94424 0.961,-32.312 -1.39346,-5.25941 -1.92606,-25.6019 7.075,-22.329 z m 31.347,1.243 c -2.53617,14.36576 -3.49626,-9.53683 0,0 z m 76.047,1.5 c -2.11377,2.64307 -2.37597,-3.99158 0,0 z m 126.047,-0.582 c -0.76126,12.56865 -9.98691,-2.43202 0,0 z m -227.512,2.332 c -2.1155,6.78878 -2.10668,-6.65908 0,0 z m 191,-1 c -1.2975,4.08036 -5.83804,-4.811 0,0 z m 28.508,-0.063 c -2.73406,5.62643 -3.59762,-3.25592 0,0 z m -105.035,4.305 c -5.01551,6.86609 -5.85257,-11.46811 0,0 z m 150.051,-2.641 c -4.0146,1.79576 -3.89494,-3.26988 0,0 z m -307.11,0.399 c -2.29847,3.46851 -3.64726,-3.84779 0,0 z m 150.254,0.199 c -4.40403,15.45381 -1.97885,-7.18206 0,0 z m 80.059,1.18 c 3.48393,14.8021 -22.26027,5.86584 -11.735,14.625 -4.39105,-3.06183 -23.64952,-1.28778 -7.589,-7.051 2.09165,-2.18802 7.29032,-6.94829 13.093,-5.793 -2.01106,-5.44578 4.77588,-3.92687 6.231,-1.781 z m -123.274,0.121 c -2.47933,5.26898 -2.47933,-5.26898 0,0 z m 101.996,-0.051 c 2.36103,11.24697 -8.99709,-5.92796 0,0 z m 29.442,0.422 c 0.0643,12.81566 5.04726,22.53544 -13.395,16.273 11.52188,4.034 -2.18599,-14.12155 13.395,-16.273 z m 53.629,0.238 c -3.44338,1.75846 -1.68693,-4.67064 0,0 z m -279.348,2.641 c -4.23411,5.39951 -5.22054,-5.82148 0,0 z m 192.125,0.511 c -6.98267,15.13858 -16.38296,-7.77502 0,0 z m 46.59,2.832 c 1.99878,12.15064 -19.69878,-11.24949 0,0 z m 18.023,-2.101 c 9.48763,0.42269 20.56796,22.78004 14.528,5.012 6.30521,15.2591 38.91005,3.02362 38.14245,29.12245 -26.14061,1.99792 -55.65033,3.8415 -81.08045,0.61955 -11.10963,-4.85115 -27.03545,5.06698 -3.6927,4.62814 9.24801,-2.09114 41.91589,3.84865 16.4777,5.85186 -16.10652,0.91809 -35.06697,-1.50072 -35.6345,-16.62187 -18.8269,-9.44915 7.6211,-8.87936 19.15712,-7.6335 13.6487,-1.94745 48.44381,11.92432 51.21238,-4.38163 -6.37618,-12.56014 -32.53569,-7.55294 -29.76299,-18.51795 3.56867,0.44243 7.33932,0.32729 10.65299,1.92095 z m -49.777,26.519 c 7.2622,5.36146 4.25001,-3.47432 0,0 z m 8.363,2.442 c 2.31526,3.42231 2.89321,-1.90625 0,0 z m 27.012,-27.449 c 1.58397,5.57767 -6.22954,-5.83984 0,0 z m -101.598,1.75 c -4.18032,8.89287 -1.84661,-7.8235 0,0 z m -144.492,0.121 c -2.597,8.30949 -4.00828,-5.06301 0,0 z m 95.684,0.097 c 8.92815,6.46176 4.3295,28.53898 -1.21848,16.45906 10.37819,-1.48076 -10.48568,-18.44454 1.21848,-16.45906 z m 31.851,0.512 c -0.75638,13.74132 -5.60074,-7.36557 0,0 z m 160.637,-0.953 c 7.88604,12.89396 -12.76133,-0.26104 0,0 z m -100.695,1.871 c 1.32897,8.57297 -9.06799,-6.04477 0,0 z m -179.664,1.352 c -4.82238,7.65588 -9.63047,-8.34945 0,0 z m 5.191,0.8 c -1.38589,8.60641 -2.6689,-10.04457 0,0 z m 88.031,-2.05 c -2.47154,3.56314 -1.20453,-3.66107 0,0 z m 63.524,0.5 c -18.25464,7.49889 -15.25309,-3.75737 0,0 z m -74.528,1.55 c -7.84154,8.47932 -7.45076,-4.76285 0,0 z m 93.844,1.641 c -4.66981,10.9483 -8.81773,-8.69965 0,0 z m 65.215,-1.641 c -2.85457,1.93412 -2.36407,-3.42838 0,0 z m -130.547,2.582 c 0.19167,5.63353 -10.13892,-3.70716 0,0 z m 116.93,-1.05 c 0.0683,4.94111 -4.63447,-5.89578 0,0 z m -62.66,1.398 c 11.3482,15.3354 -30.65003,0.40514 -5.314,-1.92025 z m 22.258,0.52 c -2.82111,5.27295 -5.47943,-6.32666 0,0 z m -130.625,0.101 c 6.30344,10.3315 -7.8708,1.33095 0,0 z m 209.402,5.984 c -11.10478,-2.00647 -11.93974,-13.19603 0,0 z m -180.824,-4.101 c -2.91133,6.45352 -4.54675,7.73803 -4.59278,10.99359 -24.11923,-0.68315 -8.12631,-9.30593 3.53301,-12.07323 z m 121.054,1.598 c -9.76184,12.86842 -13.53137,-9.21974 0,0 z m 47.586,-1.661 c 4.82131,7.43408 -7.48496,-5.46315 0,0 z m -224.648,1.133 c -2.85381,1.93024 -2.37519,-3.43032 0,0 z m 117.48,-0.023 c 0.56031,6.83219 29.53225,25.56501 5.4475,9.95537 -15.09686,-7.21455 5.70775,22.30985 -10.6115,1.27863 -14.8409,-11.14172 -7.15552,-6.88707 1.032,-4.57 -2.36067,-3.03614 -0.96879,-11.78367 4.132,-6.664 z m 36.922,-0.07 c -3.12991,8.72702 -11.84758,-6.56509 0,0 z m 51.668,-0.458 c -2.55494,3.58745 -2.55494,-3.58745 0,0 z m -127.836,6.141 c 7.04079,27.15389 -12.382,-17.68049 0,0 z m -71.773,-2.082 c -2.82878,3.33849 -0.58332,-5.23403 0,0 z m 76.035,-0.148 c 7.87577,6.55091 17.99244,-5.56326 27.34975,9.86912 5.8485,15.41974 -20.1607,-14.76053 -14.85375,1.69288 -7.28019,6.89598 -20.52775,-18.06375 -12.496,-11.562 z m 82.121,0.859 c -5.86235,-2.48423 -3.33583,-4.34941 0,0 z m -15.598,-0.809 c -1.36919,7.87772 -16.61739,-3.38653 0,0 z m 44.047,0.039 c 2.28042,3.94483 -7.30937,-3.36035 0,0 z m -230.269,3.75 c -9.12576,8.92199 -5.66058,-7.93168 0,0 z m 44.222,-0.5 c 8.43725,1.72538 -5.48722,2.95331 0,0 z m 19.989,2.282 c 4.42044,8.60824 -5.51265,14.85816 11.004,14.035 -9.44981,-0.0294 -12.63318,3.15443 -1.75,5.273 -12.96907,10.26157 -23.55203,-4.66358 -16.207,-6.582 8.56239,12.45737 0.89487,-22.67301 6.953,-12.726 z m -52.02,1.062 c -5.67912,27.49949 -12.78448,-3.63863 0,0 z m 30.512,-0.59 c -1.00023,3.52122 -4.17904,-3.45908 0,0 z m 145.383,2.25 c 12.75145,10.43157 -14.8735,5.44832 -5.602,1.922 -9.92201,-5.73452 4.40101,-7.1031 5.602,-1.922 z m -107.688,0.61 c 18.61403,5.69052 -22.5734,0.6732 -4.1045,-0.6315 z m 31.621,4.14 c 17.44292,1.15793 -8.66583,11.19442 11.61762,6.03775 20.10243,1.74812 5.49028,14.96059 -7.41862,5.97825 -11.98809,8.7118 21.68148,7.24536 29.76233,20.67166 -13.24731,-3.60929 -37.21366,-11.19539 -38.68333,-18.49966 11.87525,27.00406 -18.43343,-15.16393 -12.80288,12.51312 -3.37979,-0.62867 -21.75549,-3.50769 -4.54525,-11.34162 -23.3992,5.84751 -10.08493,-5.33003 3.19113,-3.0545 9.90304,4.8353 -3.69476,-22.18353 13.14916,-9.98248 2.6271,-3.82568 -3.58444,-10.68317 5.72984,-2.32252 z m 49.235,-2.488 c 5.21748,12.83981 -10.72789,-8.44141 0,0 z m 15.496,-1.512 c -0.99369,3.52101 -4.18308,-3.45852 0,0 z m 21.84,0.418 c 15.45438,11.21123 -4.11518,3.70495 -3.403,-0.457 z m -203.805,2.301 c -4.59619,0.34236 2.61734,-5.43145 0,0 z m 176.965,-1.719 c -1.24086,3.94162 -3.58957,-3.81115 0,0 z m -100.535,3 c -2.56184,3.59193 -2.56184,-3.59193 0,0 z m 20.414,0.852 c -2.88183,13.46948 -3.62993,-5.25815 0,0 z m -4.852,5.09 c 2.95435,7.28092 -17.50108,-0.0785 0,0 z m 96.234,2.633 c -5.26267,-0.18321 -1.27287,-6.79895 0,0 z M 167.09,332.988 c -2.56184,3.59193 -2.56184,-3.59193 0,0 z m 158.863,0.93 c -1.44264,4.08961 -4.41734,-6.21966 0,0 z m -57.828,0.57 c 8.96764,0.86557 8.79515,4.55766 4.359,7.485 -0.72744,0.29731 -13.06485,-13.39536 -4.359,-7.485 z m 70.113,1.11 c -2.47815,6.29639 -10.0366,-7.61955 0,0 z m 90.942,-0.61 c -12.28145,5.51928 -63.7894,5.20605 -24.008,0.34 7.96957,-0.78074 16.05258,-2.15852 24.008,-0.34 z m 22.511,1.571 c 31.55603,10.40516 55.77868,34.30374 81.45775,54.254 11.09997,15.0639 47.05256,50.2388 17.33672,61.88341 -18.43909,5.65777 -21.9519,-25.26273 -46.27847,-19.73141 -12.96663,-3.47607 -68.23615,-14.43945 -28.4805,-1.86875 14.61632,6.67755 52.25505,3.86272 51.6718,21.25653 -17.49932,-3.53195 -51.30045,-7.3895 -57.4333,-14.72778 -26.58123,-8.33993 -51.68653,-15.73888 -77.188,-26.117 -0.62244,-9.32923 26.03516,-3.83579 37.145,3.941 10.58059,3.51416 35.81316,15.14612 19.5965,0.65591 9.33995,-11.11983 47.9945,-10.16912 44.99739,-16.19818 -19.96602,-2.028 -50.28498,-32.61505 -49.48889,-40.91073 12.95311,1.3233 32.94104,-10.5439 7.973,-5.262 -21.08725,-1.9839 -70.6899,17.87065 -71.586,-10.14 23.66688,1.3279 47.71041,-8.74206 70.277,-7.035 z m -39.515,79.089 c 10.74228,10.77929 18.8398,3.88512 0.30881,-0.54756 z M 290.953,338.309 c -1.22,4.88452 -6.28254,-7.57849 0,0 z m 8.961,-0.489 c -3.69027,4.71014 -6.48119,-6.44423 0,0 z m 7.223,-0.832 c -2.55494,3.58745 -2.55494,-3.58745 0,0 z m -129.723,3.282 c -4.76805,0.32632 0.86097,-6.29655 0,0 z m 108.715,0.269 c -2.83986,1.94473 -2.38266,-3.43089 0,0 z m 41.285,0.453 c 2.46324,8.6471 -11.23752,-4.59763 0,0 z m -162.246,2.098 c -3.20303,6.61575 2.08689,-9.75901 0,0 z m 181.086,-1.707 c 12.29796,-7.77036 45.23008,14.24321 18.906,10.742 -12.42215,2.29112 -50.67212,-11.6097 -18.906,-10.742 z m -148.594,1.07 c -1.69861,7.03609 -17.71749,6.47752 -2.82958,-1.28364 z m 116.481,0.039 c -0.85947,5.2824 -2.37517,-5.24739 0,0 z m -182.067,1.59 c -7.91514,9.52739 -9.06803,-5.09522 0,0 z m 9.004,0.41 c -2.37553,5.24755 -0.85648,-5.28249 0,0 z m 150.473,1.621 c -4.60694,1.18678 -1.08511,-6.54185 0,0 z m -21.106,0.731 c 13.70682,10.87915 -29.13076,-7.66439 0,0 z m 34.692,-0.352 c 1.54673,5.94845 -8.11477,-5.65868 0,0 z m -165.059,1.5 c -2.47154,3.56314 -1.20453,-3.66107 0,0 z m 182.567,1 c 17.79479,8.46141 72.26372,-1.93205 61.18063,26.53625 -20.49843,10.8003 -43.56976,-7.73544 -58.07663,-14.75875 -1.60545,0.81494 -17.87544,-19.92492 -3.104,-11.7775 z m -125.274,-0.41 c -1.69302,12.60877 -8.38329,0.45548 0,0 z m 105.055,2.414 c -2.69929,7.51292 -6.52347,-7.17672 0,0 z m -20.196,2.289 c -5.23954,1.64033 2.08417,-4.32191 0,0 z m -69.125,-0.351 c -2.73722,5.62497 -3.59481,-3.26043 0,0 z m 78.008,0.812 c -2.98645,8.726 -5.46001,0.90628 -0.31008,-0.68325 z m -173.863,3.461 c -3.54669,2.14408 2.49683,-5.18707 0,0 z m 110.789,3.16 c -4.57982,4.62266 -1.37052,-12.39831 0,0 z m 9.074,-1.75 c -3.327,10.60488 -2.46314,-12.0626 0,0 z m 6.684,-0.121 c -2.59567,12.31556 -2.37601,-12.20385 0,0 z m 60.871,-0.461 c 13.99164,1.82941 56.65587,27.72714 21.30663,18.17837 -8.43062,-0.85092 -42.561,-20.74591 -21.30663,-18.17837 z m -130.578,1.461 c -2.47071,5.27955 -2.48736,-5.27182 0,0 z m 260.605,3.172 c 13.09304,4.61195 41.9705,33.79026 9.86237,24.99463 -11.29232,-10.22282 -65.3617,-6.80355 -45.82139,-25.90315 12.03063,-0.13305 24.1242,-2.56965 35.95902,0.90852 z M 139.578,363 c -2.4657,3.56203 -1.21039,-3.6566 0,0 z m 190.988,0.641 c 0.2446,7.83711 -6.51352,-6.74868 0,0 z m -106.457,0.918 c -3.29986,10.7221 -6.72232,-1.23156 0,0 z m 26.008,3.492 c -2.64472,3.55883 -1.98704,-5.34541 0,0 z m -47.015,3 c -2.64014,3.57175 -1.99133,-5.34856 0,0 z m 75.886,-1.16 c 2.04236,6.35231 -8.70385,-3.92931 0,0 z m 15.254,3.5 c 19.12051,8.34249 46.0808,16.56031 59.213,28.14363 15.63645,8.30135 -14.95987,5.59091 6.47088,10.6965 9.92124,6.92974 15.36587,33.45497 -3.61619,21.9749 -8.20937,-15.05356 -38.85581,-20.29778 -57.92686,-28.00755 -12.20942,-15.25745 27.23806,9.89037 37.11058,7.00357 10.24139,5.25402 36.83085,7.62153 10.94259,0.27857 -16.603,-4.26558 -48.58274,-16.68591 -46.87,-16.89062 -15.42641,-18.83504 31.39146,8.46587 41.6223,-0.4473 -19.07044,-5.11239 -45.52934,-6.81972 -54.6263,-24.8307 1.36652,-4.72455 5.68397,7.84451 7.68,2.079 z m 48.91,26.632 c 8.09777,6.32225 7.60342,-3.88394 0,0 z m 22.278,32.602 c 3.68992,1.13939 1.8318,-1.75537 0,0 z M 255.461,381.816 c -5.01785,16.01172 -1.37486,-20.23209 0,0 z m 16.664,-5.261 c -1.74761,3.81864 -1.18475,-4.83451 0,0 z m -41.016,3.371 c -3.61753,2.1108 -4.60973,-7.92232 0,0 z m 161.481,-3.063 c 23.43101,2.50834 45.61581,18.44453 57.48064,15.64755 18.26813,-5.51922 29.33504,15.39531 5.12836,16.99345 -24.22692,16.64961 -34.07846,-10.42689 -23.71925,-10.09762 -13.51576,15.42205 -62.49892,-13.63288 -39.95261,-23.3126 z m 44.594,21.149 c 1.20645,3.65479 2.46795,-3.56305 0,0 z M 281.59,380.914 c 21.92061,11.76149 -17.46761,8.19707 -8.535,0.84 6.39176,13.0685 3.97364,-11.69332 8.535,-0.84 z m 80.258,-1.691 c 15.53639,1.03678 55.89973,28.93638 19.65,26.69988 -7.56421,-2.3496 -35.80678,-13.44573 -20.342,-14.41488 -11.14834,-3.30879 -20.4073,-17.12239 0.692,-12.285 z m 6.504,16.847 c 4.76457,5.83513 1.46596,-3.59285 0,0 z m 5.808,2.332 c 3.01345,3.304 3.0469,-1.37109 0,0 z m 4.004,1.629 c 6.36861,7.01787 6.58928,-2.73616 0,0 z M 243.117,381.504 c -2.95908,8.49441 -2.58925,-8.38008 0,0 z m 47.203,0.18 c -5.59549,0.86659 1.72598,-1.72654 0,0 z m 40.328,0.32 c -1.23326,3.95109 -3.60075,-3.80905 0,0 z m 12.801,1.754 c -7.20618,9.18397 -20.29468,-7.06336 0,0 z m -107.597,1.199 c 1.23838,9.7258 -7.997,-7.52341 0,0 z m 28.269,2.551 c 19.33721,11.55681 38.5136,24.05207 55.67328,37.51208 -13.90368,6.43974 35.16716,5.3372 30.39684,16.96079 19.6209,-4.62331 25.97759,34.8109 29.13063,49.89838 -12.85024,0.0912 -41.46545,-5.57468 -12.16175,-6.83625 -2.61451,-7.17151 -31.58441,0.41019 -34.34016,-16.34033 -9.31428,-6.19643 -30.94266,-24.56721 -21.52396,-2.38505 -7.70196,7.44119 -27.07969,-13.91747 -4.65888,-4.12262 -8.74342,-1.52895 -37.83307,-21.04687 -20.93125,-18.41525 12.16904,0.56168 16.55701,7.06968 13.13025,10.52125 13.95843,-5.96578 43.79619,4.55517 54.328,-0.77 -32.9951,-2.93285 -32.99587,-24.1566 -55.19475,-37.66825 -4.27671,-9.0055 -44.53939,-29.18031 -19.59025,-10.81975 8.59701,5.44339 -7.36088,4.76454 9.39063,8.19737 24.99531,10.43193 -2.3848,5.22821 1.07762,7.81038 15.44418,0.18073 31.6842,19.19561 6.15763,7.57987 -21.08128,-4.0777 -4.34209,-11.26924 -24.18888,-16.07562 -4.50877,-7.23536 9.8646,-1.87629 -6.39162,-9.69263 -9.93677,-13.21502 5.72676,-4.04234 -4.37338,-15.27637 l 2.05825,-1.49363 z m 36.766,27.168 c 5.50627,1.63254 0.99793,-1.76221 0,0 z m 23.238,22.359 c 1.80566,6.44307 20.59761,-0.0946 0,0 z m 12.023,8.992 c 6.007,3.98013 4.50489,-3.09094 0,0 z m -45.656,5.504 c 13.01195,3.5803 -8.56901,-5.30991 0,0 z m 33.653,9.192 c 13.47628,7.76908 17.37983,-2.40309 0,0 z m 15.753,2.972 c 5.51462,1.64008 0.99876,-1.77143 0,0 z m -4.179,5.231 c 5.43877,7.18771 9.90559,-4.45046 0,0 z m 8.121,0.742 c 3.84067,6.38265 11.5643,-1.9667 0,0 z M 243.938,389.77 c 0.55409,9.3537 6.31158,21.75529 -7.426,5.039 -1.3405,-0.16187 5.67011,-10.12041 7.426,-5.039 z m 107.355,1.199 c 5.29641,7.39506 -12.44255,-6.62027 0,0 z m -95.422,0.371 c 2.75767,9.71572 -15.50371,-6.00059 0,0 z m 32.32,1.668 c 16.74426,12.1495 -19.85634,-2.49597 0,0 z m -30.261,6.933 c -1.44697,4.09114 -4.41432,-6.2223 0,0 z m 5.793,7.934 c 8.22765,10.15768 9.46483,19.91255 -1.68175,4.4455 -6.81971,-3.4401 -6.3899,-13.03201 1.68175,-4.4455 z m -12.555,0.66 c 10.55477,10.53085 -16.74168,-5.82556 0,0 z m 7.703,11.356 c 2.2456,12.3692 -15.79403,-13.48179 0,0 z m 54.82,-4.032 c 9.34569,2.95725 55.29343,22.86221 23.685,12.82175 -3.27542,0.085 -37.68401,-14.8381 -23.685,-12.82175 z m -40.113,9.282 c 12.68979,4.33506 31.7609,26.09725 6.28688,14.06044 -6.45392,-5.07181 -7.38546,-13.58902 -9.95888,-15.57244 z m 3.77,6.05 c 9.8762,6.35885 4.23797,-4.56145 0,0 z m -14.875,-3.718 c 7.75312,13.44821 -16.43072,-7.77134 0,0 z m 36.984,5.761 c 25.16462,-5.28601 9.03402,29.43238 0.218,6.66925 36.77382,5.5264 -30.47498,-10.58831 -0.218,-6.66925 z m -32.305,3.493 c 15.69044,16.54124 -2.81077,14.44641 -2.73095,-1.48178 z m 214.547,7.3 c -2.88736,4.19017 -6.14888,-4.40134 0,0 z m -152.875,5.571 c 7.91629,7.16094 -21.36683,-7.5876 0,0 z m 206.395,2.433 c -2.55494,3.58745 -2.55494,-3.58745 0,0 z m -250.59,6.27 c 6.8491,4.40132 23.09542,34.47046 15.398,30.082 -11.52341,7.81185 -33.82755,-44.80713 -15.398,-30.082 z m 2.73,9.914 c 4.11465,5.29569 2.27986,-4.39064 0,0 z m 36.786,1.051 c -2.65749,4.90527 12.3379,7.06134 15.38361,14.68717 -10.44598,0.0308 -31.59305,-8.21675 -19.82561,-13.53517 -5.07224,-2.73128 3.46032,-6.3926 4.442,-1.152 z m -13.805,8.402 c 7.83829,7.32483 -6.77181,8.17938 8.907,12.33263 9.50095,27.98129 -32.96764,-24.13834 -8.907,-12.33263 z m 16.656,5.914 c 13.57391,0.11386 33.10753,18.80164 6.731,9.043 -5.5922,1.7084 -23.46116,-14.93191 -6.731,-9.043 z m -28.32,9.074 c 8.87191,10.1926 -11.0268,-5.53294 0,0 z m 61.48,-0.332 c 15.08673,-1.40739 29.97185,9.78315 15.314,13.875 23.89859,7.16833 -34.10275,7.32788 -21.415,-10.082 -6.32364,-5.78592 4.39262,-5.11618 6.101,-3.793 z m -2,7.824 c 7.15599,4.22928 9.86433,-3.60232 0,0 z m -28.011,-6.324 c 13.3356,0.35589 30.47122,16.30891 6.863,8.543 -4.4005,3.46763 -17.13899,-12.25278 -6.863,-8.543 z m -10.563,5.512 c 18.20979,4.89233 2.51156,9.55215 6.22836,10.38144 26.66601,11.3115 -8.8774,5.82064 -8.48282,-1.62102 15.87307,3.63247 -24.15702,-17.07031 2.25446,-8.76042 z m -14.496,1.684 c 7.63026,12.35744 12.00975,19.43567 21.85938,35.809 13.23852,14.56085 7.71441,23.03895 21.59762,33.409 -8.99267,1.03392 14.96498,13.61243 -6.14287,8.34675 -9.85201,-10.28799 7.59226,-6.46497 -10.31338,-15.43725 C 319.68061,544.5662 304.38247,519.81656 301.707,500.047 Z m 38.566,5.871 c 25.51192,14.7894 -24.7577,-0.9281 -4.89838,-1.374 z m 20.008,5.171 c 11.1571,-3.18501 34.75432,8.22043 11.102,8.485 -9.29477,5.54249 -33.46247,-14.87806 -11.102,-8.485 z m -16.426,5.602 c 8.55361,5.69748 -3.91693,5.44996 4.371,12.047 -5.447,0.8012 -18.12042,-20.7676 -4.371,-12.047 z m -21.738,0.031 c 15.75278,7.05465 28.76119,18.68453 31.46655,32.87686 -9.63476,-7.17621 -32.31472,-14.89384 -35.01155,-34.42961 z m 9.094,13.891 c 8.68472,4.95585 4.04811,-3.03193 -1.42088,-1.28025 z m 8.762,15.109 c 4.5858,8.09077 48.22969,25.38709 14.21009,17.83745 -8.55704,5.78257 -30.95871,-28.62133 -14.21009,-17.83745 z m 2.8,35.961 c -2.70245,4.18962 -3.1386,-5.22558 0,0 z m 10.543,3.543 c -3.78496,10.63734 -10.6929,-5.83217 0,0 z m 77.789,-455.152 c -5.53029,18.94788 1.1842,15.0571 0,0 z m -10.304,0.891 c -13.44256,10.17552 6.67239,0.293 0,0 z m 3.082,3.679 c -6.80799,47.3608 9.44374,-20.29281 0,0 z m 12.535,-3.129 c -0.33465,6.88787 4.42723,-3.7407 0,0 z m -1.883,7.032 c -3.6145,5.63094 3.8676,1.41216 0,0 z m 3.371,2.769 c -2.87336,16.92883 4.09404,3.41254 0,0 z m -79.316,396.043 c 12.4651,5.79877 7.34043,-4.73153 0,0 z m 14.472,12.059 c 6.04738,5.24752 3.04823,-3.28703 0,0 z m -8.281,27.554 c 7.62841,6.30554 7.84988,-2.86511 0,0 z"
           style="fill:#090909;fill-opacity:1;fill-rule:nonzero;stroke:none;stroke-width:1.29552"
           id="path1435" />
      </g>
    </g>
  </g>
</svg>
