<?xml version="1.0" encoding="UTF-8" standalone="no"?>
<!-- Created with Inkscape (http://www.inkscape.org/) -->

<svg
   xmlns:dc="http://purl.org/dc/elements/1.1/"
   xmlns:cc="http://creativecommons.org/ns#"
   xmlns:rdf="http://www.w3.org/1999/02/22-rdf-syntax-ns#"
   xmlns:svg="http://www.w3.org/2000/svg"
   xmlns="http://www.w3.org/2000/svg"
   xmlns:sodipodi="http://sodipodi.sourceforge.net/DTD/sodipodi-0.dtd"
   xmlns:inkscape="http://www.inkscape.org/namespaces/inkscape"
   width="210mm"
   height="297mm"
   viewBox="0 0 210 297"
   version="1.1"
   id="svg8"
   inkscape:version="0.92.3 (2405546, 2018-03-11)"
   sodipodi:docname="bird.svg">
  <defs
     id="defs2" />
  <sodipodi:namedview
     id="base"
     pagecolor="#ffffff"
     bordercolor="#666666"
     borderopacity="1.0"
     inkscape:pageopacity="0.0"
     inkscape:pageshadow="2"
     inkscape:zoom="0.0875"
     inkscape:cx="705.77943"
     inkscape:cy="-356.97012"
     inkscape:document-units="mm"
     inkscape:current-layer="layer1"
     showgrid="false"
     inkscape:window-width="1920"
     inkscape:window-height="1016"
     inkscape:window-x="0"
     inkscape:window-y="32"
     inkscape:window-maximized="1" />
  <metadata
     id="metadata5">
    <rdf:RDF>
      <cc:Work
         rdf:about="">
        <dc:format>image/svg+xml</dc:format>
        <dc:type
           rdf:resource="http://purl.org/dc/dcmitype/StillImage" />
        <dc:title></dc:title>
      </cc:Work>
    </rdf:RDF>
  </metadata>
  <g
     inkscape:label="Layer 1"
     inkscape:groupmode="layer"
     id="layer1">
    <path
       style="fill:#000000;stroke-width:1"
       d="m 58.965221,198.07086 c -0.08178,-0.1124 0.24442,0.0371 0,0 z m 0.55532,10e-4 c -0.150641,-0.11138 -1.065427,-0.0682 -1.356721,-0.0735 -0.233616,-0.0403 -0.916523,0.002 -1.018995,-0.049 -1.603818,-0.1133 -4.55546,-0.0969 -6.947159,-0.20174 -1.013187,-0.0164 -2.208372,-0.30905 -3.398897,-0.2603 -1.003316,-0.10975 -1.737174,-0.64111 -0.567279,-1.31599 1.690799,-0.55859 2.87516,-0.77383 4.206338,-1.31786 1.478644,-0.52847 4.269429,-1.36321 6.127734,-1.73336 2.144181,-0.75508 4.178962,-0.12042 6.152947,-0.72686 2.767828,-1.62096 5.835415,-2.2354 8.90229,-2.50479 2.31083,-1.49075 4.979876,-2.54408 7.601257,-3.27857 1.90558,-1.63721 4.622218,-1.76801 6.735631,-2.96254 1.634528,-1.39016 3.803577,-2.00791 5.708316,-2.67607 1.267923,-1.55732 3.553492,-1.51233 4.715199,-3.12946 0.939803,-0.60876 1.862271,-0.47005 2.059162,-1.75498 1.770356,-1.34304 3.181696,-2.89508 4.832296,-4.24186 1.71218,-1.48459 3.32095,-3.58986 5.67839,-4.30539 0.30064,-1.50103 1.98853,-2.5405 -0.0481,-3.44064 -4.38401,-3.18877 -9.676256,-4.70751 -15.02208,-5.24283 -7.67778,-1.35021 -15.574207,-0.94818 -23.341356,-1.31536 -9.584173,0.14737 -19.335042,0.26778 -28.592714,2.71568 -1.919717,0.2854 -3.818984,0.90981 -5.255971,1.56178 -0.593212,0.20614 -1.052206,0.56998 -1.487063,0.69645 -1.19081,0.18707 -1.785558,0.74891 -2.794454,0.93522 -0.65636,0.52389 -1.214027,0.41035 -1.46093,0.71563 -1.239518,0.031 -1.890459,0.57367 -3.062343,-0.24236 -0.475146,-0.99507 -0.190865,-2.232 0.274617,-2.43262 0.778502,-0.36863 1.013959,-1.26899 1.918874,-1.41882 1.104192,-0.74097 2.809439,-1.93299 4.179013,-2.31636 1.23513,-0.68964 2.042293,-0.57924 3.334628,-1.33134 3.188809,-0.66332 5.749926,-1.82549 9.148778,-1.86746 7.215963,-0.95643 14.542213,-1.14998 21.791698,-1.18229 2.958862,-1.38843 6.335593,-1.08339 9.345657,-2.3047 2.401668,0.25901 3.391166,-2.3625 5.862936,-2.09865 0.821681,-1.15433 2.574916,-1.03346 3.466246,-1.6389 -0.02372,-2.12591 2.65092,-2.11037 3.569216,-3.75437 3.246375,0.15491 0.204097,-2.0131 0.843223,-3.8608 -1.756644,-1.71064 -0.606322,-4.52996 -2.438181,-6.21042 -0.876781,-1.53756 -0.558971,-3.27223 -2.193712,-4.43917 -1.139322,-1.84565 -0.978278,-4.15495 -3.007239,-5.52909 -3.38014,-3.82316 -5.823431,-8.43431 -8.618851,-12.75127 -0.840555,-1.77158 -1.612459,-2.9477 -1.884788,-4.49172 -0.64934,-1.35826 -0.860634,-4.1174 -0.315541,-5.36267 0.290542,-0.72831 1.086038,-3.079946 2.516674,-2.904412 0.400687,3.194682 1.743551,6.259912 2.997562,9.201392 4.061155,8.59211 9.882374,16.28818 16.310373,23.29962 6.169698,5.68865 11.947688,12.08288 19.708248,15.60117 5.13455,1.95273 10.44586,3.74115 15.95778,4.15677 0.96581,-0.62305 1.40597,-2.40034 2.63247,-3.05298 0.79911,-1.26743 1.87652,-2.26423 3.15339,-2.60266 0.52181,-1.69984 2.87209,-1.51885 3.6575,-3.08637 0.79789,-0.63713 2.26333,-1.22301 3.22684,-2.01548 0.9734,-0.5804 3.94778,-1.3402 2.52749,-2.0568 -1.84871,-0.74321 -3.65645,-3.80661 -1.82262,-5.18674 -0.63628,-1.15757 -1.88429,-3.76009 0.41452,-4.20487 -0.48674,-0.38866 -1.21212,-1.82908 -1.38002,-2.92788 -0.0733,-1.53238 1.83257,-2.13683 0.43897,-3.56266 -0.8371,-1.58402 0.39159,-3.30696 1.92054,-3.79227 -1.11622,-1.22765 -2.12216,-3.96975 0.0884,-4.73446 -1.56115,-1.08754 -0.89598,-4.97092 1.32153,-3.78179 0.7062,0.35656 -0.56932,-1.1565 -0.55435,-1.73356 -0.3454,-1.65333 1.44321,-2.79257 -0.37932,-4.01052 -0.0869,-2.2607 -2.97516,-2.99656 -3.17884,-5.288705 -0.72002,-1.316957 -2.29986,-2.887826 -0.6226,-4.18483 3.39058,0.703224 6.29746,2.976277 8.97532,5.085567 5.83244,4.373268 10.00113,10.568868 14.64873,16.103928 1.7623,2.58195 3.19499,5.33793 4.891,7.9577 3.08388,5.05374 4.90877,10.79119 7.1255,15.96667 1.57934,4.28574 1.70967,8.82186 0.81501,13.26153 -0.35297,1.65792 -1.11609,3.2095 -1.74263,4.32531 -1.67221,2.63847 -4.40467,3.76084 -5.69503,6.58057 -0.86204,1.15816 1.18515,0.64365 1.50873,1.47324 3.2726,1.3607 5.98011,4.12202 7.93626,6.46072 0.7682,1.70842 2.01046,3.13026 2.15478,4.81081 0.3174,1.59585 0.26837,2.92179 0.2933,3.93258 0.14418,0.75548 -0.3096,1.51558 -0.48851,2.63695 0.1608,0.32165 0.27913,1.39065 0.54198,1.65674 0.24049,0.96893 0.2715,1.20953 0.43389,2.27686 0.055,0.36203 0.14489,1.14793 0.0123,2.29728 -0.69834,0.20908 -1.37516,-0.70099 -1.88671,-0.82118 -0.65304,-0.23324 -1.21683,-0.48681 -1.67381,-0.60707 -0.49389,-0.256 -1.993,-0.58852 -2.66367,-0.88603 -0.31914,-0.2303 -1.7301,-0.17362 -2.04227,-0.32411 -1.43105,-0.72961 -3.10813,0.13225 -4.44681,0.50426 -0.85416,0.43767 -2.48444,0.53228 -3.00789,0.68603 -0.88983,0.0764 -2.29916,0.23934 -3.24218,0.3651 -2.40396,0.5383 -6.20165,0.22053 -8.45864,0.51805 -0.85165,-0.10726 -1.69463,-0.28245 -2.46579,-0.46602 -2.38836,0.10514 -5.27977,-0.49138 -7.20799,-0.88779 -1.88106,-0.1469 -4.36809,-1.46589 -6.40065,-1.36516 -2.95543,1.24974 -6.3502,2.36654 -9.3255,3.12469 -2.44621,0.7874 -4.86792,1.01662 -7.34439,1.78662 -2.48046,-0.0415 -5.20071,0.75806 -7.70263,1.26448 -1.80075,0.54486 -3.61401,0.79731 -5.61532,1.13756 -2.11971,0.19657 -3.96237,0.3956 -6.04833,0.3956 -1.22993,0.36541 -2.67299,0.15433 -3.976965,0.57762 -3.292914,-0.14331 -6.322575,0.71038 -9.615671,1.11768 -3.14311,0.36778 -6.509426,0.76503 -9.789953,1.243 -1.913909,0.38811 -4.253653,0.74468 -5.738383,0.69263 -3.450859,0.44906 -7.139942,0.73598 -10.492089,0.99199 -1.512224,0.11241 -3.327395,-0.003 -4.841589,0.13305 z m 3.172029,-0.0913 c -0.165555,-0.10894 -0.04939,0.0652 0,0 z m -6.38653,-0.10121 c -0.122246,0.005 0.03578,0.14458 0,0 z m 0.277385,0 c -0.122246,0.005 0.03578,0.14458 0,0 z m 0.277385,0 c -0.122246,0.005 0.03578,0.14458 0,0 z m 7.493328,0.008 c -0.06404,-0.0118 -0.165114,0.10974 0,0 z m -15.260081,-0.28493 c -0.122246,0.005 0.03578,0.14459 0,0 z m 21.917295,-0.26983 c -0.06404,-0.0118 -0.165127,0.10971 0,0 z M 58.335467,196.5693 c 1.144306,0.0771 2.808597,-0.2459 3.337927,-0.17088 1.417122,-0.27153 2.680738,0.0955 4.314021,-0.36004 0.383914,0.24942 1.491165,-0.0995 1.978957,-0.0579 1.456587,-0.3403 3.192872,-0.41744 4.487411,-0.50981 1.495035,-0.1506 3.073447,-0.32868 4.671419,-0.56243 2.887132,-0.14944 6.380166,-0.77818 9.526411,-1.18782 3.066381,-0.68142 5.920284,-0.83742 8.990765,-1.0486 2.042913,-0.28499 4.163399,-0.69786 6.504892,-0.96463 -1.01808,-0.44529 0.7882,-1.20415 -1.19438,-0.78401 -4.343882,0.59074 -8.661599,1.28621 -13.174399,1.79308 -2.081979,0.25813 -3.618099,0.21012 -5.717661,0.28932 -4.261658,-0.19063 -8.67174,0.74162 -12.898489,0.75144 -2.996091,0.21775 -6.55854,-0.12314 -9.58626,0.33322 -0.501571,-0.054 -1.571814,0.0143 -2.499058,0.15094 -1.963556,0.39403 -4.660802,0.79559 -5.998403,1.76574 -0.275298,0.01 -0.614114,0.46575 0.171867,0.0684 0.604541,0.48721 1.570744,0.049 1.851882,0.25529 0.592414,0.0482 1.728573,0.0423 1.996787,0.0532 0.817863,0.15016 2.173087,0.13625 3.236311,0.18543 z m 0.351435,-0.0251 c 0.388418,-0.0642 0.06462,0.078 0,0 z m -4.999061,-0.22098 c 0.028,-0.0719 0.275,0.0472 0,0 z m 8.068554,0.0303 c 0.118603,-0.14762 0.127904,0.0483 0,0 z m 0.610705,-0.0568 c 0.09869,-0.0841 0.02703,0.10526 0,0 z m -11.719825,-0.0225 c 0.07979,-0.10406 0.07979,0.10405 0,0 z m 0.830956,-0.002 c 0.05127,-0.0767 0.300906,0.0538 0,0 z m 0.832148,0 c 0.05127,-0.0767 0.300906,0.0538 0,0 z m 11.755693,-0.0102 c 0.0987,-0.0841 0.02703,0.10526 0,0 z m 2.381433,-0.21614 c 0.028,-0.0719 0.274999,0.0473 0,0 z m 0.280956,0.006 c 0.02307,-0.14026 0.256508,0.0185 0,0 z m 4.181612,-0.53029 c 0.118597,-0.14767 0.127904,0.0483 0,0 z m 0.258356,-0.0185 c 0.04518,-0.0832 0.132201,0.12671 0,0 z m 0.595052,-0.003 c 0.0987,-0.0841 0.02703,0.10526 0,0 z m 2.752584,-0.25523 c 0.118597,-0.14766 0.127897,0.0483 0,0 z m 7.466249,-0.9052 c 0.127897,-0.0483 0.11861,0.14767 0,0 z m -23.851076,-0.18252 c -0.09795,-0.13562 0.148645,-0.004 0,0 z m 7.957436,-1.39855 c 2.663582,-0.43951 5.880565,-0.30512 8.688605,-0.55984 3.124228,-0.34519 6.012909,-0.32339 9.308531,-0.80069 2.97364,-0.32347 4.955974,-0.31949 7.740748,-0.70045 3.067319,-0.17902 6.278039,-0.55478 9.412212,-1.05834 1.64858,-0.11372 0.85762,-0.66587 -0.16264,-0.35377 -4.085764,0.398 -8.01061,0.31319 -12.127411,0.74287 -6.865094,0.35773 -13.771025,0.75077 -20.541462,1.43354 -0.784225,0.19361 -2.604828,0.74353 -2.435183,1.31029 l 0.11662,-0.0134 z m 7.301997,-0.50903 c -0.04167,-0.12344 0.10684,0.0148 0,0 z m 40.888629,-0.19402 c -0.12224,0.005 0.0358,0.14459 0,0 z m -9.74508,-0.54571 c 1.91999,-0.053 3.68476,-0.18738 5.34831,-0.25595 3.4548,-0.30353 7.23312,-0.88258 10.37613,-1.81853 0.53589,-0.0718 2.24828,-0.95063 0.97929,-0.76132 -0.6802,-0.52913 -2.15581,1.13344 -2.01526,0.26139 -0.75339,0.34345 -1.33221,0.55907 -1.6511,0.3807 -0.57967,0.21099 -1.54876,0.69463 -1.41829,0.19463 -0.66926,0.3842 -2.29322,0.46019 -2.94789,0.3293 -0.42749,0.18867 -1.94276,-0.16293 -2.57617,0.39397 -0.60029,-0.0798 -1.34376,-0.0151 -2.27266,0.0542 -0.67963,-0.0791 -2.77529,0.022 -1.13935,-0.45425 1.63956,-0.0238 0.37043,-0.51803 -0.52133,-0.38139 -0.97995,-0.049 -3.30147,0.65628 -2.79405,1.89773 0.0758,0.24976 0.45396,0.16486 0.63237,0.1595 z m 17.11465,-2.89546 c -0.0829,-0.17337 0.0735,0.057 0,0 z m -27.750599,1.98164 c -0.165575,-0.10895 -0.04935,0.0652 0,0 z m -17.613883,-0.75385 c 3.08908,-0.57807 6.557996,-0.49882 9.734452,-0.90739 6.091072,-0.90094 12.516494,-0.5406 18.44083,-2.49653 1.8605,-0.52436 1.13938,-1.02316 -0.47155,-0.50242 -7.891137,0.91501 -15.885424,1.62547 -23.790418,1.99444 -1.569558,0.30099 -3.581945,0.74652 -4.585404,1.87048 0.171272,0.16019 0.562554,-0.0765 0.67209,0.0414 z m 6.206464,-0.59096 c 0.01581,-0.0931 0.205039,0.0311 0,0 z M 123.037,189.1891 c 2.7355,-0.34666 5.75318,-0.97034 8.13475,-2.38579 0.16563,-0.41735 -1.76165,0.26561 -1.43893,0.0907 -0.67957,0.54756 -1.34337,0.0132 -1.93213,0.79177 -0.93394,-0.008 -0.60491,-0.36563 -1.64591,0.40595 -0.50194,-0.19423 0.83744,-1.31085 -0.54804,-0.38703 -0.9565,0.26936 -0.45653,-0.93027 -1.40425,0.17269 -0.42579,0.44184 -2.68103,0.97675 -1.16549,1.31167 z m 7.02521,-2.53787 c 0.002,-0.16489 0.18089,0.0211 0,0 z m -18.42798,2.28925 c 1.56229,-0.29794 4.88005,-0.41866 6.86454,-0.94361 2.22891,-0.50633 4.45396,-1.09339 6.38961,-1.99489 -0.44429,-0.53622 -2.17659,0.88641 -2.41523,0.49072 1.03491,-1.19545 -1.28976,0.41828 -1.94867,0.52785 0.99611,-1.46061 -1.41102,0.68213 -1.26329,0.0248 0.86158,-1.18413 -1.36443,1.11032 -1.43858,0.0791 -1.2146,0.84457 -2.75406,0.26806 -2.04311,0.23314 -0.61788,0.024 -1.2598,-0.0246 -1.95,0.18708 -0.79342,0.0961 -0.57696,-0.38608 -1.38787,-0.31619 -1.27453,0.16661 -1.49079,-0.33851 -2.28171,-0.52847 -0.97654,0.0212 -3.01863,0.50669 -2.82502,1.68281 1.35149,0.63426 3.03192,0.28516 4.29933,0.55768 z m 71.91687,-1.45834 c -0.13371,-0.11855 0.008,0.16563 0,0 z m -1.18135,-0.2687 c 0.46107,-0.87315 0.0411,-1.54723 -0.36635,-2.76714 -0.4941,-0.87314 -0.69963,-1.53777 -1.55721,-1.83916 -0.41657,-0.36507 -0.0539,-1.30844 -0.68335,-0.61657 -0.88328,-0.39789 -1.20823,1.98712 -2.19299,1.3238 -1.78556,-0.13645 -3.6184,-0.76498 -5.54105,-0.10147 0.0972,0.255 1.02401,0.0101 1.30547,0.0713 1.02074,0.0631 2.89216,0.32778 3.6492,0.73206 1.62466,0.58674 3.61895,1.68412 4.62305,2.52419 0.48282,0.24564 0.12496,0.48568 0.76323,0.67303 z m -0.15455,-0.0755 c 0.0146,-0.17079 0.11152,0.16828 0,0 z m 0.18948,-0.0173 c 0.0798,-0.10405 0.0798,0.10406 0,0 z m -1.38593,-1.02788 c 0.003,-0.18137 0.16391,0.19526 0,0 z m 0.13571,-0.24911 c -1.34177,-0.59488 -3.50692,-2.10482 -1.45786,-2.96977 1.09472,-0.0337 1.63716,1.16518 1.12323,1.70326 0.57982,0.0851 1.47172,1.41956 0.33463,1.26651 z m 0.98125,-0.85234 c -0.029,-0.29211 0.0887,0.12685 0,0 z m -1.11948,-0.28731 c -0.11207,-0.21376 -0.20799,-0.0416 0,0 z m -0.13716,-0.0798 c 0.0798,-0.10405 0.0798,0.10405 0,0 z m 1.103,-0.0106 c 0.0169,-0.0568 0.20797,-0.0504 0,0 z m -0.0971,-0.20959 c 0.0987,-0.0841 0.027,0.10524 0,0 z m -2.98357,-0.0666 c 0.1859,-0.1257 0.0863,0.0916 0,0 z m -2.04646,-0.41007 c -0.0417,-0.12343 0.10684,0.0148 0,0 z m 1.97873,-0.0308 c -0.0579,-0.14671 0.21023,-0.0346 0,0 z m 2.56588,-0.39398 c 0.0987,-0.0841 0.027,0.10525 0,0 z m -7.87639,-0.20444 c 0.0452,-0.0832 0.1322,0.12671 0,0 z m 2.95112,-0.12579 c 0.0378,-0.0873 0.0747,0.15481 0,0 z m 4.55479,-0.20386 c 0.015,-0.1422 0.1985,0.19791 0,0 z m -1.68133,-1.01189 c 0.14324,-0.0985 0.103,0.0578 0,0 z m -9.61516,5.16698 c -0.0395,-0.0748 -0.14923,0.18058 0,0 z m 9.4613,0.0396 c -0.16553,-0.10898 -0.0494,0.0653 0,0 z m -19.29552,-0.11763 c 0.82621,-0.10742 2.44844,-0.13177 3.04731,-0.19908 1.2723,-0.14676 2.49129,-0.36729 3.37212,-0.55515 1.37403,-0.17987 2.95684,-0.38987 3.97779,-0.77844 0.97867,-0.14587 -0.025,-0.98894 -0.79281,-0.43747 -0.80691,-0.0791 -0.84957,-1.06716 -1.76783,-0.84369 -0.21426,-0.40717 0.97588,-0.63268 0.10907,-0.94002 -1.31452,0.32803 0.29277,-1.12766 -1.46181,-0.74165 -1.795,0.48135 -1.24206,-0.80049 -0.11269,-0.4598 -1.41303,-0.43462 -3.39347,-0.66145 -4.97694,-0.20783 1.60091,0.42704 -2.65132,0.41527 -0.7727,0.69551 1.23342,-0.18112 0.63644,0.6068 -0.136,0.42486 -0.77891,-0.24014 -2.91055,0.007 -0.96551,0.23338 0.22365,0.78772 -2.50194,0.0161 -2.23415,0.54361 0.67814,0.0653 2.81983,0.23752 1.35525,0.62614 -0.46601,0.44047 -1.52555,0.0957 -2.05616,0.48053 0.76779,-0.0643 3.13793,0.39531 1.09287,0.42433 -0.98018,0.26189 -1.57645,0.07 -2.40933,0.38363 0.41794,0.005 1.89169,0.34314 0.675,0.51377 -0.52023,0.10179 -1.30211,0.49929 -0.79479,0.41989 0.76607,0.42946 1.6577,0.10279 2.2616,0.30792 0.47838,-0.093 1.6842,0.0494 2.58971,0.10956 z m 2.24797,-0.19581 c 0.0776,-0.0637 0.39339,0.10427 0,0 z m 3.97783,-0.55206 c 0.17333,-0.14828 -0.0111,0.14404 0,0 z m 1.02086,-0.15363 c -0.0817,-0.11241 0.24442,0.0371 0,0 z m -10.26843,-0.70191 c 0.0554,-0.10695 0.33047,0.0798 0,0 z m 2.55369,-1.87697 c 0.002,-0.1649 0.18088,0.0211 0,0 z m 0.53926,-1.05882 c 0.0111,-0.1697 0.1567,0.0661 0,0 z m -14.34186,4.28578 c -0.064,-0.0118 -0.16512,0.1097 0,0 z m -63.038871,-0.12014 c 8.296427,-1.02096 16.609098,-1.35497 24.978391,-2.55065 2.36337,-0.0892 1.76624,-0.91155 -0.66653,-0.46129 -4.11973,0.18917 -8.270463,0.36546 -12.378259,0.87172 -4.024541,0.51077 -8.545301,0.14377 -12.135549,2.04655 0.0013,0.0934 0.129278,0.17688 0.201947,0.0937 z m 68.814781,-0.008 c 1.87007,0.0444 -0.77418,-0.45676 0.46802,-0.44416 0.72062,-0.21553 -1.38506,-0.71042 -2.02031,-1.03689 -1.11593,-0.9195 3.23769,-0.004 1.18816,-0.7366 -1.79217,-0.66723 2.10494,0.0477 0.5917,-0.50326 -1.23627,-0.20946 -0.76025,-0.80387 0.32481,-0.63733 0.69555,-0.18946 1.37521,0.0712 0.33838,-0.3027 -0.61535,-0.40224 -1.77607,-0.37133 -2.27316,-0.99321 0.6867,0.18663 3.14521,0.61896 1.65973,-0.17278 -1.7582,-0.75133 0.74731,-0.10462 0.20293,-1.21812 0.0185,-0.59671 -2.72776,-1.33615 -1.2362,-1.33611 1.26556,0.22105 4.43134,0.75776 2.50829,-0.6116 0.48738,-0.99153 -2.59518,-0.86272 -2.20511,-1.82293 1.04769,0.32862 3.37176,0.80048 3.61662,-0.0556 -0.92728,-0.25587 -2.50912,-0.97683 -0.82348,-0.84799 -0.66375,-0.62001 2.50118,1.05879 2.16242,0.14949 -1.15583,-0.77509 -2.81872,-0.45348 -3.46267,-1.65564 -1.98221,-1.04402 -2.88094,0.99327 -3.32218,2.59653 -0.88252,2.40183 -2.33955,4.76896 -4.50663,5.7699 -0.98614,0.91446 -1.49421,0.56083 -2.06737,1.65367 -0.53716,0.31608 1.29545,0.68073 1.88832,0.95268 2.36232,0.46146 4.43351,0.96751 6.96773,1.25267 z m 0.47952,-0.0851 c 0.39497,-0.0644 0.0958,0.0703 0,0 z m 0.70503,-10.65214 c -0.0749,-0.20288 0.19972,-0.0159 0,0 z m 18.59039,10.62699 c 0.0703,-0.16089 -0.36311,0.27916 0,0 z m -37.89832,0.0455 c 0.49236,-0.13608 2.00998,-0.46363 0.8041,-0.90614 -0.73565,-0.3321 -2.71526,1.08704 -0.8041,0.90614 z m -0.7696,-0.25381 c 0.0987,-0.084 0.027,0.10523 0,0 z m 38.90983,0.16145 c -0.12224,0.005 0.0358,0.14455 0,0 z m -49.39791,-0.21579 c -0.0434,-0.078 -0.11287,0.21083 0,0 z m 16.39253,-0.0583 c -0.16923,0 0.0251,0.18606 0,0 z m 36.88876,-0.003 c -0.12224,0.005 0.0358,0.14456 0,0 z m -64.39983,-0.12274 c 3.0376,-0.003 6.00696,-0.18246 9.14642,-0.95871 0.84687,-0.15249 2.29594,-0.44413 2.57181,-1.01355 -0.79963,0.16118 -1.8502,0.43937 -2.51518,0.39823 0.56374,-0.63967 -2.33974,0.98146 -1.45221,0.0706 -0.65469,-0.0778 -1.73126,0.63521 -2.10521,0.44266 0.8013,-1.34286 -2.29642,1.08025 -0.98351,-0.27759 -1.26818,-0.19547 -0.58441,0.9759 -1.37498,-0.24291 -1.60274,-0.32104 -1.52083,-0.74961 -2.50557,-0.49708 -1.0888,0.11518 -3.36175,1.86612 -1.22096,2.06574 0.14597,0.0535 0.29355,0.003 0.43939,0.0126 z m 9.07996,-1.46978 c 0.0325,-0.11612 0.0733,0.0936 0,0 z m 36.4342,1.44607 c -0.0434,-0.078 -0.11287,0.21082 0,0 z m -17.17425,-0.13091 c -0.12223,0.005 0.0358,0.14461 0,0 z m 34.9674,0.0298 c -0.0679,-0.16161 -0.0679,0.16163 0,0 z m -34.41264,-0.3072 c -0.12225,0.005 0.0358,0.14458 0,0 z m -3.92677,-0.0241 c 0.83073,-0.0211 1.8124,-0.72686 0.19745,-0.83199 -0.40313,0.136 -1.25778,0.95508 -0.19745,0.83199 z m -8.39279,-0.28356 c 0.77561,0.0836 2.81266,-0.84456 2.05436,-1.19402 -0.88038,0.56746 -1.83034,-0.39826 -1.71632,-0.27131 1.52509,-0.5556 -0.2017,-0.37608 -0.85663,-0.0124 -1.32109,0.24639 0.92251,-1.14081 1.33134,-1.45939 0.90128,-0.13316 1.55426,-1.13804 0.14071,-0.60309 -1.45956,0.41667 -3.6959,1.22325 -3.53739,2.98974 0.76104,0.42604 1.69519,0.72944 2.58393,0.55052 z m 9.69111,-0.077 c -0.14898,-0.0699 -0.12622,0.17964 0,0 z m 39.93602,-0.13446 c -0.31815,-0.35666 -2.1503,-0.72959 -2.42057,-0.83198 -0.6157,-0.10783 -2.3869,-0.41503 -2.3775,0.4605 1.18287,-0.0798 2.49633,-0.003 3.54638,0.25252 0.39567,0 0.83769,0.26037 1.25169,0.11896 z m -0.25855,-0.10249 c 0.0325,-0.11612 0.0733,0.0937 0,0 z m -4.43053,-0.29329 c 0.0111,-0.16969 0.15671,0.0661 0,0 z m 1.73539,-0.41325 c 0.0798,-0.10405 0.0798,0.10405 0,0 z m 9.11798,0.6426 c -0.0371,-0.27681 -0.12052,0.26279 0,0 z m -45.34618,-0.19345 c 0.49106,-0.21979 1.72959,-0.30189 0.59976,-0.53327 -0.36179,-0.6072 -1.65181,0.63778 -0.59976,0.53327 z m 19.90428,-0.23048 c -0.12224,0.005 0.0358,0.14459 0,0 z m 18.07133,0.0665 c -0.16556,-0.10894 -0.0494,0.0653 0,0 z m -7.80812,-0.34391 c -0.12224,0.005 0.0358,0.14456 0,0 z m 6.37983,0 c -0.12223,0.005 0.0358,0.14456 0,0 z m -42.30114,-0.0848 c 0.78139,0.26311 2.83751,-0.61059 1.30848,-0.76165 -0.60425,-0.28631 0.32238,-0.97293 -0.59091,-0.64192 -0.67844,0.20444 -2.63393,1.00591 -1.19622,0.0405 0.8356,-0.11978 2.06546,-0.81235 1.56626,-1.34464 -1.33918,-0.0951 -3.33224,1.35497 -2.07027,2.6362 0.32077,-0.0414 0.6629,0.22353 0.98266,0.0715 z m 50.82584,-0.0497 c -0.13371,-0.11854 0.008,0.16564 0,0 z m -40.22671,-0.0202 c -0.0522,-0.0742 -0.0892,0.13487 0,0 z m -2.79093,-0.0888 c 0.69628,-0.0556 2.39283,-1.1394 1.12518,-1.42543 -0.32369,0.37349 -2.65748,1.31128 -1.12518,1.42543 z m 0.64145,-0.18895 c 0.17739,-0.248 -0.25875,0.25213 0,0 z m -51.160013,-0.1736 c 4.541074,-0.53722 9.078892,-0.54391 13.677923,-1.17966 2.57014,-0.16503 5.25742,-0.23903 7.76317,-0.81147 -1.87066,-0.74135 -5.07095,-0.22414 -7.46606,-0.2899 -4.398637,0.20918 -8.931212,0.21988 -13.208871,1.43272 -0.330539,0.10905 -2.389219,1.04463 -0.766162,0.84831 z m 79.015293,-0.26521 c -0.16201,-0.14237 0.0107,0.15448 0,0 z m -27.02312,-0.11597 c 0.17737,-0.24797 -0.25877,0.25218 0,0 z m 41.26664,0.0206 c -0.1337,-0.11855 0.008,0.16563 0,0 z m -46.3289,-0.068 c 1.99538,-0.29785 4.18846,-0.85785 5.43065,-2.44604 -0.73077,0.28296 -2.26036,1.42324 -2.57013,1.28024 0.54859,-0.32156 1.42902,-1.00693 0.30338,-0.53159 -1.35081,0.34852 -3.33873,1.14145 -4.2509,0.95675 0.7436,-0.5602 1.61131,-0.96109 2.52321,-1.21752 -1.09793,-0.72327 -4.05096,0.2972 -3.0485,1.80124 0.52661,0.0405 1.07441,0.24209 1.61229,0.15692 z m -21.9433,-0.0143 c 4.08538,-0.35782 8.32674,-0.56712 12.19554,-1.89695 -1.29013,0.18382 -2.53931,0.30586 -3.61898,0.38432 0.29613,-0.5406 -1.92822,-0.34202 -1.71399,0.0485 -1.3464,1.06462 -0.1485,-0.90542 -1.21477,0.0964 -1.06257,0.72856 -0.7286,-0.51499 -1.71751,0.33749 -0.32683,-0.55699 -1.3617,0.31675 -1.47869,-0.69999 -1.71266,0.46387 -4.48689,0.54758 -1.63259,-0.66116 -0.66865,-0.2535 -2.21753,0.60217 -2.75622,1.47127 -0.94796,1.17638 1.50702,0.65292 1.93721,0.92016 z m 2.3206,-1.68211 c 0.0748,-0.15477 0.0378,0.0873 0,0 z m 61.80683,1.44042 c -0.1389,-0.0594 -0.1213,0.18055 0,0 z m 0.34673,-0.55476 c -0.0434,-0.078 -0.11287,0.21081 0,0 z m -36.03834,-0.006 c 0.86431,-0.19299 1.20973,-0.93091 0.1579,-0.97333 -0.27321,0.24141 -1.14738,0.86781 -0.1579,0.97333 z m 0.77147,-0.39715 c 0.002,-0.1649 0.18088,0.0211 0,0 z m 28.05046,-0.0346 c 0.46809,-0.043 1.47332,-0.35601 2.00009,-1.44428 0.55006,-0.9513 -0.39994,-2.46972 -1.50694,-3.06281 -0.78735,-0.79162 -2.36401,-1.06365 -3.59739,-0.76997 -0.65173,0.31484 -1.52123,-0.0552 -1.10863,0.81748 -0.62358,0.2567 -1.66192,0.30156 -0.82631,0.98828 -0.18274,0.36103 0.38362,0.90505 0.89568,1.20485 -1.44323,0.22888 0.82317,0.8723 1.29697,1.39945 0.74326,0.28348 1.80726,0.98811 2.84653,0.867 z m -1.5068,-0.29666 c -0.0417,-0.12343 0.10684,0.0148 0,0 z m 0.53267,-0.30182 c -1.63084,-0.0801 -3.20228,-1.6059 -2.62949,-3.20688 1.21597,-2.59734 5.61834,-0.77642 5.08213,1.92847 -0.0954,1.36591 -1.41157,1.37613 -2.45264,1.27841 z m 0.53151,-1.7248 c 1.33633,-0.39831 -0.41402,-1.79268 -0.72635,-0.80779 -0.15835,0.59165 0.26297,0.77854 0.72635,0.80779 z m -0.72535,-0.61959 c 0.0331,-0.12983 0.1397,0.0945 0,0 z m 1.07521,-0.18751 c -0.0341,-0.25483 0.0101,0.10244 0,0 z m -0.86258,-0.2516 c -0.0979,-0.13563 0.14865,-0.004 0,0 z m -2.07855,-1.11251 c 0.17738,-0.24797 -0.25876,0.25218 0,0 z m 4.57831,3.64308 c 0.16054,-0.30587 0.14416,0.0772 0,0 z m 0.27244,-0.36293 c 0.0854,-0.27195 0.0494,0.21965 0,0 z m -4.97476,-0.23759 c -0.0761,-0.19885 0.15939,-0.024 0,0 z m -1.5893,-0.62916 c -0.029,-0.15055 0.14189,0.15093 0,0 z m 1.02133,-1.54417 c -0.0417,-0.12344 0.10684,0.0148 0,0 z m 0.8249,-1.0946 c 0.0555,-0.14174 0.24489,-0.0739 0,0 z m -1.38115,-0.29471 c -0.0817,-0.1124 0.24444,0.0371 0,0 z m 15.31256,4.9669 c -0.0434,-0.078 -0.11286,0.21085 0,0 z m -44.81928,-0.0631 c 0.80923,-0.12025 2.09939,-1.35354 0.69503,-0.58538 -0.0956,0.0994 -1.43249,0.56285 -0.69503,0.58538 z m 30.58331,0.0226 c -0.17354,-0.85099 -1.75041,-1.12007 -2.34215,-1.2245 -0.27442,-0.0836 -1.79173,0.34037 -0.70866,0.39296 0.84225,0.005 2.05047,0.58832 3.05081,0.83154 z m -0.17271,-0.0683 c 0.0513,-0.0767 0.3009,0.0538 0,0 z m -2.28733,-0.69169 c 0.0499,-0.22059 0.20478,0.0114 0,0 z m 1.37998,-0.091 c 0.0625,-0.24557 0.24041,0.15091 0,0 z m -1.65585,-0.18398 c 0.0729,-0.20536 0.32905,-0.19296 0,0 z m 1.11287,-0.0442 c 0.23175,-0.20411 0.0744,0.0754 0,0 z m -20.46896,0.77009 c -0.0798,-0.10404 -0.0798,0.104 0,0 z m -52.069153,-0.36379 c 5.722223,-1.41912 11.747083,-1.53092 17.663703,-1.66669 1.50586,-1.01542 -4.65896,-1.04196 -3.99372,-0.79968 -4.67194,0.36539 -9.872567,-0.33898 -14.12387,2.06156 -0.67744,0.37155 0.251784,0.50126 0.453887,0.40481 z m 84.105133,-0.643 c -0.80431,-1.04866 3.7954,0.86418 1.18887,-0.41311 0.52207,-0.10957 1.02691,-1.06108 0.98598,-0.85543 0.19931,-0.2448 -0.6937,-1.7449 0.24194,-1.64311 -0.0292,0.77305 0.59103,1.04842 0.53476,0.31557 0.50295,-0.86253 0.3386,-2.26232 -0.44555,-3.10311 -0.9997,-0.001 -0.92209,-1.35445 -1.72156,-1.36198 0.37677,0.50179 0.15764,1.69392 -0.23512,0.77338 -1.07652,-1.45724 0.16199,0.93421 -0.86771,0.95761 -0.97418,-0.39557 -0.35873,0.37168 -0.76777,0.69061 -0.73848,-0.80791 -0.81496,0.36763 -1.30056,-0.0333 -0.93829,-0.7482 -1.81265,-0.0337 -2.63181,-0.80722 -0.80981,-0.23264 0.86179,1.18115 -0.67446,0.40399 -0.86418,-0.0809 -2.3544,-0.95404 -2.94976,-0.95178 1.26942,0.698 0.53521,0.79299 -0.28269,0.38892 -0.26804,0.39541 1.79421,0.41961 1.57969,0.56982 1.81562,0.91628 3.72851,2.29688 5.24099,3.70371 0.68954,0.98496 1.0657,0.94028 1.80918,1.31797 l 0.29567,0.046 z m -0.0812,0.017 c 0.002,-0.16489 0.18088,0.0211 0,0 z m 0.51107,-0.40448 c 0.23175,-0.2041 0.0744,0.0754 0,0 z m 1.17057,-0.17186 c 0.26076,-0.25233 -0.17973,0.24702 0,0 z m -2.92987,-0.0131 c 0.002,-0.16489 0.18088,0.0211 0,0 z m -1.5752,-1.43924 c 0.0698,-0.24745 0.0719,0.13206 0,0 z m 6.05676,-1.6543 c 0.0502,-0.27519 0.14354,0.13896 0,0 z m -5.54806,-0.8267 c -0.12557,-0.20005 0.23415,-0.14401 0,0 z m 0.42189,-0.46128 c 0.17454,-0.19904 0.21762,0.0313 0,0 z m 3.98477,-0.85681 c 0.0325,-0.11612 0.0733,0.0936 0,0 z m -1.62643,-0.59771 c 0.031,-0.18712 0.0883,0.11004 0,0 z m 0.86087,-0.4017 c -0.0117,-0.20421 0.13035,0.23992 0,0 z m -61.6574,6.59131 c 2.9969,-0.14573 6.03018,-0.45853 8.90633,-1.19286 0.19218,-0.67852 -2.3727,0.31634 -2.13932,-0.3069 -1.50329,0.76671 -0.83891,-0.16607 -1.94078,0.13759 -0.99739,0.73429 -0.90132,-0.0192 -1.64499,0.31487 -1.35144,0.76313 0.25678,-1.03959 -1.90869,-0.32784 -0.78162,-0.2649 -1.94721,-0.92271 -2.86304,0.0371 -2.0839,1.20004 0.6505,1.43128 1.59049,1.33797 z m 27.39849,-0.056 c -0.14574,-0.79247 0.2319,-2.90697 -0.79413,-1.64978 -0.29342,0.607 0.30617,1.46946 0.79413,1.64978 z m -10.18334,-0.32949 c 2.12248,-0.29382 4.61672,0.26404 5.99589,-1.33731 -0.98988,0.37625 -1.91419,0.27846 -2.82011,0.51353 -0.60811,0.20447 -1.05081,-0.37849 -1.77152,0.22058 -0.47769,-0.19954 0.63067,-0.91918 -0.81249,-0.29467 -1.4873,0.71371 0.45803,-0.97438 -1.47696,-0.18188 -1.12565,-0.20302 -2.12212,-0.45559 -3.09961,-0.81991 -0.75183,-0.14588 -1.81729,-0.77055 -2.95122,-1.18162 -1.575,-0.88738 -2.95497,-2.49042 -4.34149,-3.17181 0.97239,2.75891 4.12603,4.27329 6.67467,5.4953 1.49198,0.43553 3.03016,0.73158 4.60284,0.75779 z m 8.83074,-0.64101 c -1.37988,-1.14151 1.71779,-2.71947 0.2302,-2.93931 -1.1972,0.30166 -1.13771,2.47592 -0.2302,2.93931 z m -46.328815,-0.51056 c 5.024655,-1.67168 10.461295,-0.81529 15.642775,-1.38236 4.69131,0.20831 0.68597,-0.68716 -1.61833,-0.69801 -4.55188,-0.40255 -9.38557,-0.19992 -13.774706,1.18713 -0.713561,0.29862 -2.019342,1.15882 -0.249739,0.89324 z m 62.056945,-0.1181 c -0.96054,-0.4146 -2.32171,-0.84312 -3.52946,-1.04927 1.03719,0.68105 2.30005,0.97834 3.52946,1.04927 z m 23.18437,-0.41654 c -0.005,-0.18508 -0.13549,0.14246 0,0 z m -61.71629,-0.25106 c 1.19914,-0.0888 2.98425,-0.29238 3.81982,-0.7395 -1.17602,-0.40304 -1.51587,0.16105 -2.12739,-0.35194 -1.33264,-0.52561 -1.50199,-0.46394 -2.50742,-0.42771 -2.6772,0.82719 -1.43738,1.6503 0.81499,1.51915 z m 25.5535,0.005 c -0.28062,-0.58718 -0.31636,-3.71388 -1.06064,-2.01652 -0.31659,0.77679 0.30857,1.83232 1.06064,2.01652 z m 14.35034,-0.11216 c 0.51961,-0.37692 -0.62067,-0.18938 0,0 z m 0.53519,-0.38571 c 1.3561,-0.10677 -0.69513,-0.86613 -1.2412,-1.01745 -1.43096,-0.49632 -3.8463,-1.7015 -4.7502,-1.67406 1.76038,1.05881 3.75432,1.87422 5.60645,2.71681 l 0.18203,0.02 0.2031,-0.0451 z m -27.03809,-0.23074 c 2.22805,-0.0552 -0.75378,-0.006 0.47763,-0.50861 -1.56894,-0.55632 -1.98478,-0.68667 -4.23353,-0.8616 -2.73286,-0.30297 -4.64139,-2.50971 -6.53463,-4.47999 -1.99383,-0.74336 1.95618,3.51116 3.28325,3.93759 2.05366,1.39333 4.53034,2.01598 7.00728,1.91261 z m 8.07332,-0.22467 c 0.20445,-0.83273 1.47312,-1.42657 1.31965,-2.2869 -0.95185,-0.85867 -2.6362,2.52433 -1.31965,2.2869 z m -6.53185,0.12405 c 0.0417,-0.12344 -0.10684,0.0148 0,0 z m 35.43192,-0.12524 c -0.0509,-0.13292 -0.0564,0.083 0,0 z m -15.26849,-0.13768 c -1.30529,-0.37598 -0.36725,-0.13264 0,0 z m -0.96376,-0.17173 c -0.3243,-0.57334 -1.10937,0.0285 0,0 z m -55.431477,-0.18007 c 5.827027,-1.66646 11.994647,-1.09841 18.008507,-1.34844 -2.13168,-0.94912 -5.66241,-0.78673 -8.20041,-0.82958 -3.39133,0.25149 -7.68113,-0.45607 -10.221954,2.12681 l 0.413873,0.052 z m 61.596587,-0.21982 c -0.44184,-0.62716 -2.99896,-1.28356 -2.39885,-0.89564 0.7183,0.41134 1.66409,0.87811 2.39885,0.89564 z m -13.52431,-0.11268 c -0.55161,-0.1887 -0.0364,-3.0111 -1.06554,-1.60138 -0.43015,0.87457 0.17678,1.55319 1.06554,1.60138 z m -6.70563,-0.61983 c 1.67554,-1.07081 0.57189,-2.27013 1.60187,-2.46816 -0.25841,-0.39644 -0.82822,-1.07023 -1.6351,0.25023 -0.34465,0.49631 -0.49589,2.69094 0.0333,2.21793 z m 0.0828,-1.29844 c 0.4462,-0.56197 1.13375,-0.23286 0,0 z m 19.5836,1.11952 c -0.92218,-0.36224 -2.32698,-1.57505 -3.0897,-1.38528 0.89287,0.65914 1.91751,1.51698 3.0897,1.38528 z m -42.57881,-0.32671 c -0.58463,-0.0338 -0.0539,0.21905 0,0 z m 50.54044,-0.0534 c -0.0677,-0.52607 -1.88473,-0.81219 -0.67152,-0.21802 0.19784,0.10669 0.48867,0.24724 0.67152,0.21802 z m -0.39413,-0.14312 c 0.002,-0.1649 0.18088,0.0211 0,0 z m -34.97241,0.0667 c 0.77355,0.0389 2.68397,-0.29202 1.88217,-0.59965 -1.2379,-0.11701 -2.3614,-0.33247 -3.80528,-0.79304 -1.13862,-0.10652 -2.77434,-0.78283 -3.37871,-1.20523 -0.14232,-0.48461 -2.08113,-0.78359 -1.60964,-1.42342 -1.50395,-0.20117 -2.50529,-4.5242 -2.66716,-1.44767 1.73123,3.37479 5.97354,5.14654 9.57862,5.46901 z m 28.03249,0.005 c -1.6002,-0.84434 -3.16922,-2.09979 -4.86898,-2.86234 1.63445,0.90919 0.4605,1.34182 1.99644,1.90327 0.86954,0.25962 1.95269,0.66627 2.87254,0.95906 z m -6.83247,-0.21296 c -0.76148,-0.35301 -2.01158,-1.09698 -2.71554,-0.91871 0.80309,0.63072 1.79964,0.7257 2.71554,0.91871 z m -0.008,-0.1654 c -0.103,-0.0578 -0.14324,0.0985 0,0 z m 11.54826,-0.21221 c -0.50459,-0.78566 -2.25402,-0.96205 -0.67304,-0.23843 0.18,0.022 0.44434,0.3009 0.67304,0.23843 z m -1.49067,-0.74325 c 0.12391,-0.10002 0.12391,0.10001 0,0 z m -7.65688,0.63023 c -0.66944,-1.01564 -2.91157,-1.52538 -0.79059,-0.23511 0.25337,0.11572 0.48419,0.29677 0.79059,0.23511 z m 7.89992,-0.13195 c -0.40693,-0.67936 -2.36667,-0.6634 -0.99311,-0.25131 0.25321,-0.20894 1.20938,0.62752 0.99311,0.25131 z m -0.17586,0.0183 c 0.0584,-0.18865 0.17659,-0.0349 0,0 z m -18.87923,-0.001 c -0.99078,-0.73303 -1.53907,-2.72001 -2.06388,-3.20933 -0.39768,1.34492 0.64816,3.02384 2.06388,3.20933 z m 2.87263,-0.12114 c -0.22283,-0.69097 0.32875,-3.6912 -1.07634,-2.21732 -0.5479,0.7847 0.19065,2.27618 1.07634,2.21732 z m -45.78312,-0.002 c 5.20978,-1.35671 10.65101,-0.57189 15.94044,-0.72487 -1.98923,-0.64328 -4.85238,-0.5011 -7.15083,-0.78473 -2.97101,0.16551 -6.46604,-0.27034 -9.06699,1.45824 0.0652,0.0625 0.20067,0.18195 0.27738,0.0513 z m 59.9843,-0.1826 c 0.35338,-0.57538 -2.1178,-0.57326 -0.50072,-0.13855 0.17083,0.0186 0.31063,0.2707 0.50072,0.13855 z m -22.56312,-0.0447 c 0.61598,-1.00877 1.06362,-1.78175 1.73239,-2.66802 -1.35157,-0.81862 -2.71267,2.0864 -1.73239,2.66802 z m 0.36435,-1.18106 c 0.2217,-0.42231 0.47976,0.19891 0,0 z m 31.18807,0.85738 c -0.8995,-0.81455 -2.16209,-1.91046 -3.26264,-2.0714 0.94665,0.80277 2.56759,1.64633 3.26264,2.0714 z m -2.41877,-0.0938 c -0.075,-0.2919 -0.52243,-0.009 0,0 z m 5.25002,-0.10634 c -0.59329,-0.58501 -1.24759,-1.51961 -2.09523,-1.67574 0.52133,0.72529 1.51161,1.25981 2.09523,1.67574 z m -5.51268,-0.0617 c -0.46409,-0.65468 -1.59714,-1.14245 -2.4019,-1.3712 0.68782,0.56652 1.59587,1.11283 2.4019,1.3712 z m 3.35003,-0.13884 c -0.92454,-0.92616 -2.21094,-2.049 -3.38421,-2.29884 1.10434,0.7853 2.48051,1.65681 3.38421,2.29884 z m -0.31353,-0.12563 c 0.1186,-0.14767 0.12791,0.0483 0,0 z m 3.7967,0.15756 c -0.31051,-0.63852 -0.34073,-0.70269 -0.91868,-1.07512 0.14253,0.36686 0.67888,0.95494 0.91868,1.07512 z m -0.13721,-0.17097 c -0.0417,-0.12346 0.10684,0.0148 0,0 z m -0.6289,-0.84326 c -0.23484,-0.27942 0.27263,0.27651 0,0 z m -28.39389,0.91828 c -0.764,-0.50456 -0.0862,-3.78483 -0.80886,-2.39934 -1.56223,0.54824 -0.15172,2.17018 0.80886,2.39934 z m 23.16112,-0.13928 c -1.46933,-1.26226 -3.33627,-2.52315 -5.39121,-2.21028 1.88194,0.56928 3.76849,1.24753 5.39121,2.21028 z m -34.99854,-0.0548 c 1.88595,-0.44785 -3.77831,-1.26171 -3.24534,-1.11068 -1.31384,-0.48214 -2.74804,-0.89291 -3.8299,-1.69485 -0.53622,-0.76268 -1.56882,-1.39737 -2.00143,-2.66405 -1.74724,-2.24714 -0.69374,2.8782 1.01613,2.88178 2.23193,1.78074 5.20092,2.75807 8.06054,2.5878 z m -30.61653,-0.16382 c 4.83987,-1.18522 10.6374,-0.9392 15.05314,-0.72528 -4.6729,-1.33014 -9.77966,-1.02896 -14.50559,-0.25852 -0.54102,-0.10316 -1.73886,1.46092 -0.54755,0.9838 z m 68.55993,-0.007 c -2.05372,-2.04153 -4.62778,-4.09389 -7.59572,-4.42199 1.63285,1.08132 3.99009,1.40109 5.58275,2.907 0.72524,0.32476 1.29015,1.41429 2.01297,1.51499 z m -14.52005,-0.4312 c -0.51328,-0.52301 -2.00293,-1.57534 -2.26024,-1.1899 0.6357,0.459 1.41852,1.27827 2.26024,1.1899 z m 20.88644,-0.38827 c -0.64112,-0.9972 -0.6162,-0.64424 -0.0911,0.14149 0.0522,0.079 0.29841,0.0163 0.0911,-0.14149 z m -0.15882,-0.0396 c 0.0452,-0.0832 0.1322,0.12671 0,0 z m -0.33213,-0.54336 c 0.0434,-0.078 0.11286,0.21085 0,0 z m 0.3396,0.32225 c -0.0325,-0.11612 -0.0733,0.0936 0,0 z m -3.84046,-0.0685 c -0.78859,-1.20549 -2.72039,-2.78994 -4.46086,-3.48023 -0.40613,-0.10864 -2.20739,-0.93637 -1.36729,-0.30022 2.21277,0.88094 4.09008,2.29412 5.82815,3.78045 z m -35.8688,-0.18437 c 0.89891,-0.80674 0.99898,-1.99339 2.4561,-2.04252 0.0399,-0.50747 0.72336,-1.62405 -1.04567,-0.82463 -1.12004,0.46807 -2.14057,1.76312 -1.41043,2.86715 z m 19.47178,-0.18409 c -0.43596,-0.71796 -2.2104,-1.84127 -2.98852,-1.80522 0.83669,0.80296 1.93017,1.45606 2.98852,1.80522 z m -1.22511,-0.05 c -0.10335,-0.14512 -0.10335,0.14512 0,0 z m 11.11661,-0.13373 c -0.21743,-0.7968 -2.7272,-1.302 -3.28142,-1.28193 0.85444,0.54939 2.25917,0.97603 3.28142,1.28193 z m -11.36339,0.0327 c -1.3922,-0.93254 -0.47318,-0.33995 0,0 z m -22.21564,-0.0339 c 1.02909,-0.10697 1.78573,-1.44962 -0.0458,-0.71444 -1.70377,-0.46456 -1.52376,-0.0886 -2.20204,-0.59013 -0.58048,-0.14975 -1.4838,-0.68798 -3.01654,-0.97889 -1.04121,-0.36408 -1.67023,-2.11843 -1.4157,-1.55071 -1.28686,-0.78903 0.11701,-1.22304 -0.48593,-1.9149 -1.26334,-1.67829 -2.41852,1.7793 -0.7257,2.62511 2.00329,2.09658 5.04578,3.12372 7.89176,3.12396 z m -28.89408,-0.19468 c 4.11903,-0.84707 8.76631,-0.5433 12.60468,-0.75321 -3.68214,-0.7106 -7.65142,-1.03597 -11.38566,-0.48368 -0.49914,0.14023 -2.60061,1.12127 -1.21902,1.23689 z m 66.22187,-0.35232 c -1.15636,-0.95745 -2.71055,-2.40381 -4.43653,-2.34542 1.72112,0.66302 2.9698,1.38992 4.43653,2.34542 z m 2.71384,-0.15767 c -0.58468,-0.95076 -2.21667,-2.15303 -2.84897,-2.32119 0.6939,0.77471 1.78751,1.80614 2.84897,2.32119 z m -27.3078,-0.16412 c -0.72103,-1.00731 0.0849,-2.74014 -0.95546,-3.4812 -0.30696,-0.79863 -1.39206,2.26036 0.0622,2.7629 0.43046,-0.5876 0.52879,0.96213 0.89322,0.7183 z m 29.11848,-0.11051 c -0.33745,-0.47275 -1.42068,-1.31828 -0.50279,-0.33352 -0.0734,-0.25076 0.59185,0.69808 0.50279,0.33352 z m -32.2888,0.006 c 0.22412,-2.3063 -2.59878,-2.40471 0,0 z m 12.30115,-0.96607 c -2.01595,-1.77378 -1.53256,-0.33371 0,2e-5 z m 1.66301,-0.043 c -1.22833,-0.88142 -2.96006,-2.14516 -4.0756,-2.46262 0.62844,0.82662 2.65854,2.17362 4.0756,2.46262 z m 15.69336,-0.32309 c -0.74224,-0.91609 -2.22229,-1.60286 -3.2052,-1.57063 1.01831,0.60826 2.28244,1.05207 3.2052,1.57063 z m -53.93193,0.0386 c -0.0855,-0.79871 -2.1695,-0.46627 -2.98374,-1.1387 -2.94496,-0.41017 -6.65598,-1.04934 -9.0871,0.94163 3.03067,-0.043 6.61709,-0.59607 9.84985,-0.036 0.74148,0.0291 1.48812,0.12607 2.22099,0.23305 z m 15.8263,-0.30076 c 1.75175,-0.54063 -1.74996,-0.56088 -1.84093,-0.63072 0.34948,-0.54884 -0.86244,-0.89011 -2.31983,-1.26898 0.43537,-0.45981 -0.32926,-1.14021 -2.01988,-1.55652 -0.66609,-0.77065 1.1444,-2.47544 -0.6995,-2.24465 -2.31349,2.04201 1.55272,4.40193 3.36135,5.0583 1.13104,0.4005 2.29619,0.79085 3.51879,0.64257 z m 22.53746,-0.28055 c -0.98108,-1.09424 -4.13541,-2.53407 -1.39599,-0.70343 0.40755,0.32066 0.97131,0.491 1.39599,0.70343 z m -13.59387,-0.22005 c -0.264,-1.06164 1.35408,-1.73085 0.14076,-2.45236 0.30755,-2.05219 -1.73363,2.71298 -0.14076,2.45236 z m -5.40694,-0.0117 c 0.62238,-1.00387 2.21429,-0.89384 2.41123,-2.00444 -0.6365,-0.76357 -2.82804,0.58573 -2.62198,1.98373 l 0.21069,0.0207 z m 19.57014,-0.7505 c -0.84896,-1.05164 -2.48966,-1.72535 -3.87222,-1.99245 1.02962,0.79409 2.68857,1.29564 3.87222,1.99245 z m -48.34875,-0.40034 c 3.45683,-0.49073 7.07997,-0.25927 10.54061,-0.11988 -3.24724,-1.02191 -7.16266,-1.57059 -10.46621,-0.41237 -0.98566,-0.0259 -0.40904,0.74658 -0.0744,0.53225 z m 43.62308,-0.15024 c -0.13888,-0.0594 -0.12131,0.18051 0,0 z m -17.80901,-0.33632 c 0.48379,-1.36758 -2.04617,-0.31275 -3.21998,-1.42393 1.02774,-0.47468 -1.7027,-1.06411 -1.24618,-2.20929 0.50503,-2.38461 -2.42655,-0.0245 -0.57203,1.37315 1.20467,1.47565 3.14437,2.35144 5.03819,2.26007 z m 10.86999,-0.6952 c -0.6779,-1.3075 1.31791,-2.64738 -0.13884,-2.25572 -1.23608,-0.0656 -0.74847,2.21626 0.13884,2.25572 z m 10.87163,-0.33285 c -1.13785,-0.54401 -2.68526,-1.85651 -3.81118,-1.75981 1.31637,0.43908 2.33708,1.99466 3.81118,1.75981 z m -17.48277,-0.18035 c 0.60904,-0.33056 2.31923,-0.72782 2.01148,-1.05316 -0.77759,-1.0808 -3.59789,0.97627 -2.01148,1.05316 z m -28.51261,-0.11495 c 3.22818,-0.75596 6.7495,-0.14312 10.08984,-0.23853 -3.18054,-0.86163 -7.17368,-1.56769 -10.12452,-0.10381 -0.0944,-0.0516 -0.97839,0.44748 0.0347,0.34269 z m -0.4392,-0.0276 c 0.0458,-0.1454 0.27846,0.10785 0,0 z m 49.14815,-0.042 c -0.73902,-1.21153 -3.03793,-0.69822 0,0 z m -1.8827,-0.11553 c -1.5429,-0.92821 -3.43919,-2.65561 -5.0935,-2.67138 1.89685,0.59718 3.15131,2.43152 5.0935,2.67138 z m 3.09141,-0.16878 c -0.16763,-1.03107 -2.47507,-0.79969 0,0 z m 1.33316,-0.41845 c -0.45762,-0.7385 -2.44322,-1.13817 -0.8016,-0.15627 0.26776,0.0594 0.50149,0.25092 0.8016,0.15627 z m 5.28296,-0.34699 c -0.84094,-0.96192 -0.97198,0.35394 0,0 z m -0.0673,0.0682 c -0.0417,-0.12343 0.10684,0.0148 0,0 z m -4.18159,-0.0157 c 0.35571,-0.50005 -2.04474,-0.80156 -0.60476,-0.21439 l 0.30765,0.17489 0.29711,0.0394 z m -28.04777,-0.0272 c 1.63834,-0.8101 -1.20385,-0.31338 -1.85423,-1.07061 -0.25771,-0.37742 -0.74077,-1.39167 -0.84501,-2.02606 -2.46899,-0.17971 0.0604,2.9607 1.5913,2.99895 0.35541,0.0957 0.74019,0.1355 1.10794,0.0977 z m 29.57463,-0.15289 c -1.2333,-1.28581 -1.71834,-0.0838 0,0 z m 1.46119,-0.0294 c -0.62997,-0.71125 -1.60193,-0.0983 0,0 z m -8.58367,-0.35882 c -1.1599,-1.39783 -3.46764,-1.84701 -5.18336,-2.54119 -1.84437,-0.29719 -4.15055,-2.08245 -5.79152,-1.47159 2.68799,1.03903 5.36997,1.41703 7.82499,3.01885 0.97371,0.35046 2.1336,1.14411 3.14989,0.99393 z m -34.96775,-0.1663 c -2.71131,-0.996 -6.5827,-1.39808 -9.25644,-0.41163 2.79835,-0.0835 6.23628,0.17665 9.25644,0.41163 z m 18.32323,-0.19285 c 0.68179,-0.89788 4.02407,0.19898 2.5051,-0.74087 -0.33973,-1.22274 -4.3363,0.50347 -2.5051,0.74087 z M 29.593343,162.66962 c 0.833944,-0.59154 1.11304,-0.92228 1.883427,-1.09684 1.227994,-0.81189 2.803094,-1.78825 3.98973,-2.11509 2.989745,-1.20813 6.651821,-2.23882 10.208158,-2.56327 9.616665,-1.67512 19.090039,-2.01019 28.685373,-1.67178 4.876647,-0.75 9.987985,-0.003 14.86952,0.34654 -8.319833,-1.75337 -17.073777,-0.54182 -25.548812,-0.78372 -7.291614,-0.15432 -14.519515,0.78897 -21.722639,1.68746 -2.871965,0.89941 -5.890559,1.58383 -8.47755,2.97385 -1.186746,0.69091 -3.32685,1.90491 -4.07461,3.27479 l 0.18741,-0.0514 z m -0.172496,0.0299 c 0.01692,-0.0568 0.20795,-0.0504 0,0 z m 0.141437,-0.13276 c -0.18857,-0.26944 0.328575,-0.0616 0,0 z m 0.06808,-0.0335 c 0.04168,-0.12343 -0.106833,0.0148 0,0 z m 0.481128,-0.63807 c 0.111513,-0.16827 0.01458,0.17079 0,0 z m 1.109533,-0.27775 c 0.128695,-0.13973 0.122603,0.0939 0,0 z m 0.832155,-0.41992 c 0.297841,-0.45028 0.163909,0.0198 0,0 z m 0.109795,-0.0882 c 0.177384,-0.24801 -0.25875,0.25217 0,0 z m 0.16759,-0.18919 c 0.03247,-0.11612 0.07327,0.0937 0,0 z m 0.666393,-0.39729 c 0.01108,-0.1697 0.156714,0.0661 0,0 z m 1.353986,-1.41878 c 0.07979,-0.10405 0.07979,0.10406 0,0 z m 126.832606,3.37127 c -0.21797,-0.80495 -3.18423,-1.76798 -1.96359,-0.96865 -0.45025,-0.66933 1.41941,1.04105 1.96359,0.96865 z m 8.50989,0 c 0.32392,-0.74992 -0.72777,-0.009 0,0 z m -0.20505,-0.27821 c 0.34121,-0.3435 -0.30701,0.37392 0,0 z m -134.265521,0.25453 c 0.05289,-0.19795 -0.324881,0.13825 0,0 z m 0.282674,-0.0747 c -0.16921,0 0.02515,0.1861 0,0 z m 102.635477,-0.20909 c 0.78826,-0.21566 -1.15877,-0.43009 0.13002,-1.01835 0.72793,-0.65348 3.0437,1.04393 2.65578,0.0744 -0.80096,-0.16245 -3.07976,-0.79471 -1.04233,-0.53751 0.88692,-0.15519 -0.70099,-0.80674 2.36053,0.18338 1.67374,-0.0723 0.36437,-0.68947 -0.93192,-0.93627 -1.76778,-0.12062 -4.25764,-0.6984 -5.51353,0.73824 0.25057,0.88124 1.52971,1.45433 2.34145,1.49616 z m 0.48487,-1.40252 c -0.004,-0.23381 0.45346,0.0674 0,0 z m -11.84845,1.32896 c -2.84347,-1.17131 -6.28773,-1.39246 -9.24315,-0.7669 2.04019,0.17919 5.15059,-0.0119 7.51404,0.64293 0.55513,0.15466 1.15821,0.0754 1.72911,0.12397 z m 42.58015,-0.50983 c 1.2036,-2.00543 1.84891,-4.65976 0.64217,-6.84849 0.35005,-0.79779 -0.50246,-1.77383 -0.45848,-2.58698 1.18987,0.30188 1.24801,2.2484 1.89408,2.5758 -0.18655,-1.20593 -0.60787,-3.44234 -2.11222,-3.38927 -1.65626,1.84802 1.06221,3.70502 0.83941,5.71673 0.41482,1.61128 -0.75007,3.26344 -0.82941,4.63051 l 0.0248,-0.0983 z m -132.185404,-0.0371 c -0.07264,0.0333 -0.253404,0.16468 0,0 z M 162.02224,161.4057 c -0.35502,-0.47376 -2.71424,-1.30001 -1.37929,-0.62571 0.34768,0.24464 1.05254,0.74038 1.37929,0.62571 z m -5.19247,-0.32886 c -1.6274,-1.61497 -4.10076,-2.16586 -6.2238,-2.99872 -1.13649,-0.33816 -3.65105,-0.99724 -3.89112,-0.63213 3.52803,0.74775 6.91284,2.30908 10.11492,3.63085 z m 15.93041,-0.0397 c -0.15671,-0.0661 -0.0111,0.16969 0,0 z m -14.15342,-0.0575 c 0.75036,-0.16534 -1.11222,-0.64192 -1.51694,-0.92392 -1.64054,-0.58866 0.67788,0.94144 1.51694,0.92392 z m -30.98712,-0.1548 c -2.07582,-0.86875 -5.06498,-1.57196 -6.93574,-0.63463 2.32417,0.0482 4.64343,0.44829 6.93574,0.63463 z m 31.65432,-0.16591 c -0.6294,-1.08017 -3.86791,-2.28096 -3.44769,-1.38394 1.13201,0.45895 2.31221,1.05002 3.44769,1.38394 z m 7.69305,-0.25167 c 0.0369,-1.5713 -2.13108,-2.68347 -3.33277,-1.3262 -1.07149,1.11434 2.80895,-0.58379 3.29576,1.32124 l 0.0454,0.0482 -0.008,-0.0434 z m -37.71825,-0.53894 c -2.14219,-1.25655 3.27039,-0.39814 1.42727,-0.94572 -2.04111,-0.43854 -4.4374,-1.07775 -6.32518,0.2237 1.64739,0.11511 3.28026,0.5295 4.89791,0.72202 z M 30.520444,159.6965 c -0.04336,-0.078 -0.11286,0.21082 0,0 z m 74.900526,-0.1753 c -0.26869,-0.79747 -4.15767,-1.14891 -2.67481,-0.51337 0.86391,0.27471 1.76842,0.52151 2.67481,0.51337 z m -70.520291,-0.6631 c 0.04168,-0.12346 -0.106846,0.0148 0,0 z m 120.126101,-0.1415 c -2.10159,-1.81145 -4.9965,-2.33541 -7.62547,-2.87599 2.25647,0.8957 5.1507,2.28806 7.62547,2.87599 z m -48.21059,-0.0379 c -1.27536,-0.65157 -3.49391,-1.4928 -4.5964,-1.15633 1.48276,0.54908 3.02838,0.9624 4.5964,1.15633 z m 64.73843,-0.0914 c 0.15116,-1.41906 0.17081,-3.55506 -1.04322,-4.31443 0.28369,1.42138 0.95105,2.98335 0.8544,4.36562 l 0.1888,-0.0511 z m -61.12551,-0.0213 c -0.90178,-0.68016 -3.03157,-1.06238 -3.79135,-1.01042 1.10612,0.6924 2.49001,1.02378 3.79135,1.01042 z m 38.10472,-0.13572 c -1.91112,-1.18069 -4.35959,-1.24712 -6.5506,-1.48899 1.99396,0.81315 4.50728,1.40951 6.5506,1.48899 z m -36.31197,-0.33339 c -2.16072,-0.85659 -4.68487,-1.49947 -6.99141,-1.95779 2.07704,0.93862 4.70829,1.80171 6.99141,1.95779 z m 48.95071,-0.1033 c -1.13575,-1.06741 -3.97973,-2.63391 -4.97787,-0.66701 1.77151,0.19344 3.29767,-0.0173 4.97787,0.66701 z m -46.09795,0.0182 c 0.0496,-0.59133 -2.50467,-0.7881 -3.36581,-0.78075 1.10355,0.28267 2.21244,0.80932 3.36581,0.78075 z m 57.39268,-0.38693 c 0.32923,-1.13692 -0.66457,-2.86061 -0.15871,-3.68856 0.49083,0.78689 0.20505,2.26556 0.88212,2.6107 0.24514,-0.5355 0.23642,-1.95021 0.50081,-2.02531 0.0229,0.90564 0.76792,0.89129 0.46807,-0.11309 0.66056,-1.65828 -0.76016,-3.36254 -0.95389,-1.44723 0.18724,0.70566 0.12896,2.85747 -0.24289,1.17972 -0.44165,-1.68636 -1.38896,-3.073 -2.22179,-4.55122 0.82986,2.19127 1.24884,4.59078 1.38195,6.97746 0.10031,0.29474 0.0357,1.02972 0.34433,1.05753 z M 52.547074,157.49757 c 0.508571,-0.24554 -0.542319,-0.009 0,0 z m 0.419717,-0.13227 c 0.105815,-0.0938 -0.362784,0.12102 0,0 z m 0.866824,-0.12235 c 1.251295,-0.13096 4.759773,-0.40575 4.164261,-0.43595 5.263542,-0.43275 10.933254,-0.54861 15.954747,-0.61228 0.886132,0.39112 2.638705,0.35634 3.738193,0.21377 1.087879,-0.0845 2.872023,0.12976 3.005689,0.10285 2.003495,-0.0933 4.785084,0.44341 6.604889,0.0529 2.325623,-1.12161 -1.796109,-0.6118 -3.00755,-0.88099 -6.403621,-0.6143 -12.70004,0.0511 -19.139498,0.23897 -3.888607,0.29008 -7.945789,0.23686 -11.691546,1.33154 l 0.370808,-0.0106 z m 23.16157,-0.77969 c 0.08862,-0.12436 0.08855,0.12439 0,0 z m -22.330407,0.79909 c -0.362972,-0.19753 -0.09324,0.16072 0,0 z m 107.317552,-0.31653 c -0.12168,-1.22755 -2.89881,-2.2119 -2.91614,-0.98097 0.94116,0.49244 2.21167,0.42362 2.91614,0.98097 z m -103.630387,-0.161 c -0.177831,-0.1174 -0.02547,0.17133 0,0 z m 0.584383,-0.0667 c -0.127897,-0.0483 -0.118596,0.14766 0,0 z m 26.536403,-0.0121 c -0.04193,-0.12677 -0.08551,0.12353 0,0 z m 34.801321,-0.0118 c 0.67379,-0.70924 -8.23743,-0.72726 -4.09838,-0.32162 1.36732,0.0855 2.74998,0.22231 4.09838,0.32162 z m -59.459618,-0.005 c -0.391788,-0.12316 -0.08875,0.0662 0,0 z m 103.782088,-0.0271 c 0.27544,-1.47081 -3.93173,-2.57697 -2.53113,-1.00698 1.02824,0.25874 1.75634,0.17614 2.53113,1.00698 z M 83.947121,156.616 c -0.138968,-0.0616 -0.135371,0.11303 0,0 z m -2.739167,-0.0483 c -0.06028,-0.14118 -0.120406,0.0934 0,0 z m 30.574756,-0.0824 c -2.12275,-0.85666 -4.61273,-1.18443 -6.79392,-1.74077 1.47375,1.30442 4.72702,1.483 6.79392,1.74077 z m -33.695329,-0.0491 c -0.143045,-0.0513 -0.134561,0.16336 0,0 z m 68.893569,-0.0264 c -2.34025,-1.23383 -5.3833,-2.0267 -8.04245,-1.63019 2.52144,0.77498 5.39752,1.06834 8.04245,1.63019 z m 6.51698,-0.0589 c -1.15877,-1.63189 3.17796,-2.07409 -0.31412,-2.15551 -1.10335,0.41054 -0.66566,2.09278 0.31412,2.15551 z m -85.344609,-0.0256 c -0.05218,-0.0742 -0.08915,0.13492 0,0 z m 33.835489,-0.13609 c -1.19673,-0.594 -3.066625,-1.00352 -3.527007,-0.78373 1.088063,0.37971 2.525897,0.87666 3.527007,0.78373 z m 11.27176,0.008 c -3.41518,-1.09747 -7.09431,-1.88891 -10.55581,-3.00349 0.34859,0.8751 2.66128,1.24599 3.87271,1.65224 2.19264,0.53773 4.44915,1.21402 6.6831,1.35125 z m 28.73349,-0.0435 c -1.24675,-1.31056 -5.7765,0.0102 -0.90091,-0.0372 0.29394,0.0721 0.6021,0.0559 0.90091,0.0372 z m -38.51053,-0.17307 c -0.81402,-0.61708 -4.894727,-1.72865 -2.39706,-0.64953 0.79388,0.24126 1.57426,0.5196 2.39706,0.64953 z m 29.64106,-0.0349 c -0.31708,-0.51468 -5.38307,-0.85291 -2.79577,-0.25778 0.93236,0.0311 1.87146,0.31063 2.79577,0.25778 z m -11.72296,-0.3569 c -1.65885,-0.77111 -4.39387,-1.15834 -6.5782,-1.56392 -1.42972,-0.24917 -4.06902,0.12389 -4.80733,-1.04155 3.88293,0.34483 7.73336,1.36176 11.64016,1.35758 -2.31713,-0.57192 -4.30589,-0.5778 -6.67529,-1.1439 -3.27535,-0.36839 -6.427,-1.59688 -9.60895,-2.17197 -2.31581,0.0598 1.71658,1.02199 0.61253,0.97829 -2.05492,-0.65666 -2.85137,0.01 -0.48816,0.4195 2.23743,0.46709 4.04606,1.04214 6.17179,1.73033 3.16714,0.86005 6.44081,1.43509 9.73345,1.43564 z m -15.34115,-4.11914 c -1.96687,-0.56433 1.11227,0.003 0,0 z m 71.38214,4.09232 c -0.0522,-0.0742 -0.0892,0.13492 0,0 z m -21.52302,-0.14057 c -0.52552,-0.93952 1.65414,-2.39607 0.16636,-2.62881 -1.67907,0.41218 -1.27601,2.0951 -0.16636,2.62881 z m -0.15313,-0.32639 c 0.0325,-0.11612 0.0733,0.0937 0,0 z m -113.767602,0.20683 c 0.04368,-0.15835 -0.191908,0.0826 0,0 z m 71.871172,-0.0875 c -4.31652,-1.2584 -8.92119,-2.08091 -12.98206,-4.13548 -1.595184,-0.50742 -3.535753,-1.76085 -4.998056,-1.7787 5.718426,2.64113 11.638906,5.32562 17.980116,5.91418 z m -51.013497,0.0139 c -0.137341,-0.0728 -0.03234,0.0781 0,0 z m 8.212869,-0.019 c -0.109581,-0.14852 -0.07445,0.11938 0,0 z m -7.148109,-0.0604 c -0.292059,-0.0854 -0.06054,0.069 0,0 z m 2.169218,0.01 c -0.165554,-0.10894 -0.04939,0.0653 0,0 z m 10.628193,-0.1456 c -0.144581,-0.0358 -0.0052,0.12223 0,0 z m 48.848396,-0.0136 c -2.49569,-0.77104 -3.0925,0.0336 0,0 z m 0.43836,-0.032 c -0.11899,-0.22696 -0.40684,0.11467 0,0 z m 39.78762,0.0383 c 0.19756,-1.84041 4.5935,0.95903 1.40751,-1.59444 -1.29324,-0.87982 -2.28533,0.72213 -1.40751,1.59444 z m -85.4044,-0.0269 c -0.03442,-0.12157 -0.171135,0.082 0,0 z m 53.03969,-0.0548 c -1.22029,-0.53604 -4.19731,-0.95651 -5.20383,-0.65102 1.73301,0.1603 3.48133,0.50512 5.20383,0.65102 z m 12.15193,-0.23848 c -0.79996,-0.70011 -2.90138,-1.02976 -4.26671,-1.15531 -1.22149,0.15369 3.6697,1.13731 2.96077,0.90818 0.40533,0.0193 0.95881,0.40364 1.30594,0.24713 z m -42.81969,-0.15982 c -1.82501,-0.89429 -4.109192,-2.45834 -6.042009,-2.20953 1.978302,0.76638 3.909679,2.02912 6.042009,2.20953 z m -12.717976,-0.0526 c 1.414602,-1.08285 -5.517524,-1.11424 -7.00655,-0.8229 1.276981,1.05107 3.597242,0.41535 5.29716,0.75097 0.568916,0.007 1.142129,0.1155 1.70939,0.0719 z m 45.298656,-0.18207 c -0.40899,-1.87764 -8.18879,0.0638 -1.54515,0.0341 l 0.68597,0.0182 z m 16.27472,-0.011 c -0.33053,-0.84309 -3.04697,-1.37822 -2.69324,-0.98673 -2.57376,0.83939 0.86137,0.19158 1.92076,0.78079 l 0.44813,0.23199 z m 23.36542,0.0322 c 0.21339,-1.73935 -0.69203,-3.84652 -1.15326,-5.65298 -0.54285,-1.64476 -0.62066,-0.19556 -0.18118,0.71211 0.70684,1.51546 0.49716,3.51649 1.33444,4.94087 z m -16.82389,-0.30361 c -0.83011,-1.27484 1.82604,-1.75083 0.33061,-2.11021 0.27396,-0.24456 0.15932,-0.8326 -0.72217,-0.17601 -0.91742,0.47294 -0.33706,2.11448 0.39156,2.28622 z m -32.23658,-0.0114 c -3.24369,-1.14937 -3.77686,-0.079 0,0 z m -53.762674,-0.13488 c 3.029373,-0.33396 6.384935,-0.10925 9.225258,-0.47647 -2.38315,-0.12062 -9.833202,-0.78222 -9.225265,0.47671 z m 0.31206,0.0554 c -0.01581,-0.0931 -0.205033,0.031 0,0 z m 0.364988,-0.0837 c -0.144587,-0.0358 -0.0052,0.12224 0,0 z m 87.699376,-0.0327 c -0.71615,-1.61276 3.06667,-1.40015 0.9592,-2.26085 -0.006,-1.04946 -2.14897,0.41883 -1.58072,1.42057 0.0209,0.21947 0.36088,1.21812 0.62152,0.84028 z m 0.3738,-2.1067 c 0.0991,-0.39137 0.65206,0.22984 0,0 z m 0.39406,-0.0864 c 0.13329,-0.12432 0.0889,0.12842 0,0 z m -84.879503,2.1171 c -0.195408,-0.15876 -0.07095,0.15032 0,0 z m 63.257023,-0.0564 c -4.58569,-1.7719 -9.62535,-2.42582 -14.47158,-3.21889 -2.8867,-0.46996 -5.94732,-0.27213 -8.76638,-1.43801 -4.83869,-1.18041 -10.07132,-1.3294 -14.85589,-1.83871 4.54885,2.3266 9.87039,1.80125 14.76025,2.9751 2.12502,0.43553 4.50357,0.60981 6.45941,1.27354 -0.31162,0.83216 -3.89706,-0.32291 -5.77461,-0.16778 2.48917,0.5458 5.33708,1.03774 7.88585,1.24849 -2.54955,-0.85095 0.92013,-0.48234 2.02003,-0.17943 3.46844,0.98535 1.33526,-0.63693 -0.74223,-0.69635 -1.55665,-0.16963 -1.02859,0.49339 -2.92511,-0.39741 -0.82796,-0.35027 -3.04315,-1.23534 -0.4803,-0.74251 2.2007,0.50592 5.01174,1.42923 7.14906,1.53501 1.24943,0.30803 3.38781,0.62896 4.87379,0.90587 1.62705,0.29542 3.22455,0.7091 4.86771,0.74108 z m -6.10027,-1.50861 c 0.0452,-0.0832 0.13221,0.1267 0,0 z m -4.14001,-0.25523 c 0.0462,-0.12557 0.32747,0.10084 0,0 z m 2.26767,-0.0222 c 0.0452,-0.0832 0.13221,0.1267 0,0 z m -8.69644,-0.0493 c 0.03,-0.18314 0.0823,0.1819 0,0 z m -1.65176,-1.47565 c 0.0999,-0.0661 0.0809,0.1191 0,0 z m -42.682464,3.2771 c -0.06242,-0.06 -0.24722,0.12083 0,0 z m 0.543564,0.007 c -0.07838,-0.064 -0.349932,0.0994 0,0 z m -11.275984,-0.0209 c -0.06624,-0.10017 -0.174285,0.16158 0,0 z m 95.248244,-0.21029 c 0.20016,-1.35921 3.2934,-0.19357 1.41874,-1.89512 -1.07237,-0.62146 -2.60629,1.68572 -1.41874,1.89512 z m 0.30547,-1.49545 c 1.24786,-0.57025 1.79462,0.43517 0,0 z m -42.43355,1.47591 c -4.67297,-1.1322 -9.47651,-1.92975 -14.09981,-3.29457 -0.8637,0.16976 3.44333,1.23791 2.70109,1.03808 3.73136,1.01678 7.52405,2.08878 11.39872,2.25649 z m 57.23221,-0.006 c -0.0434,-0.078 -0.11286,0.21082 0,0 z m -47.89712,-0.12323 c -1.57479,-0.91675 -7.64291,-0.66173 -3.12863,-0.0472 1.04007,0.0226 2.08961,0.20423 3.12863,0.0472 z m 22.86144,0.0192 c -1.19172,-1.53028 -3.55783,-1.79537 -5.3943,-2.29599 -1.39081,0.20467 -4.22935,-0.23083 -4.29758,1.78967 1.48778,0.11535 3.81559,0.34365 3.5084,-0.17494 0.46773,-0.11513 1.4034,-0.7451 0.87215,-0.59588 1.53699,-0.27597 3.74428,0.73349 5.31133,1.27714 z M 92.405823,152.9539 c 2.459804,-0.83574 -6.210184,-1.5147 -3.916541,-1.19028 -4.215083,-0.53215 -0.593853,1.47774 1.145857,1.11201 0.922336,0.046 1.846655,0.13611 2.770684,0.0783 z m 0.452258,-0.179 c 0.0019,-0.1649 0.180884,0.0211 0,0 z m -6.025345,-0.65162 c 0.485413,-0.32614 0.144996,0.20869 0,0 z m -0.0901,-0.19509 c -0.06164,-0.17277 0.120995,-0.0185 0,0 z m 89.278994,0.68587 c 0.10278,-0.82544 -0.21465,-2.03694 -0.37151,-2.92048 -1.47297,-1.17917 -0.4147,1.19735 -0.28386,2.18342 0.3781,0.1284 0.18682,0.77414 0.65537,0.73706 z M 100.6738,152.3631 c 1.57024,-0.14917 -5.914961,-2.09049 -2.645378,-1.1854 -3.129049,-0.99847 3.794148,1.95283 1.392666,0.82599 0.396772,0.17615 0.822432,0.31568 1.252712,0.35941 z m -22.467933,-0.0812 c 2.32336,0.0205 4.680928,-0.15443 6.92255,-0.21771 -2.167488,-0.23355 -5.687056,-1.19657 -7.261489,0.22843 0.113231,0.009 0.227479,0.0468 0.338939,-0.0108 z m 75.832093,-0.31911 c -1.5682,-1.99706 -4.75323,-2.234 -7.16028,-2.52533 -3.05317,0.85823 2.40018,1.11295 3.55796,1.51719 1.21306,0.25809 2.51094,0.63626 3.60232,1.00814 z m -35.26272,0.0228 c -3.29187,-1.00704 -6.87813,-1.2565 -10.20876,-2.04397 3.18081,1.07609 6.8867,1.6893 10.20876,2.04397 z m 53.85071,-0.28292 c -0.45754,-1.18046 -0.97824,-2.69128 -1.83967,-3.43339 0.62005,1.17661 1.04892,2.42276 1.66368,3.5804 z m -33.93016,0.0974 c 2.97931,0.13375 4.39901,-1.01026 0.76379,-0.59088 -1.53072,0.0262 -1.02072,0.57706 -0.76379,0.59088 z m -45.790307,-0.54661 c 1.409099,-1.87689 -4.690338,-1.30102 -6.080505,-1.09652 -1.259487,-0.85488 -6.892942,0.85639 -3.212635,0.54178 3.131397,-0.0928 6.202231,-0.0461 9.29314,0.55474 z M 89.598819,150.191 c -0.134705,-0.0202 0.06893,-0.0921 0,0 z m -0.439193,-0.0904 c 0.07868,-0.15318 0.07862,0.15321 0,0 z m 87.714104,0.93802 c -0.14447,-0.8775 0.45063,-0.95967 0.29794,-1.93233 0.1437,-0.48812 -0.17415,-2.70103 0.3083,-2.33433 0.32929,1.7287 0.30306,-0.17949 0.20434,-0.69346 0.0478,-1.1578 -0.53541,-1.24028 -0.80181,-0.21115 -0.4639,1.5212 -0.88847,3.8212 -0.009,5.17127 z m -42.47739,-0.0878 c 2.92641,-0.12239 5.55341,-2.16146 8.5989,-1.15817 0.31092,-0.84865 -4.88579,-0.90747 -6.76123,-0.23854 -0.72501,0.39047 -2.05602,0.44682 -2.09755,1.43105 l 0.25988,-0.0342 z m 22.15604,-0.0839 c 0.0279,-0.58464 -0.71282,-0.39371 -1.43221,-1.12544 0.26961,-0.37044 -2.39665,-1.67522 -3.50501,-1.82231 -1.62586,-0.90529 -5.77296,1.08364 -2.09274,1.08427 2.57901,0.1163 4.6544,1.05006 7.02996,1.86348 z m 3.0636,-0.0858 c -0.60695,-0.82463 -0.83816,-1.3679 -2.12836,-2.12039 -1.44738,-1.02241 -3.7175,-2.40764 -5.21557,-1.49001 0.62546,1.20766 2.77907,0.43778 3.77348,1.56028 1.30326,0.58903 2.16488,1.79551 3.37093,1.8666 l 0.1996,0.22174 v -0.0384 z m -27.05916,-0.0823 c 3.67032,-2.17521 8.05366,-3.46229 12.38196,-2.58834 3.11155,0.20454 -4.59943,-1.81724 -2.08223,-0.88609 -3.73927,-0.6589 -8.57271,-0.26468 -10.50849,3.50909 l 0.20876,-0.0347 z m -35.821589,-0.13986 c -2.915449,-1.98172 -6.724504,-2.67764 -10.152962,-2.08749 -2.587509,1.55876 3.324387,-0.23057 4.635852,0.62107 1.773159,0.6718 3.863083,0.7154 5.51711,1.46642 z m 71.099239,-0.30869 c -0.30144,-2.01778 -1.56916,-4.15021 -3.41131,-5.21142 -2.15046,0.0763 2.07658,1.88013 2.16696,3.10298 0.46435,0.45406 0.85787,2.46088 1.24435,2.10844 z m -62.23054,0.0999 c -1.22133,-0.83578 -2.92261,-1.01118 -4.34979,-1.12688 0.72513,0.85753 3.21866,1.25887 4.34979,1.12688 z m 60.29665,0.0262 c -0.46514,-2.22483 -2.21789,-5.16597 -4.66733,-5.17875 -0.72472,1.0656 2.01734,1.55813 2.39247,2.75336 1.01385,0.5106 1.51778,1.93185 2.27486,2.42539 z m -2.08548,-0.35787 c -0.88998,-1.76473 -2.69648,-3.82962 -4.34557,-4.57459 -1.51979,-0.46974 -2.47849,0.54878 -0.52914,0.99832 1.53078,1.13629 3.33676,1.67995 4.50048,3.42492 l 0.32159,0.20935 0.0526,-0.058 z m -4.18658,-4.37807 c -0.022,-0.28833 0.24546,0.13083 0,0 z m 13.78681,4.29297 c 0.0234,-0.62685 -0.37447,-2.21338 -0.89949,-2.35473 0.2385,0.76091 0.48646,1.89686 0.89949,2.35473 z m -0.44178,-0.10188 c -0.43339,-1.28656 -0.85887,-1.38601 -0.28953,-0.19356 0.0496,0.1031 0.1583,0.47573 0.28953,0.19356 z m -11.9698,-0.14552 c -0.17533,-1.51803 -2.44982,-2.30465 -3.55335,-3.34348 -2.11014,-1.04879 -4.0959,0.44973 -0.95442,0.83848 1.11226,0.77749 1.6599,0.015 2.8996,1.24515 0.62798,0.0547 1.06899,1.43063 1.60817,1.25985 z m 11.19686,0.006 c -0.22843,-0.95344 -0.48649,-2.01798 -1.10414,-2.84348 0.2173,0.89573 0.53006,2.22086 1.10414,2.84348 z m -75.00994,-1.29272 c -1.74097,-1.00326 -3.909278,-1.74075 -5.356101,-3.22761 1.539501,-0.1407 2.964393,1.76974 4.364769,0.84291 0.593494,0.28766 3.494862,2.31043 1.971543,0.67035 -1.595636,-1.03549 0.211635,-0.57852 -1.585454,-1.45957 -1.612316,-0.70221 -4.776532,-1.92455 -5.476555,0.23774 1.264082,1.91913 3.841738,2.93045 6.081798,2.93618 z m 5.02912,-0.37727 c -0.81652,-0.31033 -2.08779,-1.3281 -2.937898,-1.00092 0.741258,0.67226 2.034738,0.97125 2.937898,1.00092 z M 91.615227,147.5949 c -0.254201,-2.29018 -4.558305,-1.86567 -2.747766,-0.2012 0.919791,-0.15517 1.834049,0.24644 2.747766,0.2012 z m 83.279173,-0.41828 c 0.78109,-0.43121 0.0641,-2.33819 0.81511,-3.12637 0.51986,-0.17189 0.20584,-1.70289 0.73741,-1.03049 0.75525,0.98428 0.24412,-1.57032 -0.26988,-2.03894 -1.50766,0.53786 -1.2941,2.72788 -1.73391,4.0918 0.13259,0.58527 -0.30041,2.00134 0.45127,2.104 z m -39.12736,-0.29925 c 3.97198,-1.47596 8.34306,-1.08963 12.35766,-0.0423 -2.57347,-1.83375 -6.57094,-1.21879 -9.63696,-1.44836 -0.7762,-0.13426 -3.43511,0.92754 -2.7207,1.49061 z m 37.31859,-0.25026 c -0.0678,-1.31136 -0.79697,-2.87009 0.24503,-3.88443 0.004,-1.16258 1.1304,-1.97878 0.91499,-3.22376 0.42654,-0.39059 1.18633,-1.39838 1.33814,-0.11173 0.27132,-0.63694 -0.41231,-2.85344 -1.44709,-2.76386 -1.15668,1.76211 -1.40248,4.19829 -1.75322,6.29742 0.0569,1.05554 -0.063,2.78117 0.70215,3.68636 z m -3.82573,-0.1519 c -0.75686,-2.20425 -1.86585,-4.74625 -3.60824,-6.31081 -1.82581,0.51454 -0.62322,2.97021 -0.15915,4.22343 0.21749,0.39037 -0.62939,-4.27991 0.33278,-2.00582 0.38908,0.96449 0.5291,-0.88316 0.88472,0.67958 0.72533,1.21651 1.59293,2.13957 2.19255,3.44886 -0.21103,-0.24439 0.30698,-0.0228 0.35734,-0.0353 z m -68.9818,-0.65713 c -0.778796,-2.48799 -4.091824,-3.31654 -5.565008,-5.47116 -0.625641,-0.82353 -3.929894,-4.27321 -2.58314,-1.5127 2.543678,2.43493 4.729871,5.77275 8.148148,6.98386 z m 71.14314,-0.0866 c -0.77131,-3.4039 -2.7644,-6.72954 -4.9177,-9.58088 -0.71619,-1.26353 -2.84697,-1.47034 -2.15572,0.43999 0.0874,0.61108 0.64838,2.48254 0.80258,1.08677 0.53101,0.13188 0.6316,0.82843 1.28935,0.52684 0.7508,1.1021 1.10425,1.76644 1.11933,1.52362 0.57292,0.61451 0.80786,1.17151 1.07366,1.75614 -0.10798,0.58084 1.16979,-0.39968 1.2454,0.91335 0.69841,0.97047 0.85179,2.5464 1.5431,3.33417 z m -2.06296,-4.22867 c 0.0325,-0.11612 0.0733,0.0936 0,0 z m -19.23804,4.1079 c -2.83959,-2.05761 -6.77551,-2.1413 -10.14155,-2.03091 -2.57899,0.86098 -1.3737,1.60274 1.22727,0.93902 3.0439,-0.11832 6.02265,0.28131 8.91428,1.09189 z m -42.48133,-0.78504 c -0.82312,-0.93927 -2.58576,-1.38542 -0.72932,-0.26218 0.21981,0.1346 0.46372,0.2614 0.72932,0.26218 z m 46.57427,-0.10255 c -1.86818,-1.34314 -4.64091,-2.23033 -7.10918,-2.70263 -0.50061,-0.88464 -7.8896,0.56177 -4.69831,0.75065 4.0661,-0.31932 8.08565,0.42229 11.80749,1.95198 z m -12.44088,-0.13943 c -0.1373,-0.0729 -0.0324,0.0781 0,0 z m 14.61877,-0.42537 c -2.7803,-2.36955 -6.62114,-3.75724 -10.33034,-3.94768 -1.37031,0.28888 -2.60436,1.30167 -0.413,0.9798 3.6712,-0.23045 7.52866,0.89119 10.42892,2.96648 l 0.31443,10e-4 z m -55.09848,-0.15536 c -0.56426,-1.74534 -3.448411,-2.60121 -4.645009,-4.19186 -2.693607,-1.08483 -4.255547,-4.61713 -6.418607,-6.67116 0.979718,3.16651 4.350263,5.1376 6.461673,7.56398 1.519077,1.031 2.825278,2.81694 4.601943,3.29904 z m 75.69596,-0.50208 c -0.0798,-0.10405 -0.0798,0.10405 0,0 z m -82.37832,-0.24035 c -1.015264,-1.89998 -2.875314,-1.81059 -0.733661,-0.12795 0.244539,0.0441 0.478966,0.15395 0.733661,0.12795 z m 62.46073,-0.73912 c -2.64299,-2.72494 -6.91605,-4.70158 -10.66387,-3.32047 0.78815,1.14082 4.17897,5.3e-4 5.86318,0.80821 1.7727,0.35733 3.48847,1.85058 4.80069,2.51226 z m -55.99193,-0.76553 c -2.322345,-2.05728 0.17619,-1.28236 -0.10943,-0.86125 -2.184554,-1.95417 -4.325751,-4.26875 -6.776608,-5.72538 0.602221,1.10996 -3.021726,-2.86986 -2.390731,-2.2565 -1.457527,-1.5225 -2.474761,-3.85143 -3.941657,-5.06701 0.579336,2.96009 3.748645,4.68978 5.344208,7.12124 2.275491,2.58802 5.008639,4.99082 7.874218,6.7889 z m -1.607075,-1.36651 c -1.807315,-1.28288 0.230341,-0.2455 0,0 z m 41.026825,0.93867 c 0.0412,-0.19381 -0.15167,0.19405 0,0 z m 0.24714,-0.14736 c -0.0434,-0.0779 -0.11284,0.21082 0,0 z m 17.00096,-0.0405 c -0.94311,-2.26823 -3.47544,-3.49693 -5.3119,-5.14694 -2.27529,-1.20693 -4.80353,-3.30858 -7.46337,-2.55573 -1.00909,2.15779 1.89924,3.61609 3.57132,3.85274 -0.43482,-0.3599 -2.60949,-1.6254 -1.23774,-1.42232 2.35746,0.56392 4.93527,1.33057 6.77016,2.76423 -2.11722,-2.2435 -5.27371,-3.2779 -8.08749,-4.1809 1.33591,-0.44174 3.17344,0.65078 4.60078,1.08752 2.83231,1.2854 5.04066,3.73259 7.15824,5.6014 z m -15.61846,-0.59224 c -0.0419,-0.12677 -0.0855,0.12352 0,0 z m 18.63689,-0.24083 c -3.68155,-4.28775 -8.37558,-7.69926 -13.2279,-10.56425 -0.90748,-0.89835 -3.90875,-0.90954 -2.92515,0.8809 1.27052,1.59696 3.76232,1.65089 5.39149,2.88826 2.41463,1.47338 4.76026,3.0916 6.80865,5.03301 -2.69528,-3.30662 -6.42545,-5.85876 -10.42278,-7.32415 -0.67615,-1.30616 1.79465,0.4117 2.62013,0.46407 3.19276,1.57272 6.31808,3.67783 8.68166,6.26296 0.39747,-0.45271 2.22657,1.0254 1.81614,1.38064 0.40725,0.007 0.93255,1.31187 1.25776,0.97856 z m 10.49478,-0.16776 c -0.88142,-3.22194 -2.40084,-6.37027 -4.57451,-8.94602 -1.83365,-1.63903 -2.21782,1.66066 -1.4996,2.59028 -0.14954,-1.05406 0.65207,-1.43226 1.03189,-0.35855 0.16594,1.26784 0.38263,-0.53565 0.7188,0.34428 0.12862,0.56424 1.13923,0.79195 0.8975,1.77878 1.02578,-1.5705 0.57318,0.77793 1.18309,1.15109 0.42889,-3.09862 0.59703,3.22774 0.71312,0.72812 0.15058,-0.92609 0.48295,1.01831 0.79424,1.31589 0.14112,0.33421 0.27935,1.36026 0.73547,1.39613 z m -68.64417,-0.178 c -3.877997,-4.06767 -8.87447,-7.45192 -12.257228,-12.15577 -3.949004,-4.69416 -7.284805,-9.77623 -10.461053,-14.95605 -1.877244,-3.57153 -4.089453,-7.02193 -4.607085,-11.11642 -1.30148,1.40383 -0.136388,4.03986 0.602273,5.75409 4.61527,9.24726 11.057301,17.50332 18.104751,25.04439 2.521272,2.7794 5.177897,5.83023 8.618342,7.42976 z m 59.88157,-1.36198 c -3.99926,-5.54125 -8.99108,-10.5761 -14.96581,-13.97608 -1.24677,-1.05805 -3.76737,-0.14103 -2.46908,1.52313 1.59277,1.9185 4.4863,2.38781 6.28883,4.24388 1.62754,0.61539 -2.32734,-2.82883 0.64146,-0.36133 2.3403,1.59582 4.47442,4.35699 6.60772,5.6238 -2.372,-3.23723 -6.09091,-5.45092 -8.59848,-8.40379 1.19632,0.21736 2.49507,1.43439 3.23738,2.47765 1.19872,0.0901 1.86712,1.77135 2.62973,2.07501 1.30529,1.02566 2.03926,2.29912 3.18575,3.10775 1.13312,1.14194 2.38789,2.77011 3.4425,3.68998 z m -12.84503,-11.17248 c -1.52602,-1.03945 0.72875,-0.48547 0,0 z m -0.95639,-0.72866 c -0.0914,-0.22742 0.40388,0.0763 0,0 z m -0.56524,-0.11473 c -1.51188,-0.24489 -2.7275,-1.602 -0.6146,-0.74013 0.26803,0.14036 1.83717,1.00595 0.6146,0.74013 z m 23.70823,11.00853 c -0.8582,-3.08983 -1.90091,-6.23533 -3.60189,-9.00441 -0.63747,-0.99224 -1.99246,-3.42022 -3.18508,-1.5898 -0.30593,0.38928 0.41812,3.08996 0.53569,1.47521 0.45027,-0.67696 2.94566,1.73738 1.79701,1.17395 0.63213,-0.63699 0.54484,1.43477 0.98472,0.5645 0.32021,1.19981 0.5928,0.78493 1.06245,1.70049 0.8902,0.94727 1.195,3.01445 1.80713,4.4362 0.21354,0.26422 0.33764,1.64686 0.59997,1.24386 z m -2.95692,-6.93642 c -0.0402,-0.33557 0.20006,0.17319 0,0 z m 3.80976,4.97501 c -0.057,-0.3972 -0.15314,0.30853 0,0 z m -0.036,-0.46046 c -1.06754,-3.94893 -2.12333,-8.14296 -4.97536,-11.19875 -1.35488,-1.77828 -3.68301,1.46859 -1.11727,1.07313 1.357,0.59118 2.50084,1.96482 2.8965,3.32745 0.16025,-1.12861 0.21066,-1.27719 0.46685,0.11837 -0.37678,2.17783 0.99044,0.0589 0.79205,2.02174 1.05806,1.28352 1.01459,3.35525 1.89002,4.72094 l 0.0469,-0.0629 z m 1.08255,-0.8385 c -1.05467,-5.0026 -3.24017,-10.04558 -6.82221,-13.85942 -1.59058,-0.89141 -2.38265,2.76337 -0.40609,1.50676 0.7003,0.81637 1.12629,0.44006 1.8813,1.34668 3.14201,2.84346 3.68389,7.4866 5.347,11.00598 z m -10.77651,-0.54879 c -3.61451,-5.24136 -8.46043,-9.71691 -13.72555,-13.27558 -1.20559,-0.74608 -3.77075,-2.17524 -4.42193,-0.13909 -0.28046,2.27881 2.64328,3.09783 4.1975,3.67179 0.42589,-0.81333 1.79488,0.66928 1.94666,0.19426 3.48502,2.57372 6.39492,5.92346 9.46041,8.89461 -2.8053,-4.21559 -6.81358,-7.49809 -10.61467,-10.75088 1.14115,0.11398 2.45368,1.61037 3.66889,2.39371 1.46948,1.53939 3.04094,2.57337 4.54011,4.10264 0.28272,1.25289 1.29679,0.73102 1.62288,2.03448 0.4303,0.0442 1.30485,1.13317 1.30228,1.14405 0.55161,0.39491 1.48538,1.35347 2.02342,1.73001 z M 149.39222,122.2319 c -1.1343,-0.3097 -2.25316,-0.88994 -3.22263,-1.52597 1.05433,0.23176 2.83609,0.35339 3.46315,1.46589 l -0.09,0.0881 z m 14.19877,9.6482 c -3.6542,-6.2404 -8.68105,-11.94272 -14.53105,-16.40317 -1.17545,-1.57838 -4.73081,-1.63407 -2.97009,0.8332 1.12127,1.74669 3.12694,2.76803 4.86,3.60139 -1.81869,-2.2692 1.98796,0.94197 2.58781,1.61926 0.79647,0.3785 4.33807,4.67184 3.01172,2.53056 -2.06118,-2.50422 -4.51551,-4.60053 -6.84295,-6.82363 2.16218,0.46795 3.76514,3.05277 5.53409,4.47308 3.11258,3.11368 5.59971,7.06754 8.35047,10.16931 z m -14.25412,-14.82044 c -1.29119,-0.17833 0.70906,-0.67875 0,0 z m -0.79828,-0.35419 c -2.09896,-1.07191 0.60961,-0.53236 1e-5,0 z m 14.78266,11.01843 c -2.08126,-4.02094 -5.25962,-7.66656 -8.24614,-11.15983 -2.55934,-2.34924 -4.91592,-5.72005 -8.57872,-6.09577 -1.40381,1.95065 1.93632,3.13393 3.16947,4.05383 3.90638,2.51294 6.93664,6.24077 10.03547,9.59122 -1.90094,-3.38223 -5.22521,-6.23096 -8.01803,-9.01497 -2.14199,-1.46971 -0.28558,-1.46585 0.89961,-0.0347 3.251,2.81458 5.61711,6.36528 8.33063,9.62927 0.86224,0.94915 1.4058,2.29582 2.40771,3.03092 z M 150.1419,113.82825 c -1.46457,-0.72787 -0.69194,-1.37165 0.16935,0.0161 l -0.16934,-0.0161 z m -1.34405,-0.98339 c -0.29231,-0.32027 0.31728,0.12718 0,0 z m 14.26137,9.45683 c -1.92225,-3.34402 -4.83958,-6.61017 -7.30318,-9.83863 -2.16563,-2.33733 -4.37923,-4.83182 -7.25539,-6.32583 -2.42498,-0.1331 -0.55767,3.04159 0.59904,3.28011 4.90958,2.60409 8.219,7.24209 11.76998,11.40207 -1.69813,-2.87022 -4.12311,-5.80426 -6.43633,-8.22273 -0.44392,-0.60253 -2.79168,-2.2598 -1.84571,-2.33585 3.47452,3.46455 7.1126,7.30094 9.95451,11.59768 0.22255,0.0366 0.20912,0.61114 0.51708,0.44318 z m -11.17279,-12.09263 c -0.92834,-1.08371 0.64657,-0.30369 0,0 z m -0.69877,-0.65301 c -1.38341,-0.99678 0.6672,-0.6531 0,0 z m -0.99773,-0.79789 c -1.52839,-0.82818 0.86903,0.0102 0,0 z m -0.79752,-0.39253 c -0.84762,-0.66045 0.81693,-0.0726 0,0 z m 0.24743,-0.011 c 0.12348,-0.14486 -0.0152,0.1718 0,0 z m 14.42503,12.51098 c -3.33388,-5.73622 -7.38965,-11.13824 -12.50539,-15.41613 -1.22475,-0.90399 -2.40744,-2.34964 -3.98316,-2.36357 -0.58342,1.4526 1.44025,1.76922 2.2495,2.54271 2.10302,1.24367 3.84731,3.31698 5.45192,4.69128 0.6705,0.85817 1.57862,1.322 1.94457,2.45651 0.87456,0.72753 0.60296,0.63266 1.5099,1.23383 0.66052,1.44777 1.81412,2.52362 2.59551,3.86616 0.80224,1.09181 1.84204,1.99023 2.73715,2.98921 z m 1.27426,-1.99255 c -2.40236,-4.12073 -6.0006,-7.61241 -9.23866,-11.22941 -3.35409,-3.27953 -6.54808,-6.93321 -10.88111,-8.941884 -1.99149,-0.02346 0.61477,1.499264 0.88122,2.246604 0.16371,-0.44036 0.64143,-0.27358 1.58184,0.48882 7.07608,4.50981 12.43781,11.06286 17.51897,17.54144 l 0.0912,-0.0166 0.0465,-0.0889 z m -21.32111,-0.059 c 0.15808,-0.23286 -0.1505,0.0676 0,0 z m 20.12665,-3.30953 c -2.79043,-4.34775 -6.50586,-8.1286 -9.91695,-12.0574 -3.17327,-2.9457 -6.79911,-6.127798 -10.92476,-7.673941 -1.06885,0.956945 0.93356,1.599378 1.76394,1.753723 5.06301,2.45434 8.45235,7.192008 12.6032,10.905608 2.18832,2.32183 4.10698,5.16326 6.47457,7.07201 z M 60.352139,198.07086 c -0.08178,-0.1124 0.244414,0.0371 0,0 z m -0.279556,-0.0267 c 0.143239,-0.0985 0.103002,0.0578 0,0 z m -7.146243,-0.0889 c 0.11152,-0.16827 0.01458,0.1708 0,0 z m 0.277385,0 c 0.111513,-0.16828 0.01458,0.1708 0,0 z m -0.822802,-0.0173 c 0.07979,-0.10405 0.07979,0.10406 0,0 z m 0.277385,0 c 0.07979,-0.10405 0.07979,0.10406 0,0 z m 2.425915,-0.002 c 0.05127,-0.0767 0.300906,0.0538 0,0 z m 0.824552,-0.0123 c 0.05535,-0.10694 0.330474,0.0798 0,0 z m -7.411228,-0.26315 c 0.07979,-0.10405 0.07979,0.10405 0,0 z m 0.199245,-0.0142 c 0.05535,-0.10698 0.330467,0.0798 0,0 z m -1.37813,-0.12447 c 0.07979,-0.10405 0.07979,0.10405 0,0 z m -0.841501,-0.0563 c 0.03247,-0.11612 0.07328,0.0937 0,0 z m 24.132408,0.004 c 0.111519,-0.16828 0.01458,0.17079 0,0 z m 5.548321,-0.53489 c -0.08292,-0.17336 0.07348,0.057 0,0 z m 24.46694,-3.19618 c 0.004,-0.15001 0.10576,0.0315 0,0 z m 5.49216,-0.46147 c 0.0147,-0.11986 0.22092,0.0437 0,0 z m 77.29187,-4.28041 c 0.0378,-0.0873 0.0747,0.15477 0,0 z m -28.41676,-0.71671 c 0.002,-0.1649 0.18088,0.0211 0,0 z m 26.29986,-0.25547 c 6.5e-4,-0.21725 0.26229,0.13426 0,0 z m -16.85146,-0.0435 c 0.26075,-0.25229 -0.17973,0.24701 0,0 z m -0.29473,0.0259 c 0.0832,-0.13904 0.23648,-0.0251 0,0 z M 43.441294,187.76676 c 0.02664,-0.30276 0.117968,0.0954 0,0 z m 0.527852,0.0277 c 0.0019,-0.16489 0.180884,0.0211 0,0 z m 0.884162,-0.0563 c 0.26076,-0.25231 -0.17971,0.24699 0,0 z m 120.624642,0.0117 c 0.15398,-0.26634 0.35655,-0.0105 0,0 z m 0.2948,0.0143 c -0.0392,-0.20524 0.25103,-0.0831 0,0 z m 0.60365,-0.0726 c 0.1287,-0.13972 0.12261,0.0939 0,0 z m 13.87856,-0.017 c 0.0798,-0.10405 0.0798,0.10405 0,0 z m 0.10497,-0.0585 c -0.22207,-0.13711 0.19758,0.075 0,0 z m -136.093637,-0.082 c 0.06977,-0.24746 0.07197,0.13205 0,0 z m -1.077288,-0.0733 c 0.26076,-0.25232 -0.179711,0.24698 0,0 z m 0.294722,-0.0174 c 0.327953,-0.31342 -0.246695,0.30802 0,0 z m 0.277379,0 c 0.327953,-0.31342 -0.246689,0.30802 0,0 z m 0.29143,-0.009 c 0.220051,-0.12488 -0.06203,0.13356 0,0 z m 124.216674,0.0526 c -0.0106,-0.30521 0.19218,0.0323 0,0 z m -121.456876,-0.0391 c 0.0019,-0.16493 0.180896,0.0211 0,0 z m 122.553206,-0.19255 c 0.16054,-0.30585 0.14414,0.0772 0,0 z m -125.881813,-0.0891 c 0.32794,-0.31339 -0.246715,0.30804 0,0 z m 0.274761,0.008 c 0.267403,-0.18328 -0.06781,0.14767 0,0 z m 1.042813,0.0652 c 0.0019,-0.1649 0.180883,0.0211 0,0 z m 0.329392,-0.0563 c 0.26076,-0.25232 -0.17971,0.24699 0,0 z m -1.907013,-0.0347 c 0.26076,-0.25232 -0.17971,0.24699 0,0 z m 4.094276,-0.16874 c 0.108174,-0.29917 0.06846,0.13041 0,0 z m -3.574181,-0.074 c 0.260753,-0.25232 -0.179724,0.24703 0,0 z m 0.225371,0.0563 c 0.0019,-0.1649 0.180897,0.0211 0,0 z m 1.161547,-0.0563 c 0.26076,-0.25232 -0.179717,0.24703 0,0 z m -0.537432,-0.0131 c 0.0019,-0.16489 0.180883,0.0211 0,0 z m 126.170629,-0.0456 c 0.064,-0.20098 0.24338,0.15091 0,0 z M 43.718679,186.65714 c 0.02774,-0.31071 0.154445,0.0712 0,0 z m -0.239378,-0.0546 c 0.03954,-0.0748 0.149234,0.18058 0,0 z m 3.072986,-0.009 c 0.260754,-0.25233 -0.179717,0.24702 0,0 z m 130.313743,-0.0244 c 0.0301,-0.13805 0.47334,0.0561 0,0 z m -5.20998,-0.005 c 0.0798,-0.10405 0.0798,0.10406 0,0 z m 0.47767,-0.12295 c 0.0544,-0.24942 0.0433,0.14041 0,0 z m 4.16494,-0.0215 c -0.0817,-0.11242 0.24443,0.0371 0,0 z m -131.774744,-0.0131 c 0.0019,-0.16492 0.180896,0.0211 0,0 z m 2.496459,0 c 0.0019,-0.16492 0.180889,0.0211 0,0 z m 128.718375,-0.0133 c -0.10062,-0.16531 0.32467,0.0145 0,0 z m 7.76675,0 c -0.0829,-0.17336 0.0735,0.057 0,0 z M 45.39074,186.3728 c 0.0019,-0.16489 0.180883,0.0211 0,0 z m 3.935384,-0.0563 c 0.26076,-0.25233 -0.179717,0.24702 0,0 z m -5.010248,0.0216 c 0.0019,-0.16489 0.18089,0.0211 0,0 z M 173.5923,186.00148 c -0.054,-0.2179 0.17533,0.10319 0,0 z M 46.777659,185.81807 c 0.0019,-0.1649 0.180889,0.0211 0,0 z m -2.232484,-0.0626 c 0.09872,-0.084 0.02696,0.10523 0,0 z m 0.325471,0.0279 c 0.0019,-0.16491 0.180896,0.0211 0,0 z m 138.466334,-0.25232 c -0.10991,-0.21561 0.046,-0.14935 0,0 z M 45.962841,185.24184 c 0.260761,-0.25229 -0.179723,0.24701 0,0 z m 136.715979,-3.01708 c -0.13204,-0.12683 0.1383,-0.13956 0,0 z m 0.27192,-1.10068 c -0.0829,-0.17336 0.0735,0.057 0,0 z M 60.334808,171.98367 c 0.0019,-0.1649 0.180883,0.0211 0,0 z m 119.328622,-1.6835 c -0.0417,-0.12343 0.10683,0.0148 0,0 z m -2.27257,-2.47726 c 0.002,-0.1649 0.18088,0.0211 0,0 z m -0.50128,-0.29658 c -0.0417,-0.12343 0.10684,0.0148 0,0 z M 30.190203,164.37449 c 0.07972,-0.10408 0.07986,0.10403 0,0 z m 0.277379,0 c 0.07973,-0.10408 0.07986,0.10403 0,0 z m -2.295457,-0.22964 c 0.06306,-0.17816 0.09058,0.16116 0,0 z m 4.160762,-0.55404 c 0.267053,-0.41818 -0.01264,0.38147 0,0 z m 2.224919,-0.88256 c 0.05127,-0.0767 0.3009,0.0538 0,0 z m 0.272829,-0.16926 c 0.143239,-0.0985 0.103002,0.0578 0,0 z m -7.21396,-0.22933 c -0.0052,-0.40588 0.209492,0.0168 0,0 z m 0.831941,-1.1081 c 0.04479,-0.25942 0.269264,-0.22826 0,0 z m 0.55617,-0.44364 c 0.01698,-0.0568 0.207962,-0.0504 0,0 z m -0.0026,-0.11595 c 0.435752,-0.61088 0.02469,0.0678 0,0 z m 1.112846,-0.64903 c 0.424331,-0.14569 0.03876,-0.034 0,0 z m 3.612032,-1.99829 c 0.0798,-0.10405 0.0798,0.10405 0,0 z m 0.55477,-0.27737 c 0.07972,-0.10408 0.07986,0.10403 0,0 z M 134.53503,145.66687 c 0.002,-0.16486 0.18093,0.021 0,0 z M 92.890178,128.12675 c -0.141552,-0.46271 0.126481,0.085 0,0 z"
       id="path826"
       inkscape:connector-curvature="0" />
  </g>
</svg>
