<?xml version="1.0" encoding="UTF-8" standalone="no"?>
<svg
   xmlns:dc="http://purl.org/dc/elements/1.1/"
   xmlns:cc="http://creativecommons.org/ns#"
   xmlns:rdf="http://www.w3.org/1999/02/22-rdf-syntax-ns#"
   xmlns:svg="http://www.w3.org/2000/svg"
   xmlns="http://www.w3.org/2000/svg"
   xmlns:sodipodi="http://sodipodi.sourceforge.net/DTD/sodipodi-0.dtd"
   xmlns:inkscape="http://www.inkscape.org/namespaces/inkscape"
   sodipodi:docname="bird2.svg"
   inkscape:version="1.0 (4035a4f, 2020-05-01)"
   id="svg8"
   version="1.1"
   viewBox="0 0 210 297"
   height="297mm"
   width="210mm">
  <defs
     id="defs2" />
  <sodipodi:namedview
     inkscape:document-rotation="0"
     inkscape:window-maximized="0"
     inkscape:window-y="23"
     inkscape:window-x="0"
     inkscape:window-height="943"
     inkscape:window-width="1252"
     showgrid="false"
     inkscape:current-layer="layer1"
     inkscape:document-units="mm"
     inkscape:cy="636.46373"
     inkscape:cx="587.0551"
     inkscape:zoom="0.49497475"
     inkscape:pageshadow="2"
     inkscape:pageopacity="0.0"
     borderopacity="1.0"
     bordercolor="#666666"
     pagecolor="#ffffff"
     id="base" />
  <metadata
     id="metadata5">
    <rdf:RDF>
      <cc:Work
         rdf:about="">
        <dc:format>image/svg+xml</dc:format>
        <dc:type
           rdf:resource="http://purl.org/dc/dcmitype/StillImage" />
        <dc:title />
      </cc:Work>
    </rdf:RDF>
  </metadata>
  <g
     id="layer1"
     inkscape:groupmode="layer"
     inkscape:label="Layer 1">
    <path
       d="m 104.12356,193.06143 c 0.1349,-2.25021 -2.51033,-3.7221 -5.144976,-4.59149 -1.43281,-1.33927 -5.097103,1.26856 -1.682289,-0.9268 2.571179,0.67725 4.648845,1.42574 4.377105,-1.52491 0.91329,-0.97249 0.43992,3.02036 2.82727,1.78572 -0.99624,-1.90066 1.77408,-3.91272 -2.33038,-4.05548 0.0904,-0.59076 2.93274,-1.93156 4.26244,-0.45286 2.59418,-1.34499 1.33977,-4.09597 -0.89662,-1.75081 -2.13448,-1.16218 1.50205,-0.93499 1.30354,-2.96178 1.27907,0.44063 3.93875,-2.36449 0.7657,-1.64761 -0.21894,1.18762 -4.19901,1.08025 -0.89439,-0.39208 1.65101,-1.22673 2.65033,-2.59202 2.16451,-0.41897 4.76571,0.97889 -1.13641,-2.19519 0.4561,-2.75422 -0.76706,-2.14928 3.78097,-0.52567 1.01507,0.3362 1.37849,1.58024 2.40116,5.16318 4.34641,5.75241 0.96764,-2.17423 -2.53308,-2.71098 -0.25007,-4.01314 -3.36249,-0.17674 -0.40232,-2.74505 1.43222,-0.39166 0.71214,-2.46942 -5.64885,-2.92479 -3.30118,-4.65558 2.44213,0.28075 2.38697,0.92014 0.25066,0.49628 1.39968,2.16009 4.73909,2.7697 5.70846,1.65296 4.06508,-1.36501 1.85632,7.71515 -0.34305,4.23251 1.48073,1.67053 -1.7486,3.79789 -3.79908,5.2054 -1.91414,0.84926 -3.86176,7.86864 -5.35621,4.19182 0.12459,1.14178 0.69297,4.92006 -2.01237,4.54837 -1.54075,-4.27821 -0.0518,3.15746 -2.89887,2.33572 z m 0.79942,-2.4632 c -0.052,-2.6752 -3.50094,-1.95089 -0.13371,0.10583 z m 3.74011,-0.97367 c 0.07,-2.01282 -1.91608,0.77717 0,0 z m -1.20334,-1.60996 c 1.48027,-3.28198 -3.38838,-2.63753 -0.78838,-0.10036 l 0.43363,0.15492 0.35469,-0.0546 z m 1.33576,-3.18934 c -1.44163,-3.18298 -2.32652,1.21731 0,0 z m -3.1464,-1.04708 c -1.22819,-2.59522 -2.61645,1.14918 0,0 z m 4.25769,-0.5484 c -0.26161,-2.70011 -3.49823,-0.7725 -0.19858,0.26137 l 0.19831,-0.26142 z m 2.19756,0.21411 c 0.49542,-3.16601 -2.17473,-0.28888 0,0 z m 1.68212,-1.48672 c 0.86817,-2.52197 -2.56853,0.129 0,0 z m -2.36356,-1.25663 c 0.7949,-3.42119 -3.92849,-0.33075 0,0 z m -2.57056,-0.62635 c 0.85694,-2.57357 -4.20449,0.35487 5e-5,4e-5 z m 8.0651,-0.38659 c 0.9525,-2.56862 -2.45853,0.076 0,0 z m -4.31467,-0.20355 c -0.47117,-1.27756 -1.14916,0.14682 0,0 z m -0.46148,-1.03549 c 0.43196,-3.6809 -4.82873,0.33115 0,0 z m 4.66393,-1.50329 c -0.0599,-3.37113 -2.26538,-0.61166 0,0 z m 3.46487,-1.33982 c -0.0919,-4.60967 -2.48231,0.56917 0,0 z m -2.21126,-0.21437 c 0.8058,-2.85653 -2.98585,-0.34189 0,0 z m -29.644605,16.86613 c 1.329125,-4.01406 5.102175,-6.64612 7.405244,-10.10228 3.247276,-4.15581 7.628641,-7.18452 10.907501,-11.33169 1.25404,-3.29827 2.40578,-7.8547 -0.58668,-10.76175 -1.81381,-3.46473 -3.55974,-4.82637 -4.91811,-0.32068 -5.895098,8.02885 -9.121304,17.50713 -12.571745,26.72993 -0.662027,5.27509 -7.070171,6.60941 -9.32263,3.85109 -2.80033,4.05361 -6.028031,-1.10875 -8.75094,1.03263 -5.234643,-2.22711 1.800533,-8.14997 2.76093,-11.671 3.423547,-6.95954 7.226859,-13.71432 10.685527,-20.64917 -0.522751,-4.33422 2.10983,-8.43279 1.919153,-12.7836 -1.753938,4.19216 -2.428485,8.95752 -4.36751,13.11283 -0.740457,3.04991 -7.185963,7.58269 -4.69067,1.50474 1.81019,-5.37184 3.675939,-10.79844 4.99545,-16.29695 0.718363,-4.98914 1.688324,-10.23183 4.2315,-14.70055 2.428582,-4.51922 2.145428,-9.85206 5.2002,-14.14385 1.716847,-3.43806 3.236333,-6.90309 5.371257,-10.13163 2.649447,-3.79103 6.447018,-6.632952 10.343838,-9.08082 3.28808,-1.407898 7.69,-5.259587 2.58233,-7.772111 -4.01218,-1.370118 -9.5071,-0.478466 -12.799315,-1.12435 4.456675,-2.833524 9.955325,-2.860778 14.915985,-3.844692 -2.54525,-4.667506 -7.42757,-7.073872 -11.763905,-9.731323 3.882305,-2.095802 8.691685,1.19389 12.906855,1.385783 4.79883,-1.249851 10.18607,-2.779395 14.86484,-0.163767 4.63347,2.004709 7.90236,6.212189 9.44129,10.961098 1.25047,3.756418 0.77906,7.857917 1.0097,11.577042 0.37401,3.75868 -0.63527,7.60018 0.13241,11.36763 -0.22183,6.8201 0.481,13.99433 -2.64576,20.33688 -2.03972,4.77528 -6.41839,8.00033 -10.16755,11.37061 -4.113,2.38457 -9.03893,4.03421 -12.16936,7.71756 3.9715,1.98721 8.09091,5.43086 12.76391,4.72323 3.4676,-1.27745 6.15569,-4.11723 9.33404,-5.9954 1.95148,-0.52584 7.60722,-4.55049 6.67968,-3.11078 -1.37957,2.23683 -4.1144,2.37955 -6.0381,3.96893 -2.90565,0.84047 3.75936,2.72412 -0.48089,3.1446 1.34018,-2.28422 -1.65936,-1.81367 -2.3197,-0.67452 -2.69544,0.42602 -5.01847,3.52831 -8.41834,3.09734 4.33067,-0.43251 9.82519,-1.39015 11.67017,3.79535 0.90572,1.47399 0.37891,5.57243 0.87885,1.47414 -0.63706,-2.57163 1.75287,2.02215 0.72521,-1.38817 -2.59742,-0.45424 2.38462,-1.845 -1.15838,-3.06953 -1.87497,-0.0911 4.84365,0.36924 3.67628,-2.26843 2.35433,1.67639 0.93465,-0.46318 0.0509,-0.87433 2.52934,0.13973 3.94732,2.50649 6.02076,3.61979 -2.06462,1.92007 -4.01919,2.62646 -5.58479,4.86195 -2.22576,1.62848 -4.65189,4.05161 -6.54772,6.76652 -1.50849,1.29138 -5.27138,2.26884 -2.31286,-0.13962 -2.05937,0.88225 -3.95046,2.74895 -5.2569,4.66242 -0.25915,1.8213 -3.35279,5.70887 -4.22492,4.21466 1.57326,-2.25843 -3.04474,2.65699 -1.75063,-0.87361 0.97234,-1.84972 -2.59962,-3.69245 -0.59411,-1.84592 -3.35871,-1.64118 -5.69845,-6.71704 -10.45728,-3.95514 -2.15496,1.64769 -4.41295,4.91399 -4.53315,5.38366 -3.82588,0.95929 2.97478,2.12275 -1.53456,1.74882 -2.18693,0.64708 1.2934,1.95259 -1.93308,1.40349 -1.10362,2.15164 -4.284079,2.48002 -5.27918,5.95546 -3.228766,0.78176 1.338625,1.74816 -2.561269,1.79431 1.717253,2.36486 -0.271305,0.47997 -1.721601,2.46606 -1.008673,1.94571 -1.911957,2.44712 -3.25448,4.71956 -0.24232,0.13338 -0.508111,0.0134 -0.757705,0.0575 z m -3.86738,-1.65218 c 3.938614,-3.01619 4.412639,-8.57891 6.321666,-12.89492 0.961983,-3.83113 4.553374,-10.16274 5.203913,-11.86222 -3.986417,5.76608 -5.993537,12.49368 -8.354029,19.01417 0.135466,3.10815 -4.736744,5.41239 -4.898959,5.91838 0.57228,0.16147 1.193185,0.0675 1.727409,-0.17541 z m -8.98591,-0.34547 c 4.971394,-4.68262 7.367927,-11.29252 10.7858,-17.06639 0.951772,-2.01059 4.606366,-7.63583 4.13247,-7.63511 -5.074056,7.37408 -8.260864,15.92547 -13.67794,23.07169 -0.354439,0.49711 -3.031475,3.06561 -1.24033,1.62981 z m -3.71409,-0.38517 c 4.146368,-3.44464 5.967048,-8.87287 8.286778,-13.58755 2.194815,-6.32535 4.614461,-12.986 5.942192,-19.32553 -3.481148,10.36603 -6.202046,21.28031 -12.44433,30.42173 -0.44081,1.51923 -5.704136,3.03508 -1.78464,2.49135 z m 11.04052,-0.4615 c 0.286415,-4.2903 -0.551131,-1.18394 0,0 z m 0.70277,-0.57774 c -0.163223,-3.25988 -0.246618,3.42355 0,0 z m 0.56599,0.45074 c 0.156259,-4.83705 -0.371719,-0.92054 0,0 z m -2.07983,-0.39315 c -0.07058,-2.12393 -0.528956,1.63197 0,0 z m -4.00645,0.28732 c -0.107508,-0.34532 -0.494912,0.40458 0,0 z m 3.42771,-0.40217 c -0.298119,-0.98479 -0.167445,1.4461 0,0 z m -2.83553,-0.0586 c 2.991198,-2.93886 4.923867,-6.82861 6.468409,-10.6678 -2.413277,3.58069 -3.595402,7.94878 -6.908381,10.93174 l 0.440032,-0.26392 z m -7.08112,-0.80926 c 1.771422,-4.00373 -0.572138,-0.26941 -0.34069,0.80345 z m 8.73261,0.80433 c 0.1005,-0.47326 -0.370348,0.47382 0,0 z m -8.20788,-0.448 c 1.406174,-2.94565 0.998483,-3.29888 -0.117106,-0.14456 -0.251961,0.0839 -0.159808,1.293 0.117106,0.14456 z m 12.78437,0.2575 c 0.266966,-3.37026 -0.483292,-0.52582 2e-5,0 z m -4.19303,-0.254 c 1.980955,-2.33773 4.946331,-8.37003 4.61186,-8.96808 -1.38157,2.88612 -3.483991,7.12196 -4.61186,8.96808 z m -10.1747,-0.127 c 4.040718,-6.85336 7.593006,-13.97675 11.21663,-21.06083 2.515236,-5.9559 -2.416146,3.75988 -3.38741,5.50333 -2.568823,5.14231 -5.356684,10.17052 -8.205639,15.14362 -0.285128,0.26241 0.171518,1.09927 0.376419,0.41388 z m 5.58375,-0.23283 c 0.278293,-1.52938 -0.693083,1.56737 0,0 z m 6.23819,0.10583 c -0.292925,-0.40547 -0.12784,0.79121 0,0 z m -5.39284,-0.35983 c -0.06015,-0.58929 -0.193071,0.58957 0,0 z m 8.5664,-0.84667 c 0.25362,-4.00011 -0.596739,2.29721 6e-5,0 z m -8.29429,-0.11449 c 0.376693,-2.03548 -0.733594,1.90546 3e-5,0 z m -3.61474,-0.37234 c 1.455087,-3.46706 0.09509,-2.13215 -0.33203,0.65613 l 0.33208,-0.65617 z m 4.35829,0.059 c 0.610916,-2.95478 -0.674573,1.5376 0,0 z m 8.2451,0.10787 c 0.336453,-3.55351 -0.399946,-2.50811 0,0 z m 0.50528,-0.71722 c 0.422325,-2.35254 -0.05445,-4.062 -0.178075,-0.55682 l 0.07317,0.74732 z m -8.06528,-0.29634 c 0.937113,-2.72347 -0.184881,-1.48133 -0.20277,0.40217 z m -3.53762,-1.09015 c 1.626097,-5.24624 -1.383942,2.7205 0,0 z m 12.14638,-0.0105 c 0.475716,-4.20434 -0.384695,-2.4698 0,0 z m -7.59904,-0.889 c 1.45109,-3.75089 -0.887287,0.3514 0,0 z m 8.10833,-0.0423 c 0.246868,-2.66371 -0.434215,-1.77335 0,0 z m -7.16943,-1.08131 c 0.938901,-1.50221 1.350245,-5.02084 -0.01008,-1.18349 -0.09749,0.38052 -0.553614,2.87188 0.01008,1.18349 z m -4.23879,-0.40035 c 1.293421,-3.01491 0.311115,-3.25414 -0.2355,-0.11355 -0.491014,0.19391 0.214599,1.19433 0.2355,0.11355 z m 12.10408,-0.91017 c -0.06015,-0.58929 -0.193071,0.58957 0,0 z m 0.43466,-1.22767 c -0.07833,-2.33484 -0.234149,2.70586 0,0 z m -6.85184,-0.0895 c 0.982732,-3.38218 -0.222191,-2.33412 -0.1116,0.19736 z m -3.87112,-1.60383 c 0.799264,-3.58697 -1.125762,2.9649 0,0 z m 4.79415,-0.30899 c 1.273049,-2.16386 0.7322,-3.99297 -0.15571,-0.46828 -1.256348,0.81272 0.500112,1.31921 0.15571,0.46828 z m -3.77491,-1.19384 c 0.980192,-3.38216 -0.03801,-2.34755 -0.293983,0.44941 l 0.07498,-0.0321 0.219026,-0.4173 z m 4.89915,-1.01845 c 0.628535,-2.05189 -0.506732,-0.36912 2e-5,3e-5 z m 37.425265,-0.25155 c 2.83711,-3.33601 -4.17557,-7.16158 -0.01,-2.87941 0.7423,0.59726 -0.385,3.19673 0.01,2.87941 z m 2.36329,-0.15893 c 4.49324,-1.40186 -2.62127,-9.37352 0.65508,-4.07919 1.72922,1.27989 -1.90933,5.1191 -0.65508,4.07919 z m -39.100105,-0.70971 c 0.834681,-2.68994 -0.412038,-1.76771 -0.1362,0.29714 l 0.13611,-0.29714 z m 0.9715,-1.74062 c 1.037297,-3.11169 -0.642347,-1.08676 0,0 z m 38.499055,-0.92685 c -1.35268,-3.09969 -0.98649,-0.45192 0,0 z m -37.589475,-0.40995 c 0.478707,-2.83672 -0.92448,0.25808 0,0 z m 32.373785,0.10796 c 2.50094,-1.87892 -0.7606,-5.65425 -1.08618,-1.32657 2.92773,-1.41428 -0.71443,0.14912 1.08618,1.32657 z m -28.227265,-0.67622 c 0.750911,-1.30521 -0.820816,1.17161 10e-6,0 z m -0.0487,-0.42052 c 1.706188,-3.01693 -0.426217,1.48205 1.28188,-1.73266 1.527399,-2.35447 2.619233,-4.5961 0.09181,-1.00445 -0.227621,0.27813 -3.216983,4.71818 -1.373686,2.73711 z m 1.67433,-0.0592 c 1.498966,-1.80702 2.279354,-4.11241 0.26314,-0.9115 -0.281054,0.0349 -1.143269,2.4405 -0.26314,0.9115 z m -0.87488,0.14683 c 0.512803,-1.01754 -0.704777,0.94824 0,0 z m 0.39894,-0.0885 c 0.721158,-1.45577 -0.894663,1.30383 0,0 z m 29.750335,-0.34427 c -1.43308,-2.70961 -0.38165,0.39354 0,0 z m -38.712655,-0.0541 c 0.995918,-2.79723 3.051731,-9.10355 2.943924,-9.73438 -0.922936,2.96425 -2.618495,7.5051 -2.943924,9.73438 z m 39.519555,-0.30203 c 2.49465,-2.95677 -2.56514,-2.90399 -0.73127,-1.08103 0.4441,-0.90117 0.045,2.85475 0.73127,1.08103 z m -35.257245,0.30203 c 0.884239,-2.55537 -0.829984,-0.2698 0,5e-5 z m 4.93822,-0.81986 c -0.83066,1.38811 -0.04005,0.37683 0,0 z m 33.965975,0.33706 c -0.65194,-2.60282 -3.3157,-3.20065 -0.33061,-0.32099 l 0.17519,0.5165 z m -17.68643,-0.36387 c 2.38528,-2.33342 -2.46528,0.11384 0,1e-5 z m 18.06185,-0.41611 c 0.84185,-2.87838 -5.12402,-4.00499 -1.15267,-1.69182 0.81619,-0.0916 0.92597,3.84875 1.15267,1.69182 z m -33.919015,0.47522 c -0.119275,-0.32342 -0.155996,0.42866 0,0 z m 30.847915,-0.54594 c 1.73856,-0.80671 -1.3728,0.37756 0,0 z m -30.932585,-0.0467 c -0.119282,-0.32342 -0.155987,0.42866 0,0 z m 24.182355,-0.0331 c -0.97855,-1.18038 -0.32878,0.36998 0,0 z m 1.07753,-0.33856 c 2.08541,-1.64566 -3.01213,-1.88226 -0.64472,0.22838 l 0.21933,0.12723 0.42597,-0.35561 z m -29.626995,-0.28274 c -0.02357,-1.82439 -0.502863,1.9718 0,0 z m 3.57845,-0.29367 c 1.36653,-1.68276 5.148786,-7.79251 1.6877,-2.71221 -0.251684,0.0256 -3.639828,5.3695 -1.6877,2.71221 z m 1.60302,0.3175 c -0.208892,-0.30174 -0.102292,0.30969 0,0 z m 34.586335,-0.28471 c 1.22268,-2.65019 -3.76637,-2.01928 -3.13084,-3.57202 -1.34058,-2.33311 5.16061,3.22044 2.52011,-0.80862 -2.78481,-2.47629 3.1725,0.45254 2.35419,2.56615 2.51571,-2.52614 -1.55947,-8.88953 -5.36648,-7.21723 -1.74536,0.69329 -8.35542,2.79375 -6.89811,4.22613 4.4079,-1.59748 7.07591,1.21347 9.59281,4.22376 0.14723,0.56972 0.25981,1.38037 0.92832,0.58183 z m -16.71611,0.1124 c 0.57184,-0.60053 -1.21614,0.36444 0,0 z m 3.29644,0.009 c -1.43951,-1.17878 -1.30502,-0.1073 0,0 z m 1.09173,-0.33183 c 0.97767,-2.40636 -4.16503,-1.65104 -0.5406,0.051 l 0.22015,0.18297 0.32045,-0.23397 z m 4.92076,-0.18469 c 1.66703,-3.69762 -3.41555,-1.71087 0,0 z m -10.9799,0.17808 c -1.01315,-2.48988 -2.51266,0.39606 0,0 z m 10.05355,-0.0597 c -0.67206,-1.30012 0.16583,0.86826 0,0 z m 12.97458,-0.1262 c 2.44263,-0.53471 4.6494,-6.34801 2.32551,-6.29802 1.3507,2.25977 -1.37685,5.65016 -2.32551,6.29802 z m -21.39652,-0.16224 c 2.28379,-4.2862 -2.33146,0.61285 0,0 z m -24.420365,-0.1366 c 2.478974,-3.28762 1.266693,-3.01941 0,0 z m 42.608365,-0.33836 c -0.44097,-1.01573 -0.56566,0.59863 0,0 z m -6.41622,-0.0943 c 2.56083,-3.99178 -3.02809,-3.48387 0,0 z m -36.253575,-0.61494 c 1.598419,-3.44733 -1.711084,2.35848 0,0 z m 1.70145,-0.47214 c 0.948192,-2.42419 -1.82093,3.02683 0,0 z m 30.219155,0.98792 c 0.8513,-2.45828 -2.3287,-1.42222 0,0 z m -0.67401,-0.09 c -0.70013,-1.93918 -4.2716,-1.87402 -0.8474,-0.5185 l 0.78887,0.6 0.0585,-0.0815 z m -31.767365,-0.61202 c 0.802985,-1.66921 -1.175994,1.42975 0,0 z m 24.022055,-0.1097 c 0.26582,-0.59053 -0.6153,0.46642 0,0 z M 93.502405,164.2122 c 0.746464,-1.55671 -2.233295,3.27898 0,0 z m 16.276795,1.21832 c 1.15432,-2.26705 -3.10069,-0.65494 0,0 z m 4.9543,-0.68645 c 2.83399,-2.84506 -4.89247,-0.36606 -0.62339,0.2757 0.19771,-0.0985 0.82097,0.21158 0.62339,-0.2757 z m 6.22295,-0.3376 c 0.85894,-3.65195 -3.38818,0.53189 0,0 z m 12.17021,0.25813 c 0.72464,-2.38207 -1.90471,0.0617 0,0 z m -36.135115,-0.23303 c -0.398707,-0.0631 -0.0032,0.59914 0,0 z m 14.309955,0.0794 c 4.32647,-1.57383 -5.9816,-5.729 -1.36844,-0.66272 0.39003,0.15519 0.79327,1.09835 1.36844,0.66272 z m 7.40141,-0.10467 c -0.0762,-2.25938 -4.18412,0.42886 -0.27015,-0.11858 l 0.12118,0.16996 0.14897,-0.0514 z m 12.82161,-0.21435 c 0.84479,-3.24295 -1.01851,-3.73296 -0.11097,-0.14348 -0.175,0.15405 -0.14089,0.53943 0.11097,0.14348 z m 3.26277,-0.91034 c -0.58537,-4.56207 -0.55453,1.90318 0,0 z m -40.511495,-0.22092 c 0.61071,-0.83999 -0.19615,0.0494 -0.32969,0.37395 z m 36.849855,-0.26189 c -1.00963,-3.55882 -0.16815,1.62785 0,0 z m -53.081805,-0.18261 c 4.828225,-4.22266 5.073477,-11.14548 7.30301,-16.74816 -0.766009,0.99834 -0.883036,-0.30508 -0.901653,1.50795 -0.87893,-3.2395 0.245029,3.77626 -1.056567,0.0425 0.35234,1.52312 0.354876,3.19608 -0.33007,1.68541 0.291712,1.75846 0.236919,2.53256 -0.36974,0.36775 0.07468,1.3718 0.260522,4.38246 -0.5257,1.10067 0.522115,3.72392 -0.107412,1.04375 -0.18727,2.32833 0.429084,3.35461 -0.929854,-1.29701 -0.27046,2.34558 -0.242319,1.70985 -0.972627,-2.02556 -0.585995,1.57079 -0.169057,0.5994 -0.615246,-1.86225 -0.395065,1.25204 -0.757636,0.92108 -0.633758,-2.09334 -0.86713,1.58372 -0.05885,-1.77923 -2.579935,4.5796 -1.28452,0.0212 1.287791,-4.38004 3.012277,-8.81132 3.855709,-13.21948 -1.752434,5.45472 -3.539323,10.97439 -5.162809,16.43652 l 0.280926,0.0994 0.497654,-0.37431 z m 36.898325,0.0181 c 4.18358,-0.36302 6.30951,-7.59514 1.5811,-9.23042 -3.20622,-2.85386 -9.35653,-4.35955 -11.39834,0.0474 2.49724,3.41279 5.01657,9.12886 9.81724,9.183 z m 21.33361,-1.62536 c 1.68027,-2.17199 -2.97431,-5.91205 -0.33715,-2.47406 0.75226,-0.20604 -0.21354,4.25778 0.33715,2.47406 z m -39.679055,0.12228 c 1.182036,-1.49632 -0.842333,0.43073 0,0 z m 33.023395,-0.10256 c -0.22724,-0.70968 -0.40469,0.67265 0,0 z m 4.1853,-0.006 c 2.55705,-2.16879 -2.20468,-4.40325 -0.6698,-0.3553 -0.0317,0.31017 0.44509,0.65861 0.6698,0.3553 z m -3.30575,-0.17148 c 2.73864,-0.54995 -1.04101,-4.92084 -0.90072,-0.64609 1.57996,-0.72734 -0.49809,1.31328 0.90072,0.64609 z m -22.17889,-0.2329 c 1.39635,-2.14178 -4.86703,-5.16466 -1.37971,-1.23717 0.52095,0.20188 0.56507,1.75564 1.37971,1.23717 z m 21.05675,0.0297 c -0.41953,-2.43418 -1.19471,-0.59702 0,3e-5 z m 3.21439,-0.35399 c 0.5956,-3.31916 -0.21973,-2.58679 -0.0276,0.26882 l 0.0272,-0.26882 z m 2.59873,-0.0655 c 1.33043,-0.59333 -1.15504,0.37096 0,0 z m -15.27905,-0.53359 c 3.17622,-1.53085 -1.3242,-2.00805 -0.91172,0.33802 l 0.22435,0.0998 z m 20.6373,-0.31204 c 0.7992,-3.89987 -2.64391,0.24163 0,0 z m -11.00038,-0.68155 c 0.45279,-1.29265 -0.8704,1.57161 0,0 z m -0.50863,-0.14058 c 2.51429,-1.63894 -2.50855,-2.68177 -0.41658,-0.60617 -0.45547,0.0817 0.20843,1.45505 0.41658,0.60617 z m 6.21414,-0.0116 c -0.65491,-0.51181 0.20678,0.80945 0,0 z m -12.51493,-0.2031 c 1.97814,-1.01777 -0.6212,-3.11031 0.15963,-0.54015 -1.25461,-0.33772 -1.6155,0.79121 -0.15963,0.54015 z m 2.44774,-0.0666 c -1.36255,-1.1709 -1.62305,-0.15775 0,0 z m 7.35984,-0.40305 c 0.51643,-4.78947 -2.71353,1.2903 0,0 z m -5.66903,-0.21355 c 0.59363,-2.43056 -5.29288,-0.64984 -0.90202,0.14837 0.37097,-0.38912 0.72659,0.74801 0.90202,-0.14837 z m -5.92342,-0.0214 c 1.86449,-1.42776 -1.25271,-1.18481 -1.14773,-1.09891 -0.10057,0.56009 0.38535,1.61397 1.14773,1.09891 z m 6.54923,-0.50777 c -0.0733,-0.44721 -0.20093,0.44424 0,0 z m 3.6112,-0.10584 c 0.25525,-1.57717 -0.38266,0.79623 0,0 z m 12.33217,0.1183 c 1.06671,-2.62317 -2.15032,-0.3537 0,0 z m -9.5067,-0.16085 c 2.34006,-2.3295 -2.97976,-3.83225 -0.55309,-0.28873 -0.14054,0.3092 0.39748,0.74326 0.55309,0.28873 z m -28.34978,-0.27109 c -0.47159,-2.25183 -3.24645,-6.3258 -4.90176,-5.16581 -1.172759,0.88142 3.83265,5.44824 4.90176,5.16581 z m 25.04038,-0.31767 c 0.72107,-1.92771 -3.48648,-1.18533 -0.55475,0.34211 l 0.19086,0.0907 0.36389,-0.43285 z m 11.08598,-0.0248 c -0.37626,-2.14536 -1.724,0.68293 0,0 z m -48.225815,0.0847 c 2.629247,-3.05864 -0.04692,-1.78775 0,0 z m 33.645165,-0.22692 c 0.26667,-2.00875 -5.37764,0.44144 -0.52889,0.0527 l 0.27938,-0.0393 z m -4.03377,-0.73647 c 1.89589,-3.53988 -8.04679,-2.79894 -2.65679,0.003 -3.66855,-5.13533 1.30623,2.34422 2.65679,-0.003 z m 16.63786,0.46386 c 1.43728,-3.36609 -3.30914,0.80361 0,0 z m -7.22535,-0.58426 c -0.89007,-1.16471 0.49898,1.58758 0,0 z m -4.23101,0.0462 c -0.56584,0.14971 -0.12608,0.68141 0,0 z m -4.36194,-0.12657 c 0.82203,-2.82345 -0.84267,1.52372 0,0 z m 1.04979,-0.14246 c 2.14736,0.03 5.50143,-0.95243 1.28009,-0.87612 -0.624,-0.43272 -2.60699,0.77778 -1.28009,0.87612 z m 6.83347,-0.0269 c 1.33623,-2.61772 -4.87983,-0.85246 -0.27657,0.0876 z m 11.70444,-0.74083 c -1.48777,-4.10384 -1.89241,2.40582 0,0 z M 93.173395,153.9952 c 3.861814,-2.05929 -0.195295,-1.41808 0,0 z m 25.626955,-1.26504 c -0.88475,-2.1359 -5.44605,-2.36353 -1.27236,-0.0191 0.37677,0.42019 0.95889,0.82094 1.27236,0.0191 z m -1.55699,0.0637 c -3.46309,-2.43419 0.59867,1.38794 0,0 z m -18.028255,0.2131 c -2.870266,-1.51135 -2.54654,0.0925 0,0 z m -3.23824,-1.09314 c -2.051535,-1.48283 -3.498049,0.33829 -4e-5,-10e-5 z m 3.556,-0.0776 c -1.167464,-2.57777 -2.848522,-2.45933 0,0 z m -1.97767,-0.3471 c -0.478668,-4.29526 -1.02129,0.53918 0,0 z m 17.133175,-0.66329 c -0.87954,-2.96937 -3.55038,-1.26028 -0.66562,0.33962 l 0.25655,-0.0185 0.40907,-0.32119 z m -18.419715,0.0637 c -2.362375,-3.05666 -1.187833,0.059 0,0 z m 4.425105,0.0529 c -0.695189,-1.75287 0.60959,-7.57696 -0.714805,-2.614 -0.206352,0.24794 0.319215,3.2675 0.714805,2.614 z M 99.398925,150.479 c -1.00518,-2.10729 -0.856126,-5.13293 -1.19997,-5.68544 -0.782457,1.39359 0.08494,6.19534 1.19997,5.68544 z m 3.204065,-0.0889 c -0.14038,-3.49523 -1.18865,1.16579 0,0 z m -0.94585,-0.43187 c 0.929,-3.14819 -0.91759,-4.4972 0,0 z m -0.56651,-0.44846 c 0.12398,-3.11399 -0.71006,-0.15415 3e-5,-2e-5 z m -5.061225,-0.41545 c -1.602682,-3.59036 -0.502606,0.44846 0,0 z m 13.237135,-0.12536 c 0.196,-0.83343 -0.50809,0.61099 0,0 z m 1.19119,-0.0741 c 1.95888,-2.72441 1.24155,-3.25602 -0.29074,-0.45632 -0.26084,0.003 0.22794,1.07407 0.29074,0.45632 z m 1.6595,-0.58767 c 2.01079,-3.51383 -1.97116,0.99192 0,0 z m -15.301665,-0.25962 c 0.06055,-0.90818 0.719565,1.7412 0.35584,-1.35405 -0.302322,-1.37212 -1.054034,3.0259 -0.35584,1.35405 z m 0.0644,-0.83399 c -0.102111,-0.58154 0.244878,0.21631 0,0 z m 2.71566,0.96154 c 0.788885,-3.60645 -1.378689,-1.59391 -0.07583,0.4062 l 0.0759,-0.4062 z m 3.227535,-0.64548 c 1.11971,-2.04311 1.64507,-5.56338 0.21104,-1.38395 -0.5665,0.008 -0.92976,2.67346 -0.21104,1.38395 z m 5.05782,0.17162 c 2.93956,-2.26331 -1.64947,0.70561 0,0 z M 94.283515,147.2452 c 1.293663,-1.98169 0.871852,-4.79075 0,0 z m 7.149165,-0.74553 c -0.73024,0.0124 -0.20135,1.29272 0,0 z m 0.96316,0.28352 c 0.86201,-2.62519 1.37009,-5.95775 -0.0126,-1.67667 -0.61123,0.48351 -0.51759,2.21368 0.0126,1.67667 z m 11.47389,-0.16228 c 1.00797,-1.31742 -1.29353,1.04075 0,0 z m -7.03778,-0.72098 c 0.69341,-1.16554 -2.39091,1.95645 0,0 z m 3.74946,0.43906 c 3.19947,-1.86673 1.13866,-2.14614 -0.37628,0.23404 l 0.37628,-0.23412 z m -11.468405,0.10553 c 1.194955,-4.03602 -0.321013,-2.77059 0,0 z m 9.375315,-0.28947 c 3.50767,-2.83247 -1.71716,0.69991 0,0 z m -12.168065,-0.1762 c 1.124232,-2.83402 -0.726182,-0.0727 0,0 z m 7.904665,-0.11489 c 2.8485,-2.50105 0.44644,-4.20031 0,0 z m -6.596165,-0.30844 c 1.418806,-3.07715 -0.08222,-2.7632 -0.3573,-0.11177 l 0.186944,0.37272 0.170316,-0.26095 z m 15.481325,0.0634 c 1.59316,-1.37639 3.66492,-4.0533 0.56843,-1.16852 -0.0201,-0.0639 -2.05207,1.79743 -0.56843,1.16852 z m 0.89159,-1.23251 c 0.77391,-0.51308 -0.50939,0.56504 0,0 z m -13.37011,0.74577 c 1.31842,-2.82381 0.028,-1.46391 -0.0827,-1.48258 0.26465,-2.66157 -0.947103,2.74218 0.0827,1.48258 z m 1.4046,-0.1428 c 1.34767,-2.48927 -0.619,-0.3883 -0.22923,0.4521 z m -0.61086,-0.28054 c 1.84047,-1.55816 1.87642,-8.45123 0.90152,-2.87999 -0.0753,0.46109 -2.443798,5.48916 -0.90152,2.87999 z m 10.14426,-0.22631 c 1.72223,-1.87557 -2.30022,1.79155 0,0 z m -3.32702,0.013 c 3.19921,-2.6153 -2.30249,1.05447 0,0 z m 1.91411,-0.22414 c 2.83426,-2.68976 -2.18422,1.03799 0,0 z m -26.625795,0.1199 c 5.817467,-3.7896 8.627957,-10.57545 11.74336,-16.51502 0.508074,-1.54343 2.506755,-5.27221 0.44944,-3.46449 -0.481943,-0.63048 0.219149,2.62674 -0.72041,0.25218 0.967739,3.86413 -1.538482,-0.86126 -0.257049,2.72399 -0.761583,-0.15341 -1.277444,-2.54914 -0.604567,0.69295 -0.425021,0.81869 -1.213834,-1.9195 -0.546734,1.51591 -1.549221,-3.49081 0.176004,3.77423 -1.40429,0.0905 0.27984,0.93224 0.132676,4.50395 -0.6744,1.85756 0.07209,1.01877 -0.06775,3.868 -0.74407,1.59786 -0.01723,0.8508 -0.267884,3.56497 -0.89397,1.43807 0.04895,2.60807 -1.021103,1.40482 -1.32144,3.06534 -0.353698,0.0607 -0.89899,2.1709 -1.31301,1.53068 -0.88338,1.34481 -1.368432,2.42177 -3.01995,3.30953 0.11849,-0.52155 -3.478391,1.98998 -0.69291,1.90491 z m 32.923485,-0.0349 c 2.02896,-1.05839 -1.62823,-0.11826 0,0 z m -30.087155,-0.26175 c 5.03737,-2.92429 7.828275,-8.5541 10.376588,-13.59785 0.901534,-2.0131 3.418337,-7.07265 2.678692,-7.5897 -1.427091,1.36225 -1.084909,1.11566 -1.52337,2.37726 -0.673367,-2.49546 -0.0151,4.15795 -0.905872,0.16283 0.154102,1.1551 -0.04696,4.15258 -0.515738,1.20183 0.09917,3.09039 -0.153704,2.16741 -0.600415,1.4939 0.185992,4.04795 -0.63326,0.45917 -0.691465,2.38344 -0.104938,3.30542 -0.940126,-1.32156 -0.833792,2.52565 -0.545024,-1.08667 -0.349083,-0.41266 -0.920054,1.50806 -0.214747,-2.05022 -0.64754,2.46175 -0.965944,0.097 -0.403554,3.63228 -0.588632,-0.46405 -1.2443,3.32063 -0.536924,-0.80355 -1.187628,2.13701 -1.44702,0.91017 -0.285502,1.83535 -2.984281,3.40121 -4.111461,5.36968 l 0.704081,-0.16297 z m 21.388295,0.0633 c 2.49299,-1.72881 -1.0291,0.0816 -1e-5,-1e-5 z m -8.479185,-0.79441 c 0.777275,-3.2414 -1.018549,1.75756 0,0 z m 12.831485,0.15695 c 2.20667,-1.61504 0.26179,-0.97466 -0.4972,0.27808 z m -7.95106,-0.0818 c 2.85632,-2.95872 -1.30502,-0.0312 0,0 z m 14.61383,0.0637 c 1.90219,-1.37332 -1.54563,0.61339 0,0 z m -18.58492,-0.75346 c 0.39475,-1.89478 4.14017,-4.77548 0.6013,-2.02776 -0.2493,0.16003 -1.715929,4.30506 -0.6013,2.02776 z m 16.75574,0.45383 c 3.01989,-2.45821 0.936,-1.68528 -0.39951,0.2571 z m -18.771625,-1.03508 c 1.0287,-3.82638 -1.346992,3.19045 0,0 z m 12.926755,0.67888 c 1.44502,-0.74198 3.41596,-3.83476 1.74305,-2.05855 -2.09664,0.86936 -0.37433,0.94095 -2.30008,2.26445 l 0.11941,0.0479 0.43757,-0.25386 z m 3.258,-0.31857 c 2.09646,-1.59998 2.26418,-3.12819 0.20519,-0.45475 -0.74692,0.32981 -1.93002,1.43271 -0.20519,0.45475 z m 1.26734,0.19399 c 2.7482,-2.48201 -1.53526,0.47721 1.16537,-1.93664 2.07096,-1.38303 5.13774,-3.96238 1.65815,-0.41581 -3.49676,3.52536 1.34576,0.17999 1.85073,-0.97363 -5.75627,3.86385 7.50006,-5.84026 1.62442,-0.54674 -1.41351,2.9407 2.90617,-3.38301 4.68147,-4.88599 3.08071,-4.72967 -2.9218,5.58465 0.44248,0.61346 2.56073,-4.67968 -1.36746,2.82947 -2.60029,3.98427 -1.41838,2.78723 3.48064,-4.19579 2.1204,-0.72563 1.46982,-1.77188 5.09085,-5.36899 4.57873,-6.73674 -0.82493,3.1001 -3.13083,4.35324 -4.70617,5.35235 -1.21341,-0.005 2.94647,-2.48269 2.21183,-3.52354 1.01293,-2.08635 3.4844,-6.50932 3.06177,-2.61425 0.42966,0.52158 0.64389,-1.03198 0.18319,0.97034 0.25442,1.4418 2.8446,-7.92858 2.13264,-4.35572 1.58937,-1.66601 -0.11396,-2.4301 0.9818,-3.36447 0.29597,0.77336 1.31309,-4.51511 0.84536,-0.53495 0.79532,2.80506 0.0466,-4.59647 0.88103,-2.44408 1.05435,-2.03654 -0.29045,-6.42603 0.60202,-5.99393 -0.67875,-1.49266 -1.96459,-5.07906 -0.37401,-2.26875 1.07399,-2.23552 -3.8329,-8.54284 -0.91344,-8.15117 2.80553,3.91408 -0.51464,-5.711721 -2.96878,-5.814048 -2.23746,-0.337172 4.70004,4.099208 1.68498,3.807238 0.76251,2.21635 -0.6907,-0.68887 -0.68098,1.21203 -1.50357,-0.9611 -1.66359,-5.776924 -5.05357,-7.300581 -1.17316,-1.521999 -5.60709,-2.911225 -1.54673,-0.927194 2.58106,2.48845 -0.15274,2.070394 2.19294,4.108641 -1.44696,-0.69248 -5.10558,-4.88011 -2.13677,-1.352328 0.7492,1.539421 4.42318,2.526982 3.99616,4.069122 -1.11351,-1.0439 0.83082,1.57844 -0.83777,-0.28461 -1.30301,-0.55592 4.83372,4.79038 2.7526,3.82093 -0.72677,-1.62031 -0.209,-0.15686 -1.83027,-0.34144 1.52016,0.99276 3.86551,6.49707 1.71691,3.55488 -1.21995,0.92325 -1.1646,3.46289 -2.01691,-0.42492 1.50908,-2.28145 -1.26463,-4.21414 -0.40034,-1.55705 -1.79404,-2.87822 0.14965,-5.00569 -2.38546,-5.39466 -0.35573,-2.848499 -1.03336,-2.285118 -1.62825,-2.831785 0.74757,2.129785 2.06538,5.827685 -0.66486,2.083755 -0.70922,-2.340118 -4.65671,-3.455363 -1.22127,-1.057072 1.28916,1.675352 3.83049,5.168712 0.68515,1.515012 -1.42868,0.38877 -1.50371,-0.66625 -2.27941,0.9407 -0.0434,-1.0433 0.20706,-4.280784 -0.72452,-3.676921 -1.21746,0.617702 -1.85934,-4.07927 0.60005,-1.2886 2.24539,2.782593 1.21863,0.292199 -0.0206,-0.475621 2.08873,0.960692 3.86038,3.672562 1.05255,0.122045 -2.70519,-1.22983 -3.1086,-2.231566 -0.17685,-0.588169 -2.38733,-3.622163 1.82206,1.378593 -0.4062,-1.559302 -1.83774,-1.979008 2.89319,0.192188 2.52325,1.582944 3.24021,2.029132 -1.77989,-3.106533 -3.28915,-3.354911 -2.89079,-3.482345 1.93119,4.658208 -0.79405,0.226173 -2.79274,-2.988138 3.44728,5.163505 -0.51446,0.941446 -2.40427,-1.670101 -2.00639,-1.708537 -0.64643,-0.910881 -1.49187,-0.832085 -4.33704,-5.513165 -3.6615,-3.207469 -2.31541,-1.735225 0.66343,1.625585 0.9233,1.146786 2.4992,1.87727 -3.80503,-1.365558 0.20241,1.0305 3.40642,1.555194 -1.35168,0.709643 2.36348,2.182025 1.59262,1.86636 -0.88484,1.703613 0.0722,2.34668 -0.81525,-0.540549 -0.33652,1.983012 -1.68506,-1.36416 0.56682,-2.23028 -1.64608,-1.973743 -1.96431,-3.235066 0.97292,1.51342 -2.67471,-0.762882 -0.84157,1.934592 0.74572,1.107626 1.87677,3.798207 0.18434,1.146571 2.0909,4.137463 0.0458,0.785172 -1.12686,-1.101577 -1.27843,0.136716 1.86375,1.875909 -0.002,2.213061 -0.15867,1.641133 -0.90951,-1.578111 -1.56835,0.90837 -0.34714,0.289876 -1.71044,5.325624 -1.401,5.324594 0.27145,-3.928329 2.29018,-1.90855 0.94933,-0.49597 0.91024,0.85236 -3.86111,6.37272 -2.57735,5.59556 -0.27401,2.63709 0.17577,0.62346 -1.445,3.78254 -0.18476,2.68571 -1.75362,2.70734 -3.09967,4.28669 1.53092,-1.60656 2.43887,-3.81192 0.33101,-0.81804 -1.83979,1.37067 -0.51492,4.22155 0.0211,0.9222 2.08354,-3.25594 2.08184,0.16893 1.83223,1.5795 0.2887,-2.19028 0.58522,-4.43695 0.44499,-0.78383 0.0367,1.51212 -1.95185,4.40291 -1.56266,1.65714 -0.87005,2.98619 0.16106,-2.67759 -0.70482,1.22219 0.9117,2.63171 -4.42048,7.88373 -1.19397,2.794 1.35128,-1.25648 0.24637,-5.2452 0.32251,-1.24784 -1.82188,4.03 -0.33277,-1.03796 -1.73485,0.50703 -0.41869,-0.22769 -1.11088,6.45384 -2.0428,7.89951 1.06262,-1.87605 3.90792,-7.56071 5.75366,-4.9833 0.28223,2.79154 -1.87643,7.6288 -0.97106,3.25929 -1.54037,3.6675 0.82145,-2.98861 -0.80174,0.23802 -0.0455,-2.02061 -1.34477,0.0134 -0.86223,2.60471 -0.50233,1.42542 -1.17661,-0.0687 -1.40312,2.45256 0.23895,-2.17516 0.19787,-2.91518 -0.36479,-0.24934 -0.0526,-1.50167 -2.50392,6.15286 -0.12644,1.30296 0.72025,0.85178 -2.84262,3.22957 -2.86541,2.19148 -0.561312,5.1946 2.11855,-2.23356 5.16301,-1.8404 -1.96642,0.14289 1.8871,-1.55897 0.50427,-1.31397 -0.0231,-0.568 -1.75497,1.87794 0.0466,-0.73494 0.64536,-1.06216 4.93668,-3.92918 1.72734,-2.10719 -0.27299,-2.1125 3.13642,-3.3916 3.10309,-5.1873 -2.21964,1.69073 4.04653,-5.31524 3.02573,-1.54761 0.22181,-2.19739 -1.76027,4.51065 -1.38658,3.77286 1.5575,-2.30824 1.32895,-2.61689 0.66054,-0.31318 1.72923,-1.40077 1.07713,-7.42266 1.26107,-2.19902 -0.22415,4.61459 0.67757,-6.15736 0.71533,-0.783 0.40028,-2.77832 0.25007,1.12938 1.14191,-0.13808 -0.99636,2.12905 -1.98806,4.35718 0.0814,1.05609 -1.32174,2.67423 -1.83003,3.79865 0.50804,0.83782 -1.70886,0.31833 2.6361,-9.56008 0.87067,-3.63519 -1.64951,5.01529 0.24174,-0.55561 1.32113,-2.10675 -1.60836,4.08361 -0.41789,0.30319 1.36282,-0.67924 -2.89572,2.55002 -2.13259,8.20452 -6.518,9.00656 2.89892,-3.24547 -4.16249,4.19838 -0.13751,-0.53837 1.59884,-1.1991 1.85157,-4.694 0.4912,-1.00505 -0.81352,1.41865 0.50638,-1.87566 -1.08562,0.80138 -1.04281,2.26223 -2.74124,4.89574 -0.77234,0.93946 0.36941,-1.81276 -3.60134,6.80237 -1.08679,1.12272 0.52562,-1.72816 1.3303,-5.70184 0.13302,-3.77418 -0.33425,-2.14404 0.58591,4.47995 -1.27314,5.53563 -2.46514,4.97759 1.38812,-4.18438 -0.91592,-0.0955 1.53879,-3.87894 -0.29709,0.66577 -0.55282,0.2648 0.0832,2.17287 -2.77197,3.68033 -2.97124,6.13287 1.52696,-2.37478 1.26413,-2.09633 0.90421,-0.85853 0.16148,-1.3582 4.20501,-1.97193 1.27012,-1.68003 4.7476,-3.06812 -2.05947,6.21774 2.4835,2.12047 2.97961,-0.54305 2.62116,-2.02377 1.31478,-1.3542 1.59234,-1.43116 4.11583,-1.44281 3.52216,-2.17359 2.53273,-2.91026 -2.52527,2.13591 0.26425,-0.95445 1.52622,-1.9666 5.74825,-2.68267 5.76217,-5.38854 -0.99078,3.02464 -6.73777,5.64743 -3.11619,0.98059 1.36338,-0.8928 0.23588,-1.40665 0.0141,-0.92396 -0.65379,2.23511 -1.93309,4.53564 -1.29917,0.54326 -0.13377,-2.25333 5.50175,-5.95219 3.74571,-5.87469 -1.98229,4.58926 1.0479,-3.37577 -0.873,0.63075 -1.01824,1.99763 -3.46088,3.76963 -0.76362,0.68717 1.61444,-2.24643 0.85773,-3.43094 -0.30307,-0.31934 -1.73628,0.85077 2.64046,-4.4313 3.10395,-3.94465 -1.90145,0.82271 2.06127,-1.52681 -0.26196,-1.02596 0.7779,-2.69611 1.52973,-5.23215 2.58082,-1.30525 -0.10831,1.81156 0.75806,5.34363 0.31069,1.46806 -0.328,-4.47858 -0.0191,-1.22049 0.34883,0.12166 0.0715,0.1505 0.29947,3.4865 0.38489,0.003 1.02239,-2.8678 1.45062,-8.14349 -0.0121,-2.9636 -0.60625,2.14424 -0.62729,-2.00002 -0.10431,-1.0071 -0.0628,-2.4299 0.35163,-3.2738 0.58441,-2.43984 0.81882,-3.6992 0.17569,-4.74713 -0.33441,-8.10443 -2.76629,-1.37722 1.72719,-4.021826 1.67912,-0.13805 1.43516,4.2313 -1.35259,-2.69414 -0.0835,1.08435 -1.63063,-3.29615 0.31519,1.87062 -1.27651,-1.21354 0.77273,0.7958 2.61757,5.76806 2.13096,3.59834 0.19127,-1.78898 0.76956,3.28856 -0.0601,1.48959 -0.004,1.32023 -1.14511,-3.80273 -0.48275,0.0319 -2.72063,-3.77028 2.94812,5.29626 0.92792,4.37475 -0.2055,-1.02382 -0.52299,-0.84506 -0.5988,1.12122 0.0266,-6.25449 -2.66137,5.92144 -1.78606,2.11963 1.77119,-5.01606 3.50591,2.79316 2.38328,3.26686 -0.22675,-1.93427 -0.42513,0.88748 -0.67376,-1.62949 0.7607,3.95953 -0.11331,5.21134 -1.40711,9.11269 -0.0795,-1.26883 1.35487,-8.04228 0.0758,-2.29369 -0.58253,2.29711 -2.29467,7.54987 0.34492,2.67257 3.73718,-4.28175 -1.27559,6.99567 -1.39522,3.46141 2.50499,-1.24075 3.51312,-6.78305 0.88778,-2.17987 -3.56675,4.04472 0.59264,0.25011 1.44055,-1.58169 -0.56536,2.20202 -4.85752,5.74265 -4.77869,6.23316 1.64797,-2.76108 3.56589,-7.53595 2.42087,-8.17109 0.72537,-1.61605 1.06898,-5.35513 0.13,-1.34867 -1.54643,2.13011 1.35499,-5.04189 1.44224,-4.11321 -0.12819,-1.54963 0.008,-3.32586 -0.61291,-0.26269 -0.19165,-4.83465 -0.99264,5.14922 -1.90663,0.19521 -1.14237,-3.60475 -0.64008,3.05219 -1.3435,-1.51311 0.007,1.27395 2.50139,9.56795 1.37976,3.71682 -0.62145,-3.62425 2.04046,4.6304 -0.94808,5.0205 -3.035,2.43702 1.50956,-0.35795 -1.06215,2.14471 1.40999,-1.04006 -3.30694,8.33328 -1.03507,2.46931 1.45367,-2.16977 -2.68292,2.40271 0.0497,-1.47682 2.46513,-3.48099 -1.39943,0.95365 0.30171,-1.364 -2.00575,-0.39435 -3.80943,8.66231 -1.84071,2.36932 2.38663,-3.7408 -2.40798,5.60466 0.62254,1.0651 1.68385,0.98153 -3.71216,4.82315 -2.59265,5.80355 0.72537,-0.66908 -2.08344,2.26179 0.37495,0.35886 -3.48594,4.30349 5.64854,-5.81115 0.97569,-0.17536 1.54874,-1.37062 3.09088,-4.11013 1.31812,-0.48577 -0.92231,0.83946 -3.27685,3.48127 -3.39923,2.38374 -0.15707,0.34522 -3.42529,3.3985 -1.34848,2.81044 z m 5.13016,-4.24101 c 0.79228,-1.42797 1.97428,-0.18451 0,-3.1e-4 z m 0.0487,-1.11206 c 1.0641,-1.39374 1.42836,-6.63244 0.40687,-3.18005 -1.28509,-0.16516 -4.72719,5.1743 -2.2622,0.96601 2.66519,-0.87441 3.19146,-6.30728 3.5701,-4.56434 0.89077,-2.07963 0.4662,-1.73563 1.9543,-3.79009 -1.10334,4.55215 -0.13602,1.13936 0.60146,-0.12575 0.29779,2.36339 -4.25893,8.09486 -2.82311,7.88546 1.47155,-1.97612 3.58743,-4.34314 0.98791,-0.70675 -0.56505,1.23038 3.91354,-5.22726 1.32208,-0.8886 -1.50944,2.05812 -2.58663,2.4514 -0.006,1.68974 2.75273,-3.76297 0.14141,2.20524 -1.39714,1.10057 -0.93081,-0.24746 -2.04458,1.84054 -2.35436,1.6138 z m 2.35418,-6.34381 c 1.56576,-3.32666 -0.39749,-1.61655 0,0 z m -12.94441,5.5533 c 1.5437,-1.84267 0.57123,-2.01734 0.42478,-2.25897 -1.78009,2.89178 0.66915,-1.36393 -0.4668,-0.82628 1.78274,-1.61856 4.49155,-2.50624 0.4488,-1.00002 -4.62549,5.14058 1.90843,-3.89848 4.33604,-4.31569 3.63642,-1.69758 -2.81956,1.79184 -3.42661,3.39577 -1.23535,1.33232 1.9852,-0.77147 1.97626,-1.90577 2.91677,-3.07965 3.03401,0.46248 2.36271,1.55764 1.01876,-1.56256 0.67626,-5.07733 0.80127,-1.10676 -0.10408,2.23247 -5.69764,5.89096 -1.96846,2.14929 0.41291,-1.02181 -1.09757,0.48216 -0.84715,-0.0895 -0.66998,2.27613 -0.98059,0.70669 -0.34812,-0.25396 -0.75243,0.9748 -3.44089,5.11791 -0.50828,2.26019 -0.47367,0.52861 -3.16674,3.34804 -2.78444,2.39407 z m 4.54902,-3.70187 c 0.52024,-0.87979 -0.84647,0.83101 0,0 z m -1.43434,-1.21874 c 0.36988,-0.95659 -0.89202,0.81809 0,0 z m 5.85039,5.15831 c 1.10592,-2.159 2.18225,-1.84724 0.11119,0.0126 z m 6.1553,-1.92874 c 2.03605,-4.16549 1.94576,-1.52862 0,0 z m -11.9973,-0.47765 c 0.53644,-0.50069 0.6856,0.019 0,0 z m -9.64932,-0.417 c 1.95465,-1.51985 1.83917,-9.33395 2.09236,-3.58928 0.20832,0.33494 -0.74946,2.3079 -2.09236,3.58928 z m 21.48277,-0.6563 c 0.25531,-1.70947 0.52047,-0.15788 0,0 z m -20.30011,-0.0628 c 0.98986,-2.6741 0.96036,-0.39996 0,0 z m 21.42067,-0.75379 c 2.64707,-2.35001 3.1068,-7.14157 1.89877,-6.84523 -3.6355,3.44987 -0.1235,-1.58417 0.0123,-3.222 -0.26563,2.56134 -0.0695,1.99126 0.46606,-0.0282 -0.487,2.65748 0.1884,2.96514 1.02923,-0.13119 -0.56667,3.79805 1.17301,-2.77413 0.0283,-0.72221 -0.5023,0.54234 -0.92126,2.84401 -0.34966,-0.12445 0.92113,-2.63588 2.09442,-5.13329 2.39548,-0.92989 -0.0914,2.14739 -1.24118,-0.36958 -1.18011,2.45389 -0.13369,-5.57221 0.0621,5.12904 -0.95217,3.44812 -1.19749,4.6567 1.08219,-7.24408 -0.39189,-0.86502 -0.13677,2.54377 -0.55245,5.52972 -2.95633,6.96615 z m 0.28995,-1.14613 c 0.87529,-2.14486 2.6154,-5.86623 1.01715,-1.3952 1.86045,-2.34703 -2.23044,3.85625 -1.01715,1.3952 z m 2.42211,0.31806 c -0.72946,-0.47938 2.03158,-7.42806 1.68004,-4.2147 1.4381,-4.13801 -0.42516,2.92865 -0.74713,1.68929 0.2149,0.38453 -1.10962,3.18772 -0.93291,2.52541 z m -0.77258,-0.0923 c 0.0632,-1.89978 1.06165,-2.44816 0,0 z m -20.60425,-1.08409 c 1.33429,-0.75935 -0.17869,0.40134 0,0 z m -0.52687,-0.79269 c 0.51555,-2.52586 1.05933,-4.00294 1.45879,-3.52072 1.02192,-2.20434 2.11761,-8.00251 0.66318,-2.57832 -0.68921,1.16567 -0.16031,-0.5458 -0.80292,0.18658 1.07292,-1.73172 -0.64678,0.46542 -0.20444,-0.79387 -0.11295,-0.13461 -0.76407,-0.47503 -1.05703,-0.17439 -0.13183,-2.49328 1.76783,-2.48435 2.24779,-2.45208 -0.75722,-3.17957 4.76795,-6.10086 3.20018,-1.27808 -0.6093,1.17783 -1.40108,0.86861 -1.24002,-0.37128 -0.4485,1.80824 -0.11713,-0.69975 -0.73395,0.49692 -0.0277,-2.68853 -0.9609,1.59486 -0.51664,3.5301 -1.13567,2.04982 -1.76363,5.64271 -3.01494,6.95514 z m 1.15304,-8.53843 c 1.51846,-1.62258 -1.98549,1.64527 -10e-6,0 z m 3.98393,-2.4844 c -0.19768,-0.29091 -0.24396,0.16125 0,0 z m 20.23761,10.36474 c 0.95461,-2.30919 0.10046,1.15802 0,0 z m -0.5411,-0.19404 c -0.90637,-2.02499 1.85021,-5.55561 -0.38393,-2.64037 1.13955,-3.786 1.65116,-0.49854 1.5192,0.54301 1.32066,-3.4598 -0.7163,2.66453 -0.88379,1.39732 0.39162,-0.47499 -0.25808,1.5325 -0.25148,0.70004 z m -29.09451,-1.66937 c 1.15544,-4.56144 1.90079,-1.80627 0,0 z m 7.239,-1.098 c 0.20889,-0.30174 0.10229,0.30969 0,0 z m 23.92934,-1.10066 c 0.15808,-2.58314 0.23777,1.75955 0,0 z m -24.26469,0.23283 c 0.0515,-1.90865 3.16112,-5.27056 0.54355,-1.40004 0.13562,-0.008 2.9197,-2.27558 0.34205,0.47327 -0.15516,0.0118 -0.91921,1.50331 -0.8856,0.92677 z m -0.21369,-0.16434 c 0.24627,-0.64518 0.0587,0.38745 0,0 z m -4.5733,-0.63893 c 0.39298,-0.7701 0.27441,0.0143 0,0 z m 0.54287,-0.68748 c 1.2012,-0.51576 -0.35813,-1.23579 1.05073,-1.44525 0.91159,-0.58272 0.62025,0.64462 -1.05094,1.44525 z m 28.22687,-0.15236 c 0.28167,-3.11785 0.61902,-0.81655 0,0 z m -1.65989,-0.33687 c -0.20079,-2.11288 0.14637,0.0264 1.23844,-2.65552 0.65457,0.99019 0.31373,3.28362 -1.23844,2.65552 z m -20.6752,-0.52575 c 1.05068,-1.35419 1.58845,-0.50652 0,0 z m 0.80857,0.003 c 1.31595,-1.2028 1.78707,-0.0868 0,0 z m 12.70595,-0.67735 c -0.17895,-0.77651 0.45622,-0.43874 0,0 z m -9.45052,-0.16182 c 0.30936,-1.92857 0.65215,-0.29341 0,0 z m 16.72212,-0.28856 c 0.2992,-0.90497 0.0383,0.60451 0,0 z m 2.29257,0.10659 c -0.14812,-0.40997 0.36735,0.0341 0,0 z m -22.35356,-0.19791 c 1.03784,-2.59714 1.15297,-0.83336 0,0 z m 2.32287,0.0969 c 0.24396,-0.16125 0.19768,0.29091 0,0 z m 19.73402,-0.12905 c 0.12247,-0.22563 0.0366,0.36538 0,0 z m -17.66768,-0.71262 c -0.21185,-1.36891 -0.52614,-0.99133 -1.4799,0.13667 0.79975,-1.73573 -2.12286,-0.13105 -0.044,-2.90874 2.94059,-3.41582 2.44209,3.23792 1.5239,2.77207 z m -0.71167,-1.23266 c -0.24271,-0.75312 -0.15505,0.87359 0,0 z m -0.73383,-0.0864 c 0.39103,-1.33678 -0.81147,0.889 0,0 z m 18.48152,0.99659 c -0.033,-0.68059 0.40729,-0.10652 0,0 z m -25.65289,-0.24434 c -0.18012,-1.19409 1.70588,-1.98737 0.50531,-0.23325 z m 26.17049,-0.49091 c -0.0735,-1.82174 -0.54805,-3.79637 -0.94333,-0.65775 -0.22983,-2.27634 -0.27753,-2.52277 1.46393,-4.78768 1.60475,1.97076 0.70752,4.75293 -0.0287,4.35238 0.54221,-0.37849 -0.46858,2.39843 -0.49191,1.09305 z m 0.63794,-2.61503 c -0.39544,-0.70374 0.0571,1.62073 0,0 z m -0.86923,-0.26863 c -0.26303,-0.30715 -0.1608,0.42635 0,0 z m -4.74133,3.17579 c 0.51682,-1.61324 0.2736,0.23255 0,0 z m -0.47676,-0.39796 c 0.23716,-2.84327 0.85297,0.16888 0,0 z m -9.5557,-0.254 c 0.61134,-1.58256 1.09128,-1.64375 0,0 z m 1.22768,-0.32871 c 0.69302,-2.41625 1.32309,-0.9614 0,0 z m 8.99869,-0.0946 c 0.46444,-2.76269 0.98416,-0.44942 0,0 z m -8.0343,-1.40136 c 0.704,-3.60595 0.58195,1.02774 -0.0361,0.45982 l 0.0224,-0.28538 z m -4.18437,0.14702 c -0.28795,-1.53592 0.4536,0.89565 0,0 z m 19.66292,0.11134 c -0.82806,-2.71939 0.57501,-0.83625 0,0 z m -23.73753,-0.38805 c -0.0827,-1.02508 0.34127,0.49491 0,0 z m 22.67162,0.0877 c -0.004,-0.62231 0.30053,0.24019 0,0 z m -26.04559,-0.1836 c 0.4945,-1.2309 2.43477,-1.09722 0,0 z m 26.6616,-0.27808 c -0.23231,-1.20242 0.30105,-0.2085 0,0 z m -21.3276,-0.13155 c 1.07174,-1.82099 1.3732,-0.6376 0,0 z m 4.40267,0.0364 c 0.79315,-2.29778 1.61421,-1.58015 0,0 z m 9.90266,-0.053 c -0.66509,-3.97467 0.37352,-4.24822 0,0 z m 2.17772,-0.30918 c -0.46462,-3.06744 -1.33686,0.99343 -1.4204,-2.69651 0.21337,1.81919 1.64896,-5.85223 1.52353,-1.28728 1.73557,1.80371 0.9615,2.49191 -0.10313,3.98379 z m 0.36562,-0.62216 c -0.2164,-0.30386 -0.2164,0.30386 0,0 z m -17.91084,-0.0438 c 0.31482,-2.96879 -1.02512,2.01426 -0.84879,-1.46523 -2.33503,0.94561 2.46021,-3.3251 0.64415,-2.35318 1.01749,-4.292 3.61265,-1.9933 1.98314,1.12668 -2e-4,-3.34803 -0.78191,2.15028 -1.12327,-1.62553 -0.42867,0.91551 0.71618,5.29503 -0.65523,4.31726 z m 0.97751,-4.56557 c -0.23916,-0.80855 -0.30212,0.67366 0,0 z m 4.29522,4.67283 c 0.21933,-2.80347 -1.16047,0.42291 -2.08184,-2.19989 1.22832,-2.75763 1.25069,-4.14094 2.62438,-0.66986 0.51197,0.23714 -0.51531,4.06325 -0.54254,2.86975 z m -12.97356,0.0212 c 0.20889,-0.30174 0.10229,0.30969 0,0 z m 4.61434,0.007 c 0.82299,-1.44073 0.54017,0.16385 0,0 z m -1.32665,-0.70532 c -0.40373,-2.24684 1.54705,-4.58225 1.80063,-5.61181 -4.16467,4.24254 3.27655,-3.72159 1.57097,-3.39056 -0.72759,0.64515 0.41268,-3.55543 0.19002,-1.23691 2.47512,-6.0874 0.81874,3.4038 -0.7459,4.8037 -1.25437,3.06702 0.71369,-3.09206 -0.76814,0.1651 0.0714,3.42093 -0.5748,3.21467 -1.52224,4.74135 -0.18163,0.24815 -0.59303,2.07633 -0.52534,0.52913 z m 0.81865,-1.87462 c -0.34052,-0.30849 -0.21739,1.04994 0,0 z m 2.75368,-7.4498 c 0.86438,-1.21301 -0.71677,0.51824 0,0 z m -3.09341,9.60328 c 1.74544,-4.32691 0.7153,0.64154 0,0 z m 5.41973,0.006 c 0.54036,-1.6168 0.12454,1.0301 0,0 z m 19.78053,-0.14985 c -0.89629,-1.45891 0.34563,-0.53922 0.34008,0.36807 z m -20.42693,-0.11353 c 0.28657,-2.23819 0.12408,1.12966 0,0 z m -3.31485,-0.27053 c 0.74748,-0.88758 -0.19786,0.8346 0,0 z m 10.15577,-0.17397 c 0.45872,-1.45598 -0.11374,1.30589 0,0 z m 11.21506,0.20762 c -0.004,-0.62231 0.30053,0.24019 0,0 z m -23.57525,-0.88561 c 0.49667,1.40233 0.15923,0.62763 0,0 z m 24.17075,0.21232 c -1.60341,-0.98918 -0.0383,-6.32477 1.86634,-2.32795 1.01785,1.27018 0.11692,0.23973 -0.40073,1.22427 -0.88965,-1.97574 -0.81559,1.15943 -1.46561,1.10368 z m -0.45006,-2.07433 c -0.48189,-1.22462 0.0751,1.02505 0,0 z m -4.31058,1.16416 c 0.15991,-3.97838 0.54598,-1.95142 0.003,0.87407 l -0.003,-0.87407 z m -7.87262,-0.21169 c 0.15747,-2.61757 0.21189,2.52562 0,0 z m 1.64644,0.23286 c -0.90522,-3.09805 1.94073,-4.89857 2.02354,-0.8255 0.15748,0.53649 -1.27036,0.64076 -2.02354,0.8255 z m 10.05071,0.008 c -0.51763,-1.22788 0.68416,0.6495 0,0 z m -15.79897,-0.15144 c 1.06783,-2.85838 0.56378,0.011 0,0 z m 5.2094,-0.19882 c -0.14351,-2.45278 0.49469,-6.77132 -0.46721,-7.61038 -1.22722,-1.08482 0.98455,-4.00153 1.86574,-0.46014 0.98094,1.86799 1.15317,3.2979 -0.0943,0.51393 0.5586,2.87732 -0.86177,-1.95719 -0.29414,0.93975 -2.60006,-3.15599 3.74356,4.39032 0.59869,3.06394 -0.65702,-0.43767 -0.89641,1.26539 -1.29137,0.0798 0.21626,0.53059 -0.12748,4.04132 -0.31737,3.47311 z m -0.0264,-7.86458 c -0.50819,-0.19966 0.12663,0.57848 0,0 z m 7.15845,7.99536 c 0.29094,-3.13782 -1.37654,-7.8796 -0.72763,-9.99067 -0.24339,3.20022 1.58885,7.4581 0.72763,9.99067 z m 0.90928,0.0642 c -0.008,-0.76707 0.32952,0.29093 0,0 z m 1.98926,-0.58834 c 0.1608,-0.42635 0.26303,0.30715 0,0 z m -10.8618,-0.23622 c 0.23926,0.0108 -0.0163,-0.1354 0,0 z m 3.79213,-0.36144 c -0.0706,-1.2193 0.46171,0.70058 0,0 z m -5.36211,-0.40217 c 0.36529,-2.98083 -2.34049,-1.56258 -0.12645,-4.15754 1.58609,1.68375 1.10033,3.48495 0.20236,2.78553 -0.16576,0.1064 0.28771,2.44321 -0.0759,1.37201 z m -2.21684,-0.18601 c 0.0435,-1.8247 0.712,-0.75344 -0.0458,0.21078 l 0.0458,-0.21078 z m 12.46967,-0.0468 c -1.17677,-4.92189 0.57421,-0.53866 0,0 z m -17.6758,-0.3175 c 0.49575,-1.64127 0.11397,1.02362 0,0 z m 0.38141,0.0682 c 0.43659,-1.16616 0.51762,0.31308 0,0 z m 19.19411,-0.16973 c -1.73696,-4.60015 0.19553,-1.66349 0,0 z m 3.83523,-0.009 c 0.26304,-0.30715 0.16078,0.42637 0,0 z m -21.7578,-0.26622 c 0.45182,-1.35867 1.78701,-1.95198 0,0 z m -0.46721,-0.36378 c 0.10229,-0.30969 0.20889,0.30174 0,0 z m 17.20558,-0.31187 c -0.72689,-2.14954 0.62369,0.30864 0,0 z m -4.97772,-0.41203 c -0.51843,-2.76762 -0.34122,-5.35581 0.21274,-1.07874 l -0.10042,1.05299 -0.11231,0.0258 z m -9.19868,-0.2286 c -0.37456,-1.28157 0.53864,0.39924 0,0 z m 0.23049,-0.50095 c 0.17064,-0.7589 0.17026,0.91263 0,0 z m -5.50052,0.11995 c 0.31846,-0.59604 0.60578,-0.37787 0,0 z m 6.25277,-0.27517 c 0.24051,-1.87251 -2.33645,0.67409 -1.12071,-2.48305 0.057,-4.10676 1.75851,2.62164 1.12071,2.48305 z m 3.48777,0.0353 c 0.12266,-0.22539 0.0368,0.36538 0,0 z m -4.91735,-0.0826 c 0.26304,-0.30715 0.16078,0.42637 0,0 z m -2.20134,-0.14133 c 0.2107,-1.38993 0.48392,-0.0627 0,0 z m 2.83995,-0.0595 c 0.0308,-0.41701 0.26999,0.28163 0,0 z m 13.16206,6e-5 c -1.25219,-2.92346 0.28435,-1.87125 0,0 z m 5.15258,-0.22934 c -2.18674,-3.6069 0.93436,-0.24158 0,0 z m -16.77808,0.16493 c -0.0196,-0.5257 0.38843,-0.0446 0,0 z m 12.17699,-0.259 c -0.56494,-2.62306 -0.87193,-5.48231 0.52506,-1.34706 -1.31562,-1.57937 0.18323,2.24078 -0.52506,1.34706 z m -12.26605,-0.23266 c -0.21591,-1.77442 0.36674,0.53606 0,0 z m 6.56209,-0.27534 c -0.40934,-2.21349 0.49497,1.05348 0,0 z m 10.66005,-0.18257 c -0.36953,-0.66662 0.60409,0.40101 0,0 z m -21.00158,-0.38499 c 0.1608,-0.42635 0.26303,0.30715 0,0 z m 5.92347,-0.0685 c 0.0419,-1.74645 -0.93304,0.58282 -1.73865,-2.14524 -0.0353,-4.10588 2.75986,1.23045 1.73865,2.14524 z m -1.04103,-0.20461 c -0.28192,-0.55798 0.35529,0.0698 0,0 z m 15.90521,-0.31352 c -1.09183,-2.7287 1.21181,1.01023 0,4e-5 z m -15.62299,0.11597 c -0.0867,-0.60194 0.33932,0.60465 0,0 z m 2.23276,-0.25383 c -0.16928,-1.3969 0.51001,1.23256 0,0 z m -4.30709,-0.25417 c 0.10229,-0.30969 0.20889,0.30174 0,0 z m 7.06739,-0.4445 c -2.46801,-4.74105 1.11263,0.65958 0,0 z m -9.42213,-0.2028 c -0.18688,-1.67472 0.56166,0.0279 0,0 z m 9.85344,-0.22376 c -1.93965,-5.11366 0.8245,-1.03438 0,0 z m 9.47697,-0.48361 c -0.57088,-1.01767 0.75842,0.82401 0,0 z m -18.98949,-0.14816 c 0.0472,-3.1241 1.14027,-4.44471 1.78761,-0.71788 -0.57363,0.0187 -1.4289,1.20618 -1.78761,0.71788 z m 13.90143,-0.23586 c -0.84216,-2.59646 -1.08005,-4.47365 0.39009,-0.83604 -0.1222,0.25287 -0.0303,0.77192 -0.39009,0.83604 z m -9.16981,-0.51344 c -0.13015,-0.58681 0.32923,0.38935 0,0 z m -2.126,-0.28927 c -0.25226,-0.97951 -0.28321,-5.842178 1.02497,-1.60251 0.34809,1.23454 -1.24808,0.93294 -1.02497,1.60251 z m 9.99153,0.001 c 0.10229,-0.30969 0.20889,0.30174 0,0 z m -8.16848,-0.16748 c -0.65838,-1.16709 0.92336,0.52814 0,0 z m 1.22582,0.0828 c 0.20889,-0.30174 0.10229,0.30969 0,0 z m 1.50228,-0.27517 c -1.92466,-2.27998 -1.86237,-2.92711 -2.87066,-4.624282 -0.24467,0.09529 -1.9671,-2.651144 -1.22379,-2.941825 -2.09339,-1.779804 -1.68642,-4.766521 0.15752,-1.302725 -1.1434,0.955757 3.99975,4.234358 2.47218,3.979327 -3.32278,-2.536828 2.06426,1.653895 -0.13891,1.505905 2.60223,0.85962 1.92656,2.57912 1.2825,2.43612 -0.24721,-0.31885 1.11344,1.48109 0.32116,0.94748 z m -7.28026,-0.6454 c 0.78244,-1.79761 -0.43894,-6.693524 0.49129,-2.24691 0.21981,0.26937 -0.14186,3.12304 -0.49129,2.24691 z m -0.35316,-0.1166 c -0.53918,-5.885176 0.61115,1.57939 0,0 z m 17.30109,0.15421 c -0.44399,-0.53996 0.66921,0.31445 0,0 z m -1.00995,-0.38705 c 0.10229,-0.30969 0.20889,0.30174 0,0 z m -10.75184,-0.16799 c -0.60912,-2.673262 0.79054,-0.1689 0,0 z m -3.01824,-0.23417 c -0.0955,-2.636994 0.43447,0.63251 0,0 z m -0.31532,-0.74084 c -0.67038,-1.696957 -1.63181,-6.207597 1.00437,-2.72856 -0.0402,1.81835 -1.08502,-0.469695 -1.00238,3.49056 -6.6e-4,-0.254 -0.001,-0.50802 -0.002,-0.762 z m 15.33716,-0.62693 c -1.1874,-3.320172 1.23281,1.58584 0,0 z m -9.6761,-0.33481 c -0.41145,-0.681059 0.48037,0.0139 0,0 z m 5.334,-0.529037 c 0.0519,-1.085765 0.19827,1.089397 0,0 z m -13.24232,-0.08685 c 0.0587,-1.732502 0.36272,1.464447 0,0 z m -0.63142,-0.0022 c -0.0852,-1.779741 0.36819,0.670727 0,0 z m 16.35837,-0.245125 c -2.79068,-3.269674 0.65511,-1.797196 0.15675,-0.177926 l 0.23179,0.337016 -0.38854,-0.159086 z m 3.5955,0.116091 c 0.37115,-0.121261 0.0367,0.163021 0,0 z m -4.81399,-2.653856 c -0.63944,-0.911768 1.11969,0.256001 0,0 z m -13.13707,-0.188112 c -0.94281,-1.377133 0.84433,0.484904 0,0 z m 2.60355,-0.988983 c 0.0364,-0.426969 0.34215,0.299247 0,0 z m -2.12028,-2.799851 c -0.3833,-0.903888 0.67678,0.915289 0,0 z M 95.969865,142.29547 c 1.865152,-3.33052 -1.637287,1.97766 0,0 z m 0.64433,0.0847 c 1.205135,-1.73022 -0.289048,-0.80905 -0.29419,0.40217 z m 22.645985,-0.20985 c -1.23631,0.55148 -0.79131,0.86395 0,0 z m 1.30429,-0.14087 c 0.17237,-0.75639 -1.70943,1.5969 0,0 z m -11.53629,0.11309 c 1.96119,-1.29861 -0.25313,-0.63918 -0.51506,0.3011 z m -8.0754,0.063 c -0.17234,-0.39053 -0.27085,0.46584 0,0 z m -5.514015,-0.50271 c 1.138297,-2.7321 -1.350873,1.98127 0,0 z m 7.999575,-0.23854 c 1.78863,-1.51614 -0.13642,-0.90428 0.38467,-2.52727 0.0838,0.2334 -1.25487,4.58388 -0.38467,2.52727 z m 1.4434,0.17795 c 1.53692,-2.29362 -1.95062,1.4795 0,0 z m 14.82608,-0.1518 c 1.31298,-2.0009 -0.0658,1.42165 1.26642,-1.56561 0.42609,-1.69743 -2.46118,2.94312 -1.26642,1.56561 z m 0.82236,-1.24312 c 0.1484,-0.44526 0.13166,0.31119 0,0 z m -36.778305,1.21227 c 4.462785,-4.22533 7.263743,-9.99055 9.203127,-15.73085 -1.050558,0.15585 -1.350851,1.5104 -1.351973,2.08055 -0.950899,-0.12668 -0.0841,2.50473 -1.343334,0.93474 0.330108,2.1644 -0.349616,1.84971 -0.7233,3.26427 -0.540347,1.10552 -1.135675,2.12978 -1.81201,3.10571 -0.617337,0.34542 -1.286361,2.93085 -2.24649,2.10931 -0.250957,2.11822 -0.819211,-0.27242 -1.18496,1.73076 0.347129,-0.49366 -2.358389,1.50857 -0.54106,2.50551 z m 15.78642,-0.0954 c 1.466885,-4.01561 -1.316373,1.29777 0,0 z m 6.661215,0.0834 c 1.47628,-1.16872 3.05565,-5.85729 0.76692,-2.82801 -1.5111,0.67777 2.2694,-2.79159 -0.85536,-0.32452 3.38844,-4.48529 -4.28787,3.68251 0.67594,0.66247 2.0848,-0.53935 -2.26941,3.46652 -0.5875,2.49006 z m 0.78682,-3.54535 c 0.23233,-0.66354 0.50263,-0.23496 0,0 z m -2.28881,2.99189 c -0.78332,0.39139 -0.67232,1.07636 0,0 z m 10.32933,-0.77158 c 3.31164,-1.69577 -4.68025,2.40157 -0.42573,0.15418 l 0.42576,-0.15416 z m 8.12449,1.05359 c 2.62841,-0.89892 2.9827,-2.99001 0.19044,-0.23731 l -0.48553,0.40414 z m -11.99663,-0.10833 c 1.50174,-1.00401 5.06083,-4.46291 1.55254,-1.46271 -0.39279,-0.18934 -2.83747,2.11721 -1.55254,1.46271 z m -2.52013,-0.49566 c 1.09058,-1.69132 -1.88473,1.81114 0,0 z m -4.18176,0.28399 c 2.0742,-1.5841 -1.25991,0.41714 0,0 z m 6.93151,-0.67026 c 1.63622,-2.19766 -2.62143,2.38479 0,0 z m -11.02948,0.41549 c 1.91212,-2.05263 -1.072488,0.36965 0,-2e-5 z m 7.18823,7.6e-4 c 1.14182,-2.40519 1.36063,-4.20776 -0.004,-0.74477 0.0592,-0.15292 -0.65742,1.6376 0.004,0.74477 z m -9.474585,-0.33883 c 1.444415,-2.43295 -1.337397,1.26272 0,0 z m 23.530845,0.1808 c 2.74188,-2.24833 1.94564,-2.40278 -0.2576,-0.0715 l -0.10223,0.20838 z m -11.27292,-0.45579 c 2.10021,-1.92932 2.21435,-4.26056 0.24219,-0.60634 -0.67303,-0.0783 -1.04408,1.63308 -0.24219,0.60634 z m -1.53014,-0.63454 c 1.76046,-2.34798 -0.8668,-0.28008 -0.53889,0.75892 l 0.53852,-0.75892 z m 1.0932,0.37294 c 0.77705,-1.45484 -1.01024,1.1785 0,0 z m -10.706995,-0.0982 c 0.325078,-1.31898 1.043205,0.51984 0.798814,-2.48856 -0.02836,-1.2219 -1.529309,4.18519 -0.798814,2.48856 z m -2.80914,0.16934 c 1.415803,-2.79954 -0.960876,0.0904 0,0 z m 13.260805,-0.49232 c -0.29261,-0.71909 -0.50188,1.17153 0,0 z m 5.15808,-0.10997 c 1.60813,-1.53551 4.09011,-5.25141 1.25635,-1.70597 -0.16523,-1.05524 -2.37187,2.92331 -1.25635,1.70597 z m -12.6704,0.052 c 1.83998,-1.94027 -0.77803,-0.21731 -0.42568,0.2922 z m 9.63691,-0.21166 c 1.9734,-2.54815 2.15431,-4.71665 0.21969,-0.624 -0.20697,0.22757 -1.80649,2.11447 -0.21969,0.624 z m 4.33732,-0.0441 c 1.72698,-1.10541 2.1421,-5.61798 0.65824,-1.32725 -0.10242,0.57574 -2.50469,2.88376 -0.65824,1.32725 z m -6.66333,0.005 c 0.86432,-1.80982 -1.38152,1.57833 0,0 z m -4.33574,-0.27858 c 0.19963,-1.18019 -1.50615,1.53888 0,0 z m -3.32639,0.0149 c 1.28901,-1.94104 2.21761,-3.55603 0.84007,-2.47023 0.0938,0.18018 -2.13739,3.8375 -0.84007,2.47023 z m -7.620815,-0.18835 c 0.457359,-1.58411 -0.907786,1.55639 0,0 z m 18.992705,0.0557 c 2.57792,-2.43613 -2.2121,1.30645 0,0 z m -14.576985,-0.52492 c 0.609443,-0.91315 2.400855,-2.58347 0.265224,-1.1099 2.933501,-3.11677 -0.649288,0.18512 -0.145063,-0.66882 3.097234,-4.11979 -2.650387,1.51197 -0.683191,2.54588 l 0.56343,-0.76716 z m 2.859325,0.0406 c 0.3038,-1.66394 -0.8533,1.67897 0,0 z m -17.294125,0.16996 c -0.36221,-0.49214 0.227086,0.74206 0,0 z m 11.82217,-0.22396 c 1.217276,-1.34135 5.425795,-7.53034 2.13449,-3.15383 0.759558,-1.03704 1.300357,-7.46273 2.190595,-3.91517 -1.107552,4.65276 2.83349,-3.53542 4.40928,-3.8949 -1.58831,1.17876 0.54587,-2.55716 -1.08244,0.43584 -1.37216,1.62092 -3.41203,5.48415 -1.68467,1.02423 0.93387,-2.92376 0.40277,-4.34113 0.005,-0.55818 -1.273,3.44327 -1.10308,2.18425 -0.99434,0.93917 -0.943484,1.91832 -0.18875,-1.45957 -1.293735,-0.0622 -0.336607,2.04139 -3.364037,4.68971 -3.1303,5.75605 2.343882,-3.52375 2.393971,0.11213 0.16641,1.27686 0.797904,-2.56822 -1.54465,1.10703 -0.7206,2.15211 z m 9.058565,-0.5357 c 1.3797,-1.57564 2.39595,-7.32522 0.82329,-2.40841 -0.18061,2.25395 -1.69105,1.05798 -1.21632,3.06595 l 0.39305,-0.65754 z m 22.90789,-9.4e-4 c 2.44582,-2.39049 -0.86478,-0.58755 -0.59752,0.47126 l 0.59752,-0.47125 z m -23.61888,-0.32984 c 0.557,-2.09339 -1.17364,2.28534 0,0 z m 10.70523,0.29431 c 0.79496,-2.47919 3.1135,-5.73174 0.41137,-2.82021 -1.18545,1.92631 -1.39441,2.22279 -0.43361,2.32563 -0.19161,-0.16812 -0.60854,1.69762 0.0222,0.49458 z m 0.35984,-1.88341 c 0.13526,-0.77728 0.71522,-1.70783 0,0 z m 9.18662,1.87777 c 3.37465,-4.69503 -1.23121,-0.14112 0,0 z m -21.12554,-0.31119 c 1.18963,-2.05705 -0.29366,-0.77885 -0.26145,0.43187 l 0.26142,-0.43187 z m 0.45551,-0.0117 c 1.44189,-3.34193 -1.29741,1.59522 0,0 z m 12.1467,-0.35179 c 1.25675,-1.25842 3.92246,-6.43097 2.77114,-5.27043 -0.60073,2.23924 -3.35468,5.46547 -1.23484,1.59105 -0.56183,0.48084 -2.50944,4.34968 -1.5363,3.67938 z m -30.690015,-0.66399 c 2.355532,-2.87808 4.827746,-7.50003 4.73256,-10.74833 -0.801432,1.86576 -1.314483,1.25596 -1.204986,2.91479 -1.076668,0.14617 -0.577194,2.54396 -1.666542,2.36259 -0.02161,1.92192 -1.157151,1.48761 -1.135297,3.02919 -0.550045,-1.12996 -0.775053,1.72494 -1.368827,0.89684 -0.214988,0.60662 -0.695115,3.04111 0.643092,1.54492 z m 16.413325,-1.05079 c 0.51376,-1.64861 -0.82071,1.55588 0,0 z m 27.80481,0.30096 c 2.1027,-2.3219 -1.2594,0.59624 0,0 z m -28.28216,-0.46977 c 0.61302,-1.98803 -1.05838,1.96929 0,0 z m -2.193795,-0.0404 c 1.735685,-2.95392 -0.341231,-0.65737 -0.422423,0.47236 z m 1.740775,-0.33727 c 1.31538,-3.08656 -1.339038,2.18642 0,0 z m 6.14883,0.1046 c 1.23454,-2.48777 -1.15247,1.48903 0,0 z m 21.82956,0.23407 c 1.10497,-1.65261 1.68917,-6.07584 0.35769,-1.77229 0.7301,0.24298 -1.20833,2.4065 -0.35769,1.77229 z m -10.1132,-0.28464 c 1.62062,-2.2163 -1.65278,1.4395 0,0 z m -18.12218,-0.66786 c 1.04388,-2.53995 -1.324479,2.00772 0,0 z m 30.84507,0.17302 c 3.45321,-4.44884 -2.00202,1.37509 0,0 z m -24.46758,-0.26822 c 0.59155,-1.86103 -1.03631,1.66125 0,0 z m 22.93396,-0.81515 c 1.4466,-3.23857 -0.0321,-1.63952 -0.30789,0.7832 l 0.30786,-0.78317 z m -13.50895,0.0453 c 0.73171,-1.44872 -1.08224,1.33273 0,0 z m -17.185275,-0.21438 c 0.830885,-2.36513 -1.048653,1.39276 0,0 z m 1.658955,-0.0423 c 1.65953,-0.31082 3.61427,-4.94214 1.48591,-1.77738 2.3581,-4.73668 -2.634193,2.88483 -1.48591,1.77738 z m 31.8956,-1.03731 c 1.13697,-2.21287 1.03376,-4.47156 0.23964,-0.92836 -0.18265,0.35708 -1.53234,2.33401 -0.23964,0.92836 z M 103.55179,130.421 c 0.10655,-0.97269 -0.76764,1.4302 0,0 z m -5.153955,0.23226 c 2.172795,-2.79734 -0.915864,0.24541 -4e-5,4e-5 z m 36.264705,-0.38042 c 0.92254,-1.57155 1.48477,-8.68593 0.21533,-3.28465 0.1998,0.16105 -0.86441,5.29488 -0.21533,3.28465 z m -0.83466,0.0536 c 0.44757,-3.64203 -0.005,-2.11654 -0.21347,0.34853 l 0.21342,-0.34853 z m -24.47829,-0.40488 c 0.24701,-0.95878 -0.88752,1.35079 0,0 z m 9.48959,0.18718 c 1.62541,-1.30566 2.87912,-4.13303 0.65342,-0.9194 0.067,0.18344 -1.69125,1.38071 -0.65342,0.9194 z m -0.37683,-0.28491 c 1.43436,-2.4376 5.2085,-6.68575 3.26415,-2.11222 1.20342,-0.6883 3.3219,-4.00843 1.72724,-5.32257 -0.57889,3.20644 -0.31168,2.24355 -0.61128,-0.0245 -0.59358,3.02595 -1.36767,3.55209 -0.22912,0.21951 -0.73389,-2.26202 -1.14822,3.52716 -1.86307,3.01098 0.58361,-1.52522 1.31996,-6.32523 0.15289,-1.94784 -0.3004,0.77282 -0.77195,3.71042 -2.55391,5.35907 -0.45397,0.66039 -1.21171,1.77718 0.1131,0.81755 z m 0.0358,-0.45832 c 0.58566,-1.52382 2.04517,-1.84635 0,0 z m 4.23334,-3.20402 c 0.44862,-1.32376 0.19095,0.55182 0,0 z m 0.16933,-0.64119 c 0.13988,-0.39529 0.29389,0.14584 0,0 z m -1.35467,-1.01565 c 0.44576,-1.99972 0.39797,0.56041 0,0 z m -10.97604,5.02732 c -0.0733,-0.44721 -0.20093,0.44424 0,0 z m -0.96196,-0.127 c -0.2164,-0.30386 -0.2164,0.30386 0,0 z m -0.79761,-0.38482 c 1.06463,-2.22498 -1.00322,1.55044 0,0 z m 8.62481,-0.4977 c 1.5174,-3.36847 -0.46531,-1.72147 -0.18511,0.62373 l 0.18515,-0.62373 z m -18.276465,0.12052 c 1.324915,-4.23631 2.816565,-1.66096 2.284795,-0.56419 0.64947,-2.37687 0.9015,-3.46471 0.13505,-2.04965 0.32016,-2.72653 -1.14137,0.6886 -0.70353,-1.01988 -0.76457,0.56296 -2.517095,3.31627 -1.716315,3.63372 z m 35.322755,-1.4605 c 0.91233,-1.84794 -0.25588,-1.16379 -0.17585,0.27517 z m -0.40482,0.0212 c -0.2164,-0.30386 -0.2164,0.30386 0,0 z m -29.08686,-0.46948 c 0.46588,-1.26186 -0.80248,1.10037 0,0 z m 7.50214,-0.82169 c 0.28255,-1.70941 -1.1216,2.70801 0,0 z m 5.83672,0.56151 c -0.31149,-0.30865 -0.10161,0.54949 0,0 z m 7.56936,-1.80424 c -0.12091,-0.93724 -0.14857,1.04299 0,0 z m -24.56921,-0.44344 c 0.68393,-1.5698 2.97756,-4.05285 0.42634,-1.58055 -0.40253,-0.0305 -0.86731,2.98447 -0.42634,1.58055 z m 24.72377,-0.55917 c 0.87531,-3.97101 -0.83075,1.23273 0,0 z m -36.674395,0.24494 c 3.221228,-1.91866 6.108476,-6.81924 6.8525,-9.40815 -1.087089,1.1558 -1.279946,2.1919 -2.22588,3.21709 -0.452716,1.91013 -1.076184,-0.58712 -0.98463,1.87216 -0.947048,0.43892 -1.393487,1.7343 -2.348155,2.67604 0.224342,-0.76698 -3.42325,2.14719 -1.293835,1.64286 z m 4.41886,-0.33825 c 3.190527,-2.11841 6.809285,-7.33826 6.602985,-10.06985 -0.48181,1.44529 -1.098459,2.12132 -1.710455,3.18686 -0.610927,0.74576 -0.636112,1.11679 -1.53664,2.75473 -0.02167,-1.12772 -0.616748,1.5387 -0.8813,0.65037 -0.77077,1.41881 -1.093579,1.29975 -2.74546,2.98458 -1.125018,0.32363 -0.551932,1.12783 0.27087,0.49331 z m -1.50338,-0.46717 c 2.866898,-1.5204 6.577964,-8.98405 6.1193,-9.14652 -1.040707,0.91542 -0.92624,1.5204 -1.83128,3.07874 -0.59118,0.2056 -1.192382,1.92668 -2.10339,3.31952 -0.181154,-0.11688 -4.50099,4.1307 -2.18463,2.74826 z m -3.20827,-0.35493 c -0.06064,-0.87308 -0.310473,0.6272 0,0 z m 0.71061,-0.41142 c -0.197678,-0.29091 -0.243958,0.16125 0,0 z m 7.41312,-0.26628 c 3.143095,-2.3203 6.058745,-7.7823 6.344515,-10.498 -1.07058,1.09693 -1.15508,2.34518 -1.53973,2.38167 -0.2562,1.16657 -0.51467,0.91198 -0.79679,2.16793 -0.64456,-3.15083 -0.005,3.12058 -0.82983,0.41004 -0.0899,3.60408 -0.868088,-0.98429 -0.937466,2.6094 -0.679895,-0.21761 -1.393343,2.11319 -2.58329,2.34779 -0.545181,0.45202 -1.037921,1.3262 0.342591,0.58117 z m 8.900565,-0.26528 c 1.238,-2.53299 0.25266,-7.02969 0.30829,-1.94179 0.45984,0.33063 -1.22538,3.19734 -0.30829,1.94179 z m -15.467025,-0.1931 c -0.204468,-0.58854 -0.204468,0.58854 0,0 z m 8.93395,-0.30798 c 3.352195,-1.57047 7.305785,-9.84622 6.422135,-10.69869 -0.64824,1.30927 -0.80143,-0.82255 -0.70589,1.62062 -0.69745,-1.67161 -0.0293,2.05603 -0.81119,0.50405 -0.0667,2.1134 -0.94719,2.09643 -1.22368,2.82281 -0.47108,1.68823 -0.87501,1.50254 -1.8225,3.09408 0.27458,0.58222 -4.229894,3.30208 -1.858875,2.65713 z m 3.256635,-0.68685 c 2.23359,-2.56179 -1.90456,1.56864 0,0 z m -11.005255,0.0635 c -0.102292,-0.30969 -0.208892,0.30174 0,0 z m -0.78156,-1.02481 c 1.619668,-0.97179 5.51097,-8.06944 2.5277,-4.50346 -0.352919,1.03775 -1.395308,1.66649 -1.77971,2.90361 0.08603,-0.89779 -3.382445,2.71579 -0.74799,1.59985 z m 14.274865,-0.63125 c 0.42402,-1.05977 -2.24424,2.05054 0,0 z m 21.94824,-0.65111 c -0.17233,-2.358 -0.21154,2.09829 0,0 z m -22.17797,-0.127 c 1.19559,-2.21231 -0.57134,-0.24444 0,0 z m 1.38376,-1.23305 c -0.4588,0.12782 -0.13568,0.62425 0,0 z m 0.0212,-3.61378 c 1.49914,-2.44704 -1.75538,1.95552 0,0 z m 20.1623,-0.66179 c -0.33838,-0.97657 -0.0448,1.17929 0,0 z m -30.462245,0.14015 c 0.360202,-1.86869 -0.955636,0.22263 0,0 z m 0.66907,-0.40905 c -0.173884,-1.26593 -0.365221,1.52285 0,0 z m -1.34971,-0.18958 c 0.193391,-2.13024 -0.593383,1.96618 0,0 z m 30.348075,0.4426 c -0.2164,-0.30386 -0.2164,0.30386 0,0 z m -30.852075,-0.59191 c 0.01319,-1.46732 -0.649468,1.57309 0,0 z m 2.48875,0.16358 c -0.329061,-0.30643 -0.179178,0.42035 0,0 z m 3.095315,0.0649 c 0.0153,-2.11782 -0.734462,0.36041 0,0 z m -6.266765,-0.18041 c 0.494666,-1.85984 -0.459398,0.10565 0,0 z m 3.76412,0.12745 c -0.12225,-1.05053 -0.481021,0.40525 0,0 z m 1.7981,-0.10956 c 0.101645,-1.46063 -0.557676,0.55061 0,0 z m -0.7821,-0.1937 c -0.210006,-0.44612 -0.210006,0.44612 0,0 z m 2.285995,0.0371 c -0.42958,-2.64795 -0.59487,0.41928 0,0 z m 0.67715,-0.7571 c -1.18065,-2.08058 0.38903,1.7 0,0 z m -4.285075,-0.3154 c -0.585444,-2.40924 -0.237832,1.09843 0,0 z m 0.68764,0.12526 c -0.274238,-2.91052 -0.554825,0.84199 0,0 z m -1.45078,-0.62911 c -0.174293,-1.80939 -0.29186,2.00919 0,0 z m 2.16621,0.0416 c 0.05401,-3.33685 -1.047424,2.01276 0,0 z m -2.8044,0.13227 c 0.805147,-2.26524 -0.762793,0.96047 0,0 z m 13.158425,-0.39186 c 0.98382,-2.39376 -1.46223,2.04979 0,0 z m 27.97438,0.25442 c -0.31987,-1.61467 -0.62999,-0.51269 0,0 z m -41.582145,-0.54796 c 0.197918,-1.17577 -0.786276,1.20893 0,0 z m 3.9346,0.18785 c -0.52567,-1.24562 -0.589867,0.38542 0,0 z m 3.640665,-0.30105 c -0.53427,-1.29537 -0.1273,1.48154 0,0 z m 0.70702,0.30187 c 0.16403,-1.46638 -0.79374,-0.16169 0,0 z m 28.04319,-0.43057 c -0.76577,-0.81487 0.26618,1.24529 0,0 z m -29.38873,0.0752 c -0.0307,-1.09191 -0.51584,1.12003 0,0 z m 2.04944,8.5e-4 c -0.28664,-1.79228 -0.50229,1.41833 0,0 z m -2.57172,-0.0271 c -0.42081,-0.0214 -0.16618,-0.0316 0,0 z m -0.6172,-0.0473 c -0.25983,-0.30007 -0.0499,0.41719 0,0 z m 3.76646,0.0493 c -0.0294,-1.65158 -0.77812,-0.19504 0,1e-5 z m -4.05417,-0.39101 c -0.37917,-0.41532 -0.10543,1.00988 0,0 z m -1.24569,0.0328 c -0.519817,-0.37186 0.0335,0.67199 0,0 z m 5.85184,-0.57379 c -1.0959,-2.17327 0.15922,1.92732 0,0 z m 31.11344,-0.34315 c -1.84213,-3.55547 -0.5743,1.01927 0,0 z M 98.816005,108.1744 c -0.265736,-1.86226 -0.42147,1.74696 1.5e-4,-3.2e-4 z m 0.84385,-0.0203 c -0.200448,-1.98495 -0.347431,2.03072 0,0 z m 0.687845,0.18112 c -0.652392,-2.73908 -0.429694,1.18783 0,0 z m 1.68349,0.12618 c 0.74155,-1.87956 -0.60057,-0.56378 -0.23915,0.27643 l 0.23919,-0.27643 z m 0.70877,-0.183 c -0.3059,-1.67266 -0.26694,1.78352 0,0 z m 4.04643,0.33351 c -0.67591,-1.44594 -0.83069,0.28142 0,0 z m -3.23388,-0.44897 c -0.40803,-2.33585 -0.37229,1.49009 0,0 z m 3.88674,0.0284 c -0.27323,-1.29212 -1.67938,-0.53176 0,0 z m 0.69622,-0.2791 c -0.30129,-1.51024 -0.24992,1.28461 0,0 z m -7.18057,0.10196 c -1.014952,-2.91847 -0.63381,0.6336 0,0 z m 3.20071,0.10567 c -0.56984,-2.47542 -0.72646,0.30418 0,0 z m -5.992375,-0.16376 c -0.16831,-0.52339 -0.264908,0.60119 0,0 z m 10.513615,-0.19268 c -0.6252,-2.37961 -0.32793,1.2378 0,0 z m 18.25758,-0.26597 c -0.18778,-2.23802 -0.19009,1.99559 0,0 z m -29.382415,0.25576 c -0.365565,-0.021 0.145641,0.40773 0,0 z m 7.230175,0.10135 c -1.07406,-2.93715 -0.79404,0.1648 0,0 z m 4.35937,-0.66535 c -1.04918,-2.61943 0.26999,1.90372 0,0 z m 28.02476,0.0306 c -1.37242,-2.71744 -0.30575,1.09312 0,0 z m -35.7708,0.10596 c -0.60421,-1.32694 -0.9762,-0.37359 -0.1364,0.0574 z m 36.15266,-0.0509 c -0.26283,-1.02802 -1.19647,-1.49678 0,0 z m -27.77066,-0.2247 c -0.79962,-3.00031 -0.82826,0.43791 0,0 z m -4.59129,-0.18486 c -1.88237,-1.91307 0.3852,0.99774 0,0 z m 1.18573,0.0818 c 0.40361,-2.68926 -1.1289,-0.22394 0,0 z m 0.6756,-0.29795 c -0.6093,-2.87707 -0.80647,0.47946 0,0 z m 0.47183,-0.79311 c -1.24485,-1.98083 0.48211,1.99302 0,0 z m -5.95454,0.52787 c -0.61933,-0.8141 -0.78796,0.11776 0,0 z m 8.42664,-0.18137 c -0.75465,-1.86934 -0.94914,-0.18601 0,0 z m -1.82264,-0.49081 c -1.59826,-3.00602 -0.62797,0.67343 0,0 z m 2.34781,-0.24122 c -1.55851,-1.89258 -0.50394,0.44289 0,0 z m -8.34732,-0.47074 c 0.523,-3.52378 -0.90429,1.46476 0,0 z m 8.62418,0.15754 c -0.7116,-1.61077 -0.23941,0.66073 0,0 z m -9.4317,-0.18 c 0.64677,-2.48959 -0.85212,1.04921 0,0 z m 1.79851,-0.16311 c -0.39632,-2.8095 -0.47259,0.87108 0,0 z m 5.26603,-0.0407 c -1.59837,-1.86327 0.073,0.9303 0,0 z m 24.38049,0.0408 c -0.19768,-0.29091 -0.24396,0.16125 0,0 z m -20.82152,-0.11083 c 1.51915,-2.32435 0.0188,-1.34305 0,0 z M 100.66415,104.405 c 0.11105,-0.76761 -0.56277,0.80107 0,0 z m 5.06091,-0.18841 c 0.0212,-2.05559 -0.59663,1.48667 0,0 z m -0.53467,-0.0367 c -0.24984,-0.90052 -0.27776,1.06856 0,0 z m 1.04088,0.0156 c -0.22615,-2.05966 -0.58734,0.24383 -8e-5,4e-5 z m -6.698415,-0.29591 c -0.383696,0.003 -0.177648,0.47713 0,0 z m 4.346515,0.1532 c -0.50697,-1.55857 -0.88092,-0.19357 0,0 z m 2.85015,-0.2283 c -0.44157,-1.60291 -0.49894,0.42147 0,0 z m 0.37999,-0.72137 c -1.40993,-1.4362 0.60313,1.62239 0,0 z m 2.84985,0.30387 c 0.72156,-2.94598 -1.2365,0.67988 0,0 z m -0.91578,-0.31216 c 0.97648,-2.63108 -1.52959,0.30174 0,0 z m 0.47774,-0.13841 c -0.0151,-1.58663 -0.51778,1.27432 0,0 z m 1.1582,0.004 c 0.0206,-2.44809 -0.97535,0.83688 0,0 z m -2.53512,0.0459 c 1.08542,-1.77092 -1.02576,-0.37239 0,0 z m -7.14202,-0.49217 c 0.97209,-2.14534 -1.523797,1.67273 0,0 z m 6.4501,0.21593 c -0.39532,-1.05877 -0.91014,0.0922 0,0 z m 3.76841,-0.42555 c 0.2374,-3.469705 -0.9641,0.72871 0,0 z m 0.82477,-0.69001 c -0.75801,-2.331616 -0.3694,1.67282 0,0 z m 25.02374,0.39758 c -0.27139,-0.33334 0.0929,0.41973 0,0 z m -23.65122,-0.37736 c -0.2164,-0.30386 -0.2164,0.30386 0,0 z m 23.28334,-0.20158 c -0.98404,-3.644311 -1.27255,-0.30284 0,0 z m -32.69638,-0.12599 c 0.94885,-1.882773 -0.91581,0.10817 0,0 z m 0.81429,-0.2449 c 0.31231,-2.246597 -0.95357,1.20609 0,0 z m 22.48409,0.27057 c -1.11079,-2.516312 -2.29085,-1.735349 0,0 z m -18.61417,-0.24457 c 1.26087,-2.012806 -1.46205,0.42078 0,0 z m -5.30727,-0.0428 c 2.30559,-3.432388 -1.63074,0.12135 -0.23906,-0.5016 0.55909,0.11525 -0.71817,1.0301 0.23906,0.5016 z m 2.0615,-0.36509 c -0.42269,-0.945798 -0.0929,1.53681 0,0 z m 1.77756,0.0856 c 0.0591,-1.698584 -0.90227,1.08217 0,0 z m 30.1759,0.002 c -1.059,-4.796754 -1.27789,-0.42093 0,0 z m -29.11093,-0.0189 c -0.0479,-0.49832 0.0786,-0.19962 0,0 z m 1.69422,0.10996 c 0.54887,-2.197612 -1.75361,0.16652 0,0 z m -2.17659,-0.38977 c 0.13802,-1.114772 -0.65585,1.10119 0,0 z m -1.58222,0.0218 c -0.49846,-1.681258 -0.45744,0.54736 0,0 z m 6.5665,-0.679037 c -0.3523,-2.804455 -0.62957,1.835057 3e-5,2.2e-5 z m -1.29263,-0.246447 c -0.41171,-2.344036 -0.293,2.092364 0,0 z m 0.57187,0.498614 c 0.67476,-3.186996 -1.11805,0.59406 0,0 z m 14.93236,-0.650294 c -1.74332,-2.918436 -1.16249,-0.749629 0.19575,0.758474 l -0.19545,-0.758475 z m -20.4285,0.335541 c -0.51625,-0.163231 0.29766,0.542773 0,0 z m 4.35493,-0.163846 c 0.38152,-2.671307 -0.91541,0.753519 0,0 z m -0.63565,-0.178054 c 1.26967,-2.647763 -0.86526,0.41556 0,0 z m 18.57583,0.116681 c -0.0309,-0.417018 -0.26998,0.281687 0,0 z m -21.96738,-0.08552 c -0.43532,-0.587078 -0.13302,0.347284 0,0 z m 3.00859,-0.723034 c 0.51705,-1.93378 -1.16242,1.827186 0,0 z m -2.69928,0.146132 c 0.46826,-3.640083 -2.33975,1.260524 -0.492,-0.864746 0.21747,0.192348 -0.008,1.745217 0.492,0.864746 z m 0.85527,0.08507 c 0.005,-2.151286 -0.95855,0.507379 0,0 z m 18.13942,-0.02117 c -0.21641,-0.303755 -0.21641,0.303755 0,0 z m -17.42198,-0.204513 c -0.56078,-2.452712 -0.70956,0.76913 0,0 z m 26.77704,0.03616 c -0.30223,-1.828245 -2.08461,-1.702771 0,0 z m -1.01566,-0.48802 c -1.63319,-2.667747 -1.49835,-0.399541 0.14031,0.39188 z m -25.3574,0.31771 c -0.21641,-0.303755 -0.21641,0.303755 0,0 z m 14.224,-0.05683 c -0.64825,-1.490253 -0.25343,0.558133 0,0 z m 13.61487,-1.158818 c -2.15232,-3.826086 -0.12608,2.207518 5e-5,2e-6 z m -10.18587,0.453651 c -0.17844,-1.729748 -3.08833,-2.241017 -0.12703,-0.241138 -3.69897,-3.019896 -1.52997,-0.184806 0.12703,0.241138 z m -15.44714,-0.656803 c 0.0805,-2.14943 -1.04315,2.229818 -8e-5,0 z m 0.73154,0.466301 c 0.097,-2.54752 -1.01912,0.287611 0,0 z m -1.91849,-0.06506 c 1.84831,-2.36004 -1.09235,-0.219483 0,0 z m 2.76557,-0.05405 c -0.21739,-1.622492 -0.67579,0.571 0,0 z m 18.89764,-0.0079 c -1.47716,-2.089122 -1.27071,-0.795127 0,0 z m 0.89063,-0.491094 c -4.21866,-3.927849 -0.40982,0.449681 0,0 z m -22.96494,-0.101566 c 1.33947,-1.322345 -0.88138,-0.317166 -0.50619,0.325837 l 0.50619,-0.325832 z m 25.55419,0.01696 c -0.80842,-2.319494 -3.36529,-1.738484 0,0 z m -26.4237,-0.240514 c 2.4693,-1.200249 -0.94147,-0.667094 0,0 z m 24.19009,-1.212198 c -2.46563,-3.285032 -0.40769,-0.432907 0.52614,-0.976404 -2.49585,-3.535147 3.03282,3.198996 -0.16617,-1.194019 -2.24408,-3.044991 -1.56051,-0.147598 -3.23801,-0.772762 0.27868,0.507426 3.96483,4.85203 2.87804,2.943185 z m -0.75597,0.519789 c -0.15611,-2.190206 -4.52539,-3.953131 -1.53676,-1.170095 0.48383,0.162154 0.98859,1.528862 1.53676,1.170095 z m -17.2775,-0.30112 c 0.0175,-2.532971 -0.60691,0.787057 0,0 z m -2.11126,-0.01058 c -0.0463,-2.960455 -1.43374,-0.08198 0,0 z m 24.07167,-0.05828 c -0.49217,-1.01254 -0.72992,-0.01741 0,0 z m -24.98059,-0.555557 c 0.58973,-1.467285 -0.99255,1.119224 0,0 z m -0.99452,0.01511 c 1.86425,-1.094254 -1.00255,-1.19164 -1e-5,-2e-6 z m 24.02056,-1.103513 c -0.926,-2.093791 -4.80526,-5.897245 -1.53804,-1.735514 0.0249,0.197407 2.67655,3.726359 1.53804,1.735514 z m -0.50078,0.328032 c -0.91676,-2.058451 -3.61112,-4.613251 -1.01909,-1.059967 0.18588,-0.105863 0.83558,1.581258 1.01909,1.059967 z m 2.53738,-0.192134 c -1.37339,-1.739573 -0.7979,0.40062 0,0 z m -22.55444,-0.725186 c -0.44084,-3.28446 2.47941,3.087341 1.01716,-1.162895 -1.19759,-2.669381 0.36926,0.878365 -1.24351,0.711422 -0.56422,0.51115 0.46165,1.747662 0.22635,0.451473 z m 12.56639,0.4622 c -1.87251,-2.219931 2.66058,1.628767 0.22338,-1.282175 1.6712,1.854707 0.1437,-1.552242 1.98161,-0.879393 0.45928,-1.647775 2.03878,-1.687295 2.11825,-2.994577 0.42924,-2.828029 -0.8114,0.411592 -1.60083,-0.141507 -0.66364,1.404959 -1.44178,0.4717 -4.16974,0.364006 -2.29775,-0.05436 -3.64191,-0.392426 -3.6958,0.574971 -3.05105,-1.993324 -2.22312,-0.650646 -5.65175,-2.210798 -2.33838,-0.270253 -4.3367,-0.928062 -1.30923,-1.740053 1.27318,-0.76386 0.80193,0.437061 2.1199,0.04227 -1.8026,1.383571 3.40058,-1.290682 0.32304,0.922431 1.85612,2.243288 5.52929,-0.853819 1.75949,0.420882 1.74249,-1.844727 3.40934,-1.578347 6.12382,-3.063783 1.18674,-0.708554 4.27718,-0.400454 4.94712,-0.275615 -2.80371,-0.694257 -3.39943,-2.761637 -0.18444,-0.543908 1.14722,0.0212 -1.15851,-1.736906 -0.20456,-0.5038 -1.66075,-2.219942 -8.44116,-0.305338 -3.51905,0.810843 -3.2552,-1.154744 -0.44333,1.163146 -3.20317,-0.08726 2.36108,-1.449974 -5.873,1.20055 -5.64385,-2.767117 -0.84571,1.526034 2.84242,3.722579 4.0787,3.264464 1.07046,1.934081 -5.62689,-1.629989 -0.80147,0.883835 0.28571,1.049478 -3.20414,0.201188 -2.67376,-0.876039 0.0435,-0.402654 -3.12713,-5.713012 -6.76551,-5.936852 2.058,0.151026 5.10762,0.43272 3.03972,-0.747786 4.15823,1.182335 0.95438,-1.888913 -1.76356,-0.610664 -3.29614,-0.600619 -6.31309,-2.827417 -9.71798,-2.414458 2.42817,-0.05072 8.67674,3.404765 2.95943,1.25621 -6.706368,-1.830175 3.14468,1.285448 4.98043,2.583542 2.55155,0.497304 9.89039,6.73285 4.23123,6.753869 -3.18168,0.794287 -6.95594,-0.622052 -10.33323,0.759683 -2.23734,0.07587 -8.21511,2.594947 -2.55211,0.851461 3.06125,-0.322752 8.76355,-1.837395 10.40576,-0.25541 -4.7818,0.196243 7.23326,1.962521 4.73957,2.579914 1.71751,0.391041 0.96225,-0.388533 2.95036,1.080572 -2.39147,-0.54391 2.26495,2.423834 3.44159,2.409654 1.34843,2.338078 0.79272,0.154075 3.36664,1.772594 z m -4.953,-2.729194 c -1.78243,-0.78638 1.21281,0.08674 0,0 z m -1.18456,-1.006474 c -1.86468,-1.878459 1.7596,0.754045 0,0 z m -2.57887,-3.428576 c 0.43101,-1.792988 2.28047,-0.498457 0,5e-6 z m 0.46143,-1.399265 c 0.1023,-0.309589 0.20889,0.301637 0,0 z m 3.32835,-1.037166 c -0.19765,-1.500465 1.31162,0.626016 0,0 z m 0.97209,-0.122091 c -1.23283,-1.539933 2.37255,0.737773 0,0 z m 3.42065,-1.518299 c -3.45696,-0.234867 1.12218,-0.785504 0,0 z m 8.49258,10.349448 c -0.44572,-1.967412 -4.40339,-4.559349 -1.24539,-1.38345 0.60672,-0.268155 0.5815,1.693357 1.24539,1.38345 z m -14.18581,-0.780763 c -0.58079,-1.08619 -2.10782,-2.875868 -0.81183,-0.725187 -2.89373,-3.132047 0.88713,2.083491 0.81183,0.725187 z m 15.70981,-0.132015 c -1.99355,-1.835277 -0.15728,0.826321 0,0 z m -19.50274,-0.15219 c -1.21484,-3.379578 -2.96551,-1.608245 0,0 z m 17.72474,-0.5763 c 0.0651,-0.693171 -1.45661,-4.194578 -2.24294,-2.105845 0.44589,0.538396 1.6568,2.266969 2.24294,2.105845 z m -21.79261,-0.06855 c -0.323,-0.836579 -0.29035,0.568014 0,0 z m 1.04905,-0.205164 c -0.5053,-0.86881 -0.0353,0.865219 0,0 z m 0.98062,-0.722217 c -1.1767,-2.658954 -0.73497,0.392664 0,0 z m 21.75524,0.13423 c -1.98261,-1.974758 -1.302,0.233221 0,0 z M 112.91019,89.1149 c -1.79929,-2.238363 -1.75194,-0.240088 0,0 z m 21.66826,-0.402228 c -2.52265,-2.695575 -2.65016,-0.759915 0,0 z m -7.29609,-0.419894 c 0.027,-2.200897 -5.77946,-3.292908 -1.6127,-0.655102 l 0.79221,0.70828 z m 1.08801,0.06915 c 1.95767,-1.54055 -4.40078,-4.138611 -1.08116,-1.218851 0.56823,-0.03717 0.42978,1.424899 1.08116,1.218851 z m 8.33116,-0.0084 c -1.55839,-2.058385 -2.14289,-0.408975 0,0 z m -2.21181,-0.286681 c -2.27584,-3.000577 -3.45197,-2.078049 0,0 z m -24.03049,-0.24628 c -2.01039,-0.794288 -5.93842,-0.78273 -1.44335,-0.189011 -0.25842,-0.546664 2.06542,0.993931 1.44335,0.189011 z m 14.20876,-0.387693 c -3.64058,-3.779448 -2.86858,0.205761 0.0726,0.156044 l -0.0727,-0.156093 z m 5.23904,0.123673 c 3.94495,-1.429773 -3.51006,-4.971702 0.43658,-1.620653 -3.66621,-2.595563 -1.13966,0.229619 -1.11882,0.309405 -3.45355,-3.130529 -0.43978,1.36801 0.68224,1.311248 z m 4.59316,-0.105172 c -0.75239,-1.739458 -3.45178,-3.35621 -0.98555,-0.788386 l 0.78442,0.725665 z m -26.71233,-0.925192 c 5.13332,-0.354181 -6.08773,-0.06314 -0.65263,0.01969 l 0.65262,-0.01969 z m 26.20421,-0.490209 c -1.8914,-2.966115 -1.75061,-0.886634 0.31956,0.575536 l -0.31956,-0.575532 z m 1.84563,0.28648 c -1.15859,-1.428146 -1.16511,0.241347 4.9e-4,-2e-6 z m -1.97001,-1.212249 c -1.22599,-2.409868 -3.14766,-5.176819 -1.58995,-1.948358 -0.91015,-0.07007 2.4925,3.275301 1.58995,1.948358 z m -3.20786,-0.282468 c -0.4831,-1.357629 -1.71516,-0.394076 0,0 z m 4.5177,-0.499063 c -1.32194,-1.332748 -1.38214,0.191855 0,0 z m -4.48734,-1.950816 c -0.87842,-1.336579 -0.24795,0.491418 0,0 z m -8.10996,-0.139873 c 1.79182,-0.383453 5.37306,-2.395982 1.43239,-1.223241 -1.99924,2.497891 -6.52887,-3.392369 -3.31914,1.238914 0.57578,0.326629 1.30118,0.07923 1.88675,-0.01567 z m 11.32684,0.05041 c -0.53737,-0.753656 -0.53864,0.325247 0,0 z m -14.64131,-0.553316 c 0.2737,-2.373536 -3.22044,-1.448234 0,0 z m -4.91623,-0.175413 c -0.5378,-1.701155 -6.40853,-4.347928 -1.9759,-1.723357 0.81918,0.299459 1.36606,1.636169 1.9759,1.723357 z m -0.21167,-0.160275 c 0.10501,-0.333822 0.30382,0.322388 0,0 z m 17.64349,-0.538877 c -0.81575,-1.159719 -2.96,0.560616 0,0 z m -8.74721,0.02046 c 2.09443,-1.234732 -4.20681,-1.145114 -0.93764,0.01042 l 0.3193,0.0809 0.61832,-0.09131 z m -11.47861,-0.03903 c -1.35868,-2.115824 -7.07296,-4.673923 -2.25031,-1.80064 0.81237,0.48048 1.44972,1.393481 2.25031,1.80064 z m 17.71056,-0.256302 c -1.29935,-1.541247 -3.11455,-0.379757 0,0 z m -4.06078,-0.7747 c 2.40964,-1.336665 -3.93613,-5.443911 -6.02633,-1.967551 -1.16431,0.176229 1.45834,3.166945 1.04878,0.625636 1.75132,-3.185938 4.67111,0.375189 4.97755,1.341915 z m 4.89222,-0.125921 c 1.78813,-1.493485 -4.19735,0.726463 0,0 z m -13.53399,-0.474785 c -3.21151,-2.037943 0.96897,1.638892 0,0 z m 1.42047,0.413855 c -0.91108,-1.684954 -1.8836,-0.334402 0,-2e-6 z m 4.69625,-0.466614 c 0.35216,-2.92154 -2.12296,0.50739 0,0 z m 5.13127,-0.390492 c -1.49756,-1.628393 -2.16815,0.04727 0,0 z m 1.61102,-0.419989 c -0.39957,-1.833675 -3.35113,0.992817 5e-5,3e-6 z m -2.71169,-0.717645 c -1.90862,-2.089069 -1.71916,-0.0122 0,0 z m 0.92959,-0.546976 c 1.59543,-2.008015 -3.59465,0.42214 0,0 z m -8.48577,-0.633658 c 3.21196,-2.159544 -1.82736,0.546169 0,0 z m -2.13815,-0.243651 c 1.05647,-1.408626 -3.71867,0.888532 0,0 z m 8.72066,-0.100968 c 2.22347,-2.075655 -2.78099,0.75346 0,0 z m -4.88609,-0.218261 c 2.87605,-2.096363 -1.69019,0.832332 0,0 z m 2.52117,-0.0096 c -1.22168,-0.739443 -1.82781,0.47546 0,0 z m -4.45607,-0.713383 c 0.76078,-1.029938 -2.06615,0.733035 0,0 z m 5.09059,0.0038 c 1.59433,-1.289635 -2.40588,0.64893 0,0 z m -3.33745,-0.38266 c 0.7158,-1.375681 -1.89892,1.120656 0,0 z m 2.12476,-0.09166 c -0.44972,-0.720455 -1.70975,0.799118 -1e-5,0 z M 91.954735,191.54997 c -2.455953,-2.41732 2.628294,-0.80928 0.203149,0.0791 l -0.203399,-0.0791 z m 6.88266,-5.46427 c -3.011066,-0.1348 2.211055,-1.303 -4e-5,6e-5 z m 1.462485,-1.61746 c -3.406493,-1.93158 4.44219,0.33756 -1e-5,-1.3e-4 z m 1.26498,-1.4831 c -0.45342,-0.47103 0.77658,0.12735 0,0 z m -1.631495,-2.23454 c 1.522255,-1.18159 -0.301594,1.07406 0,0 z m 3.094525,-0.47072 c 1.25053,-2.09405 2.62911,-0.9822 0,0 z m 3.36297,-6.15018 c 0.47561,-0.70034 1.21613,3.6e-4 0,0 z m 10.27719,-2.07669 c -3.44105,-1.75693 0.94331,-1.08877 0,0 z m 19.39848,-18.60665 c -3.6844,-0.25352 -1.23755,-1.81414 0.55879,-0.24538 0.11369,0.28919 -0.35548,0.62018 -0.55879,0.24538 z m 2.60018,-0.55813 c -2.04314,-2.24491 1.11511,-1.05678 0,-4.1e-4 z m 4.62174,-2.38076 c -0.54486,-1.56301 0.80866,1.4074 0,0 z m -1.1924,-1.00378 c -2.97534,0.0412 -0.34588,-5.30987 -0.18752,-2.43277 -3.29378,1.41105 1.38141,1.52708 0.18752,2.43277 z"
       style="fill:#000000;stroke-width:1"
       id="path860" />
  </g>
</svg>
