<?xml version="1.0" encoding="UTF-8" standalone="no"?>
<!-- Created with Inkscape (http://www.inkscape.org/) -->

<svg
   xmlns:dc="http://purl.org/dc/elements/1.1/"
   xmlns:cc="http://creativecommons.org/ns#"
   xmlns:rdf="http://www.w3.org/1999/02/22-rdf-syntax-ns#"
   xmlns:svg="http://www.w3.org/2000/svg"
   xmlns="http://www.w3.org/2000/svg"
   xmlns:sodipodi="http://sodipodi.sourceforge.net/DTD/sodipodi-0.dtd"
   xmlns:inkscape="http://www.inkscape.org/namespaces/inkscape"
   width="188.23215mm"
   height="188.23215mm"
   viewBox="0 0 188.23215 188.23215"
   version="1.1"
   id="svg878"
   inkscape:version="0.92.3 (2405546, 2018-03-11)"
   sodipodi:docname="bug.svg">
  <defs
     id="defs872" />
  <sodipodi:namedview
     id="base"
     pagecolor="#ffffff"
     bordercolor="#666666"
     borderopacity="1.0"
     inkscape:pageopacity="0.0"
     inkscape:pageshadow="2"
     inkscape:zoom="0.35"
     inkscape:cx="-450"
     inkscape:cy="98.571436"
     inkscape:document-units="mm"
     inkscape:current-layer="layer1"
     showgrid="false"
     fit-margin-top="0"
     fit-margin-left="0"
     fit-margin-right="0"
     fit-margin-bottom="0"
     inkscape:window-width="1920"
     inkscape:window-height="1016"
     inkscape:window-x="0"
     inkscape:window-y="32"
     inkscape:window-maximized="1" />
  <metadata
     id="metadata875">
    <rdf:RDF>
      <cc:Work
         rdf:about="">
        <dc:format>image/svg+xml</dc:format>
        <dc:type
           rdf:resource="http://purl.org/dc/dcmitype/StillImage" />
        <dc:title></dc:title>
      </cc:Work>
    </rdf:RDF>
  </metadata>
  <g
     inkscape:label="Layer 1"
     inkscape:groupmode="layer"
     id="layer1"
     transform="translate(2.2678583,13.318455)">
    <g
       transform="matrix(0.26744485,0,0,-0.26744485,49.079449,149.29374)"
       inkscape:label="GymnetisUndulata"
       id="g1477"
       style="stroke-width:1.31906736">
      <g
         id="g1479"
         style="stroke-width:1.31906736">
        <path
           inkscape:connector-curvature="0"
           id="path1481"
           style="fill:#000000;fill-opacity:1;fill-rule:nonzero;stroke:none;stroke-width:1.31906736"
           d="m 280.496,1.924 c 0,1.226 0.949,2.82 2.625,4.398 2.578,2.43 3.359,4.176 1.875,4.176 -0.41,0 -1.422,-0.676 -2.25,-1.5 -2.883,-2.887 -3.863,-1.598 -1.805,2.379 2.243,4.34 1.86,20.82 -0.55,23.687 -1.68,2 -1.887,2.809 -1.567,6.153 0.317,3.265 0.114,4.121 -1.328,5.656 -1.625,1.73 -1.676,2.145 -1.16,10.09 0.34,5.207 0.269,8.285 -0.188,8.285 -1.336,0 -1.554,3.102 -0.582,8.211 0.813,4.269 0.797,5.383 -0.093,7.086 -0.891,1.699 -0.911,2.922 -0.121,7.617 1.308,7.785 -3.719,9.84 -9.348,3.82 -2.41,-2.578 -4.234,-1.55 -2.359,1.328 2.199,3.383 5.492,14.071 7.414,24.063 1.109,5.773 2.312,11.68 2.671,13.125 1.395,5.559 2.274,16.805 2.274,29.039 v 12.754 l -2.813,1.93 c -4,2.746 -8.097,6.605 -9.129,8.601 -1.464,2.836 -2.101,1.301 -2.648,-6.387 -0.289,-4.027 -1.004,-10.105 -1.59,-13.507 -2.64,-15.289 -3.355,-18.961 -4.015,-20.582 -0.387,-0.953 -1.278,-4.262 -1.981,-7.356 -0.703,-3.094 -2.445,-8.156 -3.875,-11.25 -5.308,-11.496 -7.121,-15 -7.765,-15 -0.364,0 -1.7,-2.058 -2.973,-4.578 -1.27,-2.516 -3.805,-6.027 -5.633,-7.805 -1.832,-1.781 -3.328,-3.535 -3.328,-3.898 0,-0.367 -1.914,-2.508 -4.254,-4.758 -8.031,-7.719 -11.121,-10.914 -12.246,-12.652 -0.617,-0.961 -1.465,-2.125 -1.879,-2.59 -0.418,-0.465 -1.262,-1.559 -1.875,-2.434 -0.617,-0.875 -3.312,-4.468 -5.996,-7.988 -2.68,-3.519 -5.551,-7.348 -6.375,-8.508 -16.715,-23.492 -34.871,-32.183 -48.586,-23.258 -8.867,5.77 -27.836,28.125 -42.945,50.602 -2.868,4.27 -5.797,8.074 -6.508,8.453 -2.281,1.223 -12.156,11.266 -13.832,14.07 -5.039,8.43 -7.817,13.825 -9.149,17.778 -0.82,2.441 -2.187,6.051 -3.031,8.019 -4.07,9.492 -11.273,45.063 -11.312,55.856 -0.012,3.722 -1.004,4.094 -2.618,0.976 -0.628,-1.215 -3.316,-3.761 -5.968,-5.656 l -4.828,-3.445 0.316,-9.156 c 0.176,-5.036 0.473,-15.231 0.66,-22.653 0.344,-13.66 3.055,-33.234 5.094,-36.75 6.008,-10.375 5.789,-11.906 -1.16,-8.207 -6.09,3.242 -6.93,2.637 -6.629,-4.789 0.203,-4.965 0.004,-6.519 -0.965,-7.59 -0.938,-1.035 -1.172,-2.59 -1.004,-6.722 0.156,-3.856 -0.066,-5.547 -0.781,-5.989 -0.77,-0.476 -0.879,-1.984 -0.481,-6.582 0.516,-5.91 0.504,-5.976 -1.523,-7.304 -2.102,-1.375 -2.211,-2.918 -0.649,-9.196 0.286,-1.133 -0.257,-2.316 -1.792,-3.926 -3.004,-3.144 -4.309,-13.257 -3.196,-24.789 0.727,-7.543 0.383,-9.812 -1.336,-8.75 -0.402,0.247 -0.968,1.719 -1.258,3.266 -1.078,5.746 -3.394,4.543 -3.394,-1.766 0,-3.027 -0.27,-4.031 -1.09,-4.031 -1.352,0 -2.832,5.008 -1.973,6.668 0.344,0.664 0.868,3.231 1.161,5.707 0.296,2.473 1.519,8.133 2.718,12.574 1.203,4.442 2.184,9.575 2.184,11.411 0,1.832 0.676,5.046 1.5,7.14 0.828,2.09 1.5,5.395 1.5,7.34 0,1.941 0.66,5.27 1.469,7.391 0.961,2.535 1.316,4.769 1.031,6.531 -0.293,1.808 0.121,4.254 1.281,7.539 1.34,3.789 1.524,5.102 0.84,5.926 -0.672,0.812 -0.633,2.351 0.176,6.601 1.258,6.641 1.367,6.403 -3.227,7.035 -4.359,0.598 -4.41,0.723 -3.851,9.383 0.25,3.824 -0.008,9.254 -0.641,13.567 l -1.051,7.187 2.239,4.813 c 2.148,4.617 2.671,7.175 6.324,30.8 0.426,2.743 1.023,9.829 1.332,15.75 0.765,14.7 4.738,24.368 14.082,34.247 l 3.996,4.226 v 5.043 c 0,3.305 -0.649,7.102 -1.887,11.016 -2.242,7.101 -3.308,14.59 -3.34,23.496 -0.011,3.586 -0.359,6.726 -0.773,6.98 -1.059,0.657 -0.918,8.129 0.371,19.5 0.605,5.364 1.109,10.168 1.117,10.676 0.008,0.699 -0.633,0.652 -2.613,-0.187 -1.441,-0.61 -3.817,-1.618 -5.274,-2.239 -1.457,-0.617 -3.273,-1.125 -4.035,-1.125 -5.414,0 -8.691,-46.093 -4.906,-69 2.574,-15.554 2.504,-15.781 -3.098,-10.254 -6.906,6.805 -7.472,6.664 -8.55,-2.14 -0.704,-5.762 -1.086,-6.926 -2.664,-8.102 -1.625,-1.211 -1.848,-1.949 -1.848,-6.172 0,-4.215 -0.215,-4.937 -1.774,-5.957 -1.457,-0.957 -1.863,-2.047 -2.281,-6.136 -0.379,-3.692 -0.984,-5.54 -2.351,-7.161 -1.313,-1.558 -1.844,-3.093 -1.844,-5.32 -0.004,-1.98 -0.625,-4.074 -1.688,-5.695 -3.07,-4.672 -3.539,-5.668 -3.558,-7.559 -0.012,-1.031 -0.488,-3.426 -1.063,-5.316 -0.574,-1.891 -1.285,-5.688 -1.578,-8.438 -0.457,-4.25 -1.863,-7.207 -1.863,-3.918 0,3.582 -2.399,2.059 -2.949,-1.871 -0.809,-5.742 -1.926,-3.09 -1.844,4.367 l 0.082,7.301 3.961,6.75 c 3.051,5.199 3.937,7.403 3.859,9.598 -0.093,2.691 2.051,8.168 3.567,9.101 0.414,0.258 0.363,1.305 -0.129,2.614 -0.719,1.902 -0.516,2.761 1.601,6.73 1.918,3.602 2.328,5.082 1.95,7.094 -0.477,2.551 1.566,7.976 3.445,9.137 0.504,0.312 0.629,1.609 0.324,3.402 -0.41,2.434 -0.059,3.719 2.195,7.961 3.375,6.355 3.391,7.519 0.114,8.887 -3.598,1.504 -3.59,1.39 -0.758,10.117 3.23,9.961 3.711,13.273 2.601,17.91 -0.722,3.004 -0.699,4.082 0.106,5.551 0.551,1.004 1.781,3.246 2.734,4.984 0.953,1.734 2.215,5.906 2.809,9.27 1.027,5.843 4.441,17.968 6.746,23.968 0.598,1.555 1.086,3.688 1.086,4.743 0,5.804 6.434,16.027 15.769,25.054 1.868,1.809 3.293,5.403 4.012,10.125 0.328,2.133 1.848,7.055 3.699,11.973 1.313,3.496 9.094,10.641 14.078,12.926 3.711,1.703 4.446,2.355 4.458,3.945 0.011,1.051 0.457,4.008 0.996,6.574 0.535,2.567 0.781,4.93 0.546,5.25 -0.796,1.074 -4.917,3.723 -9.515,6.117 -5.227,2.719 -6.973,4.399 -9.34,8.985 -0.93,1.797 -3.742,5.347 -6.258,7.89 -2.511,2.539 -5.879,6.641 -7.48,9.106 -1.602,2.469 -4.555,5.836 -6.559,7.484 -4.445,3.66 -5.183,5.43 -3,7.199 2.086,1.688 2.059,1.899 -1.086,8.086 -3.043,5.965 -3.129,8.418 -0.328,9.094 2.004,0.485 2.168,1.293 1.238,6.11 -0.445,2.304 -0.234,3.07 1.293,4.718 1.618,1.746 1.778,2.453 1.43,6.293 -0.305,3.367 -0.121,4.594 0.824,5.539 0.817,0.817 1.219,2.535 1.223,5.211 0.004,2.719 0.476,4.707 1.492,6.239 0.914,1.375 1.492,3.519 1.496,5.515 0.004,2.387 0.512,3.871 1.879,5.496 1.031,1.227 1.875,2.699 1.875,3.274 0,2.14 3.633,9.086 6.645,12.703 1.707,2.055 3.105,4.125 3.105,4.601 0,0.934 3.203,3.286 4.477,3.286 1.355,0 0.836,-2.059 -1.102,-4.364 -2.695,-3.203 -2.422,-4.031 1.238,-3.75 3.985,0.305 4.625,-1.195 1.02,-2.383 -2.215,-0.734 -9.383,-6.839 -9.383,-7.996 0,-0.175 -0.863,-1.234 -1.918,-2.351 -1.527,-1.613 -1.844,-2.551 -1.535,-4.563 0.258,-1.675 -0.105,-3.5 -1.078,-5.406 -0.809,-1.582 -1.469,-4.223 -1.469,-5.863 0,-1.641 -0.289,-3.164 -0.644,-3.387 -1.301,-0.801 -2.606,-7.105 -1.696,-8.203 0.645,-0.774 0.559,-1.727 -0.351,-3.902 -0.762,-1.829 -1.039,-3.883 -0.762,-5.633 0.254,-1.582 -0.031,-4.309 -0.668,-6.414 -1.422,-4.684 -1.414,-4.785 0.379,-4.785 1,0 2.281,1.261 3.812,3.75 2.825,4.585 3.672,4.714 3.704,0.562 0.062,-8.453 4.226,-28.301 7.398,-35.262 0.809,-1.773 1.695,-4.129 1.973,-5.23 0.769,-3.074 1.832,-3.527 9.156,-3.918 3.73,-0.199 8.371,-0.902 10.312,-1.559 4.797,-1.629 5.125,-1.363 6.692,5.387 3.043,13.117 6.664,18.688 22.011,33.832 6.368,6.293 11.872,11.438 12.223,11.438 0.352,0 0.906,0.441 1.238,0.98 0.329,0.539 1.821,1.895 3.317,3.016 2.652,1.992 2.719,2.164 2.828,7.39 0.148,7.313 1.023,8.797 6.078,10.336 4.836,1.473 3.813,2.168 -3.375,2.289 -6.297,0.102 -10.226,-0.679 -12.125,-2.414 -1.035,-0.949 -2.156,-1.316 -3.101,-1.019 -0.989,0.316 -2.247,-0.18 -3.809,-1.493 -1.281,-1.078 -2.754,-1.808 -3.274,-1.621 -0.515,0.188 -2.011,-0.093 -3.316,-0.621 -1.308,-0.531 -2.527,-0.816 -2.707,-0.636 -0.18,0.183 -1.644,0.371 -3.25,0.418 -8.039,0.234 -12.621,9.046 -12.656,24.324 -0.016,8.367 0.664,10.051 4.066,10.051 5.91,0 7.86,-9.469 4.117,-20 -2.718,-7.657 5.434,-13.997 10.93,-8.5 0.942,0.945 2.492,1.5 4.192,1.5 1.558,0 3.496,0.632 4.601,1.5 1.047,0.824 3.004,1.5 4.348,1.5 1.566,0 2.613,0.437 2.914,1.218 0.379,0.996 1.144,1.133 4.101,0.739 2.774,-0.368 3.86,-0.211 4.578,0.656 1.2,1.445 2.985,1.445 5.047,0.004 1.024,-0.719 1.789,-0.856 2.086,-0.375 1.438,2.332 6.805,0.195 7.504,-2.985 0.586,-2.679 1.551,-2.793 6.93,-0.828 4.781,1.746 21.086,0.664 25.543,-1.695 2.625,-1.391 5.574,-1.059 4.953,0.559 -1.578,4.117 14.934,8.019 18.566,4.386 0.512,-0.511 2.028,-0.929 3.364,-0.929 1.336,0 2.64,-0.336 2.894,-0.75 0.254,-0.415 1.559,-0.75 2.899,-0.75 1.343,0 3.066,-0.461 3.836,-1.02 0.769,-0.562 1.972,-0.871 2.679,-0.687 0.707,0.183 2.321,-0.2 3.586,-0.852 1.266,-0.656 3.035,-1.191 3.938,-1.191 0.898,0 2.75,-0.692 4.117,-1.536 3.68,-2.273 13.543,-2.527 13.226,-0.339 -2.906,19.871 -1.214,29.168 4.243,23.359 1.746,-1.859 3.261,-12.941 2.543,-18.59 -0.86,-6.742 -5.817,-12.476 -9.942,-11.504 -1.031,0.242 -2.82,0.414 -3.976,0.387 -1.157,-0.031 -2.836,0.457 -3.731,1.082 -0.894,0.629 -2.859,1.141 -4.367,1.141 -1.523,0 -3.156,0.5 -3.676,1.125 -0.523,0.628 -2.156,1.125 -3.699,1.125 -1.52,0 -3.418,0.496 -4.219,1.101 -0.801,0.606 -2.488,1.113 -3.746,1.125 -1.258,0.012 -2.656,0.395 -3.105,0.844 -0.563,0.562 -1.262,0.582 -2.231,0.062 -0.965,-0.515 -1.871,-0.5 -2.847,0.047 -0.79,0.442 -2.59,0.762 -4.004,0.707 -1.414,-0.054 -3.2,0.239 -3.969,0.653 -0.965,0.515 -1.836,0.472 -2.82,-0.145 -1.317,-0.82 -1.188,-1.016 1.613,-2.453 5.031,-2.59 7.051,-8.559 4.945,-14.606 -0.82,-2.347 0.981,-5.335 3.211,-5.335 0.359,0 1.024,-0.813 1.477,-1.809 0.535,-1.176 1.683,-1.969 3.285,-2.27 1.351,-0.253 2.906,-1.003 3.457,-1.664 0.551,-0.664 3.555,-3.148 6.68,-5.527 10.648,-8.105 17.96,-17.32 21.714,-27.355 1.754,-4.684 3.77,-11.43 3.766,-12.586 -0.012,-1.735 1.91,-2.442 3.98,-1.465 2.422,1.144 9.497,2.469 14.891,2.793 2.609,0.152 4.992,0.304 5.297,0.332 0.82,0.074 3.547,6.363 7.012,16.176 2.289,6.48 4.617,17.675 5.226,25.136 0.629,7.657 0.77,8.004 2.602,6.348 0.816,-0.738 1.496,-1.711 1.508,-2.164 0.035,-1.16 2.679,-4.195 3.656,-4.195 1.191,0 1,3.878 -0.348,7.109 -0.711,1.703 -0.98,3.656 -0.683,5 0.285,1.297 0.117,2.641 -0.403,3.269 -0.488,0.586 -1.058,3.188 -1.269,5.782 -0.211,2.593 -1.012,6.066 -1.785,7.718 -0.821,1.762 -1.211,3.723 -0.942,4.75 0.293,1.118 -0.148,2.821 -1.226,4.735 -1.063,1.89 -1.539,3.722 -1.301,4.98 0.578,2.934 -7.238,13.657 -9.934,13.657 -2.937,0 -4.066,1.875 -1.777,2.949 l 2.129,0.996 -2.063,0.715 c -2.64,0.914 -2.875,3.207 -0.258,2.55 6.118,-1.535 12.446,-6.292 12.446,-9.355 0,-0.48 0.324,-1.461 0.719,-2.18 3.003,-5.429 5.285,-11.265 5.304,-13.562 0.012,-1.508 0.52,-3.391 1.125,-4.192 0.645,-0.855 1.102,-3.097 1.102,-5.418 0,-2.574 0.554,-5.023 1.59,-7.007 1.152,-2.211 1.472,-3.825 1.164,-5.836 -0.289,-1.871 -0.063,-3.278 0.687,-4.282 0.899,-1.203 1.02,-2.863 0.617,-8.386 l -0.507,-6.887 2.726,-1.141 c 3.777,-1.578 3.492,-4.367 -0.973,-9.464 -2.792,-3.184 -2.878,-4.27 -0.429,-5.387 2.875,-1.309 2.394,-2.176 -4.875,-8.82 -3.715,-3.395 -6.75,-6.633 -6.75,-7.204 0,-1.168 -8.074,-13.328 -9.113,-13.718 -0.375,-0.145 -1.313,-1.493 -2.086,-3 -2.547,-4.969 -9.997,-10.051 -16.813,-11.473 -5.219,-1.09 -5.367,-1.348 -3.609,-6.387 0.843,-2.41 1.859,-6.242 2.254,-8.511 0.566,-3.231 1.183,-4.45 2.859,-5.625 8.789,-6.18 13.242,-13.543 13.375,-22.125 0.047,-3.094 0.293,-6.129 0.547,-6.75 0.254,-0.618 0.644,-1.969 0.867,-3 0.281,-1.286 1.773,-2.68 4.75,-4.442 2.391,-1.414 4.512,-2.785 4.719,-3.043 0.207,-0.262 1.133,-0.992 2.058,-1.625 7.829,-5.344 15.45,-21.461 12.844,-27.172 -0.691,-1.523 -0.578,-2.304 0.649,-4.351 0.82,-1.367 2.023,-4.852 2.675,-7.742 2.125,-9.403 3.543,-16.477 3.536,-17.625 -0.012,-2.403 1.625,-6.797 3.273,-8.79 2.68,-3.234 2.887,-5.21 0.711,-6.792 l -1.859,-1.356 1.097,-7.469 c 0.606,-4.105 1.848,-10.078 2.766,-13.269 2.074,-7.219 1.804,-8.071 -2.559,-8.071 -4.281,0 -4.453,-0.375 -2.586,-5.562 0.949,-2.641 1.414,-5.367 1.203,-7.059 -0.226,-1.82 0.157,-3.754 1.129,-5.695 1.141,-2.277 1.364,-3.758 0.989,-6.578 -0.352,-2.641 -0.145,-4.352 0.754,-6.246 0.726,-1.524 1.089,-3.625 0.878,-5.047 -0.195,-1.344 0.125,-3.789 0.711,-5.438 0.586,-1.652 1.168,-4.015 1.285,-5.25 0.258,-2.656 2.254,-7.39 4.379,-10.382 0.836,-1.172 2.317,-5.356 3.289,-9.297 2.106,-8.489 2.04,-7.696 0.653,-7.696 -0.621,0 -1.137,0.59 -1.145,1.313 -0.015,0.98 -0.535,0.695 -2.062,-1.133 -2.938,-3.512 -5.309,-3.25 -2.817,0.309 0.981,1.398 0.95,2.156 -0.254,6.73 -0.746,2.836 -1.964,7.684 -2.707,10.781 -0.824,3.43 -2.039,6.372 -3.121,7.54 -1.425,1.542 -1.769,2.742 -1.769,6.144 0,2.324 -0.34,4.434 -0.75,4.688 -0.414,0.257 -0.75,2.765 -0.75,5.578 0,3.675 -0.324,5.382 -1.149,6.066 -0.832,0.691 -1.113,2.223 -1.019,5.582 0.094,3.348 -0.242,5.199 -1.207,6.672 -1.102,1.676 -1.262,3.039 -0.91,7.676 0.511,6.758 -0.914,8.312 -5.512,6.015 -5.141,-2.562 -5.297,-1.933 -2.125,8.536 4.625,15.242 1.492,62.546 -4.301,64.964 -1.39,0.582 -2.527,1.329 -2.527,1.657 0,0.332 -1.192,1.172 -2.649,1.863 -1.457,0.695 -2.843,1.769 -3.082,2.391 -0.234,0.621 -0.746,1.125 -1.132,1.125 -0.387,0 -1.618,0.851 -2.735,1.89 -3.816,3.555 -4.301,2.578 -4.094,-8.277 0.832,-43.914 0.332,-50.875 -4.347,-60.778 -3.555,-7.519 -3.653,-10.171 -0.465,-13.07 2.672,-2.433 9.504,-12.012 9.504,-13.332 0,-0.387 0.945,-2.023 2.101,-3.633 5.243,-7.285 7.582,-19.597 4.735,-24.898 -0.699,-1.297 -0.735,-2.688 -0.145,-5.625 0.43,-2.145 1.305,-7.274 1.942,-11.399 0.64,-4.125 1.476,-9.187 1.855,-11.25 1.246,-6.738 1.801,-23.5 0.82,-24.679 -0.902,-1.086 -0.39,-7.414 1.551,-19.196 1.313,-7.984 1.028,-8.625 -3.859,-8.625 -2.301,0 -4.09,-0.332 -4.047,-0.75 0.039,-0.414 0.508,-3.144 1.031,-6.066 0.863,-4.773 0.828,-5.516 -0.332,-7.289 -1.469,-2.242 -1.125,-6.57 0.875,-10.969 1.067,-2.344 1.063,-2.769 -0.074,-4.875 -1.469,-2.726 -1.07,-6.054 1.273,-10.683 1.371,-2.707 1.454,-3.379 0.614,-4.95 -0.868,-1.617 -0.719,-2.3 1.332,-6.144 2.222,-4.168 2.265,-4.402 1.078,-6.406 -1.113,-1.887 -1.121,-2.348 -0.082,-4.977 5.273,-13.328 3.336,-31.668 -3.356,-31.742 -1.722,-0.02 -2.062,0.297 -2.062,1.902 z M 178.922,49.33 c 0.848,0.711 1.937,2.223 2.422,3.359 0.484,1.133 1.222,2.063 1.644,2.063 0.422,0 0.766,0.504 0.766,1.125 0,0.617 0.348,1.125 0.769,1.125 0.422,0 1.09,0.851 1.489,1.891 0.465,1.226 1.484,2.042 2.91,2.328 2.801,0.562 14.332,12.129 14.332,14.379 0,2.285 -2.727,3.968 -5.016,3.097 -1.008,-0.383 -3.679,-0.695 -5.941,-0.695 -15.813,0 -31.309,-10.52 -21.293,-14.453 3.391,-1.332 4.605,-3.321 2.824,-4.621 -0.984,-0.719 -1.89,-7.368 -1.414,-10.364 0.172,-1.086 4.981,-0.519 6.508,0.766 z m -29.961,1.859 c -0.262,1.34 -0.981,2.813 -1.594,3.27 -0.609,0.457 -1.113,1.68 -1.113,2.719 0,1.039 -0.508,2.308 -1.125,2.824 -1.891,1.57 -1.274,2.25 2.062,2.258 5.918,0.019 6.731,0.531 6.164,3.879 -1.14,6.754 -8.738,10.578 -22.796,11.484 -3.125,0.199 -6.629,0.566 -7.793,0.816 -2.36,0.504 -5.012,-1.296 -5.012,-3.406 0,-0.683 2.055,-2.738 4.562,-4.574 6.317,-4.617 10.438,-8.238 10.438,-9.172 0,-0.434 0.488,-1.32 1.086,-1.973 0.594,-0.656 2.484,-2.781 4.199,-4.73 2.215,-2.516 4.121,-3.848 6.602,-4.609 4.879,-1.493 4.855,-1.5 4.324,1.21 z m 6.762,21.914 c 0.234,0.606 -0.282,2 -1.149,3.102 -0.863,1.098 -1.57,2.758 -1.57,3.691 0,0.93 -0.508,1.887 -1.125,2.125 -0.617,0.239 -1.125,1.079 -1.125,1.868 0,5.691 -12.918,8.242 -24.188,4.777 -4.961,-1.527 -5.062,-1.531 -5.062,-0.113 0,0.867 0.527,1.457 1.312,1.472 1.895,0.035 7.184,3.856 8.059,5.817 0.406,0.922 1.336,1.859 2.063,2.09 0.753,0.242 1.316,1.156 1.316,2.152 0,0.953 0.508,2.152 1.125,2.668 0.648,0.535 1.125,2.172 1.125,3.84 0,1.601 0.316,2.91 0.699,2.91 0.387,0 0.93,0.758 1.207,1.687 0.723,2.387 4.789,6.496 7.613,7.688 5.762,2.43 7.422,14.125 2.481,17.461 -4.324,2.918 -12.539,0.437 -12.723,-3.844 -0.015,-0.348 -0.703,-1.492 -1.527,-2.539 -0.824,-1.051 -1.512,-2.789 -1.527,-3.867 -0.012,-1.078 -0.508,-2.805 -1.098,-3.836 -0.59,-1.031 -1.082,-3.797 -1.098,-6.145 -0.015,-2.347 -0.328,-4.457 -0.699,-4.683 -0.957,-0.594 -3.828,-6.262 -3.828,-7.563 0,-0.597 -1.098,-1.593 -2.438,-2.207 -1.339,-0.609 -3.281,-1.793 -4.312,-2.629 -2.156,-1.742 -9.09,-2.382 -9.59,-0.882 -0.164,0.496 -1.605,1.566 -3.203,2.378 -1.598,0.817 -3.309,2.243 -3.801,3.168 -0.492,0.926 -1.469,2.094 -2.176,2.598 -0.703,0.5 -1.492,1.961 -1.75,3.246 -0.257,1.285 -1.144,3.199 -1.972,4.254 -0.828,1.055 -1.508,2.328 -1.508,2.836 0,0.508 -1.012,2.195 -2.25,3.754 -1.238,1.555 -2.25,3.238 -2.25,3.734 0,0.5 -0.707,1.547 -1.578,2.332 -5.192,4.7 -4.051,17.395 1.578,17.559 0.621,0.016 1.969,0.691 3,1.5 1.031,0.805 2.73,1.473 3.773,1.48 1.797,0.016 5.192,2.153 7.024,4.418 0.457,0.563 1.758,1.903 2.89,2.977 1.137,1.078 2.063,2.351 2.063,2.836 0,0.48 0.465,1.055 1.031,1.273 0.563,0.215 1.785,1.957 2.707,3.867 2.227,4.598 4.883,6.454 6.356,4.438 1.359,-1.852 7.457,-1.863 10.277,-0.016 l 1.984,1.301 0.504,-2.988 c 0.278,-1.645 1.157,-3.738 1.949,-4.656 0.793,-0.914 1.442,-2.715 1.442,-4.004 0,-1.289 0.465,-3.008 1.031,-3.825 0.563,-0.812 1.262,-2.562 1.551,-3.886 0.742,-3.403 4.863,-5.914 8.16,-4.973 3.981,1.141 6.422,8.859 3.981,12.59 -0.672,1.023 -1.223,2.351 -1.223,2.945 0,1.176 -6.274,7.973 -7.356,7.973 -0.363,0 -1.269,0.672 -2.015,1.496 -0.746,0.824 -3.246,2.09 -5.555,2.812 -3.086,0.965 -5.266,2.356 -8.219,5.25 -2.211,2.168 -4.277,3.942 -4.593,3.942 -1.477,0 -6.012,-2.367 -6.012,-3.137 0,-2.137 -7.539,-8.855 -9.938,-8.859 -2.703,-0.008 -5.062,-2.442 -5.062,-5.231 0,-2.55 -2.543,-4.531 -3.981,-3.093 -2.382,2.382 -5.503,0.429 -5.894,-3.684 -0.172,-1.805 -0.746,-2.84 -1.844,-3.324 -0.879,-0.383 -2.707,-2.559 -4.066,-4.836 -2.192,-3.656 -2.567,-3.977 -3.281,-2.758 -0.446,0.754 -1.567,2.305 -2.497,3.441 -1.226,1.504 -1.691,3.067 -1.703,5.711 -0.011,3.328 -0.816,10.434 -1.879,16.582 -0.234,1.356 -0.879,2.438 -1.449,2.438 -1.008,0 -1.316,1.258 -2.301,9.426 -0.531,4.398 1.071,7.015 2.575,4.203 2.031,-3.789 10.57,-7.606 10.57,-4.723 0,0.777 0.508,1.828 1.125,2.344 0.648,0.535 1.125,2.172 1.125,3.84 0,1.601 0.109,2.91 0.242,2.91 0.133,0 1.793,-0.527 3.684,-1.176 4.941,-1.683 15.574,4.645 15.574,9.266 0,0.863 0.328,1.773 0.73,2.023 0.403,0.246 1.274,1.59 1.934,2.985 1.629,3.433 3.152,3.859 5.562,1.55 1.09,-1.047 2.247,-1.898 2.575,-1.898 0.324,0 1.445,-0.676 2.496,-1.5 2.359,-1.856 10.258,-2.164 11.23,-0.438 1.989,3.528 5.219,-0.605 6.012,-7.679 0.496,-4.465 1.176,-7.207 1.984,-8.012 0.785,-0.789 1.227,-2.488 1.227,-4.738 0,-3.489 1.25,-5.188 5.828,-7.922 1.594,-0.953 6.172,0.965 6.172,2.586 0,1.886 -1.5,8.23 -2.336,9.879 -0.891,1.754 -0.84,4.875 0.086,5.449 2.137,1.32 -0.813,9.016 -4.504,11.746 -1.227,0.906 -2.406,2.203 -2.621,2.879 -0.738,2.328 -4.688,4.441 -9.84,5.262 -3.477,0.558 -6.469,1.652 -9.437,3.457 l -4.348,2.64 -4.313,-2.023 c -2.843,-1.336 -5.796,-2.086 -8.671,-2.203 -2.395,-0.098 -4.743,-0.559 -5.211,-1.032 -0.469,-0.468 -1.231,-0.851 -1.696,-0.851 -0.461,0 -1.32,-1.059 -1.91,-2.348 -0.765,-1.672 -1.933,-2.629 -4.074,-3.336 -1.649,-0.543 -4.012,-2.109 -5.25,-3.472 -5.363,-5.926 -14.625,-7.438 -14.625,-2.387 0,1.437 -0.492,3.57 -1.094,4.73 -1.625,3.149 -1.762,19.539 -0.164,20.43 0.692,0.387 1.352,2.25 1.652,4.649 0.571,4.566 0.696,4.804 3.661,7.085 2.359,1.809 2.847,1.77 9.226,-0.785 3.762,-1.508 4.047,-1.519 7.774,-0.316 2.129,0.687 4.187,1.25 4.574,1.25 0.387,0 1.781,1.008 3.101,2.246 1.317,1.234 2.625,2.246 2.907,2.25 0.281,0 0.722,0.668 0.98,1.48 0.703,2.207 4.578,2.942 11.719,2.219 6.144,-0.617 6.328,-0.586 9.707,1.578 2.047,1.313 6.156,2.844 10.137,3.77 11.132,2.598 18.234,13.461 11.332,17.324 -0.696,0.391 -1.262,1.152 -1.262,1.703 0,0.547 -0.465,1.383 -1.035,1.852 -0.567,0.472 -1.227,1.82 -1.461,2.996 -0.258,1.305 -1.028,2.293 -1.965,2.539 -1.266,0.332 -1.539,1.004 -1.539,3.816 0,2.371 -0.43,3.828 -1.41,4.758 -0.778,0.738 -1.664,2.524 -1.973,3.969 -0.309,1.441 -1.191,3.43 -1.965,4.414 -0.769,0.98 -1.402,2.551 -1.402,3.48 0,2.707 -4.957,3.625 -7.828,1.457 -1.981,-1.5 -3.633,-1.386 -4.699,0.325 -0.606,0.968 -2.774,1.836 -6.747,2.699 -3.214,0.699 -6.355,1.527 -6.968,1.84 -1.41,0.711 -3.77,21.535 -2.899,25.535 0.317,1.441 0.789,3.516 1.055,4.601 1.18,4.86 -3.539,6.36 -12.414,3.946 -4.524,-1.231 -6.352,-7.391 -3.074,-10.356 0.785,-0.711 1.644,-2.535 1.906,-4.054 0.609,-3.508 1.988,-7.114 2.973,-7.782 0.421,-0.285 0.961,-3.828 1.203,-7.875 l 0.437,-7.355 -3.41,-4.234 c -5,-6.208 -15.035,-4.868 -15.035,2.007 0,0.985 -0.633,2.395 -1.406,3.133 -0.774,0.738 -1.641,2.102 -1.926,3.031 -0.285,0.926 -1.008,1.688 -1.61,1.688 -1.906,0 -2.699,3.805 -3.25,15.66 -0.464,9.898 -0.734,11.68 -1.902,12.535 -0.75,0.547 -1.746,1.77 -2.215,2.711 -1.133,2.289 -6.23,2.902 -6.867,0.824 -0.23,-0.746 -0.988,-2.511 -1.683,-3.925 -1.696,-3.45 -1.61,-15.668 0.14,-19.836 0.672,-1.59 1.223,-3.649 1.223,-4.567 0,-0.918 0.496,-2.668 1.105,-3.89 0.61,-1.219 1.434,-4.512 1.828,-7.317 0.407,-2.851 1.286,-5.722 2,-6.512 1.145,-1.261 1.207,-2.445 0.61,-11.242 -0.375,-5.531 -0.387,-10.008 -0.02,-10.234 0.356,-0.219 0.414,-1.961 0.129,-3.863 -0.281,-1.907 -0.605,-5.153 -0.715,-7.215 -0.109,-2.063 -0.621,-7.465 -1.133,-12 -1.988,-17.551 -0.253,-70.602 2.524,-77.094 0.668,-1.562 1.691,-6.457 2.273,-10.879 0.973,-7.351 2.262,-13.625 5.137,-24.957 0.586,-2.297 1.91,-5.699 2.949,-7.555 1.035,-1.859 2.137,-4.523 2.446,-5.925 0.304,-1.403 1.304,-3.743 2.214,-5.196 0.911,-1.453 2.27,-4.261 3.02,-6.242 1.805,-4.765 14.152,-18.527 16.625,-18.527 0.555,0 1.008,-0.34 1.008,-0.75 0,-0.414 0.504,-0.75 1.125,-0.75 0.617,0 1.746,-0.59 2.504,-1.313 2.207,-2.093 6.277,-4.23 9.121,-4.785 1.441,-0.285 4.984,-1.051 7.871,-1.711 2.891,-0.656 6.266,-1.195 7.5,-1.199 6.328,-0.02 18.691,-3.707 21.351,-6.367 2.899,-2.899 3.618,-3.156 4.247,-1.524 z M 75.422,251.439 c -0.16,0.516 -0.481,6.473 -0.711,13.235 -0.328,9.508 -0.684,12.586 -1.563,13.558 -1.23,1.36 -1.621,8.633 -0.5,9.328 0.352,0.215 2.411,-1.535 4.575,-3.894 7.097,-7.746 11.136,-7.727 18.429,0.09 5.11,5.472 8.27,6.23 11.871,2.847 0.938,-0.882 2.274,-1.601 2.969,-1.601 0.696,0 1.266,-0.34 1.266,-0.75 0,-2.031 6.976,-0.746 10.172,1.875 3.812,3.121 7.828,3.664 7.828,1.058 0,-0.863 0.66,-2.128 1.469,-2.812 9.109,-7.727 0.714,-21.348 -13.243,-21.492 -6.074,-0.063 -7.941,-0.34 -9.062,-1.352 -0.774,-0.703 -1.801,-1.277 -2.281,-1.277 -0.477,0 -1.633,-1.176 -2.567,-2.617 -0.929,-1.438 -2.086,-2.617 -2.566,-2.625 -0.485,-0.004 -1.012,-0.422 -1.18,-0.926 -0.617,-1.844 -6.086,-1.133 -7.414,0.969 -1.543,2.437 -4.238,2.328 -8.906,-0.368 -1.856,-1.07 -3.965,-2.152 -4.688,-2.402 -0.722,-0.25 -1.312,-0.754 -1.312,-1.121 0,-1.023 -2.262,-0.781 -2.586,0.277 z M 170.773,74.662 c 2.368,1.051 4.825,2.363 5.457,2.922 0.649,0.57 4.766,1.41 9.403,1.918 4.535,0.496 9.879,1.207 11.875,1.582 1.992,0.379 3.902,0.512 4.242,0.301 0.879,-0.543 13.652,2.57 15.008,3.66 0.617,0.496 2.121,1.394 3.34,1.996 1.214,0.602 3.41,2.414 4.875,4.027 1.461,1.617 4.203,4.485 6.089,6.375 1.891,1.891 4.18,4.91 5.094,6.711 0.914,1.797 2.614,4.496 3.774,6 1.16,1.5 2.558,3.91 3.109,5.352 0.551,1.445 1.727,3.808 2.617,5.25 0.887,1.445 1.461,3.082 1.27,3.637 -0.188,0.558 0.304,1.906 1.094,3 1.675,2.324 2.949,6.472 3.597,11.738 0.637,5.179 1.957,10.195 3.18,12.109 0.566,0.883 1.199,4.258 1.406,7.5 0.207,3.242 0.699,7.727 1.09,9.969 0.395,2.242 0.715,5.312 0.715,6.82 0,1.512 0.554,3.864 1.234,5.227 1.024,2.051 1.278,5.551 1.457,20.179 0.121,9.735 0.383,19.383 0.578,21.446 1.184,12.515 1.379,23.25 0.493,26.949 -2.161,9.004 0.964,40.352 4.863,48.801 3.695,8.008 4.367,35.625 0.871,35.625 -0.488,0 -1.316,0.687 -1.84,1.527 -3.59,5.75 -8.492,3.457 -8.133,-3.801 0.446,-9.043 -1.918,-25.922 -3.914,-27.914 -0.472,-0.472 -0.859,-1.418 -0.859,-2.097 0,-1.942 -4.098,-7.11 -8.215,-10.368 -8.258,-6.523 -15.828,0.829 -13.805,13.407 0.496,3.093 0.93,6.89 0.961,8.441 0.043,2.024 0.586,3.274 1.934,4.445 1.031,0.899 1.875,2.411 1.875,3.364 0,0.953 0.676,2.156 1.5,2.672 0.824,0.515 1.5,1.711 1.5,2.656 0,0.945 0.515,1.914 1.144,2.156 5.809,2.231 -1.726,8.973 -10.547,9.441 l -3.722,0.196 0.262,-2.231 c 0.144,-1.226 0.738,-2.906 1.312,-3.73 1.512,-2.156 1.332,-6.129 -0.332,-7.309 -2.035,-1.445 -3.117,-3.894 -3.117,-7.058 0,-1.543 -0.477,-3.336 -1.063,-3.989 -0.582,-0.648 -1.359,-2.343 -1.722,-3.761 -0.832,-3.235 -3.239,-4.02 -9.055,-2.942 -4.793,0.887 -7.66,0.035 -7.66,-2.269 0,-3.481 -4.914,-5.934 -8.34,-4.164 -2.418,1.254 -4.41,0.511 -4.41,-1.637 0,-0.57 -0.633,-1.035 -1.406,-1.035 -1.469,0 -2.344,-2.551 -2.344,-6.844 0,-1.184 -0.344,-2.156 -0.766,-2.156 -0.422,0 -1.137,-0.926 -1.594,-2.063 -1.308,-3.269 -4.66,-10.273 -5.117,-10.687 -6.629,-6.004 -7.093,-19.5 -0.668,-19.5 0.516,0 1.801,-0.801 2.852,-1.781 2.375,-2.207 7.933,-5.286 10.871,-6.02 1.215,-0.301 3.457,-1.539 4.984,-2.746 3.106,-2.461 5.848,-2.785 8.551,-1.016 2.895,1.899 8.223,-1.41 8.844,-5.484 0.137,-0.899 0.82,-2.266 1.519,-3.039 0.7,-0.774 1.274,-1.738 1.274,-2.145 0,-1.132 3.918,-3.769 6.414,-4.32 2.476,-0.543 9.379,1.531 13.437,4.039 3.094,1.91 7.047,2.016 7.586,0.199 0.215,-0.718 0.879,-2.265 1.477,-3.433 0.598,-1.168 1.086,-2.75 1.086,-3.52 0,-0.765 0.308,-1.586 0.683,-1.816 3.442,-2.129 5.118,-13.969 2.317,-16.367 -1.297,-1.11 -1.5,-2.211 -1.5,-8.114 0,-6.195 -0.141,-6.863 -1.5,-7.218 -0.973,-0.254 -1.5,-1.024 -1.5,-2.18 0,-2.567 -2.637,-2.332 -5.25,0.461 -1.555,1.668 -2.781,2.25 -4.707,2.25 -5.391,0 -7.403,0.824 -8.516,3.488 -0.574,1.367 -1.398,2.496 -1.84,2.496 -2.113,0 -8.781,3.922 -9.554,5.621 -0.469,1.032 -1.368,1.879 -1.996,1.879 -0.629,0 -1.141,0.336 -1.141,0.75 0,0.41 -0.5,0.75 -1.109,0.75 -0.61,0 -2.477,1.481 -4.145,3.293 -3.66,3.973 -7.84,5.024 -12.398,3.117 -1.532,-0.64 -3.84,-1.16 -5.137,-1.16 -10.063,0 -22.84,-18.058 -16.504,-23.316 1.355,-1.129 1.34,-4.004 -0.031,-5.145 -1.524,-1.261 -4.176,-6.554 -4.176,-8.328 0,-3.805 5.969,-3.656 10.168,0.25 2.68,2.492 2.871,3.055 5.246,15.399 1.312,6.808 1.363,6.89 4.469,6.89 4.234,0 10.398,1.578 12.039,3.082 4.187,3.832 9.386,1.328 8.762,-4.215 -0.79,-7.011 1.039,-9.109 13.691,-15.714 4.539,-2.368 8.754,-4.692 9.375,-5.168 3.308,-2.532 4.219,-2.668 6.836,-1.02 7.656,4.816 11.164,4.859 11.164,0.141 0,-3.157 -0.692,-4.981 -1.664,-4.379 -0.926,0.57 -2.059,-1.09 -2.074,-3.043 -0.008,-0.793 -0.493,-1.973 -1.078,-2.625 -0.586,-0.653 -1.446,-4.051 -1.907,-7.559 -1.316,-9.984 -1.621,-11.25 -2.722,-11.25 -0.563,0 -1.239,-0.844 -1.497,-1.875 -0.785,-3.125 -4.808,-1.187 -4.808,2.313 0,2.05 -2.652,4.269 -7.168,5.992 -1.832,0.703 -3.332,1.574 -3.332,1.941 0,0.367 -0.844,0.989 -1.875,1.379 -1.16,0.442 -1.875,1.301 -1.875,2.25 0,0.988 -0.738,1.817 -2.063,2.317 -2.554,0.964 -6.187,4.351 -6.187,5.765 0,1.215 -2.926,3.856 -4.313,3.895 -0.515,0.011 -0.937,0.683 -0.937,1.484 0,0.805 -0.481,1.734 -1.07,2.063 -0.59,0.332 -2.11,2.035 -3.379,3.789 -3.176,4.386 -11.301,2.418 -11.301,-2.739 0,-1.41 -3.508,-4.3 -7.535,-6.207 -2.028,-0.957 -3.696,-2.101 -3.703,-2.543 -0.016,-1.078 -3.559,-4.183 -6.368,-5.578 -2.375,-1.183 -3.898,-7.761 -2.957,-12.758 0.641,-3.398 9.114,-6.753 10.59,-4.195 0.328,0.57 1.27,1.168 2.094,1.32 2.07,0.391 3.215,3.165 3.824,9.286 0.703,7.074 1.281,8.367 4.012,8.964 1.262,0.278 2.293,0.903 2.293,1.383 0.004,1.004 9.508,1.215 11.062,0.25 0.516,-0.32 1.274,-0.375 1.688,-0.121 0.426,0.262 0.75,-0.367 0.75,-1.457 0,-1.418 0.391,-1.918 1.5,-1.918 0.848,0 1.5,-0.5 1.5,-1.148 0,-0.633 0.508,-1.344 1.125,-1.582 0.617,-0.235 1.125,-1.27 1.125,-2.293 0,-1.207 0.508,-2 1.43,-2.242 0.789,-0.204 1.64,-0.934 1.894,-1.618 1.203,-3.226 2.883,-5.367 4.215,-5.367 0.805,0 1.461,-0.508 1.461,-1.125 0,-0.617 0.469,-1.125 1.043,-1.125 0.574,0 1.25,-0.816 1.5,-1.812 0.344,-1.375 1.555,-2.239 4.988,-3.563 6.84,-2.637 11.969,-7.433 11.969,-11.183 0,-3 -0.785,-4.133 -4.805,-6.914 -1.07,-0.743 -1.945,-1.825 -1.945,-2.411 0,-0.586 -0.676,-1.425 -1.5,-1.867 -0.824,-0.441 -1.5,-1.476 -1.5,-2.301 0,-0.824 -0.59,-1.714 -1.313,-1.98 -1.714,-0.633 -2.414,-1.711 -2.425,-3.754 -0.008,-0.914 -0.649,-2.004 -1.426,-2.418 -0.778,-0.418 -1.629,-1.609 -1.891,-2.652 -0.261,-1.043 -0.957,-1.895 -1.543,-1.895 -1.008,0 -2.765,-2.484 -3.847,-5.437 -0.262,-0.723 -0.895,-1.313 -1.403,-1.313 -0.504,0 -1.547,-0.691 -2.308,-1.535 -7.567,-8.359 -23.782,-3.637 -26.239,7.641 -0.3,1.386 -1.011,3.183 -1.578,4 -0.562,0.812 -1.027,2.711 -1.027,4.218 0,1.504 -0.508,4.172 -1.125,5.926 -0.617,1.754 -1.125,4.711 -1.125,6.574 0,8.36 -9.668,16.274 -13.098,10.719 -1.058,-1.707 -1.082,-15.117 -0.027,-15.519 0.586,-0.227 1.254,-0.996 1.48,-1.711 0.227,-0.715 1.504,-1.782 2.84,-2.368 2.11,-0.929 2.461,-1.484 2.656,-4.199 0.125,-1.722 0.719,-3.535 1.313,-4.027 0.598,-0.496 1.086,-1.399 1.086,-2.004 0,-0.605 0.676,-1.961 1.5,-3.012 0.824,-1.047 1.5,-2.902 1.5,-4.125 0,-1.574 0.426,-2.328 1.476,-2.605 0.809,-0.211 1.676,-1.024 1.926,-1.805 0.246,-0.777 0.762,-1.418 1.149,-1.418 1.062,0 0.836,-2.238 -0.239,-2.34 -0.515,-0.047 -2.793,-0.027 -5.062,0.047 -4.613,0.153 -9.234,-1.23 -12.02,-3.597 -1.019,-0.868 -2.675,-2.211 -3.675,-2.981 -1.704,-1.316 -3.493,-10.629 -2.043,-10.629 0.246,0 2.382,0.86 4.754,1.906 z m 75.86,172.945 c -0.571,4.024 -9.477,5.512 -15.762,2.633 -3.824,-1.754 -5.941,-1.805 -6.898,-0.172 -2.27,3.875 -8.793,7.106 -18.149,8.989 -9.129,1.836 -16.207,7.586 -13.941,11.328 0.25,0.41 0.672,2.871 0.945,5.461 0.277,2.679 1.016,5.293 1.707,6.058 0.672,0.742 1.223,1.848 1.223,2.457 0,4.778 5.828,5.012 11.91,0.481 1,-0.746 3.086,-1.332 4.723,-1.332 3.039,0 3.738,0.508 8.343,6.078 1.903,2.301 2.2,2.426 3.043,1.289 0.645,-0.863 1.282,-1.047 2.024,-0.574 1.906,1.207 2.203,0.781 2.203,-3.114 0,-3.191 0.25,-3.886 1.5,-4.214 0.828,-0.215 1.5,-0.868 1.5,-1.446 0,-4.234 10.922,-3.152 15.699,1.555 4.656,4.582 4.5,5.414 3.117,-16.602 -1.09,-17.289 -2.351,-24.773 -3.187,-18.875 z M 161.559,91.67 c 0.285,4.656 1.027,12.848 1.648,18.211 0.621,5.363 1.266,15.32 1.43,22.125 0.316,12.98 1.691,49.851 2.265,60.75 0.446,8.453 0.387,22.824 -0.125,30.851 -0.273,4.258 -0.113,7.032 0.461,8.11 0.66,1.234 0.664,1.89 0.012,2.676 -0.562,0.679 -0.73,3.058 -0.488,6.886 0.797,12.508 0.695,39.395 -0.192,50.344 l -0.933,11.492 4.375,5.758 c 10.226,13.465 31.765,30.883 38.179,30.883 0.524,0 1.907,0.929 3.075,2.066 3.816,3.715 11.613,8.434 13.941,8.434 1.266,0 3.164,0.804 4.438,1.875 1.226,1.031 2.667,1.875 3.207,1.875 0.535,0 1.394,0.508 1.906,1.125 0.515,0.621 1.426,1.125 2.019,1.125 0.598,0 2.559,1.012 4.356,2.25 1.801,1.238 3.801,2.25 4.449,2.25 0.648,0 1.176,0.34 1.176,0.75 0,0.414 0.719,0.75 1.594,0.75 1.949,0 1.695,4.304 -0.793,13.5 -0.84,3.094 -1.528,7.285 -1.536,9.316 -0.007,2.235 -0.464,4.188 -1.152,4.949 -0.629,0.692 -1.266,2.844 -1.418,4.786 -0.156,1.964 -0.859,4.168 -1.594,4.98 -0.855,0.945 -1.488,3.297 -1.8,6.699 -0.329,3.598 -0.875,5.543 -1.735,6.196 -0.691,0.523 -1.582,2.441 -1.984,4.265 -0.402,1.824 -1.258,3.613 -1.906,3.977 -0.645,0.359 -1.176,1.297 -1.176,2.082 0,2.105 -12.766,14.105 -19,17.859 -2.957,1.781 -6.735,4.567 -8.403,6.188 -2.98,2.906 -5.609,3.855 -5.582,2.015 0.028,-1.664 6.536,-7.55 7.813,-7.058 0.668,0.258 1.172,0.058 1.176,-0.465 0,-0.504 2.351,-2.938 5.23,-5.414 2.875,-2.473 5.238,-4.922 5.246,-5.438 0.012,-0.515 0.535,-0.937 1.164,-0.937 0.629,0 1.446,-0.797 1.817,-1.77 0.371,-0.972 1.879,-3.082 3.351,-4.687 1.477,-1.606 2.684,-3.496 2.684,-4.203 0.004,-0.707 0.68,-1.649 1.504,-2.09 1.113,-0.594 1.5,-1.571 1.5,-3.778 0,-3.406 -0.289,-3.531 -3.375,-1.429 -10.418,7.101 -14.625,5.691 -7.231,-2.418 2.008,-2.199 4.414,-5.52 5.352,-7.375 0.937,-1.856 1.945,-3.543 2.238,-3.75 0.293,-0.207 0.754,-1.52 1.028,-2.918 0.273,-1.399 1.023,-2.93 1.668,-3.403 7.519,-5.5 0.421,-27.429 -8.876,-27.429 -1.656,0 -6.695,-2.461 -12.367,-6.043 -0.925,-0.586 -2.187,-2.121 -2.797,-3.406 -0.613,-1.289 -1.625,-2.77 -2.25,-3.289 -0.828,-0.684 -1.14,-2.434 -1.14,-6.36 v -5.418 l -6.324,-3.867 c -9.762,-5.965 -16.942,-12.07 -23.668,-20.125 -3.383,-4.051 -6.774,-8.105 -7.536,-9.012 -2.023,-2.398 -2.371,-5.633 -1.578,-14.601 0.43,-4.825 0.465,-17.614 0.094,-32.25 -0.34,-13.336 -0.828,-41.297 -1.082,-62.129 -0.512,-42.227 -0.969,-63.223 -1.535,-70.496 -0.543,-7.008 -0.981,-14.032 -1.551,-24.973 -0.277,-5.277 -0.656,-9.441 -0.84,-9.258 -0.676,0.672 -0.773,40.25 -0.144,56.731 0.355,9.281 0.832,43.535 1.062,76.121 0.231,32.59 0.59,60.058 0.801,61.043 3.695,17.261 -6.414,34.828 -28.715,49.89 l -5.39,3.645 0.421,3.547 c 0.266,2.246 0.114,3.738 -0.421,4.07 -0.465,0.285 -0.844,1.379 -0.844,2.434 0,1.804 -2.656,5.457 -3.988,5.484 -0.34,0.008 -2.032,0.988 -3.766,2.18 -1.731,1.191 -4.324,2.523 -5.758,2.961 -10.738,3.258 -14.125,5.07 -18.445,9.871 -1.918,2.133 -1.797,11.043 0.164,12.207 0.543,0.32 1.199,1.84 1.461,3.375 0.262,1.539 1.117,3.707 1.902,4.824 0.789,1.121 1.43,2.367 1.43,2.773 0,1.02 3.543,7.598 4.898,9.094 0.606,0.672 1.102,1.422 1.102,1.664 0,0.418 2.066,2.696 9.152,10.102 6.293,6.57 -2.441,7.777 -9.5,1.312 -2.461,-2.254 -3.066,-2.507 -3.933,-1.636 -1.141,1.14 -0.161,5.035 1.265,5.035 0.422,0 0.77,0.457 0.77,1.012 -0.012,2.242 14.636,19.25 16.566,19.25 0.313,0 1.785,1.148 3.274,2.554 1.488,1.403 3.957,3.113 5.488,3.805 1.531,0.687 3.894,1.816 5.25,2.508 4.265,2.172 4.625,-0.367 1.469,-10.367 -0.848,-2.684 -1.922,-5.215 -2.391,-5.625 -1.238,-1.09 -4.168,-6.032 -4.168,-7.032 0,-0.472 -1.012,-2.254 -2.25,-3.965 -2.598,-3.582 -2.922,-5.878 -0.836,-5.878 0.777,0 1.981,-0.864 2.672,-1.922 1.473,-2.246 3.957,-2.227 5.211,0.039 0.457,0.82 1.418,2.3 2.141,3.289 0.804,1.101 1.312,3.148 1.312,5.293 0,1.926 0.391,3.894 0.871,4.371 0.481,0.48 1.133,2.801 1.453,5.156 0.356,2.625 1.035,4.539 1.754,4.941 0.774,0.434 1.172,1.731 1.172,3.813 0,2.348 0.387,3.398 1.5,4.094 0.832,0.519 1.5,1.75 1.5,2.761 0,1.004 0.336,2.036 0.75,2.29 3.203,1.98 -2.609,5.378 -9.543,5.582 -4.758,0.14 -5.816,-0.391 -11.293,-5.668 -2.359,-2.278 -6.652,-6.34 -9.539,-9.032 -10.648,-9.925 -13.32,-12.722 -16.004,-16.757 -1.512,-2.27 -3.336,-4.567 -4.059,-5.106 -0.722,-0.539 -1.312,-1.594 -1.312,-2.344 0,-0.746 -0.66,-2.851 -1.465,-4.675 -0.808,-1.825 -1.683,-4.817 -1.949,-6.657 -0.266,-1.84 -1.125,-5.129 -1.91,-7.308 -0.785,-2.184 -1.426,-4.731 -1.426,-5.664 0,-0.934 -0.324,-2.02 -0.719,-2.414 -0.398,-0.399 -1.258,-2.911 -1.914,-5.59 -0.656,-2.676 -1.488,-5.543 -1.847,-6.367 -0.36,-0.825 -0.832,-4.438 -1.047,-8.028 l -0.395,-6.531 2.27,-1.906 c 1.246,-1.051 2.918,-1.91 3.711,-1.91 0.793,0 1.441,-0.278 1.441,-0.622 0,-0.742 14.715,-10.628 15.82,-10.628 1.379,0 8.18,-3.165 8.18,-3.809 0,-0.34 1.098,-0.949 2.438,-1.356 11.66,-3.503 20.769,-9.761 33.019,-22.695 11.59,-12.238 13.102,-16.012 11.09,-27.691 -0.387,-2.239 -0.918,-33.438 -1.18,-69.324 -0.476,-64.821 -0.629,-73.176 -1.512,-83.247 -0.644,-7.347 0.981,-54.921 1.942,-56.711 1.402,-2.621 1.976,-0.835 2.504,7.75 z m 114.89,8.66 c 0.953,0.645 2.418,11.141 2.906,20.801 0.184,3.711 0.481,9.281 0.653,12.375 0.172,3.094 0.164,4.445 -0.02,3 -1.328,-10.61 -5.91,-32.836 -7.05,-34.211 -1.551,-1.867 1.292,-3.461 3.511,-1.965 z M 41.777,123.947 c -0.078,9.176 -0.257,15.844 -0.402,14.813 -0.145,-1.032 -0.641,-2.34 -1.109,-2.907 -0.469,-0.574 -1.067,-5.421 -1.34,-10.875 -0.27,-5.414 -0.746,-11.617 -1.051,-13.781 l -0.559,-3.937 h 4.602 z m 237.797,58.875 c -0.441,4.223 -2.976,11.055 -5.078,13.688 l -1.496,1.875 1.23,-3 c 1.633,-3.981 3.219,-10.66 3.254,-13.688 0.016,-1.742 0.375,-2.437 1.246,-2.437 1.008,0 1.157,0.617 0.844,3.562 z m -230.383,8.11 c 0.508,2.453 1.18,5.468 1.497,6.707 0.523,2.066 0.464,2.164 -0.719,1.187 -1.828,-1.508 -2.653,-3.277 -3.407,-7.305 -1.296,-6.945 1.204,-7.503 2.629,-0.589 z m 100.664,28.226 c 1.583,1.582 0.977,3.836 -1.793,6.672 -2.753,2.816 -2.75,5.926 0.004,5.926 0.555,0 1.414,0.492 1.911,1.09 1.035,1.25 0.367,4.16 -0.957,4.168 -0.489,0 -1.422,0.941 -2.075,2.093 -3.101,5.446 -11.566,4.555 -10.644,-1.125 l 0.41,-2.527 -3.066,0.492 c -9.938,1.59 -10.262,-8.152 -0.364,-10.887 1.426,-0.394 3.828,-1.664 5.336,-2.82 5.211,-4.004 9.219,-5.105 11.238,-3.082 z m 36.457,0.985 c 4.418,1.285 8.825,4.972 12.055,10.089 l 2.082,3.305 -1.679,1.359 c -0.985,0.801 -2.903,1.368 -4.598,1.368 -2.801,0 -2.918,0.101 -2.918,2.476 0,5.578 -11.32,5.465 -13.094,-0.133 -0.25,-0.789 -1.121,-1.605 -1.93,-1.816 -0.988,-0.258 -1.476,-1.027 -1.476,-2.332 0,-1.981 1.012,-2.59 1.906,-1.145 0.742,1.2 3.344,-1.464 3.344,-3.425 0,-0.903 -0.676,-2.254 -1.5,-3 -2.223,-2.012 -2.098,-6.907 0.187,-7.344 3.059,-0.59 3.668,-0.543 7.618,0.605 z m 116.696,2.683 c 1.105,0.629 0.195,1.063 -1.66,0.785 -0.293,-0.043 -0.368,0.364 -0.157,0.907 0.207,0.542 -0.019,1.972 -0.503,3.179 -0.977,2.418 -1.446,6.477 -3.227,28.004 -1.363,16.457 -2.227,20.098 -1.422,6 0.723,-12.637 0.715,-22.734 -0.023,-32.449 l -0.618,-8.141 3.243,0.535 c 1.785,0.297 3.75,0.825 4.367,1.18 z m -275.992,8.75 c 0.007,2.863 2.527,23.879 3.648,30.402 0.34,1.973 0.391,3.727 0.117,3.899 -0.687,0.426 -2,-5.156 -3.445,-14.613 -1.016,-6.625 -2.332,-12.262 -4.598,-19.68 -0.269,-0.891 0.168,-1.531 1.375,-2.016 2.746,-1.097 2.899,-0.992 2.903,2.008 z m 242.242,42.52 c 0,11.144 -0.606,13.422 -2.781,10.472 -1.02,-1.383 -0.899,-11.625 0.218,-18.867 1.106,-7.144 2.563,-2.375 2.563,8.395 z M 61.129,292.424 c 0.394,3.441 0.312,4.64 -0.289,4.269 -0.457,-0.289 -0.832,-0.097 -0.832,0.422 0,2.922 -1.41,-1.195 -1.836,-5.355 -0.274,-2.68 -0.68,-6.489 -0.906,-8.465 -0.223,-1.977 -0.164,-4.508 0.136,-5.625 0.625,-2.336 2.719,5.953 3.727,14.75 z m 229.359,9.258 c -1.218,2.66 -8.687,11.793 -9.324,11.398 -0.312,-0.195 0.34,-1.309 1.453,-2.477 1.11,-1.164 2.524,-2.886 3.145,-3.824 0.617,-0.933 1.547,-2.14 2.062,-2.679 0.516,-0.54 0.938,-1.485 0.938,-2.098 0,-2.164 0.902,-3.633 1.726,-2.809 0.543,0.539 0.539,1.305 0,2.485 z m -244.437,8.277 c 3.387,4.969 4.371,7.734 2.531,7.125 -1.426,-0.477 -7.324,-9.477 -7.324,-11.18 0,-2.328 1.031,-1.457 4.793,4.055 z m 126.148,12.527 c 2.645,1.227 4.817,2.492 4.821,2.813 0.007,0.324 1.019,1.73 2.25,3.129 3.992,4.523 2.675,6.086 -5.125,6.086 h -5.571 l 0.551,16.312 c 0.309,9.098 0.906,16.973 1.359,17.813 0.469,0.875 0.899,7.441 1.028,15.75 0.125,7.836 0.285,18.468 0.363,23.625 0.098,6.757 -0.148,9.894 -0.891,11.25 -0.566,1.031 -1.214,3.371 -1.441,5.203 -0.512,4.183 -4.539,6 -6.883,3.109 -2.68,-3.312 -3.683,-69.902 -1.176,-78.113 2.996,-9.809 0.399,-15.098 -7.472,-15.227 -7.559,-0.129 -7.899,-1.148 -2.27,-6.867 6.922,-7.035 12.785,-8.434 20.457,-4.879 z m 92.535,19.871 c 2.18,2.625 -2.433,10.114 -7.191,11.684 -3.398,1.121 -13.27,-3.887 -13.633,-6.922 -0.203,-1.687 0.16,-1.988 3.375,-2.816 1.981,-0.512 4.274,-1.219 5.102,-1.571 3.992,-1.711 11.062,-1.922 12.351,-0.375 z m -190.742,3.496 c 0.649,0.54 2.07,1.094 3.16,1.231 3.504,0.445 6.106,1.957 6.102,3.547 0,2.633 -9.664,7.586 -10.899,5.586 -0.273,-0.438 -1.351,-1.125 -2.402,-1.524 -1.047,-0.398 -1.699,-0.925 -1.449,-1.175 0.246,-0.25 -0.859,-1.403 -2.457,-2.563 -3.258,-2.359 -4.527,-4.988 -2.934,-6.074 1.395,-0.953 9.426,-0.235 10.879,0.972 z m 4.567,44.723 c -2.684,2.793 -8.325,5.781 -9.829,5.203 -2.769,-1.062 -0.425,-3.293 6.047,-5.754 5.227,-1.988 6.094,-1.859 3.782,0.551 z m 187,5.461 c 2.632,1.41 1.683,2.453 -1.739,1.91 -4.558,-0.722 -6.422,-2.683 -2.547,-2.683 1.559,0 3.485,0.347 4.286,0.773 z m -62.012,21.164 c 0.226,0.719 1.101,1.313 1.937,1.313 1.625,0 2.246,3.214 0.797,4.109 -0.402,0.25 -1.418,1.871 -2.261,3.605 -0.844,1.739 -2.012,4.004 -2.602,5.036 -3.391,5.945 -3.902,7.859 -3.656,13.636 0.343,8.039 -0.469,9.926 -3.985,9.266 -4.761,-0.895 -8.156,-4.773 -5.57,-6.371 1.02,-0.633 4.676,-14.231 4.082,-15.188 -0.211,-0.343 0.313,-1.754 1.168,-3.136 0.852,-1.379 1.551,-3.391 1.551,-4.461 0,-2.602 2.789,-7.977 5.191,-10.008 2.071,-1.75 2.11,-1.727 3.348,2.199 z m -153.902,2.918 c -1.875,4.098 -5.727,13.828 -7.153,18.082 -0.265,0.793 -1.199,1.313 -2.363,1.313 -2.317,0 -3.41,-2.125 -1.617,-3.133 0.683,-0.379 1.242,-1.02 1.242,-1.422 0,-0.399 0.871,-2.043 1.937,-3.652 1.063,-1.61 1.871,-3.715 1.789,-4.672 -0.238,-2.895 -0.066,-3.246 2.274,-4.629 1.238,-0.731 2.25,-1.692 2.25,-2.133 0,-1.316 3.262,-6.199 3.555,-5.32 0.148,0.441 -0.715,2.949 -1.914,5.57 z m 234.246,2.082 c 0.418,0.649 1.304,2.027 1.972,3.059 0.664,1.031 1.418,3 1.672,4.375 0.25,1.371 1.137,3.359 1.965,4.41 1.582,2.012 2.004,5.07 0.801,5.812 -1.227,0.758 -3.465,-2.425 -4.856,-6.902 -0.738,-2.375 -1.804,-5.332 -2.371,-6.57 -1.418,-3.098 -3.316,-8.637 -3.312,-9.657 0,-0.734 1.027,0.625 4.129,5.473 z m -94.84,34.961 c 2.164,1.117 2.191,1.203 1.09,3.336 -0.625,1.207 -1.133,2.863 -1.133,3.684 0,2.711 -3.028,6.933 -4.785,6.683 -1.125,-0.16 -1.516,-0.668 -1.332,-1.726 0.14,-0.825 0.429,-4.118 0.64,-7.313 0.426,-6.461 1.039,-6.98 5.52,-4.664 z m -41.297,0.481 c 0,0.48 -0.57,1.507 -1.266,2.281 -1.191,1.316 -1.191,1.531 0,3.547 3.52,5.957 -0.625,11.437 -4.59,6.074 -2.957,-4 -2.355,-9.84 1.172,-11.399 3.442,-1.519 4.684,-1.652 4.684,-0.503 z" />
      </g>
    </g>
  </g>
</svg>
