<?xml version="1.0" encoding="UTF-8" standalone="no"?>
<svg
   xmlns:dc="http://purl.org/dc/elements/1.1/"
   xmlns:cc="http://creativecommons.org/ns#"
   xmlns:rdf="http://www.w3.org/1999/02/22-rdf-syntax-ns#"
   xmlns:svg="http://www.w3.org/2000/svg"
   xmlns="http://www.w3.org/2000/svg"
   xmlns:sodipodi="http://sodipodi.sourceforge.net/DTD/sodipodi-0.dtd"
   xmlns:inkscape="http://www.inkscape.org/namespaces/inkscape"
   sodipodi:docname="butterfly.svg"
   inkscape:version="1.0 (4035a4f, 2020-05-01)"
   id="svg8"
   version="1.1"
   viewBox="0 0 210 297"
   height="297mm"
   width="210mm">
  <defs
     id="defs2" />
  <sodipodi:namedview
     inkscape:document-rotation="0"
     inkscape:window-maximized="0"
     inkscape:window-y="23"
     inkscape:window-x="0"
     inkscape:window-height="943"
     inkscape:window-width="1252"
     showgrid="false"
     inkscape:current-layer="layer1"
     inkscape:document-units="mm"
     inkscape:cy="554.28571"
     inkscape:cx="-450"
     inkscape:zoom="0.35"
     inkscape:pageshadow="2"
     inkscape:pageopacity="0.0"
     borderopacity="1.0"
     bordercolor="#666666"
     pagecolor="#ffffff"
     id="base" />
  <metadata
     id="metadata5">
    <rdf:RDF>
      <cc:Work
         rdf:about="">
        <dc:format>image/svg+xml</dc:format>
        <dc:type
           rdf:resource="http://purl.org/dc/dcmitype/StillImage" />
        <dc:title />
      </cc:Work>
    </rdf:RDF>
  </metadata>
  <g
     id="layer1"
     inkscape:groupmode="layer"
     inkscape:label="Layer 1">
    <path
       d="m 139.76248,192.94228 c -6.83584,-1.86322 -8.97396,-10.29487 -11.29322,-16.23188 -0.74357,-4.59383 -5.37835,-5.88791 -4.84038,-0.24827 -0.60556,4.8301 -7.56405,3.3661 -3.47047,-0.75559 3.90299,-3.44185 -2.03516,-7.43517 -3.35103,-2.31045 -2.23001,0.67735 0.48082,-10.68485 -4.48346,-6.69326 -3.64682,-3.80108 -2.33458,-9.52902 -4.63215,-13.90333 -3.00109,2.97524 -0.13542,14.45526 -7.13219,13.10309 -1.236985,2.68872 -0.45777,10.27893 -3.938229,4.50059 -7.446448,-1.32194 3.950389,10.16673 -2.725373,8.50291 -3.18347,-1.19618 -1.790239,-11.04809 -5.681781,-5.20473 -3.443677,5.87385 -4.763894,13.07653 -10.237365,17.65382 -6.751957,3.36465 -0.875265,-4.98789 1.810383,-6.7283 2.197162,-3.28423 8.472167,-10.99773 4.599728,-13.15126 -1.771954,1.69792 -3.692381,7.04339 -3.000443,1.20562 2.522137,-2.89245 -0.322693,-10.05147 -3.181533,-4.38783 -1.92813,2.42825 1.011357,12.30115 -4.269066,7.2398 -2.029073,-4.31003 4.836134,-12.67964 -0.697264,-14.26131 -0.71363,2.82398 -3.885196,4.29568 -4.316235,0.0352 -0.269289,-5.26165 3.560555,-12.57241 -4.113401,-14.19968 -3.190458,-3.97294 -6.639387,-7.19131 -9.182945,-11.62679 -3.601742,-3.70577 -7.141244,-6.99885 -11.074658,-10.31742 -3.120922,-2.47394 -11.471336,-3.75947 -4.994498,-8.49413 6.1787,-4.31645 13.5237,-7.03558 21.083903,-7.549 10.261498,-1.39417 20.660823,0.99666 29.817755,5.62662 5.347863,1.1793 9.899582,7.6901 14.169912,8.35709 2.07373,-4.75796 -0.68522,-8.86208 -6.293363,-8.79579 -4.144241,0.1245 -5.018184,-8.94289 -1.100431,-6.29821 -0.813282,5.29926 8.637444,5.78357 9.687044,8.22148 1.00329,-3.15417 3.0065,2.09017 4.24133,-1.68421 3.3739,-1.58499 7.77,-1.79351 8.09897,-6.42869 5.40069,0.0787 -0.9197,8.78368 -5.0979,7.23818 -4.51528,0.32002 -4.63727,7.18041 -1.82942,7.96998 6.9757,-6.2287 15.72699,-10.20307 24.59179,-13.03013 15.09168,-3.80399 32.0297,-0.31158 43.87079,9.89697 -1.37641,3.43978 -10.22381,4.66116 -12.58294,9.13149 -5.40448,3.7592 -9.53031,8.63845 -12.8076,14.61958 -3.09972,3.35252 -9.94471,5.04753 -9.55672,10.41328 1.18583,2.92166 2.5416,12.47246 -2.67445,10.07294 -0.69937,-6.28585 -4.81021,1.1769 -1.98782,3.76488 1.69712,2.80987 0.79471,12.2514 -3.53559,8.40851 0.87546,-2.69323 0.20166,-12.23062 -3.78343,-9.07723 -0.99744,1.89696 1.83718,12.50103 -1.21498,6.46408 -2.92385,-5.51586 -4.16228,1.4804 -1.54178,3.86047 0.85337,6.11632 9.76933,9.85769 9.39009,15.01324 l -0.73955,0.0776 z m -0.11466,-0.36309 -0.23955,-0.089 z m -0.11466,-0.63063 c -1.4224,-3.69495 -7.28402,-7.72082 -8.86637,-12.7279 2.07643,4.40451 3.89683,9.36799 7.77996,12.48719 z M 76.145321,191.2606 c 3.559293,-1.9597 7.684106,-9.86052 7.720303,-11.05273 -1.14969,4.13251 -7.885997,8.50795 -7.720303,11.05273 z M 120.8627,178.74355 c 4.04971,-4.33146 1.6254,-10.86479 1.63273,-16.15592 -0.274,-4.51683 -0.57286,-9.02664 -0.88702,-13.5414 -0.10502,7.3452 0.81064,14.65203 1.0868,21.95382 0.90678,2.68188 -3.51814,5.97 -1.83251,7.7435 z m 9.5741,-0.11044 c -4.22593,-8.50848 -4.20743,-18.09078 -5.06346,-27.30921 -0.50662,0.60696 0.71029,8.53368 0.70747,11.99958 0.67519,5.22487 1.77902,11.01386 4.35599,15.30963 z m -35.678349,-0.40553 c -1.869576,-4.78317 -2.724548,-11.7545 -1.245722,-17.71551 0.21218,-2.54332 0.384052,-13.47881 -0.0216,-6.01935 -0.975957,6.07146 1.174161,14.31348 -4.980172,16.62589 2.076183,-1.5874 5.215955,-0.34106 4.06683,3.65193 0.282195,1.22809 0.60883,3.31503 2.18066,3.45704 z m -2.4843,-8.29373 c -0.150642,-0.98668 0.448753,-0.59109 0,0 z m -7.21338,7.97905 c 3.633172,-7.14206 4.786897,-15.11791 5.072656,-23.03994 -0.786484,0.79947 -0.585276,9.65302 -1.913899,13.34702 0.409276,3.95043 -4.234932,-3.1064 -4.528067,2.32547 6.72339,-4.24158 1.779123,4.86106 1.36931,7.36745 z m 54.510609,-1.40522 c 4.56997,-4.49275 -3.41878,-11.27731 0.5863,-15.62216 3.29476,-3.20394 4.93222,6.564 5.62681,0.20512 -0.27671,-3.07786 -1.424,-10.58968 -1.02387,-3.37586 -0.14395,2.30323 0.38815,5.11855 -1.98734,2.0823 -8.14445,-2.0693 -1.44766,10.52157 -3.41758,10.50141 0.0243,-3.58467 -5.5627,-9.42752 -7.08249,-3.82436 5.83077,-5.44267 7.34563,6.45999 7.29815,10.03355 z m -63.655379,-1.37592 c 0.58493,-3.32436 0.116209,-12.15877 6.286815,-9.88075 3.276428,2.76489 -1.339517,-4.88145 -3.634735,-0.8764 -1.82019,2.30692 -3.850693,9.99018 -2.70863,2.9227 2.308345,-3.35629 1.79678,-10.7722 -3.763374,-7.64051 -2.438282,4.18152 -0.503223,-6.32157 -0.872946,-8.10669 0.168415,2.99148 -3.723697,10.76472 0.33625,10.96921 0.720419,-6.22469 7.823163,-0.56473 4.417203,3.60384 -0.446839,2.60682 -2.624279,7.10476 -0.06058,9.0086 z m 51.119229,-2.96204 c 0.77895,-3.56491 -5.27573,-2.93565 -2.94259,-1.60508 1.28834,-0.4232 2.22087,0.76506 2.94259,1.60508 z m 5.96231,-0.19111 c -2.44202,-7.14487 -2.48932,-14.78663 -4.5064,-22.03419 0.83258,6.03763 2.02799,12.04924 2.91648,18.09063 0.34379,1.3784 0.84219,2.73047 1.58992,3.94356 z m -50.316599,-1.07015 c 1.562813,-4.73328 2.696133,-9.73364 3.02508,-14.65763 -1.059595,4.88463 -1.538753,9.86392 -3.02508,14.65763 z M 128.3347,170.7938 c 1.25289,-1.67166 4.6905,0.49414 1.34372,-1.94814 -0.81823,0.19384 -1.9367,0.99199 -1.34372,1.94814 z m -10.71027,-0.52466 c 1.25456,-3.52623 6.74631,1.70764 2.63697,-2.38315 -1.46531,-0.79111 -3.24995,1.09864 -2.63697,2.38315 z m -0.7448,-0.0951 c 0.62769,-2.29377 0.70124,-11.97539 0.22465,-5.14391 -0.20917,1.70144 -0.48436,3.43088 -0.22465,5.14391 z m -18.957609,-0.17249 c 0.886047,-5.07359 -6.958419,-0.11295 -2.998289,-1.19637 1.129128,-0.72721 2.52687,0.25843 2.998289,1.19637 z m 0.59291,-0.28615 c 0.02269,-6.08409 -0.839635,-12.1508 -0.636155,-18.23174 -0.367003,6.08068 -0.133645,12.18952 0.636155,18.23174 z m 29.284689,-1.32951 c 2.51477,-0.41294 3.63808,-2.48677 0.27442,-2.15708 -0.85034,0.16715 -1.22061,2.06396 -0.27442,2.15708 z m -40.025229,-0.46756 c 1.353219,-4.7343 -6.842748,-2.0259 0,0 z m 28.665209,-1.31835 c 0.76966,-5.32543 -2.70381,-2.16656 -4.08031,-4.87491 0.27698,1.16586 -1.82867,3.25098 0.6938,3.22571 1.70156,-1.07598 2.78936,0.68215 3.38651,1.6492 z m 9.23063,-0.5537 c 0.32641,-1.84552 -1.17751,-0.94892 0,0 z m -35.689269,-0.22113 c 1.176097,-3.63746 -0.458773,-1.7242 0,0 z m 9.40211,0.0573 c 0.08153,-2.98708 6.308849,-0.29728 3.918739,-3.38636 -1.12481,0.10008 -1.93974,0.18874 -4.062629,0.0993 -0.149995,1.05835 -0.481862,2.31613 0.14389,3.2871 z m 20.925439,-0.7644 c 0.55728,-1.7051 -0.8645,-2.43267 0,0 z m 3.13404,-0.17199 c -0.40624,-2.25187 -0.66301,0.82317 0,0 z m 3.74555,0.13377 c 0.30837,-2.03498 -1.06798,-0.58684 0,0 z m 11.09472,0.0109 c -0.54054,-3.98101 -3.96284,-12.82163 -4.684,-13.41504 1.86869,4.35337 3.04127,9.04477 4.684,13.41504 z m -18.81515,-0.0873 c 0.37687,-2.40252 -0.81654,-0.009 0,0 z m 4.59732,0.0109 c 0.42606,-1.78744 -1.06312,-1.20913 0,0 z m 3.93665,-0.11466 c 0.0284,-1.82888 -1.30796,-0.96147 0,0 z m -39.519949,-0.36358 c 1.109614,-1.65385 -0.934729,-0.78099 0,0 z m 39.967669,-0.23975 c 0.15958,-2.80997 -0.92008,-0.0987 0,0 z m 0.83216,0.0869 c 0.17764,-2.64805 -1.01993,-0.5155 0,0 z m -8.17039,-0.0869 c 0.55161,-1.62212 -0.90743,-1.00153 0,0 z m -33.385159,-0.0764 c 1.06805,-1.54733 -0.733903,-1.10362 0,0 z m 4.65416,-0.0278 c 0.665639,-0.94388 -0.979029,-0.33242 0,0 z m 32.085669,-0.0764 c 0.71262,-1.43073 -1.15782,-0.80604 0,0 z m -38.192179,-0.0869 c 1.095313,-1.12586 -0.284834,-2.02769 0,0 z m 38.880139,-0.10424 c 0.50552,-1.763 -0.82553,-0.85138 0,0 z m -33.567569,-0.0295 c 0.74559,-1.7638 -1.077847,-0.44703 0,0 z m 3.7947,-0.14196 c 0.75716,-1.47919 -1.142607,-0.69013 0,0 z m -8.15177,-0.0491 c 0.942381,-1.37046 -0.653442,-2.0148 0,0 z m 31.752609,-0.0655 c 0.46651,-1.81335 -1.081,-0.63263 0,0 z m 8.09171,-0.0874 c 0.35761,-1.45786 -0.94771,-0.86659 0,0 z m -32.467869,-0.0191 c 0.88131,-1.12421 -0.919285,-0.98802 0,0 z m -3.58176,-0.0464 c 0.757294,-1.38341 -1.070044,-0.62766 0,0 z m 42.366849,-0.0764 c 0.16693,-1.66631 -1.19424,-0.81535 0,0 z m -1.19574,-0.1622 c 0.11397,-1.7714 -1.3191,-1.06331 0,0 z m -35.782089,-0.21999 c 0.668122,-1.52116 -2.001729,-0.69862 0,0 z m 26.982809,-0.0196 c 0.6406,-1.62102 -0.91721,-0.80481 0,0 z m 5.09194,0.0278 c 0.4594,-2.73447 -1.44478,-3.92535 0,0 z m -8.79059,-0.15128 c -0.17018,-1.81442 -1.23291,-2.47686 0,0 z m -31.311089,-0.0105 c 1.047393,-1.8325 -0.918134,-0.30354 0,0 z m 40.751419,-0.20129 c -0.17348,-3.25893 -0.20336,2.12291 0,0 z m -8.62679,0.16379 c 0.54444,-1.45676 -0.86367,-0.53039 0,0 z m 13.76738,-0.0109 c 0.24735,-1.36529 -1.42103,-1.64181 0,0 z m 2.22719,-0.0469 c 0.0882,-1.76733 -1.65074,-2.00459 0,0 z m -41.391749,-0.20972 c 0.594328,-1.41724 -0.896468,-0.59249 0,0 z m -17.20991,-0.0683 c 0.956333,-2.30474 -0.362999,-0.7928 0,0 z m 5.50368,0.0382 c 1.040451,-1.14127 -0.693745,-1.11089 0,0 z m 8.75237,0 c 0.861544,-0.81343 -0.952183,-0.79952 0,0 z m -9.71693,-0.18105 c 1.247385,-2.02124 -1.325479,0.0343 0,0 z m 41.622429,-0.0565 c 0.57274,-1.70299 -0.94521,-0.67366 0,0 z m 11.10241,-0.0578 c 0.1405,-1.56128 -1.30859,-0.81969 0,0 z m -7.63532,-0.0869 c 0.56256,-1.26968 -0.98414,-1.20691 0,0 z m 4.9217,-0.0278 c 0.48432,-3.79102 -1.04898,-2.2772 0,0 z m -45.366629,-0.0186 c 0.920674,-1.69083 -0.82429,-0.8401 0,0 z m 9.89898,0 c 0.560959,-0.7167 -0.895545,-0.11633 0,0 z m 16.108989,-0.11539 c 0.24565,-1.92838 -1.10909,-0.39062 0,0 z m 12.07825,0.039 c 0.63975,-1.24233 -0.91543,-0.48674 0,0 z m -33.491629,-0.12558 c 0.523272,-1.55264 -1.107164,-2.45575 -0.271883,-0.0365 z m -8.64663,-0.14269 c 1.12321,-1.5707 -0.514951,-1.96357 0,0 z m 31.158199,-0.0866 c -0.21646,-2.3116 -0.94773,-0.006 0,0 z m -32.553509,-0.009 c 0.435002,-1.55588 0.635043,-5.50522 -0.28235,-2.25392 -0.907459,-1.39972 -1.659548,1.09367 0.241818,0.92978 0.129936,0.24832 -0.735934,1.46466 0.04053,1.32414 z m 8.98221,0.077 c 0.794121,-1.54491 -0.885247,-0.78599 0,0 z m -2.66672,-0.0104 c 1.286972,-1.41826 -0.999434,-0.81083 0,0 z m -8.63771,-0.0764 c 1.371712,-1.3465 -0.944965,-0.69948 0,0 z m 38.162649,-0.11466 c 0.14869,-2.83113 -0.20568,-0.87302 0,0 z m 1.22304,0.0191 c 0.10417,-1.85448 -0.49947,0.28929 0,0 z m 2.57166,0.0874 c 0.33263,-2.0764 -0.84757,-0.61105 0,0 z m -17.91698,-0.03 c 0.87795,-0.6077 -0.63604,-0.61979 0,0 z m -1.56702,-0.0382 c 0.98803,-1.45338 -1.00251,-0.89393 0,0 z m 0.92747,-0.12358 c 0.61074,-1.58624 -1.10036,0.0842 0,0 z m 30.61444,0.0194 c 0.067,-2.67598 -1.23069,-0.58612 0,0 z m -37.875509,-0.0186 c 0.897705,-1.07299 -1.058209,-0.93175 0,0 z m 5.216529,-0.0196 c 0.41103,-0.94078 -0.924689,2.1e-4 0,0 z m 19.26337,-0.0186 c 0.70743,-1.46476 -0.94893,-0.65073 0,0 z m -39.271029,-0.0764 c 0.666484,-1.1149 -0.907852,-0.24831 0,0 z m 34.206389,-0.0196 c 0.13309,-1.68851 -1.09467,-1.05559 0,0 z m -19.988559,-0.0568 c 0.859353,-1.78233 -1.139754,-0.93123 0,0 z m 20.761639,-0.0109 c 0.13978,-2.51207 -0.91983,-0.46056 0,0 z m -19.538599,-0.0273 c 0.457317,-2.6221 -1.071436,-1.9581 0,0 z m 4.957679,-0.0683 c 1.071,-1.34504 -1.05702,-0.98669 0,0 z m -12.181259,-0.0846 c 0.764453,-0.96369 -0.85485,-0.9675 0,0 z m 34.253299,-0.03 c 0.73881,-1.14709 -0.68056,-0.87746 0,0 z m -6.76494,-0.0764 c 0.38705,-2.50154 -0.90768,-0.78542 0,0 z m 17.68716,-0.0278 c 0.25086,-1.60774 -1.22142,-1.05967 0,0 z m -37.493299,-0.0568 c 0.670484,-2.07382 -0.939366,-0.49767 0,0 z m 3.687729,-0.0578 c 0.78401,-1.56592 -1.09691,-0.36653 0,0 z m -8.093949,-0.0104 c 0.83334,-1.28498 -0.472304,-1.32138 0,0 z m -9.69768,-0.1618 c 1.053814,-1.69223 -0.784581,-1.24704 0,0 z m -4.06151,-0.0102 c 1.104596,-3.11862 2.739833,-6.36721 3.32299,-9.49848 -1.301503,3.04973 -2.558055,6.43509 -3.32299,9.49848 z m 45.626469,0.0109 c 0.58614,-1.16909 -0.84565,-0.45866 0,0 z m -36.289879,-0.0382 c 0.634168,-0.99992 -0.877438,-0.37962 0,0 z m 48.165369,-0.0109 c 0.28693,-2.06898 -1.3413,-1.04815 0,0 z m -36.336779,-0.0851 c 0.770279,-2.03881 -1.222929,-0.0873 0,0 z m 27.393299,0.0129 c 0.7169,-1.52247 -0.87906,-0.35164 0,0 z m 7.8078,0.007 c 0.14472,-1.97664 -1.23728,-0.61444 0,0 z m -23.40155,-0.03 c 2.11571,-1.02504 5.30606,-2.70604 5.69414,-3.72044 -1.30984,-2.05458 0.79341,-12.3277 -1.2181,-5.95062 0.0322,3.99063 -3.09863,6.8021 -4.47604,9.67106 z m 0.21102,-0.43415 c 0.71095,-1.67846 1.65235,-0.0417 0,0 z m 1.12668,-0.48313 c 0.39151,-2.05994 1.13652,0.47151 0,0 z m 0.80262,-0.3822 c -0.24149,-1.7169 1.93272,-1.57079 0,0 z m 0.29143,-1.42361 c 0.55258,-2.70907 2.22222,-1.33919 0,0 z m 1.00805,-0.18163 c 0.47052,-5.66386 1.99921,-0.45941 0,0 z m 1.22304,-0.42042 c -0.79544,-1.2296 1.57113,0.0521 0,0 z m -0.16721,-0.77387 c -0.55587,-3.77126 1.54437,-1.21011 0,0 z m 3.27395,4.01438 c 0.63036,-1.67132 -0.84436,-0.79005 0,0 z m 5.60742,-0.1638 c 0.56631,-2.12872 -0.74941,0.11334 0,0 z m -4.08954,0.0573 c 0.57158,-1.35058 -0.63867,-1.07968 0,0 z m -16.51103,-0.0573 c -2.50796,-3.1417 -4.460424,-7.27576 -4.665149,-11.67512 -1.695518,-3.22341 -0.259911,5.83443 -0.87722,7.48502 0.894322,1.41676 3.528279,3.64576 5.542369,4.1901 z m -0.72141,-0.44985 c -0.60933,-0.88365 1.03234,0.23277 0,0 z m -0.6354,-0.37188 c -1.77127,-1.48289 1.01654,-1.14048 0,0 z m -1.04627,-0.775 c -1.53498,-2.30869 1.0764,-0.57315 0,0 z m -1.05105,-1.1656 c -0.35206,-1.30248 -0.5744,0.13441 0,0 z m 0.51597,-0.36292 c -0.39313,-0.38981 0.28869,0.0626 0,0 z m -2.369639,-0.15203 c -0.341212,-1.50225 1.173999,0.0712 0,0 z m 1.543129,-0.10518 c -0.775919,-0.67339 0.74436,-0.17 0,0 z m -0.726179,-0.0765 c -0.92704,-0.85285 1.122079,-0.40362 0,0 z m 0.993719,-0.15287 c -1.482101,-1.46766 0.85973,-1.22362 0,0 z m -1.643459,-0.45864 c -0.352575,-0.30562 0.322683,-0.26494 0,0 z m 0.5733,-0.15289 c -0.923464,-1.56308 1.175309,-0.0405 0,0 z m 0.482529,-0.92675 c -0.772213,-2.49603 0.6881,-0.11441 0,0 z m -0.707069,-0.0579 c -0.8623,-1.54475 1.110069,-0.22954 0,0 z m -13.26711,5.09329 c 3.950043,-3.21947 3.995736,-9.1013 3.764911,-13.98001 -3.451351,2.5844 -2.635091,8.49066 -3.836272,12.57165 0.04903,0.23157 -0.296326,1.34777 0.07136,1.40836 z m -0.0382,-0.87906 c 0.29083,-2.51532 2.402716,-4.03747 0,0 z m 1.43803,-2.39822 c -0.209071,-1.0894 0.875282,-0.11027 0,0 z m 0.53508,-0.30576 c -0.05425,-0.71495 0.726692,-0.0933 0,0 z m 0.55419,-0.0579 c -0.463531,-1.21497 1.17683,0.0938 0,0 z m -1.62435,-0.0186 c -0.372627,-1.19148 1.219327,-0.29176 0,0 z m 0.77873,-0.48739 c -0.416765,-0.86994 0.803128,-0.29477 0,0 z m 0.90295,-0.31608 c -0.47606,-1.41562 1.069654,0.18921 0,0 z m -1.36159,-0.14256 c -0.713776,-1.37369 1.493388,-0.76268 0,0 z m 0.5733,-0.36308 c -0.268207,-0.98006 0.687232,-0.30842 0,0 z m 0.80262,-0.34398 c -0.633187,-1.67615 1.174819,0.007 0,0 z m -1.23737,-0.52545 c -0.109392,-2.6081 1.064973,-1.23399 0,0 z m 1.20393,-0.44009 c -0.327098,-3.13697 1.19257,-0.1526 0,0 z m -8.83359,6.259 c 1.221909,-1.34308 -0.636125,-1.56856 0,0 z m 40.275669,-0.23751 c 0.40804,-1.92286 -0.7909,-0.42494 0,0 z m 9.44494,-0.005 c -1.43699,-3.51866 -0.62966,-12.60319 -3.66403,-12.31321 -0.052,5.09912 -0.29853,9.22484 3.66403,12.31321 z m -1.18124,-3.06391 c -1.93334,-1.15449 1.37007,-1.29432 0,0 z m -0.97461,-0.28665 c -1.21043,-1.37288 1.41578,-0.4495 0,0 z m -0.74051,-0.20058 c -0.56692,-1.1593 1.0195,-0.22304 0,0 z m 1.39025,-0.7167 c -1.25692,-1.38415 1.50918,-0.35346 0,0 z m -1.42847,-0.0868 c -0.70269,-1.59466 1.21447,-0.0994 0,0 z m 0.66407,-0.0279 c -1.11972,-1.48141 1.60433,-0.23477 0,0 z m 0.68796,-0.80262 c -3.10889,0.58725 -1.20203,-6.68142 -0.94507,-0.88724 0.13176,-1.80654 1.0031,2.16687 0.61435,-1.59755 0.18851,0.72677 0.84965,1.84055 0.33072,2.48479 z m -0.62585,-3.56393 c -0.24949,-0.56182 0.45555,-0.0423 0,0 z m 5.78555,8.62808 c 0.38079,-2.01197 -1.19199,-1.81289 0,0 z m 1.98744,0.0573 c -0.25103,-3.40701 -1.75047,-2.4217 0,0 z m -36.164289,-0.0464 c 0.746603,-1.00239 -0.960257,-1.12669 0,0 z m 39.958989,-0.15288 c 0.60058,-1.82268 -1.07711,-0.39399 0,0 z m -21.33767,-0.10647 c 0.31205,-0.73053 -0.32951,-0.0506 0,0 z m -33.106699,-0.27573 c 0.108766,-3.64833 3.721141,-9.47337 1.287416,-11.81493 -3.290994,2.2002 -5.963707,7.46686 -2.106193,9.7216 0.424443,0.54349 0.175049,1.67301 0.818777,2.09333 z m -0.0635,-2.79134 c -0.504943,-1.00592 1.09822,-0.62881 0,0 z m -0.25321,-1.0989 c -0.967576,-0.75526 0.814053,-0.60894 0,0 z m 0.55897,-0.20058 c -0.164665,-1.53672 0.874623,-0.82826 0,0 z m -1.24693,-0.44917 c -0.788679,-0.99886 1.097395,-0.30904 0,0 z m 0.84562,-0.0292 c -0.593286,-1.29748 1.111805,-0.50201 0,0 z m -1.38069,-0.12373 c -1.187071,-0.94736 1.61716,-1.76037 0,0 z m -1.02717,-0.18203 c -0.06032,-1.24968 1.174628,0.29385 0,0 z m 1.75334,-0.36514 c -0.285441,-0.89792 1.000037,0.015 0,0 z m 1.41414,-0.10257 c -0.368421,-1.86885 1.002606,-1.70012 0,0 z m -2.88083,-0.12413 c -0.01031,-1.25793 1.210025,0.2158 0,0 z m 2.40786,-0.15288 c 0.257302,-1.95995 0.516433,0.6302 0,0 z m -0.64974,-0.26754 c 0.179927,-1.61713 0.945495,-0.22788 0,0 z m -0.65452,-0.16251 c -0.05296,-2.03499 1.365613,-0.42493 0,0 z m -0.62585,-0.20115 c -0.177367,-0.9937 0.880671,-0.0487 0,0 z m 51.305549,6.12946 c 0.54932,-1.68462 -1.05564,-0.80332 0,0 z m -56.230509,-0.22334 c 0.844313,-1.57401 -1.04568,-0.0588 0,0 z m 53.604249,0.0389 c 0.0741,-3.91555 5.26372,-2.76462 1.63868,-6.8896 -1.69026,-5.26384 -5.09417,-4.01894 -3.12051,1.00928 0.58521,1.90155 0.79553,4.21316 1.48183,5.88032 z m -0.20202,-1.73082 c -1.0379,-2.40296 1.59677,-1.79292 0,0 z m 0.50164,-1.92104 c -0.71133,-1.15486 1.29991,-0.42228 0,0 z m -0.64974,-0.11466 c -0.55203,-1.35091 0.98891,-0.0617 0,0 z m 2.4413,-0.12373 c -1.58448,-1.60115 1.65754,-0.17967 0,0 z m -1.93011,-0.40131 c -0.73374,-0.93266 1.21579,-0.37857 0,0 z m 0.75007,-0.01 c -0.40537,-0.9415 1.07939,0.0934 0,0 z m -1.34248,-0.27661 c -0.88626,-0.92555 0.69667,-0.51764 0,0 z m 1.18482,-0.24843 c -0.42581,-1.026 0.93836,0.12632 0,0 z m -0.7644,-0.0573 c -1.10892,-1.22761 1.37463,-0.58263 0,0 z m 1.68168,-0.0382 c -1.25547,-1.30982 1.56876,-0.043 0,0 z m -1.07016,-0.42042 c -0.87625,-0.7822 0.89058,-0.59794 0,0 z m -1.29948,-0.20599 c -0.7593,-1.58945 0.63248,-0.34322 0,0 z m 1.94922,-0.0998 c -1.05305,-1.18045 1.38921,-0.19219 0,0 z m -1.61957,-0.16349 c -1.0933,-2.80324 1.42684,-0.19905 0,0 z m 0.61152,-0.34398 c -0.76438,-2.01097 1.18284,-0.008 0,0 z m 0.85517,-0.18049 c -1.54695,-1.4355 1.01982,-0.93838 0,0 z m -51.960049,6.00819 c 1.122002,-1.42124 -0.680692,-1.28049 0,0 z m 0.49686,0.0306 c 1.291301,-1.2922 -0.670661,-1.44762 0,0 z m 60.799799,-0.19928 c 0.31737,-1.48146 -0.96591,-0.31159 0,0 z m -3.822,-0.0382 c 0.18152,-2.06403 -1.08787,-0.12039 0,0 z m 1.1739,-0.03 c 0.35801,-1.54332 -1.0947,-0.64298 0,0 z M 76.938751,158.23 c 0.833892,-1.5555 -0.944117,0.26479 0,0 z m 63.148609,-0.25834 c 0.52272,-1.19584 -1.01291,-1.09121 0,0 z M 73.489041,157.857 c 1.391607,-1.30806 -1.033205,-0.1864 0,0 z m -1.23196,-0.0662 c 0.465171,-0.66858 -0.680013,-0.0592 0,0 z m 5.53171,-0.002 c 1.081717,-1.34832 -1.165507,-0.29797 0,0 z m 65.233319,-0.0738 c 0.21728,-1.9141 -1.22665,-1.62948 0,0 z m -67.688089,-0.096 c 1.248196,-1.85634 -0.926994,-0.65173 0,0 z m 47.640849,-0.0386 c 3.99458,-0.60008 0.11174,-7.17817 1.19066,-10.94689 -2.50016,-7.03602 -1.83656,4.22318 -1.56029,6.72444 0.14516,1.32674 0.0235,3.22894 0.36963,4.22245 z m -0.0674,-0.71713 c -0.49076,-1.88294 1.39502,-0.60559 0,0 z m 1.66734,-0.60188 c -0.20552,-0.40568 0.34098,0.0993 0,0 z m -0.86472,-0.21985 c -0.64569,-1.06936 1.19905,-0.19875 0,0 z m 0.7644,-0.11466 c -1.06897,-0.81711 0.87419,-0.49213 0,0 z m -1.54314,-0.31523 c -0.40926,-1.66235 1.50131,-0.2103 0,0 z m 0.77874,-0.37273 c -0.74395,-1.13297 1.11978,-0.2275 0,0 z m 0.52074,-0.20142 c -0.5307,-0.71742 0.84047,-0.0205 0,0 z m -1.26126,-0.34313 c -0.62903,-1.455 1.52632,-0.34131 0,0 z m 0.64974,-0.30576 c -0.34005,-1.43084 1.93565,0.1235 0,0 z m -0.67362,-0.56383 c -0.73542,-1.22917 1.68754,-0.4487 0,0 z m 0.68795,-0.28665 c -0.50821,-1.27847 1.74005,-0.0195 0,0 z m -0.75962,-0.54511 c -0.31736,-1.39751 1.42816,0.0834 0,0 z m 1.06539,-0.31484 c -1.25152,-0.37987 1.18821,-0.64894 0,0 z m -1.07016,-0.39708 c -1.14125,-3.56906 1.83448,-1.98747 0,0 z m 1.03194,-0.3291 c -1.03408,-2.84198 0.61461,-3.90207 0,0 z m -47.335449,5.5037 c 1.128207,-0.9284 -0.676861,-1.0151 0,0 z m 64.563969,-0.10423 c 1.10477,-2.55549 -1.45611,-0.97698 0,0 z m 2.66139,-0.0232 c 0.35928,-2.65152 -1.28676,-0.30684 0,0 z m -25.65021,-0.0336 c 1.20784,-2.80108 4.22825,1.748 2.83144,-2.48916 -0.56645,-4.452 0.61816,-10.12241 -1.48666,-13.79588 -1.05976,4.85952 -1.5669,10.46983 -1.49969,15.65316 l -0.0145,0.41715 0.16941,0.21477 z m 0.0512,-0.76568 c -0.34571,-1.91689 1.10103,-0.40781 0,0 z m 2.49863,-0.79315 c -1.21881,-1.77987 0.90788,-0.74898 0,0 z m -1.868,-0.0674 c -0.48213,-1.40466 1.75329,-0.68549 0,0 z m -0.59242,-0.40074 c -0.42681,-2.3711 1.1624,-0.37294 0,0 z m 1.58136,-0.27295 c -0.40005,-0.90951 0.79126,-0.0432 0,0 z m -0.91728,-0.61574 c 0.79425,-2.02821 0.52866,1.2826 0,0 z m 1.47147,0 c -0.42685,-0.89225 1.07389,0.14982 0,0 z m -0.51597,-0.0191 c -0.54469,-1.05467 0.98704,-0.13202 0,0 z m -1.60524,-0.40131 c -0.34978,-1.36326 1.12682,-0.16331 0,0 z m 2.20243,-0.21968 c -0.3723,-0.80164 0.76695,-0.2202 0,0 z m -0.59241,-0.0961 c -0.40927,-1.13277 1.09015,0.0785 0,0 z m -0.8074,-0.0266 c -0.12705,-1.4597 1.22084,0.13716 0,0 z m -0.80262,-0.53667 c 0.18587,-1.69584 0.87137,0.58972 0,0 z m 0.88384,-0.27758 c -0.29492,-1.89376 1.57595,0.0772 0,0 z m 0.79784,-0.18106 c 0.27715,-1.67986 0.45044,0.79712 0,0 z m -1.58136,-0.37256 c -0.17048,-1.66601 1.50086,-0.13062 0,0 z m 0.93162,-0.41095 c -0.39759,-1.60785 1.33407,-0.0541 0,0 z m 0.87906,-0.15288 c -0.81053,-1.23417 1.0768,-0.1462 0,0 z m -1.73423,-0.31523 c -0.37684,-1.48666 1.68025,-0.33664 0,0 z m 0.85995,-0.47832 c -0.24874,-1.43338 1.50361,0.24857 0,0 z m 0.82173,-0.13405 c -0.24849,-1.86768 0.95454,-0.0688 0,0 z m -1.56702,-0.34313 c -0.0681,-2.40036 1.41135,-0.31199 0,0 z m 0.9125,-0.16252 c -0.43957,-2.46026 1.03915,-0.41158 0,0 z m -29.008959,7.01337 c 4.979714,-0.67323 1.723854,-9.41676 2.98072,-14.00754 -3.744299,2.42888 -1.994005,8.58028 -2.979379,12.62748 0.376378,0.14338 -0.630985,1.45808 -0.0013,1.38006 z m 0.10032,-0.73566 c -0.306168,-1.50747 1.002729,-0.53012 0,0 z m 0.62585,-0.73581 c 0.211337,-5.28358 2.020116,-0.64003 0,0 z m -0.49686,-0.3822 c -0.350541,-1.43664 1.168859,-0.23332 0,0 z m 1.79634,-0.17199 c -0.647234,-0.98143 0.996288,-0.0788 0,0 z m 0,-0.64974 c -0.568054,-0.67332 0.831788,-0.21834 0,0 z m -1.65779,-0.20058 c -0.304291,-1.11897 1.032286,0.0164 0,0 z m 1.60524,-0.45864 c -0.605859,-1.60037 1.198303,0.0382 0,0 z m 0.0908,-0.86958 c -0.773902,-1.59546 1.142711,-0.57889 0,0 z m -0.87428,-0.10559 c -0.163797,-1.94577 1.547726,0.14141 0,0 z m 0.9125,-0.96457 c -0.822323,-1.62493 1.548453,-0.21548 0,0 z m -0.72618,-0.0382 c -0.597944,-1.80716 1.172342,0.08 0,0 z m 0.10033,-0.96498 c -0.468341,-1.37706 0.849235,-0.14547 0,0 z m 0.74051,-0.0288 c -0.759236,-1.83633 1.037127,-1.10192 0,0 z m 1.73082,6.03057 c 1.441303,-2.60309 4.319398,1.54534 3.091462,-2.8591 -0.862621,-4.06502 0.997109,-11.28045 -1.671182,-13.55587 -1.799029,5.08278 -1.355528,11.025 -1.42028,16.41497 z m 2.97024,-0.71799 c -1.048144,-1.15352 0.558517,-1.21411 0,0 z m -2.82828,-0.42042 c 0.327733,-2.62091 1.305163,0.37396 0,0 z m 2.03044,-0.64112 c -0.625542,-0.77839 0.825118,-0.0605 0,0 z m 0.7214,-0.1615 c -1.944188,-1.50093 0.561108,-5.92198 0,0 z m -1.5288,-0.26754 c -0.840308,-0.93098 1.497638,-0.17068 0,0 z m -0.81695,-0.16235 c -0.304094,-1.50386 1.348154,-0.37514 0,0 z m 0.93161,-0.44917 c -1.122781,-1.36919 1.370407,-0.31014 0,0 z m -0.77873,-0.69743 c -0.328132,-1.875 1.351607,-0.03 0,0 z m 0.89339,-0.10519 c -1.244267,-1.20765 1.516103,-0.88813 0,0 z m -0.83606,-0.94643 c -0.308431,-1.8216 1.264076,-0.0675 0,0 z m 0.74529,-0.21049 c -0.645747,-1.40617 1.098408,0.002 0,0 z m 0.93639,-0.59258 c -0.998547,-1.15039 1.07106,-0.17893 0,0 z m -1.54791,-0.24741 c -0.264124,-1.46654 1.084914,-0.0264 0,0 z m 0.68796,-0.11551 c -0.50917,-1.03754 0.973186,0.12606 0,0 z m 0.85517,-0.44832 c -0.807414,-1.86741 0.792745,-0.38167 0,0 z m -0.79784,-0.25847 c -0.443164,-1.01182 0.730948,-2.04605 0,0 z m -0.5733,-0.1911 c -0.321226,-0.8692 0.600615,-0.15572 0,0 z m 43.920399,6.53697 c -0.0262,-2.08022 -1.08074,0.16524 0,0 z m -2.22718,-0.0295 c 0.4611,-1.1575 -1.05149,-0.53134 0,0 z m -62.898569,-0.25945 c 1.973314,-1.50068 -1.230132,-0.62554 0,0 z m 4.01177,0.11676 c 1.266617,-1.30964 -0.447561,-1.58921 0,0 z m -5.56077,-0.17175 c 1.34925,-1.73838 -0.829226,-0.36676 0,0 z m 3.71602,-0.12509 c 1.111144,-1.21999 -0.91862,-0.34166 0,0 z m 61.544589,-0.0278 c -0.16562,-3.13489 -1.15181,-2.00879 0,0 z m -26.7453,-0.16331 c 0.87658,-1.60484 -1.57823,-1.34792 0,0 z m 28.58855,-0.17199 c -0.0422,-2.18899 -1.32569,-0.6485 0,0 z m -35.29615,-0.0191 c 1.59777,-1.93328 -1.35994,-1.25458 0,0 z m -26.898909,-0.043 c 1.076054,-0.73366 0.157725,-2.19176 0,0 z m 62.950399,-0.21449 c 0.20461,-1.66245 -1.1357,-0.87416 0,0 z m -1.90194,-0.16294 c -0.31643,-2.40884 -2.00357,-2.37399 0,0 z m -34.86554,-0.1618 c 1.33368,-2.40791 -1.58285,-1.34739 0,0 z m 8.15996,0 c 0.41001,-2.30019 -1.2028,-0.74847 0,0 z m 30.22182,-0.23951 c -0.0768,-2.11725 -1.23009,-0.18751 0,0 z m -66.025019,-0.0688 c 1.164061,-1.6767 -1.127574,-0.55579 0,0 z m 67.335419,0.003 c 0.10043,-1.63011 -1.11997,-0.78415 0,0 z m -71.147229,-0.0772 c 0.692738,-0.83454 -0.809884,-0.21954 0,0 z m 4.80553,-0.0293 c 1.222766,-1.14992 -1.010162,-0.69958 0,0 z m -1.67149,-0.0854 c 1.305184,-2.28794 -1.373879,0.49648 0,0 z m 37.666519,-0.34326 c 0.61173,-2.42757 -1.44316,-1.35979 0,0 z m 26.25713,-0.26754 c -0.13021,-1.46665 -1.20112,-0.66797 0,0 z m 3.0849,-0.22112 c 0.0975,-3.89061 -1.16919,-0.49555 0,3e-5 z m -68.766889,0.10552 c 1.510924,-2.18692 -1.530736,0.96326 0,0 z m 28.913509,0.0192 c 1.38968,-2.77805 -1.55689,-1.45242 0,0 z m 33.12666,0.0282 c 4.07869,-2.57112 -1.63997,-6.03234 -2.35145,-4.54316 0.77271,1.49133 1.51254,3.20933 2.35145,4.54316 z m -0.20543,-0.77473 c -1.71415,-3.16738 1.32998,-0.0321 0,0 z m 0.3822,-0.57358 c -2.62972,-3.58091 1.73204,-1.0355 0,0 z m 0.45386,-1.26976 c -1.77543,-1.85587 2.20057,-0.70667 0,0 z m -25.19516,2.41878 c 0.79138,-2.49492 -1.2341,-1.28563 0,0 z m 29.20007,0 c 0.34657,-1.1431 -1.62581,-2.09936 -0.42906,-0.46263 z m -67.860309,-0.15361 c 1.012355,-0.91382 -0.845389,-0.63183 0,0 z m 7.56829,-0.0375 c 0.857967,-3.07676 5.546094,-8.73277 0.155925,-4.40519 -2.837745,0.20789 -1.442525,3.38097 -0.155925,4.40519 z m -0.0252,-0.72746 c -0.738777,-2.82511 2.348199,-3.32332 0,0 z m -0.67362,-0.99914 c -0.106369,-2.39348 1.903031,-2.30151 0,0 z m -0.26754,-0.91728 c -1.095012,-1.19898 1.425886,-1.28078 0,0 z m 25.320729,2.63296 c 0.92329,-3.16692 -2.40013,-1.86826 0,0 z m 37.19896,-0.33306 c 0.0675,-1.36776 -1.17989,-0.62964 0,0 z m -68.127839,-0.15361 c 2.612148,-3.13925 0.462804,-2.25012 0,0 z m 38.353749,0 c 0.5816,-2.05734 -1.16326,-0.53772 0,0 z m 1.96857,-0.40107 c 0.66663,-1.80059 -1.35967,-2.74618 0,0 z m -11.88689,-0.13423 c 1.42851,-2.84008 -1.65053,-1.61838 0,0 z m 41.22047,-0.0762 c 0.11319,-1.91981 -1.4261,-1.10999 0,0 z m -68.165339,-0.3822 c 1.427107,-1.33225 -1.086529,-0.1193 0,0 z m 66.350119,-0.0953 c 0.25167,-1.47897 -1.738,-1.71281 0,0 z m -68.299339,-0.40154 c 0.567753,-0.91868 -0.874508,0.085 0,0 z m 0.64974,-0.11466 c 0.228573,-0.89595 -0.766975,0.3261 0,0 z m 29.457419,0.0471 c 1.74317,-1.8504 -1.6851,-1.53671 0,0 z m 9.50858,-0.12285 c 0.56646,-2.046 -1.2217,-2.13297 0,0 z m -4.65465,-0.10647 c 2.31459,-2.17596 2.19368,-5.13363 0,0 z m 2.93475,-0.008 c 0.90531,-2.52261 -0.82783,-1.09523 0,0 z m -6.09681,-0.15361 c 0.30254,-2.02074 -1.2304,-1.08328 0,0 z m 2.01546,-0.097 c -0.72109,-3.06381 -2.49702,-4.41281 0,0 z m -5.54189,-0.65848 c 1.62678,-2.64772 -1.31052,-2.20322 0,0 z m 13.12856,-0.0191 c 0.51797,-2.07604 -1.26515,-1.89828 0,0 z m -7.54844,-0.0382 c 0.70209,-3.06071 -1.37533,-2.35937 0,0 z m 5.11328,-0.14196 c 0.75284,-1.72813 -0.99384,-0.40301 0,0 z m -8.2091,-0.25935 c 0.89971,-2.30208 -1.08591,-1.56074 0,0 z m 4.57734,-0.1046 c 1.28761,-2.53355 -0.53253,-1.29878 0,0 z m 28.96069,0.0363 c -6.72549,-3.31305 -11.22878,-9.37411 -15.72732,-15.1052 -2.19281,-2.33813 -5.73661,-4.2858 -1.5953,-0.93123 5.52644,5.64786 9.63884,12.91922 17.32262,16.03643 z m 3.0303,-0.16926 c -0.64275,-1.4264 -2.40411,-0.94174 0,0 z m 0.86814,-0.15958 c -0.46807,-1.58091 -2.32845,-0.8541 0,0 z m -33.8907,-0.12762 c 0.46911,-0.87174 -0.54375,-1.24075 0,0 z m -4.62498,-0.11502 c 1.15394,-2.58402 -1.58421,-0.28631 0,0 z m 10.50043,0.0664 c 0.20651,-2.10822 -0.79503,-1.31743 -0.26044,-0.0892 z m 28.94345,-0.0846 c -0.60345,-1.54232 -2.40386,-1.06141 0,0 z m 1.9383,-0.0491 c -0.7131,-1.60558 -2.24941,-0.84465 0,0 z m -68.738639,-0.0956 c 2.003094,-1.45126 -0.869058,-0.86377 0,0 z m 3.09582,-0.0382 c 6.250234,-2.10281 10.015877,-7.84866 14.54911,-12.13752 -1.989958,2.65964 -8.036641,9.14276 -1.605813,4.97555 2.639915,-1.70535 3.723263,-4.98402 3.098245,-6.52929 1.454112,-1.86068 8.389017,-6.94416 2.834356,-3.68983 -6.024177,5.07324 -9.820454,12.64058 -17.151828,16.21643 l -0.956048,0.63883 z m 64.563969,-0.10423 c -0.73635,-1.52477 -1.98262,-0.50225 0,0 z m -68.538849,-0.0104 c 2.267562,-1.46719 -0.954061,-0.73032 0,0 z m -1.911,-0.15287 c 1.980746,-1.87072 -1.35573,-0.43638 0,0 z m -0.97461,-0.0573 c 1.793493,-1.59802 -1.325456,-0.0165 0,0 z m 32.697199,0.0191 c 0.85002,-2.13589 -1.05836,-2.0438 0,0 z m -30.565799,-0.12358 c 2.109558,-1.41515 -1.575451,-0.24405 0,0 z m 3.65893,-0.0293 c 4.125698,-1.10531 2.729403,-1.62892 2.620954,-2.11703 0.376723,-1.68506 -4.471836,1.87852 -0.970484,1.01094 -0.462561,0.46639 -1.352555,0.52372 -1.65047,1.10609 z m 68.069779,-0.0573 c 0.0186,-1.48826 -2.21923,-0.99656 0,0 z m -33.92891,-0.0469 c 0.86916,-2.89178 -1.23496,-0.23186 0,0 z m 3.4867,-0.0486 c 0.78776,-1.94251 -1.11492,-2.45254 0,0 z m 22.21673,-0.0464 c -2.10405,-1.21525 -4.14011,-1.59802 -0.77299,-0.29027 z m -36.55814,-0.23006 c 1.25605,-2.64396 -1.582772,-1.18231 0,0 z m 45.14672,-0.20129 c -0.45768,-1.38443 -2.03568,-0.83324 0,0 z m -75.484469,-0.0382 c 1.973248,-1.5737 -1.11276,-0.26533 0,0 z m 66.857669,0.0109 c -2.42516,-3.08924 -3.94767,-1.01002 0,0 z m -0.77532,-0.41223 c -1.05147,-0.20224 0.0753,-0.4248 0,0 z m 2.59896,0.39126 c -1.89903,-2.25607 -5.08468,-2.08415 0,0 z m 1.41414,-0.0959 c -1.07067,-1.82086 -6.17996,-5.32518 -1.61896,-1.25832 0.49921,0.46754 1.02839,0.90929 1.61896,1.25832 z m -9.13458,-0.005 c -4.57689,-2.75477 -11.32387,-8.64883 -12.77007,-11.13627 2.47769,4.52741 4.18242,5.68311 8.85086,9.29848 0.0851,-0.42896 3.2547,1.01295 3.91921,1.83779 z m 15.16465,-0.0511 c -1.00007,-2.19956 -2.0485,-0.84349 0,0 z m -32.44876,-0.1911 c -0.11217,-3.5814 -2.14821,-6.07043 -0.62069,-1.77802 0.64834,0.32537 -0.16961,1.81032 0.62069,1.77802 z m -12.31726,-0.0486 c 1.51457,-1.64196 -1.45306,-1.00974 0,0 z m 10.99916,-0.0846 c 0.71082,-2.20453 -1.23828,-2.20172 0,0 z m 34.6077,-0.0578 c -0.47332,-1.66856 -2.07444,-0.97711 0,0 z m -10.18413,-0.0196 c -1.59675,-1.46764 -0.93011,-0.12488 0,0 z m -33.90262,-0.095 c 0.75493,-2.38192 -0.98502,-0.42923 0,0 z m -33.357359,-0.0104 c 1.417889,-0.85747 -1.100544,-0.41388 0,0 z m 38.822819,-0.14245 c 1.28468,-1.23835 -0.41238,-2.82032 0,0 z m -2.36095,-0.0104 c 0.54353,-2.785 -1.37738,-1.87991 0,0 z m -21.670729,-0.15288 c 1.757869,-1.52039 4.255359,-1.8862 3.6698,-1.4277 3.097186,-2.02352 3.377866,-2.08569 6.550604,-5.63369 2.12791,-2.20299 5.164115,-7.01837 1.280595,-2.23796 -2.460733,4.66597 -8.054053,6.63124 -11.500999,9.29935 z m 63.330499,0.0191 c -0.17536,-1.75303 -2.29301,-1.26165 0,0 z m 2.38875,-0.0573 c -0.076,-1.86787 -5.15242,-4.214 -1.44087,-1.12388 l 0.67184,0.67802 z m -43.437,-0.0573 c 0.22152,-0.56523 -0.32095,-0.1647 0,0 z m 34.16047,0.0109 c -1.25131,-1.29467 -5.62814,-3.97511 -1.90821,-1.27345 l 0.9401,0.67688 z m -72.265799,-0.03 c 2.020404,-1.17883 -0.532764,-0.96687 0,0 z m 71.719799,-0.0573 -0.10399,-0.0166 z m -31.15797,-0.0469 c 0.7987,-1.70447 -0.32865,-1.36769 0,0 z m 31.00509,-0.0588 c -1.64872,-1.54853 -3.49206,-2.01268 -0.66678,-0.30371 z m -34.60819,-0.028 c 0.19352,-2.20368 -1.05219,-1.58209 -0.22294,-0.19121 z m 43.04612,-0.066 c -0.62943,-2.03236 -2.95351,-1.54049 0,0 z m -80.587199,-0.15324 c 2.471241,-1.29941 -1.35296,-0.52319 0,0 z m 38.649459,-0.16135 c 0.81952,-3.28023 -0.57846,0.30421 0,0 z m 0.43133,0.0667 c 0.46083,-1.22333 -0.50199,-0.57702 0,0 z m -30.395799,-0.0683 c 4.438386,-3.40949 -4.224628,0.83452 0.1147,-0.83105 -0.317656,0.72339 0.557975,-0.26289 -0.1147,0.83127 z m 24.021259,0.0191 c 1.81895,-1.77709 -1.55351,-1.42951 0,0 z m -0.93639,-0.0573 c 1.51328,-2.15284 -1.467575,-1.7752 0,0 z m 14.74399,-0.0854 c 0.34697,-2.12533 -1.16371,-1.18153 0,0 z m 0.99445,9.1e-4 c 0.50158,-1.69301 -1.19614,-2.05337 0,0 z m -48.187209,-0.14469 c 1.623567,-1.41672 -1.41923,0.31422 0,0 z m 34.809719,0.0486 c 0.76413,-1.97907 -1.04438,-1.78252 0,0 z m 9.39169,0.0129 c 0.86535,-2.36636 -0.99001,-1.97482 0,0 z m 21.90005,-0.0382 c -1.21221,-1.00737 1.19241,-2.60164 2.21967,-2.74644 -2.82484,-1.91005 -4.64381,1.80074 -2.21967,2.74644 z m -58.495679,0.0149 c 1.447714,-0.60301 4.939247,-3.93754 0,0 z m -9.12478,-0.20041 c 1.473773,-1.70404 3.355205,-3.7152 0.17966,-1.30926 -0.34788,-1.47021 -1.384443,2.39017 -0.17966,1.30926 z m 77.060799,0.13217 c -0.98749,-2.20531 -4.90406,-4.17285 -1.18484,-0.96346 -2.30979,-1.92938 -5.05719,-3.54927 -1.48622,-0.50379 0.81094,0.61611 1.70128,1.14376 2.67106,1.46725 z m -76.248859,-0.14197 c 2.016618,-1.41676 -1.33878,-0.27236 0,0 z m 37.092489,0.0191 c 0.84825,-1.60354 -0.90081,-2.2466 0,0 z m -21.900049,-0.11466 c 2.416585,-0.9459 3.493111,-4.01751 0.45855,-2.59913 0.159533,-3.4743 -6.539853,2.43519 -1.177194,-0.0589 2.927827,0.43981 -1.239824,2.35756 0.718644,2.65806 z m 68.199099,-0.0702 c -0.76503,-1.64895 -1.89052,-0.58681 0,0 z m -77.027919,-0.19729 c 1.623411,-0.90437 3.428667,-2.88916 0,0 z m 77.295459,-0.33779 c -0.60874,-1.52754 -1.64605,-0.36182 0,0 z m -77.418799,-0.034 c 2.819254,-1.51532 4.166989,-2.98549 0.447404,-0.72018 -0.798526,-0.78709 -0.965061,1.03557 -0.447404,0.72018 z m -0.18242,-0.11616 0.182347,-0.0838 z m 25.33985,-0.27647 c -1.541135,-2.76752 1.617326,-12.76802 -0.53493,-5.42732 -0.14751,1.81877 -0.04233,3.68446 0.53493,5.42732 z m 44.812929,-0.14349 c -0.9937,-1.33354 -1.44952,-0.68748 0,0 z m -70.764299,-0.0476 c 2.861262,-1.03806 4.541727,-2.627 0.677454,-0.58464 z m 30.777279,-0.0471 c 0.75092,-2.39298 -1.24112,-1.94115 0,0 z m 47.68015,0.039 c -0.38442,-1.73201 -1.78101,-0.44711 0,0 z m -49.07495,-0.096 c 0.81303,-2.46967 -1.2934,-0.321 0,0 z m 23.07444,-0.0104 h -0.0333 z m -8.34064,-0.0278 c 0.21137,-2.23542 -1.43195,-1.82143 0,0 z m -2.33142,-0.0764 c 0.32409,-2.02983 -1.05934,-0.21931 0,0 z m 30.31714,0.0371 c -1.45544,-1.49156 -3.19696,-2.04183 -0.6133,-0.35028 z m -29.18988,-0.13289 c -0.47326,-4.32443 -1.64495,-3.38894 0,0 z m 29.69766,9.1e-4 c -2.67738,-2.13008 -3.51863,-3.21086 -0.1979,-0.54492 2.62543,1.12698 -8.04142,-6.00091 -3.08833,-1.68814 1.01643,0.85373 2.14145,1.56614 3.28623,2.23306 z m -79.364849,-0.15394 c 1.371713,-1.42157 -1.113345,0.13396 0,0 z m 33.83393,0.1048 c 0.892079,-4.68623 -1.138217,-3.43305 0,0 z m 1.146599,0 c 1.43991,-2.12546 -1.512613,-1.71832 0,0 z m 50.70923,-0.19979 c -0.43892,-1.71545 -1.79839,-0.29434 0,0 z m -78.437829,-0.1633 c 2.634998,-1.27473 0.05534,-0.5622 0,0 z m 2.82828,0.0382 0.07356,-0.10217 z m 55.858499,-0.0764 c 1.20502,-0.8271 -1.36643,-0.56315 0,0 z m -26.23801,-0.0764 c 0.571,-2.27056 -0.85592,-2.30574 0,0 z m 0.88997,-0.0464 c 0.24809,-2.23226 -1.2068,-0.88198 0,0 z m 2.98935,0.008 c 1.00404,-0.84007 -0.006,-2.25925 0,0 z m 0.79394,-0.0278 c 0.76049,-1.90354 -0.36457,-0.60244 0,0 z m -1.23347,-0.0295 c 0.51597,-0.9172 -0.27216,-0.62475 0,0 z m -4.97728,-0.0469 c 0.50572,-2.08725 -1.39354,-1.86406 0,0 z m 2.87519,-0.009 c 0.0148,-1.95889 -0.60157,0.1201 0,0 z m 45.38622,-0.002 c -0.004,-1.49263 -2.69162,-0.69426 0,0 z m -80.930809,0 c 2.137827,-0.63578 1.565153,-3.09575 0,0 z m 41.096909,-0.0278 c 0.83512,-2.66127 -0.71011,-1.67718 0,0 z m 14.96361,-0.0568 c -1.06723,-1.89816 -7.52692,-9.97152 -5.24534,-3.94113 1.2971,1.79419 3.12444,3.25656 5.24534,3.94113 z M 65.147911,143.5724 c 1.745403,-1.78454 -1.3078,0.31049 0,0 z m 5.07339,0.0857 c 2.944211,-1.71849 4.351874,-3.39809 0.561743,-0.67244 l -0.640973,0.72895 0.0793,-0.0566 z m 82.841809,-0.0956 c -1.28483,-2.15971 -2.98065,-1.23758 0,0 z m -45.80664,-0.0573 c -0.2187,-0.78857 -0.80148,0.0563 0,0 z m 10.30028,0 c 1.34946,-2.98948 -1.25377,-10.50501 0.15751,-3.59978 0.0542,1.16801 -0.0758,2.63075 -0.15751,3.59978 z m 37.23718,-0.19929 c -0.17066,-2.08452 -6.67928,-5.70227 -2.21998,-1.8249 0.84471,0.35369 1.2216,1.73325 2.21998,1.8249 z m -1.08976,-0.13427 c -0.82378,-1.72274 -2.27636,-0.74336 0,0 z m -5.95363,-0.04 c -1.56616,-1.85287 -6.72695,-4.75023 -2.28852,-1.48411 0.75527,0.50633 1.52932,0.98379 2.28852,1.48411 z m -16.47282,-0.0468 c 1.66532,-0.88616 -1.2441,-0.79884 0,0 z m -67.056959,-0.22932 c 1.726878,-1.26876 -1.096417,-0.38207 0,0 z m 52.505339,-0.0471 c 0.34124,-2.05167 -1.17707,-0.5164 0,0 z m 12.25843,-0.0402 c -1.14619,-1.11494 -2.33677,-3.24657 -0.0382,-1.32687 -0.44039,-0.83093 -0.11574,-1.51276 0.66551,-0.95827 3.35755,0.91069 -6.01224,-4.76256 -2.60701,0.11846 0.5636,0.79793 1.13903,1.63003 1.97965,2.16668 z m -27.76682,-0.0273 c 1.62085,-2.56336 -1.386386,-1.89127 0,0 z m 31.72258,-0.0191 c 0.76779,-1.59687 -1.81999,-0.0881 0,0 z m -17.47472,-0.14196 c 0.6093,-1.2345 -1.50329,-2.48947 0,0 z m -31.179319,-0.03 c 0.473173,-1.85147 -3.045014,-0.7642 0,0 z m 53.079369,-0.008 c -3.00393,-3.36666 4.75481,-2.63359 -0.50868,-3.22141 -1.36288,1.11685 -2.03357,2.77483 0.50868,3.22141 z m -73.928359,-0.0491 c 2.20339,-1.46432 -1.1596,-0.34499 0,0 z m 84.976019,-0.14405 c -1.83708,-2.37431 -6.49731,-3.33306 -1.64868,-0.66943 1.21674,0.97234 0.0564,-0.63821 1.64868,0.66943 z m -61.604509,-0.0662 c 2.808617,-1.24979 3.917133,-6.90173 -0.228886,-3.51717 -2.453729,1.65301 -0.126911,0.48915 -0.323008,1.37328 3.245366,-2.52747 -0.986666,1.90134 1.207001,0.58546 -0.09838,0.0942 0.207854,1.07592 -0.655107,1.55843 z m 13.674069,-0.0278 c 1.31508,-3.09833 -1.393716,-0.36421 0,0 z m -38.659959,-0.13423 c 2.646474,-2.60394 2.152217,-3.40542 -0.08312,-1.33905 -0.03566,0.37732 -0.984825,1.70056 0.08312,1.33905 z m 1.04108,0.0283 c 3.057648,-1.29376 -1.278933,-0.67344 0,0 z m 15.07778,-0.0573 c 6.262982,-1.65692 -1.7957,-4.60838 -1.056004,-2.2418 3.200207,-1.00658 1.468429,0.8381 1.056004,2.2418 z m 24.452099,-0.0278 c 0.70249,-1.65299 -0.71818,-3.58422 0,0 z m 10.98825,-0.0382 c 0.80841,-2.32194 -0.9343,-1.93459 0,0 z m 42.01244,-0.18242 c -0.12521,-0.38902 -0.16968,0.43229 0,0 z m -85.899409,-0.13378 c 2.551333,-1.17021 5.896256,-3.6382 1.503372,-1.02635 -0.409628,0.44046 -1.171078,0.48703 -1.503372,1.02635 z m -0.68796,-0.0764 c 2.52504,-1.05286 5.816369,-3.98811 1.567561,-1.18552 -0.193558,0.39 -1.652224,0.61921 -1.567561,1.18552 z m 43.819209,-0.0382 c 0.9194,-1.8051 -1.03153,-1.9508 0,0 z m -44.392509,-0.1911 c 3.635397,-1.65389 4.311816,-3.00873 0.43958,-1.54817 -2.026939,1.41488 2.039154,-0.2687 -0.43962,1.54817 z m 47.526549,0 c 0.54537,-1.15424 -1.10015,-1.70346 0,0 z m 38.34556,-0.008 c -0.46514,-1.40722 -2.30773,-1.11047 -0.3027,-0.0737 z m -50.90951,-0.13427 c 0.65824,-2.35273 -1.01881,-0.93277 0,0 z m -3.392889,-0.12509 c 1.417489,-1.55951 -0.675038,-1.64134 0,0 z m 49.475769,-0.0531 c -1.33316,-1.8039 -2.50184,-2.64348 -5.2104,-3.95021 3.70731,2.44826 -2.26797,-1.10993 1.21737,1.17465 1.34288,0.85659 2.75062,2.04409 3.99303,2.77556 z m -40.30298,-0.0424 c 0.50976,-0.8895 -0.28045,-1.09847 0,0 z m 0.56438,-0.028 c 1.44555,-3.12285 -0.77645,-1.12144 0,0 z m -3.91682,-0.0375 c 0.51705,-2.23629 -0.88942,-2.18392 0,0 z m 4.75839,0 c 0.6141,-2.19653 -0.48538,-0.64972 0,0 z m 6.32492,-0.0578 c -0.27361,-2.26936 -1.1147,-0.58304 0,0 z m -17.543209,-0.0576 c 1.807309,-3.0533 -1.286645,-0.40176 0,0 z m 5.848379,-0.0375 c 0.35131,-2.26933 -1.26679,-3.61813 0,0 z m 2.20584,-0.10648 c 0.50724,-0.92471 -0.34487,-0.0708 0,0 z m 43.13125,-0.14396 c -1.89798,-1.9159 -8.05053,-4.8749 -2.71229,-1.70995 0.88315,0.60173 1.76514,1.21113 2.71229,1.70995 z m -16.20527,-0.0854 c 1.7136,-1.04362 -1.61906,-0.94654 0,0 z m -27.76681,-0.31667 c -0.20442,-1.10228 -0.12619,0.94606 0,0 z m 0.45864,0.0873 c -0.2865,-1.63232 0.26537,0.44711 0,0 z m 47.259,0.15289 c 0.0977,-2.58239 -1.74172,-0.3215 0,0 z m -72.407749,-0.26755 c 1.28365,-1.55322 -2.130463,-0.61613 0,0 z m -19.87439,-0.19109 c 2.053107,-1.5594 -1.468176,-1.68687 0,2e-5 z m 51.951009,-0.2957 c 0.43451,-1.74273 -1.32415,-1.62834 0,0 z m 18.6331,0.02 c -2.58127,-1.88799 2.71596,-0.74512 -1.87816,-2.28305 -4.06305,-0.41631 0.85195,2.26838 1.87816,2.28305 z m -65.634619,-0.0491 c 2.293124,-1.34639 5.908753,-3.85795 1.42553,-1.33789 2.997455,-1.52381 3.917911,-2.66647 0.233917,-0.86101 -5.233546,3.41003 0.687517,-0.11907 0.109218,0.35608 -0.94825,0.50019 -3.301456,2.59815 -0.765143,0.82887 -0.320783,0.35046 -0.755173,0.59814 -1.003522,1.01395 z m 2.65628,-2.35053 0.129776,-0.14709 z m 45.080469,2.2932 c 0.63156,-1.25587 -1.08953,-2.01867 0,0 z m 20.82989,0 c 1.26306,-1.0494 -1.68379,-0.62279 0,0 z m 19.33931,-0.0382 c -0.0101,-1.42051 -2.42879,-0.63973 0,0 z m -53.25954,-0.15286 c 1.13401,-1.78108 -0.68678,-1.24419 0,0 z m 39.72967,-0.14396 c -2.33761,-1.75494 -0.61163,-4.62613 1.87328,-2.5502 -2.66353,-3.54814 -6.13241,1.22191 -3.17277,1.77652 -3.53676,-1.2988 -0.46566,0.40163 1.20424,0.8215 l 0.0956,-0.0484 z m -24.56453,-0.0171 c -0.67399,-3.10753 -0.86144,0.48449 0,0 z m -14.3243,-0.0682 c 0.75145,-1.8491 -0.50249,-1.59373 0,0 z m 31.62703,0 c 1.24749,-1.00631 -1.56241,-0.58376 0,0 z m -53.030219,-0.0382 c 1.193074,-1.29642 -1.885831,-0.70716 0,0 z m 18.73754,-0.20045 c 1.964129,-2.65604 -1.756104,0.31445 0,0 z m 15.747309,0.17266 c 0.10785,-2.13888 -1.21983,-0.70709 0,0 z m -31.561019,-0.10598 c 4.094459,-0.90502 2.551728,-3.37235 -0.747173,-1.34297 2.916698,0.0953 1.255519,-0.5136 0.747173,1.34297 z m 71.318479,0.0191 c -0.10659,-1.19755 -1.86338,-0.36258 0,0 z m -54.25326,-0.0531 c 1.27123,-2.28357 -1.107422,-0.26721 0,0 z m -18.574909,-0.0233 c 0.983146,-1.14381 -1.592948,-0.28625 0,0 z m -21.11654,-0.21021 c 2.555617,-1.99731 -1.183856,-0.27129 0,0 z m 51.673409,-0.0191 c 0.65851,-1.91508 -0.86839,-0.75607 0,0 z m 38.99991,-0.051 c -2.1878,-2.4183 -8.99999,-4.94304 -2.79572,-1.8138 5.3568,3.31253 -8.25429,-4.45007 -1.68776,-0.43675 1.72451,1.03349 3.13957,1.81295 4.48348,2.25055 z m -48.65045,-0.14009 c 0.6436,-2.90889 -0.93581,-0.37642 0,0 z m -28.512109,0 c 6.333753,0.59638 1.050352,-6.94086 -2.41883,-2.70537 4.860089,-0.21263 3.428855,-0.17917 2.41883,2.70537 z m 80.969029,-0.0764 c -0.34077,-1.40722 -2.04739,-0.32174 0,0 z m -94.947349,-0.27645 c 2.215705,-1.7519 -1.075693,-0.1941 0,0 z m 98.043169,0.009 c 0.45623,-2.34674 -5.95496,-4.85854 -1.6521,-1.42833 l 0.7892,0.81166 z m -48.08074,-0.0764 c 1.28468,-3.00527 -0.26595,-4.52414 0,0 z m -1.03194,-0.0573 c 0.85664,-1.72519 0.12974,-2.27274 0,0 z m 42.4351,-0.0273 c -1.63407,-1.76211 -2.69362,-2.15843 -2.22017,-1.5014 -2.75642,-1.53841 1.67794,1.58507 2.22017,1.5014 z M 105.20278,137.879 c 0.8292,-5.06806 -1.78189,-1.41234 0,0 z m -0.46883,-0.48794 c 0.0889,-0.33708 0.0889,0.33711 0,0 z m 51.51234,0.48867 c -0.94683,-1.18597 -1.74899,-0.21071 0,0 z m -48.72228,-0.0491 c 0.3492,-1.49497 -0.22343,-1.47935 0,0 z m 17.9825,0.0191 c 3.5744,-1.10552 6.0794,-6.21267 0.3022,-5.12478 -2.17169,1.06612 -3.05721,4.16667 -0.3022,5.12478 z m 2.44608,-3.28692 c -2.68568,0.10546 -0.11698,-1.26777 0.53571,-0.15917 z m 0.80262,-0.53508 c -7.34473,-1.83388 2.4087,-1.09939 0,0 z m -63.426059,3.78378 c 2.357379,-1.30221 2.516244,-1.23227 1.52898,-1.18459 5.165498,-2.1662 -1.336422,0.29199 -0.03358,-0.65758 4.819285,-1.85324 -0.374335,-0.7071 -2.147418,0.67599 3.039777,-1.60131 -1.603142,1.82673 1.416274,0.48315 0.715726,-0.0272 -1.091482,0.52148 -0.764254,0.68303 z m -5.1597,-0.11466 c 1.987427,-1.165 -1.099415,-0.40693 0,0 z m 46.027769,0.03 c 0.6167,-1.92392 -0.64886,-0.62397 0,0 z m 2.95113,-0.0109 c 0.70932,-1.75976 -0.40652,-0.33284 0,0 z m -2.08298,-0.0682 c -0.0596,-0.45249 -0.1318,0.23982 0,0 z m 50.11681,-0.0169 c -0.29899,-1.48878 -2.5004,-0.56205 0,0 z m -20.40078,-0.0869 c 1.00552,-1.23394 -1.65684,-0.10864 0,0 z m -30.92816,-0.0464 c 0.33532,-1.32816 -0.34624,-3.13175 -0.33738,-0.73333 z m 7.88151,-0.0491 c 0.13963,-1.6099 -0.99699,-0.54235 0,0 z m -7.12802,-0.15288 c -0.0286,-0.68488 -0.18015,0.49316 0,0 z m -47.010579,-0.0573 c 3.206851,-0.8077 -0.645561,-1.06359 0,0 z m -2.17854,-0.0573 c 1.234623,-1.4661 5.575489,-4.32523 1.356445,-2.02227 -0.313606,0.14627 -2.508746,1.6846 -1.356445,2.02227 z m 33.63358,-0.0573 c 5.094761,-4.7404 -9.388564,-6.79599 -3.99809,-2.08378 1.247049,0.65093 2.547771,2.08873 3.99809,2.08378 z m -3.61179,-2.80917 c -1.3728,-0.93054 2.677616,-0.54506 0,0 z m -0.0573,-0.89817 c -0.351475,-0.96317 1.41724,0.14104 0,0 z m 14.820669,3.67954 c 1.17652,-1.79227 -0.74768,-0.83048 0,0 z m -22.846859,-0.0104 c 1.290698,-1.39087 -1.851054,-0.62195 0,0 z m 21.891359,-0.066 c 1.17096,-1.9152 -0.83293,-0.12837 0,0 z m 13.41571,-0.0186 c 0.26428,-1.22557 -0.99265,-0.56985 0,0 z m 19.21373,-0.0601 c -1.99003,-1.83624 3.1075,-2.52571 -1.4976,-2.57461 -4.10803,1.40457 -0.37912,2.40909 1.4976,2.57461 z m -74.968489,-0.16107 c 2.766191,-1.24873 -1.085488,-0.6207 0,0 z m 22.24403,0.0382 c 3.604245,0.35226 5.847585,-3.0141 0.95512,-3.0946 -4.607599,1.64062 4.102414,0.79961 -0.95512,3.0946 z m 65.184169,-0.0955 c -9.04857,-4.01831 -18.98943,-5.43318 -28.68555,-7.0719 -6.24166,-0.51945 4.48518,1.74798 6.23246,1.70906 7.60611,1.14251 15.20347,2.76222 22.45309,5.36284 z m 6.50832,-0.0273 c -2.19107,-2.20004 -3.45668,-2.2586 -3.2388,-1.82558 0.54445,0.53578 2.33821,1.23721 3.2388,1.82558 z m -37.61938,-0.24024 c -0.78845,-1.95947 -1.75896,-0.82599 0,0 z m 0.54527,-0.028 c -0.0293,-1.69456 -1.54912,-0.57311 0,0 z m 21.7752,0.0471 c 0.8617,-1.33902 -1.77208,-0.20258 0,0 z m -1.59527,-0.20024 c 0.3462,-1.72626 -1.71902,0.38347 0,0 z m -71.271129,-0.0291 c 1.096804,-0.26198 -0.183705,-0.23311 0,0 z m 15.43219,-0.0278 c 1.11612,-1.37543 -1.75623,-0.77197 0,0 z m 36.833639,-0.0295 c -0.4949,-1.9136 -0.42761,-0.20523 0,0 z m -16.75946,-0.0191 c 1.50411,-1.31257 -0.335196,-1.53892 0,0 z m 4.35708,-0.13376 -0.0183,-0.1557 z m -25.864739,-0.028 c 0.420265,-1.72478 -1.524215,0.3871 0,0 z m -15.06886,-0.0293 c 3.49109,-1.96019 5.908864,-4.68532 0.249671,-1.65691 -2.825837,1.85987 5.506168,-2.35104 0.867277,0.20899 -3.097317,2.03721 2.330405,-1.18747 -1.116948,1.44792 z m 1.93418,-1.57725 0.21873,-0.152 z m 1.04698,-0.92616 0.162259,-0.0133 z m 91.555959,2.42696 c -0.25015,-1.43645 -2.00519,-0.83881 0,0 z m -56.78447,-0.14244 c 1.41833,-1.83316 -0.69931,-0.38115 0,0 z m 53.00069,-0.001 c -2.17948,-1.75524 -10.01975,-4.23764 -3.95173,-1.33475 3.26989,1.88162 -0.48806,-0.75343 1.95066,0.43447 0.66232,0.30992 1.30738,0.66173 2.00107,0.90028 z m -5.19791,-2.30225 0.052,-0.0204 z m 6.07697,2.22495 c -2.42201,-2.05883 -10.45082,-4.24283 -3.52108,-1.66704 1.19958,0.46098 2.40682,1.20283 3.52108,1.66704 z m -17.19899,-0.12285 c 1.47847,-1.11428 -1.65468,-0.84255 0,0 z m -80.300179,-0.22932 c 2.111852,-1.17334 -0.652213,-1.01222 0,0 z m 50.889899,0 c 4.38475,-0.74138 -7.20042,-1.24931 -1.87266,-0.22642 l 0.92746,0.2035 z m 28.18724,-0.0764 c 1.10345,-0.965 -1.48008,-0.59119 0,0 z m -58.715029,-0.20024 c 0.650779,-2.09158 -2.000243,0.28955 0,0 z m 80.358459,9e-4 c -0.81639,-1.29218 -1.77076,-0.28211 0,0 z m -14.44715,-0.15288 c -3.98677,-1.29673 -0.75544,-4.2762 1.93836,-2.65895 -2.43662,-2.4131 -5.2364,-1.59928 -4.66344,1.3048 -0.65068,0.11054 2.28383,1.51241 2.72508,1.35415 z m -81.725239,-0.0874 c 2.618536,-1.32327 8.438265,-3.52152 2.38901,-1.4137 -0.605069,0.278 -2.484134,1.01509 -2.38901,1.4137 z m 17.09439,-0.12372 c 0.671921,-1.51792 -1.579347,0.26203 0,0 z m -8.05537,-0.12472 c 5.854444,0.46209 3.65114,-6.98049 -0.850331,-3.59035 -3.046705,0.81584 6.763378,0.4849 1.719416,2.71046 0.06222,0.22225 -1.94149,0.86226 -0.869085,0.87989 z m -9.55499,0 c 2.649243,-1.57272 9.818693,-4.01446 3.108423,-1.80147 -1.063516,0.34061 -2.703335,1.48905 -3.108423,1.80147 z m 97.136079,-0.0382 c -1.01182,-1.42055 -2.34965,-0.46031 0,0 z m -101.474049,-0.0382 c 2.388594,-0.93989 -0.639523,-1.01096 0,0 z m 77.739439,-0.0573 -0.39773,-0.0504 z m -25.4354,-0.22932 c 1.38962,-1.68898 1.04762,-4.23067 -1.29988,-2.29372 2.64358,-0.98777 0.69028,1.47662 1.29988,2.29372 z m 49.96444,-0.14195 c -1.15856,-1.66512 -2.37231,-0.17037 0,0 z m -53.39332,-0.22932 c 2.13949,-3.90554 -2.31125,-1.09586 -0.71793,-0.92778 0.80245,-2.94956 -0.0753,0.76712 0.71793,0.92778 z m -49.257359,-0.03 c 2.461977,-0.95609 -0.786942,-0.85957 0,0 z m 19.62596,-0.15288 c 1.339352,-0.0114 -0.169254,-0.27951 0,0 z m 0.91728,-0.11466 c 7.83202,-1.92398 16.016683,-1.9282 23.764959,-4.14379 -7.037301,0.3372 -13.931413,2.39907 -20.93062,3.31092 -0.909391,0.19779 -2.203697,0.5509 -2.834339,0.83287 z m 61.591499,-0.0764 c 1.22406,-0.83276 -1.44397,-0.63498 0,0 z m 20.50502,-0.0382 c -0.63704,-1.24945 -2.00503,-0.29724 0,0 z m -103.098399,-0.0382 c 1.921146,-1.21847 -1.312482,-0.35854 0,0 z m 3.95577,-0.0382 c 2.582751,-1.3409 4.319122,-2.53483 0.700688,-0.55342 z m 94.938429,-0.0191 c -0.10956,-1.81152 -9.20846,-2.71672 -2.86888,-1.19356 0.97309,0.36007 1.86,0.92474 2.86888,1.19356 z m 4.93038,-0.17199 c -0.18476,-1.32305 -2.77052,-0.62223 0,0 z m -22.9511,-0.0682 c -3.09636,-1.01387 3.62148,-3.91945 -1.55478,-2.71154 -3.26962,2.00425 -0.74013,2.51439 1.55478,2.71154 z m 25.85582,-0.10374 c -0.93844,-2.86283 -5.00125,-3.40788 -0.95934,-0.56112 -0.85095,-1.16322 1.10056,1.36217 0.95934,0.56112 z m -102.888189,0.0955 c 1.667266,-1.03634 8.927364,-4.63415 2.945906,-2.14962 -1.689631,0.54166 -4.60874,2.44877 -1.225706,0.85043 -0.322529,0.55581 -1.622796,0.48377 -1.7202,1.29919 z m 50.881219,-0.0278 c 0.86772,-1.78013 -0.42872,-2.43476 0,0 z m -34.752389,-0.0486 c 1.001112,-1.22361 -1.374465,-0.29395 0,0 z m 24.051289,-0.008 c 0.24823,-0.423 -0.27814,-0.0739 0,0 z m 56.0769,-0.0399 c -2.16799,-1.9529 -11.19754,-3.02033 -3.62819,-1.39463 1.23061,0.41456 2.34568,1.12478 3.62819,1.39463 z m -100.786089,-0.0283 c 1.866361,-0.84269 -0.695047,-0.88021 0,0 z m 48.558489,-0.26595 c 0.88968,-2.69534 -1.12595,-0.61513 0,0 z m -26.524669,0.15129 c 5.894881,0.63485 2.848961,-4.56548 -1.35826,-3.55027 -2.149966,0.63411 5.621882,1.34453 2.454983,2.28358 -3.038746,-0.46838 -1.458214,-0.15422 -1.096723,1.26669 z m 83.281339,-0.0764 c -0.15476,-1.32964 -2.7091,-0.36484 0,0 z M 55.487531,132.38488 c 2.142714,-1.28085 -1.334817,-0.30845 0,0 z m 4.18509,0 c 1.479642,-0.82536 5.802512,-2.62532 1.794223,-1.05847 l -0.953616,0.48891 z m 79.440229,-0.11466 c 3.54947,-0.68426 -2.73809,-0.94081 0,0 z m 22.49246,-0.0382 c -0.2496,-1.0819 -1.68927,-0.29658 0,0 z m -4.07043,-0.16279 c -2.01938,-2.11309 -11.32994,-5.25007 -4.00119,-2.16051 1.51358,0.40289 2.62254,1.51898 4.00119,2.16051 z M 54.895121,131.86904 c 1.717042,-0.88607 -1.190785,-0.40879 0,0 z m -1.72921,-0.1813 c 6.357616,-3.54882 -1.588262,-1.16753 0,0 z m 1.06036,-0.14356 c 1.979452,-1.01269 -1.196651,-0.46935 0,0 z m 21.9956,0 c 0.855371,-1.19335 -1.632014,-0.22513 0,0 z m -16.93145,-0.19111 c 2.171298,-1.19783 9.573847,-5.1203 3.40723,-2.50544 -2.4883,1.00855 -4.448409,2.90417 -0.873562,0.65928 6.116737,-2.73417 -1.832791,0.77248 -2.533668,1.84616 z m 5.65656,-3.18317 c 0.317797,-0.45909 0.453681,0.13559 0,0 z m -0.64974,3.18317 c 2.787403,-0.63789 1.879905,-1.60632 0,0 z m 76.420849,-0.26753 c 0.92836,-1.1542 -1.65181,-0.37451 0,0 z m 9.28745,0.008 -0.2679,-0.0372 z m 12.89925,-0.008 c -0.58091,-1.36885 -1.94419,-0.53852 0,0 z m -32.88179,-0.043 c 4.63409,1.11481 7.62113,-5.94704 1.34707,-4.37557 -4.34821,-0.4485 -7.92645,4.82689 -1.34707,4.37557 z m 0.98721,-0.56852 c -3.46331,-0.9494 6.33302,-0.97197 0,-5e-5 z m -0.49686,-1.10838 c 0.50051,-1.03532 6.51373,-0.76969 2.01183,-0.0449 l -1.04734,0.0232 z m 0.26754,-0.84084 c 2.12572,-1.8682 4.80704,0.61497 0,0 z m -1.69601,-0.83121 c 2.29851,-1.97004 8.43113,0.40923 2.41965,-0.0556 -0.80617,0.0347 -1.61319,0.0325 -2.41965,0.0556 z m -22.51634,3.31551 c 1.40969,-3.76375 -1.34817,-1.75998 0,0 z m 32.81185,0 c 1.31246,-1.07825 -1.59364,-0.31945 0,0 z m -29.11343,-0.0854 c 1.03433,-1.91571 -0.0771,-3.55654 -1.74961,-1.63519 2.19364,-1.40684 0.98679,1.02086 1.74961,1.63519 z m 46.69462,-0.0593 c -2.5416,-1.43684 -5.04054,-1.87318 -0.92112,-0.38144 z M 87.114571,130.818 c 6.836189,-1.34286 -1.014295,-5.56321 -4.42961,-4.75253 -6.267997,0.86253 2.195193,5.48045 4.42961,4.75253 z m -2.48431,-0.80262 c -3.121936,-0.58316 2.464238,-0.14042 0,0 z m 0.0764,-0.53508 c -2.970815,0.25969 -0.06431,-1.7254 0,0 z m -0.15288,-0.7644 c -6.724017,-0.6332 3.124872,-1.04858 0,0 z m -0.91728,-0.88862 c -3.215337,-1.19296 4.645623,-0.0953 0,0 z m 0.49686,-0.85039 c -5.266968,-0.79058 2.98502,-0.3201 0,0 z m -7.2618,3.76467 c 1.331593,-0.73877 -1.331976,-0.79724 0,0 z m -1.64346,-0.0382 c 1.362934,-0.75807 -1.343326,-1.11886 0,0 z m -16.77857,-0.0956 c 2.420979,-1.32349 9.437616,-4.24335 2.90366,-2.11489 -3.021923,1.15009 -2.64688,1.27662 0.24984,0.31915 -1.110915,0.45066 -2.347294,0.85372 -3.1535,1.79574 z m 4.3953,-2.25498 0.215408,-0.015 z m 94.842879,2.23587 c -2.34072,-1.376 -8.97204,-3.11285 -3.03519,-1.08621 1.00498,0.38037 2.01124,0.75924 3.03519,1.08621 z m -10.7485,-0.0278 c -3.05037,-1.01961 -1.83745,-4.1814 1.30743,-2.86671 -4.24023,-2.79454 -7.21038,2.26687 -1.30743,2.86671 z m -93.764039,-0.0678 c 1.370317,-0.89997 -1.202308,-0.41757 0,0 z m 10.63608,0.0109 -0.145275,0.002 z m 99.715929,0 c -0.71566,-1.44324 -1.79215,-0.39986 0,0 z m -5.38083,-0.13601 c -1.71937,-1.93772 -11.10409,-3.37281 -4.47216,-1.76591 1.59654,0.30647 2.93948,1.27913 4.47216,1.76591 z m 1.1466,0.0191 c -2.25576,-2.09279 -12.84557,-3.96593 -5.20595,-2.09796 1.84374,0.43513 3.42651,1.50581 5.20595,2.09796 z m -53.55439,-0.036 c 1.1457,-2.90695 -1.32845,-1.44191 0,0 z m 5.57963,-0.2107 c 0.92443,-1.95907 -0.64712,-1.55712 0,0 z m -6.73714,-0.0295 c 1.26111,-2.04256 -0.68307,-2.42035 0,0 z m -36.164789,-0.0851 c 4.248264,0.24572 6.588815,-4.21728 1.466448,-3.62105 -6.367614,0.44823 5.483818,1.02477 -0.822758,2.86495 0.110745,0.0131 -1.427872,0.49021 -0.64369,0.7561 z m -15.79528,-0.12509 c 2.186523,-1.19015 -1.270626,-0.5087 0,0 z m 111.307009,-0.10423 c -0.61759,-1.25575 -1.69131,-0.19207 0,0 z M 57.895341,129.44201 c 2.047163,-1.04421 10.971728,-3.28034 4.591344,-1.88361 -1.607481,0.40184 -3.208657,0.94889 -4.591344,1.88361 z m 106.624829,-0.16179 c -0.78861,-1.26647 -1.34817,0.26798 0,0 z m -112.147619,-0.0484 c 2.623256,-1.65798 -1.604815,-0.11109 0,0 z m 100.652319,-0.0191 -0.23956,-0.0345 z m 6.70761,-0.24843 c 1.20041,-0.80014 -4.97805,-2.70905 -9.07757,-3.24704 2.46738,0.63803 5.45154,1.50453 1.12754,0.66847 2.76161,0.49748 5.33724,1.70079 7.95003,2.57857 z m -2.19765,-1.18482 c -2.03002,-0.55779 0.80004,-0.36929 0,0 z m -15.63197,1.08927 c 1.20533,-0.72813 -1.35986,-0.66615 0,0 z m 23.35241,-0.0573 c -0.61349,-1.33585 -2.08008,-0.20295 0,0 z m -113.551569,-0.0191 c 1.660054,-0.83431 -0.884141,-0.78161 0,0 z m 4.7775,-0.1146 c 0.283284,-0.1101 -0.275951,0.0291 0,0 z m 17.78272,-0.18068 c 1.021925,-1.66072 -1.525332,-0.39997 0,0 z m -17.32408,-0.0104 c 2.576787,-1.22665 10.309608,-3.50453 3.394383,-1.51529 -1.17718,0.35659 -2.469263,0.63332 -3.394383,1.51529 z m -1.03194,-0.0764 c 2.954597,-1.22532 10.208662,-3.56408 3.193035,-1.67872 -0.435066,0.14016 -4.001404,1.62389 -3.193035,1.67872 z m 110.064629,-0.0854 c -0.91512,-1.33018 -1.75493,0.16747 0,0 z m 2.045,-0.0189 c -1.47232,-1.80147 -7.08795,-2.83771 -1.95379,-0.64733 l 0.96099,0.42918 z M 50.939301,128.18087 c 2.22041,-0.99808 -1.358353,-0.40471 0,0 z m 88.058839,-0.11466 c 1.88314,-1.22929 -1.77371,-3.26205 -1.15897,-0.16467 0.35406,0.0932 0.7807,0.35977 1.15897,0.16467 z m -63.502499,-0.0382 c 4.684278,0.5781 2.717804,-3.66621 -0.79461,-2.17832 -0.554513,2.68924 2.117943,-0.30745 1.99818,1.25696 1.470435,0.35329 -2.153409,0.43265 -1.20357,0.92136 z m 41.411349,-0.0382 c 8.55592,-0.65408 16.96227,-2.93075 25.60751,-2.38691 -8.59184,-1.11724 -17.09551,1.41391 -25.62714,2.14717 -1.37187,-0.17531 -0.47101,0.5443 0.0196,0.23974 z m -6.61206,-0.0764 c 1.53993,-3.21673 -3.1895,-2.98778 -0.55374,-1.64342 0.33864,0.46063 -0.0137,1.29465 0.55374,1.64342 z m -3.40977,-0.0464 c 1.61799,-2.44868 -1.71489,-2.94685 -0.9773,-0.2481 0.54005,-1.94447 0.62586,-1.17542 0.6388,0.14207 z m 54.37612,-0.0778 c -2.25822,-1.9322 -7.8214,-3.0508 -1.9096,-0.98046 0.64122,0.28352 1.18126,0.87974 1.9096,0.98046 z m -61.419509,-0.01 c -1.158571,-1.07055 -7.846568,-1.02465 -11.04559,-1.8823 3.778588,-4.75972 -7.670766,-9.88884 -6.516355,-2.3786 -1.357062,2.04494 10.61443,2.07214 3.608613,1.80546 -4.910366,-1.15405 -15.107275,-0.4446 -16.725715,0.51686 7.381468,-1.29116 14.926312,-0.73092 22.15476,1.12022 2.828491,0.4011 5.692164,0.45093 8.524287,0.81836 z m -14.60003,-3.32514 c -4.055906,-0.63384 2.965022,-0.38887 10e-5,-1.5e-4 z m -0.30576,-0.80261 c -5.127039,-0.62358 4.089013,-0.53728 0,-4e-5 z m 0.91728,-0.84084 c -3.623544,0.36978 -2.524523,-1.93922 0,0 z m -0.22932,-0.84084 c -4.257774,0.30419 0.05268,-1.70099 0,0 z m -1.94445,-0.98465 c 1.027997,-1.23562 2.401117,0.51411 0,0 z m 2.63241,-0.23839 h 0.15144 z m -0.64975,-0.22932 c -4.600986,0.44098 0.665756,-1.25663 0,0 z m -35.79301,7.22358 c 2.901962,-0.68871 -1.13144,-0.81113 0,0 z m -1.3377,-0.0764 c 5.740328,-3.40574 0.970044,-2.64807 0,0 z m 92.645239,-0.0382 c 1.46653,-0.68924 -1.43529,-0.66628 0,0 z m -29.84981,-0.13377 c 0.29924,-2.74942 -1.08685,-1.86188 0,0 z m 31.14929,0.0191 c 1.1002,-0.86703 -1.45826,-0.49126 0,0 z m -86.022259,-0.0464 -0.11034,-0.004 z m 111.009209,-0.3447 c -0.63836,-1.14573 -1.72203,-0.0155 0,0 z m -93.802029,-0.14389 c 1.46056,-1.46228 -1.878221,-0.71089 0,0 z m -18.82334,-0.0382 c 2.830243,-0.79715 10.087348,-3.85088 3.275257,-1.46641 -1.070582,0.32697 -2.701533,0.99832 -3.275257,1.46641 z m 107.436369,-0.0191 c -0.6569,-1.16548 -9.35436,-3.3096 -8.30244,-2.92749 2.29778,0.66933 3.16898,1.0491 0.27574,0.42557 2.65413,0.87531 5.40098,1.66942 8.0267,2.50192 z m -4.50996,-1.66256 c -2.12482,-0.56504 0.79978,-0.0448 0,0 z m -53.10666,1.60683 c 1.07149,-2.0081 -0.64267,-2.34342 0,0 z m 63.17763,-0.15448 c -0.39966,-1.09051 -1.39249,-0.16654 0,0 z M 54.111561,126.59457 c 1.662604,-1.31352 11.558559,-2.7931 7.09058,-3.05557 -0.753389,-0.42326 -9.404599,2.33263 -7.0905,3.05557 z m 4.99863,-0.0464 -0.149629,9.9e-4 z m 0.37128,-0.14469 c 0.885472,-0.27862 -0.370504,-0.0232 0,0 z m -10.75893,-0.0764 c 3.678981,-1.6767 -1.111537,-0.49477 0,0 z m 102.811749,0 h -0.18949 z m -91.555959,-0.0764 c 2.3684,-0.52605 0.995616,-0.62776 0,0 z m 108.402059,-0.12357 c -0.60019,-1.06776 -1.47558,-0.0733 0,0 z m -19.5215,-0.18218 c -4.52841,-0.80317 -0.40751,-2.98036 -3.6e-4,-2.99947 -4.90063,-1.56873 -5.30502,3.97259 3.8e-4,2.99947 z m -21.44141,-0.0764 c 3.65729,-0.60897 7.24399,-0.47406 5.78003,-4.66344 -1.55782,-4.48279 -9.21879,2.6527 -5.78003,4.66344 z m 2.71362,-0.84084 c -0.184,-0.83833 1.44691,0.10348 0,0 z m 1.911,-0.49687 c -4.40923,0.35949 -1.26957,-1.83406 0.91733,-0.44836 l -0.39586,0.34061 z m -1.911,-1.10837 c 0.98204,-2.5177 4.38729,1.07407 0,0 z m -0.68795,-0.80262 c 1.64681,-1.9019 4.90367,0.18991 0.88614,-0.0869 z m 0.15699,-0.90888 c 2.37005,-1.84302 5.47698,0.0897 0,0 z m -0.42454,-0.73458 c 2.51836,-1.79818 4.66719,0.18533 0.49696,-0.0383 l -0.49696,0.0383 z m -80.911699,4.73928 c 2.805897,-0.87678 -1.0975,-0.79758 0,0 z m 13.66365,-0.0573 -0.115361,0.0145 z m 81.323929,0.0109 -0.50355,-0.0545 z m 25.74043,-0.15361 c -0.69807,-1.15188 -1.67656,-0.0244 0,0 z m -102.592629,0.009 c 2.95528,-0.34506 8.838546,-1.3361 5.26537,-2.18505 -0.179602,-3.13416 -9.4521,0.44127 -2.803592,-0.27316 1.771948,1.75533 -3.196061,1.19731 -2.461778,2.45821 z m 97.155199,-0.1638 c -2.42457,-1.22769 -12.4721,-3.37113 -5.21697,-1.30671 1.77241,0.28808 3.50525,0.77248 5.21697,1.30671 z m 8.10263,-0.15685 c -2.08517,-2.20023 -6.49432,-2.68907 -1.22566,-0.41139 l 1.0728,0.44546 0.15288,-0.034 z m -123.890059,-0.0233 c 2.032053,-0.89264 -1.047628,-0.64953 0,0 z m 122.131939,-0.0382 c -0.39438,-1.15027 -1.98519,-0.33155 0,0 z m -15.23066,-0.20202 c -1.82131,-1.30889 -3.79347,-1.19315 -0.70177,-0.19667 z m -11.77175,-0.0273 c 1.36683,-0.63573 -1.33058,-0.8631 0,0 z m -35.9928,-0.066 c 0.87826,-1.21813 -0.75356,-0.86224 0,0 z m 2.82804,-0.17222 c 0.55786,-2.52186 -2.15196,-1.02928 0,0 z m -57.340159,0.009 c 2.732974,-1.12059 10.280064,-2.79553 10.025507,-2.85154 -3.649069,0.65307 -9.609943,1.25887 -10.025507,2.85154 z m 58.142779,-0.0471 c 0.5619,-1.96697 -1.41192,-2.34542 0,0 z m -63.493569,-0.0293 c 2.722371,-0.88981 -1.522314,-0.45492 0,0 z m 92.874549,0 c -0.21275,-0.73718 -3.70929,-3.0782 0.37819,-2.51549 -2.34201,-0.51993 -1.20014,-1.59005 -4.7722,-0.60899 -1.27366,2.41892 2.86009,2.98377 4.39401,3.12448 z m -1.77245,-2.79953 0.0172,-0.063 z m 24.58295,2.75176 c -3.24288,-1.21542 -2.96574,-0.63328 0,0 z m 1.51652,-0.058 -0.43695,-0.22757 z m -57.81664,-0.0943 c 1.04474,-1.49548 -0.84189,-0.29978 0,0 z m -31.541679,-0.0293 c 3.606751,1.91383 9.037197,-5.13079 2.71365,-3.82163 -1.361583,0.1447 -6.240837,1.35508 -2.426144,0.74944 -0.183461,0.71431 6.851949,0.35431 0.742982,1.36151 2.672448,-0.0296 -1.265697,0.72779 -0.05266,1.1958 0.272365,-0.0697 -3.045849,0.60263 -0.97783,0.51488 z m 1.75812,-0.69888 0.08831,-0.0435 z m -31.77991,0.66065 c 4.980771,-2.33529 -1.788773,-2.00813 0,0 z m 1.26126,-0.0764 c 2.362693,-0.92492 -1.074636,-0.47563 0,0 z m 125.457079,-0.1146 c 0.0394,-1.31981 -2.1662,-0.3947 0,0 z m -6.42095,-0.1911 c -0.21436,-0.51449 -0.816,-0.0842 0,0 z M 105.031,123.85363 c 1.66403,-1.2213 -0.59776,-0.93148 0,0 z m 55.23656,-0.0295 c -1.91125,-0.76583 -1.06415,-0.0647 0,0 z m 12.01199,-0.10374 c -0.80068,-1.1931 -1.39627,-0.22279 0,0 z m -29.87983,-0.03 c 1.08703,-0.81128 -1.58844,-0.49746 0,0 z m 19.77884,0.008 c -1.83516,-0.66224 -0.86563,-0.003 0,0 z m -18.37376,-0.22744 c 0.58919,-1.68883 -1.91146,0.31231 0,0 z m 20.59052,0.0664 -0.17667,-0.0433 z m -5.71389,-0.14469 c -2.39302,-0.81854 -2.23292,-0.36024 0,0 z m 2.15943,-0.0382 -0.15837,-0.0324 z m 11.91595,-0.036 c -0.94988,-1.34016 -1.59635,-0.006 0,0 z m -120.823789,-0.0486 c 2.181437,-1.59217 8.498281,-3.27529 8.812513,-3.51216 -2.722357,0.12718 -11.830539,2.61045 -9.782822,3.00075 2.45095,-0.93625 6.295792,-2.16984 1.772999,-0.32969 -1.291667,0.36734 -0.84882,0.69751 -0.80269,0.8411 z m 2.33142,-2.10209 0.115447,-0.0299 z m 53.726149,2.09732 c 3.34995,-0.9532 -0.766,-0.89787 0,0 z m 52.62095,0.005 -0.37996,-0.0716 z m 5.23614,-0.0382 c 0.0464,-0.93025 -8.85153,-3.16908 -4.57842,-1.59979 -3.78171,-0.82173 4.58077,1.37325 4.57842,1.59979 z m -5.88588,-0.12558 c -1.93542,-0.72905 -1.76053,-0.25841 0,0 z m -85.641009,-0.11288 c 0.400057,-1.54418 -1.521197,0.38629 0,0 z m 33.126749,0.0282 c -1.29106,-1.24107 -0.60747,0.10353 0,0 z m 9.30657,0.0191 c 8.59635,-3.42107 17.79706,-4.75962 26.93881,-5.57828 -9.13789,0.56051 -18.527,1.59538 -26.93881,5.57828 z m 46.45639,-0.0764 c -1.0961,-0.68143 -0.53382,-0.003 0,0 z m -90.437159,-0.066 c 0.723406,-1.47231 -1.615753,-0.0397 0,0 z m 100.527229,0.0278 c -0.65949,-1.1976 -1.82413,-0.33628 0,0 z m -4.39529,-0.13378 c -2.23764,-1.36577 -12.65734,-3.79284 -5.46968,-1.81945 1.84138,0.52615 3.6637,1.31926 5.46968,1.81945 z m 6.45917,0.0191 c -1.13355,-2.2381 -4.85928,-2.66841 -0.79253,-0.48719 z m -131.228299,-0.0382 c 1.729702,-1.03197 -1.302983,-0.28235 0,0 z m 55.59096,-0.0955 c -7.542313,-3.94398 -16.202288,-5.0565 -24.61464,-5.18611 8.493702,0.24113 16.66508,2.28913 24.61464,5.18611 z m 74.376079,-0.33579 c -0.93974,-1.0342 -2.107,-0.16916 0,0 z m -130.521229,-0.008 c 2.275294,-2.22363 -4.847836,-0.9804 7e-5,-2.3e-4 z m 64.687319,-0.11466 c 2.01815,-1.24265 -3.09783,0.0425 0,0 z m 7.68221,-0.0191 c 1.86124,-0.99322 0.21708,-0.4408 0,0 z m 34.13045,-0.0382 c -5.57863,-1.13976 1.23131,-2.96109 1.62343,-2.73911 -4.84707,-1.08555 -5.42819,0.42727 -6.29659,1.98349 1.35568,0.83924 3.1454,0.50753 4.67316,0.75562 z m -2.36965,-2.15783 c -0.10886,-0.36953 0.32989,0.18666 0,0 z m -100.633199,2.0814 c 4.512359,-1.7524 9.237062,-2.82886 13.89352,-3.91492 -4.597014,0.82323 -10.358766,1.77392 -13.89352,3.91492 z m 52.91556,-0.01 c -1.981613,-2.10832 -11.448489,-6.49625 -4.194183,-2.51922 1.420137,0.80246 2.805725,1.66373 4.194183,2.51922 z m 60.769769,0.0181 -0.23457,-0.0808 z M 40.849231,121.97083 c 1.883238,-1.5436 -1.518209,-0.29777 0,0 z m 127.253429,-0.0382 c -2.26164,-1.41959 -12.53287,-3.54527 -5.36933,-1.64688 1.7999,0.51572 3.57486,1.11319 5.36933,1.64688 z m -8.29374,-0.18291 c -2.99742,-1.45731 -2.5125,-0.72436 0,0 z m 15.97595,-0.0371 c -0.90585,-1.22673 -1.30823,0.0206 0,0 z m -128.667569,-0.0857 c 2.840673,-1.27674 10.42341,-3.53075 3.454369,-1.46568 -1.090011,0.36795 -2.764587,0.97352 -3.454369,1.46568 z m 19.05266,-0.1911 c 4.425863,1.32226 6.208086,-3.25918 1.516609,-2.97026 -2.82372,0.12843 -5.385129,1.25407 -0.916436,0.91393 4.011422,0.73683 -2.206057,2.06481 -0.600173,2.05633 z m 102.593349,-0.0846 -0.0883,-0.058 z m -51.41679,-0.0491 c 1.28487,-0.37022 -0.19753,-0.39136 0,0 z m 59.10362,0.006 c -0.89354,-1.20203 -1.60218,-0.32067 0,0 z m -5.86319,-0.0746 c -2.71142,-1.2538 -5.98341,-2.01099 -2.86401,-0.60646 0.92203,0.32628 1.88525,0.55135 2.86401,0.60646 z m -2.99549,-0.8394 0.0801,-0.0233 z m -23.35718,0.77388 c 1.10111,-3.1712 -1.84479,-2.73141 0,0 z m 24.13592,0 -0.63556,-0.2287 z M 40.696351,121.0916 c 1.133813,-1.54 -1.520264,-0.49541 -0.182493,-0.2727 l -0.126754,0.17347 z m 79.000699,0 c 2.84403,-1.34976 4.71637,-2.63252 0.71679,-0.56059 z m -11.74172,-0.0464 c 0.63374,-2.10871 -0.21601,-2.87861 0,0 z m 2.15942,0 c 0.83608,-1.4646 -1.29594,-1.76933 0,0 z m 67.31358,-0.0683 c -0.95211,-1.10388 -1.34222,-0.0882 0,0 z m -71.7389,-0.0573 c 1.25809,-2.20395 -1.10365,-0.7588 0,0 z m -59.221859,-0.0573 c 2.723812,-0.97014 4.328541,-1.97739 0.59299,-0.47259 z m 124.807339,0.009 c -2.24342,-1.85806 -13.88793,-4.14422 -5.90947,-1.91318 1.99254,0.56315 3.98189,1.15207 5.90947,1.91318 z m -53.14488,-0.0472 c 2.9009,-1.97761 8.63035,-4.02519 10.38403,-4.86955 -3.49217,1.21899 -7.86607,2.5666 -10.38403,4.86955 z m -62.860949,-0.0846 c -0.01895,-0.25393 -0.296993,0.19934 0,0 z m 112.030959,0.008 -0.21963,-0.0231 z m -24.44168,-0.0382 c 1.08146,-0.78039 -1.49959,-0.57767 0,0 z m -71.108279,-0.0382 c 1.111742,-0.96861 -1.454572,-0.4187 0,0 z m 37.321809,-0.0382 c 0.7097,-1.89314 -1.44267,-1.46733 0,0 z m -53.355089,-0.0382 c 0.381208,-0.22732 -0.330042,0.0542 0,0 z m 122.399489,-0.0291 c -0.88499,-1.08657 -1.83741,-0.36296 0,0 z m -132.298459,-0.009 c 4.418391,-1.34244 8.824028,-3.39964 13.103079,-4.34297 3.117899,0.0308 -6.680342,1.82166 -0.443108,0.80092 4.098415,-1.81073 5.933065,1.04036 4.510091,0.92641 2.369979,0.20511 8.472757,-1.39081 2.594644,-1.81384 -3.007276,0.0881 -10.39548,-0.32831 -9.483166,0.6098 -3.202926,0.72021 -9.367758,1.66111 -10.524661,2.97428 2.230202,-1.139 7.682736,-2.11643 2.501806,-0.51716 -0.502535,0.34465 -3.471685,1.11357 -2.258685,1.36256 z m 5.19791,-2.44608 0.160042,-0.0344 z m 0.29038,-0.0488 0.255832,-0.0891 z m 0.70334,-0.19961 h 0.111885 z m -12.51704,2.52252 c 2.171236,-1.33186 -1.725005,-1.04661 -0.209116,0.0432 z m 132.011809,-0.19106 -0.13737,-0.0493 z m 7.2618,-0.0382 c -1.46773,-2.42991 -8.07594,-3.82822 -2.37432,-1.25196 0.76626,0.46261 1.52975,0.93784 2.37432,1.25196 z m -121.482209,-0.0191 c 0.599158,-0.22993 -0.709514,0.0669 0,0 z m 15.57464,0 c 2.785215,0.0568 10.608156,-1.04819 3.66871,-1.86839 -3.38965,-0.68963 -2.279199,1.47785 -1.108,1.25795 -0.784587,1.15216 -3.778232,-1.17427 -2.56071,0.61044 z m 22.62623,0.009 c -1.795917,-1.24445 -9.270522,-3.77131 -3.86056,-1.57495 1.331628,0.41493 2.532301,1.15124 3.86056,1.57495 z m 44.086749,-0.12335 c 1.92404,-0.66471 0.56214,-0.92356 1.62445,-1.39438 -3.1951,-0.71836 -7.22003,1.97118 -1.62445,1.39438 z m 20.16104,-0.15288 -0.15761,-0.0244 z m -116.131409,-0.0764 c 2.596481,-0.97108 -1.097874,-0.0582 0,0 z m 15.116,-0.0382 c 2.189264,-0.0844 6.564476,-1.31984 0,0 z m 13.03301,-0.11466 c 1.002062,-0.82363 -1.497467,-0.68033 0,0 z m -33.17494,-0.0956 c 4.423971,-2.80554 0.445242,-2.07095 0,0 z m 106.701999,-0.0273 c 0.67203,-1.40263 -1.27441,-0.0791 0,0 z m 26.49463,-0.1638 c -1.81849,-1.69721 -11.78825,-3.59466 -5.23786,-1.86954 1.803,0.4291 3.49983,1.35728 5.23786,1.86954 z m -16.3693,-0.21499 c -0.16019,0.13597 -6.22676,-2.21039 -1.05442,-2.02302 6.14018,-0.36279 -12.64148,-0.58806 -4.15148,0.95785 1.6981,0.49785 3.41492,1.06484 5.2059,1.06517 z M 54.761301,118.99003 c 1.453887,-0.40489 -0.712791,-0.0257 0,0 z m 16.55968,-0.066 c 0.47977,-1.44142 -1.591304,0.1455 0,0 z m 36.317669,0.0363 -0.35389,-0.37327 z m -51.367659,-0.10405 c 3.115648,-0.68249 -2.010997,-0.31055 0,0 z m 16.51103,0.0191 c 1.009834,-0.83663 -1.469485,-0.55469 0,0 z m 99.066189,0.008 c -1.52017,-1.04524 -0.41012,0.0857 0,0 z m 0.68796,-0.0382 c -1.9079,-1.1801 -1.91256,-0.53664 0,0 z m 0.46956,-0.32214 c -2.34956,-1.35227 -9.33756,-3.76481 -2.55528,-1.74564 1.08079,-0.22737 -11.84999,-2.9182 -4.35449,-1.09165 -4.19427,-0.69358 4.72979,1.59643 5.89227,2.49844 l 1.0175,0.33886 z m -6.58475,-2.78187 c -0.67992,-0.18546 0.58684,-0.0477 0,0 z M 42.989551,118.4739 c -1.971258,-1.47814 6.043935,-3.12545 0.680324,-1.57352 -1.389373,0.66348 -3.32525,1.37566 -0.680324,1.57352 z m 2.21676,-0.1337 c 0.620254,-0.53773 -0.860401,0.0967 0,0 z m 125.495299,0.009 -0.18058,-0.0726 z m -40.26475,-0.0851 c 3.08317,-1.02227 4.74604,-2.16221 0.51251,-0.86335 -0.59632,-0.43572 -1.67172,1.15494 -0.51251,0.86335 z M 45.894271,118.073 c 3.200575,-1.19603 10.737457,-2.79107 11.360877,-2.96855 -3.595552,0.37131 -9.545952,1.36848 -11.360877,2.96855 z m 40.45584,0 c 3.783981,-0.73131 -7.67382,-2.35864 -2.010435,-0.49349 l 1.034133,0.29224 z m 86.961379,-0.008 c -0.89484,-0.88554 -1.44341,-0.58498 0,0 z m -66.11237,-0.0872 c 1.76182,-2.23943 -1.25676,-0.78966 0,0 z m 1.739,-0.13377 c 0.27686,-2.1501 -1.36871,-0.28706 0,0 z m 52.62892,-0.0382 -0.4008,-0.0969 z m -55.45719,-0.13378 c -1.98519,-3.42362 -9.947903,-5.96228 -10.319228,-7.8929 1.093931,5.23138 8.107248,3.46543 10.319228,7.8929 z m -62.585219,-0.14469 -0.0891,-0.0427 z m 29.52493,0.0109 c 0.935327,0.33533 0.09502,-0.50275 0,0 z m 62.852759,0 c 3.37342,-1.05604 7.4131,-0.64058 4.60072,-1.47771 7.30069,-2.15677 -8.938,0.80738 -4.60072,1.47771 z m -7.91154,-0.0382 c 0.77967,-0.18139 -0.32468,-0.0701 0,0 z m -56.049599,-0.0382 c 0.499638,-0.253 -0.935621,0.064 0,0 z m 0.62244,-0.008 -0.30225,-0.0908 z m 1.365,0.0164 -0.181106,-0.0174 z m 15.02046,-0.0273 -0.472744,-0.1092 z m 3.64318,0.01 c -2.118521,-1.14603 -9.735491,-3.45938 -3.667128,-1.27414 1.11142,0.67996 2.338437,1.25459 3.667128,1.27414 z m 17.750859,-0.076 c 1.99744,-2.57327 12.19298,-5.42496 9.07304,-7.47465 -0.24133,5.31224 -8.38631,3.37122 -9.07304,7.47465 z m 61.84907,0.056 -0.29971,-0.17068 z m -92.263029,-0.0469 c 4.931205,-1.43683 -10.625116,-3.71475 -4.54858,-1.79546 -4.669447,-0.19887 4.168803,1.47939 4.54858,1.79546 z m -35.48725,-0.26754 c 0.503781,-0.16394 5.167927,-1.4238 3.141506,-1.10394 2.200302,-1.09977 7.917857,-2.13249 2.501934,-1.29273 -2.791798,0.80902 -1.897273,0.70153 -5.64344,2.39667 z m 129.214559,-0.12385 c -7.73892,-4.63746 -17.30506,-4.01864 -26.00583,-3.64325 -5.63385,0.65253 -11.38432,1.0284 -16.82271,2.71566 5.1072,-0.68588 12.40071,-2.37434 18.4707,-2.48196 8.18759,-0.31366 16.85602,-0.30913 24.35784,3.40955 z M 42.378031,116.46878 c 9.623069,-4.3282 20.556743,-3.33518 30.82522,-2.74995 3.496862,-0.0703 11.106647,3.27285 12.012614,1.50265 -12.646179,-2.54068 -26.035517,-4.0719 -38.704007,-0.86467 -1.405766,0.51194 -3.215235,0.86631 -4.133827,2.11197 z M 146.1835,116.3159 c 3.45104,-0.94343 10.45042,-0.51116 11.78429,-0.80098 -5.46197,-1.33006 8.76596,0.26406 1.42801,-0.9702 -4.06369,-0.25241 -12.14898,-0.75165 -13.80674,1.72351 l 0.59444,0.0477 z m -76.115099,-0.3822 c -0.03613,-3.34827 -9.490614,-1.32841 -13.154789,-1.89617 -4.379403,0.64512 5.257928,0.32834 1.956279,0.99835 3.771076,-0.16417 7.525862,0.18713 11.19851,0.89782 z m -20.73434,-0.34398 c 0.283284,-0.1101 -0.275951,0.0291 0,0 z m 1.29949,-0.34398 0.170483,-0.0593 z m 82.478709,-0.7644 c 10.33893,-1.69702 20.92067,-2.66372 31.34047,-1.08841 -10.38279,-2.10587 -21.18227,-1.17379 -31.64641,0.019 -0.82493,0.0978 -0.35765,1.28948 0.30594,1.06941 z m -49.628639,-0.34398 c -1.724051,-2.44414 -8.411713,-1.86798 -12.142672,-2.47974 -5.851963,-0.18834 -11.830334,-0.61678 -17.573558,0.74155 9.447136,-0.81224 19.064568,-0.36715 28.3594,1.71869 l 0.67834,0.036 z m 81.332119,-1.911 c -9.00455,-2.79457 -19.14431,-3.93748 -28.11116,-0.51508 9.38433,-0.68296 18.80723,-1.57114 28.11116,0.51508 z m -114.373299,0 c 9.348193,-2.40473 19.021694,-1.36763 28.48497,-0.47746 -4.730866,-3.02089 -11.31029,-2.01453 -16.819193,-1.82876 -3.680139,0.44227 -9.252573,0.61044 -11.665777,2.30622 z m 11.25579,-2.98116 -0.07032,-0.0304 z m 30.27022,67.76403 0.03014,-0.10812 z"
       style="fill:#000000;stroke-width:1"
       id="path826" />
  </g>
</svg>
