<?xml version="1.0" encoding="UTF-8" standalone="no"?>
<svg
   xmlns:dc="http://purl.org/dc/elements/1.1/"
   xmlns:cc="http://creativecommons.org/ns#"
   xmlns:rdf="http://www.w3.org/1999/02/22-rdf-syntax-ns#"
   xmlns:svg="http://www.w3.org/2000/svg"
   xmlns="http://www.w3.org/2000/svg"
   xmlns:sodipodi="http://sodipodi.sourceforge.net/DTD/sodipodi-0.dtd"
   xmlns:inkscape="http://www.inkscape.org/namespaces/inkscape"
   sodipodi:docname="hourglass.svg"
   inkscape:version="1.0 (4035a4f, 2020-05-01)"
   id="svg3057"
   version="1.1"
   viewBox="0 0 210 297"
   height="297mm"
   width="210mm">
  <defs
     id="defs3051" />
  <sodipodi:namedview
     inkscape:document-rotation="0"
     inkscape:window-maximized="0"
     inkscape:window-y="23"
     inkscape:window-x="0"
     inkscape:window-height="943"
     inkscape:window-width="1252"
     showgrid="false"
     inkscape:current-layer="layer1"
     inkscape:document-units="mm"
     inkscape:cy="560"
     inkscape:cx="-458.57143"
     inkscape:zoom="0.35"
     inkscape:pageshadow="2"
     inkscape:pageopacity="0.0"
     borderopacity="1.0"
     bordercolor="#666666"
     pagecolor="#ffffff"
     id="base" />
  <metadata
     id="metadata3054">
    <rdf:RDF>
      <cc:Work
         rdf:about="">
        <dc:format>image/svg+xml</dc:format>
        <dc:type
           rdf:resource="http://purl.org/dc/dcmitype/StillImage" />
        <dc:title />
      </cc:Work>
    </rdf:RDF>
  </metadata>
  <g
     id="layer1"
     inkscape:groupmode="layer"
     inkscape:label="Layer 1">
    <path
       d="m 101.16988,46.727923 c -16.281248,0.486356 -33.377956,1.451502 -47.770787,9.868283 -9.889616,3.809935 -6.34878,14.449452 -6.82463,22.59885 5.415058,5.9689 2.230153,16.055717 6.44397,23.337764 3.704437,10.57426 12.731954,17.68433 20.243737,25.47562 5.690497,6.05767 13.726834,9.77784 18.482633,16.69008 5.354866,7.39586 -0.725086,14.48838 -5.750697,20.06223 -6.413178,9.25016 -16.099109,15.89413 -22.193818,25.4558 -2.201498,2.82897 -8.311824,11.81207 -10.886775,17.42578 -3.446204,8.3438 -1.068811,17.77917 -4.994597,25.52062 -1.845959,8.32692 0.841388,16.98316 10.209144,18.51118 4.57006,1.794 12.058492,5.03321 15.364577,3.68845 5.663186,2.51261 12.516496,2.78422 19.874232,4.02236 16.999251,1.04164 34.358281,0.76699 50.928591,-3.50074 6.39397,-3.30264 19.14453,-3.83917 17.77114,-13.74702 1.82725,-9.21298 -4.27746,-16.66474 -4.34876,-25.78549 -0.10583,-13.46868 -8.74834,-24.53953 -17.54699,-33.87203 -6.18362,-8.00225 -14.86492,-13.63695 -21.32874,-21.3234 -4.07667,-6.33325 -2.84088,-15.46389 3.6416,-19.66409 7.01257,-7.03661 13.88145,-14.20522 21.14892,-20.98519 8.03567,-7.77228 15.21029,-16.92728 17.21918,-28.225465 0.56599,-7.794767 0.95254,-14.391264 3.00356,-21.675511 1.09529,-8.727066 -1.44052,-17.399411 -11.27196,-19.050473 -15.33184,-4.507357 -31.54867,-4.279973 -47.39323,-4.831146 -1.32815,-0.0052 -2.77605,-0.06393 -4.0203,0.0035 z m 7.47623,3.174483 c 13.91565,0.902571 28.42052,-0.112196 41.92692,4.347263 4.08969,0.544032 11.41333,8.670957 3.72086,2.893843 -15.13763,-6.71525 -32.11413,-4.413683 -48.20234,-5.804192 -13.23815,0.286543 -26.691711,0.998027 -39.56041,4.276845 -5.515489,0.666319 -20.656338,7.12419 -12.729171,12.92958 4.825903,2.661651 7.207714,3.955961 9.320179,4.885715 -1.481815,-1.541867 8.12472,1.980626 4.202572,3.040134 6.265513,1.165636 -4.253923,1.791873 2.569915,2.625538 4.987543,4.052523 -15.375667,-2.283478 -5.86211,1.464807 3.299107,0.604852 6.691896,2.211594 1.846985,1.954704 14.421628,3.211011 29.292519,3.026716 43.9803,2.872109 3.33852,-2.663829 11.36605,-2.589154 12.64463,-1.189064 3.77494,0.732851 16.17485,-3.669182 15.46725,-1.336297 -15.87223,3.193778 -32.11452,4.813493 -48.285653,3.542028 C 79.787368,86.289447 69.7608,85.062247 60.32517,82.379687 54.388149,81.094259 48.406751,77.607073 49.598242,70.94532 48.52318,64.587881 51.70192,58.535616 58.593569,56.531621 c 11.526914,-4.259287 23.988723,-5.197816 36.16242,-6.199881 4.61634,-0.306714 9.307771,-0.460098 13.890121,-0.429334 z M 97.983569,52.678 c 2.873781,1.696635 -7.940919,1.594097 0.6582,1.76014 7.524321,0.847607 -8.647917,1.729604 0.40157,1.655854 4.577901,1.802812 -5.74759,1.166425 -6.724503,-0.492934 -8.138367,0.34865 -16.143761,1.816703 -23.855006,4.430659 -0.546651,-4.822376 12.234427,-3.541817 16.739918,-4.999 3.510293,-0.515556 12.509621,-0.857221 3.832605,-0.762998 -8.868271,0.525807 -17.653437,1.951951 -26.008555,4.991084 -1.924273,-3.880913 11.283298,-3.936871 15.123371,-5.200597 6.634145,-0.964149 13.216607,-1.027361 19.8324,-1.382208 z m -5.392852,3.286441 c 0.807182,2.849123 -11.477969,2.003671 -15.371745,3.98192 -5.618163,3.144181 -5.722687,-1.849482 0.201104,-1.798734 5.001801,-1.066001 10.251187,-1.508181 15.170641,-2.183186 z m 8.027693,1.43178 c 1.02304,1.33434 -2.495721,2.490513 2.35269,2.827098 -3.348561,1.077136 2.35153,2.707587 -2.35879,2.75224 -2.881061,-3.780182 -10.610212,1.359086 -12.271862,-1.718387 9.874421,-4.753001 -5.772844,1.741907 -7.648641,-0.741799 5.951671,-3.126148 13.394022,-1.860991 19.926603,-3.119152 z m -40.004437,1.983582 c 6.551476,0.135547 1.068283,9.022418 9.013241,8.997571 5.831797,1.61713 12.267236,4.237942 18.797034,3.879256 4.012185,-0.973998 12.446102,1.59984 3.833754,2.608135 -8.528244,0.33245 6.699017,0.446379 9.740688,0.428932 4.21124,0.08812 14.30082,-0.300422 4.1551,-0.684721 -7.302471,-1.871614 12.41756,-0.654572 9.46984,-1.985869 -2.98257,0.794156 -18.432761,-0.778941 -8.39419,-1.310552 6.04691,0.362537 12.38004,0.004 18.1691,-1.565495 -6.90731,0.516605 -19.24423,3.090732 -23.3947,-0.365941 -0.80162,-3.545544 11.61996,0.187556 15.63016,-1.961006 2.56396,-1.5537 12.43184,-2.561348 5.34946,0.947316 2.6691,-1.001971 12.98166,-2.72475 5.2779,0.478265 -8.88441,3.215299 16.2898,-4.655405 4.80697,1.102099 -3.75746,1.040976 -10.78629,2.844421 -2.63961,1.398261 2.46338,-0.684416 15.43008,-5.375529 8.63268,-0.75344 -7.80162,3.451308 -16.5509,2.708592 -24.76652,4.131137 11.55971,0.304508 23.11474,-2.125971 34.05834,-5.714036 -5.36133,3.58799 -13.65488,4.802634 -20.407,5.985533 -4.44495,1.380815 -11.52337,0.34807 -14.84961,1.834594 2.06607,0.01703 14.27264,-0.597729 7.60642,1.365882 -5.35497,-0.880774 -14.90675,3.032898 -17.74627,-0.33526 3.51535,-2.802203 -9.013951,-0.371914 -11.220415,-1.41515 -7.81655,-0.663454 -15.817651,-0.475949 -23.443961,-2.216448 1.700241,-1.003493 19.731301,1.67397 8.477359,-0.429065 -7.663173,-2.08079 -16.818198,-2.46057 -22.979722,-7.747017 -1.59993,-3.418276 3.994639,-6.689499 6.823952,-6.672981 z m 47.081447,2.652439 c 3.01158,1.544003 -3.60559,3.621659 2.79451,2.065782 3.99274,-1.927493 5.77499,-0.205067 3.20455,1.599074 3.76383,-2.413724 9.03009,0.03805 2.07528,1.399312 -2.67263,0.658788 -17.312471,0.644742 -9.14943,-0.756677 -3.761,0.172356 -7.525081,-3.972265 -0.35207,-4.081935 l 1.41407,-0.269379 z m -7.42344,0.227115 c -0.0483,0.06494 0.11673,0.03661 0,0 z m 58.16687,0.898221 c 2.34789,7.292469 -0.42014,14.282773 -8.82201,15.071103 -2.31769,1.730664 -13.1839,2.43174 -5.36306,0.213372 3.20756,-1.158634 16.12389,-5.411829 5.56526,-3.46717 -3.50104,2.478354 -12.35149,1.823708 -3.62525,-0.395298 4.1637,-0.461151 10.6816,-5.749191 2.89233,-2.44714 -3.94589,2.147694 -10.40871,1.50715 -2.53977,-0.467504 5.38068,-1.851576 8.91561,-4.607076 11.8925,-8.507363 z m -51.41805,1.261605 c -0.14945,0.09254 0.14958,-0.0498 0,0 z m 47.72089,1.420264 c 0.76739,2.153954 -10.04944,4.49567 -2.59278,1.240173 0.41327,0.848187 2.18291,-2.118155 2.59278,-1.240173 z m -37.16391,2.957605 c -2.65911,0.635215 -14.1549,0.809974 -4.95238,0.833926 0.67552,-0.05406 9.73257,-0.825438 4.95238,-0.833926 z m 6.88924,2.951847 c -3.71353,-0.307674 -10.47003,2.179291 0,0 z m -66.569783,0.939166 c -1.062711,0.598194 2.554228,0.641549 0,0 z m 7.470143,0.23991 c 2.145471,0.469437 -1.430019,1.57188 0,0 z m 1.338056,0.328516 c 2.606787,0.3041 -1.035434,1.708652 0,0 z m 74.539264,0.198325 c 1.23993,1.770818 -1.73184,0.59135 0,0 z M 60.238434,73.57637 c 1.806728,1.636974 6.391621,2.376319 1.373724,0.483815 l -1.369566,-0.480939 z m 5.481134,1.865857 c -1.255335,0.511701 1.641713,0.774238 0,0 z m -1.660814,1.48456 c -1.003625,1.335135 4.98741,1.248316 -0.0067,0.01184 z m -4.577474,1.48456 c -2.765699,0.22398 2.431013,1.103174 0,0 z m 96.76864,0.604252 c 5.38592,6.680726 -1.46754,16.223614 -3.25542,23.473071 -3.2715,9.00062 -10.25348,15.83827 -17.4942,21.77707 0.97968,-5.13445 9.1003,-10.50929 12.00761,-16.25115 3.9015,-7.19462 8.29235,-16.127847 5.73928,-24.289406 -1.24998,-1.755124 1.36935,-4.365683 3.00273,-4.709585 z m -37.72754,0.07997 c 2.24579,2.141157 -11.04482,2.423631 -2.36644,2.42172 4.05442,-1.234589 11.10525,0.434394 2.97148,1.250248 -3.78102,-0.663785 -14.58187,4.169977 -14.60489,0.08535 6.36422,-0.845666 -5.022971,-1.219452 1.66881,-3.088436 4.04205,-0.869522 8.2116,-0.548693 12.33104,-0.668882 z m 29.96375,0.281494 c 1.24289,0.94615 -1.24962,0.68607 0,0 z m -96.316654,1.67233 c 7.059878,1.450617 2.200888,13.436625 -1.305308,4.980242 0.962882,-1.477053 -1.379549,-4.607365 1.305308,-4.980242 z m 9.184058,0.140747 c -0.844061,0.847416 1.308368,0.06866 0,0 z m 79.738576,0.172735 c 1.85679,1.625907 -3.10859,0.378813 0,0 z m -77.678873,0.294289 c -1.937527,-0.112102 1.628838,0.842649 0,0 z m 0.475661,0.446231 c 0.288295,0.03453 0.0537,0.09467 0,0 z m 0.115156,0.03519 c 0.420274,0.04791 0.291629,-0.07301 0,0 z M 62.79491,81.716024 c -0.177361,-0.1263 -0.05837,0.03693 0,0 z m 86.00054,1.690243 c 5.30056,5.150467 -0.62313,15.406984 -2.6963,21.671153 -4.6851,7.11886 -11.8169,12.30871 -15.92421,19.72549 -6.60915,4.08929 -12.49807,9.32525 -16.27201,16.18957 1.35815,-5.56394 8.10984,-13.82875 12.03067,-19.728 7.33331,-2.37344 12.57796,-8.27757 16.60498,-14.60243 3.36848,-5.02558 10.16199,-18.101676 -0.50663,-18.327254 -13.12745,0.516929 -26.30299,2.736254 -39.43421,1.526519 4.20876,-3.489093 14.89912,-1.029217 21.68647,-2.189812 8.34461,-0.488734 16.47882,-2.130395 24.51124,-4.265236 z m -88.025056,1.713594 c 10.075691,3.634922 21.224002,2.785283 31.548425,5.334632 -3.869746,3.484003 -14.363535,0.05717 -20.602792,0.181695 -7.69421,-1.64894 -11.835847,3.030865 -7.300683,10.219192 2.134278,5.39773 7.466659,11.48297 10.317141,14.23301 3.605315,-0.6406 -0.09606,2.41096 4.295605,4.8974 4.390148,4.94721 14.410199,10.53784 15.114679,15.40466 -9.403015,-7.63773 -19.602381,-14.70647 -26.754131,-24.61039 -3.620202,-4.77273 -6.936806,-10.819439 -8.418846,-16.995378 -0.03897,-2.530211 -1.204521,-7.536028 1.800602,-8.664821 z m -5.838439,8.456332 c 3.058018,6.630517 6.242619,14.673197 11.197378,20.881447 7.189695,7.72948 -3.619392,-1.33863 -5.564781,-4.79277 -2.777506,-4.73213 -8.064691,-9.33936 -7.419923,-14.416711 -0.820491,-4.101277 -1.416484,1.111808 1.787326,-1.671966 z m -1.954143,1.103584 c -0.09111,-0.129804 0.0083,0.130641 0,0 z m 102.137818,6.601993 c 0.30102,3.39557 -3.46665,1.72815 0,0 z m -1.56101,2.94033 c 0.85837,0.88479 -0.93448,0.67298 0,0 z m -0.16634,1.3259 c -1.93429,3.95434 -2.3083,1.28207 0,0 z m -2.27115,2.83797 c 1.78335,0.82935 -2.38135,2.63397 0.017,-0.0499 z m -88.646589,4.41881 c 2.196958,2.8204 -1.749829,0.62145 0,0 z m 85.829729,0 c 1.15398,0.81705 -1.32922,1.10845 0,0 z m -71.041693,13.5616 c 7.364489,5.37228 16.814162,9.75292 19.574452,19.29012 4.263141,9.02083 -1.93813,18.13762 -7.69605,24.73936 -0.853913,3.3487 -11.238595,11.13251 -8.443857,4.12003 7.218771,-7.19723 16.942057,-15.48586 15.131807,-26.89514 -2.27681,-9.86668 -12.443604,-14.31363 -19.116544,-20.73746 -0.340104,-0.69716 0.505693,-0.22678 0.550192,-0.51691 z m 48.748023,5.44019 c -0.13771,6.12148 -13.27958,11.93505 -12.30512,21.14851 0.39248,9.75976 7.96723,16.54504 14.55322,22.67064 7.08478,6.84502 -4.34398,6.4241 -5.44689,0.1502 -6.07551,-7.17677 -12.74739,-16.55671 -10.2403,-26.45979 1.86286,-6.98037 6.93185,-14.30446 13.43909,-17.50956 z m -15.96742,1.8601 c 5.14864,5.68443 -5.25311,1.76165 0,0 z m -5.72168,0.35219 c 4.44895,2.95038 1.15053,7.60673 -1.22866,2.13647 -0.84716,-0.91033 0.24063,-2.16919 1.22866,-2.13647 z m -5.046741,0.42256 c 5.224191,3.1652 -4.68934,3.51177 0,0 z m 2.358791,2.65212 c 4.14157,3.51962 -0.62997,7.58628 -1.2066,1.39403 -0.0585,-0.58533 0.38306,-1.7236 1.2066,-1.39403 z m 8.25097,0.74628 c 4.26143,3.88396 -4.01248,3.27342 0,0 z m -5.2521,4.14308 c 5.22211,4.50837 -4.60679,3.18217 0,0 z m 0.46319,3.50875 c 5.00516,2.85058 -2.54626,4.93934 0,0 z m -4.60659,3.52124 c 1.53207,2.11799 -1.686231,1.48276 0,0 z m 0.55755,2.86356 c 1.99106,3.23621 -4.414101,13.43692 -1.124471,4.09693 0.704591,-1.17326 0.003,-3.17641 1.124471,-4.09693 z m 4.19618,4.4895 c 4.75024,1.52644 -2.07387,4.09527 0,0 z m -6.584401,4.28383 c 1.18879,1.21357 -1.00719,1.50301 0,0 z m 7.188651,0.34099 c 4.763,2.77046 -3.98357,2.59245 0,0 z m -0.2655,5.088 c 5.55696,3.20417 -4.08418,3.31465 0,0 z m 7.84025,1.19123 c 0.27816,0.75385 -0.17174,0.0577 0,0 z m 0.0896,0.39313 c 4.01223,5.17833 8.04037,11.72096 13.73182,15.92364 6.60147,4.67361 12.3927,10.43317 16.14777,17.66764 3.90331,7.23387 11.46866,18.92907 2.23279,25.23094 -7.421,5.29894 -16.62379,5.26771 -25.24681,7.13636 -4.61312,1.7975 -20.0462,0.91501 -6.76649,-0.29075 9.82494,-2.41253 21.47405,-1.95927 29.09566,-9.56318 6.74177,-7.64275 -0.0485,-17.83075 -3.94036,-25.15585 -4.78277,-9.19189 -14.71486,-14.43025 -20.55607,-22.98347 -1.79795,-2.40579 -4.1082,-5.00153 -4.69831,-7.96533 z m -7.33548,2.61694 c 5.1455,4.14841 -4.91171,3.3312 0,0 z m -0.27509,3.075 c 5.85317,4.26311 -5.65,3.25298 0,0 z m -3.83792,2.7935 c 2.68463,0.11712 4.06239,4.90641 0.44914,3.44161 2.79756,3.94161 -1.51928,6.81675 -1.67393,1.98294 -1.405021,-3.00187 3.75014,-1.15099 0.0727,-4.36934 0.0213,-0.70977 0.66932,-0.79898 1.15207,-1.05521 z m 6.40815,0.15355 c 5.27028,6.30316 -5.7985,1.46034 0,0 z m -10.592171,2.5875 c 5.685891,4.0527 -4.725542,2.76697 0,0 z m 34.898841,0.65767 c 2.16573,4.09174 -3.20264,1.63107 0,0 z m -21.07333,0.66887 c 5.44755,4.29995 -5.69946,2.44871 0,0 z m -5.30488,0.0576 c 5.10925,3.34868 -4.38773,2.48686 0,0 z m -24.828723,2.35911 c -3.098243,6.32599 -14.304649,14.57199 -15.782975,24.27882 -4.953622,8.19475 -3.829018,22.06222 7.695068,23.32407 6.83072,2.58261 14.247717,3.43735 21.428799,4.63344 6.528421,1.65005 -6.739933,1.67196 -8.942231,0.96678 -8.898377,-1.54015 -21.351211,-0.67524 -26.424566,-9.31116 0.114016,-10.23763 4.00324,-20.14645 8.469395,-29.22455 3.820259,-5.4196 8.019111,-10.90927 13.55651,-14.6674 z m 13.209422,0.0352 c 3.54524,2.97922 -1.755665,1.6923 -1.32303,5.26331 -7.885532,1.96654 -0.324652,-3.29022 0.50128,-3.69944 -0.2479,-0.61692 0.49612,-1.57211 0.82175,-1.56387 z m 3.91436,0.21432 c 0.45191,2.70585 3.011741,2.73565 2.902881,5.5253 -4.445561,0.48208 -0.69613,-3.68928 -4.200641,-4.62292 0.12747,-0.55594 0.86146,-1.00807 1.29776,-0.90238 z m -28.044785,0.721 c 1.123691,0.90681 -1.308734,1.10891 0,0 z m 44.352876,0.25911 c 4.90857,4.76181 -5.78986,2.3929 0,0 z m 20.76209,0.4635 c 9.72313,6.4597 15.47176,17.61936 18.6345,28.59273 1.15151,3.01352 0.50641,9.62766 -0.92121,2.69436 -4.32449,-11.12511 -10.14633,-21.71662 -18.06839,-30.70267 -0.54665,-0.0744 0.33906,-0.87668 0.3551,-0.58442 z m -30.22188,0.0576 c 6.71687,4.38126 -6.135181,3.13911 0,0 z m 5.39285,0.33491 c 4.60889,4.79235 -5.15678,1.23217 0,0 z m -41.729555,0.38701 c 1.408858,0.94735 -1.868887,0.28684 0,0 z m 27.504834,1.87193 c 5.079711,3.13853 -4.600252,2.84873 0,0 z m 21.612971,0.10236 c 6.72,4.14084 -5.94757,3.95627 0,0 z m -12.86331,1.83675 c 5.51485,2.16481 -4.4705,4.42408 0,0 z m -39.282794,0 c 0.371148,0.34952 -0.495861,0.369 0,0 z m 34.728984,0.14715 c 6.14296,2.9417 -4.114661,3.38951 0,0 z m -7.734361,0.0576 c 4.44087,1.81377 -3.112981,9.04784 -1.397309,1.45494 -2.161185,-2.23151 1.593139,-0.7259 1.397309,-1.45494 z m 4.65329,0.8688 c 6.687701,4.70429 -6.465359,4.0563 0,0 z m 22.422901,0.42224 c 7.33741,5.24058 -7.08666,2.81367 0,0 z m -31.160731,0.13435 c 5.56853,4.25253 -5.09678,1.82884 0,0 z m -23.449719,1.74302 c -1.584519,6.61399 -5.629287,15.10478 -6.943098,22.78296 0.652849,4.27046 -3.742444,14.9304 -5.92661,5.5606 0.539036,-10.46453 6.147918,-20.15133 12.486174,-28.23223 l 0.381613,-0.11836 z m 19.318476,0.59849 c 6.313431,3.69038 -5.227483,3.27568 0,0 z m 27.275794,0.13435 c 6.04451,5.56898 -5.4388,2.02809 0,0 z m 13.67933,0.14715 c 7.10226,4.46188 -6.09493,3.33584 0,0 z m -35.996353,0.92093 c 5.213002,2.77913 -4.320857,3.00415 0,0 z m 11.842253,0.32244 c 5.51867,4.25359 -5.638091,2.82156 0,0 z m -6.355361,0.31668 c 4.16714,0.73083 3.85877,9.4349 0.25558,3.28771 0.36092,-1.29365 -3.486505,-2.28273 -0.25558,-3.28771 z m -9.23108,1.60196 c 6.510304,3.42346 -5.290024,2.62093 0,0 z m -3.725956,0.0352 c 5.401127,3.43437 -4.877122,3.67285 0,0 z m 9.835012,0.66887 c 6.740344,4.80812 -9.689339,2.96631 -0.523242,0.1366 l 0.528041,-0.1731 z m 38.942125,0.13435 c 5.16451,4.87621 -4.62051,2.93009 0,0 z m -52.104842,1.79036 c 3.253909,-0.0677 2.787089,6.87849 5.811889,2.96402 -0.90811,-6.88586 7.029396,4.91272 -1.088151,3.58104 -6.038996,-0.42713 0.0225,1.59154 3.27964,0.84483 1.715721,4.4669 -5.05797,-0.62209 -4.333081,4.22366 -3.411895,-0.0506 0.673734,-5.80988 -4.374024,-3.78482 -3.584918,2.47835 -7.549598,-5.25232 -3.492126,-4.73515 0.780265,5.65856 8.177118,-1.87473 2.229239,-0.41773 -0.719837,-1.19972 0.659723,-2.87719 1.966614,-2.67585 z m 1.789725,7.4468 v 0.0352 z m -0.04478,0 v 0.0352 z m -0.681343,-6.23221 c -0.09669,-0.0401 0.04006,0.0967 0,0 z m 33.85444,-0.48718 c 6.94342,2.21993 -3.64758,5.15974 -0.67053,0.2503 l 0.6715,-0.25001 z m -9.79439,0.29429 c 5.88322,4.35962 -5.638131,3.4662 0,0 z m -9.218921,0.0352 c 5.379011,3.55096 -4.979675,2.5426 0,0 z m -14.870558,0.18233 v 0.0352 z m 55.173759,0.6871 c 4.70282,3.50447 -4.69778,2.67983 0,0 z m -45.866548,1.379 c 6.588977,3.09342 -4.959505,3.96714 0,0 z m 32.651368,0.34643 c 5.27847,4.09956 -5.44156,3.06117 0,0 z m 6.70755,1.78972 c 7.21225,2.38085 -3.9722,5.40875 0,0 z m -33.848351,0.0352 c 5.990971,4.00759 -6.057807,3.17929 0,0 z m 21.642081,0.35794 c 5.40737,3.78771 -5.67506,3.09578 0,0 z m 23.05658,0.2815 c 4.40251,2.75602 -4.39435,1.84416 0,0 z m -68.347989,0.65735 c 3.65162,4.97283 -7.622904,4.59011 -0.63816,0.15868 l 0.651914,-0.16634 z m 28.050228,0.22392 c 6.838941,3.58044 -5.40235,3.47176 0,0 z m -8.714478,1.2616 c 6.667718,3.51881 -4.88012,3.26487 0,0 z m 43.959739,0.10236 c 5.12229,3.15344 -4.80686,3.60806 0,0 z m -58.554237,0.21432 c 1.982896,2.84515 -9.761427,7.56983 -3.890053,1.41705 1.305652,-1.79971 2.993761,0.11186 3.890053,-1.41705 z m 2.893309,0.45775 c 6.676361,3.28942 -6.1089,3.78175 0,0 z m 33.848358,0.11516 c 5.02107,2.63768 -3.68711,3.02 0,0 z m -27.598554,1.9423 c 5.718783,4.76906 -5.801165,2.74489 0,0 z m 4.559561,0.31029 c 6.155732,2.91492 -5.474122,3.56653 0,0 z m -22.73959,0.31668 c 6.685329,2.05589 -0.736251,7.2037 -1.186106,0.70436 l 1.214902,-0.71656 z m 62.656063,0.33523 c 4.73905,3.58473 -4.93289,2.78862 0,0 z m -20.61559,0.30069 c 6.86661,2.79638 -6.06647,5.36026 0,0 z m -34.259084,0.27509 c 3.791603,4.92898 -9.334585,3.41601 -1.541817,0.74047 0.225216,-1.01408 1.038103,-0.43726 1.541817,-0.74047 z m -2.077616,1.67838 -0.03519,0.0352 z m 7.963397,-1.60225 c 3.238743,2.29894 -0.018,7.58052 4.092215,8.98028 -2.345639,1.71448 -2.5933,-1.58237 -5.178208,-2.07214 2.419607,-2.79133 -2.264039,-5.17728 1.085993,-6.90814 z m -3.280366,0.20473 c 3.924573,2.34346 -5.488373,2.78552 0,0 z m 25.057759,0 c 3.97104,3.00991 -4.619321,2.34208 0,0 z m 38.14977,0.65767 c 4.58353,2.55369 -3.74433,2.28964 0,0 z m -44.546081,0.4462 c 6.475991,3.32862 -5.414737,2.73121 0,0 z m -30.562238,0.83364 c 3.18413,2.51828 6.518691,0.95647 7.967873,6.23922 0.473383,2.61505 -2.441855,4.9029 -1.179196,7.5548 -2.991289,0.0776 -1.680788,-4.49264 -5.683498,-5.05076 0.89023,-2.64867 -2.910437,-4.20166 -1.60387,-6.55412 -1.533167,-0.22209 -0.63895,-2.27579 0.498691,-2.18914 z m 54.211559,0.0576 c 5.77105,4.5844 -6.18501,3.46682 0,0 z m -34.588237,0.7744 c 5.908545,2.18979 -4.416372,4.0097 0,0 z m 7.863595,0.5224 c 5.590531,4.19674 -5.800815,3.21632 0,0 z m -17.035501,0.77439 c 5.561091,2.20118 -4.899755,4.03531 0,0 z m 50.837153,0.89282 c 7.24776,5.46808 -6.67535,3.08493 0,0 z m -37.416289,0.31668 c 4.825178,4.59946 -5.735206,1.90764 0,0 z m -20.292833,0.18233 c -4.314689,2.04224 4.034374,8.29019 1.077361,1.75581 -0.164626,-0.34688 -0.106524,-2.17082 -1.077361,-1.75581 z m 45.227112,0.14075 c 5.97035,3.99507 -5.84697,2.25965 0,0 z m -14.31268,0.0448 c 5.46279,3.09635 -5.106391,3.90836 0,0 z m 35.84376,0.6039 c 5.86074,2.82486 -5.21082,3.66456 0,0 z m -57.937831,0.3701 c 5.07619,3.7259 -4.854688,3.42089 0,0 z m 62.332981,1.50215 c 4.57449,2.70908 -3.98939,2.99177 0,0 z m -34.56425,0.30057 c 6.60971,1.5783 -4.20009,5.7723 0,0 z m -17.006391,0.10236 c 5.26974,3.07411 -4.946512,3.0747 0,0 z m 6.27316,0.66343 c 4.63132,3.45518 -4.852886,2.30101 0,0 z m -15.310393,0.86304 c 8.558533,1.03265 -0.750337,6.21031 -1.391475,0.76454 0.121855,-0.92445 0.970509,-0.39894 1.391475,-0.76454 z m -3.884935,0.0896 c 5.127539,3.37504 -5.540345,2.73377 0,0 z m 10.727475,1.03321 c 5.413694,1.85034 -1.240075,1.87051 -0.47598,3.20843 -0.284562,3.26529 3.772308,3.62972 7.232933,3.92056 -1.795793,3.35268 -8.81586,1.59543 -8.010559,-2.12638 -4.632072,-1.89872 0.864032,-2.51307 1.307347,-5.06599 z m -0.71653,2.1304 c 0.02265,0.0558 0.02265,0.0558 0,0 z m -0.03519,0.0448 c 0.04836,-0.0649 -0.11672,-0.0366 0,0 z m 0,0 v 0.0352 z m 37.292824,-2.03635 c 5.44529,3.08445 -5.60458,3.23889 0,0 z m 12.118,0 c 4.49733,4.53822 -4.89772,1.91855 0,0 z m -57.268667,1.52615 c 4.397196,4.61501 -8.794542,4.72286 -1.969174,0.7312 0.05439,-0.76989 1.914965,-0.0267 1.969174,-0.7312 z m 12.482014,0.72772 c 5.654892,3.33658 -5.689963,3.03684 0,0 z m 41.441983,0.11516 c 5.11007,3.25235 -4.81791,2.69579 0,0 z m -36.430431,1.291 c 6.009161,3.06045 -4.859385,3.26575 0,0 z M 81.0802,227.06505 c 5.595667,4.19718 -5.593555,2.71041 0,0 z m 31.3018,0.41681 c 5.15042,3.27879 -4.69211,3.4043 0,0 z m 13.83159,0 c 4.86884,3.2157 -4.61889,2.89429 0,0 z m -17.81633,0.32375 c 2.67276,4.73543 -6.30222,0.64708 0,0 z m 10.65103,0.0352 c 5.47416,3.80774 -4.96727,3.23299 0,0 z m -15.94407,0.428 c 4.88049,3.39046 -4.704551,3.5744 0,0 z m -3.0926,1.10263 c 5.18257,2.94234 -5.355561,2.54336 0,0 z m -43.314227,1.37324 c 8.406261,5.0513 18.03846,10.14754 28.361052,11.37042 3.802359,1.29638 13.112194,-0.6423 13.983934,3.37152 -13.006562,0.42575 -26.29438,-2.09884 -38.325711,-7.10833 -2.736548,-1.81373 -12.276634,-5.22828 -4.019275,-7.63361 z m -4.441845,0.29429 c -0.738794,8.32608 10.508183,9.44008 16.764831,11.47882 26.07814,5.59342 53.849251,6.45279 79.376041,-2.16364 3.3386,-1.41019 13.35122,-8.30434 5.14966,-1.46923 -9.78619,6.13721 -21.79493,7.16888 -32.97975,8.84333 -18.14879,2.42573 -36.453695,-0.81022 -54.209237,-4.44075 -3.310024,-1.52699 -13.520088,-4.57307 -6.925707,0.0163 0.559147,-0.37509 10.24519,4.49323 14.862234,4.8996 4.141104,0.46099 9.8959,3.54773 2.033754,1.7879 -5.642673,-1.32054 -12.895994,-3.90717 -17.380928,-5.18757 4.896349,4.86725 18.906332,4.10491 20.774886,8.03059 22.594928,3.4488 46.372768,4.41554 68.378068,-2.60601 4.60841,-1.66247 5.60443,-2.1569 0.0166,-0.81026 -0.69441,-2.01802 8.16367,-4.29943 0.82469,-2.57089 -3.70851,1.91952 -8.57901,0.87122 -1.77203,-0.63922 3.11596,-0.60378 7.32212,-4.01185 1.40349,-1.45537 -3.52845,3.02139 -9.74712,1.36676 -2.52455,-0.4605 5.85152,-1.00245 9.90656,-6.9007 13.44789,-9.6522 -1.29634,5.06828 0.76057,12.83717 -5.7657,15.2078 -17.9528,7.9588 -38.15082,7.8853 -57.369681,6.85463 -14.361859,-1.49513 -29.082219,-3.05501 -42.047952,-9.95582 -7.780855,-1.73279 -2.316101,-10.98284 -2.056649,-15.70754 z m 7.270539,12.2651 c -0.04836,0.0649 0.11672,0.0366 0,0 z m 36.283922,-12.03002 c 6.312211,3.25695 -5.401768,3.56575 0,0 z m 52.233431,0.36914 c -1.15601,4.8639 -11.2429,5.28336 -16.11395,7.51858 -10.08624,1.70004 -20.03519,1.10902 -30.13165,1.55003 -12.047356,-0.39627 -24.065224,-2.59687 -35.720694,-5.58399 -3.919625,-3.18812 11.058592,1.96747 13.948664,1.57889 16.533279,3.16071 33.4459,1.85997 50.11367,0.7465 6.23798,-1.05594 11.95185,-4.00919 17.90396,-5.81001 z m -84.368518,1.1151 c 1.580716,1.80508 -1.717179,1.28446 0,0 z m -2.353352,9.99399 c 2.929835,-0.10585 14.380432,4.68668 5.00242,2.4012 -0.629978,-0.86319 -6.492698,-0.70807 -5.00242,-2.4012 z m 10.257892,2.77559 c 2.113824,1.35229 -2.59875,0.30508 0,0 z m 1.291033,0.35187 c 0.824248,0.85539 -0.98539,0.73557 0,0 z m -13.150881,0.82113 c 0.484795,3.01749 21.028802,6.47268 9.275707,3.45165 -3.237745,-0.75988 -6.269833,-2.11869 -9.275707,-3.45165 z m 21.882949,5.34583 c 0.940201,1.04869 -1.951555,0.31809 0,0 z m -13.467882,1.68448 c 1.129915,1.27132 -1.364421,0.77055 0,0 z"
       style="clip-rule:evenodd;fill:#000000;fill-opacity:1;fill-rule:evenodd;stroke-width:0.210443"
       id="path4327-9-6-5-8-8" />
  </g>
</svg>
