<?xml version="1.0" encoding="UTF-8" standalone="no"?>
<svg
   xmlns:dc="http://purl.org/dc/elements/1.1/"
   xmlns:cc="http://creativecommons.org/ns#"
   xmlns:rdf="http://www.w3.org/1999/02/22-rdf-syntax-ns#"
   xmlns:svg="http://www.w3.org/2000/svg"
   xmlns="http://www.w3.org/2000/svg"
   xmlns:sodipodi="http://sodipodi.sourceforge.net/DTD/sodipodi-0.dtd"
   xmlns:inkscape="http://www.inkscape.org/namespaces/inkscape"
   sodipodi:docname="orchid.svg"
   inkscape:version="1.0 (4035a4f, 2020-05-01)"
   id="svg8"
   version="1.1"
   viewBox="0 0 210 297"
   height="297mm"
   width="210mm">
  <defs
     id="defs2" />
  <sodipodi:namedview
     inkscape:document-rotation="0"
     inkscape:window-maximized="0"
     inkscape:window-y="23"
     inkscape:window-x="0"
     inkscape:window-height="943"
     inkscape:window-width="1252"
     showgrid="false"
     inkscape:current-layer="layer1"
     inkscape:document-units="mm"
     inkscape:cy="803.66645"
     inkscape:cx="-168.05639"
     inkscape:zoom="0.49497475"
     inkscape:pageshadow="2"
     inkscape:pageopacity="0.0"
     borderopacity="1.0"
     bordercolor="#666666"
     pagecolor="#ffffff"
     id="base" />
  <metadata
     id="metadata5">
    <rdf:RDF>
      <cc:Work
         rdf:about="">
        <dc:format>image/svg+xml</dc:format>
        <dc:type
           rdf:resource="http://purl.org/dc/dcmitype/StillImage" />
        <dc:title />
      </cc:Work>
    </rdf:RDF>
  </metadata>
  <g
     id="layer1"
     inkscape:groupmode="layer"
     inkscape:label="Layer 1">
    <path
       d="m 116.1416,235.9343 c -9.87237,2.81885 -8.91827,-8.50693 -10.88278,-15.00475 -1.73529,-10.5487 0.9353,-21.2168 -1.00723,-31.70019 -0.46528,-4.27195 6.30126,-16.98608 -1.92692,-10.00529 -5.718665,5.1433 -9.017295,12.17931 -15.130663,16.83273 -4.063625,8.24952 -15.807653,10.41152 -17.735207,20.15009 -0.518327,4.31499 -0.626688,12.50078 -3.448246,4.24487 -3.137105,-8.48895 2.035382,-16.71899 6.214083,-23.73267 -2.268416,-7.18756 13.148759,-18.30804 0.606116,-19.4612 -8.146209,0.8013 -16.80591,-1.38164 -21.806136,-8.32395 -5.028672,-7.56372 -4.570156,-17.3466 -2.408694,-25.79291 2.139784,-8.60349 13.101031,-9.9046 14.887949,-18.07693 6.911576,-4.18914 11.340095,-11.17706 19.811161,-13.67052 -1.551801,-2.45191 -15.411403,-5.02886 -14.238895,3.97943 -1.193346,10.84892 -16.741354,6.25896 -18.550568,14.74197 -1.578213,7.03328 -10.06197,9.16672 -9.693727,17.23463 -3.83624,7.74858 -10.779206,14.03713 -16.104164,19.46263 -4.40683,4.96715 2.731785,-6.92306 3.212258,-9.37896 0.214668,-8.24973 3.593864,-16.34163 10.966389,-19.99215 2.209594,-8.01538 8.78223,-12.5735 10.612196,-20.63095 5.527138,-9.58943 18.80166,-6.25983 23.046826,-15.614 4.219159,-4.192839 14.758808,-4.398725 7.127264,-11.358039 -3.052656,-6.896365 -6.626356,-22.72867 -16.965722,-15.040532 -5.761934,3.338332 -12.286365,-1.33358 -17.201275,3.837452 -6.077949,-0.175374 3.364073,-8.381946 7.183614,-7.791221 6.815857,-4.638697 15.332678,-10.797044 23.947766,-6.610946 9.865006,2.510819 21.060015,-5.388926 29.611595,3.604851 6.83043,4.13577 13.49418,10.690167 12.76136,19.366235 0.33786,5.244178 11.32247,-0.588428 15.49891,3.788764 6.14738,-4.376218 12.19869,-13.37953 20.81349,-16.262068 8.32706,-3.552672 19.74245,-4.131076 26.27711,2.537671 -12.20997,1.303932 -18.77613,13.797017 -21.96383,24.448623 -2.68741,9.37237 -5.67083,19.16509 -4.05229,28.97942 -1.61357,9.56805 2.37759,19.81166 8.05281,27.19573 7.55416,6.02407 8.81362,15.82862 7.1371,24.81651 -2.14909,10.27309 -1.98053,-7.06945 -6.8877,-8.90415 -6.16958,-4.69182 -8.2342,-12.95928 -11.66993,-18.47597 -5.71076,-0.73035 -7.23198,11.29161 -13.82134,13.19623 -7.29503,4.97572 -17.03756,8.20019 -20.10725,17.41673 -5.23666,14.12385 -5.52734,30.10009 -1.05314,44.46219 0.1011,1.2631 3.10525,6.26044 -1.11229,5.53064 z m -6.21604,-3.25325 c 0.22981,-1.73608 -1.06737,-1.23907 0,0 z m 0.94609,-0.88387 c 0.46533,-3.63899 -2.63604,-3.58839 0,0 z m -0.50313,-1.04764 0.004,-0.22796 z m -0.21058,-0.70935 c -0.27101,-0.48056 0.43491,-0.1248 0,0 z m -0.56435,0.53702 -0.0401,-0.15574 z m 2.36525,-0.42325 c -0.63559,-4.21701 -1.44164,-1.72515 0.0537,0.19464 l -0.0537,-0.1947 z m 1.10379,0.14523 c -0.17232,-1.39795 -0.71034,-0.22141 0,0 z m -3.42754,-0.17428 c -2.02021,-4.7759 -0.89128,-5.46716 0.34896,-3.34056 -1.1392,-3.77205 -1.62737,-8.50253 -0.14244,-2.02695 0.89709,1.24466 -1.24488,-7.80922 0.31524,-10.76702 -0.75006,-6.56469 2.37021,-15.19351 -0.11741,-10.27535 0.68195,-4.68757 3.16142,-14.49391 2.95285,-16.02271 -2.26769,5.09188 0.72784,-0.85972 -1.41506,-0.60188 1.92637,-5.56485 -4.31967,6.56006 -1.07441,-0.99042 -3.03574,3.05965 -3.36268,12.84574 -4.06098,18.79981 -0.11791,8.36828 -0.3767,17.64661 3.19325,25.22508 z m -1.9171,-7.75554 c -0.28625,-0.46442 0.50198,-0.15309 0,0 z m 1.43056,-6.60805 c -0.62416,-3.59342 1.56912,-0.97066 0,0 z m 0.34856,-4.47323 c -0.63519,-1.10114 0.6531,-1.88096 0,0 z m -1.21997,-1.33616 c -1.82181,-4.09314 1.93189,-7.06426 0,0 z m 1.21997,-0.23238 0.0375,-0.17382 z m -0.0944,-1.08939 c -0.69257,-2.47399 1.00227,-0.84456 0,0 z m -2.49077,-1.93236 c -0.60581,-1.48299 1.21402,-0.41662 0,0 z m 1.859,-4.18276 c 0.36878,-3.22688 0.7198,-10.1512 1.23953,-3.26389 -0.0569,1.15414 -0.25712,2.4978 -1.23953,3.26389 z m -1.19093,-0.43484 c -0.20493,-0.8661 0.42921,0.075 0,0 z m 2.17127,-7.50877 c -0.0686,-1.83667 0.63808,0.0772 0,0 z m 0.63903,-3.51468 c -0.38071,-1.53996 1.76173,-0.1858 0,0 z m 2.34035,36.44148 c -1.79211,-3.11263 -1.88068,-13.38667 -1.8216,-4.23762 0.0657,2.26613 0.94689,2.75382 1.8216,4.23762 z m -0.13278,-4.95458 c -0.2222,-5.23114 -0.8435,1.20921 0,0 z m -45.197052,-1.9171 c -0.921737,-9.81708 6.889083,-18.11679 15.390774,-21.764 3.997686,-7.4728 12.071297,-11.11361 15.687289,-19.1047 5.775959,-5.69418 14.158739,-8.51839 17.967039,-16.20159 4.80986,-6.6514 8.47615,-14.2619 8.60208,-22.63275 2.05602,-5.78511 -5.14616,-17.65694 -2.25851,-12.31961 3.34087,7.72124 0.59394,15.91101 -0.74042,23.5668 -1.85004,2.81235 -7.02098,9.01957 -6.55327,11.06586 5.41269,-7.33371 -2.96676,5.58262 -5.52344,7.22375 -5.41239,4.79788 -14.447528,6.83646 -16.253475,14.31176 5.98934,-10.05134 -0.535492,4.8695 -5.217912,5.86035 -4.899698,4.2022 -7.070104,11.00836 -14.464277,12.46744 3.555658,-3.71415 6.842752,-7.50956 8.291267,-8.67452 2.889986,-4.13975 -1.908727,-0.0405 1.456303,-4.37281 2.532224,-1.06314 8.883125,-7.59532 7.12889,-8.23037 -6.136039,6.71015 -11.501505,14.05955 -17.89563,20.84086 1.193772,-3.67728 3.15288,-3.18835 1.466786,-5.01476 0.147401,-4.39877 -0.365245,-3.25756 1.074157,-1.80106 -0.682973,-5.211 2.559676,-6.48159 0.530653,-0.58126 0.199615,2.42596 2.179697,-7.91343 4.784842,-9.74176 3.027749,-3.05555 4.293295,-6.88659 0.604409,-1.7938 -2.374628,3.755 -3.527203,5.42479 -5.70877,6.40933 -4.711311,5.68312 4.839215,-4.54096 3.368888,-7.54051 0.140559,-8.70721 -0.160695,6.08872 -4.604024,7.14358 0.376283,9.69238 -8.588061,16.53219 -8.238066,26.57716 -0.04207,1.16483 0.07035,3.67802 1.104417,4.30661 z m 0.232371,-7.14555 c -1.454016,-3.91778 9.046297,-12.36073 2.88107,-5.43518 -1.886064,1.33456 -1.66156,3.72416 -2.88107,5.43518 z m 5.460829,-9.25278 c 0.0453,-0.60849 0.352138,0.14954 0,0 z m 47.382832,-49.02979 0.0458,-0.11134 z m -7.22335,63.52763 c 0.45365,-2.17938 -0.82231,-3.35826 0,0 z m -1.33617,-1.10378 c 0.6638,-2.06044 -0.98117,-3.26077 0,0 z m -1.16187,-1.10379 c 1.19702,-4.54478 -1.16948,-3.73705 0,0 z m 1.04569,-4.06658 c 0.63287,-3.53421 -0.78561,-2.44809 0,0 z m 1.08719,-0.36516 c 0.44507,-3.11251 -0.38882,-0.82561 0,0 z m -1.84241,-1.14527 c 0.2604,-2.58801 2.07789,-9.96537 0.009,-3.36046 l -0.24658,1.67526 z m 0.36827,-3.74901 0.1122,-0.31838 z m 1.59032,-1.52509 c 0.64596,-2.34385 -0.37328,-0.78787 0,0 z m -0.63903,-2.99184 c 0.93829,-3.26609 -0.59725,-1.07537 0,0 z m 1.35276,-2.39429 c 0.64781,-1.4121 -0.38733,-1.09319 0,0 z m -34.872936,-0.62659 c 5.131438,-2.23677 6.327096,-9.24014 10.10925,-12.01516 -5.170059,2.45723 -5.420735,9.06854 -10.10925,12.01516 z m 32.955836,-0.0124 c 1.26323,-3.43423 -0.66001,-2.88728 0,0 z m -35.686247,-1.67227 c 3.963983,-7.04884 8.788659,-13.24534 13.737981,-19.90015 -5.807666,5.90313 -11.037791,13.13447 -13.737981,19.90015 z m 37.022407,-0.12863 c 0.93376,-2.99255 -0.25468,-2.69624 0,0 z m -7.33643,-2.65988 c -0.11671,-11.02936 9.12262,-18.79257 18.7101,-22.21184 8.55055,-3.61431 18.20115,-7.70152 22.33336,-16.66614 -4.71472,5.91142 0.0856,-0.75743 -1.0942,-0.075 -4.65359,6.2497 2.53534,-5.24838 -1.75813,1.12506 -1.60189,3.35766 -9.66498,8.89326 -3.37185,3.0286 2.91724,-3.28699 5.56732,-8.55047 1.36162,-2.24353 -6.14114,6.47615 0.58497,-1.46098 1.73668,-4.92759 -1.50802,2.98176 -5.10671,7.11746 -1.68482,1.62663 -1.53571,3.8362 -10.54917,11.19876 -3.83414,3.89548 2.43018,-3.09304 5.43025,-8.44922 1.29584,-2.53115 -6.90294,8.9656 6.01358,-10.73089 -0.58313,-1.01513 -1.25478,2.85893 -8.11018,9.13955 -2.82935,2.74687 2.15631,-2.69757 4.6767,-7.70973 1.12599,-2.12865 -7.10241,10.90275 -21.57089,13.67753 -28.12571,25.01185 -2.79719,4.20159 -3.87401,9.37517 -3.28226,14.3645 z m 29.83848,-28.36422 c 1.42242,-1.5944 2.46558,-0.91382 0,0 z m 1.24176,-2.84749 c 0.54442,-1.02477 0.62167,0.18681 0,0 z m -3.89229,-0.27518 c 0.007,-0.87441 0.63631,0.23328 0,0 z m -18.35768,29.68599 0.1997,-1.05064 z m -1.80091,-0.0871 c 1.39267,-2.96865 -0.18832,-2.8091 0,0 z m -31.64457,-2.30716 c 1.547312,-2.01912 6.459347,-6.81949 1.548356,-2.67179 l -0.97281,1.23549 z m 4.224252,-1.09134 c 4.300945,-2.64871 0.485708,-2.04779 0,0 z m 2.920186,-0.24593 c 0.276099,-0.40658 -0.406614,0.27624 0,0 z m 0.236948,-0.17663 -0.03547,-0.019 z m 0.241359,-0.18742 c 3.359032,-2.00165 4.476557,-6.00551 0,0 z m 23.980325,-2.77191 c 2.32654,-2.85985 1.87528,-5.8684 0,0 z m 2.07479,-0.21993 c 1.32464,-2.37605 0.16986,-1.16207 0,0 z m -28.088399,-0.26143 c 3.089072,-2.5165 0.83228,-4.41922 0,0 z m -4.879888,-0.52284 c 4.353472,-2.9962 1.871284,-3.59127 0,0 z m 9.033604,-0.4357 c 2.314276,-2.10181 -0.226108,-1.4234 0,0 z m 1.352755,-0.0124 c 1.331071,-1.52429 0.42038,-2.6362 0,0 z m 19.038198,-0.74277 c 3.32932,-2.44218 2.11892,-4.34385 0,0 z m 1.39426,-0.18957 c 4.05257,-3.14975 3.09918,-6.08177 0,0 z m -32.416397,-0.46476 c 3.432378,-2.83866 4.613788,-7.57155 0,0 z m 37.487157,-0.17144 c 0.71085,-0.61059 -0.37718,-0.17638 0,0 z m 52.02309,-0.0581 c 1.76107,-10.25118 -1.12264,-22.73669 -11.37627,-27.44983 -6.31594,-3.21049 -11.99005,-7.80326 -16.23491,-13.4935 4.49529,6.58024 11.27475,11.72719 18.36121,15.35285 7.25313,4.77027 9.24662,13.7993 9.04166,21.91505 -1.94894,-3.2007 -3.21625,-8.143 -0.65229,-2.32381 -0.0973,-4.958 -3.3929,-9.85735 -5.05302,-11.15418 2.56863,4.31396 3.07795,7.97979 0.10816,2.59662 -4.94542,-7.69604 3.43591,6.8747 -1.83707,-1.02508 -2.03456,-5.23667 -1.28309,-1.85661 0.31868,1.56662 -2.25922,-3.73948 -6.19487,-7.96114 -1.69275,-1.68267 4.12209,5.13365 8.32788,10.4847 9.0166,15.69793 z m -0.53944,-2.60177 c -0.74792,-0.82181 0.5019,-0.44169 0,0 z m -0.23238,-0.74277 c 0.0884,-0.46803 0.28928,0.29608 0,0 z m -0.0581,-0.36101 c -0.36183,-0.72319 0.37374,0.1291 0,0 z m -0.11619,-0.58095 -0.0664,-0.18928 z m -50.75822,3.73386 0.32705,-0.76156 z M 89.4184,182.05235 c 3.36333,-3.09985 0.326881,-2.38109 0,0 z m -9.162235,-0.24482 c 0.903012,-0.87699 -0.535416,-0.50617 0,0 z m 13.01159,-0.4081 c 2.216686,-1.80987 2.176841,-4.1672 0,0 z m -0.42181,-1.32227 c 5.840723,-4.16638 0.01387,-2.51747 0,0 z m -1.365209,-1.65568 c 4.531931,-2.39013 2.877036,-4.66212 0,0 z m 30.108484,-0.36176 c 0.22955,-0.32627 -0.32629,0.22959 0,0 z M 97.37728,177.7533 c 3.90079,-1.21267 2.63564,-4.35081 0,0 z m 1.771861,-0.20333 c 2.930769,-1.68894 0.412303,-1.93822 0,0 z m -17.689592,-0.95855 c 4.549173,0.26947 12.087319,-5.55674 3.267694,-2.61375 -3.619532,2.11477 -8.827152,0.45797 -12.009659,1.04386 -8.347316,-3.30734 3.930131,3.05418 7.103688,1.49851 l 1.638277,0.0713 z m 10.442719,-0.39179 c 3.605177,-3.22131 -1.584693,0.67525 0,0 z m 5.213589,-0.0439 c 4.945573,-2.47938 4.342213,-5.58411 0,0 z m -28.947709,-0.21059 c -1.470409,-3.21165 -8.885733,-1.68441 -11.921232,-6.41117 -3.719087,1.26031 -6.426933,-8.95576 -6.51603,-13.10736 1.26396,2.32311 2.506943,-3.1891 3.244225,1.55137 -2.435857,4.25445 -0.08558,6.17851 1.150763,2.05785 0.260258,-2.81154 3.859111,1.2434 -0.230572,2.4485 -1.277485,7.8961 5.218086,-0.92955 3.075689,-3.60031 3.605067,-0.16603 -0.93736,-4.23027 2.808628,-5.88432 -2.252056,-2.47304 -7.199692,8.43782 -4.638922,1.73577 2.097206,-3.63674 5.826207,-4.45239 9.206984,-5.9454 -0.868418,3.68485 -1.601821,8.02832 0.34732,10.07066 1.491092,-1.69236 1.294405,3.56274 -0.302939,0.81453 1.523213,4.37234 5.354612,11.42099 10.675204,12.06541 -4.772952,-4.70718 0.227039,-0.24633 2.304724,-0.11378 -3.913424,-1.02842 -3.076868,-11.32989 -5.159182,-9.03499 -0.33024,2.96332 -1.54873,-4.64749 1.356446,-3.05 0.44623,-3.22225 2.653005,-8.80126 4.313858,-2.46183 1.344216,1.52337 2.674745,7.61822 5.196247,6.06208 -1.297367,3.25251 8.182362,4.69551 1.939439,0.90199 -1.720348,-1.32095 -2.453522,-3.79069 -4.270973,-2.80123 0.571562,-1.85403 1.770232,-4.85837 2.366446,-7.80286 0.705351,6.74539 -0.560036,-4.75836 2.051336,1.04595 0.878381,-2.0515 2.364427,7.9372 2.410955,2.22189 1.312302,2.65065 2.278119,6.78592 2.53693,3.18111 5.167444,3.41594 -1.450905,-3.50258 2.821665,-0.22272 -0.465563,-6.55612 0.713397,6.17562 4.37016,1.30089 -2.869663,-2.51144 -4.589285,-8.83257 -4.706033,-12.43651 2.582945,6.29906 0.0012,-4.45459 3.462006,-0.50943 -0.236585,-6.09395 1.220221,3.98171 4.9814,2.9012 5.76345,2.96713 3.20469,-1.78131 0.92724,-3.72704 3.70304,2.49432 7.03315,1.26883 1.25999,-0.44684 -3.657513,-2.00123 -3.565105,-5.43719 -3.398227,-9.74416 3.061187,1.56343 4.193917,3.02826 9.396387,3.94456 -4.87769,-2.50962 -2.97289,-1.7369 1.38241,-2.10402 -3.61857,-2.50977 -4.28554,-4.19143 -3.91761,-6.2305 -2.12285,1.65356 -3.41863,-2.53993 -4.51778,-0.26152 -1.55099,-4.06177 -4.930099,-6.64164 -1.429,-1.2571 2.79476,5.81782 -3.910556,-5.59866 -0.32507,2.23258 -0.17448,3.33887 -3.285386,-7.91881 -2.649818,-1.40115 4.132118,8.55414 -3.586861,-6.74242 -3.675179,0.6579 5.570729,2.12547 -1.877538,0.27078 -0.204033,5.5767 -0.96113,-4.7025 -0.719874,-1.3807 -2.323868,-0.11631 0.606407,-2.43946 0.307471,-4.8317 -1.045285,-1.04569 -2.433609,-4.08373 1.453689,6.66266 -2.148454,1.45257 -0.228345,-4.7283 -0.699111,1.45577 -0.187394,2.68257 -1.842236,-4.76767 -3.533896,5.42502 -3.462409,-0.53399 -2.165159,3.28093 -4.441007,7.44129 -1.730068,0.91243 0.27427,-5.65529 -5.725719,9.58676 -2.719726,1.18761 2.837494,-4.58088 -3.155031,-0.37982 1.425053,-4.72385 0.174066,-2.59324 -6.349617,5.7905 -1.569724,-0.2451 1.075762,-3.79226 -4.616506,4.86219 -2.202144,-0.24218 -5.400772,3.257 1.196205,-5.67221 -3.418987,-0.51488 -3.350336,0.3065 -3.61959,-1.25675 0.980622,-2.57449 -2.714413,-0.55117 -11.937819,3.98263 -4.134598,-0.15497 5.161836,-0.96586 2.425243,-1.45722 0.652925,-1.95358 3.719514,-1.7609 1.575087,-5.3512 0.263885,-5.3654 3.592426,0.40245 7.072113,-8.18267 8.780936,-7.00741 1.12897,-2.06964 3.918507,-2.76319 4.937878,-4.46619 -5.054262,-4.2434 -13.698534,3.41103 -16.469165,7.68895 -7.231817,2.10537 -3.404622,9.25497 -10.798384,10.28177 -6.413421,4.09125 -9.626304,11.70829 -9.909959,19.01319 -1.310532,7.62896 1.451691,16.58353 8.883985,20.28851 3.194308,1.88124 6.789653,2.89332 10.471029,3.21974 z m -5.066273,-1.44508 c -0.325828,-0.94454 1.395812,0.57794 0,0 z m -1.742817,-1.64322 c 0.0066,-0.6493 0.264998,0.24394 0,0 z m 7.617565,-6.01208 c -3.071526,-3.58834 2.54201,0.38623 0,0 z m 2.788507,-0.11618 c -1.89587,-3.31347 2.289742,0.49176 0,0 z m -0.99486,-1.52355 c -3.809655,-1.35272 0.903934,-2.7165 0,0 z m -1.64841,-1.69912 0.07927,-0.0909 z m -1.372469,-0.39226 c -1.167278,-1.76317 2.14251,-0.31111 0,0 z m 2.185781,-0.0725 c -0.364913,-3.56046 1.884972,-1.9274 0,0 z m 20.536195,-6.07167 c -0.985959,-2.49482 -5.582605,-0.0283 -1.66902,-3.28628 0.592668,-3.67513 1.421375,3.25109 1.66902,3.28628 z m 1.888048,-0.8996 c -2.466294,-3.36321 2.368192,-0.59446 0,0 z M 81.169082,155.7938 c 0.09933,-1.78667 0.650141,0.71229 0,0 z m -31.283564,-0.87141 c -0.510295,-6.41846 1.419573,-6.35329 0,0 z m 2.59244,-0.13188 c -1.31475,-0.56688 -0.679054,-0.24687 0,0 z m 38.893863,-0.75522 c -0.438959,-0.5684 0.669946,0.0882 0,0 z m -38.697796,-0.50715 c 0.287479,-2.6088 1.344445,-0.42258 0,0 z m 1.662935,-0.36294 c 2.741313,-3.80317 -2.364817,-3.82783 1.88004,-6.09225 -1.502727,2.05337 1.743356,5.45775 -1.88004,6.09225 z m 9.963102,-0.34985 c -0.858013,-2.27206 1.500486,0.0655 0,0 z m -12.664468,-1.48097 c -0.347889,-0.99743 0.918849,-0.22632 0,0 z m 50.214906,-0.94329 c -3.972995,-3.19703 2.82164,-1.05692 0,0 z m -44.957411,-0.65472 c -0.518002,-1.53244 1.772557,-0.57272 0,0 z m -4.473227,-0.78298 c -0.384011,-3.6421 3.63472,-3.11785 0,0 z m 5.344636,-0.81331 c -0.210019,-1.19137 1.177264,-0.16647 0,0 z m -7.23995,-0.59559 c 1.795266,-5.99474 2.486826,-2.53665 0,0 z m 49.583142,-0.029 c 0.2709,-0.48701 0.1264,0.57593 0,0 z m -1.18366,-0.13059 c -0.762499,-1.12883 1.09256,-0.0774 0,0 z m 1.48139,-0.14609 c -0.648507,-0.88895 0.79616,0.11681 0,0 z m -24.871449,-0.10093 c -0.647714,-2.69568 2.842664,-3.42803 0,0 z m 25.678599,-1.0672 c -0.13402,-0.56908 0.51124,0.33333 0,0 z m -26.375725,-1.80845 c -0.273915,-3.73661 3.834074,-5.56287 0.290234,0.0581 l -0.290234,-0.0581 z m -0.893194,-0.47915 0.02614,-0.0957 z m 24.864186,-1.80091 c -0.819061,-1.78741 1.685623,0.17834 0,0 z M 68.6208,141.93844 c -0.285006,-1.677 2.700563,-0.72201 0,0 z m -15.888686,-0.69713 c 1.291988,-3.94195 2.271793,-1.56904 4.8e-5,0.26144 z m 18.677193,0 c -2.16447,-1.09108 2.427994,-1.37416 0,0 z m -16.934376,-0.0581 c -0.424816,-1.49676 2.467099,-1.4941 0,0 z m 15.540122,-0.23238 c -0.394324,-0.19812 0.399219,-0.09 0,0 z m -3.253262,-1.39426 c -1.917618,-1.20881 2.520938,-1.52674 0,0 z m 2.911958,-0.45096 c 0.446974,-2.18506 1.873844,0.24624 0,0 z m 35.139541,-0.76901 c -3.22306,-1.29582 -1.19743,-3.32214 0,0 z m 2.43995,-0.58093 c -2.29619,-1.08175 1.24354,-0.92366 0,0 z m -4.70561,-0.37762 0.12473,0.0108 z m -43.192812,-0.56848 c 2.552951,-2.55247 4.526084,-1.00104 0,0 z m 3.688968,-0.27387 0.295506,-6.6e-4 z m 2.650529,-1.0601 c -0.09944,-3.22822 8.859359,-3.78913 2.017994,-1.55735 l -1.015227,0.77093 -1.002767,0.78636 z m -6.978527,-0.65126 c 0.986637,-1.8355 3.321285,-0.46579 0,0 z m 8.27838,-2.5876 c -1.696242,-2.4059 6.956949,-0.93352 0,1e-5 z m 0.965809,-2.16387 c 0.946921,-1.14457 2.956366,0.18554 0,0 z m 0.602727,-1.55413 c -4.334782,-1.30284 6.443936,0.10243 0,0 z m 1.917098,-1.51045 c -0.98859,-1.28694 2.499166,0.0468 0,0 z m -0.116185,-2.41089 0.12474,-0.0108 z m 4.298946,-0.029 c -1.971816,-0.52655 3.40456,-2.52728 0,0 z m -4.553109,-0.59535 -0.05548,-0.42634 z m -0.268682,-0.36079 c -0.230772,-0.29187 0.286923,0.21723 0,0 z m 0.580965,-0.32192 c 0.280197,-0.54721 0.03228,0.50385 0,0 z m 31.835453,51.50022 c 6.79302,-2.85039 3.23649,-5.0329 0,0 z m -5.489866,-0.55189 c 5.002376,-3.50304 -0.105235,-1.19237 0,0 z m -24.544674,-0.0871 c -1.967743,-3.33776 -6.623898,-3.16483 0,0 z m 3.381552,-0.5301 c 4.493201,-0.82769 -5.072557,-0.79145 0,0 z m -7.564313,-0.95129 c -1.527975,-4.56692 -2.718767,-1.83468 0,0 z m 5.012671,-0.0415 c -1.640749,-3.80297 -9.902011,-7.03271 -3.734678,-2.02111 1.329497,0.53356 2.123159,2.1797 3.734678,2.02111 z m -4.838389,-3.24081 c -1.406732,-0.82962 1.0391,-0.54746 0,0 z m 11.851155,3.25327 c -0.313898,-1.59579 -3.160848,-0.11375 0,0 z m 6.216045,-0.0739 c -2.115291,-1.76681 -3.179004,-0.16346 0,0 z m -25.21275,0.0159 c 0.605776,-0.21236 -0.374015,-0.10965 0,0 z m 42.001879,-0.23238 c 3.68159,-1.33866 8.96039,-8.61886 2.97594,-2.3571 -0.75791,0.64626 -3.1091,1.07913 -2.97594,2.3571 z m 10.76287,-0.47831 c 0.4709,-0.72883 -0.59553,0.23363 0,0 z m -48.913954,-0.23126 c -1.473613,-2.55448 -2.682719,-1.51847 0,0 z m 16.772541,-0.0902 c -2.18346,-1.71275 -1.829118,0.78687 0,0 z m -2.655723,-0.20029 c -0.930739,-1.77664 -2.503146,-0.59232 0,0 z m 29.117486,-0.0747 c 1.55408,-0.76812 0.27341,-0.94879 0,0 z m -19.897154,-0.26143 c 3.936358,0.95583 13.219184,-4.74975 4.342814,-2.52575 -1.871733,4.49527 -14.494479,-2.82122 -4.342814,2.52575 z m -5.211853,-0.24482 c -1.416663,-2.06751 -2.75937,-0.84619 0,0 z m -3.020885,-0.40666 c -1.155176,-1.94176 -2.399523,-0.45424 0,0 z m 21.536232,-0.10374 c 1.53482,-0.39377 2.70703,-3.0009 0,0 z M 115.46,170.07133 c 0.26116,-0.55643 -0.38605,0.22275 0,0 z m -6.87057,0.0136 c 3.88636,-1.20671 4.40628,-5.87765 0.75243,-1.24705 1.51881,-1.02245 -1.84542,1.54094 -0.75243,1.24705 z M 77.612178,169.6941 c 0.734508,-3.3407 -0.275021,-5.04798 -2.406319,-3.52345 -0.556589,1.51264 0.804971,3.44405 2.406319,3.52345 z m -15.829835,-0.26066 c -0.702266,-1.92868 -1.634558,-0.47921 0,0 z m 26.532316,-0.52625 c -1.469327,-1.91679 -4.644261,-0.32142 0,0 z m 28.831161,-0.17088 c 1.53165,-2.83454 0.53874,-3.83123 0,0 z m -50.425493,-0.29048 c -2.040324,-3.03584 -3.893213,-0.27308 0,0 z m -7.465069,-0.17428 c -0.143837,-1.21587 -1.675238,-0.51872 0,0 z m 29.249169,-0.17538 c -2.750275,-1.98386 -10.676871,-4.62459 -3.499614,-1.25297 1.201626,0.32568 2.193678,1.28254 3.499614,1.25297 z m -26.431617,0.001 c -0.678768,-2.61765 -1.976809,-1.87704 0,0 z m 28.058248,-0.1173 c -0.392717,-1.78942 -2.864775,0.45855 0,0 z M 79.71676,167.76143 c -1.060593,-2.5308 -2.780632,-1.82546 0,0 z m -22.511384,-0.11619 c 2.219219,-4.35383 -3.888138,-3.99251 0,0 z m 35.466325,-0.33536 c -1.328412,-1.4365 -3.760465,-0.13712 0,0 z m 12.141619,-0.47796 c 3.41241,-2.22566 2.22816,-3.34234 0,0 z m 14.13342,-0.0124 c 1.39297,-2.84265 0.27572,-2.79552 0,0 z m -8.91873,-0.32083 c 2.82689,-2.81406 0.50888,-2.03091 0,0 z m -20.667661,-0.071 c -2.603737,-3.18859 -3.312829,-0.68648 0,0 z m -30.077357,-0.10332 c 0.942951,-4.12217 -3.827517,0.0601 0,0 z m 6.217363,-0.49249 c -1.290925,-5.80358 -3.115136,-2.07345 0,0 z m 31.644574,-0.27802 c 5.338821,1.69664 8.723081,-10.21903 5.082541,-4.79283 -0.45254,1.76309 -7.101338,4.77474 -5.082541,4.79283 z m 24.416031,-0.0124 c 1.39761,-3.26399 3.11705,-12.29547 0.62884,-4.35352 -0.33454,1.34208 -0.92021,3.11099 -0.62884,4.35352 z m -1.41085,-0.16182 c 1.88973,-3.89592 0.8316,-5.29917 0,0 z m -56.422372,-0.10035 c -0.212648,-2.46977 -1.850248,-1.67667 0,0 z m 30.512499,-0.0739 c 2.5917,-0.65888 -3.76866,-0.72536 0,0 z m 19.389593,-0.1009 c 2.1203,-2.44983 -0.7309,-0.10255 0,0 z m -1.14811,-0.0153 c 3.26429,-2.97931 0.77413,-3.72332 0,0 z m -46.342335,-0.24484 c 0.527142,-2.94966 -2.740026,-0.6952 0,0 z m 25.415328,-0.0879 c -1.483627,-2.29455 -3.211361,-0.40706 0,0 z m -16.834026,-0.0739 c 1.897914,-1.30896 -2.514287,-4.29721 -0.73782,-0.90037 z m 1.742817,0 c 0.452187,-2.52674 -2.308818,-2.66659 0,0 z M 59.79055,164.56629 c 0.275982,-2.33925 -2.546581,-2.05787 0,0 z m 18.067207,-0.17428 c -0.689714,-3.07164 -1.032285,0.66796 0,0 z m 9.934057,-0.34857 c 0.240194,-1.54098 -1.909198,-0.62868 0,0 z m -1.581737,-0.10034 c -1.013171,-4.74499 -5.177624,-2.52282 0,0 z m 22.553633,0.0423 c 1.89091,-1.40024 2.08264,-3.74001 0,0 z m -16.686151,-0.10036 c -1.201724,-2.49141 -3.082951,-0.61016 0,0 z m 1.9303,-0.24822 c 0.292026,-2.8421 -6.096806,-1.21447 0,0 z m -13.361595,-0.0581 c 0.784508,-1.54322 -2.770378,-1.52199 0,0 z m -52.529333,-0.0705 c 0.414979,-0.69144 -0.548052,0.24696 0,0 z m 32.067077,-0.14597 c -0.05354,-2.65579 -4.32648,-6.97995 0,0 z m 29.466808,-0.30632 c -2.865095,-4.66575 -4.480915,-3.21993 0,0 z m -26.490817,-0.55189 c 0.379008,-3.11367 -1.648595,-0.056 0,0 z m -36.105356,-0.29046 0.180052,-0.49456 z m 0.393451,-0.36177 c 3.679324,-6.77387 12.114602,-10.58852 12.649927,-19.0142 -0.47196,-4.24868 5.025625,-14.07275 3.665011,-12.68342 -4.272358,5.2362 -3.149104,14.86337 -5.735854,16.20877 0.11697,2.05518 -6.317132,9.35441 -6.469835,6.92478 -2.213325,5.3738 -0.08297,-5.548 -1.684662,1.54792 -0.146557,-4.38102 1.84519,-11.70132 -0.26083,-3.08601 0.330479,3.65384 -1.423655,6.77551 -2.163757,10.10216 z m 3.324554,-5.50572 c -0.0395,-1.49449 1.518246,-0.8512 0,0 z m 0.929504,-0.9876 c 0.122759,-0.65213 0.557417,0.0169 0,0 z m 44.993723,6.21605 c -0.01341,-3.54171 -1.019866,-0.2702 0,0 z m 2.672321,0.14524 c 0.452975,-1.77683 -1.985287,-1.07446 0,0 z m 29.976444,-0.0871 c 3.0441,-2.74809 1.99625,-3.34303 0,0 z m 4.60425,-0.27564 c 2.70769,-3.57249 -1.45108,0.87989 0,0 z m -38.821551,0.24659 c 0.559659,-2.13848 -1.767055,-2.00753 0,0 z m -11.560681,-0.0581 c 1.087419,-2.39561 -1.761268,-2.67726 0,0 z m -12.155181,-0.82687 c 1.217969,-4.45928 -2.73726,-1.9459 0,0 z m 33.201768,-0.28937 c 1.181843,-4.82238 -4.416539,-2.96586 0,0 z m 27.970895,-0.437 c 2.7111,-3.19519 1.11769,-3.1395 0,0 z m -50.063172,-0.68337 c -1.066912,-4.79196 -0.395212,2.31454 0,0 z M 59.777349,159.47 c 0.515173,-3.20712 -1.743249,-1.66046 0,0 z m 18.428972,-0.0425 c 0.262278,-3.33516 -1.994001,-1.31595 0,0 z m 19.810017,-0.26384 c 0.50058,-1.80324 -3.86561,-0.8362 -0.92777,-0.008 z m -22.830902,-0.11619 c 1.412311,-2.2031 -1.685978,-3.15639 0,0 z m 26.490814,-0.52284 c -2.867153,-2.17363 -4.315255,-0.69636 0,0 z m -15.801535,-0.11619 c 0.796629,-2.31852 -1.833001,-2.27048 0,0 z m -9.875967,-0.17428 c 1.121288,-2.55034 -1.497454,-1.17513 0,0 z m 40.566142,-0.18673 c 2.23703,-2.66958 -0.42599,-1.31717 0,0 z m -3.8923,-0.0581 c 1.64722,-2.24443 -0.0839,-1.1949 0,0 z m -15.03386,-0.53944 c 0.05722,-5.4037 -3.494101,-0.85702 0,0 z m 32.7525,-0.44815 c 2.23548,-3.62836 7.30923,-12.75997 7.185,-13.97813 -2.58564,4.49206 -5.13079,9.534 -7.185,13.97813 z M 103.1286,156.8399 c 5.46408,2.58941 11.24774,-10.48751 7.59173,-9.09313 -0.34892,4.92276 -4.61279,10.71153 -10.49734,7.80192 l 1.37448,0.85061 z m -43.554935,-0.71068 c 1.412928,-2.4314 -0.92496,-1.86815 0,0 z m 54.708965,-0.0445 c 2.36657,-3.64305 2.23168,-7.63568 0.55413,-1.35887 l -0.72839,1.33002 0.17426,0.0289 z m 15.76004,-0.65148 c 1.90652,-3.51282 7.18058,-12.78938 6.22125,-12.81851 -2.27597,4.03766 -4.59813,8.9909 -6.22125,12.81851 z m -10.80657,-0.40777 c 1.50716,-3.60483 0.79083,-2.88202 1.95886,-2.7171 3.64804,-8.22326 -2.94524,-0.0952 -1.95886,2.7171 z m 1.37877,-3.90778 c -0.35265,-0.53992 0.62273,-0.22165 0,0 z m 21.56943,3.61842 c 0.72198,-0.62277 -0.3908,-0.2849 0,0 z m -13.47779,-0.11619 c 1.86873,-3.47267 7.20441,-15.95287 2.74357,-6.46752 -0.87205,2.16967 -2.11189,4.20936 -2.74357,6.46752 z m -10.4154,-0.30065 c 1.85902,-2.58862 -0.2366,-2.19422 -0.15742,-0.23417 z m -23.220963,-0.1641 c -0.273338,-4.02677 -3.146465,-0.7411 0,0 z m 41.188573,-0.11619 c 3.21234,-2.74933 6.38895,-14.33015 2.14368,-5.09797 -4.10879,7.86708 1.03473,-0.86285 2.412,-4.01113 -1.01759,3.16996 -3.20347,6.6595 -4.55568,9.1091 z m -37.702939,-0.11619 c 0.0095,-1.46858 -1.396973,0.0986 0,0 z m 59.471549,-0.36515 c -0.63495,-8.42397 -6.33519,-16.22446 -13.50391,-20.51373 -6.60275,-3.74382 -15.70043,-3.87173 -20.45895,-10.28352 -3.44574,-6.13599 -6.4343,-13.48047 -13.49213,-16.28548 5.23603,3.16708 9.23252,8.40113 11.52511,14.21261 5.03848,11.13602 20.36563,8.42654 27.68282,17.18314 3.53222,2.82387 7.41858,12.03965 6.97608,12.95766 -1.10859,-5.56744 -8.60488,-14.80042 -10.18036,-14.77918 2.92957,2.22423 8.12719,9.87946 2.2741,4.46654 3.05071,2.04794 7.57946,13.65436 3.20638,5.34731 -2.10479,-4.10771 -6.66504,-7.46752 -1.81024,-1.86725 2.80416,3.12434 2.17818,5.97673 -0.39088,1.09653 -3.04872,-3.7986 -4.70155,-5.7128 -0.87515,-0.63262 0.20769,1.43791 0.73074,2.76069 0.94465,3.60925 -8.08551,-6.17217 5.85678,5.76653 8.10248,5.48874 z m -0.51558,-0.5663 c -0.31655,-0.6949 0.53895,0.24916 0,0 z m -1.04569,-0.52285 c -1.23198,-1.08527 0.62919,-0.21196 0,0 z m -1.54675,-0.97319 c -1.18394,-0.96168 0.69544,-0.78479 0,0 z m 0.5882,-1.14809 c -2.51437,-3.94037 -2.1502,-7.93072 0,0 z m -123.034648,3.10976 c 2.316758,-2.71769 -0.869906,-0.38973 0,0 z m 63.468693,-0.057 c 0.41754,-1.82954 -1.38344,-0.58144 0,0 z m 6.373735,-0.16183 c -1.88917,-4.44978 -6.204109,-0.53635 0,0 z m -41.885702,-1.04569 c 1.983225,-2.03884 -0.116271,-2.25011 0,0 z m 36.727445,-0.23964 c 0.810949,-1.90288 -1.347998,-1.62257 0,0 z m -65.147816,-0.41184 c 1.718011,-2.73684 -0.801325,-0.49435 0,0 z m 1.464797,-0.30711 c 2.413545,-2.70062 3.847096,-4.6495 0.667554,-1.7081 1.555047,-4.11281 -1.572245,2.33773 -0.667554,1.7081 z m 86.286036,-0.79671 c 1.62474,-3.48541 2.22976,-8.8791 -0.008,-1.94446 l -0.0984,1.06158 z m -2.41165,-0.14599 c 1.61222,-3.15724 0.5433,-8.23092 -0.0887,-1.62579 0.83937,-0.67915 -0.55044,1.75227 0.0887,1.62579 z m -22.133771,-0.23237 c 0.895142,-1.27276 -0.994705,-0.18375 0,0 z m 1.756019,-0.87274 c -0.330835,-2.5165 -0.913069,1.19772 0,0 z m -65.426179,0.0311 c 0.966368,-2.01408 -0.837662,-0.15853 0,0 z m 4.079021,-3.35699 c 1.940467,-1.58899 2.080875,-3.78633 1.302639,-3.22752 -0.243297,0.33124 -2.181387,2.90621 -1.302639,3.22752 z m -2.018346,-0.76933 c 2.423403,0.006 4.321861,-7.16726 0.229512,-1.15041 -1.725603,-0.81856 -0.618915,2.18336 -0.229512,1.15041 z m 74.984286,0.0431 c 1.09465,-1.36555 -3.39171,-0.18254 0,0 z m 1.68472,-0.0581 c 7.12359,-0.25079 8.04792,-9.71235 4.81681,-14.65004 -4.47572,-3.97543 -0.20857,-14.41522 -3.65928,-15.52803 -1.33871,-0.1272 0.77536,1.7947 0.0348,4.18097 -1.2413,3.12298 4.65518,12.90886 3.91006,18.63704 -0.51979,4.16135 -3.1568,5.39959 -5.10234,7.36006 z m 8.9327,-0.44946 c 1.85133,-3.40408 -0.63273,-4.26313 0,0 z m -86.182723,-0.69754 c 3.664022,-3.94043 -1.484554,1.01488 0,0 z m 73.374323,-0.1435 c -2.45895,-3.49521 -2.984,-0.64244 0,0 z m 1.61004,-0.33611 c -0.71032,-1.83369 -3.42503,-0.13167 0,0 z m 25.89667,-0.27462 0.36522,-0.92663 z m -10.86356,-0.34856 c 1.58567,-2.90286 -0.62876,-11.90547 0.0237,-4.2102 -0.38624,1.29383 -0.7648,2.98616 -0.0237,4.2102 z m -4.24085,-0.34857 c 1.83435,-5.51973 -0.98093,-4.17459 0,0 z m -11.66367,-0.53869 c -3.77672,-3.28157 -5.24898,-0.15405 0,0 z m 21.37855,-0.40666 c 2.3697,-2.22204 5.19296,-10.38058 1.79832,-3.42943 -2.01523,2.7214 2.93032,-8.37938 -0.26513,-1.38983 -0.69932,1.5335 -1.39393,3.11809 -1.53319,4.81926 z m -25.6775,-0.11619 c 0.58079,-1.27539 -1.64215,-0.61809 0,0 z m 31.9717,-0.30637 -0.0355,-0.019 z m -32.59414,-0.86796 c 0.23405,-1.75318 -2.648422,-1.20336 0,0 z m -18.010209,-0.40775 c 3.074973,-4.29135 -2.127256,-2.01432 0,0 z m 44.077779,-0.0155 c 1.84005,-3.6314 2.94946,-10.11895 0.64806,-2.6995 0.16634,0.55312 -1.54359,2.90281 -0.64806,2.6995 z m 20.32042,-0.0996 c -1.89836,-3.54591 -3.82665,-2.72795 0,0 z m -66.214599,-0.27802 c 3.72153,-4.55426 -2.611279,-1.08191 0,0 z m 3.718005,-0.17428 c 2.758817,-3.15066 -1.575073,-2.18421 0,0 z m 33.855544,-0.0423 c 1.38191,-3.99232 -1.70408,-5.22088 0,0 z m 11.24192,-0.37686 c 2.2745,-3.77154 1.77708,-5.07289 0,0 z m -9.84767,-0.32027 c 1.19511,-3.53227 -1.48065,-4.96011 0,0 z M 76.928253,137.4074 c 5.167481,-1.74043 -2.891024,-1.32271 0,0 z m 76.032467,-0.30291 c 2.48337,-7.97515 -2.42916,-15.94285 -1.09971,-24.07312 0.5482,-12.35362 4.86657,-25.063952 14.75333,-33.033718 2.59404,-2.73172 11.29322,-7.113291 3.32949,-3.607729 -10.28412,6.591818 -16.58801,18.015805 -18.34347,29.935107 -1.67638,6.93773 -1.80134,22.78078 -1.68386,24.83676 1.18237,-0.14416 2.39016,-3.45695 2.53498,-0.75486 1.66899,-4.07425 0.92791,6.14573 0.50924,6.69756 z m -2.5425,-9.59426 0.14226,-0.36911 z m 0.0859,-0.7053 c 0.1445,-0.82296 0.20788,0.6712 0,0 z m -22.85995,10.16643 c 1.58903,-3.6135 0.0495,-2.94049 0,0 z m 0.71372,-0.21577 c 1.94232,-3.56413 0.99552,-5.09554 0,0 z m -9.23693,-0.17429 c 0.81461,-4.98594 -1.26712,-4.17637 0,0 z m -74.405834,-0.51038 c 5.510237,-3.27492 4.593019,-17.28134 6.154567,-18.26903 -4.673199,5.18003 -0.488153,14.03626 -6.154567,18.26903 z m 64.222804,-0.34856 c 2.55706,-1.24396 -3.72242,-1.57408 0,0 z m 11.32831,-0.58095 c 1.35368,-2.81924 -2.22308,-3.39104 0,0 z m -26.955565,-0.40665 c 1.810726,-4.93514 -2.295593,-0.48661 0,0 z m 28.291725,-0.52284 c -0.0209,-2.70252 -3.21212,-7.32407 0,0 z m 1.9337,-0.65149 c 0.54072,-4.15621 -2.77712,-3.65783 0,0 z m -13.49439,-0.16183 c 3.79918,-0.30673 -3.09291,-2.24129 0,0 z m -66.32738,-0.15843 c 1.313408,-2.01682 3.612725,-1.31751 2.557555,-4.17998 -1.412304,0.331 -2.601508,2.81468 -2.557555,4.17998 z m 102.10078,-1.19018 c 1.88258,-3.29812 1.91411,-8.34342 0,0 z m 1.07399,-0.32027 c 1.69882,-3.56713 1.7243,-6.59641 0.21658,-1.21231 l -0.43553,1.22563 0.21917,-0.0132 z m -41.85666,-0.23237 c -0.14123,-3.47747 -3.3067,-0.81553 0,0 z m 2.45314,-0.36441 c 0.79353,-1.51214 -1.76742,-0.71283 0,0 z m -1.33615,-0.0581 c 0.53614,-1.30495 -1.9449,-1.0485 0,0 z m 3.87908,-0.15843 c -0.63171,-2.55795 -2.21527,-0.44896 0,0 z m -13.174105,-0.13204 c 1.046161,-1.64174 -2.26446,-1.782 0,0 z m 14.538955,-0.3621 c 0.24044,-1.83428 -1.56784,-0.34453 0,0 z m 9.74429,-0.0445 c 0.21108,-3.13085 -1.80058,-2.17503 0,0 z m -31.835455,-0.17428 c 4.594692,-4.69225 -10.636215,-8.88029 -9.139799,-6.02069 3.680623,0.0368 8.695343,2.21451 9.139799,6.02069 z m 54.927785,-0.37761 c 1.18137,-2.08213 3.08129,-8.23321 0.89884,-2.68164 l -0.55319,1.37756 z M 98.904287,129.6682 c -0.01432,-2.54457 -2.152887,-0.30315 0,0 z m 8.888363,-0.0581 c 0.84005,-5.15926 -1.90473,-4.63491 0,0 z m 34.74015,0 c 2.3214,-3.43904 4.12922,-9.72049 0.98583,-2.54151 0.19553,0.49138 -2.20642,2.76155 -0.98583,2.54151 z m -39.59174,-0.20408 c 0.76526,-2.22048 -1.38307,-0.72051 0,0 z m 37.32498,-0.0875 c 1.72868,-3.34521 5.27353,-12.26105 1.66165,-4.23214 -0.15843,0.99733 -2.31941,3.89543 -1.66165,4.23214 z m 0.92917,-0.11652 c 2.17896,-3.31463 4.75805,-9.4862 1.06195,-2.37459 -0.007,0.23341 -2.03326,3.36602 -1.06195,2.37459 z m -31.54356,0.0596 c -0.98498,-4.34377 -3.44479,-5.27241 0,0 z m -8.26592,-0.16184 c -0.21599,-3.45651 1.30011,-7.07026 -1.3943,-1.23365 l 1.39431,1.23365 z m 3.42753,-0.0871 c 0.40275,-2.1961 -1.55226,-0.32558 0,0 z m 0.92951,0.029 c 3.51982,-1.13671 -4.08675,-6.30884 0,0 z m 5.36123,-0.12863 c -0.38135,-3.02641 -3.44212,-3.51583 0,0 z m -8.97626,-0.84312 c 1.23804,-3.17069 -1.72152,-0.4378 0,0 z m 31.32582,-0.0739 c -3.1169,-0.89909 -10.89541,-7.16062 -3.90827,-2.79192 0.72803,0.83093 -5.55323,-5.55191 -6.99026,-8.16721 -1.30138,3.51466 5.58525,10.46227 10.89853,10.95913 z m 4.47323,-0.29046 c -3.61039,-8.63754 -6.15384,-19.81586 -16.0304,-23.40004 -4.01995,-2.01682 -14.92184,-0.86611 -5.13277,-0.37036 8.76111,0.98292 15.46346,8.25993 17.48716,16.56485 1.28075,2.36814 1.64177,5.29565 3.67601,7.20555 z m -34.3335,-0.11618 c 2.86526,-3.21872 -2.64147,-5.23885 0,0 z m -10.979742,-0.11619 c 4.101203,-5.61077 10.340792,-12.03658 4.197152,-17.74991 3.131685,-1.90214 4.01989,-12.699491 4.57493,-4.54352 -1.27406,3.91445 2.48469,-5.83366 5.4962,-5.179936 6.43695,-1.309881 11.78461,-12.33169 9.21213,-11.319937 2.4574,-11.116068 -8.54458,-19.251229 -17.571898,-23.177385 -4.389474,-1.418773 -14.780734,2.189122 -4.890708,0.277538 4.398493,-0.434101 5.512504,1.566117 9.379656,3.075704 -6.839061,-1.519805 4.44757,2.97117 1.38888,2.904699 5.19525,3.233726 -1.67104,-4.108635 3.14971,-0.0013 0.16253,2.302364 10.79811,8.112356 8.29318,15.454199 -1.51559,3.925035 -2.64971,9.994846 -4.71846,8.593732 -4.45206,5.189089 -3.05094,0.387275 0.86899,-2.646207 -3.66884,5.558303 2.42051,-9.961291 -0.85791,-1.100465 -1.28332,3.514513 -5.23164,5.968991 -1.39357,1.095251 1.64907,-2.619181 1.86125,-9.424466 0.2982,-2.679606 -3.87244,9.230475 1.96482,-10.497785 -1.48108,-4.204467 -0.91908,-5.249903 1.15451,7.328105 -3.16145,8.177512 -3.62766,5.362982 3.45459,-6.996132 -1.166,-0.293392 1.80708,-2.050526 2.43811,-10.990027 0.75451,-4.589507 0.76044,-3.92711 -0.38127,-9.532456 -0.43638,-4.54511 0.58165,1.670777 -0.60892,8.315231 -0.81031,3.081945 -1.37506,4.107171 -2.51109,6.745485 -1.39546,0.969368 -0.61967,-4.319634 -0.87633,-3.461826 -1.07433,-2.630074 0.001,2.76368 0.4597,8.128292 -0.5705,1.827477 -0.62629,-4.344089 -2.895196,-8.715129 -0.771952,-1.684369 0.307762,3.047181 -3.515396,-5.210215 -0.567178,1.43741 1.08835,3.362383 1.2368,3.131144 -0.763015,0.759071 2.128615,3.820769 3.197185,8.887471 0.283393,2.246376 -0.776171,-3.033352 -6.275956,-12.872577 -2.216356,-4.336966 2.233579,4.294073 -3.670554,-3.54165 -0.07122,1.989918 2.430661,3.116424 3.521716,6.590578 0.583312,1.481636 -1.541224,-2.552651 -6.09104,-6.091884 -1.606553,-1.115753 5.597287,7.184938 -7.289182,-6.275413 -0.3758,1.091115 2.222337,1.812652 5.936897,6.749575 1.368772,2.904427 5.902535,4.986897 0.322289,4.164388 0.750294,2.491372 -1.916866,-3.583272 -12.683426,-12.142835 -4.599444,-4.771274 5.16821,5.375354 -7.567964,-5.432376 -0.455102,1.129567 7.077074,7.585245 -10.285865,-10.433691 -2.713379,-1.069738 -4.354005,-1.808318 8.831192,6.64729 0.678831,2.295378 -3.401292,-1.573455 -8.43984,-10.271533 -9.055586,-9.558334 0.440574,2.7735 9.774578,11.483484 2.949107,6.321495 -2.922419,-2.564125 -7.394835,-13.630636 -3.514019,-4.648618 3.903603,5.625553 6.337272,10.22418 13.286194,12.324131 -2.541119,-1.991511 -5.153816,-2.873952 -4.589414,-3.981835 -4.644836,-2.578437 13.746633,5.961723 4.670457,2.551828 1.713736,1.89646 6.846666,3.106637 1.487823,2.03627 4.109378,1.937347 6.258693,3.647277 0.714529,1.360047 -5.579247,-1.829193 -13.228594,-7.891729 -14.948382,-10.812406 2.517905,8.837392 16.296848,8.400937 17.848799,16.008086 -3.663621,2.56641 -12.530294,5.15791 -5.20976,4.38287 -2.776508,2.84745 -9.646096,2.3086 -4.543889,8.18778 1.625763,3.05027 1.266802,7.91959 3.294054,10.18387 z m -0.544631,-0.47915 c -1.117922,-6.77374 0.06651,-1.62766 0.286247,-4.31976 -0.405094,-3.1414 -1.916765,-4.66465 -1.164633,-0.9234 -2.111676,-5.74616 -3.647419,-9.67264 2.200106,-10.45907 5.280384,-8.26179 -0.66174,4.84098 0.07725,8.5572 -0.749796,2.3057 -0.130139,5.10174 -1.398972,7.14503 z m -0.0778,-7.89882 c 0.85422,-2.23087 -1.314358,-0.85614 9.6e-5,0 z m -1.17848,-1.03325 c 0.04342,-2.17781 -0.823411,0.76438 0,0 z m 0.219176,-1.3784 c 0.987402,-1.13505 -0.961556,-2.1372 0,0 z m -0.683925,-1.09058 c 2.201133,-2.90365 -2.101428,-1.05297 0,0 z m 2.194364,-0.30367 c 1.516737,-2.43647 -0.848619,-1.20912 0,0 z m -0.145923,-1.59828 c 1.683443,-2.61611 -1.64016,0.32073 0,0 z m 1.843852,-2.01939 c 2.275481,-2.09472 -0.644767,-1.36036 0,0 z M 93.310705,126.253 c -0.184307,-1.73953 1.237006,-1.22066 0,0 z m 0.522845,-2.87564 c 1.75114,-4.67842 1.012125,-8.19254 3.019595,-8.65623 0.780227,1.61026 -1.113868,6.23237 1.055751,2.17248 0.158439,5.0504 -3.285156,2.34208 -2.419869,2.61222 -0.755376,1.18397 -0.97489,2.77236 -1.655477,3.87153 z m 4.741916,-6.43378 c 0.05011,-1.1747 1.474314,0.0939 0,0 z m -0.617252,-0.9732 0.04399,-0.46055 z m 6.564616,-18.793369 c 3.77291,-5.729281 5.0173,-2.310909 0,0 z m -2.08413,-0.944763 c 0.2076,-3.771618 3.08007,-5.159938 0,0 z m 1.50318,-3.760842 0.33447,-0.450645 z m 0.46476,-0.900456 c 0.26569,-1.718474 0.95308,-0.3543 0,0 z m -0.69713,-0.249769 0.20884,-0.322305 z m 5.05417,-3.148724 c -0.11477,-2.335893 0.5035,0.538966 0,0 z m 3.8705,-11.923651 c -1.21222,-1.125018 1.17318,-0.06576 0,0 z m 34.7329,50.933704 0.0374,-0.26705 z m -35.40824,0 c 0.76864,-1.08851 -1.36751,-0.53222 0,0 z m -36.657246,-0.46475 c 1.54501,-1.82141 -1.328962,-0.13645 0,0 z m 24.474131,-0.5353 c 1.617625,-4.06643 -0.565981,-2.99038 0,0 z m 7.029365,-0.23237 c 0.93795,-3.76743 -1.86962,-0.47002 0,0 z m 25.85386,-0.29255 c -2.83792,-1.61358 -11.04713,-10.74491 -5.24256,-3.26584 1.49049,1.44959 3.34808,2.44974 5.24256,3.26584 z m -43.369926,-0.0858 c -0.37857,-2.39924 -2.099897,-0.9206 0,0 z m 13.084326,-0.19013 c 1.34031,-1.9686 -1.41723,-0.7132 0,0 z m -26.200348,-0.0581 c 3.222625,-1.2934 -0.527168,-0.89703 0,0 z m 34.843138,-0.44891 c 0.68748,-1.50947 -1.38166,-0.26865 0,0 z m -9.96235,-0.0283 c 1.30591,-2.37645 -1.536621,-0.31001 0,0 z m 34.37499,-0.16182 c -2.76182,-8.03353 -6.46649,-17.26015 -15.60105,-19.68303 -10.84965,-1.56261 5.30798,1.03391 7.26717,5.18731 4.53469,3.7645 4.83667,10.15883 8.33388,14.49572 z m -47.766387,-0.39082 c -2.768681,-2.89517 -10.802004,-3.24821 -3.269161,-1.20654 1.32144,-0.32774 2.043785,1.12489 3.269161,1.20654 z m 44.878287,-0.20257 C 130.377,119.54773 120.5517,109.54808 120.502,110.85927 c 4.71074,3.34553 7.62692,8.47578 11.41201,12.63418 -3.16167,-2.72131 -0.88289,-0.0803 0.62667,0.59764 z m -27.49501,-0.10374 c 0.8274,-0.53905 -0.55036,-0.76256 0,0 z m -14.913534,-0.0705 c 0.264742,-1.63896 -1.25508,-0.0362 0,0 z m -12.100125,-0.16184 c 2.882602,-0.78712 -2.293786,-0.83974 0,0 z m -22.859953,-0.23238 c 0.367257,-0.189 -0.363101,0.0138 0,0 z m 0.929504,-0.17428 c 6.796089,-0.72291 11.901186,-6.30372 12.808738,-12.92465 -1.357937,6.57849 -7.278759,11.5307 -12.808738,12.92465 z M 100.00699,122.87 c 1.35819,-1.28251 -1.260974,-0.28769 0,0 z m 10.5161,-0.057 c 0.66839,-1.48521 -1.19905,0.097 0,0 z m -7.10405,-0.0747 c 0.16211,-0.53362 -0.37428,0.0881 0,0 z m -23.934686,-0.26142 c 2.752418,0.0772 -1.378197,-1.01615 0,0 z m 22.120016,-0.159 c 1.08221,-1.60954 -0.97337,0.0828 0,0 z m -14.219243,-0.0153 c 0.590725,-1.34058 -2.010104,-0.50249 0,0 z m -2.278864,-0.15844 c -0.77402,-2.04301 -2.461465,-0.43078 0,0 z m 44.745507,-0.20752 c -1.96342,-1.71554 -6.24142,-7.81611 -2.4797,-2.25747 l 1.1423,1.20879 z m -46.51566,-0.46365 c 1.576032,-3.23099 -3.677085,-0.12344 0,0 z m 49.18797,-0.0708 c -0.22159,-0.90605 -0.43173,0.0894 0,0 z m -46.649392,-0.0871 c 0.06835,-1.52911 -2.071846,-0.89088 0,0 z m 2.25246,-0.21654 c -0.217809,-3.26076 -3.426252,-3.3039 0,0 z m 22.221662,-0.20258 c 1.26923,-3.22075 -1.01794,-0.84963 0,0 z m 21.82671,-0.16182 c -2.29237,-6.20452 -6.06319,-12.61785 -13.04094,-14.14674 6.5196,2.65238 9.54594,8.58167 13.04094,14.14674 z m -79.950758,-0.18779 c 2.151177,-2.56778 -0.850419,-0.20534 0,0 z m 85.804488,-0.14544 c 2.1511,-6.39662 4.87231,-13.53382 3.09195,-20.37492 -2.71588,-9.181558 -15.41521,-12.02816 -23.10906,-7.651832 2.86703,-0.245376 -1.21712,2.25493 0.74435,1.908202 -3.28508,1.347451 -5.95347,6.19722 -1.62831,1.56024 3.87754,-3.788395 11.85924,-0.750693 14.26152,-1.047496 -10.99242,-2.30957 3.5719,-1.854121 4.48302,2.020047 -4.52586,-3.069447 4.3025,5.531069 2.34332,1.552741 0.58662,4.350048 1.56588,12.987928 0.22188,16.114498 2.11973,-5.40973 -0.55634,5.37295 -0.40867,5.91852 z m 1.03162,-8.28549 c -0.0505,-0.47359 0.42847,0.15557 0,0 z m 0.35461,-9.17237 c -0.0161,-0.63468 0.52796,0.17958 0,0 z m -18.80064,-8.903005 c 5.1321,-2.894019 3.59781,-0.448881 0,0 z m 0.34856,-1.903898 c 0.66931,-0.7813 1.33611,0.101369 0,0 z m 23.44089,27.988053 0.16302,-0.55899 z m -59.865766,-0.63903 c -1.357163,-2.81615 -1.278824,0.76178 0,0 z m 22.482346,-0.029 c 1.56407,-2.08315 -1.03787,-1.04836 -1.00756,-0.98806 -1.32551,-1.65468 -5.85145,-5.32891 -2.36187,-3.59464 -0.76163,-3.74823 -1.8602,-12.33668 -2.98956,-4.06998 0.20611,3.7883 2.67554,7.4783 6.35899,8.65268 z m 3.02087,-0.31952 c 0.98016,-1.99099 -1.10333,-0.2281 0,0 z m -24.80609,-0.26142 c 0.774812,-1.32412 -1.772615,-1.30845 0,0 z m 52.06873,-0.12864 c 1.94569,-2.88631 -1.00911,-0.53832 0,0 z m -50.687678,-0.72693 c 0.102826,-1.95806 -1.62376,-0.89162 0,0 z m -31.735111,-0.3644 0.691079,-0.68349 z m 52.255459,0.0705 -0.22522,-0.14093 z m -6.15795,-0.0705 c 2.1285,-1.34013 -0.44281,-1.14088 0,0 z m -49.902662,-0.4938 c 4.110757,-4.36913 9.321362,-7.52348 15.223794,-8.71386 -5.627944,-0.0916 -12.777803,5.18755 -15.223794,8.71386 z m 5.954629,0.20333 c 2.615253,-1.32753 0.693585,-0.87624 0,0 z m 49.525043,-0.10374 -0.27857,-0.0886 z m 3.55888,-0.14253 c 0.79483,-1.14922 -1.1767,0.45103 0,0 z m -55.988622,-0.0442 c 3.343242,-2.55183 9.516685,-8.26143 1.839406,-3.47223 0.286454,-0.34586 0.349652,1.56155 -1.839406,3.47223 z m 91.497892,-0.029 0.005,-0.12389 z m -40.28812,-0.60357 c -3.05157,-3.21436 -1.15311,-9.19222 0.53,-10.4343 -3.86414,2.06946 -2.99085,7.82351 -0.53,10.4343 z m 40.5205,0.0226 0.067,-0.39807 z M 53.8359,116.26087 c 3.180422,-2.61254 -1.7879,0.71372 0,0 z m 53.64971,-0.0581 c 2.5245,0.0245 -0.62114,-0.96023 0,0 z m -49.786468,-0.43571 c 2.99775,-1.48574 8.681459,-4.9884 2.255032,-1.66704 0.378391,0.12535 -3.594148,1.75769 -2.255032,1.66704 z m 66.052768,-0.29047 c -0.52055,-1.60122 -2.161,-2.69473 -0.48042,-0.50259 z m 14.75585,-0.029 c 1.14321,-1.47656 -0.40618,-0.95325 0,0 z m 4.66411,-0.36102 c 1.72899,-3.24753 6.15715,-10.72901 5.77474,-11.66602 -1.93692,3.87682 -3.95786,7.72651 -5.77474,11.66602 z m -6.15795,-0.0581 c 2.76292,-3.41591 0.95016,-15.033306 1.11805,-5.40744 -0.16632,1.83774 -0.57788,3.64579 -1.11805,5.40744 z m -76.177707,-0.0456 c 7.155408,-2.80506 0.580231,-1.7725 0,0 z m 66.243637,-0.0705 c -0.37657,-4.17892 -14.36142,-10.35015 -5.43691,-4.91592 1.97544,1.44618 3.77609,3.12024 5.43691,4.91592 z m -20.75611,-0.21992 c 5.87512,1.75443 7.31812,-2.97884 2.03933,-5.08805 -5.31049,-2.63397 8.94344,5.40803 0.54647,4.63252 0.60102,-0.99482 -4.43674,0.58736 -2.5858,0.45553 z m 15.33679,-0.25501 c -1.47153,-2.83686 -1.85651,-1.644 0,0 z m -1.72623,-0.10601 c -0.34669,-4.44511 -11.33125,-10.642 -3.67649,-4.54876 1.37828,1.38822 2.46935,3.0185 3.67649,4.54876 z m -61.131371,-0.42325 c 4.240473,-2.19897 7.488396,-3.34412 0.927214,-1.20993 l -1.304486,1.06523 0.377608,0.14473 z m 96.348731,-0.40666 c -0.17508,-0.30422 -0.0364,0.4147 0,0 z m 0.46475,-1.71377 0.0768,-0.70475 z m -18.60249,-0.94195 0.14828,-0.74113 z m -74.957735,-0.16183 c 3.513721,-0.57724 1.805149,-1.39961 -0.187448,-0.1785 z m 93.850695,-0.13882 c 0.61964,-0.99474 -0.33457,-0.5901 0,0 z M 69.276428,109.8 l 0.0027,-0.22077 z m 86.862832,-0.16183 c 1.03593,-3.09392 2.78508,-9.979994 0.83233,-3.38512 l -0.48184,1.77625 z m -86.630454,-0.41911 c 1.689408,-4.15924 6.332944,-9.529364 6.489308,-6.95884 3.725591,-2.57906 7.089219,-4.29899 1.916989,-0.40668 -4.874881,3.2252 7.349949,-3.337991 7.319913,-2.033162 -2.225781,-1.039841 4.664827,-0.977492 2.381855,0.290452 6.120955,-0.262607 -5.75159,-3.347444 -7.482898,-1.791269 4.930194,-0.879043 6.131493,-1.480731 0.424244,-0.794536 -5.444249,1.567295 -9.025519,6.685985 -11.049411,11.694035 z m 12.357403,-10.054393 0.274733,-0.05903 z m 1.800906,-0.564342 c -0.395328,-0.605787 0.856125,-0.08559 0,0 z m 61.508995,10.095885 c 1.94877,-3.23115 3.1176,-5.99979 0.48051,-1.10937 z m -64.355591,-0.21992 c 4.239643,0.75813 12.343392,-3.17636 3.627207,-0.75638 -3.649247,-0.2112 -11.132472,0.16997 -3.627207,0.75638 z m 52.241561,-1.23387 c 3.09359,-5.10207 -1.2533,0.98797 0,0 z m -54.142062,0.0595 c -1.728623,-0.93023 -1.432477,0.26013 0,0 z m 25.036862,-0.23398 c 5.80373,-4.35687 -1.82473,-0.98449 0,0 z m -21.277359,-0.044 c 3.200241,-0.27691 -3.458539,-0.13659 0,0 z m 49.540889,-0.10034 c 2.59129,-3.13101 0.75483,-3.07109 0,0 z m -29.12088,-0.16108 c 2.61686,-3.34053 1.03383,-5.93212 0,0 z m 27.00121,-0.0996 c 2.8209,-3.35639 4.38178,-6.873592 0.43619,-1.50485 -1.46239,-1.17818 -1.10643,1.94632 -0.43619,1.50485 z m 1.01589,-0.0879 c 2.04678,-2.93441 2.95945,-5.1887 0.24575,-0.9313 z m -53.362989,-0.19739 c 4.065037,-0.17768 -2.564679,-0.3561 0,0 z m 2.42784,-0.0508 c 2.416611,-0.31984 -1.525877,-0.2811 0,0 z m 49.134239,-0.27463 c 1.70356,-2.051 6.12404,-7.967639 1.60306,-2.87519 l -0.96241,1.47835 z m -0.87197,-0.34912 c 1.71703,-2.22685 6.16729,-8.337427 1.59748,-2.96091 0.38163,-0.78015 -2.74487,4.0973 -1.59748,2.96091 z m -49.482241,-0.48004 c 4.493886,-1.09392 -3.400342,-0.60447 0,0 z m -2.265662,-0.0581 c 3.700318,-0.18471 2.225608,-0.78242 0,0 z m -0.609986,-0.72618 c 2.313057,-0.74242 7.790272,-3.58092 2.21631,-1.6005 l -1.321184,0.74234 z m 9.033604,-0.0871 c 3.865751,-0.55249 -0.346179,-0.61851 0,0 z m 62.640505,-0.33327 c 2.44148,-3.65734 5.00673,-8.882262 1.13334,-2.4124 -0.15079,0.38446 -1.45811,2.58653 -1.13334,2.4124 z m -19.72232,-0.0575 c 4.16973,-3.65981 3.95106,-8.07595 0,0 z m -48.262822,-0.19013 c 4.746279,-0.59344 2.286506,-1.57288 0,0 z m 45.836082,-0.17428 c 6.87814,-3.55039 3.01908,-8.674669 -3.10844,-6.070811 -7.51091,2.205087 -3.3648,5.545891 2.17578,5.787021 z m -6.90591,-1.96141 c -0.38229,-0.82071 0.47604,0.0637 0,0 z m 39.54224,0.78708 c 2.73278,-6.273022 4.60255,-13.121005 8.96879,-18.519778 -4.7188,5.103628 -6.59867,12.163811 -8.96879,18.519778 z m -20.84326,-0.62658 c -0.64658,-2.562791 -1.0412,0.0905 0,0 z m 10.15398,0.0456 0.13129,-0.36369 z m -3.80515,-0.17428 c 2.31066,-4.449316 9.43083,-12.164712 10.18051,-13.444059 -4.17057,3.741421 -7.94772,8.319022 -10.18051,13.444059 z m -60.899007,-0.10374 c 8.121129,-0.6818 -1.671614,-1.06132 0,0 z m 31.486897,-0.63903 c 2.16837,-2.579236 0.0788,-2.927313 0,0 z m 30.77621,-0.24593 c 1.553,-2.190712 0.7836,-1.904718 0,0 z m -0.97404,-1.3807 c 2.34477,-4.222112 9.88744,-11.6178 10.54716,-12.509378 -4.15332,3.42348 -8.17753,8.126297 -10.54716,12.509378 z m -27.36223,-0.232376 c 2.56817,-2.215297 -0.56084,-0.896413 0,0 z m 26.82618,-0.448905 c 2.31872,-4.87947 10.81501,-12.520789 11.89048,-13.34553 -4.8766,3.299125 -9.37376,8.60199 -11.89048,13.34553 z m -8.39382,-0.0283 c -0.84628,-1.634589 -3.10908,-1.444106 0,0 z m 14.8132,-0.436457 0.11913,-0.253884 z m -2.55724,-1.046794 c 2.49146,-3.220723 8.39383,-10.0898 2.34785,-3.465198 -0.006,0.193307 -4.24325,5.292644 -2.34785,3.465198 z m -30.71737,-0.276163 c 3.74822,-1.627165 0.98602,-2.220218 0,0 z m 27.36223,-0.348564 0.30459,-0.413184 z M 129.98455,96.32221 c -0.43993,-0.905139 -1.89549,-0.178429 0,0 z m -9.66019,-0.161832 c 1.87748,-0.565384 -0.78818,-0.416655 0,0 z m 24.29911,-0.332719 c 1.41899,-2.276545 6.42234,-7.880524 1.83364,-2.790516 0.73161,-0.456812 -3.0796,3.374538 -1.83364,2.790516 z m -19.18684,-0.654877 c -0.67115,-0.51718 -2.10066,0.530633 0,0 z m -12.78066,-2.323757 c 1.88145,-1.997846 0.5478,-3.026688 0,0 z m 29.80218,-0.813314 c 6.17564,-5.596538 11.78097,-12.462244 20.27975,-14.546707 5.83339,-2.236841 -7.60082,1.710915 -9.60341,4.144357 -3.66848,3.0619 -8.07004,6.957722 -10.67634,10.40235 z m -4.47324,-0.05809 c 8.81493,-9.910626 20.86153,-19.641448 34.99577,-17.855688 1.67054,-0.471348 -8.95278,-1.633026 -12.1254,0.378216 -9.44011,2.807275 -17.62029,9.469771 -23.18298,17.46315 l 0.31225,0.0144 z m 16.93438,-14.307697 0.11082,-0.07119 z m -10.77642,14.307697 c 5.13604,-5.020085 10.32671,-10.194075 17.10913,-12.925805 -2.27251,-0.641184 -13.04442,7.001298 -16.32813,11.824497 l -0.89721,1.130369 0.11619,-0.02904 z m -3.16612,-0.609986 c 6.72566,-7.073015 14.20423,-13.668351 23.87795,-16.178932 -6.70771,1.340898 -13.19641,4.082989 -17.73309,9.401152 -1.97102,2.005642 -5.31457,4.376536 -6.14486,6.77778 z m 8.65599,-1.71377 0.45449,-0.49043 z m -35.53762,-0.768423 c 0.69994,-1.473413 0.31101,-3.33943 0.0114,-0.676899 z m 36.52521,-0.190126 0.34304,-0.375883 z m 0.81332,-0.755221 0.31407,-0.308433 z m 0.8893,-0.771849 c 0.51716,-0.615725 -0.82536,0.649876 0,0 z m 0.73733,-0.622404 0.24666,-0.243759 z m -40.85357,-0.710683 c 1.62509,-5.464742 -0.4098,-4.474964 0,0 z m -9.35201,-0.173175 0.15666,-0.932695 z m 51.24115,-0.03288 c 0.23876,-0.295408 -0.33945,0.255809 0,0 z m -39.09952,-0.60615 c 1.22603,-2.387949 -1.33712,-4.112179 0,0 z m -1.12039,-0.132786 c 0.36622,-3.46213 -0.98718,-2.632311 0,0 z m -10.80546,-0.464751 c 0.22524,-3.831503 -1.40371,-6.701881 -0.0607,-1.196875 z m 64.35739,-0.68454 c 0.34434,-0.396032 -0.44248,0.35647 0,0 z m -10.79482,-0.01258 0.14549,-0.166612 z m 11.08238,-0.274979 c 0.43942,-0.559429 -0.43911,0.245089 0,0 z m -56.97656,-0.393102 c -0.623,-2.92684 -0.58407,0.429595 0,0 z m 57.60011,-0.232375 c 1.03003,-0.426611 -0.30547,-0.380584 0,0 z m 1.16187,-1.27806 0.62424,-0.686638 z M 77.85773,81.230252 c -0.574165,-2.715143 -0.406924,-0.469738 0,0 z m 36.1344,-0.464751 c -0.16753,-3.047141 -2.06323,-2.373884 0,0 z m -1.74281,-0.0581 c -0.94622,-3.413515 -2.22009,-2.030645 0,0 z m 58.2871,-0.132472 c 0.23876,-0.295408 -0.33944,0.255805 0,0 z m -59.83905,-0.0833 c 0.18559,-1.045729 -0.80215,-0.471869 0,0 z m 60.16869,-0.190881 0.69501,-0.644791 z M 77.276788,79.406705 76.964065,78.882009 Z m 94.711982,0.0064 c 0.23876,-0.295407 -0.33945,0.255806 0,0 z M 44.773252,78.541363 c -0.521087,-0.486415 -0.84722,0.204667 0,0 z m 67.359868,-0.209365 c -1.02011,-2.089692 -3.19392,-2.533636 0,0 z M 45.586564,78.122257 c 4.430265,-6.274323 13.378178,-2.232316 17.254987,-9.607077 9.163359,0.303507 17.282162,8.824192 27.160804,4.927213 5.471643,-2.275527 16.794235,-0.135363 18.690415,0.73971 -3.12737,-1.969404 -7.00541,-2.09978 -6.60761,-3.205466 -2.590617,-0.402232 -9.930036,0.759205 -10.951179,0.784241 0.412536,-0.516113 -13.498656,1.831122 -12.928849,-1.351668 8.143528,1.432389 -6.488403,-3.24718 -2.176269,-0.565285 -4.819189,-2.10747 -5.150391,1.262607 0.842707,1.611066 -5.453052,-3.414329 7.192862,2.23299 -1.306914,0.364036 -4.208402,-4.313275 -13.947326,-4.00373 -15.623071,-3.085758 -4.617284,4.759879 -11.698852,3.373719 -14.355021,9.388988 z M 55.927281,73.32951 c 2.888655,-3.18568 7.291157,-3.643211 0,0 z m 28.959806,-0.103738 0.671782,-0.144395 z m -3.950383,-0.157684 c -1.775145,-0.914254 2.053031,0.0083 0,0 z m 6.216045,-0.145234 h 0.228434 z m 0.442971,-0.04345 c 1.907449,-1.205159 3.566284,0.02025 0,0 z M 57.009282,71.601341 c -0.04834,-0.573963 0.598055,0.133382 0,0 z m 0.777001,-0.697663 c 0.924224,-1.531702 1.175587,-0.216712 0,0 z m 19.025757,7.131441 -0.116665,-0.188883 z m 82.87094,-0.261423 c 3.64293,-1.30065 13.11025,-3.827488 4.28612,-1.914608 -1.43679,0.413976 -3.3119,1.109548 -4.28612,1.914608 z m 15.12102,-0.302918 -0.10045,-0.01815 z m -64.87844,-1.282215 -0.61066,-0.371491 z m 65.26849,-1.087185 c 1.75128,-0.341819 -2.21308,-0.267976 0,0 z M 83.783307,72.0224 c 8.9735,-0.595464 -1.962758,-2.835173 0.118377,-1.042658 -2.604762,0.761886 -4.496491,0.426527 -0.118377,1.042658 z m 18.548543,-1.755265 c -2.18617,-1.480337 -2.966032,0.05595 0,0 z M 57.205349,69.756738 c 3.679421,-1.930898 5.945263,-3.613693 0.751623,-0.934162 z m 29.715029,-0.232375 c 1.786768,-1.147944 -6.519086,-0.169228 0,0 z m -6.796986,-0.522845 c 10.947719,0.658207 -13.63921,-4.465901 -2.757084,-1.297333 4.321791,0.797127 -4.033577,-0.109839 1.272856,1.158356 z m 5.6932,-0.697127 c 8.513231,-1.155028 -5.270332,-0.629041 0,0 z M 61.881903,67.83964 c 6.115703,-2.477626 6.051753,-4.938255 0,0 z m 20.855714,-0.406657 c 6.149407,-0.228428 1.2831,-0.473896 -2.103751,-0.493778 l 1.004166,0.420551 1.099585,0.07322 z M 64.786603,66.806398 c -0.06624,-0.427377 -0.28826,0.313499 0,0 z m -2.730418,-0.01245 c 1.846571,-0.777189 6.908858,-4.873829 0,0 z m 25.822742,-0.203329 0.248824,-0.150866 z M 77.700046,66.316752 C 74.602751,64.786919 71.646717,64.792577 76.569963,66.07302 Z m -5.82599,-0.614136 c -2.295406,-1.065295 -4.594123,-0.352216 0,0 z m 1.103786,-0.767669 c -1.465491,-1.027746 -2.545193,0.151378 0,0 z M 24.03373,168.57443 h 0.05064 z m 5.925578,-6.66835 0.11082,-0.0712 z m 123.681912,-86.48522 0.12474,-0.01081 z"
       style="fill:#000000;stroke-width:1"
       id="path3039" />
  </g>
</svg>
