<?xml version="1.0" encoding="UTF-8" standalone="no"?>
<svg
   xmlns:dc="http://purl.org/dc/elements/1.1/"
   xmlns:cc="http://creativecommons.org/ns#"
   xmlns:rdf="http://www.w3.org/1999/02/22-rdf-syntax-ns#"
   xmlns:svg="http://www.w3.org/2000/svg"
   xmlns="http://www.w3.org/2000/svg"
   xmlns:sodipodi="http://sodipodi.sourceforge.net/DTD/sodipodi-0.dtd"
   xmlns:inkscape="http://www.inkscape.org/namespaces/inkscape"
   sodipodi:docname="tree.svg"
   inkscape:version="1.0 (4035a4f, 2020-05-01)"
   id="svg3057"
   version="1.1"
   viewBox="0 0 210 297"
   height="297mm"
   width="210mm">
  <defs
     id="defs3051" />
  <sodipodi:namedview
     inkscape:document-rotation="0"
     inkscape:window-maximized="0"
     inkscape:window-y="23"
     inkscape:window-x="0"
     inkscape:window-height="943"
     inkscape:window-width="1252"
     showgrid="false"
     inkscape:current-layer="layer1"
     inkscape:document-units="mm"
     inkscape:cy="560"
     inkscape:cx="-458.57143"
     inkscape:zoom="0.35"
     inkscape:pageshadow="2"
     inkscape:pageopacity="0.0"
     borderopacity="1.0"
     bordercolor="#666666"
     pagecolor="#ffffff"
     id="base" />
  <metadata
     id="metadata3054">
    <rdf:RDF>
      <cc:Work
         rdf:about="">
        <dc:format>image/svg+xml</dc:format>
        <dc:type
           rdf:resource="http://purl.org/dc/dcmitype/StillImage" />
        <dc:title />
      </cc:Work>
    </rdf:RDF>
  </metadata>
  <g
     id="layer1"
     inkscape:groupmode="layer"
     inkscape:label="Layer 1">
    <g
       style="fill:#000000;fill-opacity:1;stroke-width:0.56496847"
       transform="matrix(1.2695549,0,0,1.2695549,16.964806,55.292725)"
       id="g4066-6-2-1-1">
      <path
         d="m 110.442,34.46 c -0.0224,-0.05791 0.12705,-0.05153 0,0 z M 31.75,50.379 c -0.06144,-0.02459 0.03362,0.01111 0,0 z M 63.259,30.015 c 0.04047,-0.116755 -0.06264,0.0173 0,0 z m 57.381,6.472 c 0.0898,0.156362 0.15222,-0.148446 0,0 z m 1.048,-2.372 c -3.63513,2.857238 2.22223,3.159337 0,0 z M 35.487,60.33 c 0.142207,0.09853 -0.03275,-0.149223 0,0 z m 12.47,-0.634 c -0.02085,0.05817 -0.174006,-0.06712 0.025,0.057 z M 63.86,32.398 c -0.04808,-0.01709 0.03945,0.02767 0,0 z M 27.644,60.715 c -0.05036,-0.01794 -0.02426,0.09464 0,0 z m 96.245,-23.539 c -0.037,-0.0085 -0.0612,0.107418 0,0 z M 40.836,61.68 c -0.05186,-0.07316 0.01781,0.04015 0,0 z m 85.233,-26.41 c -0.0421,-0.0023 0.0114,0.02456 0,0 z m 7.391,34.636 c -0.0624,0.07302 0.0884,0.02312 0,0 z M 77.671,27.186 c 0.104066,-0.402487 -0.235874,-0.04028 0,0 z m 51.496,12.232 c -0.0193,0.05902 0.10254,0.02608 0,0 z M 21.105,45.914 c 0.01782,0.106572 0.1035,-0.08572 0,0 z m 90.155,9.495 c -0.0125,0.041 0.10621,0.05972 0,0 z M 81.712,26.693 c -1.115673,-3.790134 -4.89868,0.445276 0,0 z m -1.775,1.381 c -1.896721,-3.39253 -3.638134,1.57405 0,0 z m -0.782,-2.783 c -0.11619,0.0441 0.04541,0.0496 0,0 z m 37.184,25.336 c -0.0238,-0.02595 -0.0519,0.08473 0,0 z m 6.35,-13.027 c -0.0543,-0.07015 -0.0334,0.106184 0,0 z M 30.105,48.519 c 0.09199,0.02134 -3.91e-4,-0.109692 0,0 z m 99.244,-8.939 c 0.16369,-0.138685 -0.14511,0.0022 0,0 z m 6.618,62.135 c -0.31195,-0.31276 -0.0696,0.14993 0,0 z M 30.133,48.479 c -0.0896,-0.05861 -0.01085,0.120941 0,0 z M 21.75,43.012 c -0.987712,3.42817 -0.209795,2.45102 1.698,1.083625 3.81097,1.056647 -4.461457,1.120351 1.686,1.515375 2.988563,0.143892 -3.355818,1.581999 0.819107,1.349 2.012326,-0.777686 -1.137148,3.789027 1.832752,1.373 2.760596,0.537293 2.058189,-1.486834 4.032141,-3.183 -1.65941,3.109263 -5.591933,-2.542216 -5.03725,0.111875 3.454567,1.055291 2.499718,3.534721 -0.08108,0.367875 C 23.940428,43.324468 24.342535,43.027664 21.75,43.012 Z m 1.409,-0.408 c 0.187042,0.19774 -0.03135,-0.151918 0,0 z m 53.52,48.054 c -0.0581,-2.191167 0.657188,-6.402129 -0.717094,-2.044469 -0.910981,2.753404 3.770059,8.57811 0.956391,3.02836 z M 15.883,66.588 c 2.255202,-3.604463 -7.5170551,-3.495627 -2.401,-2.621 1.292967,0.44965 1.261101,1.610286 2.401,2.621 z m 117.602,3.346 c 0.0176,-0.08421 -0.085,-0.0075 0,0 z m 0.568,-3.289 c -3.53233,2.167864 1.2719,4.529231 0.60531,0.817344 z M 49.08,85.762 c 4.682482,0.243961 0.893554,-4.996086 0,0 z m -5.649,-0.59 c 1.873433,3.345537 2.820222,-2.839476 0,0 z M 41.562,29.898 c 4.067848,-2.003613 -1.045417,-3.447433 0,0 z m 1.696,-1.89 c -0.07972,0.08838 0.09223,0.02861 0,0 z m 0.589,63.998 c 1.559325,3.417111 3.071226,-2.623398 0,0 z M 97.494,20.654 c -1.208279,3.712664 4.71648,1.386137 0,0 z m 2.638,4.6 c 0.0294,-0.0064 -0.0277,-0.02283 0,0 z m 2.314,-1.186 c -3.499099,0.534609 -1.59348,3.758085 0,0 z m 10.239,44.75 c 1.876,2.848511 2.50046,-1.847052 -0.709,-0.44 l 0.43212,0.2005 z m -0.754,-0.43 c 0.10303,-0.0054 -0.0106,-0.03791 0,0 z m -59.942,9.231 c 5.168901,-0.03968 -0.531209,-2.813457 0,0 z m 2.833,2.82 c -4.59435,-0.523026 -1.824142,3.510908 0,0 z M 47.889,31.781 c 3.300101,-0.776941 -0.543926,-3.558015 0,-0.06089 z m 60.918,8.354 c 2.15806,-3.421192 -4.63041,-2.016292 0,0 z m 3.522,48.359 c 3.52778,-0.506217 -1.30467,-3.90392 0,0 z m 3.262,-53.774 c 0.65533,-3.897236 -3.78799,-1.282937 0,0 z m 8.262,2.493 c 0.0661,0.042 0.0363,-0.119312 0,0 z m 1.917,1.498 c -0.56645,-3.69221 -3.91284,0.04465 0,0 z M 74.63,88.893 c 2.103035,-1.201758 0.837351,-5.63947 0.245859,-0.9025 z M 63.268,29.97 c 5.199121,-1.003678 -0.513412,-2.932136 0,0 z m 59.393,7.66 c 0.0235,0.06407 0.0474,-0.101987 0,0 z m 1.108,2.028 c 0.42079,-3.83949 -3.43283,-0.792835 0,0 z m -89.151,7.793 c 1.237921,3.456164 3.433265,-0.975876 0,0 z M 83.362,88.15 c 3.106795,1.665436 2.600222,-2.689432 0,0 z M 63.423,27.356 c 2.837833,1.981091 1.346575,-3.650416 0,0 z m 32.278,57.572 c 0.315933,-3.665876 -4.277972,0.383351 0,0 z m -1.307,-1.537 c 0.08988,0.01398 0.01763,-0.110592 0,0 z m 28.469,-48.276 c 3.10899,2.171685 1.08685,-3.449726 0,0 z m -0.672,53.701 c 0.69292,-3.462475 -3.54009,-1.535708 0,0 z M 18.054,66.186 c 1.9664,3.04496 3.607813,-0.735846 0,0 z m 96.247,24.212 c -3.79604,-0.06591 -0.2624,3.221614 0,0 z m -1.711,1.278 c 0.0196,-0.09204 -0.0899,-0.0054 0,0 z m 13.432,-54.721 c 4.74192,0.29658 -1.37139,-3.242534 1.144,-1.191 -0.0306,0.487861 -1.84031,0.512994 -1.144,1.191 z m 0.047,-1.676 c 0.0321,-9.36e-4 -0.0112,-0.0243 0,0 z M 37.585,86.828 c -2.668872,-4.144472 -2.701646,1.25265 0,0 z M 97.16,65.531 c 4.02209,0.689839 0.679822,-2.362286 0,0 z m 37.297,6.49 c -3.98346,-0.797395 -2.11841,2.464551 0,0 z M 77.912,24.286 c -2.281147,-2.351109 -3.522083,1.484496 0,0 z m -2.411,-0.349 c 0.103374,-0.02289 0.0052,-0.07611 0,0 z m 23.341,47.937 c 3.75837,1.357755 1.69958,-2.5278 0,0 z M 13.663,47 c 0.382296,0.223307 -0.326833,0.380237 0,0 z m -0.769,6.127 c 0.0228,0.180642 -0.183397,-0.0806 0,0 z m 76.627,18.149 c 1.847038,-1.052637 -2.337992,-1.718039 0,0 z m -1.685,-1.237 c -2.476762,-0.970367 -3.733785,3.773281 -1.014125,0.7665 3.302642,1.386992 -6.874513,2.648089 -0.05525,2.111125 C 88.821012,72.588587 89.471369,71.493984 87.836,70.039 Z M 73.01,39.813 c -0.09234,3.102013 0.09701,10.478672 2.1595,8.660125 1.345393,-2.496912 -0.383694,-3.044347 -1.4035,-5.275125 1.724512,0.870088 3.545174,2.818891 2.226,0.233 -4.11536,-2.065771 0.726695,-1.11781 0.777,-1.085043 0.205557,-1.693136 -5.455374,-1.519848 -1.319875,-2.423957 2.105008,3.615383 0.21159,-3.586942 2.312891,-0.448344 -0.921842,3.176999 -0.06151,2.737841 2.236359,2.338032 0.772263,1.20495 -5.221617,2.78262 -2.610441,2.905931 2.097376,-2.270109 3.615206,0.840668 0.109394,0.751678 -3.623498,2.979648 3.392165,-0.660906 0.543672,2.248328 -3.488688,-1.612725 -3.098649,9.270264 -2.249875,2.822625 1.712101,-3.082831 0.982501,4.131087 1.814875,-0.46325 -1.072869,-3.391668 3.64406,-1.218801 0.755,0.791 3.082007,0.302696 0.302617,-6.645177 3.18,-2.642 -2.097616,2.663243 1.892791,-0.655128 -0.3915,-2.20025 0.779883,-3.221464 1.89944,4.011123 2.5155,-0.44925 -1.836903,-1.929384 -1.19821,-3.472514 0.666,-1.450875 1.069162,3.448521 0.108726,-6.599615 2.14825,-1.151 -0.182504,2.380384 2.346119,-2.197591 -0.0012,-2.839625 3.342593,-1.229277 0.648456,3.995467 3.285,1.057 -1.273596,-1.214685 1.232291,-4.621839 1.285,-1.011 1.680706,-0.908672 -1.440494,-4.854174 2.008,-2.729 -1.51965,3.363665 1.635422,-1.889758 -1.479,-1.758021 -0.922318,-3.803565 2.927613,2.63641 1.325375,-1.178104 C 92.8786,31.558328 86.304994,35.675205 90.336,32.198 c 5.346144,0.830697 -6.107713,-2.30785 0.0588,-2.356719 2.870914,2.556478 -0.72107,-1.717126 -2.052797,-2.343281 2.504959,-0.676637 4.026146,1.913288 1.49275,-1.37425 0.722326,-2.258841 -8.075864,0.113351 -2.272391,0.07889 2.051028,1.022317 -6.489971,1.30508 -1.673252,1.855359 4.13673,0.972222 -5.837523,0.872047 -2.642982,1.676625 3.950258,0.233459 0.0012,1.491664 -1.706359,0.860828 -0.988649,1.184216 4.486653,1.077849 0.493437,1.934297 -1.860106,-2.123012 -3.94357,0.907023 -0.284203,0.64125 -2.111958,2.086563 -3.718633,-1.277735 -5.64,1.3 2.434269,1.894593 7.377138,-1.828944 7.445109,-0.243047 -3.837291,1.535758 0.323603,1.600428 1.685891,-0.699953 1.517829,2.14128 -2.680807,2.570277 1.243,2.342 0.156265,-4.967468 2.101699,-0.33332 1.228875,0.151 3.304314,-3.696726 4.017897,1.516589 -0.05588,0.986 3.972517,1.868243 -0.298022,3.096195 -0.820359,-0.308437 -0.733238,-0.575903 0.23694,4.826488 -1.812141,1.719187 0.318501,-2.89825 -2.533408,-2.324684 -0.741537,0.318262 -2.744642,1.451809 -0.14715,-4.07655 -3.529963,-2.794012 3.051709,2.582913 -2.364577,3.1644 -0.368,-0.21 -4.070357,-0.830961 -0.239578,0.136393 -1.419,2.559 -1.537064,-1.526655 -1.96793,-4.390365 -4.746,-2.312 -2.065356,-0.911285 -1.418258,4.822386 0.441125,1.332125 C 78.813873,38.954296 72.850504,37.975301 73.01,39.813 Z m 0.314,13.652 c 2.010876,-3.59525 -0.776132,-4.993195 0,-0.679786 v 0.341022 z m 2.797,2.556 c 2.562778,1.526817 -1.297964,10.077856 1.708625,7.274875 C 75.859306,59.822508 84.58616,53.300601 76.121,56.021 Z m 2.281,5.112 c 3.229283,-0.655641 4.737397,-7.195202 1.131125,-2.54625 -0.559268,0.748383 -0.994638,1.614964 -1.131125,2.54625 z m 1.825,-9.92 c 1.783696,2.19719 9.518617,-1.653143 5.538,1.827 2.226656,-0.599942 4.559983,0.162706 3.303,-3.004 -0.741065,3.474181 -2.608465,-0.255484 0.092,-1.19 -0.751282,-1.734492 -4.189316,-0.255225 -1.402734,0.937094 -1.091108,1.148729 -3.93657,-2.933401 -2.040266,1.563906 -1.180843,-1.481906 -4.616302,-2.16478 -1.422,-0.391 -0.65872,1.550704 -3.164116,-1.880485 -4.068,0.257 z m 11.55,-1.488 c -5.146229,-1.207342 3.997646,1.970627 -1.275,1.36 0.556638,1.564055 5.310342,1.159588 1.17,1.626531 -2.744893,0.359968 6.592878,1.373287 0.753,1.948469 1.300837,1.128626 3.908576,0.75223 1.107,2.154 2.637977,0.03027 3.30367,1.445539 0.577,1.788 2.78404,1.605565 3.36071,-1.868262 1.367,-2.595 2.260702,-0.271281 2.177917,-2.118162 0.05795,-0.700234 -1.539233,0.366679 3.322101,-3.618419 0.840797,-2.263516 -1.710674,1.728168 -2.764562,-1.272682 0.214375,-1.745375 0.758543,-2.697046 -3.293115,2.00274 -2.162875,-1.022625 2.10899,-1.084099 -4.107883,-0.979364 -0.112875,-1.83675 4.573587,-1.627627 -8.677411,-0.987099 -2.807719,0.400719 z m 1.528,-4.559 c 2.540823,0.318184 8.82552,-5.845791 4.975812,-3.0915 -1.553407,2.671589 -2.235302,0.342406 -0.773812,-1.0255 -2.964762,-1.461792 -0.761049,4.294962 -3.156625,1.494 1.928554,-2.940077 -5.667659,-6.37e-4 -0.179375,0.601 -0.917474,1.921187 -9.114619,-0.43666 -4.386,1.818 -0.679777,0.65822 -6.163189,-0.332065 -1.6,1.047 -0.671775,0.365696 -6.041898,0.885058 -2.110719,1.181703 C 88.532456,46.814758 91.389088,46.573577 93.305,45.166 Z M 91.35,26.078 c -0.01579,0.199989 -0.01621,-6e-6 0,0 z m 0.003,-0.017 c 0.26657,-2.911701 -0.581353,-2.307119 0,0 z M 90.671,23.558 C 88.20805,23.09079 86.001775,23.426391 87.994469,24.370281 89.198201,24.184114 89.580384,23.460157 90.671,23.558 Z m -6.781,2.789 c 2.991319,-3.072785 -3.602411,-1.634194 -3.503781,-2.608937 -1.062531,1.997806 -5.960438,4.722857 -2.227453,5.484796 -0.02313,1.717415 -1.316018,0.559402 -0.0013,2.23 0.398822,1.951743 1.795393,-1.778414 1.103562,-2.619859 1.988214,0.910575 0.07236,3.220967 2.377,-0.038 -2.789931,-1.123585 0.586408,-3.294114 1.168,-0.568 1.943852,-1.679597 -2.808463,-3.516082 1.291,-3.229 l -0.124875,0.812125 z m -7.725,2.511 c -3.144063,2.252132 -1.487322,0.768577 0.32,2.337 -3.539036,0.678821 0.218893,1.018103 -1.748,2.925 3.179654,-1.163357 2.284522,-2.504005 1.428,-5.262 z m -2.046,2.994 c -2.339945,-0.273402 0.04928,5.733672 -0.240766,0.742875 l 0.04314,-0.396328 z m 31.654,18.929 c 0.73723,3.445575 8.76153,2.751365 3.358,3.586 2.41003,0.773152 5.52779,4.824653 7.093,0.933 1.4745,1.609996 -2.86935,3.189094 0.766,2.144 -0.26745,-2.61581 2.52031,-2.688377 0.588,-0.565 4.15995,-0.30688 -2.41252,-4.171129 1.82,-3.213 2.36637,2.900817 -2.50647,-3.425051 0.52825,-1.66575 1.46761,0.32003 1.17077,-1.011532 3.02794,-1.700141 0.75715,-2.198383 -4.05367,-1.854226 -0.70119,-0.169109 -1.42804,1.090998 -4.31656,-2.644527 -1.821,0.535 -0.76187,0.290425 -7.60995,-1.91967 -4.124,0.95 -1.58214,1.280869 -4.46292,-3.261856 -1.901,0.763 -1.02435,0.850526 -4.36486,-3.718435 -1.94,-0.124 -1.74655,0.187772 -5.11223,-3.27804 -4.1,0.494 -1.18304,-0.538728 -0.76314,-2.669839 -2.594,-1.968 z m 12.009,7.489 c 2.96626,1.705648 4.0766,0.115286 6.335,-0.36 -4.43402,4.307454 3.70295,-2.790723 2.306,1.217 4.42747,-0.729487 -2.06912,-5.625531 0.088,-2.096 -1.58329,-0.01971 -3.10228,-3.327231 -2.468,0.294 -1.56856,-1.826117 -2.41699,-1.856148 -4.371,0.178 4.12967,0.07496 0.52735,1.124045 -1.854,0.345 z m 6.663,-3.319 c 2.37017,0.594143 6.33711,-1.126335 1.859,-0.635 -0.41689,-0.74215 -2.23101,-0.315946 -1.859,0.635 z m 1.045,-1.842 c -0.13787,-4.115318 -1.39947,1.880839 -3.33,-1.018 -1.24295,1.59897 3.28292,2.125283 -0.70413,2.025 -4.33754,4.169261 2.69201,-0.115585 4.03413,-1.007 z M 95.869,33.979 c -3.282109,-0.02146 -0.99683,5.00967 0,0 z m 4.153,-1.633 c -3.578859,-1.35493 -3.68901,3.866214 0,0 z m -1.225,-3.908 c 1.37647,1.34161 2.50298,-2.946226 0,0 z M 71.7,27.793 c 1.114861,-4.883352 -7.074417,1.249094 -1.833,-0.986 2.840517,1.296482 -5.543719,3.094008 -0.431125,2.488 4.256141,0.542841 -4.634842,2.21337 -0.833125,2.3305 3.418544,-0.873861 1.186489,1.034709 -0.69575,1.5805 0.410416,2.73647 1.973026,2.703604 1.418,0.320125 2.267896,-0.455461 0.335272,5.277068 1.787375,1.564875 0.190778,-2.433027 0.463638,-4.86002 0.587625,-7.298 z m -0.032,-6.152 c -2.303595,2.019911 0.868732,3.341595 0,0 z m -3.915,14.05 C 64.214429,37.706913 65.657818,35.567475 66.650859,34.809328 64.797666,34.544003 61.097943,33.837493 65.273,33.621 c -1.91491,-3.12644 -3.967962,-2.20366 -5.65325,-0.349875 -0.848309,-1.024393 2.54306,-2.955708 -0.98125,-1.15125 0.663806,3.639698 -2.709642,2.624182 -0.5865,-0.391875 -1.595559,1.185005 -6.034177,-0.534689 -4.442,3.301 1.084934,-3.597307 3.587556,0.85164 0.104375,0.424625 -0.09877,4.237547 0.734392,-0.146221 3.239625,0.789375 -2.290148,0.579263 -3.099591,4.504848 -1.53425,3.024125 1.273943,-2.863011 2.08115,-0.199942 0.17775,1.573 0.651744,2.786761 1.931225,-3.659764 1.9565,0.583875 -0.317138,2.769299 0.369429,1.138349 1.193,-0.401 0.01897,1.270997 0.717888,4.540176 0.836656,2.879219 1.18133,-4.187853 0.581029,2.749204 2.638344,1.195781 -2.674117,-2.001112 1.44348,-2.023932 0.77725,0.647125 2.683905,0.378974 7.140298,6.076972 7.73375,4.652811 1.408212,-2.511388 -4.652608,-0.844989 -1.18275,-1.952811 3.048291,-0.395485 -6.376067,-1.816117 -0.997121,-1.833125 -3.209055,-1.08891 -3.820544,-0.674807 -1.670551,-2.153219 -1.693168,0.66174 -5.130106,-0.870773 -1.511359,-1.017953 1.531732,0.03377 -6.457321,-1.706245 -0.992641,-1.364344 2.399036,-1.740998 -6.918352,0.196671 -2.585203,-1.979109 4.750209,0.601122 -5.268765,-1.714323 0.514656,-1.308047 1.610553,-0.155057 -5.874604,-2.954651 -0.06703,-1.580328 -2.873316,-3.449316 1.113931,-3.587583 0.835,0.078 0.743017,2.173312 2.07687,4.919796 2.49125,1.534734 2.551418,-0.765491 -1.39122,4.967472 0.769594,3.004297 2.052154,-4.432217 0.332541,5.663804 1.959453,0.422735 C 69.267446,40.697788 67.843579,38.803 70.903,40.559 c 0.875341,-2.030344 -4.755016,-1.262026 -0.822,-2.867 2.874442,2.977441 -0.970019,-2.960665 -3.138,0.508 -1.216583,-2.203211 3.748706,-1.096731 0.81,-2.509 z m -9.856,10.294 c -0.833385,1.623905 -4.903754,2.206527 -2.026,0.172625 1.511352,-2.591473 -5.848115,4.242965 -2.309,-0.505625 -4.526507,-0.60942 0.567811,3.474213 -2.78575,2.55125 -2.307715,-3.638609 0.875685,4.984302 2.48125,0.266125 1.084816,0.211834 9.186445,-1.017791 4.6395,-2.484375 z m -2.708,3.064 c -1.93232,-0.832508 -2.261755,2.45221 0,0 z m -5.486,0.941 c -0.126041,-3.513072 -2.02686,1.039734 0.66025,1.03125 -0.496961,3.373887 -2.954438,-2.645815 -2.594125,1.670875 3.090964,-0.645039 2.267267,3.46208 -0.105125,0.659875 0.379922,1.415388 1.127035,5.150162 -1.197,1.685 1.382501,-2.059484 -4.199871,2.402728 -1.226531,-1.281578 3.265305,-0.417701 0.66574,-1.204402 -0.744469,-1.239422 3.512207,-1.413768 3.361772,-1.807766 0.788,-1.988 1.988035,-0.386627 4.488056,-3.177572 1.203406,-1.168266 -2.219659,-0.455225 5.404839,-3.220626 0.851438,-1.911609 C 42.21209,48.465265 41.682839,53.473306 43.428,56.458 41.280996,50.956666 42.272227,62.846243 40.272031,57.607703 42.132107,55.23606 43.243269,47.711811 38.827,52.474 c -2.096997,0.725249 1.702838,5.575834 -1.714,1.594 -0.739667,0.934671 1.940691,5.53994 -0.454,2.672 -2.049917,-2.876196 2.774451,6.794224 -0.714125,2.02725 -0.638967,-0.351641 -1.832417,4.311564 1.413125,4.59775 -0.785862,0.862824 -3.862632,-1.37272 -1.846,0.826 -0.564557,1.232882 1.766621,3.541339 -0.574,3.153 1.91415,1.297537 2.186521,-2.136789 1.811625,1.522 0.329234,2.555846 1.358565,-4.594759 1.538375,-0.101 -1.252604,2.111733 1.50384,2.508975 0.992,-0.198 1.525742,1.36115 -0.240089,5.422401 1.628,1.324 0.597744,0.660777 0.459135,5.577782 1.29625,1.606 -0.345645,-4.368286 2.612678,5.761347 1.69475,-0.844 0.984913,1.109977 2.848631,3.535536 1.754625,0.55875 -2.297387,-3.212199 4.248002,2.908894 0.833625,-1.19425 -1.001036,-1.617005 -6.59329,-0.320507 -1.69025,-1.9715 -0.02573,-1.404605 -6.631524,-0.189769 -2.824875,-1.587125 4.273159,-0.876877 -5.638949,-1.101053 -0.0933,-1.522719 2.532617,-1.140146 -6.099481,-1.352738 -1.127656,-1.990406 0.155682,0.837653 1.710452,-6.143839 2.076406,-1.8965 -3.646321,3.467691 3.746518,-0.772257 0.759422,2.19725 -1.497915,2.004815 1.131947,2.244465 1.548,-0.3325 1.271672,1.698504 -2.845765,5.587551 1.258,1.956 -0.08324,1.746778 -1.683228,5.024576 0.799688,1.914547 2.300482,-1.141568 -2.659644,4.868916 1.210562,2.003328 3.631429,-1.933819 -2.845979,3.397533 1.67175,1.853125 3.129166,-0.165678 6.200116,-2.649964 1.864375,-1.4645 -4.726255,1.080012 3.796063,-2.964089 -1.017937,-1.535875 -4.295612,-0.491047 0.512292,-1.168284 0.396625,-1.812219 -0.651199,-1.509219 -5.342791,0.375237 -1.643313,-1.403781 3.512196,-0.500304 -5.486673,-1.544291 -0.400234,-1.739438 1.725482,-0.81651 -5.661778,-1.261238 -1.499985,-1.774281 2.193638,1.680036 -1.263514,-2.949182 1.907469,-0.144906 0.606903,2.471724 1.771032,-0.142404 1.085344,2.69875 0.507642,1.323446 2.943699,-2.491213 1.670765,0.829547 -2.121161,1.164927 0.947013,3.253126 1.070891,0.0587 0.689274,1.118986 -0.08709,5.424324 1.124188,3.542859 2.415875,-4.281078 -0.784251,3.306133 3.053312,1.537766 6.705962,1.636296 -4.561522,-6.068297 0.731359,-3.001547 1.62967,0.850449 -0.729422,-3.248905 -2.304984,-1.770078 -2.390193,-3.262597 5.127937,1.594917 1.396125,-2.784 -2.972038,2.111445 -2.473011,-2.273224 0.377,-0.266 -1.516193,-1.204881 -6.014118,-2.840953 -1.423891,-1.915094 1.867424,0.794194 -3.469653,-4.733798 -0.09623,-2.518906 2.597669,1.365337 1.057481,6.68774 3.532297,3.140625 1.454684,-0.84475 -3.048997,5.191799 -0.471547,3.077047 3.692583,-3.302846 -1.808674,4.199797 0.507172,1.865375 4.561482,-2.394237 -1.242241,1.203937 0.286203,3.194953 0.454359,-3.750434 4.025424,-0.120716 0.289,-0.169 1.140781,3.050954 9.307926,1.757485 3.562,0.826 -1.653564,-3.644233 4.172187,1.786729 1.812,-2.72 -4.165798,1.109103 -2.291826,-2.253713 -0.20025,-1.1485 -0.655355,-1.773373 -5.300693,-1.037246 -1.433672,-2.102891 2.337642,1.858971 0.227352,-2.897452 -1.201453,-0.809734 -4.111629,-2.162196 4.460361,-0.180713 0.01638,-2.439875 -1.933546,2.158301 -3.856175,-2.862693 0.175,-0.59 -1.869673,-1.645555 -5.567837,-4.682913 -1.078,-3.264 0.951516,5.247514 1.09522,-1.457406 4.411246,-2.110869 3.722296,-1.005064 -0.358276,-4.876269 0.423223,-1.343569 C 64.82398,55.899176 67.005629,48.6038 64.453,51.518 c 2.099461,2.715797 -1.537711,2.763757 -0.671,-0.468 -0.05936,2.589732 -2.20205,6.444908 -1.551,1.444 -2.102643,-0.08848 0.54616,5.326621 -2.064,2.359 1.440236,-3.398492 -2.821016,3.605152 -1.305,-0.17 -3.28693,1.977943 -1.896073,-3.077198 0.238,-0.23 3.815491,-2.564507 -4.819548,-1.469498 0.407125,-2.66325 2.984277,1.308683 2.326442,-0.794381 -0.437125,-0.66075 1.408457,-1.011088 8.177684,0.692154 5.841422,-1.928234 C 62.654965,52.07906 60.665679,48.077736 64.541,48.698 c -1.543747,-0.710568 -4.419619,-2.981439 -2.606,0.226 -3.453347,3.018094 0.676076,-4.165784 -2.874,-1.004 2.18192,2.661172 -1.804349,3.703707 -0.701,0.4 -2.011229,-0.05739 0.331156,5.175827 -2.318,1.973 2.028717,-2.626559 -2.272911,0.569514 0.241469,1.915 -1.966433,2.052102 -1.27896,-3.890204 -2.177391,0.519469 2.308933,0.938705 0.257867,2.956331 -0.764078,0.355531 0.597824,2.289899 2.455238,4.230054 -0.702,1.326 0.991607,2.265423 2.341934,5.209245 -1.387,2.57 1.741255,-2.557581 1.139667,-2.827272 -1.363,-1.243 0.189719,-2.476247 5.762832,-2.769829 0.587,-2.817 0.812607,-2.165401 5.423728,-0.725494 1.08275,-2.206875 C 51.073961,50.324092 50.403698,49.741168 49.703,49.99 Z M 48.93,45.474 C 48.158068,41.569029 42.636478,45.953657 44.234375,43.225375 47.384422,42.449741 41.76077,42.083167 41.691,44.467 c -1.722165,-2.27434 4.18056,-2.256401 0.022,-2.92 -1.435329,2.803053 -3.782531,-0.694298 -0.275,-0.069 -1.174882,-2.749152 -5.288593,2.945931 -2.69725,-0.791625 -0.637584,-2.430263 -3.15058,3.057226 -0.89225,4.585875 -1.3589,1.454638 5.032295,-1.988732 1.802125,0.592875 -2.029955,1.531837 -2.35056,2.46534 -0.03617,1.440984 1.41347,1.283101 -4.187722,1.335769 -1.433453,4.126891 3.214048,1.12073 2.467851,-6.96301 3.506719,-2.571672 0.233601,1.741503 1.094171,-1.490283 0.626984,-2.647937 2.540697,-1.150902 -0.585738,4.293531 2.540297,1.071609 -2.451736,-2.248022 2.088775,-2.773991 0.324,0.242 3.322897,-0.639549 -1.526067,-5.210525 2.74,-2.445 -1.956284,1.9207 0.333688,0.849208 1.011,0.392 z m -12.084,8.071 c -2.651191,-0.139111 -6.977849,0.996618 -5.311547,2.609953 -3.936954,-3.215366 0.399326,6.989811 -2.390578,1.703719 C 27.57934,55.86114 28.915277,60.715081 29.814,61.017 c -4.239809,-5.478691 -2.536724,8.948878 -1.854,3.698 2.215061,1.002838 -0.811964,5.783158 2.007,0.937 1.626424,1.597111 -2.211726,5.372492 1.174391,2.158 1.583788,-0.644231 -2.64021,6.183922 0.940593,1.630672 1.996685,-0.391069 -2.865638,3.793713 1.771016,2.686328 -4.044598,-3.827886 5.351351,-1.650822 1.086,-3.509 -2.447451,0.524464 -3.012614,-1.524198 0.016,-0.521 -1.700362,-1.254845 -5.001024,-1.866808 -1.021,-1.915 -3.773862,-0.890234 3.631884,-4.18534 -0.918125,-2.373 -3.302335,-0.0849 5.092403,-3.784345 -0.629875,-1.835 0.516806,-1.295682 4.636889,-3.859118 0.091,-1.871 -0.374141,-1.222862 4.65028,-3.921678 1.8635,-2.527875 -2.459986,1.118235 0.346862,-2.44852 1.3285,-1.84675 1.474992,-1.73938 -3.929866,1.073351 -0.757719,-1.477703 0.737018,0.362874 1.432052,-0.279054 1.934719,-0.705672 z m -8.908,3.297 c 7.243554,-3.119009 -4.007155,-3.670059 0,0 z m 6.3,13.826 c 0.446477,3.746968 8.071661,1.224324 2.469328,1.245109 C 32.671234,71.226054 39.574917,70.650832 36.069,70.165 l -0.837875,0.251875 z m 0.281,2.172 c -0.911569,3.882887 5.704166,2.877351 1.619953,1.715266 -1.654103,-1.686017 6.015496,0.500232 1.916906,-1.173438 C 36.876961,73.200863 35.698103,73.01963 34.519,72.84 Z m 2.222,4.334 c -1.366443,1.097573 0.480098,6.463939 -1.457,2.472 -1.888883,6.139375 4.617067,-0.935076 5.821547,-3.030516 2.587709,-1.997061 2.76199,-3.149973 -0.699547,-3.103484 1.312268,2.435943 -1.550246,4.687126 -0.483,0.828 -1.817829,0.764294 -0.346462,6.100417 -1.878,1.611 -0.603808,2.020929 -0.862227,6.0794 -1.304,1.223 z m 10.526,-4.451 c 2.340402,3.313779 5.445877,-3.295609 0.7525,-0.289922 z m 19.78,-6.549 c -1.692871,3.038376 4.416501,0.105984 0.386,2.730375 -0.238965,3.125258 0.227564,1.639354 2.054,0.171625 -2.014777,2.089535 0.5269,5.880083 0.546697,1.601283 -0.775273,-5.564977 2.018702,-11.726495 -0.3039,-16.887377 -1.849354,-1.880671 1.548974,9.560602 -0.70634,3.729776 -0.514026,-4.182048 -2.133981,-4.006225 -0.702404,0.07232 1.312193,6.912365 -2.296884,-7.342335 -2.215209,-0.492219 0.21614,2.211756 -1.380786,-3.31482 -1.367594,0.141969 -1.514994,3.341979 -0.161771,2.43872 2.13375,1.16225 -0.06994,1.687572 -3.645922,3.605921 -0.48975,2.645625 3.121603,-1.971463 -3.166913,4.91367 1.570891,1.44725 3.233363,1.267118 -3.667975,1.030752 -0.906141,3.677125 z m 3.907,-21.623 c 0.77362,-3.032486 -2.443624,-3.380602 -2.17325,-0.88975 -0.866665,1.757136 0.637792,2.294642 0.882687,-0.0757 1.581986,-2.526432 -0.389118,5.925709 1.165813,2.000578 z m -49.643,7.752 c 1.289364,-1.538894 3.757251,1.676012 1.17,-1.438 -3.764322,-1.134742 -3.891486,3.572211 0.242437,2.627891 3.887347,0.718554 -1.194602,-1.1245 -1.412437,-1.189891 z m 1.251,-2.264 c -2.329944,-3.64027 -6.349331,2.928809 -2.078,0.04 l 1.017625,-0.0905 z m 1.317,22.789 c -0.660302,-1.941736 -2.820447,3.281584 0,0 z m 44.153,49.098 c 2.993604,-1.75867 -0.708573,-8.50202 -0.21725,-2.491 0.722571,0.57422 -1.692793,3.3772 0.21725,2.491 z m -2.912,1.584 c 3.010505,-0.55679 2.087824,-7.72017 0.408125,-2.52287 l -0.391609,1.19735 z m -0.776,-6.44 c -2.454529,0.67304 0.447574,3.59181 0,0 z m 11.453,0.299 c -1.42058,2.6651 3.771054,2.20921 0,0 z m 4.655,0.483 c 1.64369,3.83411 5.18368,1.20787 0,0 z m 4.891,0.302 c 4.759148,1.39637 2.151622,-1.43374 0,0 z M 102.875,85.18 c 0.24461,1.878856 4.30258,3.956514 0.323,2.672 4.71003,5.586207 2.44842,-2.540914 -0.323,-2.672 z m 31.24,-19.572 c -0.76657,1.807972 -5.61883,-1.251681 -3.1475,1.17375 3.70239,1.485382 -6.46162,-0.302012 -0.4785,1.76125 -2.17133,1.826599 -2.25375,-2.460286 -3.685,0.668 4.1777,0.708766 0.16679,0.925051 -0.98588,0.834 -1.96306,1.275707 4.9583,0.606495 0.38688,2.093 -2.54786,-2.091561 -2.60071,0.100822 -0.567,0.586 -1.50632,0.669487 -5.18356,-0.819175 -1.77,1.365 -0.74417,0.359618 -5.22949,-1.156705 -2.58713,0.668625 2.90144,1.942926 -3.99078,-0.995923 -4.65421,2.163953 -1.14367,1.210101 8.30691,0.719013 8.11684,-3.033578 2.52397,-1.9798 -0.4535,3.74029 1.69666,-0.03681 0.69431,-3.87535 2.46568,2.527032 2.17484,-2.580187 2.12533,2.368486 1.22188,1.064738 1.929,-1.181 2.55827,4.696896 -0.36147,-3.69608 1.9993,-0.443719 -0.45596,0.774421 5.33052,0.518656 1.2717,1.533719 -1.96906,-0.09822 -5.09379,3.248907 -1.009,2.476 -1.23023,1.089394 -6.77131,0.0296 -2.133,1.266 -1.18612,0.307517 -7.409,0.983384 -2.17004,1.098838 2.01672,0.720634 7.90169,-3.939544 4.77727,-0.08112 -2.22468,-0.09548 -3.04803,0.61536 -0.61823,1.752281 -1.62102,1.015629 -5.1143,-3.043869 -2.315,0.244 -1.77745,0.515847 -5.27622,-3.249041 -2.231,-0.077 -1.75981,1.36757 -4.99952,-3.226259 -2.476,0.32 -1.37876,0.224988 -5.16083,-2.348658 -2.9525,-0.196125 3.95388,2.817151 -7.42237,-2.251463 -1.3165,0.910125 -1.33369,0.813736 -6.38695,-2.323323 -2.99013,0.252125 3.23562,1.919164 6.6689,-0.34023 4.8273,1.626469 1.56776,-0.960048 5.12244,-1.050578 1.47383,0.171406 1.35964,2.679123 4.12348,-3.879137 3.2795,-0.0435 -2.73192,3.112059 4.40994,-4.181033 1.73573,-0.227625 -1.07841,0.861381 2.31636,5.872419 -0.66323,2.318125 -2.21024,-3.215478 0.77114,4.120095 -1.81088,0.432 0.73107,-2.511729 -3.39172,-1.366442 -0.39912,0.51 -1.84573,1.346127 -2.57087,-4.298734 -3.03667,-1.895562 1.41828,4.549289 -2.093,-2.092025 -1.85319,-0.564313 0.60315,5.247786 -1.72696,-2.967041 -1.98114,-0.427625 0.69825,2.703252 -1.76475,0.666741 -1.603,-1.026 -1.52087,-2.173961 0.49647,3.754673 -1.474,0.5995 -0.0258,-2.752793 -1.73898,-1.875221 -1.019,0.529 0.043,-1.690033 -3.65719,-4.590112 -1.127,-0.831 -1.90905,-0.52 -3.55962,-3.245658 -5.788,-1.635 3.38641,0.157383 3.90399,2.834873 0.682,0.576 -0.15472,2.639324 7.00293,1.747949 1.292,2.566 0.79996,2.232205 6.87841,-0.796848 1.532,1.669 1.37104,0.922457 6.00382,-1.227839 2.323,0.875 1.14706,1.810286 4.69592,-2.591384 2.83334,0.475625 -1.97978,1.757793 4.67901,-2.824127 1.76486,0.474094 -0.669,1.949953 3.93973,-3.883232 2.26139,0.105547 -1.85293,2.059221 4.16134,-3.323258 1.58453,0.402359 -0.92333,1.169581 1.18285,0.244009 0.75438,1.9385 0.58221,3.057199 -1.41504,-2.070332 -3.59325,-1.229625 -1.50672,-0.45479 1.24152,2.843393 -1.90025,0.9935 1.34289,-2.766782 -9.98444,-3.400102 -3.311,-1.611 5.03716,1.511369 -4.47122,-0.39826 1.085,2.002 1.59741,-2.336911 3.37776,1.156452 0.326,0.24 1.28716,1.173741 5.92919,0.404551 1.894,1.307 2.02851,0.689783 6.11568,2.264796 1.428,1.4 0.9993,5.808411 -2.38631,-3.95883 -1.5115,0.615375 -1.61077,3.284723 -0.73366,-5.158313 -2.14563,-0.649578 -0.7698,0.07643 -0.74494,-5.533002 -1.51887,-0.460797 -1.10054,-1.40379 -0.13826,-4.862878 -2.716,-4.684979 -0.3897,2.246887 -2.64896,0.616442 -0.311,-1.146021 0.0443,-2.935284 -3.52867,3.400784 -1.968,-0.912 1.55839,-2.711944 -0.47234,-0.644675 -1.99,0.011 1.74776,-1.842542 1.51828,-4.86884 -0.23038,-2.007359 -1.26586,1.243687 1.28299,-5.198978 -0.86862,-3.081598 0.46908,4.988975 -2.37244,-4.59099 -3.996,-1.056793 2.84721,0.655616 2.75834,1.478756 0.043,1.22275 0.77747,1.296153 4.90095,2.552575 0.167,1.663 0.2003,1.766403 5.09197,3.059782 0.60456,2.263813 -1.78096,-1.146825 1.42879,2.379838 3.13644,1.282187 -1.71736,0.425969 -3.37497,1.486328 0.31762,1.541125 2.60382,2.351397 -4.03274,-0.709474 -0.12832,2.184109 1.91928,-1.696444 3.88312,1.384635 0.6887,0.406766 1.08288,1.906782 5.3705,0.286974 1.527,1.748 1.15445,1.024595 5.06204,-0.758513 1.553,1.319 3.15363,0.117143 7.34689,4.482978 3.053,1.899 0.33793,4.095233 -0.75494,0.232097 -1.203,-0.65475 -0.70344,-1.412443 -0.55979,3.76119 -1.77867,0.469688 0.49225,-1.692753 -1.08625,-2.768594 -0.65949,-0.201235 -2.41215,1.211794 0.43079,-4.665905 -1.72959,-1.478703 -0.80847,2.873659 -1.49261,-5.751404 -1.59625,-0.659871 -0.10765,1.478898 -5.20232,-2.542545 -2.84305,0.846262 4.58221,0.639004 -0.49031,1.141331 -0.20839,1.266281 1.67907,0.43036 4.00224,2.283883 0.75844,1.734328 -2.57307,0.513557 6.19206,2.170553 0.048,1.645 2.47265,1.626782 -5.496955,2.539757 -0.62862,0.112578 1.30084,-1.978932 -4.86249,1.016139 -1.713,-1.231453 2.34211,-1.123327 0.79158,-2.45556 -0.7495,-1.0995 -2.391007,-0.048 4.11295,-3.25925 -0.067,-2.0305 -4.69809,0.70997 4.66604,-2.553881 -0.12875,-2.081875 -3.394059,0.670003 3.83024,-2.386261 1.04194,-5.140104 0.23467,-4.208533 -2.08472,0.397282 -0.33207,2.164854 -1.63152,-1.009072 -2.430199,-3.322689 -1.885,-0.043 1.40221,3.611336 -1.901244,-0.262175 -1.66825,0.02103 -1.072748,1.752941 3.07071,4.228386 -0.89975,3.119969 1.07199,-3.540507 -1.972516,0.517393 0.739,1.494 -1.516622,1.245383 -2.459279,-1.978219 -1.698,0.838 4.1297,1.236729 0.35792,0.265667 -0.341,1.085 2.428628,2.853247 -1.790089,3.136255 -0.794,-0.336 -2.928967,1.512695 -2.803857,-1.483258 0.2,-0.525 -2.314558,-2.487279 -2.030331,-2.375217 0.5165,-2.659125 1.93228,-0.678051 -4.370271,-1.357532 -0.75725,-2.051125 1.047742,2.233745 3.060397,-1.178374 0.221953,-1.222281 -0.769167,-0.771751 5.524827,-0.907431 1.754047,-1.242844 -2.711534,-2.333196 5.8152,0.935926 0.90275,-2.640625 1.91962,-1.318711 2.15317,2.557119 3.47753,-0.829687 1.67148,-1.622411 -5.026806,1.564274 -1.22158,-1.341079 2.38129,0.17429 0.88759,-2.694513 -0.70145,-0.587625 -2.094245,-0.611794 4.07895,-2.401414 0.2905,-3.640609 0.33546,2.649318 -2.220593,2.168652 -0.803,-0.275 -2.48942,-1.255654 -5.480924,-0.313901 -1.238,0.212188 0.397779,3.077471 -3.295034,-2.311191 -1.731,1.606812 4.31461,0.681631 0.546113,1.69602 -0.257094,1.067875 2.518268,1.103064 1.782235,3.291841 -0.04966,1.568375 -2.456536,-1.131008 5.08447,3.474024 0.1635,3.093125 -1.996924,-3.298684 -0.816314,0.546671 -3.40075,1.046625 4.171285,0.720002 -0.04069,4.425789 0.122,0.427 -2.185528,1.712834 2.897627,5.102831 -0.8015,3.019125 -1.09115,-1.768607 -1.166229,1.954465 0.934641,1.919047 -0.143744,2.684625 -3.622039,-2.961966 -1.514141,1.718828 -0.0206,3.671114 -3.471123,-0.06197 -1.299,-1.435 -3.577774,1.99824 -1.255963,0.112787 0.119,-1.497 -4.501379,2.045536 3.115435,-2.761063 -0.583,-1.716 1.315141,-1.613463 3.363411,-1.535631 1.002703,-2.118594 1.879588,-1.256662 3.548922,-1.932521 0.431375,-1.259734 -0.347482,-2.025234 5.06102,-0.75625 1.627797,-2.036672 -3.816724,-0.693306 4.699909,-1.18695 1.435766,-2.281141 C 88.31854,80.127128 98.193406,77.265288 93.75,75.11 c 1.703264,3.06135 -2.807659,2.997219 -0.553,-0.035 -3.168604,-2.249365 0.665097,3.552358 -2.611,1.112 2.10535,-3.17302 -8.356656,-1.435728 -2.9415,1.12975 3.083669,-1.238286 3.937296,1.42076 0.64125,1.143125 -2.354798,-1.240576 0.493703,2.146494 2.168703,1.378875 1.487673,2.667236 -4.927064,-1.568925 -1.958453,2.01825 4.89956,0.870996 0.378211,0.919143 -0.589828,1.031156 0.846609,1.259627 4.072824,2.961477 0.285016,2.063938 -1.997414,-1.423612 3.698606,4.53669 -0.880188,1.563906 -0.516787,0.68574 2.443989,3.605328 -0.41775,1.94975 0.111737,-1.963738 -1.388113,6.10142 -1.998203,1.0465 0.645312,-1.729786 2.889976,-4.191977 -0.270359,-3.242703 -1.777275,-1.098898 4.723599,-1.629482 1.864609,-2.2555 -4.495035,0.163366 2.334894,-0.553819 0.436703,-2.893047 -2.44038,2.375416 -2.978605,-0.08853 -0.06375,-1.113625 1.440305,-2.529549 -4.422995,2.323991 -2.09225,-0.97675 3.164595,-0.387231 -0.290794,-4.494675 0.0016,-0.933375 -1.626526,1.191895 0.8874,-4.52482 -2.775625,-2.41125 3.335333,1.533107 0.04225,2.613966 -0.616156,0.06697 1.061946,3.043264 0.741202,8.697757 -0.157844,12.983031 -1.455523,-2.155994 1.233047,-14.186959 -0.752,-6.841 -1.649501,8.785528 1.925096,-9.279372 -3.776125,-3.544375 -1.450614,1.837441 4.783779,4.873754 3.019178,8.684156 -2.065137,2.412731 2.883733,11.929476 -0.27824,6.283141 C 76.981463,90.98063 80.637476,83.916706 77.009,86.036 c 3.161239,-1.784401 -0.935857,-7.162932 -0.343672,-1.825766 -0.775841,3.192901 -0.829637,-7.203022 -3.034281,-2.154836 -0.175866,7.001744 0.167421,14.069647 0.373203,21.093102 -0.332842,2.59027 1.667741,7.82039 1.063875,2.406 0.06154,-7.198513 1.005888,3.66691 2.106875,4.6565 -0.603684,-2.67343 -0.0048,-9.11122 0.827303,-3.03361 0.01136,3.5852 1.462352,6.30358 1.047697,1.4474 -0.100248,-7.59793 1.891366,7.34561 1.829,3.07221 -0.445886,-3.03293 0.922585,-4.7927 0.931484,-0.64655 -0.59348,3.10594 1.96807,6.26609 1.119516,1.46105 0.0694,-6.5736 0.937231,1.5849 1.619,3.7695 0.536323,-2.03842 1.00142,-7.71475 1.415625,-2.30575 0.671034,5.77343 1.112072,-0.20631 0.875375,-2.46625 1.056239,2.06334 1.746239,7.87609 1.640625,2.2915 0.277543,-6.50541 1.41937,1.59418 1.880375,2.9825 -0.393634,-4.50616 1.228132,-4.14453 1.090625,0.11663 0.938566,0.34372 1.053631,-5.54285 1.613375,-0.36563 2.746326,3.60273 -7.279494,-0.26511 -1.643488,2.25017 4.750574,1.88825 1.777818,1.04082 0.544818,1.15861 1.104111,2.24414 4.390858,1.99147 4.73567,0.0102 1.684932,6.05869 -6.069376,-0.14075 -8.287717,-0.81532 -1.887436,1.32158 11.124132,6.07847 4.219717,4.56332 3.32013,5.71567 -7.502176,-7.65824 -4.20325,-1.71116 1.741002,1.80123 5.82126,6.9608 1.304422,2.58737 -1.365079,-2.48133 -7.756499,-7.77933 -3.752172,-2.38421 -2.430667,-1.71972 -3.034002,-1.56175 -3.608,-0.40014 -2.88818,-0.47253 -0.177446,-1.96355 -3.710906,-3.5392 -3.59131,-2.46506 3.765861,5.00133 -1.160094,2.10734 1.352491,1.2896 4.799093,3.20893 0.481516,1.27447 -2.52112,-0.22357 -2.636641,-1.95026 -5.324516,-4.39147 -0.402812,3.39512 9.295137,8.03319 3.993469,6.34774 -1.381991,-2.07699 -5.715103,-3.2295 -4.955844,-4.01036 -0.606466,-3.09989 -3.098751,2.66203 0.792125,2.1955 3.454945,2.87366 1.249541,2.12458 -1.30875,0.30112 0.0286,1.37938 2.801017,4.70234 -0.391828,1.64692 -1.253599,-3.10121 -3.922688,-0.96948 -1.413172,1.05808 -1.677049,-0.11766 -3.949125,2.72442 -2.408375,-1.01258 -0.065,-2.30071 -3.524921,4.78449 -2.577625,-0.26557 0.834834,-2.11858 -5.603354,4.86745 -1.898,0.30515 0.326655,-1.56126 5.51842,-6.67583 3.101625,-6.11262 -1.492064,2.84809 -4.189149,4.09289 -5.155625,7.05062 1.349826,-3.77847 -4.158703,4.343 -1.740484,0.124 1.053009,-1.61498 3.687882,-4.21437 0.632484,-2.701 2.80598,-1.37092 4.326746,-5.41768 0.730625,-2.06962 -1.9571,3.43224 -2.531102,7.56235 -6.658625,7.38562 2.994639,-1.04414 6.624553,-8.30716 2.201316,-3.17988 -5.740558,4.19058 5.06342,-6.03917 -0.04832,-1.96937 -2.998715,-0.32689 6.034463,-2.59268 5.445,-5.00575 -2.60737,3.44912 -4.729639,0.69809 -6.894322,5.24363 -0.413263,2.93446 -3.09379,8.05641 -1.384397,2.11242 0.227711,-4.34876 -3.409991,6.48316 -2.329406,0.45733 -0.249566,-3.06456 -0.625846,-8.77793 0.665359,-2.44685 2.148641,3.50262 -1.487463,-8.89977 1.346141,-2.81565 1.954612,6.38143 -1.087322,-9.11252 1.363875,-1.55238 2.12043,7.7584 -0.542811,-8.75259 1.50775,-1.8155 1.020219,6.60899 1.442886,-0.97367 0.923,-3.485 1.376365,1.69664 1.405003,8.39229 1.803172,2.82783 -0.860712,-2.74098 -0.130604,-7.09432 0.812453,-2.21583 1.739431,8.89911 -0.630961,-9.58065 1.242033,-2.62741 0.43199,3.67929 1.593137,4.19655 1.204592,0.0722 -1.202604,-3.52974 0.19452,-4.48092 1.022266,-0.34425 2.135466,7.41439 -0.89538,-9.20098 1.340062,-2.4325 1.283864,6.59096 1.50672,-0.39874 0.804422,-3.522 1.548361,1.74818 2.028325,9.16506 2.097984,2.90909 -0.982836,-2.82164 0.168052,-5.61959 0.845391,-1.10984 2.215394,7.06758 -0.708415,-9.225733 2.058484,-1.58772 1.561694,-2.96357 0.411348,-9.295055 0.640216,-13.564954 C 69.000091,86.213395 71.417711,79.643573 67.983,76.047 c -6.99109,0.375111 -1.156394,8.395315 0.536875,11.751625 1.258693,3.21207 0.863192,11.079723 -0.695322,11.113986 1.621251,-3.267784 -0.545633,-7.385128 -1.242803,-1.821361 0.25442,3.15369 -0.324406,4.61234 -0.7486,0.59392 0.130941,-3.033938 3.327051,-11.145251 0.250207,-10.704867 -1.432325,3.025927 -1.7702,12.093739 -1.927029,11.616369 C 62.600656,92.200855 62.619041,100.23949 62.833,102.787 59.472,96.709093 66.150082,91.229357 64.186848,85.059326 62.131105,81.388672 63.155596,93.681579 61.959471,92.146627 61.654054,86.55822 62.103145,80.53256 64.178,75.48 c 2.921967,-1.410334 3.923194,-2.79701 0.05725,-3.496156 -6.203821,-4.374857 -5.425098,3.933285 -3.112281,7.366234 0.508567,6.543276 -1.889918,-7.979393 -3.453469,-3.673078 0.706062,2.364141 2.040118,10.557236 0.28768,4.228127 -0.567058,-2.690755 -1.812619,-7.215847 -1.934758,-1.8829 0.240236,2.742427 1.814107,6.867714 -0.460734,2.277945 -2.671262,-3.519895 2.675713,-8.535609 1.897078,-9.740711 -1.943188,-0.788493 -7.845558,0.697555 -2.873766,1.858539 -1.478202,2.24158 -3.751425,-2.217252 -2.792375,1.343875 3.829066,1.015091 0.01304,1.974477 -0.492875,0.952275 -0.656504,2.358902 -0.38909,4.837103 2.68325,3.97685 -1.338003,2.558836 -4.124739,-0.952556 -2.125,2.984 0.03386,3.532011 6.27526,-2.048862 2.803,2.374 -3.768625,-0.936531 0.251109,2.431083 2.141,0.284 -0.329064,2.421702 -4.620654,1.339302 -1.042,2.795 2.424017,-2.706139 2.544692,2.155781 -0.205,0.648 0.962118,2.564601 6.429119,-1.934447 2.598719,1.641453 -4.064032,2.326812 5.640606,-1.270261 1.582531,1.903922 -1.653529,-0.626953 -3.825813,4.086969 -3.2375,1.317125 1.946298,-2.309383 -0.706799,-3.747433 -1.130187,-0.732844 -2.746451,0.363726 2.437507,-5.013092 -0.836307,-3.301213 -1.358207,2.683964 -3.180758,-0.479419 -0.03426,-1.167443 -1.821484,-3.535474 -0.878843,1.200237 -3.896,0.014 3.543799,-2.003278 0.148769,-3.344227 0.326,-6.201 -1.944436,3.843889 -3.896256,0.09791 -0.302,-0.275 0.35053,-3.649171 -2.145647,1.504774 -3.461,-1.555 3.030509,0.613033 4.20388,-3.625311 0.850313,-1.355266 -2.470479,-1.307033 5.06611,-2.36814 1.370812,-2.986359 C 47.769562,77.025396 49.112991,72.654822 47.573,75.792 46.852311,72.767142 46.420859,72.342885 44.16,74.959 c 4.033027,-0.500834 2.36626,3.587095 -0.2,0.612 -1.277925,2.718668 5.704143,2.024031 1.11475,3.29675 -3.535965,-2.011013 -1.134988,1.946577 1.62725,1.26325 -1.299846,2.447819 -5.017128,-1.760973 -3.21,1.532375 4.035741,1.440841 0.282405,2.152505 -0.634719,1.090031 0.369245,2.166584 -0.585042,4.971207 3.066719,4.494594 -0.806683,1.763499 -4.813478,-0.900374 -2.585109,1.810984 3.460158,-0.889181 1.8787,2.79357 -0.452891,0.889016 0.673863,2.479869 -0.217532,5.763103 2.915688,4.421609 2.813654,2.204593 -4.578389,-0.05417 -0.793235,2.690094 1.452335,2.81703 -2.564936,2.667723 0.07055,0.823297 -1.191069,-3.378881 -2.050894,3.40479 -1.564,-0.77 0.286678,-3.134587 -2.309735,1.842414 -3.357,-1.912 3.223935,1.567709 3.91479,-4.002881 1.387,-0.869 -4.537341,-1.429504 4.107753,-2.628172 -0.0415,-2.83425 -5.45583,0.948005 3.898723,-2.79068 -0.1565,-2.21475 -2.578366,1.136099 -2.064083,-1.129897 0.419875,-1.52925 C 42.412417,86.662137 36.48327,87.60952 41.174,86.464 c 1.908726,-1.816057 0.747624,-2.546493 -1.279,-0.872 2.709918,-1.323688 2.396243,-5.563495 2.863,-9.336 -3.007703,0.651361 -0.335977,8.159042 -2.264,2.344 -2.447364,0.912179 1.996204,5.415611 -0.639391,4.141609 C 37.79814,78.371276 39.226512,82.924436 38.675,84.919 38.264979,81.318922 35.227343,82.046622 37.747203,84.714031 37.17626,87.388028 35.124176,81.1573 35.828,85.154 c -1.578935,1.65485 3.110219,5.038954 -0.43075,2.9655 -2.301752,-1.325774 4.330616,5.443836 -0.57325,2.0525 -0.235817,3.268789 -0.364856,-2.301056 -2.074,1.104 0.116698,-1.114061 3.529514,-5.673019 1.753564,-6.006096 0.07685,3.038991 -1.895641,5.03974 -1.370564,1.219096 -1.098804,1.132288 -0.751072,5.959696 -1.555,1.291 -0.729464,2.10308 -1.007931,4.693917 -1.009,0.699829 -0.372261,2.084063 -4.231916,1.714466 -0.558,-0.06783 -4.246521,-0.403209 -2.063634,-1.574677 0.65325,-0.939625 3.67563,-0.771208 -4.086934,-1.103314 -0.27225,-1.510875 2.637261,0.290367 3.062327,-0.599437 0.735,-1.0855 2.025056,-1.342429 1.288296,-1.880044 4.028,-1.921 -4.186921,0.411969 1.444707,-4.199052 -2.908,-3.242 1.945568,-1.097221 4.809664,-1.911639 0.797,-1.756 2.317924,-1.927252 4.40498,-0.228161 1.4095,-2.452625 -1.573764,-4.614441 -0.926703,0.6616 -1.3155,0.645125 -1.105919,-2.82019 -2.022344,-0.780176 -1.093,1.7485 -1.891715,-0.686848 -0.521392,-3.785482 -1.710359,-0.743469 1.90538,2.528683 -0.542792,3.381389 -0.783641,0.03247 -1.00842,1.572452 1.889078,5.980554 -0.974469,2.544031 0.344557,-2.643653 -1.724515,1.834599 0.683844,1.982094 0.05528,3.24783 -3.41838,-3.129106 -1.671375,1.224875 3.139522,3.204504 -0.879999,0.629109 -1.150922,0.198344 0.702743,2.283583 2.313943,4.787004 -0.300078,1.323656 -1.039485,2.458056 -0.869785,-0.151082 -2.908,0.291 2.062326,-1.023954 3.6855,-1.764145 0.26,-1.564 1.152941,-1.558625 5.256833,-2.054855 1.465719,-2.12925 -1.023945,-0.694408 5.398594,-2.133877 0.796152,-2.01175 -1.565812,-0.710703 6.649573,-1.621822 0.405129,-1.863 1.821224,-0.849301 5.731182,-1.648334 1.343,-1.539 1.292095,-1.578959 6.926578,-1.351311 1.532,-1.58 0.285376,-1.914442 6.037636,0.09669 2.558266,-1.682234 -3.40891,-1.14023 -4.863192,-0.5124 -5.455266,2.238234 -0.640831,-1.47034 -0.02209,-3.198346 -1.158,-0.621 -0.423509,3.860949 -0.665508,0.692233 -1.058,-0.618 -0.278098,1.993733 -1.132149,5.879139 -1.258562,1.900156 -0.586811,-2.409059 -1.179234,6.463509 -1.504438,1.459737 -0.518853,-3.455458 -1.449993,6.782376 -1.814,0.774857 -0.902925,-2.367486 0.04497,6.861744 -1.78625,1.632828 -0.10604,-3.200419 -0.434525,5.858194 -1.388687,0.848641 1.813423,-1.712526 -4.420233,0.155652 -0.08286,-1.474416 1.826199,0.454386 -4.207863,-2.581081 -0.111578,-1.438803 2.297809,1.217264 3.524353,-0.362137 0.315375,-0.676 1.100313,-0.406823 6.683656,-0.402829 1.124,-1.057 0.90696,-1.505656 6.277662,0.242094 2.415,-1.234 1.137677,-1.973747 3.830461,-3.444957 0.292719,-2.217156 C 19.46055,75.044933 16.814788,73.687633 19.501,71.491 c -2.3357,-1.469133 -1.515391,5.113686 -3.032,1.125 0.654193,-2.996623 -0.978016,1.63428 -0.739,2.345 -1.898286,-1.149883 0.81344,-4.404226 -1.514484,-1.807375 1.150941,2.55603 -1.318666,2.786014 -0.540516,0.04837 -1.578228,0.404121 -0.532066,5.713238 -1.759875,2.0365 C 12.675978,73.266708 9.4156953,77.340696 11.334,74.269 7.5868423,74.999484 9.5908453,72.268944 12.094375,73.836375 13.111232,72.778269 8.2670463,71.960334 12.486,72.323 c 2.990446,0.880398 5.332782,-3.733304 1.45025,-1.366 -2.879687,2.517959 1.462954,-4.282877 -1.960875,-0.279375 C 9.8307129,73.418305 13.022323,66.382599 10.724,70.147 7.7713649,73.713455 11.943811,66.515018 8.33475,70.151625 5.4620039,69.86161 12.384144,68.253347 8.1714062,67.794891 8.0201184,65.359205 13.380345,71.184332 10.099,66.646 c 1.697664,-0.347203 3.51894,4.400267 1.901,0.36 1.179123,0.02173 3.623455,3.753798 3.096125,1.835625 -1.797192,-3.227016 1.038127,-0.01358 2.290875,1.213375 -1.882625,-4.179207 0.40825,-1.730444 1.329812,0.432328 0.845992,-0.971807 -0.395854,-4.17173 1.422188,-0.822328 1.409317,2.951283 1.065305,-5.637806 -1.566125,-4.384 -2.953125,-2.708643 5.491684,1.26902 -0.131875,-1.94 1.707406,-0.127687 1.461363,-0.853014 0.883,-2.762 1.592651,1.643293 0.869815,4.497703 3.611,1.443 0.127015,2.036736 -4.053386,4.486669 0.518,2.45 0.154424,1.794992 -3.970615,3.228516 0.222406,2.001813 1.884962,-0.02017 -5.581717,4.273451 0.470594,1.901187 -0.02033,2.120442 -4.202053,1.93312 -0.09348,2.562172 1.756142,0.500918 8.733047,0.528554 3.986484,-0.189172 -2.37717,1.403988 -2.964569,-3.051648 0.366484,-0.872734 3.183934,-1.486654 -5.469537,-1.078931 -2.646437,-2.323625 C 32.527437,68.296215 20.559644,66.349991 26.17,65.762 21.889696,63.121733 25.977298,64.420744 26.418656,64.785906 26.01146,62.059478 23.047984,63.497989 26.66,61.235 c -4.747788,0.04937 3.883761,-2.211076 -1.12,-1.96 0.456294,-1.85818 4.08628,-0.372953 0.999625,-2.603875 0.01764,-5.793354 -0.807196,4.988667 -1.591625,-0.974125 -1.866087,0.500539 1.701365,5.666773 -1.404,1.52 -0.611325,1.212308 1.812732,5.179275 -0.690516,1.777281 -0.968682,-1.793149 0.277564,5.747583 -1.594546,1.577078 0.5691,-3.026949 1.692919,-3.464728 4.336062,-6.249359 -2.529092,-0.303703 -2.398832,3.240402 -2.884,-0.283 -0.512891,1.8917 -0.977977,4.127515 -1.388,0.729 -0.54675,1.738964 -0.104966,5.614827 -1.527,1.324 0.01559,1.744898 -0.409163,4.831018 -1.027875,2.28725 C 18.08691,56.161435 18.198978,60.157153 18.765,61.236 17.563121,60.291238 15.925988,58.766959 17.366875,61.92625 17.577873,65.045236 14.976011,58.782693 15.814,62.807 18.021959,65.209343 14.642439,64.597324 15.16725,62.493625 8.8822272,62.378439 19.731687,59.985429 13.64,60.64 14.067729,58.847268 19.270949,59.635218 16.008125,58.704375 11.439746,58.534359 22.039707,56.756854 16.652,57.21 c 0.205838,-0.5657 7.415185,-4.246768 3.477,-3.064 -1.703768,3.595876 -0.270449,-3.834624 -1.714125,0.591125 -0.911139,2.380583 -0.18668,-3.653466 -1.406125,0.399125 -0.646061,2.293009 -1.17771,-3.531622 -1.620375,0.854375 -0.893601,2.307409 -0.576507,-3.877351 -1.492004,0.978314 -1.47542,2.307996 0.441438,-2.308856 -2.450434,-0.902642 -1.435623,-2.085036 9.224105,-2.230432 4.42736,-3.580125 -2.682298,2.74464 1.023892,-2.389897 -2.272672,0.260328 -1.626148,1.320357 1.894076,-3.298894 -1.291953,-0.357031 C 10.840771,52.303592 13.504844,50.867107 12.18,50.177 c 2.297869,1.340989 9.750517,3.057299 3.578,0.813 2.832828,-0.268934 1.011299,-1.456665 -1.642,-1.041 0.394279,-0.998813 4.552072,-0.34392 0.516,-1.154375 -3.794312,0.466267 0.4242,-2.983683 1.019,-0.885625 0.996044,-4.581057 0.305516,-0.681284 1.212,1.028 0.860196,-4.027143 1.494669,-1.143241 0.829,1.119 0.590253,-3.317259 6.54701,-0.334416 2.645,-2.489 -5.203116,0.05726 2.925649,-1.381228 -1.239,-1.337 -4.102626,0.0962 3.407827,-1.987504 -2.0045,-1.308 -3.51569,-0.532586 4.412276,-0.551297 0.379,-1.3355 -3.193463,-1.466278 2.332759,-1.692737 1.6885,0.8915 0.441541,-2.0751 2.26403,-4.785976 3.989,-1.913 -5.001992,-1.323316 -2.551119,6.904191 0.254,3.596 -1.219807,2.8616 -0.653056,2.54065 1.154,1.504 -2.287832,2.276979 -0.07349,7.571667 2.488,4.803 -3.879401,2.765132 7.192385,1.048225 3.05175,0.631 -0.573072,-1.061585 4.505415,-3.188229 2.425875,-0.82475 -4.464721,2.181689 9.76336,0.145503 2.822016,-0.928844 C 32.833295,51.973625 27.853119,47.627134 32.072,47.326 c -2.415225,1.537041 1.051353,3.294431 0.416391,0.541 2.284236,-0.945327 -0.480712,4.172654 2.498609,2.248 -2.987192,-1.530752 2.262839,-1.346361 0.2,0.787 3.007039,1.975689 1.922442,-5.657153 -1.074,-5.008 1.389236,-1.101632 4.368972,1.107621 2.250734,-1.301453 C 32.85473,44.764303 34.923443,42.050259 36.701,43.829 c -0.817165,-1.818483 -2.178133,-5.033823 1.024,-4.373 -1.486548,-2.599431 -5.109733,2.944392 -3.927875,-0.437125 3.419665,-2.547855 -4.691315,2.214249 -1.711906,-1.024172 3.159657,-2.112622 -5.071308,1.701713 -2.233985,-1.263094 2.77218,-0.990241 -4.956128,0.715594 -1.568672,-1.585125 2.759666,-1.094881 -6.125942,0.814585 -1.364203,-1.628078 1.352099,1.459625 -2.84613,-4.702211 -0.602359,-1.636406 1.926668,-1.7103 3.041616,5.104842 2.635719,0.221328 2.475696,-1.922844 0.544632,6.677648 1.993687,1.709484 1.701167,-1.405843 0.25473,5.395965 1.822344,2.055188 0.05779,-1.847582 3.768661,-0.183812 3.495625,1.889125 1.356743,1.886661 -1.042369,-3.650675 1.579109,-0.401812 1.509144,5.174028 0.611674,-4.524517 -2.275984,-2.148688 -3.779521,-1.520257 4.240529,-1.359526 -0.721375,-2.137375 -3.497467,-0.878519 4.130319,-0.772768 -0.122125,-1.80825 -3.268825,0.294389 0.293172,-3.054673 1.073,-0.188 -0.03785,-2.604969 -6.78237,-2.496765 -1.085,-2.953 -3.734875,-1.360253 -1.403297,-4.114298 0.212,-0.292 1.222575,-3.158785 3.667527,0.677709 0.181,0.441 0.673842,3.454898 1.200923,-1.128733 3.377,1.139 -2.689958,1.041548 -2.888323,3.310101 -0.0787,1.841094 2.176354,-0.176906 -3.273832,3.889199 -0.282422,2.839281 1.557934,-2.382181 3.154258,0.690569 -0.07388,1.201625 -0.04671,3.959384 3.492582,-2.596419 3.15175,0.91825 -3.120383,0.558051 -1.25207,4.771141 -0.287781,1.062563 1.274812,-1.727767 -0.294552,5.245833 0.775062,2.569453 1.283815,-4.099444 1.487421,4.985794 2.237344,0.998609 -0.188182,-4.74456 2.863073,4.90618 1.66425,-0.418859 1.848616,-2.143747 1.85697,5.267721 1.803375,1.749984 2.676194,-4.183563 -0.07264,2.954763 3.287,2.77 -3.222354,-3.711878 0.567587,-0.968303 1.752,-0.436 -3.055985,-2.26067 0.320152,-3.397156 0.488,-0.196 4.589425,0.480262 -2.07882,-2.322131 2.0095,-1.688375 2.991244,4.347509 1.250411,-2.412484 -2.0075,-0.839625 -2.133899,-0.813236 2.278419,-2.694943 -1.045,-1.526 -2.521585,1.833794 -2.462669,-1.908794 0.065,-0.681 -1.04104,-1.692786 -6.045715,1.082184 -3.037375,-1.235 2.034194,-0.466337 -2.552554,-1.578475 -2.673625,0.855 -1.260454,-1.675638 2.144762,-3.896361 -1.7965,-1.906875 -2.965181,0.373032 1.772746,-2.831077 -1.47475,-2.850125 -1.960171,-6.109468 4.824182,4.341443 2.789469,-1.038594 2.085484,-1.731824 0.629368,5.714229 1.917656,1.262094 1.572401,-2.694715 0.938821,2.405511 2.724125,-0.2625 -0.662045,2.167392 1.437911,5.725592 0.809,1.108 1.727784,0.786961 0.698207,4.751365 1.910953,2.102891 C 54.344996,34.671239 46.405845,32.796356 52.289,33.754 c 0.401625,-1.980895 -6.119087,-1.793672 -1.343375,-2.63325 4.547244,1.890278 -4.276709,-4.426666 -4.275,0.12275 -2.384707,2.253338 -0.09723,-2.590985 -0.430063,-2.291984 -1.102405,0.124221 -3.795695,3.095683 -2.304187,-0.235157 2.209988,0.291242 -2.415321,-2.434734 -2.364,-1.744609 -2.847003,1.94631 -2.44568,-2.172601 0.338625,-1.04175 -3.264474,-1.893782 -0.10818,-3.764924 0.226,-0.498 -0.581392,-3.713605 2.17694,-1.843895 0.374,0.520125 1.939927,3.008807 0.324871,-3.884582 2.101,-0.57375 -0.931892,2.629609 1.596993,3.569161 0.740687,0.409672 2.144402,-1.86421 0.483373,4.982862 2.20261,2.315469 C 46.512958,25.212847 49.477079,26.946988 48.902,28.922 51.8027,30.727721 47.728722,24.533739 51.188529,27.749043 50.687617,32.468258 53.626123,24.422669 48.84,25.586 c 1.270372,-1.984976 3.829558,1.299365 1.668,-1.958 -2.78223,2.247679 -3.997101,-2.044439 -0.196,-0.416 -1.464026,-2.565815 3.295369,-3.813119 0.580453,-0.656656 -0.262462,3.199643 3.342623,-2.73823 2.551922,0.507656 -2.436995,1.211645 -1.653813,3.509271 0.447281,1.246094 2.498826,0.18409 -4.167321,3.499497 -0.819265,2.818578 4.202494,-1.856118 -3.526707,4.179047 0.335234,1.714078 4.059755,-1.193897 -3.061846,4.142999 -0.257469,2.908875 0.968086,-1.775735 7.674622,1.443909 3.311844,-1.943625 3.198749,-2.024441 1.293804,3.147018 3.986,0.928 -2.7405,-2.740588 0.760097,-1.517902 1.182043,-0.353 2.511525,-1.95771 -7.435635,-2.870309 -2.268902,-3.328203 2.060476,1.281787 -1.162716,-2.091723 -2.770141,-0.780797 0.771441,-1.116733 3.978488,-1.637819 0.23825,-1.602125 -3.338553,-0.65781 3.474248,-0.792239 -0.05625,-1.578875 -3.464476,2.18028 -2.709717,-2.177099 0.079,-0.719 -2.025398,-1.63882 -3.465684,-4.360171 0.473,-2.362 -0.69184,4.549651 0.539266,-0.8803 3.011,-0.439 -1.476502,2.394052 -3.127587,4.828335 0.043,2.598 -1.8317,1.555614 0.521063,5.964632 1.25025,4.734422 -3.820017,-3.755949 3.998314,0.428951 -0.113,-2.881797 -1.741797,-2.225586 4.262232,1.523101 1.271078,-1.172297 -3.579453,-0.111475 -0.339306,-2.74577 0.558672,-0.136328 0.828822,-3.276841 -4.227383,-0.758417 -2.243625,-3.999375 -1.027474,-4.286913 3.39937,2.414446 2.710125,-0.306625 2.834692,-3.61453 -1.42354,5.134048 1.1135,0.933 4.065129,0.798148 -3.732912,3.685421 0.74375,2.7445 3.734938,0.778792 -5.623184,2.506616 0.223062,2.076281 0.630472,1.606391 -4.254287,0.773756 -3.17175,4.508172 -0.137082,3.256209 7.618013,7.44565 2.017938,2.663047 1.013845,-0.224693 4.045293,1.814032 1.128,-0.61 -1.629898,-3.485317 2.620042,2.296231 1.522,-1.866 -3.955984,-0.777128 -0.219194,-1.58787 0.101,-1.373375 -2.486907,-3.895871 3.622788,-0.946451 2.543422,-3.311781 C 66.960284,25.279229 67.880395,22.272955 69.854,23.147 c -2.109167,-0.591648 -5.251044,-2.313528 -0.806,-1.513 -2.861234,-0.836748 -3.559249,-6.07337 -0.686687,-2.694828 -1.020565,5.013805 2.245994,-3.605545 2.187812,0.724453 -2.412029,1.140631 0.07982,4.056135 -0.03513,0.499375 3.057773,3.345676 0.04531,-4.087734 0.738,-2.757125 2.44035,-3.828052 2.607793,2.47874 2.396,4.877425 0.592787,4.760527 0.990995,-6.370313 1.747,-0.1453 1.220187,-1.089435 -1.284444,-6.037947 0.986,-2.342 3.98582,-3.069501 1.78119,2.375214 -0.641188,3.015437 -0.05244,1.912818 -4.477625,2.978329 -0.238812,2.237563 -0.787037,0.342156 -3.656397,3.666389 -1.722723,4.166793 -0.973346,-4.073734 3.213567,-0.154655 2.26977,-3.459949 1.74905,1.398459 2.971996,-1.672198 1.066953,-3.851844 2.152231,-0.699344 3.889391,3.181691 2.376,-0.314 -0.806143,-4.033826 1.85869,0.0039 1.651,0.695 -0.39074,-3.073005 4.29704,-4.216372 2.206,-0.535 -4.052135,-0.863847 -0.04512,3.867296 0.537,0.639 1.942563,0.312277 1.616891,3.840456 2.145312,0.750703 C 83.030419,20.313979 87.19248,19.546236 86.596,23.048 89.270495,22.338109 84.925761,17.819898 88.549125,19.829125 87.854139,23.947867 91.31864,17.370244 90.207,21.19 c -4.809279,1.574258 0.693311,1.829241 2.044,0.899 0.03267,4.991436 0.771392,-6.185225 0.968,-0.253 0.337166,-3.021187 4.952699,-2.488325 1.767375,-0.32525 -4.057733,1.723024 4.800034,-0.359713 0.4555,1.806125 -2.098279,-1.505927 -3.698626,2.292381 -0.632141,0.304906 2.221953,1.687619 -5.718919,1.488851 -1.454984,2.209344 2.850952,-1.989601 0.593123,3.395117 -1.14875,0.946875 -0.41049,4.559918 -0.07502,0.0135 2.359,1.694 -1.010728,0.886743 -3.413948,2.666537 -1.59375,2.758875 2.524548,-2.812117 1.693309,1.173135 0.388953,2.107953 0.768172,1.393883 2.8699,-3.097185 2.880797,0.268172 2.963978,-2.546849 -3.352702,-3.48316 0.535125,-4.05275 2.878129,1.941936 -3.217819,-3.202046 0.811875,-2.08525 0.544904,3.501259 1.854947,-2.863948 -1.321,-1.736 0.582246,-1.098869 4.69365,0.530512 1.28125,-1.614125 -2.487752,-1.57971 2.68062,0.304765 1.92125,-2.3905 0.259378,-1.399442 0.60916,3.167031 2.69997,0.833734 2.44358,1.115313 -3.579997,0.90822 -2.438595,3.406266 -0.839489,1.756638 5.051795,-0.829398 0.957125,2.319625 2.35276,2.186718 -3.315219,0.182762 -2.46,3.151 2.19138,-1.93997 3.5592,1.333804 3.84075,-2.523875 2.13102,-2.235878 -0.22061,3.862593 1.78923,0.521641 -1.72491,-3.71893 3.53343,-2.873129 0.61502,-0.05877 3.00814,0.398977 1.17373,-6.977126 3.14505,-2.606141 -1.84312,3.304621 3.07764,-2.990982 0.99195,0.934141 4.10343,-0.76625 1.58524,2.082215 -0.77137,0.329 -3.27465,1.160331 4.54805,1.390823 0.54125,2.130125 -2.21041,-1.478216 -4.31535,0.523446 -0.89354,0.498797 0.91826,2.233039 -6.47271,-0.272494 -2.29634,0.902078 1.24581,2.574332 -6.141127,-0.824451 -2.63587,1.46475 3.81087,2.05909 -5.351356,-0.556073 -2.44525,1.110625 3.86287,0.498152 -0.52709,1.933538 -2.13713,0.812375 -1.601278,0.317242 4.40761,1.288657 0.51525,2.001375 -1.629491,-2.390916 -4.980323,1.427389 -0.866406,0.188047 1.821057,2.799977 -5.25893,-0.185853 -2.883594,1.682328 5.43535,0.657312 -5.383031,1.145134 -1.275938,1.820078 2.365876,1.098379 7.916578,-4.758622 5.077376,-0.767125 -1.984693,1.537249 2.842392,-0.405153 2.644562,-2.470453 2.01082,1.733168 -2.352932,3.961135 1.50981,1.377781 -0.9951,-1.496407 -0.4117,-4.738033 1.38819,-1.341781 -1.47098,-2.424167 1.9126,-4.73739 0.547,-1.19 2.0651,-0.531316 0.74605,-6.26773 2.46403,-2.035234 -0.21443,2.619548 1.0755,-5.054755 1.69174,-0.990969 1.15996,2.480226 0.54304,-6.400573 2.00162,-1.600688 0.77251,4.045043 0.80189,-5.160214 2.28561,-1.223984 -1.41935,3.049641 1.88351,0.04728 1.485,-1.867125 1.60454,1.140022 0.28923,4.211677 1.78787,0.739 1.30538,-3.394673 0.83343,2.021756 1.3103,1.461187 0.87137,-1.513036 3.0596,-4.489846 1.64075,-0.820234 -1.67641,0.219557 2.11979,1.542367 -0.91192,1.443047 3.73013,2.534314 -0.32376,3.282859 -0.71213,0.01637 -2.97477,-0.878537 2.08619,4.762523 -1.27787,1.752875 -0.0194,-1.714887 -4.21663,0.0524 -3.64686,0.113344 3.36942,1.824367 -1.69836,2.302614 -0.82114,-0.523594 -0.60154,2.49018 -5.30058,1.117902 -1.766,3.262 -0.40002,0.501528 -4.76068,-0.968345 -3.77698,0.94 2.22089,-0.298065 5.22397,0.872477 6.26732,-1.209938 1.53946,-0.397589 -1.2462,3.153621 1.40666,0.934938 -0.30248,-2.699203 4.17058,-1.2557 0.599,0.38 2.48487,1.148976 3.01689,-4.740623 2.996,0.09 0.58662,0.126925 2.77989,-4.722073 1.98537,-1.086 -1.33022,3.34378 7.72123,-2.804387 5.71011,0.176016 0.36684,1.277634 -6.78,0.2182 -3.71811,3.196609 C 121.1817,41.625694 118.453,35.359449 118.637,38.97 c 2.33068,2.499644 -1.54653,1.544671 -1.316,-0.911 -2.51625,-0.921601 0.36765,4.787679 -2.34214,1.667937 1.02867,-2.579551 -3.12286,-2.046744 -1.24661,-0.02094 -0.24768,2.392533 -2.59784,-1.798891 -1.04825,-1.669 -4.11078,-1.873046 1.10915,4.144514 -2.986,1.164 2.50867,-2.266362 -6.91663,-1.901859 -2.98703,0.392797 0.28093,1.356968 -4.48343,-2.958742 -2.7011,-0.0087 2.40006,1.878519 -7.832901,2.4734 -1.86575,3.153125 2.26371,2.470289 -6.04649,-1.160458 -1.97312,1.338375 3.12812,1.832328 -4.985403,-0.529323 -2.401391,0.904516 4.234731,1.36774 -7.683872,-0.240237 -1.039484,1.427609 1.981564,1.722601 6.897065,-3.208761 3.871875,0.28925 2.82892,1.312524 1.39734,-4.712637 2.69875,-1.527875 1.16288,3.921033 0.78045,-4.851464 1.82461,0.03894 -0.69528,2.164341 2.23861,-0.488902 0.68464,-2.174062 1.73838,1.30031 2.2658,3.711086 2.018,-0.131625 0.95717,-2.216398 1.98591,4.692913 1.90787,3.75e-4 -1.81577,-2.598447 3.28324,-0.238056 0.98613,1.06025 1.65377,-2.522217 7.55948,-3.003719 2.60452,-0.228844 -2.68646,-0.74336 3.16111,2.897774 -1.10952,0.727844 -2.50651,-1.188975 1.86357,3.891615 -1.4205,1.25875 -2.87738,-2.858846 1.26574,3.544181 -2.10277,0.724281 -0.0505,-2.031287 -3.07949,0.159871 0.002,0.741969 -1.98956,0.968462 -3.52603,-2.709215 -2.386,1.142 -2.18152,-1.080276 -2.74082,-2.362425 -2.17663,0.2095 -0.36013,-0.809714 -3.7473,-2.170045 -2.9609,-0.786984 2.38376,2.431614 5.41411,2.110373 7.02153,0.419484 -1.70677,2.871206 1.40723,1.192281 1.525,-0.698 -0.0864,1.379632 0.24622,3.71871 1.44462,0.714125 2.70667,-1.782557 -1.79611,3.916836 1.59661,1.258125 0.59751,-3.517035 1.99956,-0.607172 0.76677,0.62075 4.49596,-0.167395 -1.92574,-5.856829 2.87575,-2.675938 2.11869,3.027325 -2.27842,-3.765415 1.12225,-1.713062 1.22244,2.87858 1.71832,-0.648497 -0.206,-1.644 3.08619,-0.878103 1.60581,2.85572 3.485,0.391 -2.56469,-0.615299 -0.51054,-2.972746 0.411,-0.432 2.43787,-0.997647 -2.53568,-3.809954 1.28369,-2.308297 1.72961,2.576168 -0.94546,-3.411989 1.55872,-0.817344 1.65945,2.835305 -0.99953,-4.179861 1.82159,-1.154359 -0.41861,3.445555 1.81385,-5.062015 1.46037,-0.451375 -1.02525,0.08687 5.32164,1.154544 1.51875,1.934875 -3.85421,-2.418983 0.99008,3.550224 -2.50426,0.649625 -0.46839,-1.469657 -2.42159,0.3355 -0.18874,0.906328 0.47784,2.238695 -4.54211,-1.87261 -1.89937,1.042547 2.01373,2.629339 -2.45375,-1.317229 -2.77275,1.378 3.32291,-0.382722 1.33434,2.229825 -0.722,0.399 -3.28519,2.049472 3.4242,0.574701 -0.75367,2.126484 -3.44547,0.02135 -2.33517,2.425116 0.79175,0.421547 3.55473,-0.754227 3.81048,-3.49057 4.55462,-1.71914 -0.46977,-2.905371 2.88425,-2.095433 0.6573,-0.161891 1.24949,-1.011167 4.22793,-3.378702 1.739,-0.226 2.15747,-0.133423 3.1716,-5.052375 2.276,-0.436 2.18384,-0.608243 -6.27287,2.940903 -1.10084,1.499031 6.23923,1.384913 -7.25851,0.949565 -1.88116,3.084969 -1.2515,0.447233 -5.00708,-0.783241 -0.984,1.057 2.99044,-1.688859 -1.71313,3.287391 1.66625,0.618125 -0.48318,-2.393265 5.38624,-4.360702 2.08475,-0.503125 3.70888,-2.384233 3.04613,1.789412 -0.468,0.257 3.84842,1.659005 0.43407,2.374052 -0.748,0.305625 -1.55422,2.323481 3.27489,3.040917 4.162,2.094375 -2.76809,1.150035 -2.40641,1.37153 -1.867,3.487 -2.58234,0.140733 -0.71668,-3.268395 -3.618,-1.904 2.52043,1.904217 -0.27086,4.038478 3.82172,2.470141 3.23291,-2.139835 2.52538,1.608402 -0.80272,0.680859 3.56703,1.767947 0.0761,1.778347 -1.10775,0.0013 -0.49943,1.128129 1.98318,3.358171 -1.52625,2.00775 0.73499,-3.163154 -0.88961,-0.07346 -1.19103,-0.681602 -2.09525,-0.551102 -5.55393,-1.17368 -4.60797,1.931602 -0.89954,-1.53036 -4.38554,-4.437526 -2.46878,-1.087938 3.5012,2.506368 -1.46806,1.963363 -1.33335,-1.260937 -2.63903,-2.126601 -4.65331,-0.847846 -0.61087,0.188875 -1.26056,2.448515 -3.13461,-2.669574 -2.063,1.488 2.66344,-1.252205 4.00512,1.374089 0.271,0.867 2.14912,0.749737 4.23318,1.08776 0.58485,1.111 0.83845,-0.234974 3.87294,4.204633 0.4714,2.211875 -0.77997,-4.666853 -1.70342,4.119944 -2.21108,-0.610078 1.58373,-2.430778 0.59243,-2.376487 -0.67317,-0.750797 -2.38321,-0.461438 3.72196,-4.690214 -0.59433,-1.983484 -2.14814,-1.032691 3.75838,-3.037814 -0.14567,-4.275516 0.25449,4.442804 -1.02014,0.056 -1.39567,-1.050766 -5.14274,-3.533551 -1.09374,0.246863 -0.87736,1.108297 -5.36841,-1.714448 4.59124,2.755677 -0.9605,1.891813 -1.30984,-2.560315 -0.8554,3.781669 0.73253,0.938656 2.86786,2.343625 -4.1407,0.693067 -0.01,2.416 4.45293,1.273756 -4.26896,0.683471 0.57,1.906 3.28161,-0.505516 0.72097,3.003111 -0.803,0.404 -0.38268,3.124158 7.69346,0.09004 2.326,2.15 -2.10548,0.484509 -0.91678,0.314881 -1.29808,2.388156 -2.42649,1.903981 0.7137,-5.977111 -2.46342,-2.149906 -4.99754,0.507554 3.63704,-2.672851 -0.1461,-2.666041 -2.95318,2.007121 -2.09348,-2.682186 0.5086,-0.601209 0.81676,-4.343972 -3.61712,0.418085 -2.96852,-2.024578 2.49344,-0.730582 3.34274,-2.200878 0.34427,-1.715047 -2.63518,-1.806275 4.89172,-0.760905 0.49562,-2.118 -3.77574,-1.436568 3.56828,-0.107419 0.83963,-2.578375 -1.516,1.985303 -3.25726,-1.117113 -0.063,-0.445 0.28578,-3.933706 -7.72992,-4.720565 -2.164,-3.159 1.87351,2.486884 -4.72274,0.171865 -0.34988,2.031875 3.62126,1.051653 -5.20896,0.809578 0.79888,2.350125 -1.07541,1.366336 -4.16588,0.09085 -0.81363,1.707125 1.81909,2.758144 -4.10611,-1.018661 -1.89337,2.045875 4.13366,-0.351196 0.4048,2.737251 -0.429,0.161 -0.42979,1.348225 3.01652,4.152034 -0.48856,2.369531 -0.21875,-3.181807 -1.70802,5.480664 -1.89307,0.291094 2.39843,-1.740249 -3.683745,-2.786319 0.7635,-2.869422 1.16779,1.574269 2.4462,-2.83451 -0.0141,-0.721703 -3.556058,-1.315253 5.36772,-1.772785 -0.18734,-2.155859 -1.29347,-0.784582 4.36554,-1.915034 0.35748,-1.859641 -2.775314,-0.444587 4.10732,-0.846291 1.15611,-2.861 -1.06762,2.859123 -3.167904,0.169998 0.151,-0.567125 0.6333,-3.433297 -3.40594,2.723939 -1.53788,-1.18025 1.30946,-3.993798 -0.28397,1.833479 -1.52112,-0.652625 3.36508,-2.605723 -6.688796,-3.47273 -1.0985,-1.6005 2.31671,1.755823 -3.687143,-1.057471 -0.836703,1.516656 4.320343,0.440709 -2.578975,1.230524 0.474453,2.024969 3.39909,0.237185 -0.465463,1.464155 -0.70675,1.11425 1.152933,1.455969 4.70837,0.918964 0.6535,2.027625 -1.142865,-2.833302 -0.804009,2.330751 1.803,0.762 -1.160713,1.862109 -4.314928,-0.434241 -2.355594,1.841266 4.467274,1.007124 -3.679121,0.172245 -0.101906,1.652109 3.50974,0.936499 -2.428222,2.711368 -1.1135,0.118625 -0.321025,4.040139 -4.421749,1.518776 -1.21293,-0.06778 1.73032,-1.13481 -5.043635,1.32363 -1.92257,-2.066096 -0.387587,-0.866074 -2.282452,1.222649 -0.493187,-1.600625 -0.285975,-2.309923 -2.406747,3.536642 -1.409938,-0.5385 1.908908,-3.020177 -3.330144,1.335977 -1.1225,-1.882625 2.166555,-2.748883 -7.236692,0.826863 -1.725125,0.2665 2.552398,-0.27612 -2.334022,2.117411 1.81725,1.845125 -2.886435,1.218007 -0.286171,0.654255 0.715,2.152 -4.902819,0.17642 4.038826,1.496369 -1.013,2.078 2.415292,1.399141 -0.574384,4.356105 -0.571,1.132 -3.8887,1.787938 -1.569891,-0.277829 -0.302,-1.268043 1.16475,-2.272115 -4.284836,1.492668 -1.581,-1.156957 2.384603,-1.56857 -0.224994,-1.127261 -1.579,-0.865 0.812316,-1.636133 3.493605,-1.391273 0.763,-3.164 1.052046,2.180639 -3.823644,1.057513 -0.363,-0.465 -1.036367,-3.149778 -2.398427,3.296343 -2.347,-0.277875 1.100218,-1.794419 -3.32267,-2.045127 -0.51,-0.127125 -1.286872,1.295584 -3.01853,-3.435112 -2.788375,-1.09175 1.291157,3.087816 -2.547839,-2.526145 -2.907625,0.81875 0.132235,-2.150138 -1.840263,1.98853 1.480063,0.733141 C 86.881601,55.388625 81.316589,64.172943 83.587,68.091 79.460761,66.366524 85.487596,55.826666 80.045781,61.166734 77.60612,63.26765 83.19092,66.878826 80.176,69.144 81.684218,66.455981 77.650038,60.855346 78.319,66.534875 79.296152,70.51121 77.705326,71.156225 78.137,67.29 76.033543,68.580063 72.855864,77.161823 74.315375,70.939125 75.875249,68.20533 78.696308,65.430584 75.392,62.872 74.886241,65.092356 73.739281,69.548905 74.104422,64.730172 76.616124,62.772097 76.52947,52.99106 73.287656,58.847187 72.572167,65.154369 73.904545,71.530139 73.496,77.881 c 2.695046,-0.410894 0.978447,-8.157561 2.56,-3.75 -0.141681,-2.719806 1.508103,-4.794372 1.147,-1.348 2.178857,-0.424848 2.666676,-6.63981 2.147,-1.319 1.956322,-0.975753 4.16805,-6.451751 3.1585,-1.5805 -3.127957,1.044415 4.247684,0.32483 0.1105,1.6715 -1.372999,-1.899999 -3.002967,0.647832 -0.161,0.328 -1.340999,1.204746 -5.087469,-0.282487 -1.397,1.393 -1.964947,0.678296 -4.196407,-0.643448 -1.635,1.239 -2.729526,-1.639305 -5.733313,4.535148 -1.877,1.17 4.21353,-0.004 8.299838,-6.340315 6.507,-6.766 0.125597,-2.740964 2.61746,2.839093 1.065,-1.041 -2.034259,-3.67641 3.791779,1.556189 0.918,-2.523 -1.653363,-3.830495 2.535602,2.061929 3.049,-1.727 3.834396,-0.574495 -3.527199,2.927802 1.11,2.522 -1.340026,0.352262 -5.20335,1.481163 -0.932,1.038 -2.620069,1.647366 -4.033945,1.775513 0.172,2.04 2.857055,3.397806 -1.703948,-3.388746 1.834,-1.249 -0.148261,3.282138 1.02087,-1.054644 -0.313,-2.405 2.262059,-0.417605 1.545255,4.511232 2.585,0.702 -3.266539,-2.187304 1.842439,-3.469433 0.315,-0.251 1.935538,-0.149969 0.299574,-5.581143 2.008,-1.553 0.295224,-3.433237 6.62079,-2.30131 2.637,-0.574 -2.118359,0.01694 -5.237319,3.187394 -1.551203,2.583063 1.222769,2.013264 -5.552054,-0.272439 -2.631733,1.426937 5.204522,0.209908 -6.185287,1.306525 0.167936,1.777 -0.595902,1.959071 -5.075732,-0.367381 -2.4755,1.59875 2.884543,1.194444 -6.5755,0.789029 -0.619584,1.651904 3.892747,1.542497 2.962802,-4.875923 4.741084,-2.292654 -2.098142,2.202808 2.634254,0.07 0.297625,-1.292875 2.005438,-4.134274 1.25252,3.909318 2.205375,-0.299125 -0.163072,-5.22849 2.40397,3.373991 1.87,-1.444 -0.22757,-3.957656 1.71072,0.04588 1.56534,0.416922 0.3644,-2.177467 4.15931,-4.596279 2.22216,-1.032422 -4.07081,0.980455 2.88103,2.088359 -1.40416,2.474719 -2.44769,-1.430616 -2.5782,0.766595 0.29966,0.867781 -2.0554,1.22021 -4.397276,-1.330408 -6.219,1.932 3.37154,-0.06753 -0.09568,0.936305 -1.559609,0.4275 -1.04821,1.140281 5.966499,1.957753 5.990169,-0.584656 1.30902,-0.61958 -1.11495,3.054167 1.19807,0.75525 -0.27317,-2.348211 2.4172,-2.954035 0.98737,-0.08209 2.50628,0.06617 0.39759,-5.150884 2.862,-2.186 -1.94031,2.76897 5.29241,-5.552125 2.379,-0.302 -5.08,1.268575 3.85142,2.081127 -1.2245,2.803625 -2.30609,-1.903093 -1.55091,-0.446878 -0.3455,1.313375 -1.50582,0.137439 -5.37334,-2.263788 -3.316,-0.203375 3.50725,1.987569 -7.421797,-0.840958 -0.81723,1.395598 2.92174,1.675279 4.8805,-0.319342 5.93223,-2.197223 0.78495,1.657821 -1.29749,2.706253 1.43613,1.0325 -1.09832,-3.675728 0.55934,-1.10605 1.41187,-0.925 1.08756,-0.175812 -1.50828,-3.615578 1.431,-1.8385 1.92537,-3.743713 1.80201,0.298792 0.074,1.731 3.67131,0.764369 -0.25235,1.613791 -0.943,0.752 -0.81292,0.761757 2.4616,2.838156 -0.84889,1.646234 -0.72911,-2.08952 -1.94833,0.79558 -0.27311,1.173766 -1.55048,0.03662 -2.34594,-2.039919 -3.633,0.041 4.18132,2.349569 10.11233,-1.176203 7.57838,-4.812875 0.53394,-2.521468 2.12371,2.81464 1.48232,-0.779344 -2.51779,-2.174579 0.49775,-3.053494 0.6503,-0.658781 1.44701,-1.590264 -3.27865,-5.691038 0.51613,-3.156 1.7028,2.43515 0.34251,-8.002731 1.97487,-3.012 2.74012,-1.496133 2.91385,-5.374176 4.56788,-3.204242 4.16699,-1.453029 1.63616,1.907538 -1.10288,1.253242 4.67398,2.097722 -4.86549,-0.58584 -0.048,1.42 -1.29245,-0.0017 -4.8142,0.876624 -1.087,1.159 -0.85654,0.465813 -4.93021,1.924159 -0.82947,1.673266 2.29386,0.949226 -5.41545,1.341792 -1.11615,1.910859 4.13865,0.481458 -5.68345,1.39184 0.62062,1.875875 -0.81113,0.293567 -5.13625,2.778687 -1.23659,1.299531 1.8473,-0.376421 -5.51526,4.647668 -0.26379,1.894219 2.52995,-0.4742 2.91801,-7.957473 3.14276,-3.099375 -0.33575,2.186574 1.81857,-1.564199 0.78165,-2.633781 2.22472,-1.524254 0.43931,4.598489 2.30197,0.520406 -2.18713,-2.317613 1.84597,-2.698911 1.027,-0.15 1.1458,-1.17193 -0.51063,-5.623136 1.78566,-2.379516 0.91177,2.491834 -0.40787,-5.82256 1.69898,-1.69325 -0.17616,3.161931 0.75554,-5.501141 1.48481,-0.842093 -0.15999,1.230359 3.00027,-0.390866 -0.14545,1.612859 l 1.3405,0.200375 z M 27.369,41.477 c 3.614882,3.858536 -4.212451,-0.633268 -0.682,2.083 2.112565,1.427444 2.691402,0.666897 3.315,-1.722 -4.346023,3.824779 3.297982,-4.72405 -1.965,-0.548 2.637983,-3.05788 -3.561021,-5.26023 -0.668,0.187 z m -2.14,-0.607 c 2.200131,2.910388 2.887124,-1.598817 0,0 z m 85.256,-6.429 c 0.3016,3.299787 2.75311,-0.764028 0,0 z m -0.043,0.019 c 0.0706,0.02989 0.0441,-0.132757 0,0 z M 38.871,58.992 c -0.344926,4.890694 5.244335,1.400547 0,0 z m 20.201,-2.339 c -3.218324,-2.573811 -1.120761,4.78864 0,0 z m -17.686,-4.88 c -4.338751,1.415528 -1.183889,3.823142 0,0 z M 45.582,58 c 0.609465,3.721364 4.48115,1.10126 0,0 z m -4.76,-2.996 c -3.581944,0.04206 -0.100691,4.154654 0,0 z m 11.726,6.563 c 1.807236,-3.731616 -3.397152,-0.505562 0,0 z M 51.384,58.52 c -2.581327,-1.248363 -0.887378,3.811396 0,0 z m 8.545,-0.358 c -3.691861,0.554316 -0.832347,3.462077 0,0 z m -22.468,3.16 c -3.253883,-2.883406 -2.365519,1.945445 0,0 z m 6.861,-9.203 c 0.108288,-3.543594 -2.908771,-0.06414 0,0 z m -1.119,-1.557 c 0.07558,0.03586 0.02948,-0.11751 0,0 z m -5.374,14.447 c -3.949684,-2.488084 -2.168307,1.527544 0,0 z M 80.616,39.603 c -3.606915,-1.637367 -2.603714,4.374547 0,0 z m -6.762,5.971 c -1.571892,3.856578 4.304221,1.035201 0,0 z m 2.949,-8.508 c -0.01623,-2.495267 -5.959021,-0.870592 0,0 z M 61.586,32.678 c 3.742743,2.499773 1.345868,-3.099446 0,0 z m 2.803,2.445 c -3.530087,1.376231 0.582796,3.693998 0,0 z m 0.816,2.163 c -3.065217,-0.541873 -0.113102,4.347413 0,0 z m -1.082,1.821 c -0.05942,-0.106084 -0.0017,-0.0077 0,0 z M 29.72,64.068 c -2.213022,-2.997308 -3.8127,0.489113 0,0 z m -1.103,-2.947 c -3.912321,-0.403138 3.108949,2.797404 0,0 z m -1.001,-0.375 c 0.04183,0.04577 0.03029,-0.09454 0,0 z m 83.678,-5.327 c 3.42387,0.987184 0.85006,-3.266815 0,0 z m 0.003,0.027 c 0.0266,-0.04862 -0.11414,-0.05058 0,0 z m 3.643,-0.209 c -3.59371,-0.03733 -0.93841,3.154967 0,0 z m 3.429,-3.814 c -2.13318,-3.085599 -2.85255,1.518798 0,0 z m -2.026,-0.8 c -0.11321,0.03751 0.0599,0.04602 0,0 z M 69.093,64.42 c -4.591093,0.387625 -0.307228,4.088357 0,0 z M 37.836,44.408 c 0.02309,-0.05606 -0.09084,-0.03766 0,0 z m 2.062,-1.435 c -3.461442,-1.393536 -2.030399,4.07742 0,0 z m -0.27,6.347 c -2.202314,-0.726035 -0.810947,4.400965 0,0 z m -11.774,2.395 c -0.890685,3.253491 4.025247,1.522024 0,0 z m -3.565,-0.846 c 3.595823,-2.438832 -0.694515,-2.264092 0,0 z m 0.015,0.053 c 0.01978,-0.124175 -0.08036,1.52e-4 0,0 z m 5.312,-0.043 c 3.114905,1.336384 2.078163,-2.76497 0,0 z m 57.547,25.133 c 2.740991,2.375237 2.76966,-3.030965 0,0 z m 3.645,-30.778 c 3.20847,2.027106 2.875157,-2.925537 0,0 z"
         style="fill:#000000;fill-opacity:1;stroke-width:0.564968"
         id="path4038-1-2-7-0" />
      <g
         style="fill:#000000;fill-opacity:1;stroke-width:0.56496847"
         id="g4040-4-3-5-6" />
      <g
         style="fill:#000000;fill-opacity:1;stroke-width:0.56496847"
         id="g4042-0-18-7-3" />
      <g
         style="fill:#000000;fill-opacity:1;stroke-width:0.56496847"
         id="g4044-3-3-1-2" />
      <g
         style="fill:#000000;fill-opacity:1;stroke-width:0.56496847"
         id="g4046-1-4-6-0" />
      <g
         style="fill:#000000;fill-opacity:1;stroke-width:0.56496847"
         id="g4048-2-22-9-6" />
      <g
         style="fill:#000000;fill-opacity:1;stroke-width:0.56496847"
         id="g4050-7-4-8-1" />
    </g>
  </g>
</svg>
